<?xml version="1.0" encoding="UTF-8" standalone="no"?>
<!-- Created with Inkscape (http://www.inkscape.org/) -->

<svg
   xmlns:dc="http://purl.org/dc/elements/1.1/"
   xmlns:cc="http://creativecommons.org/ns#"
   xmlns:rdf="http://www.w3.org/1999/02/22-rdf-syntax-ns#"
   xmlns:svg="http://www.w3.org/2000/svg"
   xmlns="http://www.w3.org/2000/svg"
   xmlns:sodipodi="http://sodipodi.sourceforge.net/DTD/sodipodi-0.dtd"
   xmlns:inkscape="http://www.inkscape.org/namespaces/inkscape"
   width="256"
   height="256"
   viewBox="0 0 67.733332 67.733335"
   version="1.1"
   id="svg891"
   inkscape:version="0.92.4 (5da689c313, 2019-01-14)"
   sodipodi:docname="antler.svg"
   inkscape:export-filename="C:\Prog\Projets\teeworlds\build_genie\mods\xmas\antler.png"
   inkscape:export-xdpi="96"
   inkscape:export-ydpi="96">
  <defs
     id="defs885" />
  <sodipodi:namedview
     id="base"
     pagecolor="#ffffff"
     bordercolor="#666666"
     borderopacity="1.0"
     inkscape:pageopacity="0.0"
     inkscape:pageshadow="2"
     inkscape:zoom="6.6843688"
     inkscape:cx="95.040184"
     inkscape:cy="100.29166"
     inkscape:document-units="mm"
     inkscape:current-layer="layer1"
     showgrid="true"
     units="px"
     inkscape:snap-global="false"
     inkscape:pagecheckerboard="true"
     inkscape:window-width="2560"
     inkscape:window-height="1377"
     inkscape:window-x="1912"
     inkscape:window-y="-8"
     inkscape:window-maximized="1">
    <inkscape:grid
       type="xygrid"
       id="grid1452"
       spacingx="33.866667"
       spacingy="33.866667" />
  </sodipodi:namedview>
  <metadata
     id="metadata888">
    <rdf:RDF>
      <cc:Work
         rdf:about="">
        <dc:format>image/svg+xml</dc:format>
        <dc:type
           rdf:resource="http://purl.org/dc/dcmitype/StillImage" />
        <dc:title></dc:title>
      </cc:Work>
    </rdf:RDF>
  </metadata>
  <g
     inkscape:label="Layer 1"
     inkscape:groupmode="layer"
     id="layer1"
     transform="translate(0,-229.26665)">
    <path
       sodipodi:type="inkscape:offset"
       inkscape:radius="1.6737412"
       inkscape:original="M 56.201172 241.62695 C 55.180098 241.57208 54.223518 241.86519 53.607422 242.88086 C 54.463113 244.53376 55.666411 246.3025 56.501953 248.63086 C 57.337498 250.95924 57.276162 254.07277 56.259766 256.61328 C 55.742887 258.52579 54.782129 260.68981 52.625 261.1582 C 49.317589 258.0069 46.114971 254.71978 42.746094 251.64844 C 40.554979 251.01973 38.219278 253.30053 39.396484 255.49609 C 43.372847 258.71305 47.117825 262.21312 50.775391 265.78516 C 49.841215 267.57812 48.536416 269.1393 47.490234 270.86328 C 46.035838 273.53155 45.933146 273.68984 45.210938 275.83984 C 44.905473 277.99179 44.059197 279.99845 44.652344 282.05859 C 45.967561 284.19646 49.641618 284.24249 51.080078 282.17773 C 51.207496 280.40391 51.18839 278.80581 51.492188 276.94141 C 51.795985 275.07701 52.837711 274.01311 54.310547 271.63086 C 55.783383 269.24861 57.082505 267.82835 58.671875 266.09766 C 60.912438 263.91996 62.04299 260.92864 62.357422 257.80273 C 62.671848 254.67688 63.251601 250.61014 62.654297 247.74023 C 62.056997 244.87031 61.692681 243.15172 59.177734 242.46094 C 58.306937 242.08522 57.222246 241.68182 56.201172 241.62695 z "
       style="fill:#000000;fill-opacity:1;stroke:none;stroke-width:0.43019968px;stroke-linecap:butt;stroke-linejoin:miter;stroke-opacity:1"
       id="path1477"
       d="m 56.291016,239.95508 c -1.395934,-0.075 -3.174762,0.50817 -4.115235,2.05859 a 1.6739086,1.6739086 0 0 0 -0.05469,1.63672 c 0.926093,1.78889 2.05068,3.44377 2.804687,5.54492 0.66653,1.85739 0.629136,4.67268 -0.220703,6.79688 a 1.6739086,1.6739086 0 0 0 -0.06055,0.18359 c -0.231777,0.8576 -0.562525,1.71165 -0.96875,2.30469 -0.231934,0.3386 -0.536939,0.42035 -0.802734,0.5957 -2.968642,-2.86324 -5.894498,-5.83283 -9,-8.66406 a 1.6739086,1.6739086 0 0 0 -0.666016,-0.37305 c -1.76287,-0.50583 -3.515793,0.14028 -4.625,1.33594 -1.109207,1.19566 -1.580651,3.19533 -0.660156,4.91211 a 1.6739086,1.6739086 0 0 0 0.421875,0.50977 c 3.565372,2.88445 6.930314,6.0557 10.257812,9.27734 -0.777893,1.24132 -1.650892,2.44989 -2.542968,3.91992 a 1.6739086,1.6739086 0 0 0 -0.03711,0.0684 c -1.451863,2.66362 -1.666922,3.07225 -2.396484,5.24414 a 1.6739086,1.6739086 0 0 0 -0.07031,0.29883 c -0.265361,1.86942 -1.301929,4.17143 -0.511719,6.91601 a 1.6739086,1.6739086 0 0 0 0.183593,0.41407 c 1.019261,1.65679 2.839431,2.4034 4.566407,2.43164 1.726976,0.0282 3.555535,-0.64686 4.660156,-2.23242 A 1.6739086,1.6739086 0 0 0 52.75,282.29688 c 0.133422,-1.85741 0.116941,-3.38238 0.394531,-5.08594 0.222377,-1.36472 1.048586,-2.2063 2.589844,-4.69922 1.397808,-2.2609 2.581774,-3.55189 4.169922,-5.28125 l -0.06641,0.0684 c 2.588101,-2.51549 3.841771,-5.9105 4.185547,-9.32813 0.308389,-3.06583 0.975127,-7.18203 0.269531,-10.57226 -0.298902,-1.43617 -0.527715,-2.71071 -1.191407,-3.91992 -0.651581,-1.18715 -1.866002,-2.1481 -3.404296,-2.59375 -0.919017,-0.39308 -2.065791,-0.85766 -3.40625,-0.92969 z" />
    <path
       style="fill:#ffffff;fill-opacity:1;stroke:none;stroke-width:0.43019968px;stroke-linecap:butt;stroke-linejoin:miter;stroke-opacity:1"
       d="m 17.213463,282.17826 c -1.43846,2.06476 -5.111609,2.01769 -6.426826,-0.12018 -0.593147,-2.06014 0.253084,-4.06667 0.558548,-6.21862 0.722208,-2.15 0.824414,-2.30754 2.27881,-4.97581 1.046182,-1.72398 2.350237,-3.28481 3.284413,-5.07777 -3.657566,-3.57204 -7.4024561,-7.07319 -11.3788191,-10.29015 -1.177206,-2.19556 1.1581,-4.47524 3.349215,-3.84653 3.3688771,3.07134 6.5718421,6.35757 9.8792531,9.50887 2.157129,-0.46839 3.117895,-2.63298 3.634774,-4.54549 1.016396,-2.54051 1.078369,-5.65412 0.242824,-7.9825 -0.835542,-2.32836 -2.039749,-4.09584 -2.89544,-5.74874 1.232193,-2.03134 3.829597,-1.17191 5.571191,-0.42047 2.514947,0.69078 2.878406,2.40948 3.475706,5.2794 0.597304,2.86991 0.01752,6.93717 -0.296906,10.06302 -0.314432,3.12591 -1.444282,6.11658 -3.684845,8.29428 -1.58937,1.73069 -2.889213,3.15027 -4.362049,5.53252 -1.472836,2.38225 -2.513456,3.44729 -2.817253,5.31169 -0.303797,1.8644 -0.285173,3.46263 -0.412591,5.23645 z"
       id="path1447"
       inkscape:connector-curvature="0"
       sodipodi:nodetypes="ccccccccczcczzczzcc" />
  </g>
</svg>
