<?xml version="1.0" encoding="UTF-8" standalone="no"?>
<!-- Created with Inkscape (http://www.inkscape.org/) -->

<svg
   xmlns:dc="http://purl.org/dc/elements/1.1/"
   xmlns:cc="http://creativecommons.org/ns#"
   xmlns:rdf="http://www.w3.org/1999/02/22-rdf-syntax-ns#"
   xmlns:svg="http://www.w3.org/2000/svg"
   xmlns="http://www.w3.org/2000/svg"
   xmlns:sodipodi="http://sodipodi.sourceforge.net/DTD/sodipodi-0.dtd"
   xmlns:inkscape="http://www.inkscape.org/namespaces/inkscape"
   width="256"
   height="256"
   viewBox="0 0 67.73333 67.733335"
   version="1.1"
   id="svg8"
   inkscape:version="0.92.4 (5da689c313, 2019-01-14)"
   sodipodi:docname="beard.svg"
   inkscape:export-filename="C:\Prog\Projets\teeworlds\build_genie\mods\xmas\beard.png"
   inkscape:export-xdpi="96"
   inkscape:export-ydpi="96">
  <defs
     id="defs2" />
  <sodipodi:namedview
     id="base"
     pagecolor="#ffffff"
     bordercolor="#666666"
     borderopacity="1.0"
     inkscape:pageopacity="0.0"
     inkscape:pageshadow="2"
     inkscape:zoom="3.959798"
     inkscape:cx="141.7686"
     inkscape:cy="119.21363"
     inkscape:document-units="mm"
     inkscape:current-layer="layer1"
     showgrid="true"
     units="px"
     inkscape:pagecheckerboard="true"
     inkscape:snap-global="false"
     inkscape:window-width="2560"
     inkscape:window-height="1377"
     inkscape:window-x="1912"
     inkscape:window-y="-8"
     inkscape:window-maximized="1">
    <inkscape:grid
       type="xygrid"
       id="grid840"
       spacingx="33.866666"
       spacingy="33.866666" />
  </sodipodi:namedview>
  <metadata
     id="metadata5">
    <rdf:RDF>
      <cc:Work
         rdf:about="">
        <dc:format>image/svg+xml</dc:format>
        <dc:type
           rdf:resource="http://purl.org/dc/dcmitype/StillImage" />
        <dc:title></dc:title>
      </cc:Work>
    </rdf:RDF>
  </metadata>
  <g
     inkscape:label="Layer 1"
     inkscape:groupmode="layer"
     id="layer1"
     transform="translate(0,-229.26665)">
    <path
       sodipodi:type="inkscape:offset"
       inkscape:radius="2.503216"
       inkscape:original="M 60.351562 271.62305 C 58.67485 272.24562 56.806296 274.51958 55.132812 274.3125 C 52.600473 273.67965 50.925654 274.83522 48.552734 275.66797 C 46.515174 276.37416 44.732321 274.83618 42.769531 275.13281 C 40.930471 275.88879 39.621114 277.96388 37.402344 277.74414 C 35.113384 277.47635 33.890768 276.40781 31.835938 275.30664 C 29.781108 274.20547 28.829666 274.94996 27.626953 275.03906 C 27.047075 275.25322 25.830313 276.19835 25.246094 276.40039 C 22.697118 276.86695 21.709411 277.76437 19.841797 279.36914 C 17.918278 281.63805 14.874403 280.75005 12.322266 281.01758 C 9.901687 281.86597 8.394539 284.16844 6.375 285.64453 C 4.175429 287.01907 7.3489301 286.19707 8.2832031 286.26367 C 10.448166 286.39802 12.625534 286.31595 14.632812 285.39844 C 16.897604 284.3848 19.409956 284.86359 21.681641 285.57227 C 24.998224 287.06098 28.667428 287.69755 32.292969 287.37305 C 34.593044 287.41425 36.64199 286.25166 38.875 285.95703 C 44.22512 285.62229 49.515235 287.86104 54.859375 286.86914 C 57.667685 286.34227 59.935617 284.40663 61.466797 282.06836 C 62.912827 280.31455 65.557569 273.86642 61.951172 271.70508 C 61.449454 271.39287 60.910467 271.41552 60.351562 271.62305 z "
       style="fill:#000000;fill-opacity:1;stroke:none;stroke-width:0.26458332px;stroke-linecap:butt;stroke-linejoin:miter;stroke-opacity:1"
       id="path879"
       d="m 61.289062,269.00195 c -0.670111,-0.0263 -1.310839,0.0906 -1.808593,0.27539 -1.486218,0.55184 -2.396936,1.40573 -3.175781,1.95118 -0.778846,0.54544 -1.249434,0.55206 -0.865235,0.5996 l 0.300781,0.0566 c -1.739787,-0.43479 -3.385645,-0.23526 -4.685546,0.16015 -1.29673,0.39445 -2.306063,0.90045 -3.322266,1.25781 -0.274055,0.095 -0.576836,0.0737 -1.4375,-0.16211 -0.860664,-0.23582 -2.176232,-0.74298 -3.900391,-0.48242 a 2.5034663,2.5034663 0 0 0 -0.576172,0.16016 c -1.471232,0.60478 -2.363033,1.4712 -3.027343,1.9375 -0.656383,0.46073 -0.842556,0.51864 -1.128907,0.49219 -1.603096,-0.19717 -2.376803,-0.93318 -4.644531,-2.14844 -2.75241,-1.475 -5.30102,-0.57703 -5.576172,-0.55664 a 2.5034663,2.5034663 0 0 0 -0.68164,0.14844 c -0.878802,0.32455 -1.226297,0.64011 -1.671875,0.92578 -0.445579,0.28566 -1.000197,0.53556 -0.660157,0.41797 l 0.367188,-0.0977 c -2.995526,0.5483 -4.735365,1.94475 -6.583984,3.5332 a 2.5034663,2.5034663 0 0 0 -0.279297,0.2793 c -0.436423,0.51479 -0.793374,0.62531 -1.792969,0.69727 -0.999595,0.072 -2.413827,-0.0944 -4.078125,0.0801 a 2.5034663,2.5034663 0 0 0 -0.566406,0.12696 c -3.4486396,1.20871 -5.098351,3.87433 -6.5957035,4.96875 l 0.1503906,-0.10157 c -0.3421059,0.21379 -0.6197046,0.39831 -0.9316406,0.67774 -0.311936,0.27943 -1.0444185,0.55636 -1.0058594,2.17187 0.01928,0.80776 0.5899111,1.68603 1.0683594,2.03516 0.4784483,0.34913 0.8167126,0.41584 1.0664063,0.46875 0.4993873,0.10581 0.7521311,0.0805 1.0078124,0.0703 0.5113628,-0.0204 0.9440161,-0.0831 1.3183594,-0.12695 0.3743433,-0.0439 0.7641774,-0.0421 0.5332032,-0.0586 a 2.5034663,2.5034663 0 0 0 0.023437,0.002 c 2.3314158,0.14468 4.9664868,0.0926 7.5449218,-1.08594 l -0.01758,0.008 c 1.36647,-0.61158 3.202513,-0.37053 5.279297,0.27735 l -0.279297,-0.10547 c 3.650748,1.6387 7.681283,2.33288 11.689453,2.00391 3.069239,0.0243 5.225616,-1.16865 6.785156,-1.39844 4.533706,-0.24707 9.929363,2.03032 16.185547,0.86914 a 2.5034663,2.5034663 0 0 0 0.0039,0 c 3.615292,-0.67827 6.349966,-3.08416 8.15625,-5.79883 1.16444,-1.4563 2.118393,-3.51079 2.587891,-6.0332 0.240587,-1.29257 0.325442,-2.68907 -0.03711,-4.12305 -0.360841,-1.42721 -1.295595,-2.90755 -2.771485,-3.80078 -0.611283,-0.37566 -1.302688,-0.54618 -1.966797,-0.57227 z" />
    <path
       sodipodi:nodetypes="czccccccccccccccccc"
       inkscape:connector-curvature="0"
       id="path853"
       d="m 27.626891,241.17248 c 1.202713,-0.0891 2.154665,-0.8339 4.209495,0.26727 2.054831,1.10117 3.277895,2.17027 5.566855,2.43806 2.21877,0.21974 3.52643,-1.85655 5.36549,-2.61253 1.96279,-0.29663 3.74671,1.2419 5.78427,0.53571 2.37292,-0.83275 4.047427,-1.98816 6.579767,-1.35531 2.23131,0.27611 4.810769,-3.85677 6.817639,-2.60793 3.606397,2.16134 0.962874,8.61068 -0.483156,10.36449 -1.53118,2.33827 -3.80017,4.27252 -6.60848,4.79939 -5.34414,0.9919 -10.6338,-1.24568 -15.98392,-0.91094 -2.23301,0.29463 -4.281299,1.45724 -6.581374,1.41604 -3.625541,0.3245 -7.29585,-0.31297 -10.612433,-1.80168 -2.271685,-0.70868 -4.783254,-1.18681 -7.048044,-0.17317 -2.00728,0.91751 -4.184776,1.00027 -6.3497395,0.86592 -0.934273,-0.0666 -4.107358,0.75523 -1.907787,-0.61931 2.019539,-1.47609 3.526658,-3.77824 5.9472365,-4.62663 2.552137,-0.26753 5.595394,0.62014 7.518913,-1.64877 1.867614,-1.60477 2.856055,-2.50264 5.405031,-2.9692 0.584219,-0.20204 1.800359,-1.14725 2.380237,-1.36141 z"
       style="fill:#ffffff;fill-opacity:1;stroke:none;stroke-width:0.26458332px;stroke-linecap:butt;stroke-linejoin:miter;stroke-opacity:1" />
    <path
       style="fill:#e1ecf4;fill-opacity:1;stroke:none;stroke-width:0.99999994px;stroke-linecap:butt;stroke-linejoin:miter;stroke-opacity:1"
       d="m 235.73242,33.525391 c 4.25998,16.261074 -3.89914,26.301251 -11.48116,30.457437 -8.41392,0.15307 -13.12594,11.391511 -17.26776,16.27655 -11.21424,4.663559 -21.24238,-0.936068 -32.7667,-0.144144 -8.0582,0.978596 -16.21084,2.521833 -24.29688,0.498047 -7.65849,-2.45896 -15.85144,-2.499065 -23.49219,0.115235 -7.58959,3.480982 -17.37313,9.398904 -24.01757,0.601562 -7.650002,-6.140674 -16.314521,-0.164674 -24.552738,-0.06641 -7.485147,-2.019137 -16.209525,-7.464605 -22.988281,-0.669922 -6.088679,2.958841 -12.631843,4.925996 -19.121094,6.998047 0.0072,1.18e-4 0.01432,-1.16e-4 0.02148,0 0.830016,0.01341 1.658607,0.01429 2.486328,0 2.504622,-0.04323 4.996348,-0.224354 7.453125,-0.613281 1.589496,-0.25163 3.163188,-0.595028 4.71875,-1.039063 0.07356,-0.02107 0.147233,-0.04096 0.220704,-0.0625 0.717222,-0.209605 1.430492,-0.444352 2.138671,-0.701172 0.134597,-0.04889 0.268097,-0.101675 0.402344,-0.152343 0.710343,-0.267716 1.417287,-0.551179 2.117188,-0.871094 2.139351,-0.957498 4.33744,-1.563061 6.564453,-1.890625 1.113904,-0.163739 2.236239,-0.258872 3.361328,-0.292969 5.624986,-0.17055 11.344752,1.163843 16.710937,2.837891 0.783445,0.351663 1.571703,0.691158 2.365235,1.017578 5.52e-4,2.27e-4 0.0014,-2.28e-4 0.002,0 0.792978,0.326171 1.590263,0.640646 2.392578,0.941406 5.67e-4,2.13e-4 0.0014,-2.13e-4 0.002,0 0.802314,0.300739 1.609008,0.588156 2.419922,0.863281 5.81e-4,1.97e-4 0.0014,-1.97e-4 0.002,0 0.810914,0.275104 1.626533,0.537822 2.445313,0.78711 2.458115,0.748402 4.949099,1.380526 7.464843,1.892578 0.838582,0.170684 1.679931,0.32864 2.523441,0.472656 2.52989,0.431939 5.08159,0.743253 7.64257,0.931641 6.5e-4,4.7e-5 0.001,-4.8e-5 0.002,0 2.56164,0.188372 5.13222,0.254155 7.70508,0.193359 0.85696,-0.02025 1.71552,-0.05522 2.57226,-0.103516 0.85738,-0.04835 1.71584,-0.110846 2.57227,-0.1875 0.54332,0.0097 1.08286,0.0024 1.61914,-0.02148 1.60884,-0.0717 3.18805,-0.286238 4.74805,-0.591797 0.51937,-0.10173 1.03716,-0.213957 1.55273,-0.333984 0.10309,-0.02401 0.20563,-0.05153 0.30859,-0.07617 1.44414,-0.345626 2.87524,-0.749227 4.30274,-1.175781 2.03832,-0.609078 4.06888,-1.258148 6.11718,-1.824219 2.04831,-0.566071 4.11468,-1.049735 6.22461,-1.328125 1.26381,-0.07907 2.52693,-0.120438 3.78907,-0.128906 2.52426,-0.01694 5.04562,0.09759 7.56445,0.298828 1.25942,0.100616 2.51702,0.22223 3.77539,0.361328 6.5e-4,7.1e-5 0.001,-7.1e-5 0.002,0 0.13674,0.01512 0.27343,0.03528 0.41016,0.05078 2.37918,0.269729 4.75813,0.591657 7.13477,0.939453 3.77078,0.551816 7.5376,1.157242 11.30664,1.669922 6.3e-4,8.7e-5 0.001,-8.7e-5 0.002,0 1.2557,0.170796 2.51164,0.331507 3.76758,0.476563 6.4e-4,7.4e-5 0.001,-7.4e-5 0.002,0 2.51251,0.290153 5.02633,0.517695 7.54102,0.640625 1.8865,0.09222 3.77354,0.126076 5.66211,0.08203 3.1476,-0.07341 6.29909,-0.361498 9.45507,-0.947266 6.63381,-1.244575 12.47202,-4.566849 17.33008,-9.041015 0.48582,-0.447439 0.96169,-0.907401 1.42774,-1.376954 0.46571,-0.469217 0.92158,-0.948048 1.36718,-1.4375 3.3e-4,-3.62e-4 -3.3e-4,-0.0016 0,-0.002 0.20775,-0.2282 0.40606,-0.464962 0.60938,-0.697265 0.66915,-0.76459 1.32305,-1.544914 1.94336,-2.34961 0.40486,-0.525201 0.79805,-1.05772 1.18164,-1.597656 0.3833,-0.539492 0.75549,-1.084371 1.11719,-1.636719 5.23428,-6.34837 14.60582,-28.965295 3.41601,-38.042968 z"
       transform="matrix(0.26458333,0,0,0.26458333,0,229.26665)"
       id="path855"
       inkscape:connector-curvature="0"
       sodipodi:nodetypes="cccccccccccssccccccccccccccsssccsccsscccccsccccsccccsscccccccccc" />
  </g>
</svg>
