<?xml version="1.0" encoding="UTF-8" standalone="no"?>
<!-- Created with Inkscape (http://www.inkscape.org/) -->

<svg
   xmlns:dc="http://purl.org/dc/elements/1.1/"
   xmlns:cc="http://creativecommons.org/ns#"
   xmlns:rdf="http://www.w3.org/1999/02/22-rdf-syntax-ns#"
   xmlns:svg="http://www.w3.org/2000/svg"
   xmlns="http://www.w3.org/2000/svg"
   xmlns:sodipodi="http://sodipodi.sourceforge.net/DTD/sodipodi-0.dtd"
   xmlns:inkscape="http://www.inkscape.org/namespaces/inkscape"
   width="768"
   height="256"
   viewBox="0 0 203.19999 67.733335"
   version="1.1"
   id="svg1112"
   inkscape:version="0.92.4 (5da689c313, 2019-01-14)"
   sodipodi:docname="present.svg"
   inkscape:export-filename="C:\Prog\Projets\teeworlds\build_genie\mods\xmas\present.png"
   inkscape:export-xdpi="96"
   inkscape:export-ydpi="96">
  <defs
     id="defs1106" />
  <sodipodi:namedview
     id="base"
     pagecolor="#ffffff"
     bordercolor="#666666"
     borderopacity="1.0"
     inkscape:pageopacity="0.0"
     inkscape:pageshadow="2"
     inkscape:zoom="1.979899"
     inkscape:cx="474.83162"
     inkscape:cy="114.06873"
     inkscape:document-units="mm"
     inkscape:current-layer="layer1"
     showgrid="true"
     units="px"
     inkscape:pagecheckerboard="true"
     inkscape:window-width="2560"
     inkscape:window-height="1377"
     inkscape:window-x="1912"
     inkscape:window-y="-8"
     inkscape:window-maximized="1"
     showguides="false"
     inkscape:snap-global="false">
    <inkscape:grid
       type="xygrid"
       id="grid5391"
       spacingx="67.733332"
       spacingy="67.733332" />
  </sodipodi:namedview>
  <metadata
     id="metadata1109">
    <rdf:RDF>
      <cc:Work
         rdf:about="">
        <dc:format>image/svg+xml</dc:format>
        <dc:type
           rdf:resource="http://purl.org/dc/dcmitype/StillImage" />
        <dc:title></dc:title>
      </cc:Work>
    </rdf:RDF>
  </metadata>
  <g
     inkscape:label="Layer 1"
     inkscape:groupmode="layer"
     id="layer1"
     transform="translate(0,-229.26665)">
    <path
       sodipodi:type="inkscape:offset"
       inkscape:radius="7.2093735"
       inkscape:original="M 582.81641 8.2226562 C 581.67219 8.2011133 580.52437 8.2717712 579.37305 8.4550781 C 574.85099 9.4871915 572.32317 13.945974 570.51758 17.847656 C 568.6201 22.415178 567.30515 28.106615 570.3457 32.503906 C 573.56276 38.144587 579.50621 42.696601 586.22266 42.513672 C 592.41375 43.062837 598.66716 43.057075 604.79102 41.888672 C 612.46841 40.652085 620.26118 42.124048 627.95703 41.099609 A 17.235729 17.235729 0 0 0 627.9707 41.138672 C 625.20978 41.481702 622.99721 43.808681 623.11719 46.646484 C 623.12119 46.730464 623.12295 46.814453 623.12695 46.898438 L 560.99219 46.898438 C 553.01754 46.898438 546.41095 53.320509 546.59766 61.292969 C 547.08584 82.155933 549.00769 102.75764 550.53516 123.43164 C 547.7594 123.65363 545.61133 126.10885 545.61133 128.97266 L 545.61133 160.28711 C 545.61133 163.36504 548.09137 165.98662 551.16602 165.84375 C 551.61715 165.82275 552.06839 165.804 552.51953 165.7832 C 552.65719 186.12741 551.24937 206.75375 546.59766 227.96875 C 544.88969 235.75836 553.02661 242.74369 560.99219 242.36328 C 581.79675 241.3697 602.51362 240.41488 623.3125 239.87891 C 623.9574 242.19661 626.13299 243.88477 628.67188 243.88477 L 659.98633 243.88477 C 662.66624 243.88477 664.98264 242.00458 665.45703 239.48828 C 685.95316 239.68498 706.63681 240.5209 727.66797 242.36328 C 735.6122 243.05921 743.98363 235.70854 742.0625 227.96875 C 736.95828 207.40503 735.2402 186.6125 735.25391 165.71875 C 736.00058 165.76255 736.74747 165.79855 737.49414 165.84375 C 740.56644 166.02951 743.04883 163.36504 743.04883 160.28711 L 743.04883 128.97266 C 743.04883 125.89472 740.56599 123.22483 737.49414 123.41797 C 737.37287 123.42597 737.25212 123.43185 737.13086 123.43945 C 738.70634 102.69966 740.88287 81.943633 742.0625 61.292969 C 742.51733 53.331281 735.64262 46.898437 727.66797 46.898438 L 665.5293 46.898438 C 665.5343 46.814447 665.53827 46.730476 665.54297 46.646484 C 665.6945 43.975723 663.71046 41.7535 661.16797 41.216797 C 668.56295 42.015999 676.04004 40.701578 683.41016 41.888672 C 689.53397 43.057075 695.78742 43.062837 701.97852 42.513672 C 708.69496 42.696601 714.63841 38.144587 717.85547 32.503906 C 720.89602 28.106615 719.58107 22.415178 717.68359 17.847656 C 715.878 13.945974 713.35019 9.4871915 708.82812 8.4550781 C 707.67678 8.271771 706.52902 8.201113 705.38477 8.2226562 C 700.42644 8.3160102 695.55333 10.119458 690.92969 11.789062 C 684.77594 13.647005 680.12242 18.585082 673.93945 20.328125 C 667.95162 21.217161 662.00722 22.372743 656.07617 23.595703 A 17.235729 17.235729 0 0 0 644.51953 19.119141 A 17.235729 17.235729 0 0 0 632.80273 23.734375 C 626.647 22.458917 620.47757 21.251015 614.26172 20.328125 C 608.07875 18.585082 603.42524 13.647004 597.27148 11.789062 C 592.64784 10.119458 587.77473 8.3160106 582.81641 8.2226562 z M 581.52148 18.453125 C 586.42176 18.396585 591.09429 20.186298 595.55273 22.027344 C 599.83437 24.486682 603.80576 27.623308 608.5957 29.072266 C 611.22792 29.993563 613.9562 30.628081 616.70898 31.0625 C 613.68597 31.252988 610.64322 31.00532 607.63086 31.412109 C 602.15893 31.983914 596.70568 33.132789 591.17578 32.744141 C 588.85901 32.638427 586.5061 32.582376 584.24023 32.074219 C 581.8097 31.143964 579.78748 29.187284 578.79883 26.777344 C 578.43577 23.907851 580.06782 21.345187 581.39844 18.947266 L 581.47266 18.703125 L 581.52148 18.453125 z M 706.67969 18.453125 L 706.72852 18.703125 L 706.80078 18.947266 C 708.1314 21.345187 709.76541 23.907851 709.40234 26.777344 C 708.41369 29.187284 706.39148 31.143964 703.96094 32.074219 C 701.69507 32.582376 699.34217 32.638427 697.02539 32.744141 C 691.49549 33.132789 686.04028 31.983914 680.56836 31.412109 C 677.556 31.005319 674.5152 31.252988 671.49219 31.0625 C 674.24497 30.628081 676.9713 29.993563 679.60352 29.072266 C 684.39342 27.623308 688.3668 24.486682 692.64844 22.027344 C 697.10688 20.186298 701.77945 18.396583 706.67969 18.453125 z "
       style="opacity:1;fill:#000000;fill-opacity:1;stroke:none;stroke-width:7.22272348;stroke-linecap:round;stroke-linejoin:round;stroke-miterlimit:4;stroke-dasharray:none;stroke-opacity:1;paint-order:normal"
       id="path848"
       d="m 582.95117,1.0136719 c -1.73379,-0.0247232 -6.88591,0.7427149 -5.18164,0.4121093 -8.34525,1.9047162 -11.79144,9.0652358 -13.79492,13.3945308 a 7.2100944,7.2100944 0 0 0 -0.11523,0.261719 c -2.22817,5.363521 -4.59261,13.69778 0.38085,21.208985 0.69357,1.191807 1.59565,2.287773 2.46875,3.398437 h -5.71679 c -11.84518,0 -21.8836,9.728878 -21.60157,21.771485 0.45914,19.6218 2.14972,38.822402 3.60547,57.898442 -2.76724,2.38522 -4.59375,5.79374 -4.59375,9.61328 v 31.31445 c 0,4.77309 2.74957,9.1123 6.82813,11.28711 -0.15364,18.08439 -1.59949,36.25891 -5.67578,54.84961 -1.46352,6.67472 1.42132,13.02223 5.65039,17.03515 4.22907,4.01292 9.93103,6.40156 16.13086,6.10547 19.53353,-0.93288 38.94605,-1.78062 58.38672,-2.32812 2.341,2.33581 5.46077,3.85742 8.94922,3.85742 h 31.31445 c 3.69413,0 6.99626,-1.69121 9.37305,-4.29102 19.04721,0.26087 38.21702,1.03722 57.67968,2.74219 6.38965,0.55975 12.23443,-1.92204 16.50586,-6.00195 4.27144,-4.07992 7.19262,-10.54646 5.51367,-17.31055 -4.41407,-17.78327 -6.13972,-35.86941 -6.45703,-54.19336 4.56615,-1.987 7.65625,-6.66632 7.65625,-11.75195 v -31.31445 c 0,-4.22178 -2.13747,-8.16421 -5.47265,-10.52539 1.51412,-18.794858 3.3883,-37.725207 4.47461,-56.742192 0.70336,-12.312288 -9.74013,-22.015626 -21.5918,-22.015625 h -6.17578 c 0.8731,-1.110664 1.77518,-2.20663 2.46875,-3.398437 4.97347,-7.511205 2.60902,-15.845464 0.38086,-21.208985 a 7.2100944,7.2100944 0 0 0 -0.11524,-0.261719 C 722.22309,10.491026 718.77689,3.3304946 710.43164,1.4257812 a 7.2100944,7.2100944 0 0 0 -0.4707,-0.089844 C 708.35897,1.0808847 706.7816,0.98483592 705.25,1.0136719 698.63335,1.1382482 693.06626,3.3518758 688.48047,5.0078125 l 0.36523,-0.1210937 c -8.50701,2.5684424 -13.11378,7.3708352 -16.76953,8.4570312 -4.82539,0.735445 -9.5445,1.660463 -14.23633,2.603516 -3.94375,-2.562663 -8.60062,-4.02863 -13.30664,-4.03711 a 7.2100944,7.2100944 0 0 0 -0.0234,0 c -4.78685,0.006 -9.52069,1.522556 -13.50782,4.166016 -4.90045,-0.991003 -9.83183,-1.961925 -14.875,-2.730469 -3.65609,-1.084924 -8.26276,-5.8900327 -16.77148,-8.4589842 l 0.36523,0.1210937 C 595.13491,3.3518756 589.56781,1.1382488 582.95117,1.0136719 Z m 23.92969,23.2285161 c -0.0677,0.0085 -0.21094,0.02539 -0.21484,0.02539 z m 74.4375,0 0.21484,0.02539 c -0.004,-5.85e-4 -0.007,5.83e-4 -0.0117,0 -0.0732,-0.0078 -0.12967,-0.01771 -0.20312,-0.02539 z m -75.10352,11.634765 c 0.0411,0.01438 0.082,0.01699 0.12305,0.03125 0.0608,0.0188 0.10873,0.04594 0.16992,0.06445 z m 75.76954,0 c 0.16969,-0.06392 0.4497,-0.174851 -0.12305,0.03125 0.0411,-0.01425 0.082,-0.01687 0.12305,-0.03125 z"
       transform="matrix(0.26458333,0,0,0.26458333,0,229.26665)" />
    <path
       style="opacity:1;fill:#ffffff;fill-opacity:1;stroke:none;stroke-width:1.9571228;stroke-linecap:round;stroke-linejoin:round;stroke-miterlimit:4;stroke-dasharray:none;stroke-opacity:1;paint-order:normal"
       d="m 80.695907,241.6752 h 44.099463 c 2.10996,0 3.92893,1.70207 3.80859,3.8086 -0.84013,14.70739 -3.59469,29.61728 0,44.09946 0.5083,2.04782 -1.70668,3.99273 -3.80859,3.8086 -15.09566,-1.32242 -29.515736,-0.69649 -44.099463,0 -2.107561,0.10065 -4.260502,-1.7476 -3.808598,-3.8086 3.356987,-15.31018 0.342504,-29.46191 0,-44.09946 -0.04936,-2.10938 1.698635,-3.8086 3.808598,-3.8086 z"
       id="rect1659"
       inkscape:connector-curvature="0"
       sodipodi:nodetypes="sssssssss" />
    <path
       style="opacity:1;fill:#ffffff;fill-opacity:1;stroke:none;stroke-width:1.91101229;stroke-linecap:round;stroke-linejoin:round;stroke-miterlimit:4;stroke-dasharray:none;stroke-opacity:1;paint-order:normal"
       d="m 10.362836,261.92087 c 16.23409,0.69612 32.565358,1.05211 49.29894,0 0.812767,-0.0511 1.469986,0.65561 1.469986,1.46998 v 8.28534 c 0,0.81437 -0.657099,1.51914 -1.469986,1.46999 -16.43298,-0.99368 -32.86596,-0.76383 -49.29894,0 -0.8134934,0.0378 -1.4699851,-0.65562 -1.4699851,-1.46999 v -8.28534 c 0,-0.81437 0.6563611,-1.50487 1.4699851,-1.46998 z"
       id="rect1661"
       inkscape:connector-curvature="0"
       sodipodi:nodetypes="sssssssss" />
    <path
       transform="rotate(90)"
       style="opacity:1;fill:#ffffff;fill-opacity:1;stroke:none;stroke-width:1.93676484;stroke-linecap:round;stroke-linejoin:round;stroke-miterlimit:4;stroke-dasharray:none;stroke-opacity:1;paint-order:normal"
       d="m 241.60838,-40.624958 c 16.90545,0.959095 33.8109,0.667575 50.71635,0 0.81374,-0.03213 1.46999,0.655613 1.46999,1.469985 v 8.285337 c 0,0.814372 -0.65585,1.489274 -1.46999,1.469985 -16.90545,-0.400537 -33.8109,-0.714052 -50.71635,0 -0.81364,0.03437 -1.46998,-0.655613 -1.46998,-1.469985 v -8.285337 c 0,-0.814372 0.65692,-1.516112 1.46998,-1.469985 z"
       id="rect5367"
       inkscape:connector-curvature="0"
       sodipodi:nodetypes="sssssssss" />
    <circle
       style="opacity:1;fill:#ffffff;fill-opacity:1;stroke:none;stroke-width:1.4362756;stroke-linecap:round;stroke-linejoin:round;stroke-miterlimit:4;stroke-dasharray:none;stroke-opacity:1;paint-order:normal"
       id="path5369"
       cx="35.06242"
       cy="238.88556"
       r="4.5602865" />
    <path
       style="fill:#ffffff;fill-opacity:1;stroke:none;stroke-width:0.19895858px;stroke-linecap:butt;stroke-linejoin:miter;stroke-opacity:1"
       d="m 51.166319,231.44219 c -1.311889,0.0247 -2.601171,0.50214 -3.824513,0.94389 -1.628178,0.49158 -2.85931,1.79809 -4.495221,2.25927 -2.65158,0.39369 -5.27233,0.9768 -7.895002,1.52949 -0.03349,1.12213 -0.06715,2.24423 -0.100645,3.36636 1.412874,0.22872 2.829971,0.43454 4.253517,0.58483 2.074617,0.30298 4.177094,-0.10969 6.247765,0.22383 1.620263,0.30914 3.274894,0.31045 4.912956,0.16515 1.777066,0.0484 3.349492,-1.1562 4.200668,-2.64863 0.804484,-1.16345 0.456547,-2.66888 -0.04546,-3.87737 -0.477721,-1.03232 -1.146358,-2.21234 -2.342815,-2.48542 -0.304626,-0.0485 -0.608502,-0.0671 -0.911246,-0.0614 z m 0.342738,2.70693 0.01282,0.0661 0.01943,0.0645 c 0.352061,0.63445 0.784247,1.31275 0.688193,2.07197 -0.261584,0.63763 -0.796647,1.15513 -1.43973,1.40126 -0.599509,0.13445 -1.221942,0.14923 -1.834925,0.1772 -1.463113,0.10283 -2.906387,-0.20116 -4.354163,-0.35245 -0.797022,-0.10763 -1.601652,-0.0421 -2.401492,-0.0925 0.728338,-0.11494 1.449744,-0.28277 2.146189,-0.52653 1.267334,-0.38337 2.318228,-1.21338 3.451076,-1.86408 1.179637,-0.48711 2.416075,-0.9604 3.712598,-0.94544 z"
       id="path5371"
       inkscape:connector-curvature="0" />
    <path
       inkscape:connector-curvature="0"
       id="path5388"
       d="m 18.736847,231.44219 c 1.311889,0.0247 2.601171,0.50214 3.824513,0.94389 1.628178,0.49158 2.85931,1.79809 4.495221,2.25927 2.65158,0.39369 5.27233,0.9768 7.895002,1.52949 0.03349,1.12213 0.06715,2.24423 0.100645,3.36636 -1.412874,0.22872 -2.829971,0.43454 -4.253517,0.58483 -2.074617,0.30298 -4.177094,-0.10969 -6.247765,0.22383 -1.620263,0.30914 -3.274894,0.31045 -4.912956,0.16515 -1.777066,0.0484 -3.349491,-1.1562 -4.200668,-2.64863 -0.804483,-1.16345 -0.456546,-2.66888 0.04546,-3.87737 0.477722,-1.03232 1.146358,-2.21234 2.342815,-2.48542 0.304626,-0.0485 0.608502,-0.0671 0.911246,-0.0614 z m -0.342738,2.70693 -0.01282,0.0661 -0.01943,0.0645 c -0.352061,0.63445 -0.784247,1.31275 -0.688193,2.07197 0.261584,0.63763 0.796648,1.15513 1.43973,1.40126 0.599509,0.13445 1.221942,0.14923 1.834925,0.1772 1.463113,0.10283 2.906387,-0.20116 4.354163,-0.35245 0.797022,-0.10763 1.601652,-0.0421 2.401492,-0.0925 -0.728338,-0.11494 -1.449744,-0.28277 -2.146189,-0.52653 -1.267334,-0.38337 -2.318228,-1.21338 -3.451076,-1.86408 -1.179637,-0.48711 -2.416075,-0.9604 -3.712598,-0.94544 z"
       style="fill:#ffffff;fill-opacity:1;stroke:none;stroke-width:0.19895858px;stroke-linecap:butt;stroke-linejoin:miter;stroke-opacity:1" />
  </g>
</svg>
