<?xml version="1.0" encoding="UTF-8" standalone="no"?>
<!-- Created with Inkscape (http://www.inkscape.org/) -->

<svg
   xmlns:dc="http://purl.org/dc/elements/1.1/"
   xmlns:cc="http://creativecommons.org/ns#"
   xmlns:rdf="http://www.w3.org/1999/02/22-rdf-syntax-ns#"
   xmlns:svg="http://www.w3.org/2000/svg"
   xmlns="http://www.w3.org/2000/svg"
   xmlns:sodipodi="http://sodipodi.sourceforge.net/DTD/sodipodi-0.dtd"
   xmlns:inkscape="http://www.inkscape.org/namespaces/inkscape"
   width="512"
   height="512"
   viewBox="0 0 135.46666 135.46666"
   version="1.1"
   id="svg8"
   inkscape:version="0.92.4 (5da689c313, 2019-01-14)"
   sodipodi:docname="red_bag.svg"
   inkscape:export-filename="C:\Prog\Projets\teeworlds\build_genie\mods\xmas\red_bag.png"
   inkscape:export-xdpi="96.000008"
   inkscape:export-ydpi="96.000008">
  <defs
     id="defs2" />
  <sodipodi:namedview
     id="base"
     pagecolor="#ffffff"
     bordercolor="#666666"
     borderopacity="1.0"
     inkscape:pageopacity="0.0"
     inkscape:pageshadow="2"
     inkscape:zoom="2.03125"
     inkscape:cx="290.50827"
     inkscape:cy="260.17437"
     inkscape:document-units="mm"
     inkscape:current-layer="layer1"
     showgrid="true"
     inkscape:snap-global="false"
     inkscape:window-width="2560"
     inkscape:window-height="1377"
     inkscape:window-x="1912"
     inkscape:window-y="-8"
     inkscape:window-maximized="1"
     inkscape:pagecheckerboard="true"
     units="px"
     inkscape:lockguides="true">
    <inkscape:grid
       type="xygrid"
       id="grid976"
       spacingy="33.866666"
       spacingx="67.73333" />
  </sodipodi:namedview>
  <metadata
     id="metadata5">
    <rdf:RDF>
      <cc:Work
         rdf:about="">
        <dc:format>image/svg+xml</dc:format>
        <dc:type
           rdf:resource="http://purl.org/dc/dcmitype/StillImage" />
        <dc:title></dc:title>
      </cc:Work>
    </rdf:RDF>
  </metadata>
  <g
     inkscape:label="Layer 1"
     inkscape:groupmode="layer"
     id="layer1"
     transform="translate(0,-161.53336)">
    <path
       sodipodi:type="inkscape:offset"
       inkscape:radius="13.714106"
       inkscape:original="M 305.51953 19.28125 C 305.51953 19.28125 309.39377 38.263174 312.10547 47.560547 C 314.81699 56.85792 313.65495 65.380193 314.42969 69.253906 C 314.89047 71.557834 316.95985 78.443925 318.8125 84.486328 A 31.055945 26.350501 0 0 0 294.19141 110.23242 A 31.055945 26.350501 0 0 0 295.67188 118.16992 A 93.376483 69.073013 0 0 0 213.90234 166.04492 A 117.25357 97.213863 0 0 0 114.81641 262.01953 A 117.25357 97.213863 0 0 0 123.23633 298.07617 A 128.33937 105.31503 0 0 0 69.623047 383.53516 A 128.33937 105.31503 0 0 0 89.441406 439.52344 L 89.439453 439.52344 C 89.452103 439.53994 89.465856 439.55577 89.478516 439.57227 A 128.33937 105.31503 0 0 0 95.458984 446.69141 C 95.946986 447.22582 96.43626 447.75951 96.935547 448.28516 A 128.33937 105.31503 0 0 0 102.86133 454.07617 C 103.77351 454.90592 104.70098 455.72186 105.64258 456.52539 A 128.33937 105.31503 0 0 0 111.42773 461.16016 C 112.88745 462.25805 114.36824 463.33412 115.88477 464.37305 A 128.33937 105.31503 0 0 0 120.82812 467.58203 C 122.64666 468.70825 124.49648 469.79796 126.38281 470.8418 A 128.33937 105.31503 0 0 0 131.03516 473.29102 C 133.19409 474.37785 135.39006 475.41255 137.62305 476.39258 A 128.33937 105.31503 0 0 0 141.78711 478.14258 C 144.45589 479.2132 147.16724 480.21351 149.92383 481.13086 A 128.33937 105.31503 0 0 0 153.10547 482.14258 C 156.1639 483.08349 159.26856 483.93282 162.41602 484.68164 A 128.33937 105.31503 0 0 0 164.84961 485.23828 C 168.25868 485.98992 171.71406 486.624 175.20703 487.14453 A 128.33937 105.31503 0 0 0 176.89258 487.39258 C 180.66677 487.91235 184.48464 488.28953 188.33398 488.53125 A 128.33937 105.31503 0 0 0 189.35547 488.59961 C 192.20825 488.75995 195.07745 488.84823 197.96094 488.85156 C 202.21668 488.84356 206.45957 488.65139 210.67578 488.29688 A 128.33937 105.31503 0 0 0 210.84375 488.2832 C 215.04612 487.92525 219.21914 487.39523 223.35156 486.69922 A 128.33937 105.31503 0 0 0 223.54688 486.66602 C 227.6705 485.96599 231.75199 485.10271 235.77539 484.07227 A 128.33937 105.31503 0 0 0 236 484.01367 C 240.03175 482.97442 244.00802 481.77705 247.9082 480.41211 A 128.33937 105.31503 0 0 0 247.95703 480.39453 C 249.04467 480.01346 250.12724 479.62094 251.20312 479.21484 C 254.96809 480.70446 258.80771 482.0186 262.70508 483.16797 A 124.92835 110.43154 0 0 0 262.94531 483.24023 C 266.80716 484.37143 270.72699 485.33105 274.68945 486.12305 A 124.92835 110.43154 0 0 0 275.03516 486.19336 C 278.97771 486.97099 282.96149 487.5769 286.97461 488.01367 A 124.92835 110.43154 0 0 0 287.39453 488.05859 C 291.40497 488.48289 295.44222 488.73766 299.49414 488.81641 A 124.92835 110.43154 0 0 0 301.99414 488.85156 C 332.61404 488.85222 360.65532 479.10788 382.38281 462.94531 A 124.92835 110.43154 0 0 0 382.56836 462.80664 C 385.67095 460.48962 388.64396 458.04251 391.47656 455.47266 A 124.92835 110.43154 0 0 0 391.72461 455.24805 C 394.57076 452.65128 397.27327 449.93279 399.82227 447.09961 A 124.92835 110.43154 0 0 0 399.87891 447.03906 C 415.08646 430.11139 424.79025 409.14864 426.60742 386.26172 A 124.92835 110.43154 0 0 0 426.61328 386.17773 C 426.81473 383.61283 426.92586 381.02618 426.92578 378.41602 C 426.87548 376.71173 426.77165 375.00917 426.62891 373.30859 A 124.92835 110.43154 0 0 0 412.43945 326.94141 C 435.562 313.56297 450.50016 288.73266 452.32227 261.22656 A 77.174162 81.43793 0 0 0 452.33203 261.04688 C 452.44725 259.2505 452.50974 257.44352 452.51172 255.62695 C 452.51171 255.62395 452.51173 255.62214 452.51172 255.61914 A 77.174162 81.43793 0 0 0 452.51172 255.61328 C 452.50472 253.10329 452.37301 250.60436 452.14844 248.12109 A 77.174162 81.43793 0 0 0 452.0293 246.88477 C 451.78912 244.59814 451.46583 242.32567 451.04492 240.07617 A 77.174162 81.43793 0 0 0 450.7207 238.48633 C 450.31869 236.54282 449.85144 234.61807 449.31641 232.71289 A 77.174162 81.43793 0 0 0 448.71289 230.62695 C 448.13747 228.76266 447.49678 226.9203 446.79492 225.10352 A 77.174162 81.43793 0 0 0 445.75586 222.55078 C 445.13826 221.09615 444.47624 219.66271 443.77734 218.24609 A 77.174162 81.43793 0 0 0 441.95508 214.76758 C 441.3425 213.66136 440.70824 212.56772 440.04492 211.49023 A 77.174162 81.43793 0 0 0 395.15625 177.01953 A 93.376483 69.073013 0 0 0 349.14062 127.05078 A 31.055945 26.350501 0 0 0 356.30469 110.23242 A 31.055945 26.350501 0 0 0 350.58398 95.052734 C 353.01481 93.286958 355.44366 91.539237 357.42969 90.173828 C 363.62793 85.912713 364.79009 87.849157 383.38477 83.587891 C 401.97951 79.328212 403.14172 80.876953 404.69141 80.876953 C 406.24094 80.876953 400.81716 68.093582 384.54688 62.669922 C 368.27666 57.247812 370.21494 59.956184 366.72852 58.408203 C 363.24196 56.858559 358.59278 51.434528 351.23242 42.912109 C 343.87202 34.389502 349.29454 31.677509 343.87109 27.416016 C 338.44764 23.154712 305.51953 19.28125 305.51953 19.28125 z "
       style="fill:#000000;fill-opacity:1;stroke:none;stroke-width:6.29506636px;stroke-linecap:butt;stroke-linejoin:miter;stroke-opacity:1"
       id="path1081"
       d="M 305.75391,5.5683594 A 13.715477,13.715477 0 0 0 292.08203,22.023438 c 0,0 3.72396,18.633526 6.85742,29.376953 0.893,3.061953 1.22441,6.313162 1.34961,9.568359 0.12521,3.255197 -0.3319,5.848278 0.69336,10.974609 0.2705,1.352505 0.73125,2.8753 1.11914,4.328125 -11.20251,6.3762 -19.58631,17.322694 -21.17578,29.826176 -32.47792,5.39111 -61.9368,22.74808 -76.10156,47.58203 -27.24914,4.93186 -52.7123,17.26309 -71.37305,35.33789 -20.32536,19.68714 -32.3279,46.17145 -32.34961,72.99023 a 13.715477,13.715477 0 0 0 0,0.0312 c 0.0152,10.45087 1.85014,20.87673 5.26367,30.86133 -30.702737,21.98109 -50.391243,55.72388 -50.457027,90.60938 a 13.715477,13.715477 0 0 0 0,0.0625 c 0.06141,22.61506 8.057041,45.07734 22.302735,63.80468 a 13.715477,13.715477 0 0 0 0.345703,0.49024 c 0.133241,0.17379 -0.0219,-0.029 0.01563,0.0195 0.06271,0.0811 0.23094,0.3011 0.02539,0.0332 a 13.715477,13.715477 0 0 0 0.0059,0.008 c 2.114358,2.75226 4.359601,5.42489 6.728515,8.01172 0.0017,0.002 0.0042,0.004 0.0059,0.006 0.0028,0.003 0.005,0.007 0.0078,0.01 0.496724,0.54394 1.041241,1.13819 1.646485,1.77539 a 13.715477,13.715477 0 0 0 0.0039,0.004 c 2.122868,2.23268 4.338633,4.39797 6.640625,6.49023 1.023307,0.93075 2.058739,1.84084 3.103515,2.73242 2.084979,1.77904 4.234306,3.50253 6.443356,5.16406 1.58015,1.18847 3.22605,2.38458 4.95118,3.56641 a 13.715477,13.715477 0 0 0 0.0176,0.0117 c 1.78484,1.21828 3.60454,2.40077 5.45508,3.54297 0.005,0.003 0.0105,0.007 0.0156,0.01 0.001,7.7e-4 0.003,0.001 0.004,0.002 1.98514,1.229 4.02112,2.42906 6.11524,3.58789 a 13.715477,13.715477 0 0 0 0.0156,0.008 c 1.68152,0.92777 3.3862,1.82542 5.11133,2.69141 0.003,0.001 0.005,0.003 0.008,0.004 0.003,0.001 0.005,0.003 0.008,0.004 2.36752,1.1915 4.77599,2.32682 7.22656,3.40234 1.50863,0.66273 3.03148,1.30161 4.5664,1.91797 a 13.715477,13.715477 0 0 0 0.004,0.002 c 2.90811,1.16664 5.87782,2.26172 8.91211,3.27149 a 13.715477,13.715477 0 0 0 0.0254,0.01 c 1.14584,0.37882 2.2964,0.74407 3.45313,1.09766 0.002,6e-4 0.004,0.001 0.006,0.002 0.007,0.002 0.013,0.004 0.0195,0.006 3.32647,1.0228 6.70969,1.94844 10.14453,2.76563 a 13.715477,13.715477 0 0 0 0.006,0.002 c 0.88265,0.2096 1.76716,0.41221 2.65429,0.60742 3.72301,0.82071 7.48407,1.5093 11.27344,2.07422 0.003,4.9e-4 0.006,0.001 0.01,0.002 0.59431,0.0906 1.18957,0.17744 1.78515,0.26172 a 13.715477,13.715477 0 0 0 0.0508,0.008 c 4.1138,0.56654 8.25863,0.97414 12.42188,1.23632 0.0105,6.6e-4 0.0207,0.003 0.0312,0.004 0.33649,0.0234 0.67309,0.045 1.00977,0.0664 a 13.715477,13.715477 0 0 0 0.10156,0.008 c 3.08557,0.17342 6.20648,0.2698 9.35937,0.27344 a 13.715477,13.715477 0 0 0 0.041,0 c 4.65145,-0.009 9.26854,-0.21932 13.83789,-0.60352 0.0467,-0.004 0.094,-0.008 0.14062,-0.0117 a 13.715477,13.715477 0 0 0 0.043,-0.004 c 4.57807,-0.38996 9.12202,-0.96685 13.6211,-1.72461 a 13.715477,13.715477 0 0 0 0.0117,-0.002 c 0.067,-0.0114 0.13416,-0.0218 0.20118,-0.0332 4.48566,-0.76149 8.93647,-1.70332 13.33593,-2.83008 a 13.715477,13.715477 0 0 0 0.0488,-0.0117 c 0.0656,-0.0171 0.13167,-0.0356 0.19727,-0.0527 3.98509,-1.02722 7.92125,-2.24623 11.82226,-3.57617 2.52056,0.89051 5.02156,1.85148 7.57813,2.60547 0.0608,0.0183 0.12273,0.0364 0.18359,0.0547 a 13.715477,13.715477 0 0 0 0.082,0.0234 c 4.25641,1.24677 8.56643,2.30133 12.91211,3.16992 0.10578,0.0216 0.21058,0.045 0.31641,0.0664 a 13.715477,13.715477 0 0 0 0.0625,0.0117 c 4.33642,0.85531 8.71052,1.51929 13.10937,1.99804 a 13.715477,13.715477 0 0 0 0.006,0.002 c 0.15166,0.0165 0.30336,0.0328 0.45508,0.0488 4.39689,0.46518 8.82784,0.7436 13.27735,0.83007 0.89777,0.0203 1.79532,0.0344 2.69336,0.0391 a 13.715477,13.715477 0 0 0 0.0723,0 c 33.52962,7.2e-4 64.43089,-10.65754 88.57422,-28.61719 a 13.715477,13.715477 0 0 0 0.0137,-0.0117 c 0.0636,-0.0475 0.12788,-0.095 0.19141,-0.14258 3.44645,-2.57381 6.75739,-5.29861 9.91797,-8.16601 l -0.0234,0.0234 c 0.0924,-0.0834 0.18325,-0.16828 0.27539,-0.25195 a 13.715477,13.715477 0 0 0 0.0254,-0.0215 c 3.1735,-2.89544 6.19363,-5.93392 9.04883,-9.10743 l -0.1836,0.20118 c 0.0211,-0.0226 0.0433,-0.0458 0.0645,-0.0684 a 13.715477,13.715477 0 0 0 0.18164,-0.19922 c 17.03096,-18.95733 28.12945,-42.7891 30.19922,-68.85742 a 13.715477,13.715477 0 0 0 0.006,-0.0957 v -0.008 a 13.715477,13.715477 0 0 0 0.002,-0.0215 c 0.22557,-2.88071 0.35361,-5.8169 0.35351,-8.80664 a 13.715477,13.715477 0 0 0 -0.006,-0.4043 c -0.0552,-1.86966 -0.17265,-3.69557 -0.31836,-5.49219 -0.73142,-14.13693 -4.26162,-28.11229 -10.18946,-41.15625 20.95732,-16.58098 34.06235,-41.80821 35.87891,-69.23047 a 13.715477,13.715477 0 0 0 0.01,-0.14843 c 0.004,-0.0695 0.008,-0.13758 0.0117,-0.20704 l -0.01,0.14649 c 0.13255,-2.06654 0.20667,-4.16008 0.20898,-6.28125 a 13.715477,13.715477 0 0 0 0,-0.0234 v -0.006 a 13.715477,13.715477 0 0 0 0,-0.0312 c 2.6e-4,0.0763 2.8e-4,0.0745 0,-0.008 -0.008,-2.96436 -0.16434,-5.86135 -0.41992,-8.6875 -0.0422,-0.47244 -0.0878,-0.94427 -0.13672,-1.41602 a 13.715477,13.715477 0 0 0 -0.002,-0.0176 c -0.27513,-2.61935 -0.64806,-5.25554 -1.14258,-7.89843 a 13.715477,13.715477 0 0 0 -0.0176,-0.0918 c -0.11376,-0.58623 -0.23311,-1.16996 -0.35742,-1.75391 -0.002,-0.01 -0.006,-0.0194 -0.008,-0.0293 -0.46217,-2.23099 -0.99952,-4.44882 -1.61719,-6.65039 -0.21997,-0.79706 -0.4496,-1.5919 -0.68945,-2.38282 a 13.715477,13.715477 0 0 0 -0.0195,-0.0644 c -0.67055,-2.1725 -1.41454,-4.31292 -2.22852,-6.41992 a 13.715477,13.715477 0 0 0 -0.008,-0.0195 c -0.38429,-0.99036 -0.78508,-1.9746 -1.20117,-2.95117 l -0.008,-0.0195 c -0.72632,-1.70958 -1.49532,-3.37342 -2.29492,-4.99415 a 13.715477,13.715477 0 0 0 -0.004,-0.006 c -0.6752,-1.36662 -1.38098,-2.71733 -2.11915,-4.04883 l -0.004,-0.006 c -0.69757,-1.25951 -1.43511,-2.53015 -2.2207,-3.80664 -10.58815,-17.27822 -26.79079,-30.82016 -45.35352,-37.9668 -6.09781,-18.21439 -20.12722,-33.97499 -38.36523,-44.91016 1.19269,-3.62085 2.007,-7.36483 2.00976,-11.1914 a 13.715477,13.715477 0 0 0 0,-0.0469 c -0.009,-3.35168 -0.64286,-6.64646 -1.57031,-9.85742 2.80273,-0.46626 8.47933,-1.201447 17.99805,-3.382812 8.88412,-2.035173 13.25184,-2.550539 14.6914,-2.625 1.43956,-0.07446 -1.79068,0.261719 3.55274,0.261719 4.81097,0 11.1891,-4.736117 12.77734,-8.376953 1.58824,-3.640836 1.26012,-5.639137 1.13086,-7.103516 -0.25852,-2.928757 -0.87485,-4.226336 -1.49023,-5.675781 -1.23078,-2.89889 -2.88511,-5.51511 -5.22852,-8.355469 -4.68682,-5.680718 -12.22809,-11.830433 -22.99609,-15.419922 a 13.715477,13.715477 0 0 0 -0.002,0 c -8.23856,-2.745531 -12.70135,-3.732711 -16.12109,-4.117187 -1.12608,-1.35782 -5.85472,-5.462204 -11.15039,-11.59375 -2.12097,-2.455863 -0.98406,-0.292202 -1.14844,-1.835938 -0.0822,-0.771868 -0.0776,-3.096437 -1.3457,-6.484375 -1.26811,-3.387937 -3.98896,-6.80818 -6.77344,-8.996094 -5.86332,-4.606916 -8.98737,-4.479796 -13.42773,-5.589843 C 334.47565,9.9329216 329.6003,9.0117585 324.93945,8.2265625 315.61776,6.6561705 307.12109,5.6601562 307.12109,5.6601562 a 13.715477,13.715477 0 0 0 -1.36718,-0.091797 z"
       transform="matrix(0.26458333,0,0,0.26458333,0,161.53336)" />
    <path
       style="fill:#c22121;fill-opacity:1;stroke:none;stroke-width:1.66556966px;stroke-linecap:butt;stroke-linejoin:miter;stroke-opacity:1"
       d="m 85.037962,186.10927 c 0,0 -1.639952,-5.22726 -1.84495,-6.25225 -0.204982,-1.02492 0.102462,-3.2799 -0.614962,-5.73983 -0.71747,-2.45993 -1.742444,-7.48223 -1.742444,-7.48223 0,0 8.712216,1.02493 10.147171,2.1524 1.434954,1.12752 0,1.84497 1.94744,4.09991 1.947427,2.25489 3.177382,3.68985 4.099866,4.09986 0.922451,0.40957 0.41001,-0.30719 4.714837,1.12741 4.30485,1.43501 5.7398,4.81737 5.32982,4.81737 -0.41002,0 -0.71746,-0.40958 -5.63732,0.71746 -4.919841,1.12746 -5.227314,0.61505 -6.867266,1.74247 -1.639937,1.12747 -4.509845,3.27986 -4.509845,3.27986 l -2.767417,1.23002 -2.869892,-1.74248 z"
       id="path1058"
       inkscape:connector-curvature="0" />
    <path
       style="fill:#981a1a;fill-opacity:1;stroke:none;stroke-width:1.29626632px;stroke-linecap:butt;stroke-linejoin:miter;stroke-opacity:1"
       d="m 85.318625,184.09798 c 0,0 0.394829,-8.94034 0.225614,-8.88394 -0.16923,0.0564 0.05635,-1.88961 0.705081,0.62044 0.648651,2.51008 0.761466,3.69459 0.705066,4.25869 -0.05635,0.56405 -0.705066,4.73808 -0.225599,4.54065 0.479436,-0.19744 1.410147,-2.53826 1.974205,-3.04592 0.564059,-0.50763 0.507659,0.50766 0.451228,0.90249 -0.05635,0.39487 -0.112706,1.04353 0.197438,1.15632 0.310221,0.11271 -0.02795,0.67689 1.043526,0.0294 1.071717,-0.64867 3.581772,-2.25622 4.089432,-1.946 0.507658,0.31012 1.071717,0.39487 0.0846,0.95888 -0.987111,0.56406 -2.171643,0.87428 -2.651079,1.74861 -0.479451,0.87427 -0.676873,1.8896 -0.676873,1.8896 l -2.989523,0.67687 -1.776782,-0.84611"
       id="path1068"
       inkscape:connector-curvature="0" />
    <ellipse
       style="opacity:1;fill:#f7ca00;fill-opacity:1;stroke:none;stroke-width:14.96484566;stroke-linecap:round;stroke-linejoin:round;stroke-miterlimit:4;stroke-dasharray:none;stroke-opacity:1;paint-order:normal"
       id="path1056"
       cx="86.055206"
       cy="190.69902"
       rx="8.2168856"
       ry="6.9719033" />
    <ellipse
       style="opacity:1;fill:#bc8200;fill-opacity:0.54545456;stroke:none;stroke-width:9.5884819;stroke-linecap:round;stroke-linejoin:round;stroke-miterlimit:4;stroke-dasharray:none;stroke-opacity:1;paint-order:normal"
       id="path1079"
       cx="181.44728"
       cy="112.50168"
       rx="1.2962663"
       ry="2.2634804"
       transform="rotate(32.843047)" />
    <path
       style="opacity:1;fill:#c22121;fill-opacity:1;stroke:none;stroke-width:8.64294052;stroke-linecap:round;stroke-linejoin:round;stroke-miterlimit:4;stroke-dasharray:none;stroke-opacity:1;paint-order:normal"
       d="m 80.130401,192.7285 a 24.705861,18.275568 0 0 0 -23.535341,12.73733 31.023341,25.721168 0 0 0 -26.216468,25.39367 31.023341,25.721168 0 0 0 2.227944,9.53973 33.956457,27.864601 0 0 0 -14.185495,22.61122 33.956457,27.864601 0 0 0 33.956095,27.86467 33.956457,27.864601 0 0 0 14.086775,-2.54948 33.05396,29.218345 0 0 0 13.438625,2.54948 33.05396,29.218345 0 0 0 33.054784,-29.21918 33.05396,29.218345 0 0 0 -3.83309,-13.62091 20.418997,21.547119 0 0 0 10.60305,-18.86926 20.418997,21.547119 0 0 0 -15.17543,-20.79599 24.705861,18.275568 0 0 0 -24.421449,-15.64128 z"
       id="path1038"
       inkscape:connector-curvature="0" />
    <path
       style="fill:#981a1a;fill-opacity:1;stroke:none;stroke-width:1.29626632px;stroke-linecap:butt;stroke-linejoin:miter;stroke-opacity:1"
       d="m 115.87646,216.63098 c 0.41991,3.03643 1.08025,5.39803 1.08025,6.83474 0,1.43674 -1.55975,5.11488 -2.35746,8.46521 -0.79769,3.35036 -2.26524,4.97859 -5.48007,7.45052 -5.58394,5.74346 -20.316522,8.00105 -20.316522,8.00105 0,0 7.480505,0.1793 11.788102,-0.45906 4.30761,-0.63829 7.73089,1.07362 7.73089,1.07362 0,0 0.70921,0.0391 0.80512,0.0441 l -0.003,-0.004 c 6.5311,-3.77832 10.59451,-11.00961 10.60305,-18.86926 -0.0124,-4.50008 -1.35829,-8.88341 -3.85081,-12.5348 z"
       id="path1048"
       inkscape:connector-curvature="0"
       sodipodi:nodetypes="czzccccccccc" />
    <path
       style="fill:#981a1a;fill-opacity:1;stroke:none;stroke-width:1.29626632px;stroke-linecap:butt;stroke-linejoin:miter;stroke-opacity:1"
       d="m 49.878654,243.22864 c 0,0 10.431238,-1.27468 13.462505,-2.71056 3.031268,-1.43583 5.841889,0.31747 8.713629,-4.14969 2.871725,-4.4671 3.350338,-9.41289 3.350338,-9.41289 0,0 1.795304,8.09288 -1.381101,13.14041 -0.638171,0.47866 -4.840961,3.93043 -6.276831,3.93043 -1.435855,0 -3.669424,0.63819 -7.817476,0.31894 -4.148052,-0.31894 -10.051053,-1.11677 -10.051053,-1.11677 z"
       id="path1050"
       inkscape:connector-curvature="0"
       sodipodi:nodetypes="cccccsccc" />
    <path
       style="fill:#981a1a;fill-opacity:1;stroke:none;stroke-width:1.29626632px;stroke-linecap:butt;stroke-linejoin:miter;stroke-opacity:1"
       d="m 112.87378,260.2331 c -1.66929,4.07202 -6.55368,11.99028 -9.33745,14.1689 -3.669421,2.8717 -5.743882,9.33101 -17.868952,9.33101 -12.125071,0 -14.519114,-0.79736 -16.912225,-1.43554 -2.393097,-0.63818 -9.412919,-1.43549 -10.210634,-1.43549 -0.797683,0 -5.423041,1.43549 -5.423041,1.43549 0,0 8.934304,1.59721 10.210631,2.87357 0.311246,0.3111 0.924439,0.95079 1.410193,1.45831 -1.754366,0.43408 -3.741813,0.93926 -4.76227,1.25319 -2.074026,0.63818 -4.625236,0.63804 -5.901543,0.63804 -1.276331,0 -9.093349,-1.43529 -12.284148,-2.39252 -3.190813,-0.95722 -8.695045,-2.07489 -10.44998,-3.67029 -1.205451,-1.09572 -5.063511,-4.62084 -7.680028,-4.63392 6.202805,8.10952 17.04502,13.03779 28.712803,13.05127 4.86392,-0.009 9.667887,-0.88158 14.086775,-2.54948 4.227971,1.67281 8.806465,2.5414 13.438625,2.54948 18.255881,3.9e-4 33.055294,-13.08171 33.054784,-29.21918 -0.014,-0.47473 -0.0427,-0.94923 -0.0837,-1.42284 z"
       id="path1052"
       inkscape:connector-curvature="0"
       sodipodi:nodetypes="ccscsccccscccccccc" />
    <path
       style="fill:#981a1a;fill-opacity:1;stroke:none;stroke-width:1.29626632px;stroke-linecap:butt;stroke-linejoin:miter;stroke-opacity:1"
       d="m 92.809501,204.89113 c -2.108397,0.0872 -4.810442,1.04445 -5.007848,1.09372 -0.225613,0.0564 0.507519,-0.0584 2.030497,-0.28365 1.522945,-0.22587 3.325762,0.0558 7.443402,0.8456 4.117638,0.78971 7.615568,2.03051 7.615568,2.03051 l 0.25568,-0.009 a 20.418997,21.547119 0 0 0 -0.59495,-0.19745 24.705861,18.275568 0 0 0 -1.08108,-3.26341 c -0.23007,0.41791 -0.53839,0.82631 -0.83548,0.93419 -0.62046,0.22586 -1.63575,-0.0559 -2.42544,-0.0559 -0.789668,0 -4.398639,-0.84763 -6.54209,-1.0735 -0.267933,-0.0293 -0.557073,-0.0343 -0.858275,-0.0195 z"
       id="path1070"
       inkscape:connector-curvature="0" />
    <ellipse
       style="opacity:1;fill:#ffffff;fill-opacity:1;stroke:none;stroke-width:8.20896435;stroke-linecap:round;stroke-linejoin:round;stroke-miterlimit:4;stroke-dasharray:none;stroke-opacity:1;paint-order:normal"
       id="path1075"
       cx="83.114517"
       cy="186.77324"
       rx="1.7948306"
       ry="1.71506" />
    <ellipse
       style="opacity:1;fill:#ffffff;fill-opacity:1;stroke:none;stroke-width:9.5884819;stroke-linecap:round;stroke-linejoin:round;stroke-miterlimit:4;stroke-dasharray:none;stroke-opacity:1;paint-order:normal"
       id="path1077"
       cx="80.083244"
       cy="189.40558"
       rx="0.47862142"
       ry="0.51850659" />
  </g>
</svg>
