<?xml version="1.0" encoding="UTF-8" standalone="no"?>
<!-- Created with Inkscape (http://www.inkscape.org/) -->

<svg
   xmlns:dc="http://purl.org/dc/elements/1.1/"
   xmlns:cc="http://creativecommons.org/ns#"
   xmlns:rdf="http://www.w3.org/1999/02/22-rdf-syntax-ns#"
   xmlns:svg="http://www.w3.org/2000/svg"
   xmlns="http://www.w3.org/2000/svg"
   xmlns:sodipodi="http://sodipodi.sourceforge.net/DTD/sodipodi-0.dtd"
   xmlns:inkscape="http://www.inkscape.org/namespaces/inkscape"
   width="512"
   height="128"
   viewBox="0 0 135.46666 33.866666"
   version="1.1"
   id="svg8"
   inkscape:version="0.92.4 (5da689c313, 2019-01-14)"
   sodipodi:docname="sledge.svg"
   inkscape:export-filename="C:\Prog\Projets\teeworlds\build_genie\mods\xmas\sledge.png"
   inkscape:export-xdpi="96"
   inkscape:export-ydpi="96">
  <defs
     id="defs2" />
  <sodipodi:namedview
     id="base"
     pagecolor="#ffffff"
     bordercolor="#666666"
     borderopacity="1.0"
     inkscape:pageopacity="0.0"
     inkscape:pageshadow="2"
     inkscape:zoom="2.8726213"
     inkscape:cx="297.52649"
     inkscape:cy="127.56047"
     inkscape:document-units="mm"
     inkscape:current-layer="layer1"
     showgrid="true"
     inkscape:snap-global="false"
     inkscape:window-width="2560"
     inkscape:window-height="1377"
     inkscape:window-x="1912"
     inkscape:window-y="-8"
     inkscape:window-maximized="1"
     inkscape:pagecheckerboard="true"
     units="px">
    <inkscape:grid
       type="xygrid"
       id="grid976"
       spacingy="33.866666"
       spacingx="67.73333" />
  </sodipodi:namedview>
  <metadata
     id="metadata5">
    <rdf:RDF>
      <cc:Work
         rdf:about="">
        <dc:format>image/svg+xml</dc:format>
        <dc:type
           rdf:resource="http://purl.org/dc/dcmitype/StillImage" />
        <dc:title></dc:title>
      </cc:Work>
    </rdf:RDF>
  </metadata>
  <g
     inkscape:label="Layer 1"
     inkscape:groupmode="layer"
     id="layer1"
     transform="translate(0,-263.13336)">
    <rect
       style="opacity:1;fill:#2a1607;fill-opacity:1;stroke:none;stroke-width:1.03047729;stroke-linecap:square;stroke-linejoin:miter;stroke-miterlimit:4;stroke-dasharray:none;stroke-opacity:1"
       id="rect830"
       width="3.9256282"
       height="12.390265"
       x="30.33326"
       y="281.41614" />
    <rect
       y="282.38528"
       x="87.212852"
       height="11.299962"
       width="3.9256282"
       id="rect832"
       style="opacity:1;fill:#2a1607;fill-opacity:1;stroke:none;stroke-width:0.98409408;stroke-linecap:square;stroke-linejoin:miter;stroke-miterlimit:4;stroke-dasharray:none;stroke-opacity:1" />
    <rect
       style="opacity:1;fill:#2a1607;fill-opacity:1;stroke:none;stroke-width:0.98409408;stroke-linecap:square;stroke-linejoin:miter;stroke-miterlimit:4;stroke-dasharray:none;stroke-opacity:1"
       id="rect858"
       width="3.9256282"
       height="11.299962"
       x="58.319828"
       y="280.93155" />
    <path
       style="fill:#321a07;fill-opacity:1;stroke:none;stroke-width:0.11992714px;stroke-linecap:butt;stroke-linejoin:miter;stroke-opacity:1"
       d="m 67.97906,278.62717 10.15097,-7.45262 -0.21415,7.92376 z"
       id="path856"
       inkscape:connector-curvature="0" />
    <path
       style="opacity:1;fill:#ffe03b;fill-opacity:1;stroke:none;stroke-width:0.88710099;stroke-linecap:round;stroke-linejoin:round;stroke-miterlimit:4;stroke-dasharray:none;stroke-opacity:1;paint-order:normal"
       d="m 22.579858,275.54079 a 4.4672109,4.4672109 0 0 0 -4.467288,4.46728 4.4672109,4.4672109 0 0 0 4.467288,4.46729 4.4672109,4.4672109 0 0 0 4.467054,-4.46729 4.4672109,4.4672109 0 0 0 -4.467054,-4.46728 z m 0,1.75674 a 2.7106126,2.7106126 0 0 1 2.710538,2.71054 2.7106126,2.7106126 0 0 1 -2.710538,2.71055 2.7106126,2.7106126 0 0 1 -2.710775,-2.71055 2.7106126,2.7106126 0 0 1 2.710775,-2.71054 z"
       id="path904"
       inkscape:connector-curvature="0" />
    <rect
       style="opacity:1;fill:#4f280b;fill-opacity:1;stroke:none;stroke-width:0.93509108;stroke-linecap:square;stroke-linejoin:miter;stroke-miterlimit:4;stroke-dasharray:none;stroke-opacity:1"
       id="rect826"
       width="74.968735"
       height="4.6118283"
       x="24.511686"
       y="277.84628"
       ry="1.3325919" />
    <rect
       style="opacity:1;fill:#4f280b;fill-opacity:1;stroke:none;stroke-width:1.03047729;stroke-linecap:square;stroke-linejoin:miter;stroke-miterlimit:4;stroke-dasharray:none;stroke-opacity:1"
       id="rect828"
       width="4.4163313"
       height="16.683918"
       x="76.662727"
       y="265.33334"
       ry="1.3325919" />
    <path
       style="opacity:1;fill:#4f280b;fill-opacity:1;stroke:none;stroke-width:1.03047729;stroke-linecap:square;stroke-linejoin:miter;stroke-miterlimit:4;stroke-dasharray:none;stroke-opacity:1"
       d="m 5.9932591,273.0177 c -1.7419177,2.32739 -2.6855488,5.15521 -2.6906347,8.06229 1.33e-5,7.4527 6.0414413,13.49412 13.4941466,13.49414 0.572559,-0.005 1.144193,-0.0455 1.71154,-0.12274 h 82.849749 c 0.0187,7.8e-4 0.0375,0.002 0.0562,0.002 5.98809,-2e-5 10.84238,-4.85431 10.8424,-10.84239 0,-1.80957 -0.45348,-3.59027 -1.31826,-5.17983 l -3.67346,2.18774 c 0.47391,0.9262 0.72117,1.95168 0.72143,2.99209 0,3.61799 -2.9251,6.55517 -6.54306,6.57117 v -0.0249 h -0.54085 c -1.996836,-0.0438 -2.243872,9e-5 -8.108185,0 H 26.758923 c -6.651691,-0.0102 -7.98948,-0.0127 -9.182623,0 h -1.491826 c -4.739412,-0.3717 -8.3970894,-4.32373 -8.4012274,-9.07769 0.00274,-1.89732 0.5971897,-3.74672 1.7009971,-5.28991 z"
       id="rect834"
       inkscape:connector-curvature="0"
       sodipodi:nodetypes="cccccccccccccccccccc" />
    <path
       style="fill:#ffffff;fill-opacity:1;stroke:none;stroke-width:0.11992714px;stroke-linecap:butt;stroke-linejoin:miter;stroke-opacity:1"
       d="m 4.6520399,275.22535 c -0.8788059,1.81586 -1.345846,3.81541 -1.3494139,5.85464 1.33e-5,7.45271 6.0414407,13.49414 13.494148,13.49415 0.572556,-0.005 1.14419,-0.0455 1.711537,-0.12274 h 82.849749 c 0.0187,7.9e-4 0.0375,0.002 0.0562,0.002 2.30023,-10e-6 4.43276,-0.71704 6.1875,-1.93874 -0.4252,-0.1339 -0.79516,-0.22581 -0.99291,-0.22581 -0.6663,0 -1.69619,0.36334 -2.66533,0.54507 -0.96916,0.18171 -1.02965,0.424 -1.75652,0.60572 -0.72686,0.18172 -1.69594,0.42397 -3.573695,0.42397 -1.877749,-10e-6 -2.84696,-0.24216 -5.027555,-0.3633 -2.180626,-0.12115 -3.45266,0.42387 -5.148676,0.66616 -1.696025,0.24229 -3.513264,-0.1212 -4.118987,-0.18177 -0.605715,-0.0606 -9.32814,0.36353 -12.235611,-0.2422 -2.907478,-0.60572 -5.512024,-0.66634 -7.813771,-0.48462 -2.301755,0.18171 -3.392056,0.66634 -4.542938,0.78748 -1.150866,0.12115 -17.687202,0.0606 -19.686092,-0.12109 -1.998883,-0.18171 -9.994385,0.0605 -11.750985,-0.0607 -1.756599,-0.12116 -3.089156,-0.24216 -4.361178,-0.66617 -1.272019,-0.424 -4.724715,-0.90867 -6.239022,-0.36352 -1.514308,0.54515 -3.997792,-0.0606 -4.845806,-0.48464 -0.848011,-0.424 -2.241095,-1.93827 -3.5736893,-2.24113 -1.3325898,-0.30286 -3.5133021,-2.72577 -3.6950213,-4.54294 -0.1817145,-1.81718 -0.9084507,-3.45256 -0.9690206,-4.78515 -0.060572,-1.33258 0.1764605,-2.06594 0.3028646,-2.84686 0.1264033,-0.78092 -0.1106366,-2.0369 -0.255784,-2.70819 z"
       id="path861"
       inkscape:connector-curvature="0"
       sodipodi:nodetypes="cccccccsccssscscccscscccczc" />
    <ellipse
       style="opacity:1;fill:#ffffff;fill-opacity:1;stroke:none;stroke-width:0.88710105;stroke-linecap:round;stroke-linejoin:round;stroke-miterlimit:4;stroke-dasharray:none;stroke-opacity:1;paint-order:normal"
       id="path866"
       cx="29.345387"
       cy="280.85437"
       rx="0.47114241"
       ry="0.51397347" />
    <ellipse
       style="opacity:1;fill:#ffffff;fill-opacity:1;stroke:none;stroke-width:0.88710105;stroke-linecap:round;stroke-linejoin:round;stroke-miterlimit:4;stroke-dasharray:none;stroke-opacity:1;paint-order:normal"
       id="path868"
       cx="30.758812"
       cy="292.44019"
       rx="0.42831123"
       ry="0.44972679" />
    <ellipse
       style="opacity:1;fill:#ffffff;fill-opacity:1;stroke:none;stroke-width:0.88710105;stroke-linecap:round;stroke-linejoin:round;stroke-miterlimit:4;stroke-dasharray:none;stroke-opacity:1;paint-order:normal"
       id="path870"
       cx="57.378372"
       cy="292.50443"
       rx="0.92086917"
       ry="0.98511589" />
    <ellipse
       style="opacity:1;fill:#ffffff;fill-opacity:1;stroke:none;stroke-width:0.88710105;stroke-linecap:round;stroke-linejoin:round;stroke-miterlimit:4;stroke-dasharray:none;stroke-opacity:1;paint-order:normal"
       id="path872"
       cx="58.577633"
       cy="291.81915"
       rx="0.57822025"
       ry="0.64246684" />
    <circle
       style="opacity:1;fill:#ffffff;fill-opacity:1;stroke:none;stroke-width:0.88710105;stroke-linecap:round;stroke-linejoin:round;stroke-miterlimit:4;stroke-dasharray:none;stroke-opacity:1;paint-order:normal"
       id="path874"
       cx="5.5098691"
       cy="280.27615"
       r="0.32123342" />
    <ellipse
       style="opacity:1;fill:#ffffff;fill-opacity:1;stroke:none;stroke-width:0.88710105;stroke-linecap:round;stroke-linejoin:round;stroke-miterlimit:4;stroke-dasharray:none;stroke-opacity:1;paint-order:normal"
       id="path876"
       cx="14.675732"
       cy="291.34799"
       rx="0.62105125"
       ry="0.64246684" />
    <ellipse
       style="opacity:1;fill:#ffffff;fill-opacity:1;stroke:none;stroke-width:0.88710105;stroke-linecap:round;stroke-linejoin:round;stroke-miterlimit:4;stroke-dasharray:none;stroke-opacity:1;paint-order:normal"
       id="path878"
       cx="83.762337"
       cy="292.7186"
       rx="0.32123342"
       ry="0.34264901" />
    <ellipse
       style="opacity:1;fill:#ffffff;fill-opacity:1;stroke:none;stroke-width:0.88710105;stroke-linecap:round;stroke-linejoin:round;stroke-miterlimit:4;stroke-dasharray:none;stroke-opacity:1;paint-order:normal"
       id="path880"
       cx="91.25779"
       cy="292.01187"
       rx="0.74954462"
       ry="0.7067135" />
    <ellipse
       style="opacity:1;fill:#ffffff;fill-opacity:1;stroke:none;stroke-width:0.88710105;stroke-linecap:round;stroke-linejoin:round;stroke-miterlimit:4;stroke-dasharray:none;stroke-opacity:1;paint-order:normal"
       id="path882"
       cx="101.49441"
       cy="293.06125"
       rx="1.0065314"
       ry="0.94228482" />
    <circle
       style="opacity:1;fill:#ffffff;fill-opacity:1;stroke:none;stroke-width:0.88710105;stroke-linecap:round;stroke-linejoin:round;stroke-miterlimit:4;stroke-dasharray:none;stroke-opacity:1;paint-order:normal"
       id="path884"
       cx="106.65556"
       cy="290.32004"
       r="0.29981786" />
    <circle
       style="opacity:1;fill:#ffffff;fill-opacity:1;stroke:none;stroke-width:0.88710105;stroke-linecap:round;stroke-linejoin:round;stroke-miterlimit:4;stroke-dasharray:none;stroke-opacity:1;paint-order:normal"
       id="path886"
       cx="90.808052"
       cy="281.711"
       r="0.42831123" />
    <path
       style="opacity:1;fill:#ffffff;fill-opacity:1;stroke:none;stroke-width:0.88710099;stroke-linecap:round;stroke-linejoin:round;stroke-miterlimit:4;stroke-dasharray:none;stroke-opacity:1;paint-order:normal"
       d="m 43.586677,281.19711 a 1.0921936,1.1350247 0 0 0 -1.092241,1.13485 1.0921936,1.1350247 0 0 0 0.0082,0.12626 h 2.168991 a 1.0921936,1.1350247 0 0 0 0.0073,-0.12626 1.0921936,1.1350247 0 0 0 -1.092223,-1.13485 z"
       id="path888"
       inkscape:connector-curvature="0" />
    <ellipse
       style="opacity:1;fill:#ffffff;fill-opacity:1;stroke:none;stroke-width:0.88710105;stroke-linecap:round;stroke-linejoin:round;stroke-miterlimit:4;stroke-dasharray:none;stroke-opacity:1;paint-order:normal"
       id="path890"
       cx="44.614693"
       cy="281.13278"
       rx="0.36406457"
       ry="0.40689564" />
    <ellipse
       style="opacity:1;fill:#ffffff;fill-opacity:1;stroke:none;stroke-width:0.88710105;stroke-linecap:round;stroke-linejoin:round;stroke-miterlimit:4;stroke-dasharray:none;stroke-opacity:1;paint-order:normal"
       id="path892"
       cx="38.51125"
       cy="280.83298"
       rx="0.21415561"
       ry="0.19274007" />
    <path
       style="opacity:1;fill:#ffffff;fill-opacity:1;stroke:none;stroke-width:0.88710099;stroke-linecap:round;stroke-linejoin:round;stroke-miterlimit:4;stroke-dasharray:none;stroke-opacity:1;paint-order:normal"
       d="m 73.611321,281.58242 a 0.92086915,0.92086915 0 0 0 -0.918665,0.8758 h 1.838027 a 0.92086915,0.92086915 0 0 0 -0.919362,-0.8758 z"
       id="path894"
       inkscape:connector-curvature="0" />
    <path
       style="opacity:1;fill:#ffffff;fill-opacity:1;stroke:none;stroke-width:0.61356241;stroke-linecap:round;stroke-linejoin:round;stroke-miterlimit:4;stroke-dasharray:none;stroke-opacity:1;paint-order:normal"
       d="m 24.745238,276.87813 c -5e-6,0.15618 -0.928363,-0.46312 -2.27903,-0.46312 -1.350665,0 -2.218456,0.67987 -2.218459,0.52369 -10e-6,-0.15618 0.867782,-1.08927 2.218459,-1.08927 1.35068,0 2.27904,0.87251 2.27903,1.0287 z"
       id="path909"
       inkscape:connector-curvature="0"
       sodipodi:nodetypes="cscsc" />
    <path
       sodipodi:nodetypes="cscsc"
       inkscape:connector-curvature="0"
       id="path912"
       d="m 23.657878,282.8709 c 0,-0.0754 -0.448201,0.22359 -1.100286,0.22359 -0.652083,0 -1.071044,-0.32823 -1.071044,-0.25283 -4e-6,0.0754 0.41895,0.52589 1.071044,0.52589 0.65209,0 1.100291,-0.42125 1.100286,-0.49665 z"
       style="opacity:1;fill:#ffffff;fill-opacity:1;stroke:none;stroke-width:0.29622024;stroke-linecap:round;stroke-linejoin:round;stroke-miterlimit:4;stroke-dasharray:none;stroke-opacity:1;paint-order:normal" />
  </g>
</svg>
