<?xml version="1.0" encoding="UTF-8" standalone="no"?>
<!-- Created with Inkscape (http://www.inkscape.org/) -->

<svg
   xmlns:dc="http://purl.org/dc/elements/1.1/"
   xmlns:cc="http://creativecommons.org/ns#"
   xmlns:rdf="http://www.w3.org/1999/02/22-rdf-syntax-ns#"
   xmlns:svg="http://www.w3.org/2000/svg"
   xmlns="http://www.w3.org/2000/svg"
   xmlns:sodipodi="http://sodipodi.sourceforge.net/DTD/sodipodi-0.dtd"
   xmlns:inkscape="http://www.inkscape.org/namespaces/inkscape"
   width="1024"
   height="1024"
   viewBox="0 0 270.93333 270.93334"
   version="1.1"
   id="svg8"
   inkscape:version="0.92.4 (5da689c313, 2019-01-14)"
   sodipodi:docname="porato.svg"
   inkscape:export-filename="C:\Prog\Projets\teeworlds\build_genie\data\mods\example_ui_1\potato.png"
   inkscape:export-xdpi="3.0000002"
   inkscape:export-ydpi="3.0000002">
  <defs
     id="defs2" />
  <sodipodi:namedview
     id="base"
     pagecolor="#ffffff"
     bordercolor="#666666"
     borderopacity="1.0"
     inkscape:pageopacity="0.0"
     inkscape:pageshadow="2"
     inkscape:zoom="0.98994949"
     inkscape:cx="665.0502"
     inkscape:cy="572.66323"
     inkscape:document-units="mm"
     inkscape:current-layer="layer1"
     showgrid="false"
     units="px"
     inkscape:window-width="2560"
     inkscape:window-height="1377"
     inkscape:window-x="1912"
     inkscape:window-y="-8"
     inkscape:window-maximized="1" />
  <metadata
     id="metadata5">
    <rdf:RDF>
      <cc:Work
         rdf:about="">
        <dc:format>image/svg+xml</dc:format>
        <dc:type
           rdf:resource="http://purl.org/dc/dcmitype/StillImage" />
        <dc:title></dc:title>
      </cc:Work>
    </rdf:RDF>
  </metadata>
  <g
     inkscape:label="Layer 1"
     inkscape:groupmode="layer"
     id="layer1"
     transform="translate(0,-26.06665)">
    <path
       sodipodi:type="inkscape:offset"
       inkscape:radius="2.9443185"
       inkscape:original="M 178.93359 13.976562 C 175.03218 13.765576 171.0862 14.031494 167.14453 14.898438 C 142.60824 20.29502 129.97605 34.375842 122.13867 48.070312 C 118.21998 54.917548 115.44752 61.671613 112.88281 67.214844 C 110.31811 72.758074 107.89352 77.017467 105.23047 78.998047 C 92.370533 88.562308 87.784732 90.777043 72.451172 99.060547 C 56.581731 107.63356 38.822811 126.86846 35.980469 151.5332 C 33.222878 175.46249 33.915322 183.60144 36.841797 197.87109 C 39.259859 209.66163 43.449397 220.57171 49.378906 230.10547 C 56.056475 240.84197 64.94804 249.82987 75.955078 256.31055 C 93.24459 266.4902 113.38766 269.09193 133.71289 265.25781 C 145.91957 262.95518 158.20432 258.33904 170.03906 251.65625 C 183.90518 243.82638 197.15725 233.1585 208.94727 220.02344 C 216.60204 211.49537 223.64087 201.92664 229.82812 191.41797 C 238.66752 176.40479 244.98532 160.80515 248.85938 145.35547 C 253.9506 125.05174 254.82283 105.00702 251.61719 86.892578 C 246.94321 60.480894 233.54082 38.115781 211.91797 25.384766 C 201.90723 19.490688 190.63815 14.609542 178.93359 13.976562 z "
       style="fill:#aa8800;fill-opacity:1;stroke:none;stroke-width:3.77465916;stroke-miterlimit:4;stroke-dasharray:none;stroke-opacity:1"
       id="path5363"
       d="m 179.0918,11.037109 c -4.14151,-0.22397 -8.35915,0.05796 -12.58008,0.986329 -25.37862,5.581846 -38.84507,20.460917 -46.92774,34.583984 -4.03591,7.052067 -6.8515,13.921165 -9.37304,19.371094 -2.50911,5.423082 -5.01055,9.371291 -6.73828,10.65625 -12.765639,9.494126 -17.065423,11.540065 -32.421879,19.835937 -16.681613,9.011767 -35.014006,28.847207 -37.996093,54.724607 -2.772701,24.06041 -2.050034,32.87163 0.902343,47.26758 2.480716,12.09604 6.788824,23.33624 12.921875,33.19727 6.907434,11.10608 16.146752,20.45468 27.582032,27.1875 17.962091,10.57564 38.885022,13.24751 59.796872,9.30273 12.55745,-2.3688 25.13964,-7.10339 37.22852,-13.92969 14.16378,-7.99795 27.65907,-18.86897 39.65234,-32.23047 7.78675,-8.6751 14.94044,-18.40152 21.22656,-29.07812 8.98062,-15.25303 15.4056,-31.11119 19.34961,-46.83984 5.18312,-20.67023 6.08734,-41.12168 2.80078,-59.693364 C 249.72305,59.297046 235.87575,36.073707 213.41211,22.847656 203.18132,16.824017 191.5096,11.708661 179.0918,11.037109 Z"
       transform="matrix(1.0023744,0,0,1.0023744,-15.041451,19.93895)" />
    <path
       style="fill:#d3bc5f;fill-opacity:1;stroke:none;stroke-width:3.78362179;stroke-miterlimit:4;stroke-dasharray:none;stroke-opacity:1"
       d="m 213.63444,210.81261 c -6.13576,10.42122 -13.11378,19.90685 -20.69852,28.3569 -11.68201,13.01473 -24.80326,23.57283 -38.5031,31.30881 -11.69292,6.6027 -23.80733,11.14958 -35.80808,13.41338 -19.982507,3.76946 -39.649895,1.20892 -56.531678,-8.73068 -10.747347,-6.32777 -19.427334,-15.0937 -25.967371,-25.60907 -5.807419,-9.33746 -9.927485,-20.05435 -12.30937,-31.66848 -2.917301,-14.22493 -3.590595,-21.92453 -0.836141,-45.82661 2.754458,-23.9021 20.182524,-42.79417 35.537781,-51.08941 15.355258,-8.29524 20.140314,-10.62757 33.095006,-20.2623 12.954673,-9.634743 13.230013,-53.335 61.309053,-63.909646 15.05805,-3.31191 30.27849,2.526013 43.45864,10.28617 21.11289,12.430761 34.24749,34.270766 38.85356,60.298746 3.15905,17.85118 2.30642,37.67231 -2.73538,57.77899 -3.83646,15.29978 -10.09852,30.76489 -18.8644,45.6532 z"
       id="path5337"
       inkscape:connector-curvature="0"
       sodipodi:nodetypes="ssssssszzzsssss" />
    <ellipse
       style="fill:#aa8800;fill-opacity:1;stroke:none;stroke-width:3.18253851;stroke-miterlimit:4;stroke-dasharray:none;stroke-opacity:1"
       id="path5340"
       cx="75.108276"
       cy="149.66824"
       rx="4.4204178"
       ry="3.7506578" />
    <ellipse
       style="fill:#aa8800;fill-opacity:1;stroke:none;stroke-width:3.18253851;stroke-miterlimit:4;stroke-dasharray:none;stroke-opacity:1"
       id="path5342"
       cx="142.88803"
       cy="80.281075"
       rx="3.0808976"
       ry="3.2148495" />
    <ellipse
       style="fill:#aa8800;fill-opacity:1;stroke:none;stroke-width:3.18253851;stroke-miterlimit:4;stroke-dasharray:none;stroke-opacity:1"
       id="path5344"
       cx="158.96228"
       cy="156.63373"
       rx="5.7599382"
       ry="5.3580823" />
    <ellipse
       style="fill:#aa8800;fill-opacity:1;stroke:none;stroke-width:3.18253851;stroke-miterlimit:4;stroke-dasharray:none;stroke-opacity:1"
       id="path5346"
       cx="79.126846"
       cy="220.66283"
       rx="3.8846099"
       ry="3.7506578" />
    <ellipse
       style="fill:#aa8800;fill-opacity:1;stroke:none;stroke-width:3.18253851;stroke-miterlimit:4;stroke-dasharray:none;stroke-opacity:1"
       id="path5348"
       cx="150.79121"
       cy="231.51294"
       rx="2.1432328"
       ry="2.5450892" />
    <ellipse
       style="fill:#aa8800;fill-opacity:1;stroke:none;stroke-width:3.18253851;stroke-miterlimit:4;stroke-dasharray:none;stroke-opacity:1"
       id="path5350"
       cx="209.46222"
       cy="87.514488"
       rx="2.6790411"
       ry="2.9469454" />
    <ellipse
       style="fill:#aa8800;fill-opacity:1;stroke:none;stroke-width:3.18253851;stroke-miterlimit:4;stroke-dasharray:none;stroke-opacity:1"
       id="path5352"
       cx="156.6851"
       cy="122.74389"
       rx="1.3395206"
       ry="1.4734727" />
    <ellipse
       style="fill:#aa8800;fill-opacity:1;stroke:none;stroke-width:3.18253851;stroke-miterlimit:4;stroke-dasharray:none;stroke-opacity:1"
       id="path5354"
       cx="117.03529"
       cy="183.82602"
       rx="1.6074247"
       ry="1.4734727" />
    <ellipse
       style="fill:#aa8800;fill-opacity:1;stroke:none;stroke-width:3.18253851;stroke-miterlimit:4;stroke-dasharray:none;stroke-opacity:1"
       id="path5356"
       cx="45.772785"
       cy="182.21857"
       rx="1.6074247"
       ry="1.4734727" />
    <path
       style="fill:#bea749;fill-opacity:1;stroke:none;stroke-width:0.26521155px;stroke-linecap:butt;stroke-linejoin:miter;stroke-opacity:1"
       d="m 235.78341,148.13921 c -5.29518,1.73679 -9.00686,10.63341 -13.7299,16.79957 -9.64454,12.5915 -9.37662,25.7188 -23.30764,34.29172 -13.93101,8.57294 -14.73438,3.48263 -20.62826,15.0025 -5.89389,11.51987 -6.96587,17.94966 -14.73508,24.37936 -7.76922,6.42971 -33.75576,8.03691 -45.54353,11.78759 -11.78779,3.75065 -36.434968,-1.33946 -48.222752,-5.09011 -7.788093,-2.47802 -21.375725,7.14362 -29.176687,10.50888 5.89061,7.75442 13.1196,14.31771 21.653593,19.34232 16.881782,9.93959 36.548979,12.5002 56.531486,8.73075 12.00077,-2.26382 24.11531,-6.81068 35.80823,-13.4134 13.69984,-7.73597 26.82081,-18.29421 38.50281,-31.30894 7.58475,-8.45005 14.56317,-17.93571 20.69893,-28.35692 8.76588,-14.8883 15.02775,-30.35338 18.86421,-45.65316 1.43164,-5.70939 2.52443,-11.3954 3.28459,-17.02016 z"
       id="path5358"
       inkscape:connector-curvature="0"
       sodipodi:nodetypes="csssscscssssssc" />
  </g>
</svg>
