<?xml version="1.0" encoding="UTF-8" standalone="no"?>
<!-- Created with Inkscape (http://www.inkscape.org/) -->

<svg
   xmlns:dc="http://purl.org/dc/elements/1.1/"
   xmlns:cc="http://creativecommons.org/ns#"
   xmlns:rdf="http://www.w3.org/1999/02/22-rdf-syntax-ns#"
   xmlns:svg="http://www.w3.org/2000/svg"
   xmlns="http://www.w3.org/2000/svg"
   xmlns:sodipodi="http://sodipodi.sourceforge.net/DTD/sodipodi-0.dtd"
   xmlns:inkscape="http://www.inkscape.org/namespaces/inkscape"
   width="1024"
   height="1024"
   viewBox="0 0 270.93333 270.93334"
   version="1.1"
   id="svg8"
   inkscape:version="0.92.4 (5da689c313, 2019-01-14)"
   sodipodi:docname="porato.svg"
   inkscape:export-filename="C:\Prog\Projets\teeworlds\build_genie\data\mods\example_ui_1\potato.png"
   inkscape:export-xdpi="12.000001"
   inkscape:export-ydpi="12.000001">
  <defs
     id="defs2" />
  <sodipodi:namedview
     id="base"
     pagecolor="#ffffff"
     bordercolor="#666666"
     borderopacity="1.0"
     inkscape:pageopacity="0.0"
     inkscape:pageshadow="2"
     inkscape:zoom="0.98994949"
     inkscape:cx="741.48489"
     inkscape:cy="537.96652"
     inkscape:document-units="mm"
     inkscape:current-layer="layer1"
     showgrid="false"
     units="px"
     inkscape:window-width="2560"
     inkscape:window-height="1377"
     inkscape:window-x="1912"
     inkscape:window-y="-8"
     inkscape:window-maximized="1" />
  <metadata
     id="metadata5">
    <rdf:RDF>
      <cc:Work
         rdf:about="">
        <dc:format>image/svg+xml</dc:format>
        <dc:type
           rdf:resource="http://purl.org/dc/dcmitype/StillImage" />
        <dc:title />
      </cc:Work>
    </rdf:RDF>
  </metadata>
  <g
     inkscape:label="Layer 1"
     inkscape:groupmode="layer"
     id="layer1"
     transform="translate(0,-26.06665)">
    <path
       sodipodi:type="inkscape:offset"
       inkscape:radius="2.9443185"
       inkscape:original="M 178.93359 13.976562 C 175.03218 13.765576 171.0862 14.031494 167.14453 14.898438 C 142.60824 20.29502 129.97605 34.375842 122.13867 48.070312 C 118.21998 54.917548 115.44752 61.671613 112.88281 67.214844 C 110.31811 72.758074 107.89352 77.017467 105.23047 78.998047 C 92.370533 88.562308 87.784732 90.777043 72.451172 99.060547 C 56.581731 107.63356 38.822811 126.86846 35.980469 151.5332 C 33.222878 175.46249 33.915322 183.60144 36.841797 197.87109 C 39.259859 209.66163 43.449397 220.57171 49.378906 230.10547 C 56.056475 240.84197 64.94804 249.82987 75.955078 256.31055 C 93.24459 266.4902 113.38766 269.09193 133.71289 265.25781 C 145.91957 262.95518 158.20432 258.33904 170.03906 251.65625 C 183.90518 243.82638 197.15725 233.1585 208.94727 220.02344 C 216.60204 211.49537 223.64087 201.92664 229.82812 191.41797 C 238.66752 176.40479 244.98532 160.80515 248.85938 145.35547 C 253.9506 125.05174 254.82283 105.00702 251.61719 86.892578 C 246.94321 60.480894 233.54082 38.115781 211.91797 25.384766 C 201.90723 19.490688 190.63815 14.609542 178.93359 13.976562 z "
       style="fill:#aa8800;fill-opacity:1;stroke:none;stroke-width:3.77465916;stroke-miterlimit:4;stroke-dasharray:none;stroke-opacity:1"
       id="path5363"
       d="m 179.0918,11.037109 c -4.14151,-0.22397 -8.35915,0.05796 -12.58008,0.986329 -25.37862,5.581846 -38.84507,20.460917 -46.92774,34.583984 -4.03591,7.052067 -6.8515,13.921165 -9.37304,19.371094 -2.50911,5.423082 -5.01055,9.371291 -6.73828,10.65625 -12.765639,9.494126 -17.065423,11.540065 -32.421879,19.835937 -16.681613,9.011767 -35.014006,28.847207 -37.996093,54.724607 -2.772701,24.06041 -2.050034,32.87163 0.902343,47.26758 2.480716,12.09604 6.788824,23.33624 12.921875,33.19727 6.907434,11.10608 16.146752,20.45468 27.582032,27.1875 17.962091,10.57564 38.885022,13.24751 59.796872,9.30273 12.55745,-2.3688 25.13964,-7.10339 37.22852,-13.92969 14.16378,-7.99795 27.65907,-18.86897 39.65234,-32.23047 7.78675,-8.6751 14.94044,-18.40152 21.22656,-29.07812 8.98062,-15.25303 15.4056,-31.11119 19.34961,-46.83984 5.18312,-20.67023 6.08734,-41.12168 2.80078,-59.693364 C 249.72305,59.297046 235.87575,36.073707 213.41211,22.847656 203.18132,16.824017 191.5096,11.708661 179.0918,11.037109 Z"
       transform="matrix(1.0023744,0,0,0.9410614,-7.103951,33.084412)" />
    <path
       style="fill:#d3bc5f;fill-opacity:1;stroke:none;stroke-width:3.66607809;stroke-miterlimit:4;stroke-dasharray:none;stroke-opacity:1"
       d="m 221.57194,212.28275 c -6.13576,9.78378 -13.11378,18.6892 -20.69852,26.62238 -11.68201,12.21864 -24.80326,22.13093 -38.5031,29.39372 -11.69292,6.19882 -23.80733,10.46758 -35.80808,12.59291 -19.98251,3.53889 -39.649895,1.13497 -56.531678,-8.19664 -10.747347,-5.94072 -19.427334,-14.17046 -25.967371,-24.04262 -5.807419,-8.76631 -9.927485,-18.82768 -12.30937,-29.73139 -2.917301,-13.35483 -3.590595,-20.58346 -0.836141,-43.0235 2.754458,-22.44007 20.182524,-40.17655 35.537781,-47.96439 15.355258,-7.78784 20.140314,-9.9775 33.095006,-19.0229 12.954673,-9.045406 13.230013,-50.072613 61.309053,-60.000432 15.05805,-3.109327 30.27849,2.371503 43.45864,9.656988 21.11289,11.6704 34.24749,32.1745 38.85356,56.610404 3.15905,16.75926 2.30642,35.36798 -2.73538,54.24478 -3.83646,14.36392 -10.09852,28.88307 -18.8644,42.86069 z"
       id="path5337"
       inkscape:connector-curvature="0"
       sodipodi:nodetypes="ssssssszzzsssss" />
    <ellipse
       style="fill:#aa8800;fill-opacity:1;stroke:none;stroke-width:3.08366847;stroke-miterlimit:4;stroke-dasharray:none;stroke-opacity:1"
       id="path5340"
       cx="83.045776"
       cy="154.87846"
       rx="4.4204178"
       ry="3.5212386" />
    <ellipse
       style="fill:#aa8800;fill-opacity:1;stroke:none;stroke-width:3.08366847;stroke-miterlimit:4;stroke-dasharray:none;stroke-opacity:1"
       id="path5342"
       cx="150.82553"
       cy="89.735542"
       rx="3.0808976"
       ry="3.0182045" />
    <ellipse
       style="fill:#aa8800;fill-opacity:1;stroke:none;stroke-width:3.08366847;stroke-miterlimit:4;stroke-dasharray:none;stroke-opacity:1"
       id="path5344"
       cx="166.89978"
       cy="161.41788"
       rx="5.7599382"
       ry="5.0303402" />
    <ellipse
       style="fill:#aa8800;fill-opacity:1;stroke:none;stroke-width:3.08366847;stroke-miterlimit:4;stroke-dasharray:none;stroke-opacity:1"
       id="path5346"
       cx="87.064346"
       cy="221.53047"
       rx="3.8846099"
       ry="3.5212386" />
    <ellipse
       style="fill:#aa8800;fill-opacity:1;stroke:none;stroke-width:3.08366847;stroke-miterlimit:4;stroke-dasharray:none;stroke-opacity:1"
       id="path5348"
       cx="158.72871"
       cy="231.7169"
       rx="2.1432328"
       ry="2.3894119" />
    <ellipse
       style="fill:#aa8800;fill-opacity:1;stroke:none;stroke-width:3.08366847;stroke-miterlimit:4;stroke-dasharray:none;stroke-opacity:1"
       id="path5350"
       cx="217.39972"
       cy="96.526505"
       rx="2.6790411"
       ry="2.7666874" />
    <ellipse
       style="fill:#aa8800;fill-opacity:1;stroke:none;stroke-width:3.08366847;stroke-miterlimit:4;stroke-dasharray:none;stroke-opacity:1"
       id="path5352"
       cx="164.6226"
       cy="129.60101"
       rx="1.3395206"
       ry="1.3833437" />
    <ellipse
       style="fill:#aa8800;fill-opacity:1;stroke:none;stroke-width:3.08366847;stroke-miterlimit:4;stroke-dasharray:none;stroke-opacity:1"
       id="path5354"
       cx="124.97279"
       cy="186.94688"
       rx="1.6074247"
       ry="1.3833437" />
    <ellipse
       style="fill:#aa8800;fill-opacity:1;stroke:none;stroke-width:3.08366847;stroke-miterlimit:4;stroke-dasharray:none;stroke-opacity:1"
       id="path5356"
       cx="53.710285"
       cy="185.43776"
       rx="1.6074247"
       ry="1.3833437" />
    <path
       style="fill:#bea749;fill-opacity:1;stroke:none;stroke-width:0.25697237px;stroke-linecap:butt;stroke-linejoin:miter;stroke-opacity:1"
       d="m 243.72091,153.44295 c -5.29518,1.63055 -9.00686,9.98298 -13.7299,15.77197 -9.64454,11.82131 -9.37662,24.14564 -23.30764,32.19418 -13.93101,8.04855 -14.73438,3.2696 -20.62826,14.08483 -5.89389,10.81522 -6.96587,16.85172 -14.73508,22.88813 -7.76922,6.03641 -33.75576,7.54531 -45.54353,11.06657 -11.78779,3.52123 -36.434968,-1.25753 -48.222752,-4.77876 -7.788093,-2.32645 -21.375725,6.70666 -29.176687,9.86607 5.89061,7.2801 13.1196,13.44193 21.653593,18.15919 16.881782,9.33161 36.548976,11.7356 56.531486,8.19671 12.00077,-2.12534 24.11531,-6.39408 35.80823,-12.59293 13.69984,-7.26278 26.82081,-17.17519 38.50281,-29.39384 7.58475,-7.93318 14.56317,-16.83862 20.69893,-26.62239 8.76588,-13.97762 15.02775,-28.49673 18.86421,-42.86066 1.43164,-5.36016 2.52443,-10.69837 3.28459,-15.97907 z"
       id="path5358"
       inkscape:connector-curvature="0"
       sodipodi:nodetypes="csssscscssssssc" />
  </g>
</svg>
