<?xml version="1.0" encoding="UTF-8" standalone="no"?>
<!-- Created with Inkscape (http://www.inkscape.org/) -->

<svg
   xmlns:dc="http://purl.org/dc/elements/1.1/"
   xmlns:cc="http://creativecommons.org/ns#"
   xmlns:rdf="http://www.w3.org/1999/02/22-rdf-syntax-ns#"
   xmlns:svg="http://www.w3.org/2000/svg"
   xmlns="http://www.w3.org/2000/svg"
   xmlns:sodipodi="http://sodipodi.sourceforge.net/DTD/sodipodi-0.dtd"
   xmlns:inkscape="http://www.inkscape.org/namespaces/inkscape"
   width="256"
   height="256"
   viewBox="0 0 256 256"
   id="svg4262"
   version="1.1"
   inkscape:version="0.91 r13725"
   sodipodi:docname="berseker.svg"
   inkscape:export-filename="C:\Prog\Projets\teeworlds\zomb_assets\berseker.png"
   inkscape:export-xdpi="90"
   inkscape:export-ydpi="90">
  <defs
     id="defs4264" />
  <sodipodi:namedview
     id="base"
     pagecolor="#ffffff"
     bordercolor="#666666"
     borderopacity="1.0"
     inkscape:pageopacity="0.0"
     inkscape:pageshadow="2"
     inkscape:zoom="3.2070312"
     inkscape:cx="139.01405"
     inkscape:cy="194.24068"
     inkscape:document-units="px"
     inkscape:current-layer="layer1"
     showgrid="false"
     units="px"
     inkscape:window-width="1920"
     inkscape:window-height="1018"
     inkscape:window-x="-8"
     inkscape:window-y="-8"
     inkscape:window-maximized="1" />
  <metadata
     id="metadata4267">
    <rdf:RDF>
      <cc:Work
         rdf:about="">
        <dc:format>image/svg+xml</dc:format>
        <dc:type
           rdf:resource="http://purl.org/dc/dcmitype/StillImage" />
        <dc:title />
      </cc:Work>
    </rdf:RDF>
  </metadata>
  <g
     inkscape:label="Calque 1"
     inkscape:groupmode="layer"
     id="layer1"
     transform="translate(0,-796.36216)">
    <path
       inkscape:connector-curvature="0"
       style="opacity:1;fill:#1a1111;fill-opacity:1;stroke:none;stroke-width:2;stroke-linecap:round;stroke-linejoin:round;stroke-miterlimit:4;stroke-dasharray:none;stroke-opacity:1"
       d="m 180.243,806.08792 c 0,0 4.5e-4,6.47478 -0.48828,7.94097 -0.48873,1.4662 -2.93271,4.88877 -2.93271,6.23278 0,1.34401 0.2442,4.03188 -1.46636,5.49807 -1.71056,1.4662 -3.17587,3.54321 -5.86389,1.34391 -2.68803,-2.19929 -1.22272,-1.46668 -1.10054,-4.39907 0.12219,-2.93239 -3.42053,-2.93178 -3.90926,-5.98635 -0.48873,-3.05457 2.93271,-10.26449 2.93271,-10.26449 0,0 -2.32179,0.97835 -2.93271,1.10053 -0.61091,0.12219 -3.29896,0.73218 -4.88734,0.97655 -1.58838,0.24437 -0.85563,6.3544 -0.85563,8.06496 0,1.71056 0.73272,3.54269 1.22145,5.98635 0.48873,2.44366 1.95517,9.04174 2.19954,11.24104 0.24436,2.19929 1.09916,2.1997 2.56535,3.66589 0.59608,0.59608 1.08503,1.1913 1.47095,1.77096 a 34.822153,34.822153 0 0 0 -4.2307,5.41847 c -0.54621,-0.58384 -1.08054,-1.13412 -1.51533,-1.5689 -1.95493,-1.95493 -3.66651,-4.03222 -4.64397,-6.35371 -0.97747,-2.32147 -0.73326,-3.78724 -1.46636,-5.37561 -0.7331,-1.58839 -0.73237,-6.23222 -0.36582,-8.06496 0.36654,-1.83275 -0.97809,-5.8639 -0.97809,-5.8639 l -3.05363,5.62052 c 0,0 -0.97862,3.78625 -1.22298,5.619 -0.24437,1.83274 0.12226,3.91003 0.73317,6.3537 0.61092,2.44366 2.32215,4.76575 3.78835,7.9425 1.46619,3.17677 1.58808,5.49749 1.95463,9.40734 0.36655,3.90985 0,6.47575 0,9.77469 0,3.29897 0.61107,5.49888 1.46635,7.9425 0.15615,0.44614 0.59389,1.34087 1.12656,2.38322 a 34.822153,34.822153 0 0 0 7.60576,13.91202 c 0.0599,0.11448 0.28962,0.52066 0.30919,0.56633 l 0.21583,0.0306 a 34.822153,34.822153 0 0 0 25.44235,11.08798 34.822153,34.822153 0 0 0 27.19341,-13.12679 c 0.86131,-0.27714 1.72728,-0.54729 2.61892,-0.80206 3.42113,-0.9775 3.05588,-2.81041 4.76643,-6.3537 1.71056,-3.54329 1.83145,-2.19985 2.198,-3.05516 0.36656,-0.85524 -1.83197,-6.96403 2.44444,-8.18588 4.2764,-1.22178 0.61092,-3.29859 0,-6.1088 -0.61091,-2.81021 3.91023,-10.01999 5.74298,-13.68548 1.83274,-3.66549 -2.68916,-17.59408 -3.30007,-20.77083 -0.61092,-3.17676 -6.59708,-10.38542 -6.59708,-10.38542 0,0 3.54337,11.73018 2.81027,14.90694 -0.7331,3.17676 -3.2987,7.33022 -4.7649,9.40733 -1.1469,1.62477 -3.03733,2.35691 -4.68529,3.29854 a 34.822153,34.822153 0 0 0 -3.65518,-4.41591 c 0.8107,-1.62464 1.84408,-3.43347 3.20822,-5.4797 3.17676,-4.76514 2.68835,-8.92003 2.93272,-10.75277 0.24436,-1.83274 -1.71161,-6.96351 -2.56689,-7.94098 -0.85529,-0.97749 -3.78681,1.34388 -3.78681,1.34388 l 0,5.98634 c 0,0.97747 -1.58808,2.68805 -1.95463,4.88735 -0.31491,1.88945 -1.89374,5.66606 -3.64906,7.23688 a 34.822153,34.822153 0 0 0 -1.35768,-0.83114 c 0.41955,-1.16086 1.16043,-2.64774 1.09594,-3.22813 -0.12218,-1.09965 -0.48854,-2.93287 -0.61072,-4.39907 -0.12219,-1.46619 -3.66463,-8.43038 -3.78681,-11.72932 -0.12219,-3.29895 0,-3.7877 0,-4.88734 0,-1.09965 -4.39907,-2.81026 -4.39907,-2.81026 0,0 -2.44398,4.03199 -2.93271,4.15416 -0.48874,0.12219 -2.19873,2.07706 -1.83218,4.15417 0.36654,2.07711 2.68746,5.49866 1.83218,8.55323 -0.85529,3.05458 -4.15441,-0.12299 -6.3537,-0.36735 -2.1993,-0.24437 -5.49842,-1.46671 -6.35371,-2.32199 -0.85528,-0.85528 -0.24401,-4.15395 0.85563,-6.84197 1.09965,-2.68803 -1.46635,-4.39754 -1.46635,-4.39754 l -4.76489,-3.05516 z"
       id="path4136" />
    <path
       style="opacity:1;fill:#000000;fill-opacity:1;stroke:#000000;stroke-width:8;stroke-linecap:round;stroke-linejoin:round;stroke-miterlimit:4;stroke-dasharray:none;stroke-opacity:1"
       d="M 52.398438 9.7265625 C 52.398438 9.7265625 52.398888 16.199826 51.910156 17.666016 C 51.421424 19.132216 48.978516 22.556381 48.978516 23.900391 C 48.978516 24.540847 49.029383 25.487774 48.902344 26.460938 C 48.901826 26.4649 48.900914 26.468692 48.900391 26.472656 C 48.872806 26.681314 48.829716 26.891352 48.783203 27.099609 C 48.768672 27.16419 48.758862 27.228765 48.742188 27.292969 C 48.693368 27.482381 48.624472 27.666292 48.554688 27.849609 C 48.527783 27.919829 48.510826 27.993597 48.480469 28.0625 C 48.47266 28.080321 48.45922 28.095558 48.451172 28.113281 C 48.219948 28.065532 48.012017 28.052734 47.878906 28.052734 C 47.390174 28.052734 46.166916 28.175332 45.189453 28.664062 C 44.32135 29.098112 43.12086 30.728965 42.765625 31.443359 C 42.718173 31.42248 42.673278 31.40856 42.625 31.384766 C 42.502255 31.324269 42.374449 31.248222 42.246094 31.167969 C 42.216494 31.149462 42.188114 31.136788 42.158203 31.117188 C 42.002266 31.015002 41.842537 30.896933 41.677734 30.763672 C 41.667765 30.755606 41.65844 30.750372 41.648438 30.742188 C 38.960412 28.542897 40.424692 29.274187 40.546875 26.341797 C 40.669058 23.409407 37.127404 23.410039 36.638672 20.355469 C 36.14994 17.300899 39.570313 10.091797 39.570312 10.091797 C 39.570312 10.091797 37.249587 11.069226 36.638672 11.191406 C 36.027757 11.313596 33.338379 11.923599 31.75 12.167969 C 30.161622 12.412339 30.894531 18.523815 30.894531 20.234375 C 30.894531 21.944935 31.628455 23.777043 32.117188 26.220703 C 32.605919 28.664363 34.072039 35.261638 34.316406 37.460938 C 34.496427 39.081117 35.012498 39.510349 35.855469 40.208984 C 35.854749 40.209739 35.854235 40.210182 35.853516 40.210938 C 36.154188 40.460127 36.495917 40.742013 36.880859 41.126953 C 36.925925 41.172019 36.960063 41.216669 37.003906 41.261719 C 36.854557 41.359259 36.697979 41.448551 36.515625 41.494141 C 35.538161 41.738511 35.04819 43.082439 34.681641 43.693359 C 34.315092 44.304259 33.09375 47.113281 33.09375 47.113281 L 33.173828 47.335938 C 32.987452 47.144778 32.76848 46.911054 32.605469 46.748047 C 32.445991 46.588567 32.300503 46.420936 32.144531 46.259766 C 30.38887 44.445465 28.860485 42.52633 27.962891 40.394531 C 26.985427 38.073061 27.229191 36.605948 26.496094 35.017578 C 25.762995 33.429188 25.76431 28.785865 26.130859 26.953125 C 26.497407 25.120375 25.152344 21.089844 25.152344 21.089844 L 22.097656 26.708984 C 22.097656 26.708984 21.119366 30.495375 20.875 32.328125 C 20.630634 34.160865 20.998459 36.237971 21.609375 38.681641 C 22.22029 41.125301 23.930289 43.44825 25.396484 46.625 C 26.86268 49.80177 26.985014 52.123353 27.351562 56.033203 C 27.718111 59.943053 27.351562 62.507701 27.351562 65.806641 C 27.351562 69.105611 27.963078 71.30638 28.818359 73.75 C 28.974505 74.19614 29.41264 75.090462 29.945312 76.132812 A 34.822153 34.822153 0 0 0 37.550781 90.044922 C 37.610651 90.159402 37.839806 90.565658 37.859375 90.611328 L 38.074219 90.642578 A 34.822153 34.822153 0 0 0 63.517578 101.73047 A 34.822153 34.822153 0 0 0 90.710938 88.603516 C 91.57225 88.326376 92.438435 88.055551 93.330078 87.800781 C 96.751203 86.823281 96.385144 84.990556 98.095703 81.447266 C 99.806262 77.903976 99.928374 79.247888 100.29492 78.392578 C 100.66147 77.537338 98.461872 71.428881 102.73828 70.207031 C 107.01468 68.985251 103.34919 66.907866 102.73828 64.097656 C 102.12737 61.287446 106.64968 54.077599 108.48242 50.412109 C 110.31517 46.746619 105.79256 32.817375 105.18164 29.640625 C 104.57073 26.463865 98.583984 19.255859 98.583984 19.255859 C 98.583984 19.255859 102.12764 30.985349 101.39453 34.162109 C 100.69567 37.190559 98.354749 41.056228 96.865234 43.214844 C 96.865214 43.215461 96.865255 43.216179 96.865234 43.216797 C 96.792314 43.322613 96.699146 43.473584 96.630859 43.570312 C 95.640644 44.973115 94.100855 45.712811 92.636719 46.494141 C 92.595074 46.376829 92.54428 46.258643 92.474609 46.136719 C 91.985877 45.281439 92.107651 44.303402 91.863281 43.570312 C 91.635207 42.886076 88.843099 42.224892 88.458984 42.136719 C 88.762102 41.541085 89.100573 40.916689 89.46875 40.269531 C 89.715318 39.837982 89.963106 39.407722 90.240234 38.953125 C 90.244677 38.945837 90.247502 38.938935 90.251953 38.931641 C 90.637087 38.300497 91.043446 37.65456 91.498047 36.972656 C 94.674803 32.207516 94.185317 28.053443 94.429688 26.220703 C 94.674049 24.387963 92.71856 19.256767 91.863281 18.279297 C 91.007993 17.301807 88.076172 19.623047 88.076172 19.623047 L 88.076172 25.609375 C 88.076172 26.586845 86.487643 28.296794 86.121094 30.496094 C 85.961985 31.450741 85.480562 32.8871 84.816406 34.277344 C 84.774731 34.364581 84.726671 34.448413 84.683594 34.535156 C 84.560972 34.782119 84.439512 35.030616 84.306641 35.269531 C 84.304108 35.274084 84.301364 35.278654 84.298828 35.283203 C 84.22354 35.418194 84.140667 35.541012 84.0625 35.671875 C 83.952572 35.856037 83.845401 36.045348 83.730469 36.21875 C 83.729205 36.220657 83.727827 36.222704 83.726562 36.224609 C 83.682773 36.290531 83.634277 36.344151 83.589844 36.408203 C 83.494242 36.546142 83.397092 36.676629 83.298828 36.804688 C 83.054576 36.204861 82.599609 36.117188 82.599609 36.117188 C 82.208693 35.92173 81.827316 35.88758 81.515625 35.898438 C 81.886648 34.993122 82.257756 34.095193 82.210938 33.673828 C 82.088754 32.574178 81.721791 30.741591 81.599609 29.275391 C 81.477425 27.809201 77.936637 20.843862 77.814453 17.544922 C 77.692271 14.245972 77.814453 13.757843 77.814453 12.658203 C 77.814453 11.558553 73.414062 9.8476562 73.414062 9.8476562 C 73.414062 9.8476562 70.971155 13.879783 70.482422 14.001953 C 69.993691 14.124143 68.283842 16.07914 68.650391 18.15625 C 68.798335 18.994603 69.26358 20.082236 69.710938 21.246094 C 69.843475 21.590153 69.973399 21.932109 70.09375 22.291016 C 70.172709 22.528004 70.245127 22.768094 70.3125 23.009766 C 70.343118 23.118833 70.372893 23.228117 70.400391 23.337891 C 70.485357 23.679624 70.559629 24.023588 70.605469 24.369141 C 70.605819 24.371784 70.607074 24.37431 70.607422 24.376953 C 70.637734 24.606158 70.654299 24.836967 70.662109 25.066406 C 70.664224 25.12837 70.661813 25.190054 70.662109 25.251953 C 70.662908 25.428867 70.656024 25.605039 70.640625 25.78125 C 70.63383 25.85954 70.627436 25.937609 70.617188 26.015625 C 70.586492 26.248111 70.54673 26.479311 70.482422 26.708984 C 70.428967 26.899896 70.364651 27.066477 70.292969 27.210938 C 70.221286 27.355398 70.140914 27.477594 70.052734 27.580078 C 70.039584 27.595362 70.023261 27.60278 70.009766 27.617188 C 69.81197 27.17075 69.445765 26.831611 69.138672 26.585938 C 68.527758 26.097207 67.671913 25.852868 66.572266 25.486328 C 65.472618 25.119768 64.250263 24.388483 62.90625 23.533203 C 61.562236 22.677923 57.896484 24.021484 57.896484 24.021484 L 57.984375 24.183594 C 57.914731 24.128937 57.827617 24.071757 57.775391 24.019531 C 57.72414 23.968281 57.677648 23.907984 57.636719 23.839844 C 57.617187 23.806891 57.601149 23.767158 57.583984 23.730469 C 57.566289 23.693258 57.54854 23.658073 57.533203 23.617188 C 57.496612 23.517692 57.478188 23.391128 57.455078 23.271484 C 57.439591 23.194284 57.418315 23.12588 57.408203 23.041016 C 57.386524 22.847681 57.378827 22.63352 57.382812 22.40625 C 57.383092 22.385283 57.380367 22.366931 57.380859 22.345703 C 57.387681 22.093848 57.409451 21.825309 57.443359 21.542969 C 57.601901 20.222267 58.041978 18.617219 58.630859 17.177734 C 59.730506 14.489704 57.164062 12.78125 57.164062 12.78125 L 52.398438 9.7265625 z "
       transform="translate(0,796.36216)"
       id="path4845" />
    <path
       style="opacity:1;fill:none;fill-opacity:1;stroke:#000000;stroke-width:2;stroke-linecap:round;stroke-linejoin:round;stroke-miterlimit:4;stroke-dasharray:none;stroke-opacity:1"
       d="M 180.24219 137.88281 C 180.24219 137.88651 180.2425 144.35649 179.75391 145.82227 C 179.26518 147.28847 176.82227 150.71068 176.82227 152.05469 C 176.82227 152.69853 176.8738 153.65226 176.74414 154.63086 C 176.714 154.85844 176.66817 155.08766 176.61523 155.31445 C 176.60576 155.35474 176.60017 155.39542 176.58984 155.43555 C 176.53762 155.6402 176.46541 155.83964 176.38867 156.03711 C 176.36549 156.09637 176.34988 156.15849 176.32422 156.2168 C 176.31618 156.23516 176.30321 156.25127 176.29492 156.26953 C 176.06355 156.22171 175.85584 156.20898 175.72266 156.20898 C 175.23393 156.20898 174.01263 156.33158 173.03516 156.82031 C 172.16706 157.25436 170.96461 158.88521 170.60938 159.59961 C 170.5621 159.5788 170.51684 159.56472 170.46875 159.54102 C 170.31944 159.46743 170.16744 159.38038 170.00977 159.27734 C 169.89179 159.20025 169.76754 159.10449 169.64453 159.00977 C 169.60314 158.97789 169.56347 158.95387 169.52148 158.91992 C 169.51122 158.91162 169.50249 158.90492 169.49219 158.89648 C 166.80416 156.69719 168.26844 157.43044 168.39062 154.49805 C 168.51281 151.56566 164.97115 151.56629 164.48242 148.51172 C 163.99369 145.45715 167.41406 138.24805 167.41406 138.24805 C 167.41406 138.24805 165.09334 139.22548 164.48242 139.34766 C 163.87151 139.46985 161.18213 140.07985 159.59375 140.32422 C 158.00537 140.56859 158.73828 146.67811 158.73828 148.38867 C 158.73828 150.09923 159.47221 151.93134 159.96094 154.375 C 160.44967 156.81866 161.91579 163.41789 162.16016 165.61719 C 162.34026 167.23816 162.85747 167.66599 163.70117 168.36523 C 163.70045 168.36599 163.69994 168.36643 163.69922 168.36719 C 163.99989 168.61638 164.33967 168.89826 164.72461 169.2832 C 164.76968 169.32827 164.80381 169.37292 164.84766 169.41797 C 164.69831 169.51551 164.54173 169.60285 164.35938 169.64844 C 163.38191 169.89281 162.89389 171.23674 162.52734 171.84766 C 162.16079 172.45857 160.9375 175.26953 160.9375 175.26953 L 161.01758 175.49023 C 160.83177 175.29967 160.61373 175.06685 160.45117 174.9043 C 160.29203 174.74515 160.14584 174.57882 159.99023 174.41797 C 158.23402 172.60328 156.70445 170.68115 155.80664 168.54883 C 154.82917 166.22736 155.07294 164.7622 154.33984 163.17383 C 153.60674 161.58544 153.60806 156.94212 153.97461 155.10938 C 154.34115 153.27662 152.99609 149.24609 152.99609 149.24609 L 149.94141 154.86523 C 149.94141 154.86523 148.96311 158.65162 148.71875 160.48438 C 148.47438 162.31711 148.84222 164.39422 149.45312 166.83789 C 150.06404 169.28155 151.77403 171.6045 153.24023 174.78125 C 154.70642 177.95802 154.82876 180.27765 155.19531 184.1875 C 155.56186 188.09735 155.19531 190.66395 155.19531 193.96289 C 155.19531 197.26186 155.80683 199.46263 156.66211 201.90625 C 156.81826 202.35239 157.25639 203.2467 157.78906 204.28906 A 34.822153 34.822153 0 0 0 165.39453 218.20117 C 165.45443 218.31567 165.68356 218.72198 165.70312 218.76758 L 165.91992 218.79883 A 34.822153 34.822153 0 0 0 191.36133 229.88672 A 34.822153 34.822153 0 0 0 218.55469 216.75977 C 219.416 216.48257 220.28219 216.21183 221.17383 215.95703 C 224.59496 214.97953 224.2289 213.14682 225.93945 209.60352 C 227.65001 206.06022 227.77212 207.40423 228.13867 206.54883 C 228.50523 205.69363 226.30562 199.58513 230.58203 198.36328 C 234.85843 197.1415 231.19295 195.06412 230.58203 192.25391 C 229.97112 189.4437 234.49342 182.23385 236.32617 178.56836 C 238.15891 174.90287 233.6363 160.97363 233.02539 157.79688 C 232.41447 154.62012 226.42773 147.41211 226.42773 147.41211 C 226.42773 147.41211 229.97138 159.1416 229.23828 162.31836 C 228.53941 165.34681 226.1985 169.21248 224.70898 171.37109 C 224.70896 171.37171 224.70901 171.37243 224.70898 171.37305 C 224.6361 171.47886 224.5429 171.62983 224.47461 171.72656 C 224.18788 172.13276 223.85449 172.48309 223.49023 172.79492 C 223.12597 173.10676 222.72934 173.37894 222.31836 173.63086 C 221.72086 173.99711 221.09682 174.32147 220.48047 174.65039 C 220.43883 174.5331 220.38801 174.41486 220.31836 174.29297 C 219.82963 173.43769 219.95335 172.45965 219.70898 171.72656 C 219.48096 171.04248 216.68792 170.38335 216.30273 170.29492 C 216.60044 169.70987 216.93453 169.09566 217.29492 168.46094 C 217.54741 168.01824 217.79926 167.57445 218.08398 167.10742 C 218.08812 167.10063 218.09156 167.09468 218.0957 167.08789 C 218.48084 166.45675 218.8872 165.81081 219.3418 165.12891 C 222.51856 160.36377 222.03102 156.20969 222.27539 154.37695 C 222.51975 152.54421 220.56231 147.41302 219.70703 146.43555 C 218.85174 145.45806 215.91992 147.7793 215.91992 147.7793 L 215.91992 153.76562 C 215.91992 154.7431 214.33335 156.45304 213.9668 158.65234 C 213.80769 159.60699 213.32431 161.04335 212.66016 162.43359 C 212.63204 162.49245 212.59907 162.54877 212.57031 162.60742 C 212.43308 162.88731 212.29302 163.16558 212.14258 163.43555 C 212.1423 163.43605 212.14286 163.437 212.14258 163.4375 C 212.13055 163.45907 212.11757 163.47852 212.10547 163.5 C 211.93524 163.80217 211.75783 164.09798 211.57422 164.375 C 211.57296 164.3769 211.57158 164.37896 211.57031 164.38086 C 211.43213 164.58887 211.28669 164.77528 211.14258 164.96289 C 210.8985 164.36155 210.44336 164.27344 210.44336 164.27344 C 210.05245 164.07798 209.67107 164.04383 209.35938 164.05469 C 209.7304 163.14937 210.10151 162.25144 210.05469 161.83008 C 209.93251 160.73043 209.56749 158.89784 209.44531 157.43164 C 209.32312 155.96545 205.78038 149.00011 205.6582 145.70117 C 205.53601 142.40222 205.6582 141.91409 205.6582 140.81445 C 205.6582 139.7148 201.25781 138.00391 201.25781 138.00391 C 201.25781 138.00391 198.8149 142.03603 198.32617 142.1582 C 197.83743 142.28039 196.12759 144.23539 196.49414 146.3125 C 196.64208 147.15085 197.10733 148.23849 197.55469 149.40234 C 197.68723 149.7464 197.81715 150.08836 197.9375 150.44727 C 198.01801 150.68892 198.09369 150.93318 198.16211 151.17969 C 198.18948 151.27761 198.21537 151.37611 198.24023 151.47461 C 198.32743 151.8227 198.40251 152.17329 198.44922 152.52539 C 198.44957 152.52803 198.45082 152.53056 198.45117 152.5332 C 198.48054 152.75527 198.49755 152.97887 198.50586 153.20117 C 198.50889 153.28206 198.50789 153.36258 198.50781 153.44336 C 198.50761 153.61113 198.49922 153.77819 198.48438 153.94531 C 198.47816 154.01574 198.47385 154.08605 198.46484 154.15625 C 198.43418 154.39408 198.39194 154.63033 198.32617 154.86523 C 198.21129 155.27553 198.04995 155.56581 197.85547 155.77344 C 197.65768 155.32696 197.28953 154.98787 196.98242 154.74219 C 196.3715 154.25345 195.51566 154.00913 194.41602 153.64258 C 193.31637 153.27603 192.09401 152.54278 190.75 151.6875 C 189.40598 150.83223 185.74219 152.17773 185.74219 152.17773 L 185.83008 152.3418 C 185.75954 152.28655 185.67191 152.22855 185.61914 152.17578 C 185.56894 152.12558 185.52244 152.06671 185.48242 152 C 185.44712 151.94115 185.41835 151.87542 185.39062 151.80469 C 185.38739 151.79643 185.38399 151.78966 185.38086 151.78125 C 185.33959 151.67054 185.31742 151.53032 185.29297 151.39453 C 185.28037 151.32742 185.26062 151.26997 185.25195 151.19727 C 185.22861 150.98906 185.22027 150.7609 185.22656 150.51367 C 185.23306 150.25868 185.25271 149.98566 185.28711 149.69922 C 185.44565 148.37852 185.88573 146.77347 186.47461 145.33398 C 187.57426 142.64595 185.00781 140.9375 185.00781 140.9375 L 180.24219 137.88281 z "
       transform="translate(0,796.36216)"
       id="path4863" />
    <path
       style="opacity:1;fill:#000000;fill-opacity:0.50196081;stroke:none;stroke-width:2;stroke-linecap:round;stroke-linejoin:round;stroke-miterlimit:4;stroke-dasharray:none;stroke-opacity:1"
       d="M 105.08203 161.12695 C 104.9538 163.72075 104.47028 173.31495 104.17969 174.08984 C 103.84897 174.97179 103.07834 176.51411 102.30664 177.94727 C 101.53494 179.38044 99.549263 183.12912 98.998047 184.3418 C 98.446831 185.55447 97.455514 187.53906 95.912109 189.52344 C 94.368704 191.50782 93.927734 191.39669 93.927734 193.60156 C 93.927734 195.80642 94.478082 196.4681 94.037109 197.79102 C 93.596137 199.11394 93.926651 200.21701 92.824219 201.42969 C 91.721787 202.64236 89.847875 203.96513 89.076172 205.17773 C 88.30447 206.39043 86.871529 209.14627 86.320312 209.91797 C 85.769097 210.68967 82.571834 214.43749 81.138672 215.42969 C 79.70551 216.42179 73.862002 224.47072 56.664062 223.47852 C 47.224912 222.93394 40.62681 220.36462 36.578125 218.15625 A 34.822153 34.822153 0 0 0 36.615234 218.20117 C 36.675104 218.31567 36.904259 218.72198 36.923828 218.76758 L 37.140625 218.79883 A 34.822153 34.822153 0 0 0 62.582031 229.88672 A 34.822153 34.822153 0 0 0 89.775391 216.75977 C 90.636704 216.48257 91.502888 216.21183 92.394531 215.95703 C 95.815656 214.97953 95.449597 213.14682 97.160156 209.60352 C 98.870715 206.06022 98.992828 207.40423 99.359375 206.54883 C 99.72593 205.69363 97.526335 199.58513 101.80273 198.36328 C 106.07914 197.1415 102.41365 195.06412 101.80273 192.25391 C 101.19182 189.4437 105.71413 182.23385 107.54688 178.56836 C 108.99161 175.67888 106.50649 166.47754 105.08203 161.12695 z "
       transform="translate(0,796.36216)"
       id="path4881" />
    <path
       inkscape:connector-curvature="0"
       style="fill:#300000;fill-opacity:1;fill-rule:evenodd;stroke:none;stroke-width:1px;stroke-linecap:butt;stroke-linejoin:miter;stroke-opacity:1"
       d="m 183.88714,831.18619 c 0.1961,-0.2089 -8.26352,1.46289 -9.08204,1.46289 -0.93544,0 -3.74033,1.87047 -4.67578,5.14453 -0.93544,3.27406 -1.87109,2.80778 -1.87109,4.21094 0,1.40317 -3.4314,2.49297 -4.21094,3.74023 -0.77953,1.24726 -1.40234,4.36623 -1.40234,7.48438 0,3.11814 1.24805,2.02734 1.24805,2.02734 0,0 -2.49459,7.63888 -3.58594,9.50977 -1.09135,1.87088 1.40244,4.05259 2.33789,5.76757 0.93544,1.71502 0.93555,5.76878 0.93555,7.17188 0,1.4032 2.02641,4.05508 2.49414,5.14648 0.46772,1.0913 4.20953,1.0911 6.23632,0.7793 2.0268,-0.3118 4.2093,1.87108 7.01563,4.52148 2.80633,2.6504 0.31168,1.09109 1.71484,3.42969 1.40317,2.3386 8.88672,2.80664 8.88672,2.80664 0,0 -2.96231,-1.71589 -3.58594,-2.18359 -0.62363,-0.4677 -2.33696,-3.11829 -2.80468,-4.52149 -0.46773,-1.4032 -0.93692,-2.33898 -1.56055,-3.74218 -0.62363,-1.4031 -4.98907,-5.30048 -6.23633,-6.08008 -1.24726,-0.7795 -2.49438,-2.49329 -1.71484,-3.89649 0.77954,-1.4031 -2.33868,-5.61303 -3.58594,-6.39257 -1.24726,-0.77954 -0.46806,-5.92404 -0.15625,-7.79493 0.17305,-1.03833 0.15542,-3.19289 0.13086,-5.15039 1.31741,-0.8089 2.73512,-1.69395 3.14453,-2.02148 0.77954,-0.62363 1.09015,-0.62417 3.89649,-2.02734 2.80633,-1.40317 2.18311,-3.58625 3.74218,-6.39258 1.55908,-2.80634 1.71574,-1.24619 3.89844,-2.18164 2.1827,-0.93544 3.74078,-1.0919 5.76758,-2.02735 2.0268,-0.93544 2.33994,-0.46865 3.27539,0.4668 0.93544,0.93544 4.67622,1.71518 5.76758,1.87109 1.09135,0.1559 -1.0918,-3.27343 -1.0918,-3.27343 0,0 -2.49308,-3.58604 -4.67578,-4.52149 -2.18271,-0.93544 -2.65173,-0.62341 -5.92578,1.8711 -3.27406,2.49452 -5.92393,2.18233 -6.85938,2.49414 -0.79746,0.26582 -2.41823,1.66748 -7.21679,3.33007 0.38117,-1.69751 0.57874,-3.28566 0.66796,-3.64257 0.15591,-0.62363 4.98996,-6.23644 8.41993,-7.17188 0.42874,-0.11693 0.63409,-0.185 0.66211,-0.21484 z"
       id="path4149" />
    <path
       inkscape:connector-curvature="0"
       style="fill:#300000;fill-opacity:1;fill-rule:evenodd;stroke:none;stroke-width:1px;stroke-linecap:butt;stroke-linejoin:miter;stroke-opacity:1"
       d="m 200.51018,832.26041 c -0.52618,0.0779 -0.52467,1.01339 1.58008,4.44336 4.2095,6.85993 5.61112,12.62818 3.74024,14.96679 -1.8709,2.33861 -1.71495,2.80651 -2.6504,4.52149 -0.93544,1.71498 -0.62236,6.39141 -0.31054,7.63867 0.31181,1.24726 2.02621,2.33854 0.62304,5.30078 -0.0727,0.15342 -0.13468,0.32395 -0.20312,0.48438 -1.37608,-0.5387 -3.28257,-1.61399 -3.53906,-2.51172 -0.31182,-1.09135 -2.02663,-3.27272 -4.36524,-5.61133 -2.33861,-2.33861 -3.74218,-5.30078 -3.74218,-5.30078 0,0 -1.55918,0.77929 -0.93555,0.77929 0.62363,0 1.71563,3.74137 2.96289,5.14454 1.24726,1.40317 1.4043,3.27457 1.4043,4.67773 0,1.40317 0.62314,2.80479 1.55859,3.74023 0.93544,0.93542 2.64991,1.87124 4.20898,2.80664 0.38141,0.22886 0.77249,0.55463 1.1543,0.94727 -0.25416,1.66495 -0.29037,3.21176 -0.0625,4.19922 0.46772,2.0268 1.55849,2.33843 0.62305,4.36523 -0.93545,2.0268 -2.80664,5.76758 -2.80664,5.76758 l -1.8711,2.33985 c 6.39221,-3.8977 7.32823,-4.83414 8.26368,-5.76954 0.93544,-0.9355 4.83398,-1.55983 4.83398,-3.89843 0,-2.3386 -3.43041,-4.51973 -1.0918,-6.39063 2.33861,-1.8709 4.36466,-2.80645 4.98828,-4.52148 0.62363,-1.71498 -1.55825,-4.2108 -1.40234,-5.92578 0.15591,-1.71498 2.49414,-3.42921 2.49414,-4.98829 0,-1.55907 1.87055,-0.93619 -0.15625,-3.89843 -2.0268,-2.96224 -4.8333,-4.36486 -4.52148,-6.85938 0.31181,-2.49452 2.49438,-4.2086 1.71484,-6.70312 -0.77954,-2.49452 -5.14453,-5.61328 -5.14453,-5.61328 0,0 -0.62257,-1.24746 -2.18164,-1.8711 -1.55908,-0.62362 -3.58594,-1.55859 -3.58594,-1.55859 0,0 -1.05389,-0.77913 -1.58008,-0.70117 z"
       id="path4151" />
    <path
       style="fill:#300000;fill-opacity:1;fill-rule:evenodd;stroke:none;stroke-width:1px;stroke-linecap:butt;stroke-linejoin:miter;stroke-opacity:1"
       d="m 177.61218,865.85752 c 3.74178,7.79534 5.61267,7.79534 7.32765,11.53714 1.71498,3.7418 1.55908,6.3922 3.42996,6.3922 1.8709,0 7.32766,3.5859 4.83314,-1.2472 -2.49452,-4.8332 -6.08039,-8.419 -6.2363,-11.3813 -0.15591,-2.96223 3.74178,-1.55906 -0.62363,-4.52131 -4.36541,-2.96224 -5.76858,-3.58587 -5.76858,-3.58587 l -3.11815,-2.1827"
       id="path4159"
       inkscape:connector-curvature="0" />
    <path
       style="fill:#300000;fill-opacity:1;fill-rule:evenodd;stroke:none;stroke-width:1px;stroke-linecap:butt;stroke-linejoin:miter;stroke-opacity:1"
       d="m 216.74495,880.66876 c 3.58587,-4.0536 0.77954,-4.0536 2.02679,-6.2363 1.24726,-2.1827 1.87089,-2.8064 2.18271,-4.20953 0.31181,-1.40317 -0.15591,-3.27406 1.40316,-4.67723 1.55908,-1.40316 2.80634,-2.80633 0.46773,-2.33861 -2.33861,0.46772 -3.74178,0.46772 -4.0536,2.18271 -0.31181,1.71498 -1.40316,4.98903 -1.71498,6.85996 -0.31181,1.8709 -0.31181,4.2095 -1.24726,5.1449 -0.93544,0.9355 -0.93544,1.8709 -0.93544,1.8709"
       id="path4161"
       inkscape:connector-curvature="0" />
    <path
       style="fill:#300000;fill-rule:evenodd;stroke:none;stroke-width:1px;stroke-linecap:butt;stroke-linejoin:miter;stroke-opacity:1;fill-opacity:1"
       d="M 176.80859 25.822266 C 176.73201 27.072291 176.4309 28.476641 175.35547 29.398438 C 173.66667 30.845982 172.21513 32.881066 169.5918 30.816406 C 169.57559 31.534812 169.55469 32.31831 169.55469 32.757812 C 169.55469 33.419273 170.21615 33.474613 171.04297 33.970703 C 171.86979 34.466793 172.25411 34.466358 172.9707 35.017578 C 173.68728 35.568798 173.79883 37.607422 173.79883 37.607422 L 180.41211 36.064453 C 180.41211 36.064453 180.13713 33.914501 180.08203 33.363281 C 180.02691 32.812071 179.64214 32.537757 179.20117 31.710938 C 178.76019 30.884108 178.97916 30.608718 179.64062 28.955078 C 180.30209 27.301428 178.53972 27.355904 177.71289 26.308594 C 177.40283 25.915845 177.10704 25.802245 176.81055 25.822266 C 176.80993 25.822307 176.80921 25.822223 176.80859 25.822266 z M 209.83203 32.916016 C 209.33852 32.944438 208.63541 33.337242 208.30469 33.419922 C 207.86372 33.530172 207.4783 34.741316 207.25781 35.347656 C 207.03732 35.953996 207.20269 36.064664 206.76172 37.277344 C 206.32074 38.490014 205.27344 39.041016 205.27344 39.041016 C 205.27344 39.041016 206.21007 43.396265 206.32031 43.671875 C 206.43056 43.947485 208.63433 45.98741 209.18555 46.59375 C 209.73676 47.20008 211.6122 49.073999 211.99805 49.349609 C 212.3839 49.625189 212.8789 49.515213 213.375 49.570312 C 213.87109 49.625433 213.92687 50.064889 214.03711 50.505859 C 214.14735 50.946829 215.13953 51.663841 216.02148 52.931641 C 216.90342 54.199441 217.34416 53.428379 217.28906 52.105469 C 217.23394 50.782549 217.89518 50.837241 218.55664 50.175781 C 219.2181 49.514301 219.10743 49.789714 220.09961 49.458984 C 221.0918 49.128254 221.31228 48.743059 222.08398 48.136719 C 222.85568 47.530379 222.19531 47.200086 222.19531 46.097656 C 222.19531 45.850699 222.18515 45.691514 222.16797 45.558594 C 221.38827 46.023391 220.56407 46.42631 219.78906 46.869141 A 34.822153 34.822153 0 0 0 216.13281 42.453125 C 216.52307 41.671042 216.97104 40.840182 217.47656 39.966797 C 217.16628 39.819243 216.86828 39.703125 216.68359 39.703125 C 216.18749 39.703125 215.3609 40.750223 214.91992 40.970703 C 214.47895 41.191193 214.20226 42.018227 213.81641 42.679688 C 213.43056 43.341147 213.15473 43.781686 212.60352 44.222656 C 212.0523 44.663626 211.39193 44.003037 210.73047 43.617188 C 210.06901 43.231337 211.00607 42.568575 211.22656 41.796875 C 211.44704 41.025165 211.72157 40.91493 212.10742 39.8125 C 212.49327 38.71007 211.99718 38.8763 212.10742 37.71875 C 212.21769 36.56119 212.10783 36.891486 212.05273 36.285156 C 212.0352 36.09232 211.93682 35.948287 211.82031 35.814453 C 211.3533 36.576095 210.84518 37.26118 210.31641 37.734375 A 34.822153 34.822153 0 0 0 208.95898 36.902344 C 209.37853 35.741484 210.11918 34.254218 210.05469 33.673828 C 210.03253 33.474381 209.97867 33.166925 209.94336 32.925781 C 209.90605 32.922924 209.87245 32.913687 209.83203 32.916016 z M 166.17773 38.097656 C 165.88835 38.076985 165.69575 38.242835 165.64062 38.65625 C 165.53038 39.48307 165.14366 40.088759 164.75781 40.474609 C 164.68082 40.551604 164.50542 40.660506 164.32617 40.769531 C 164.46203 40.891687 164.57623 40.978571 164.72461 41.126953 C 165.32069 41.723033 165.80939 42.318778 166.19531 42.898438 A 34.822153 34.822153 0 0 0 161.96484 48.316406 C 161.41863 47.732566 160.88596 47.182827 160.45117 46.748047 C 160.21468 46.511558 159.99608 46.265677 159.76758 46.025391 C 159.54068 46.509962 159.24609 46.858282 159.24609 47.144531 C 159.24609 47.585511 159.35612 47.805986 160.01758 49.128906 C 160.67904 50.451826 161.12065 51.829649 161.67188 52.380859 C 162.22308 52.932079 163.26931 53.539066 163.54492 54.035156 C 163.82053 54.531256 164.5931 55.633464 164.92383 55.302734 C 165.25456 54.972004 167.29471 53.813378 168.06641 52.710938 C 168.83812 51.608507 169.77496 49.459419 169.83008 48.412109 C 169.88518 47.364799 169.99545 46.482638 169.83008 45.710938 C 169.66472 44.939236 170.71162 44.333774 169.88477 43.121094 C 169.05794 41.908424 168.17666 41.355898 168.06641 40.804688 C 167.95617 40.253467 168.17687 39.31771 167.29492 38.65625 C 166.85395 38.32552 166.46712 38.118327 166.17773 38.097656 z "
       transform="translate(0,796.36216)"
       id="path4198" />
    <path
       style="fill:#d20000;fill-opacity:1;fill-rule:evenodd;stroke:none;stroke-width:1px;stroke-linecap:butt;stroke-linejoin:miter;stroke-opacity:1"
       d="m 187.20049,893.68696 c 0,0 -3.27406,-2.4945 -3.74178,-3.1181 -0.46772,-0.6236 -1.1693,-0.9355 -1.71498,-2.8843 -0.54568,-1.9488 -0.77954,-3.1182 -1.32521,-3.7418 -0.54568,-0.6236 -1.71498,-1.9488 -2.49452,-2.4945 -0.77954,-0.5457 -2.49452,-1.637 -3.11815,-2.2607 -0.62363,-0.6236 -1.87089,-1.559 -1.94884,-1.9488 -0.078,-0.3898 0.23386,-3.5079 -0.46773,-4.7552 -0.70158,-1.2472 -0.85749,-1.94882 -1.63702,-2.57245 -0.77954,-0.62363 -1.63703,-1.55907 -1.71499,-2.0268 -0.078,-0.46772 -1.09135,-2.1827 -1.09135,-3.1961 0,-1.0134 -0.31181,-5.30085 -0.31181,-5.30085 0,0 0.38977,-1.94884 0.85749,-3.27406 0.46772,-1.32521 1.1693,-3.27405 1.40316,-5.06699 0.23387,-1.79293 -0.70158,-1.79293 1.40317,-2.10475 2.10475,-0.31181 2.41657,0.078 3.74178,-0.77953 1.32521,-0.8575 1.63703,-0.70159 2.88429,-2.57248 1.24726,-1.87089 2.10475,-3.27405 2.10475,-3.27405 0,0 0.38977,-1.24726 3.04019,-1.63703 2.65043,-0.38977 3.0402,-0.0779 4.44337,-0.85749 1.40316,-0.77954 1.87088,-1.48112 3.04019,-1.71498 1.16931,-0.23386 0.0779,-1.24726 2.80633,-0.23386 2.72838,1.01339 4.2095,2.1827 4.2095,2.1827 l 0.38977,0.23386 c 0,0 -2.49452,-2.49452 -3.11815,-3.11815 -0.62363,-0.62363 -1.24726,-1.32521 -1.87089,-1.32521 -0.62363,0 -3.11814,0.77954 -3.66382,1.09135 -0.54568,0.31181 -3.74178,1.87089 -4.91108,2.41657 -1.16931,0.54567 -6.15835,2.57247 -6.54812,3.04019 -0.38977,0.46772 -0.23386,0.62363 -2.10475,2.1827 -1.87089,1.55908 -1.40316,2.18271 -2.33861,1.79294 -0.93544,-0.38977 -1.32521,-1.40317 -1.40317,-2.57247 -0.0779,-1.16931 -0.0779,-1.79294 0.31182,-2.57248 0.38977,-0.77953 0.62363,-2.41656 0.93545,-2.88428 0.31181,-0.46772 1.63702,-2.26066 2.1827,-2.65043 0.54567,-0.38977 2.65042,-2.65043 2.65042,-2.65043 0,0 -1.24725,-0.31181 -3.27405,1.55908 -2.0268,1.87089 -3.42996,4.13155 -3.50792,5.30085 -0.078,1.16931 -0.31181,3.11815 -1.24726,4.52132 -0.93544,1.40316 -1.48112,1.94884 -2.33861,2.80633 -0.85749,0.85749 -1.55907,1.55907 -1.94884,2.0268 -0.38977,0.46772 0.078,3.66382 0.38977,5.06699 0.31181,1.40317 -2.72838,6.00243 -2.72838,6.54811 0,0.54568 0.46772,0.23386 -0.15591,1.87089 -0.62363,1.63703 -2.0268,0.15591 -0.85749,2.10475 1.1693,1.94884 2.10475,4.13155 2.65043,5.45676 0.54567,1.32518 1.1693,3.97568 1.09135,5.92448 -0.0779,1.9488 -1.24726,1.7929 0.078,3.43 1.32521,1.637 0.85749,1.7929 2.65042,1.559 1.79294,-0.2338 2.18271,-0.9354 4.0536,0.1559 1.87089,1.0914 1.32521,1.5591 3.58587,2.4166 2.26065,0.8575 2.80633,1.4032 3.04019,1.8709 0.23386,0.4677 1.79294,3.2741 2.10475,4.2095 0.31182,0.9354 0.15591,1.1693 1.09135,1.9488 0.93545,0.7796 1.71499,1.0914 1.71499,1.0914"
       id="path4165"
       inkscape:connector-curvature="0" />
    <path
       style="fill:#d20000;fill-opacity:1;fill-rule:evenodd;stroke:none;stroke-width:1px;stroke-linecap:butt;stroke-linejoin:miter;stroke-opacity:1"
       d="m 191.75419,883.25886 c 0,0 -1.32292,-1.7088 -2.20486,-2.9215 -0.88195,-1.2126 -2.64584,-3.5829 -2.75608,-4.8507 -0.11025,-1.2678 -0.99219,-2.9214 -1.37804,-3.9687 -0.38586,-1.04734 0.0551,-2.31513 -0.93707,-3.36244 -0.99219,-1.04731 -2.0395,-1.98438 -2.37023,-2.20487 -0.33073,-0.22048 -2.97657,-2.09462 -2.97657,-2.09462 0,0 0.60634,1.81901 1.7639,3.3073 1.15755,1.48828 1.92925,2.53559 1.98437,3.25217 0.0551,0.71656 0.0551,1.59856 0.4961,2.25996 0.44097,0.6615 4.24436,7.7171 4.24436,7.7171"
       id="path4175"
       inkscape:connector-curvature="0" />
    <path
       style="fill:#d20000;fill-opacity:1;fill-rule:evenodd;stroke:none;stroke-width:1px;stroke-linecap:butt;stroke-linejoin:miter;stroke-opacity:1"
       d="m 201.62096,888.10956 c 0,0 1.92925,-1.6537 2.48047,-2.5356 0.55121,-0.882 1.43316,-2.5356 2.14974,-2.8663 0.71658,-0.3308 1.70877,-0.1103 1.37804,-1.2678 -0.33073,-1.1576 -0.60634,-2.7561 -0.60634,-3.5829 0,-0.8269 0.66146,-2.9215 1.32292,-4.0239 0.66146,-1.1025 1.04731,-1.3781 1.81902,-2.26 0.7717,-0.88195 1.26779,-3.3073 1.26779,-4.35461 0,-1.04731 0.11025,-6.00825 0.82683,-7.11069 0.71658,-1.10243 -0.22049,-4.57509 -0.66146,-4.90582 -0.44098,-0.33073 -0.77171,-1.98438 -0.77171,-2.48047 0,-0.4961 -0.88194,-6.1185 -0.60633,-7.05557 0.2756,-0.93706 0.66146,-1.65364 0.82682,-2.42535 0.16537,-0.7717 -0.22049,-1.65364 -1.10243,-2.37023 -0.88195,-0.71658 -3.69315,-2.92144 -3.91363,-3.25217 -0.22049,-0.33073 -2.31511,-1.98438 -2.64584,-2.42535 -0.33073,-0.44097 -0.33073,-0.82682 -0.33073,-0.44097 0,0.38585 1.98438,3.91363 2.97657,5.23655 0.99218,1.32292 1.26779,1.2678 1.65364,2.8112 0.38585,1.54341 0.82683,4.40973 0.88195,5.07119 0.0551,0.66146 0.49609,2.25998 0.0551,3.69315 -0.44097,1.43316 -1.10243,2.42535 -1.76389,3.74826 -0.66146,1.32292 -0.33073,0.77171 -0.82683,3.03169 -0.49609,2.25999 -0.38585,3.5829 -0.16536,4.90582 0.22048,1.32292 0.38585,2.81121 0.38585,3.03169 0,0.22049 -0.7717,1.70877 -0.49609,3.19706 0.2756,1.48828 0.60633,1.87412 -0.33073,1.87412 -0.93707,0 -2.09463,0 -2.5356,-0.1102 -0.44097,-0.1103 -2.75608,-0.44101 -3.14193,-1.21271 -0.38585,-0.7717 -1.15755,-1.59853 -1.48828,-2.25999 -0.33073,-0.66145 -1.43316,-1.98437 -1.76389,-2.64583 -0.33073,-0.66146 -2.5356,-4.35461 -2.5356,-4.35461 0,0 3.41754,7.49654 3.63803,7.82727 0.22048,0.33073 0.11024,0.49609 0.49609,0.93707 0.38585,0.44097 1.81902,1.7639 2.31511,1.9293 0.49609,0.1653 2.37023,1.3229 2.86632,1.4882 0.4961,0.1654 1.04731,1.323 1.04731,1.323 0,0 -0.11024,1.0473 -0.22048,2.2048 -0.11025,1.1576 0.22048,1.9293 0.33073,2.4805 0.11024,0.5512 0.2756,0.9922 0.11024,1.9292 -0.16536,0.9371 -1.10243,3.2522 -1.10243,3.2522"
       id="path4177"
       inkscape:connector-curvature="0" />
    <path
       style="fill:#d20000;fill-opacity:1;fill-rule:evenodd;stroke:none;stroke-width:1px;stroke-linecap:butt;stroke-linejoin:miter;stroke-opacity:1"
       d="m 216.66915,878.79396 c 0,0 0.71658,-0.8268 0.82683,-1.2678 0.11024,-0.4409 0.11024,-1.1024 0.11024,-1.5434 0,-0.4409 0.38585,-1.7639 0.55122,-2.26 0.16536,-0.4961 0.93706,-1.7087 1.04731,-2.5907 0.11024,-0.88192 0.11024,-1.3229 0.38585,-2.14972 0.27561,-0.82682 0.66146,-2.8112 0.93707,-2.97657 0.2756,-0.16536 0.60633,-0.2756 1.10243,-0.71658 0.49609,-0.44097 1.48828,-1.04731 1.26779,-1.10243 -0.22048,-0.0551 -2.0395,0.11024 -2.20486,0.38585 -0.16536,0.27561 -1.2678,0.77171 -1.32292,1.43316 -0.0551,0.66146 -0.38585,2.86633 -0.49609,3.36242 -0.11025,0.4961 -0.71658,2.14977 -0.77171,2.53557 -0.0551,0.3859 -1.43316,6.1736 -1.43316,6.1736 z"
       id="path4179"
       inkscape:connector-curvature="0" />
    <path
       style="fill:#d20000;fill-opacity:1;fill-rule:evenodd;stroke:none;stroke-width:1px;stroke-linecap:butt;stroke-linejoin:miter;stroke-opacity:1"
       d="m 161.17003,844.15956 c 0.44097,-0.22049 0.23567,-1.08175 1.04339,-2.36077 0.55689,-0.88184 1.27725,-1.65479 1.82847,-2.31626 0.55121,-0.66145 1.10243,-1.21267 1.10243,-1.21267 0,0 0.53784,-0.99219 1.08906,-0.11024 0.61262,2.22724 0.0168,2.26954 0.67483,4.18924 0.88194,1.5434 1.87413,4.96094 1.87413,4.96094 0,0 -0.66146,1.87414 -0.55121,3.08681 0.11024,1.21268 0.22048,2.86633 0.22048,2.86633 l -2.20486,-2.42536 c 0,0 -0.33073,-0.11024 -0.55122,-0.88194 -0.22048,-0.7717 -1.5434,-1.76389 -2.09462,-2.42535 -0.55121,-0.66146 -0.92761,-1.71154 -0.92761,-1.93203 0,-0.22048 -1.50327,-1.4387 -1.50327,-1.4387 z"
       id="path4192"
       inkscape:connector-curvature="0"
       sodipodi:nodetypes="cssccccscccssc" />
    <path
       style="fill:#d20000;fill-opacity:1;fill-rule:evenodd;stroke:none;stroke-width:1px;stroke-linecap:butt;stroke-linejoin:miter;stroke-opacity:1"
       d="m 174.90084,836.23036 c 0,0 2.20487,-1.98438 2.64584,-2.25999 0.44097,-0.2756 1.5434,-1.76389 1.37804,-2.48047 -0.16537,-0.71658 -0.82683,-1.32291 -1.04731,-1.76389 -0.22049,-0.44097 -0.0551,-1.87413 -0.27561,-2.64583 -0.22049,-0.77171 -0.55122,-2.31511 -1.04731,-2.59072 -0.4961,-0.27561 -1.48828,-0.38585 -1.81901,-0.38585 -0.33073,0 -0.88195,0.33073 -1.48829,0.66146 -0.60633,0.33073 -1.65364,0.88194 -1.92925,1.10243 -0.27561,0.22049 -0.55122,1.26779 -0.60634,1.70877 -0.0551,0.44097 0.44097,0.60634 1.10243,1.10243 0.66146,0.4961 1.2678,0.88195 1.70877,1.21268 0.44097,0.33073 1.04731,1.04731 1.43316,1.26779 0.38585,0.22049 0.88195,0.93707 0.82683,1.37804 -0.0551,0.44098 -0.88195,1.59853 -1.10244,2.14975 -0.22048,0.55121 -1.04731,1.76389 -1.04731,1.76389 z"
       id="path4194"
       inkscape:connector-curvature="0"
       sodipodi:nodetypes="cccccsssscssccscc" />
    <path
       style="fill:#d20000;fill-opacity:1;fill-rule:evenodd;stroke:none;stroke-width:1px;stroke-linecap:butt;stroke-linejoin:miter;stroke-opacity:1"
       d="m 208.99391,832.92245 c 0,0 0.85749,-0.31182 1.24726,0 0.38977,0.31181 0.54568,0.31181 0.54568,0.77954 0,0.46772 -0.54568,0.85749 -0.62363,1.1693 -0.0779,0.31182 0,1.16931 0,1.63703 0,0.46772 0.078,0.54568 0,1.71498 -0.0779,1.16931 -0.62363,2.26066 -0.46772,2.88429 0.1559,0.62363 0.60552,0.88032 1.1512,0.80237 0.54567,-0.0779 2.7654,-0.51176 3.38903,-0.66767 0.62363,-0.15591 0.99448,-0.99219 1.54016,-1.45991 0.54567,-0.46773 0.1834,-0.91048 0.49447,-0.88897 1.71499,-0.003 2.0525,0.88035 2.68271,1.43383 0.46773,0.77954 1.45437,2.16623 1.14256,2.55599 -0.31182,0.38977 -0.17874,0.29763 -0.56851,0.6874 -0.38977,0.38977 -1.10081,0.10943 -1.72444,0.88897 -0.62363,0.77954 -0.53148,1.49531 -1.38897,1.3394 -0.8575,-0.15591 -0.50948,-1.40871 -2.38037,-1.48666 -1.87088,-0.0779 -2.57719,0.005 -3.35673,0.23858 -0.77954,0.23386 -1.60474,0.14259 -1.76065,-0.32518 -0.15591,-0.46773 -0.15591,-0.70159 -0.38977,-1.63703 -0.23386,-0.93544 -0.078,-1.24726 -0.85749,-2.33861 -0.77954,-1.09135 -1.71498,-1.79294 -1.71498,-1.79294 0,0 0.38977,-0.38977 0.93544,-0.54567 0.54568,-0.15591 1.48112,-0.31182 1.48112,-0.85749 0,-0.54568 -0.54567,-2.41657 -0.23386,-2.80634 0.31182,-0.38977 0.85749,-1.32521 0.85749,-1.32521 z"
       id="path4196"
       inkscape:connector-curvature="0"
       sodipodi:nodetypes="ccscscccscccsssscccscccscc" />
  </g>
</svg>
