<?xml version="1.0" encoding="UTF-8" standalone="no"?>
<!-- Created with Inkscape (http://www.inkscape.org/) -->

<svg
   xmlns:dc="http://purl.org/dc/elements/1.1/"
   xmlns:cc="http://creativecommons.org/ns#"
   xmlns:rdf="http://www.w3.org/1999/02/22-rdf-syntax-ns#"
   xmlns:svg="http://www.w3.org/2000/svg"
   xmlns="http://www.w3.org/2000/svg"
   xmlns:sodipodi="http://sodipodi.sourceforge.net/DTD/sodipodi-0.dtd"
   xmlns:inkscape="http://www.inkscape.org/namespaces/inkscape"
   width="128"
   height="128"
   viewBox="0 0 128 128"
   id="svg2"
   version="1.1"
   inkscape:version="0.91 r13725"
   sodipodi:docname="berseker_head.svg">
  <defs
     id="defs4" />
  <sodipodi:namedview
     id="base"
     pagecolor="#ffffff"
     bordercolor="#666666"
     borderopacity="1.0"
     inkscape:pageopacity="0.0"
     inkscape:pageshadow="2"
     inkscape:zoom="6.4140625"
     inkscape:cx="62.459065"
     inkscape:cy="61.133594"
     inkscape:document-units="px"
     inkscape:current-layer="layer1"
     showgrid="false"
     units="px"
     inkscape:window-width="1920"
     inkscape:window-height="1018"
     inkscape:window-x="-8"
     inkscape:window-y="-8"
     inkscape:window-maximized="1" />
  <metadata
     id="metadata7">
    <rdf:RDF>
      <cc:Work
         rdf:about="">
        <dc:format>image/svg+xml</dc:format>
        <dc:type
           rdf:resource="http://purl.org/dc/dcmitype/StillImage" />
        <dc:title></dc:title>
      </cc:Work>
    </rdf:RDF>
  </metadata>
  <g
     inkscape:label="Calque 1"
     inkscape:groupmode="layer"
     id="layer1"
     transform="translate(0,-924.36216)">
    <path
       style="opacity:1;fill:#1a1111;fill-opacity:1;stroke:none;stroke-width:2;stroke-linecap:round;stroke-linejoin:round;stroke-miterlimit:4;stroke-dasharray:none;stroke-opacity:1"
       d="M 51.449219 1.8710938 C 51.449219 1.8710938 51.449802 10.133016 50.826172 12.003906 C 50.202542 13.874796 47.083984 18.242051 47.083984 19.957031 C 47.083984 21.672011 47.395595 25.101766 45.212891 26.972656 C 43.030187 28.843546 41.160433 31.49384 37.730469 28.6875 C 34.300506 25.88117 36.170264 26.815999 36.326172 23.074219 C 36.482079 19.332439 31.961521 19.333227 31.337891 15.435547 C 30.714261 11.537857 35.080078 2.3378906 35.080078 2.3378906 C 35.080078 2.3378906 32.117429 3.5862775 31.337891 3.7421875 C 30.558354 3.8980975 27.128359 4.6764612 25.101562 4.9882812 C 23.074766 5.3000913 24.009766 13.096587 24.009766 15.279297 C 24.009766 17.461997 24.944729 19.799819 25.568359 22.917969 C 26.191988 26.036119 28.063185 34.455379 28.375 37.261719 C 28.686815 40.068049 29.777548 40.068563 31.648438 41.939453 C 32.409039 42.700055 33.032948 43.459569 33.525391 44.199219 A 44.433617 44.433617 0 0 0 28.126953 51.113281 C 27.429974 50.36829 26.748157 49.666126 26.193359 49.111328 C 23.69884 46.616808 21.514837 43.966156 20.267578 41.003906 C 19.020318 38.041666 19.331928 36.171321 18.396484 34.144531 C 17.461039 32.117731 17.461966 26.192126 17.929688 23.853516 C 18.39741 21.514896 16.681641 16.371094 16.681641 16.371094 L 12.785156 23.542969 C 12.785156 23.542969 11.536424 28.374281 11.224609 30.712891 C 10.912794 33.051501 11.380618 35.702162 12.160156 38.820312 C 12.939693 41.938462 15.123252 44.901488 16.994141 48.955078 C 18.86503 53.008678 19.020558 55.969954 19.488281 60.958984 C 19.956003 65.948024 19.488281 69.222141 19.488281 73.431641 C 19.488281 77.641181 20.268023 80.448306 21.359375 83.566406 C 21.55862 84.135687 22.117176 85.277379 22.796875 86.607422 A 44.433617 44.433617 0 0 0 32.501953 104.35938 C 32.578344 104.50546 32.871513 105.02376 32.896484 105.08203 L 33.171875 105.12109 A 44.433617 44.433617 0 0 0 65.636719 119.26953 A 44.433617 44.433617 0 0 0 100.33594 102.51953 C 101.43499 102.1659 102.53998 101.82118 103.67773 101.49609 C 108.04314 100.24879 107.57707 97.909972 109.75977 93.388672 C 111.94247 88.867372 112.09673 90.581634 112.56445 89.490234 C 113.03218 88.398934 110.22683 80.604022 115.68359 79.044922 C 121.14035 77.485922 116.46313 74.83588 115.68359 71.25 C 114.90406 67.66413 120.67311 58.464339 123.01172 53.787109 C 125.35033 49.109889 119.58032 31.336793 118.80078 27.283203 C 118.02124 23.229613 110.38281 14.03125 110.38281 14.03125 C 110.38281 14.03125 114.9042 28.999144 113.96875 33.052734 C 113.03331 37.106334 109.75956 42.406211 107.88867 45.056641 C 106.42521 47.129874 104.01298 48.06409 101.91016 49.265625 A 44.433617 44.433617 0 0 0 97.246094 43.630859 C 98.280561 41.557787 99.599164 39.249691 101.33984 36.638672 C 105.39343 30.558282 104.77021 25.256579 105.08203 22.917969 C 105.39384 20.579359 102.89799 14.032416 101.80664 12.785156 C 100.71528 11.537896 96.974609 14.5 96.974609 14.5 L 96.974609 22.138672 C 96.974609 23.385932 94.948191 25.56867 94.480469 28.375 C 94.078639 30.78598 92.064032 35.604989 89.824219 37.609375 A 44.433617 44.433617 0 0 0 88.091797 36.548828 C 88.627144 35.067561 89.572521 33.170267 89.490234 32.429688 C 89.334326 31.026518 88.866844 28.687296 88.710938 26.816406 C 88.555029 24.945516 84.034814 16.059099 83.878906 11.849609 C 83.722999 7.6400994 83.878906 7.0164412 83.878906 5.6132812 C 83.878906 4.2101113 78.265625 2.0273438 78.265625 2.0273438 C 78.265625 2.0273438 75.147068 7.172225 74.523438 7.328125 C 73.899809 7.484035 71.717825 9.9784762 72.185547 12.628906 C 72.653269 15.279326 75.61479 19.645289 74.523438 23.542969 C 73.432086 27.440659 69.22235 23.386029 66.416016 23.074219 C 63.609682 22.762399 59.399946 21.202678 58.308594 20.111328 C 57.217242 19.019978 57.997225 14.810819 59.400391 11.380859 C 60.803558 7.9508894 57.529297 5.7695312 57.529297 5.7695312 L 51.449219 1.8710938 z "
       transform="translate(0,924.36216)"
       id="path4136" />
    <path
       style="fill:#000000;fill-rule:evenodd;stroke:none;stroke-width:1px;stroke-linecap:butt;stroke-linejoin:miter;stroke-opacity:1;fill-opacity:1"
       d="M 32.951172 39.160156 C 32.026163 39.268675 31.612631 40.136719 31.199219 40.136719 C 30.995411 40.136719 30.683545 40.408507 30.337891 40.771484 C 30.721553 41.089453 31.157246 41.448261 31.648438 41.939453 C 32.409039 42.700055 33.032948 43.459569 33.525391 44.199219 A 44.433617 44.433617 0 0 0 28.126953 51.113281 C 27.429974 50.36829 26.748157 49.666126 26.193359 49.111328 C 25.989863 48.907832 25.804492 48.695893 25.605469 48.490234 C 25.092729 49.674181 24.624363 51.047002 24.603516 51.109375 L 24.804688 55.349609 L 25.246094 57.113281 C 25.246094 57.113281 25.6875 57.885415 25.6875 58.546875 C 25.6875 59.208335 26.348741 63.839415 26.458984 64.390625 C 26.569227 64.941845 26.458767 66.815752 26.238281 68.138672 C 26.017794 69.461592 22.930557 70.343534 21.828125 71.115234 C 20.725693 71.886934 21.827474 73.87153 22.158203 74.3125 C 22.488933 74.75347 25.797307 72.437936 27.230469 72.878906 C 28.66363 73.319876 29.766275 76.406022 30.427734 78.169922 C 31.089194 79.933822 31.860459 83.351334 32.962891 85.115234 C 34.065323 86.879034 38.804688 90.40625 38.804688 90.40625 C 38.804688 90.40625 37.592666 85.557275 37.482422 84.234375 C 37.372179 82.911475 36.820963 81.367213 36.490234 79.382812 C 36.159504 77.398412 37.042099 76.186249 38.144531 71.886719 C 39.246963 67.587239 37.372614 66.925789 36.931641 63.949219 C 36.490669 60.972649 36.711588 59.428607 37.373047 56.341797 C 38.034506 53.254987 37.8125 53.476131 37.8125 51.050781 C 37.8125 48.625431 37.593534 48.844404 37.373047 47.521484 C 37.152561 46.198574 37.482422 42.121094 37.482422 42.121094 C 37.482422 42.121094 35.828344 40.136934 34.064453 39.365234 C 33.62348 39.172307 33.259508 39.123983 32.951172 39.160156 z M 24.603516 51.109375 L 24.583984 50.71875 L 24.583984 51.160156 C 24.583984 51.160156 24.60305 51.110769 24.603516 51.109375 z "
       transform="translate(0,924.36216)"
       id="path4245" />
    <path
       style="fill:#6e0000;fill-opacity:1;fill-rule:evenodd;stroke:none;stroke-width:1px;stroke-linecap:butt;stroke-linejoin:miter;stroke-opacity:1"
       d="m 26.816078,973.94072 c 0,0 1.559074,-3.58587 2.026797,-4.3654 0.467722,-0.77954 1.091352,-2.49452 2.338611,-2.80634 1.247259,-0.31181 1.714982,-2.0268 3.274056,-0.31181 1.559074,1.71498 0.467722,4.05359 0.311815,7.17173 -0.155908,3.11815 0.62363,4.67723 0.155907,6.54812 -0.467722,1.87089 -1.091352,0.62363 -1.247259,4.98904 -0.155908,4.36541 -0.467722,4.2095 -0.467722,8.419 0,4.20951 -1.091353,4.36541 -1e-6,6.70404 1.091352,2.3386 1.24726,6.3922 1.24726,6.3922 0,0 -2.648516,-5.7619 -3.58587,-7.32766 -1.294454,-2.16222 -1.198522,-4.59277 -0.623631,-6.70403 0.655387,-2.40688 0.779538,-7.17174 0.311815,-8.26309 -0.467722,-1.09135 -0.935444,-2.65043 -0.935444,-2.65043"
       id="path4140"
       inkscape:connector-curvature="0"
       sodipodi:nodetypes="csssssssscsssc" />
    <path
       style="fill:#000000;fill-rule:evenodd;stroke:none;stroke-width:1px;stroke-linecap:butt;stroke-linejoin:miter;stroke-opacity:1;fill-opacity:1"
       d="M 74.167969 13.421875 C 74.138685 13.418053 74.111545 13.429471 74.083984 13.457031 C 73.811189 13.729831 73.7049 14.719635 73.195312 15.669922 C 74.142364 18.065636 75.264991 20.894568 74.523438 23.542969 C 73.432085 27.440659 69.22235 23.386029 66.416016 23.074219 C 63.609682 22.762399 59.399946 21.202678 58.308594 20.111328 C 57.801603 19.604338 57.71114 18.411219 57.886719 16.949219 C 57.235698 16.873599 56.224609 16.763672 56.224609 16.763672 C 56.224609 16.763672 55.010415 15.771913 56.664062 19.189453 C 58.31771 22.606993 59.090061 25.364144 59.310547 26.246094 C 59.531034 27.128034 62.286893 29.663834 62.066406 31.427734 C 61.84592 33.191624 62.177735 34.292314 61.185547 35.615234 C 60.193358 36.938154 59.752386 39.584418 60.193359 41.017578 C 60.634332 42.450748 61.074219 50.388672 61.074219 50.388672 C 61.074219 50.388672 62.838758 45.869366 63.720703 45.097656 C 64.602649 44.325956 66.035156 42.229814 66.035156 43.552734 C 66.035156 44.875654 66.146484 46.860451 66.146484 47.962891 C 66.146484 49.065321 66.366102 50.610022 66.255859 52.263672 C 66.145616 53.917322 65.925997 56.893235 66.146484 58.546875 C 66.36697 60.200525 69.011719 68.578125 69.011719 68.578125 L 68.902344 68.138672 C 68.902344 68.138672 72.319225 62.294491 74.193359 59.869141 C 76.067494 57.443791 76.950085 51.049698 77.832031 52.923828 C 78.713977 54.797958 78.271918 55.789926 78.712891 55.679688 C 79.153863 55.569448 79.484375 53.697047 79.484375 51.492188 C 79.484375 49.287317 78.162109 46.420353 78.162109 44.876953 C 78.162109 43.333543 79.265625 42.560552 79.265625 40.576172 C 79.265625 38.591792 79.81554 38.702694 78.933594 36.277344 C 78.051648 33.851994 77.169706 32.088545 76.949219 30.765625 C 76.728733 29.442705 77.060763 28.340498 77.28125 27.017578 C 77.501736 25.694658 78.272571 25.694014 77.390625 24.371094 C 76.508679 23.048174 76.950304 21.614803 76.068359 19.189453 C 75.241535 16.915688 74.607219 13.479206 74.167969 13.421875 z M 46.986328 23.226562 C 46.808048 24.589991 46.35487 25.993816 45.212891 26.972656 C 43.038751 28.836205 41.17387 31.469568 37.769531 28.716797 C 37.430575 29.839427 37.373047 31.095703 37.373047 31.095703 L 36.820312 35.726562 C 36.820312 35.726562 39.467663 39.034502 40.349609 40.357422 C 41.231554 41.680332 41.120007 43.995221 42.001953 47.082031 C 42.883898 50.168841 42.554253 55.018661 43.105469 57.113281 C 43.656685 59.207901 43.986109 60.421005 44.757812 62.515625 C 45.529514 64.610245 48.39605 68.137368 48.947266 68.798828 C 49.498482 69.460288 49.057725 65.934032 49.167969 65.382812 C 49.278212 64.831603 50.601779 61.853957 50.822266 60.310547 C 51.042752 58.767147 50.602213 56.341363 51.263672 54.908203 C 51.925132 53.475043 51.703993 53.035587 51.59375 51.492188 C 51.483507 49.948777 50.49197 47.962898 50.271484 44.986328 C 50.050997 42.009758 50.490885 41.790582 51.152344 40.357422 C 51.813803 38.924252 51.593967 38.261285 51.814453 36.828125 C 52.03494 35.394965 51.372614 32.419917 50.931641 30.435547 C 50.490668 28.451167 50.159722 27.236973 49.71875 25.914062 C 49.359587 24.836574 48.055265 23.767966 46.986328 23.226562 z M 86.912109 32.912109 C 86.741313 32.918315 86.500543 33.107641 86.431641 34.072266 C 86.321397 35.615676 86.210937 36.387589 86.210938 38.261719 C 86.210938 40.135859 85.549045 40.026258 85.769531 42.892578 C 85.990018 45.758898 85.990234 45.758898 85.990234 46.861328 C 85.990234 47.963768 85.989368 47.192489 85.107422 49.287109 C 84.225477 51.381739 84.226346 51.490455 84.005859 52.703125 C 83.785373 53.915805 84.004557 54.687497 83.673828 55.679688 C 83.343098 56.671878 82.903645 57.445094 83.234375 59.208984 C 83.565104 60.972874 81.029297 68.578125 81.029297 68.578125 L 83.013672 65.492188 C 83.013672 65.492188 86.209418 62.955733 86.650391 61.632812 C 87.091364 60.309894 88.194662 59.2092 88.525391 58.4375 C 88.856121 57.6658 89.628688 56.34288 90.400391 54.46875 C 91.172093 52.59461 91.50217 49.397575 91.722656 48.515625 C 91.943143 47.633685 92.273003 45.207686 92.824219 43.884766 C 93.375435 42.561846 93.376953 40.247174 93.376953 39.365234 L 93.376953 36.388672 C 93.376953 35.951074 93.090707 34.509096 92.814453 33.199219 C 91.984585 34.936372 90.932398 36.617677 89.824219 37.609375 A 44.433617 44.433617 0 0 0 88.091797 36.548828 C 88.378676 35.755055 88.773086 34.853189 89.074219 34.0625 C 88.466149 33.740487 87.091797 32.970703 87.091797 32.970703 C 87.091797 32.970703 87.014587 32.908386 86.912109 32.912109 z M 97.896484 37.048828 C 97.455512 37.048828 98.337242 36.829419 96.683594 40.136719 C 95.029946 43.444009 94.699219 45.42708 94.699219 46.75 C 94.699219 48.07292 94.809462 49.287317 94.699219 51.492188 C 94.588975 53.697048 94.479384 56.451606 94.369141 57.884766 C 94.258898 59.317936 93.927734 62.736764 93.927734 63.177734 L 93.927734 65.492188 C 93.927734 66.704858 94.36784 66.26389 93.044922 68.46875 C 91.722003 70.67362 91.171875 82.46875 91.171875 82.46875 C 91.171875 82.46875 94.258246 79.713514 94.699219 79.382812 C 95.140191 79.052114 96.79362 75.193176 96.462891 78.941406 C 96.132161 82.689706 96.021484 83.242188 96.021484 83.242188 C 96.021484 83.242188 98.778645 80.374087 99.109375 79.492188 C 99.440104 78.610187 100.10026 72.217662 100.76172 72.107422 C 101.42317 71.997172 102.63672 74.421439 102.63672 73.980469 C 102.63672 73.539499 102.52692 69.019536 102.08594 67.035156 C 101.64497 65.050776 101.86481 63.176436 102.41602 61.853516 C 102.96724 60.530596 102.74761 60.42188 103.29883 58.4375 C 103.85005 56.45312 103.84853 55.680771 104.73047 53.806641 C 105.61242 51.932501 105.17165 52.153001 105.94336 49.837891 C 106.5195 48.109466 108.13884 46.13556 108.18945 44.603516 C 108.09624 44.738606 107.97614 44.932734 107.88867 45.056641 C 106.42521 47.129874 104.01298 48.06409 101.91016 49.265625 A 44.433617 44.433617 0 0 0 97.246094 43.630859 C 97.935807 42.248674 98.766788 40.749934 99.75 39.138672 C 98.656909 38.012217 98.180695 37.048828 97.896484 37.048828 z "
       transform="translate(0,924.36216)"
       id="path4250" />
    <path
       style="fill:#6e0000;fill-rule:evenodd;stroke:none;stroke-width:1px;stroke-linecap:butt;stroke-linejoin:miter;stroke-opacity:1;fill-opacity:1"
       d="m 38.976857,954.29639 c 0.155908,-0.62363 2.026797,-3.27406 3.274057,-3.89769 1.247259,-0.62363 2.806333,-0.77954 3.429963,-0.77954 0.62363,0 2.494519,0.15591 2.650426,2.33861 0.155908,2.18271 1.091352,3.89769 0.311815,7.17175 -0.779537,3.27405 -2.182704,5.61266 -1.870889,9.04263 0.311815,3.42996 1.091352,7.32765 1.091352,11.22533 0,3.89769 0.155907,7.95128 0,7.32765 -0.155907,-0.62363 -2.806334,-8.57491 -2.806334,-12.6285 0,-4.05359 0.311815,-8.10719 -0.935444,-10.60171 -1.24726,-2.49451 -3.118149,-5.14494 -3.118149,-5.14494"
       id="path4142"
       inkscape:connector-curvature="0" />
    <path
       style="fill:#6e0000;fill-opacity:1;fill-rule:evenodd;stroke:none;stroke-width:1px;stroke-linecap:butt;stroke-linejoin:miter;stroke-opacity:1"
       d="m 58.465286,944.47422 c 0,0 4.677223,-1.71498 6.392205,-0.62363 1.714982,1.09135 3.274056,2.02679 4.677223,2.49452 1.403167,0.46772 2.494519,0.77953 3.274056,1.40316 0.779537,0.62363 1.870889,1.71499 0.935444,3.42997 -0.935444,1.71498 -2.026796,5.30085 -0.311815,9.19853 1.714982,3.89769 2.650427,2.80634 1.559075,7.48357 -1.091352,4.67722 -0.155908,3.89768 -1.559075,8.5749 -1.403167,4.67722 -2.962241,8.73082 -2.962241,8.73082 0,0 -0.155907,-4.67723 0.311815,-9.66627 0.467723,-4.98903 0.779537,-4.05359 -0.311815,-9.19853 -1.091352,-5.14495 -2.026796,-5.30085 -2.962241,-8.10719 -0.935444,-2.80633 -3.429963,-5.30085 -4.365408,-6.70402 -0.935444,-1.40316 -2.494519,-2.96224 -2.494519,-2.96224"
       id="path4144"
       inkscape:connector-curvature="0"
       sodipodi:nodetypes="cssssssscssssc" />
    <path
       style="fill:#6e0000;fill-opacity:1;fill-rule:evenodd;stroke:none;stroke-width:1px;stroke-linecap:butt;stroke-linejoin:miter;stroke-opacity:1"
       d="m 87.775883,959.75314 c 0,0 1.107021,-0.39531 2.209453,0.15591 0,0 0.908696,0.15591 1.064603,1.55908 0.155908,1.40317 0.155908,2.65043 -0.155907,4.2095 -0.311815,1.55907 0.311815,4.67722 -0.467723,6.85993 -0.779537,2.1827 -1.091352,5.45676 -2.962241,7.95127 -1.870889,2.49452 -3.429963,5.14495 -3.429963,5.14495 0,0 1.247259,-3.58587 2.650426,-6.54811 1.403167,-2.96224 2.650426,-7.17174 2.494519,-8.73082 -0.155907,-1.55907 -1.24726,-3.58587 -1.24726,-3.58587"
       id="path4146"
       inkscape:connector-curvature="0"
       sodipodi:nodetypes="ccsssscssc" />
    <path
       style="fill:#6e0000;fill-rule:evenodd;stroke:none;stroke-width:1px;stroke-linecap:butt;stroke-linejoin:miter;stroke-opacity:1;fill-opacity:1"
       d="m 97.286236,967.54852 c 0,0 4.209504,0.93544 4.521314,1.87089 0.31182,0.93544 0.15591,2.1827 0.77954,3.27405 0.62363,1.09135 0.31181,2.0268 -0.15591,2.96224 -0.46772,0.93545 -2.0268,9.35445 -2.33861,13.09623 -0.311815,3.74178 -1.403167,7.01583 -3.118149,9.51035 -1.714981,2.49452 -3.897685,4.83312 -3.429963,3.58592 0.467722,-1.2473 4.209501,-10.91357 4.209501,-14.03172 0,-3.11814 -0.311815,-8.10718 -0.779538,-9.19853 -0.467722,-1.09136 -0.467722,-2.80634 -0.467722,-2.80634"
       id="path4148"
       inkscape:connector-curvature="0" />
  </g>
</svg>
