<?xml version="1.0" encoding="UTF-8" standalone="no"?>
<!-- Created with Inkscape (http://www.inkscape.org/) -->

<svg
   xmlns:dc="http://purl.org/dc/elements/1.1/"
   xmlns:cc="http://creativecommons.org/ns#"
   xmlns:rdf="http://www.w3.org/1999/02/22-rdf-syntax-ns#"
   xmlns:svg="http://www.w3.org/2000/svg"
   xmlns="http://www.w3.org/2000/svg"
   xmlns:sodipodi="http://sodipodi.sourceforge.net/DTD/sodipodi-0.dtd"
   xmlns:inkscape="http://www.inkscape.org/namespaces/inkscape"
   width="128"
   height="128"
   viewBox="0 0 128 128"
   id="svg2"
   version="1.1"
   inkscape:version="0.91 r13725"
   sodipodi:docname="boomer_head.svg">
  <defs
     id="defs4" />
  <sodipodi:namedview
     id="base"
     pagecolor="#ffffff"
     bordercolor="#666666"
     borderopacity="1.0"
     inkscape:pageopacity="0.0"
     inkscape:pageshadow="2"
     inkscape:zoom="4.5354271"
     inkscape:cx="93.498379"
     inkscape:cy="81.028203"
     inkscape:document-units="px"
     inkscape:current-layer="layer1"
     showgrid="false"
     units="px"
     inkscape:window-width="1920"
     inkscape:window-height="1018"
     inkscape:window-x="-8"
     inkscape:window-y="-8"
     inkscape:window-maximized="1" />
  <metadata
     id="metadata7">
    <rdf:RDF>
      <cc:Work
         rdf:about="">
        <dc:format>image/svg+xml</dc:format>
        <dc:type
           rdf:resource="http://purl.org/dc/dcmitype/StillImage" />
        <dc:title></dc:title>
      </cc:Work>
    </rdf:RDF>
  </metadata>
  <g
     inkscape:label="Calque 1"
     inkscape:groupmode="layer"
     id="layer1"
     transform="translate(0,-924.36216)">
    <path
       style="fill:#4b2400;fill-opacity:1;fill-rule:evenodd;stroke:none;stroke-width:1px;stroke-linecap:butt;stroke-linejoin:miter;stroke-opacity:1"
       d="m 9.1065532,1027.5647 c 0,0 -3.571079,0.7318 -4.7812663,3.9481 -1.1059309,2.9393 -1.4464269,5.9784 -0.7125602,7.0792 0.7338667,1.1008 1.27058,1.6228 1.8467562,1.5548 1.0044537,-0.1185 1.2833064,-0.7561 1.2833064,-0.7561 0,0 0.041655,-1.3492 0.5920527,-3.5508 0.323369,-1.6501 1.0906258,-2.5665 3.153272,-3.9166 1.284264,-0.7339 -1.3815608,-4.3586 -1.3815608,-4.3586 z"
       id="path4295"
       inkscape:connector-curvature="0"
       sodipodi:nodetypes="cscscccc" />
    <path
       style="fill:#b80000;fill-opacity:1;fill-rule:evenodd;stroke:none;stroke-width:1px;stroke-linecap:butt;stroke-linejoin:miter;stroke-opacity:1"
       d="m 15.625177,1040.5462 31.18933,-12.2923 -13.576528,-17.9797 -25.685323,8.8063 c 0,0 -2.9506471,5.9706 0.7338667,13.5765 3.4343333,7.0896 7.3386543,7.8892 7.3386543,7.8892 z"
       id="path4284"
       inkscape:connector-curvature="0"
       sodipodi:nodetypes="ccccsc" />
    <circle
       r="4.7701316"
       cy="966.79266"
       cx="113.77982"
       id="circle4277"
       style="opacity:1;fill:#956332;fill-opacity:1;stroke:none;stroke-width:2;stroke-linecap:round;stroke-linejoin:round;stroke-miterlimit:4;stroke-dasharray:none;stroke-opacity:1" />
    <circle
       style="opacity:1;fill:#956332;fill-opacity:1;stroke:none;stroke-width:2;stroke-linecap:round;stroke-linejoin:round;stroke-miterlimit:4;stroke-dasharray:none;stroke-opacity:1"
       id="circle4239"
       cx="30.761175"
       cy="953.67474"
       r="3.7610652" />
    <circle
       r="3.7610652"
       cy="942.2998"
       cx="50.208633"
       id="circle4221"
       style="opacity:1;fill:#956332;fill-opacity:1;stroke:none;stroke-width:2;stroke-linecap:round;stroke-linejoin:round;stroke-miterlimit:4;stroke-dasharray:none;stroke-opacity:1" />
    <circle
       style="opacity:1;fill:#956332;fill-opacity:1;stroke:none;stroke-width:2;stroke-linecap:round;stroke-linejoin:round;stroke-miterlimit:4;stroke-dasharray:none;stroke-opacity:1"
       id="circle4219"
       cx="64.977684"
       cy="940.55695"
       r="4.2197318" />
    <circle
       r="4.7701316"
       cy="938.35529"
       cx="57.63903"
       id="circle4217"
       style="opacity:1;fill:#956332;fill-opacity:1;stroke:none;stroke-width:2;stroke-linecap:round;stroke-linejoin:round;stroke-miterlimit:4;stroke-dasharray:none;stroke-opacity:1" />
    <circle
       style="opacity:1;fill:#956332;fill-opacity:1;stroke:none;stroke-width:2;stroke-linecap:round;stroke-linejoin:round;stroke-miterlimit:4;stroke-dasharray:none;stroke-opacity:1"
       id="path4215"
       cx="87.911026"
       cy="944.2262"
       r="4.7701316" />
    <path
       style="fill:#790000;fill-opacity:1;fill-rule:evenodd;stroke:none;stroke-width:1px;stroke-linecap:butt;stroke-linejoin:miter;stroke-opacity:1"
       d="m 23.69771,1006.7883 -11.374928,-18.897 c 0,0 7.889063,-1.28427 9.540262,-3.30241 1.6512,-2.01813 2.385067,-2.56852 2.935466,-2.75199 0.5504,-0.18346 4.219732,-4.40319 4.219732,-4.40319 0,0 11.191462,0.55039 11.925329,0.91732 0.733865,0.36694 13.576528,6.97174 13.576528,6.97174 l 7.705597,15.41123 -14.493861,11.008"
       id="path4164"
       inkscape:connector-curvature="0" />
    <path
       style="opacity:1;fill:#9e7247;fill-opacity:1;stroke:none;stroke-width:2;stroke-linecap:round;stroke-linejoin:round;stroke-miterlimit:4;stroke-dasharray:none;stroke-opacity:1"
       d="m 66.811558,939.08973 a 54.856513,54.856513 0 0 0 -47.780846,27.97348 c 0.233331,0.62953 1.212696,3.07971 3.748644,6.88362 2.935455,4.4032 4.587949,5.50444 4.771419,7.52257 0.183469,2.01813 5.26e-4,1.83611 1.284789,2.75345 1.284264,0.91733 4.218152,0.36705 6.603222,1.10092 2.385069,0.73386 2.751963,-1.83494 3.11889,0.91706 0.366939,2.75199 0.0011,2.56671 -0.549311,4.40137 -0.550397,1.83467 -3.301708,2.01849 -0.73318,3.30276 2.568539,1.28426 4.403107,1.65306 6.23778,2.93733 1.83466,1.28427 1.833128,1.83272 3.484331,3.30041 1.651192,1.4678 3.118891,3.1189 3.118891,3.1189 0,0 -13.758532,-5.50264 -18.161732,-8.80503 -4.4032,-3.30241 -3.118731,-4.03686 -5.136861,-5.50459 -2.018131,-1.46774 -2.937272,-2.93451 -6.056209,-1.65023 -3.118924,1.28426 -3.301787,1.64941 -4.95299,1.28249 -0.895338,-0.19897 -2.010372,-0.45722 -3.482033,-0.79524 a 54.856513,54.856513 0 0 0 -0.370038,6.11596 54.856513,54.856513 0 0 0 54.855234,54.85754 54.856513,54.856513 0 0 0 54.857532,-54.85754 54.856513,54.856513 0 0 0 -54.857532,-54.85523 z"
       id="path4147"
       inkscape:connector-curvature="0" />
    <g
       transform="matrix(0.72251365,0,0,0.72251365,45.903276,257.25561)"
       id="g4207">
      <circle
         r="5.3788061"
         cy="962.42804"
         cx="52.390438"
         id="circle4209"
         style="opacity:1;fill:#000000;fill-opacity:0.12288136;stroke:none;stroke-width:2;stroke-linecap:round;stroke-linejoin:round;stroke-miterlimit:4;stroke-dasharray:none;stroke-opacity:1" />
      <circle
         style="opacity:1;fill:#956332;fill-opacity:1;stroke:none;stroke-width:2;stroke-linecap:round;stroke-linejoin:round;stroke-miterlimit:4;stroke-dasharray:none;stroke-opacity:1"
         id="circle4211"
         cx="51.839222"
         cy="961.54608"
         r="5.3788061" />
      <path
         inkscape:connector-curvature="0"
         style="opacity:1;fill:#000000;fill-opacity:0.13135591;stroke:none;stroke-width:2;stroke-linecap:round;stroke-linejoin:round;stroke-miterlimit:4;stroke-dasharray:none;stroke-opacity:1"
         d="m 54.570312,32.556641 a 5.3788061,5.3788061 0 0 1 1.324219,3.52539 5.3788061,5.3788061 0 0 1 -5.378906,5.378907 5.3788061,5.3788061 0 0 1 -2.730469,-0.751954 5.3788061,5.3788061 0 0 0 4.054688,1.853516 5.3788061,5.3788061 0 0 0 5.378906,-5.378906 5.3788061,5.3788061 0 0 0 -2.648438,-4.626953 z"
         transform="translate(0,924.36216)"
         id="path4213" />
    </g>
    <path
       style="fill:#b80000;fill-opacity:1;fill-rule:evenodd;stroke:none;stroke-width:1px;stroke-linecap:butt;stroke-linejoin:miter;stroke-opacity:1"
       d="m 105.57819,928.45057 c -4.07342,-0.13751 -6.256167,1.29629 -6.256167,1.29629 l -16.346019,29.40305 c 0.832892,1.90867 1.859078,4.1562 2.367323,5.80799 0.733866,2.38507 5.869355,9.1728 6.603221,9.1728 0.733867,0 9.907022,-4.7706 12.475562,-4.40367 0.87213,0.12458 2.12938,0.75028 3.40388,1.50313 l 16.40578,-28.76872 c 0,0 -1.97229,-7.74923 -9.34058,-11.41601 -3.74341,-1.86288 -6.86895,-2.51235 -9.313,-2.59486 z"
       id="path4151"
       inkscape:connector-curvature="0" />
    <path
       style="fill:#930000;fill-opacity:1;fill-rule:evenodd;stroke:none;stroke-width:1px;stroke-linecap:butt;stroke-linejoin:miter;stroke-opacity:1"
       d="m 21.312995,1025.8693 c 0,0 -2.75248,9.1718 -4.40368,10.8231 -1.101471,1.1014 -3.590711,1.2063 -5.180529,1.1652 2.167041,2.3224 3.895739,2.6892 3.895739,2.6892 l 21.133526,-8.3317 -7.189306,-4.8794 -8.25575,-1.4664 z"
       id="path4290"
       inkscape:connector-curvature="0" />
    <path
       style="fill:#9e7247;fill-opacity:1;fill-rule:evenodd;stroke:none;stroke-width:1px;stroke-linecap:butt;stroke-linejoin:miter;stroke-opacity:1"
       d="m 13.540269,1005.2131 c 0,0 2.100372,6.3919 1.330695,9.4144 l -0.713518,2.8019 c 0,0 0.917337,1.2843 2.751998,3.6694 1.834672,2.385 2.2016,5.3205 2.2016,6.9717 0,1.6512 -0.733867,3.119 1.651203,3.6693 2.38507,0.5504 2.935467,-0.1834 3.852791,1.2843 0.917337,1.4677 1.100804,3.3024 1.100804,3.3024 0,0 2.93547,-0.367 6.237865,1.2842 3.302394,1.6513 6.421334,3.486 6.421334,3.486 0,0 5.137062,-14.6775 5.137062,-16.1451 0,-1.4678 -7.705594,0.7338 -7.705594,0.7338 l -10.090665,-12.6592 -2.2016,-1.8346"
       id="path4286"
       inkscape:connector-curvature="0"
       sodipodi:nodetypes="csccssccscsccc" />
    <path
       style="opacity:1;fill:#86613c;fill-opacity:1;stroke:none;stroke-width:2;stroke-linecap:round;stroke-linejoin:round;stroke-miterlimit:4;stroke-dasharray:none;stroke-opacity:1"
       d="m 110.75872,961.22305 c 3.18468,7.05622 4.83977,14.70661 4.85646,22.44819 5.6e-4,30.29726 -24.56032,54.85806 -54.857534,54.85746 -17.320723,-0.026 -33.61193,-8.2299 -43.944863,-22.131 2.487128,5.498 5.864358,10.5479 9.995618,14.9464 -0.121798,0.012 -0.249312,0.012 -0.358547,0.029 -1.467733,0.2751 -1.926275,-1.8349 -4.127874,-2.2018 -0.137601,-0.022 -0.269007,-0.035 -0.395321,-0.036 -1.669429,-0.027 -2.330384,1.5751 -2.473047,1.9766 0.265383,0.2647 0.669535,0.4801 1.307773,0.6275 2.38507,0.5503 2.937045,-0.1829 3.85437,1.2848 0.917336,1.4677 1.10092,3.3027 1.10092,3.3027 0,0 2.935386,-0.3665 6.23778,1.2848 3.302394,1.6512 6.42165,3.4844 6.42165,3.4844 8.941857,5.6107 19.660158,7.6028 28.435453,7.7064 30.297213,6e-4 54.858092,-24.5603 54.857532,-54.85756 -0.0238,-11.79669 -3.84982,-23.27145 -10.91037,-32.72191 z"
       id="path4297"
       inkscape:connector-curvature="0" />
    <path
       style="fill:#930000;fill-opacity:1;fill-rule:evenodd;stroke:none;stroke-width:1px;stroke-linecap:butt;stroke-linejoin:miter;stroke-opacity:1"
       d="m 119.29257,934.21949 c -0.97395,0.70948 -7.69864,5.65326 -9.91517,8.72232 -2.38507,3.3024 -2.93664,13.02592 -3.6705,15.59444 -0.73387,2.56854 -5.68681,4.40271 -8.071882,6.05391 -1.149907,0.7961 -4.131554,4.66669 -6.913502,8.45801 0.587868,0.66253 1.043306,1.08253 1.225032,1.08253 0.733867,0 9.907022,-4.7706 12.475562,-4.40367 0.87213,0.12458 2.12938,0.75028 3.40388,1.50313 l 16.40578,-28.76872 c 0,0 -1.14971,-4.48179 -4.9392,-8.24195 z"
       id="path4265"
       inkscape:connector-curvature="0" />
    <path
       style="opacity:1;fill:#d10000;fill-opacity:1;fill-rule:evenodd;stroke:none;stroke-width:1px;stroke-linecap:butt;stroke-linejoin:miter;stroke-opacity:1"
       d="m 105.57819,928.45057 c -4.07342,-0.13751 -6.256167,1.29629 -6.256167,1.29629 l -0.167781,0.30108 c -0.0295,1.60986 0.629844,6.95912 10.223158,11.22525 12.88159,5.72841 14.67739,1.1193 14.67739,1.1193 l 0.13331,-0.0598 c -0.0998,-0.37633 -2.11583,-7.71369 -9.29691,-11.2873 -3.74341,-1.86288 -6.86895,-2.51235 -9.313,-2.59487 z"
       id="path4156"
       inkscape:connector-curvature="0" />
    <g
       transform="matrix(0.85230007,0,0,0.85230007,11.01535,129.1864)"
       id="g4183">
      <circle
         r="5.3788061"
         cy="962.42804"
         cx="52.390438"
         id="circle4185"
         style="opacity:1;fill:#000000;fill-opacity:0.12288136;stroke:none;stroke-width:2;stroke-linecap:round;stroke-linejoin:round;stroke-miterlimit:4;stroke-dasharray:none;stroke-opacity:1" />
      <circle
         style="opacity:1;fill:#956332;fill-opacity:1;stroke:none;stroke-width:2;stroke-linecap:round;stroke-linejoin:round;stroke-miterlimit:4;stroke-dasharray:none;stroke-opacity:1"
         id="circle4187"
         cx="51.839222"
         cy="961.54608"
         r="5.3788061" />
      <path
         inkscape:connector-curvature="0"
         style="opacity:1;fill:#000000;fill-opacity:0.13135591;stroke:none;stroke-width:2;stroke-linecap:round;stroke-linejoin:round;stroke-miterlimit:4;stroke-dasharray:none;stroke-opacity:1"
         d="m 54.570312,32.556641 a 5.3788061,5.3788061 0 0 1 1.324219,3.52539 5.3788061,5.3788061 0 0 1 -5.378906,5.378907 5.3788061,5.3788061 0 0 1 -2.730469,-0.751954 5.3788061,5.3788061 0 0 0 4.054688,1.853516 5.3788061,5.3788061 0 0 0 5.378906,-5.378906 5.3788061,5.3788061 0 0 0 -2.648438,-4.626953 z"
         transform="translate(0,924.36216)"
         id="path4189" />
    </g>
    <g
       id="g4178"
       transform="matrix(1.1767662,0,0,1.1767662,-12.995608,-174.90471)">
      <circle
         style="opacity:1;fill:#000000;fill-opacity:0.12288136;stroke:none;stroke-width:2;stroke-linecap:round;stroke-linejoin:round;stroke-miterlimit:4;stroke-dasharray:none;stroke-opacity:1"
         id="circle4176"
         cx="52.390438"
         cy="962.42804"
         r="5.3788061" />
      <circle
         r="5.3788061"
         cy="961.54608"
         cx="51.839222"
         id="path4169"
         style="opacity:1;fill:#956332;fill-opacity:1;stroke:none;stroke-width:2;stroke-linecap:round;stroke-linejoin:round;stroke-miterlimit:4;stroke-dasharray:none;stroke-opacity:1" />
      <path
         id="circle4171"
         transform="translate(0,924.36216)"
         d="m 54.570312,32.556641 a 5.3788061,5.3788061 0 0 1 1.324219,3.52539 5.3788061,5.3788061 0 0 1 -5.378906,5.378907 5.3788061,5.3788061 0 0 1 -2.730469,-0.751954 5.3788061,5.3788061 0 0 0 4.054688,1.853516 5.3788061,5.3788061 0 0 0 5.378906,-5.378906 5.3788061,5.3788061 0 0 0 -2.648438,-4.626953 z"
         style="opacity:1;fill:#000000;fill-opacity:0.13135591;stroke:none;stroke-width:2;stroke-linecap:round;stroke-linejoin:round;stroke-miterlimit:4;stroke-dasharray:none;stroke-opacity:1"
         inkscape:connector-curvature="0" />
    </g>
    <g
       id="g4199"
       transform="matrix(0.94963996,0,0,0.94963996,26.727963,37.99161)">
      <circle
         style="opacity:1;fill:#000000;fill-opacity:0.12288136;stroke:none;stroke-width:2;stroke-linecap:round;stroke-linejoin:round;stroke-miterlimit:4;stroke-dasharray:none;stroke-opacity:1"
         id="circle4201"
         cx="52.390438"
         cy="962.42804"
         r="5.3788061" />
      <circle
         r="5.3788061"
         cy="961.54608"
         cx="51.839222"
         id="circle4203"
         style="opacity:1;fill:#956332;fill-opacity:1;stroke:none;stroke-width:2;stroke-linecap:round;stroke-linejoin:round;stroke-miterlimit:4;stroke-dasharray:none;stroke-opacity:1" />
      <path
         id="path4205"
         transform="translate(0,924.36216)"
         d="m 54.570312,32.556641 a 5.3788061,5.3788061 0 0 1 1.324219,3.52539 5.3788061,5.3788061 0 0 1 -5.378906,5.378907 5.3788061,5.3788061 0 0 1 -2.730469,-0.751954 5.3788061,5.3788061 0 0 0 4.054688,1.853516 5.3788061,5.3788061 0 0 0 5.378906,-5.378906 5.3788061,5.3788061 0 0 0 -2.648438,-4.626953 z"
         style="opacity:1;fill:#000000;fill-opacity:0.13135591;stroke:none;stroke-width:2;stroke-linecap:round;stroke-linejoin:round;stroke-miterlimit:4;stroke-dasharray:none;stroke-opacity:1"
         inkscape:connector-curvature="0" />
    </g>
    <path
       style="fill:#7b5631;fill-opacity:1;fill-rule:evenodd;stroke:none;stroke-width:1px;stroke-linecap:butt;stroke-linejoin:miter;stroke-opacity:1"
       d="m 79.105546,960.55422 c 0,0 5.503913,6.42121 6.237781,9.35668 0.733867,2.93547 -0.734554,2.01792 0.73318,5.13685 1.467733,3.11894 2.936107,1.10249 2.38571,4.9553 -0.550409,3.8528 -1.285888,6.97131 -0.735479,10.27372 0.550397,3.30239 1.652529,4.95298 1.652529,4.95298 0,0 1.282904,-9.72385 1.466361,-11.55851 0.18347,-1.83467 0.550249,-4.9523 2.01797,-5.68617 1.467733,-0.73387 4.403108,-0.36718 6.237781,-2.20184 1.834661,-1.83467 1.836641,-3.48703 4.038231,-3.6705 1.84128,-0.15343 3.04085,-0.79784 4.2428,-1.1193 -1.11362,-0.63118 -2.1926,-1.15673 -2.9603,-1.2664 -2.56854,-0.36693 -11.741695,4.40367 -12.475562,4.40367 -0.733866,0 -5.869355,-6.78773 -6.603221,-9.1728 -0.381501,-1.23987 -1.052532,-2.79582 -1.716884,-4.31174 l -4.520897,-0.0919 z m 29.947784,8.52466 -1.00439,1.75825 c 0.0147,-0.002 0.029,-0.007 0.0437,-0.009 0.54747,-0.0685 0.82552,-0.82588 0.96072,-1.74907 z"
       id="path4279"
       inkscape:connector-curvature="0" />
    <g
       transform="matrix(1.3389993,0,0,1.3389993,10.105897,-326.17387)"
       id="g4191">
      <circle
         r="5.3788061"
         cy="962.42804"
         cx="52.390438"
         id="circle4193"
         style="opacity:1;fill:#000000;fill-opacity:0.12288136;stroke:none;stroke-width:2;stroke-linecap:round;stroke-linejoin:round;stroke-miterlimit:4;stroke-dasharray:none;stroke-opacity:1" />
      <circle
         style="opacity:1;fill:#956332;fill-opacity:1;stroke:none;stroke-width:2;stroke-linecap:round;stroke-linejoin:round;stroke-miterlimit:4;stroke-dasharray:none;stroke-opacity:1"
         id="circle4195"
         cx="51.839222"
         cy="961.54608"
         r="5.3788061" />
      <path
         inkscape:connector-curvature="0"
         style="opacity:1;fill:#000000;fill-opacity:0.13135591;stroke:none;stroke-width:2;stroke-linecap:round;stroke-linejoin:round;stroke-miterlimit:4;stroke-dasharray:none;stroke-opacity:1"
         d="m 54.570312,32.556641 a 5.3788061,5.3788061 0 0 1 1.324219,3.52539 5.3788061,5.3788061 0 0 1 -5.378906,5.378907 5.3788061,5.3788061 0 0 1 -2.730469,-0.751954 5.3788061,5.3788061 0 0 0 4.054688,1.853516 5.3788061,5.3788061 0 0 0 5.378906,-5.378906 5.3788061,5.3788061 0 0 0 -2.648438,-4.626953 z"
         transform="translate(0,924.36216)"
         id="path4197" />
    </g>
    <g
       transform="matrix(1.0979546,0,0,1.0979546,-22.727052,-90.190846)"
       id="g4223">
      <circle
         r="5.3788061"
         cy="962.42804"
         cx="52.390438"
         id="circle4225"
         style="opacity:1;fill:#000000;fill-opacity:0.12288136;stroke:none;stroke-width:2;stroke-linecap:round;stroke-linejoin:round;stroke-miterlimit:4;stroke-dasharray:none;stroke-opacity:1" />
      <circle
         style="opacity:1;fill:#956332;fill-opacity:1;stroke:none;stroke-width:2;stroke-linecap:round;stroke-linejoin:round;stroke-miterlimit:4;stroke-dasharray:none;stroke-opacity:1"
         id="circle4227"
         cx="51.839222"
         cy="961.54608"
         r="5.3788061" />
      <path
         inkscape:connector-curvature="0"
         style="opacity:1;fill:#000000;fill-opacity:0.13135591;stroke:none;stroke-width:2;stroke-linecap:round;stroke-linejoin:round;stroke-miterlimit:4;stroke-dasharray:none;stroke-opacity:1"
         d="m 54.570312,32.556641 a 5.3788061,5.3788061 0 0 1 1.324219,3.52539 5.3788061,5.3788061 0 0 1 -5.378906,5.378907 5.3788061,5.3788061 0 0 1 -2.730469,-0.751954 5.3788061,5.3788061 0 0 0 4.054688,1.853516 5.3788061,5.3788061 0 0 0 5.378906,-5.378906 5.3788061,5.3788061 0 0 0 -2.648438,-4.626953 z"
         transform="translate(0,924.36216)"
         id="path4229" />
    </g>
    <g
       id="g4231"
       transform="matrix(0.53013888,0,0,0.53013888,1.0853725,461.35893)">
      <circle
         style="opacity:1;fill:#000000;fill-opacity:0.12288136;stroke:none;stroke-width:2;stroke-linecap:round;stroke-linejoin:round;stroke-miterlimit:4;stroke-dasharray:none;stroke-opacity:1"
         id="circle4233"
         cx="52.390438"
         cy="962.42804"
         r="5.3788061" />
      <circle
         r="5.3788061"
         cy="961.54608"
         cx="51.839222"
         id="circle4235"
         style="opacity:1;fill:#956332;fill-opacity:1;stroke:none;stroke-width:2;stroke-linecap:round;stroke-linejoin:round;stroke-miterlimit:4;stroke-dasharray:none;stroke-opacity:1" />
      <path
         id="path4237"
         transform="translate(0,924.36216)"
         d="m 54.570312,32.556641 a 5.3788061,5.3788061 0 0 1 1.324219,3.52539 5.3788061,5.3788061 0 0 1 -5.378906,5.378907 5.3788061,5.3788061 0 0 1 -2.730469,-0.751954 5.3788061,5.3788061 0 0 0 4.054688,1.853516 5.3788061,5.3788061 0 0 0 5.378906,-5.378906 5.3788061,5.3788061 0 0 0 -2.648438,-4.626953 z"
         style="opacity:1;fill:#000000;fill-opacity:0.13135591;stroke:none;stroke-width:2;stroke-linecap:round;stroke-linejoin:round;stroke-miterlimit:4;stroke-dasharray:none;stroke-opacity:1"
         inkscape:connector-curvature="0" />
    </g>
    <g
       id="g4241"
       transform="matrix(1.0979546,0,0,1.0979546,-34.65238,-63.221256)">
      <circle
         style="opacity:1;fill:#000000;fill-opacity:0.12288136;stroke:none;stroke-width:2;stroke-linecap:round;stroke-linejoin:round;stroke-miterlimit:4;stroke-dasharray:none;stroke-opacity:1"
         id="circle4243"
         cx="52.390438"
         cy="962.42804"
         r="5.3788061" />
      <circle
         r="5.3788061"
         cy="961.54608"
         cx="51.839222"
         id="circle4245"
         style="opacity:1;fill:#956332;fill-opacity:1;stroke:none;stroke-width:2;stroke-linecap:round;stroke-linejoin:round;stroke-miterlimit:4;stroke-dasharray:none;stroke-opacity:1" />
      <path
         id="path4247"
         transform="translate(0,924.36216)"
         d="m 54.570312,32.556641 a 5.3788061,5.3788061 0 0 1 1.324219,3.52539 5.3788061,5.3788061 0 0 1 -5.378906,5.378907 5.3788061,5.3788061 0 0 1 -2.730469,-0.751954 5.3788061,5.3788061 0 0 0 4.054688,1.853516 5.3788061,5.3788061 0 0 0 5.378906,-5.378906 5.3788061,5.3788061 0 0 0 -2.648438,-4.626953 z"
         style="opacity:1;fill:#000000;fill-opacity:0.13135591;stroke:none;stroke-width:2;stroke-linecap:round;stroke-linejoin:round;stroke-miterlimit:4;stroke-dasharray:none;stroke-opacity:1"
         inkscape:connector-curvature="0" />
    </g>
    <g
       transform="matrix(0.62508512,0,0,0.62508512,-13.416533,398.09444)"
       id="g4249">
      <circle
         r="5.3788061"
         cy="962.42804"
         cx="52.390438"
         id="circle4251"
         style="opacity:1;fill:#000000;fill-opacity:0.12288136;stroke:none;stroke-width:2;stroke-linecap:round;stroke-linejoin:round;stroke-miterlimit:4;stroke-dasharray:none;stroke-opacity:1" />
      <circle
         style="opacity:1;fill:#956332;fill-opacity:1;stroke:none;stroke-width:2;stroke-linecap:round;stroke-linejoin:round;stroke-miterlimit:4;stroke-dasharray:none;stroke-opacity:1"
         id="circle4253"
         cx="51.839222"
         cy="961.54608"
         r="5.3788061" />
      <path
         inkscape:connector-curvature="0"
         style="opacity:1;fill:#000000;fill-opacity:0.13135591;stroke:none;stroke-width:2;stroke-linecap:round;stroke-linejoin:round;stroke-miterlimit:4;stroke-dasharray:none;stroke-opacity:1"
         d="m 54.570312,32.556641 a 5.3788061,5.3788061 0 0 1 1.324219,3.52539 5.3788061,5.3788061 0 0 1 -5.378906,5.378907 5.3788061,5.3788061 0 0 1 -2.730469,-0.751954 5.3788061,5.3788061 0 0 0 4.054688,1.853516 5.3788061,5.3788061 0 0 0 5.378906,-5.378906 5.3788061,5.3788061 0 0 0 -2.648438,-4.626953 z"
         transform="translate(0,924.36216)"
         id="path4255" />
    </g>
    <g
       id="g4257"
       transform="matrix(0.53051122,0,0,0.53051122,-1.8673926,489.0733)">
      <circle
         style="opacity:1;fill:#000000;fill-opacity:0.12288136;stroke:none;stroke-width:2;stroke-linecap:round;stroke-linejoin:round;stroke-miterlimit:4;stroke-dasharray:none;stroke-opacity:1"
         id="circle4259"
         cx="52.390438"
         cy="962.42804"
         r="5.3788061" />
      <circle
         r="5.3788061"
         cy="961.54608"
         cx="51.839222"
         id="circle4261"
         style="opacity:1;fill:#956332;fill-opacity:1;stroke:none;stroke-width:2;stroke-linecap:round;stroke-linejoin:round;stroke-miterlimit:4;stroke-dasharray:none;stroke-opacity:1" />
      <path
         id="path4263"
         transform="translate(0,924.36216)"
         d="m 54.570312,32.556641 a 5.3788061,5.3788061 0 0 1 1.324219,3.52539 5.3788061,5.3788061 0 0 1 -5.378906,5.378907 5.3788061,5.3788061 0 0 1 -2.730469,-0.751954 5.3788061,5.3788061 0 0 0 4.054688,1.853516 5.3788061,5.3788061 0 0 0 5.378906,-5.378906 5.3788061,5.3788061 0 0 0 -2.648438,-4.626953 z"
         style="opacity:1;fill:#000000;fill-opacity:0.13135591;stroke:none;stroke-width:2;stroke-linecap:round;stroke-linejoin:round;stroke-miterlimit:4;stroke-dasharray:none;stroke-opacity:1"
         inkscape:connector-curvature="0" />
    </g>
    <path
       style="fill:#000000;fill-opacity:0.12288136;fill-rule:evenodd;stroke:none;stroke-width:1px;stroke-linecap:butt;stroke-linejoin:miter;stroke-opacity:1"
       d="m 110.34961,935.45601 -1.16758,0.25971 c 0,0 0.12897,2.65922 1.556,3.243 1.00216,0.40998 4.06932,3.02195 6.19641,4.86796 3.53556,0.69631 5.37081,0.10308 6.28145,-0.52174 -0.30039,-0.10555 -3.95629,-1.39456 -4.95299,-2.14207 -1.03785,-0.77839 -3.43658,-4.08548 -3.9555,-4.21522 -0.51892,-0.12972 -3.95779,-1.49164 -3.95779,-1.49164 z"
       id="path4272"
       inkscape:connector-curvature="0" />
    <path
       style="fill:#4c2500;fill-opacity:1;fill-rule:evenodd;stroke:none;stroke-width:1px;stroke-linecap:butt;stroke-linejoin:miter;stroke-opacity:1"
       d="m 114.33021,937.80493 c 0,0 -1.65121,0.55039 -2.752,0.36693 -1.10081,-0.18347 -2.56853,-2.56853 -2.56853,-2.56853 0,0 2.93546,-6.05441 4.58666,-6.42133 1.65121,-0.36694 9.17333,-0.91734 10.82453,0.36692 1.65121,1.28427 3.11894,3.85281 1.28427,4.9536 -1.83466,1.10081 -5.87094,-1.46773 -7.88907,-1.10079 -2.01813,0.36693 -2.93546,-0.36694 -3.48586,1.10079 -0.5504,1.46774 0,3.30241 0,3.30241 z"
       id="path4270"
       inkscape:connector-curvature="0" />
  </g>
</svg>
