<?xml version="1.0" encoding="UTF-8" standalone="no"?>
<!-- Created with Inkscape (http://www.inkscape.org/) -->

<svg
   xmlns:dc="http://purl.org/dc/elements/1.1/"
   xmlns:cc="http://creativecommons.org/ns#"
   xmlns:rdf="http://www.w3.org/1999/02/22-rdf-syntax-ns#"
   xmlns:svg="http://www.w3.org/2000/svg"
   xmlns="http://www.w3.org/2000/svg"
   xmlns:sodipodi="http://sodipodi.sourceforge.net/DTD/sodipodi-0.dtd"
   xmlns:inkscape="http://www.inkscape.org/namespaces/inkscape"
   width="128mm"
   height="128mm"
   viewBox="0 0 453.54331 453.54331"
   id="svg2"
   version="1.1"
   inkscape:version="0.91 r13725"
   sodipodi:docname="bull_head.svg">
  <defs
     id="defs4" />
  <sodipodi:namedview
     id="base"
     pagecolor="#ffffff"
     bordercolor="#666666"
     borderopacity="1.0"
     inkscape:pageopacity="0.0"
     inkscape:pageshadow="2"
     inkscape:zoom="1.810191"
     inkscape:cx="212.71586"
     inkscape:cy="220.58961"
     inkscape:document-units="px"
     inkscape:current-layer="layer1"
     showgrid="false"
     inkscape:window-width="1920"
     inkscape:window-height="1018"
     inkscape:window-x="-8"
     inkscape:window-y="-8"
     inkscape:window-maximized="1" />
  <metadata
     id="metadata7">
    <rdf:RDF>
      <cc:Work
         rdf:about="">
        <dc:format>image/svg+xml</dc:format>
        <dc:type
           rdf:resource="http://purl.org/dc/dcmitype/StillImage" />
        <dc:title></dc:title>
      </cc:Work>
    </rdf:RDF>
  </metadata>
  <g
     inkscape:label="Calque 1"
     inkscape:groupmode="layer"
     id="layer1"
     transform="translate(0,-598.8189)">
    <path
       style="fill:#a1907f;fill-rule:evenodd;stroke:none;stroke-width:1px;stroke-linecap:butt;stroke-linejoin:miter;stroke-opacity:1;fill-opacity:1"
       d="M 154.81055 42.294922 C 154.1103 42.320817 153.50681 42.399002 153.02344 42.537109 C 149.15644 43.641959 146.94531 53.033203 146.94531 53.033203 L 143.74219 72.255859 A 186.99684 186.99684 0 0 0 34.757812 241.95508 A 186.99684 186.99684 0 0 0 221.75391 428.95117 A 186.99684 186.99684 0 0 0 408.75 241.95508 A 186.99684 186.99684 0 0 0 221.75391 54.958984 A 186.99684 186.99684 0 0 0 214.06641 55.230469 C 212.62029 51.370515 211.58008 48.613281 211.58008 48.613281 C 211.58008 48.613281 201.63591 46.404906 196.66406 47.509766 C 191.69221 48.614616 181.74828 48.614007 175.11914 46.404297 C 169.31865 44.470801 159.71226 42.113654 154.81055 42.294922 z "
       transform="translate(0,598.8189)"
       id="path4151" />
    <path
       style="fill:#746555;fill-opacity:1;fill-rule:evenodd;stroke:none;stroke-width:1px;stroke-linecap:butt;stroke-linejoin:miter;stroke-opacity:1"
       d="M 104.72656,96.650391 C 78.350319,117.81625 58.20773,145.73886 46.443359,177.44531 c 0,0 16.924829,-27.86161 27.384776,-30.54298 54.262305,-13.9099 60.937485,-12.10936 60.937485,-12.10936 l -21.09374,-32.8125 z"
       transform="translate(0,598.8189)"
       id="path4174"
       inkscape:connector-curvature="0"
       sodipodi:nodetypes="ccsccc" />
    <path
       sodipodi:nodetypes="ccscsc"
       inkscape:connector-curvature="0"
       id="path4140"
       d="m 168.71231,654.42624 -1.34842,75.51136 c 0,0 -116.234761,16.82814 -137.089071,-5.39367 -27.4178,-29.2157 -35.5083103,-124.95331 -35.5083103,-124.95331 0,0 56.1840503,73.26399 94.8386603,58.4314 35.883401,-13.76921 79.107141,-3.59578 79.107141,-3.59578 z"
       style="fill:#d0b9a2;fill-opacity:1;fill-rule:evenodd;stroke:none;stroke-width:1px;stroke-linecap:butt;stroke-linejoin:miter;stroke-opacity:1" />
    <path
       style="fill:#b6967b;fill-rule:evenodd;stroke:none;stroke-width:1px;stroke-linecap:butt;stroke-linejoin:miter;stroke-opacity:1;fill-opacity:1"
       d="M 133.58203 51.988281 C 128.40994 51.979991 122.92195 52.214646 117.30664 52.8125 C 118.09783 54.465634 119.87695 57.062228 119.87695 58.005859 C 119.87695 59.386929 117.66777 62.147407 113.80078 63.804688 C 109.93378 65.461968 124.02048 61.596182 115.18164 71.263672 C 106.34279 80.931162 100.26663 82.311868 103.85742 86.455078 C 107.4482 90.598288 112.41963 94.742071 106.61914 98.056641 C 100.81864 101.37121 108.2752 105.78987 104.4082 110.76172 C 100.54121 115.73357 94.465343 111.31361 98.884766 116.83789 C 103.30419 122.36217 108.82803 126.50636 106.89453 130.92578 C 106.14676 132.63496 105.07238 134.79466 104.12695 136.85352 C 123.03608 136.09316 141.07099 134.30608 153.05859 132.91992 C 158.2858 124.4049 164.8985 112.05395 165.45312 111.31445 C 165.96054 110.6379 167.24749 95.725768 168.20703 83.900391 L 168.47852 68.697266 L 157.86328 53.708984 C 151.62586 52.843166 143.15397 52.003624 133.58203 51.988281 z "
       transform="translate(0,598.8189)"
       id="path4201" />
    <path
       style="fill:#aa8465;fill-rule:evenodd;stroke:none;stroke-width:1px;stroke-linecap:butt;stroke-linejoin:miter;stroke-opacity:1;fill-opacity:1"
       d="M 137.25 52.035156 C 134.35316 55.266571 130.0583 62.209065 127.33398 76.511719 C 122.91456 99.713689 122.91602 120.42978 122.91602 122.36328 C 122.91602 124.21123 123.17011 131.02839 123.43359 135.73438 C 130.63703 135.20235 137.38296 134.58694 143.3418 133.97656 L 145.28906 132.0293 C 145.28906 132.0293 143.90655 109.65771 144.45898 105.23828 C 145.0114 100.81886 148.8793 83.968997 151.36523 72.091797 C 153.85115 60.214597 158.54688 55.794922 158.54688 55.794922 L 158.72852 54.931641 L 157.86328 53.708984 C 152.43581 52.955596 145.31375 52.223055 137.25 52.035156 z "
       transform="translate(0,598.8189)"
       id="path4209" />
    <path
       style="fill:#a1907f;fill-opacity:1;fill-rule:evenodd;stroke:none;stroke-width:1px;stroke-linecap:butt;stroke-linejoin:miter;stroke-opacity:1"
       d="m 150.09785,644.84213 c 0,0 -20.01956,19.43362 -18.06642,44.23834 1.9308,24.5211 1.95312,41.79693 5.85937,46.09381 3.90626,4.29688 20.31253,4.68751 22.65629,4.68751 2.34375,0 17.96877,-1.5625 21.4844,-1.95313 3.51563,-0.39062 5.07813,-32.42191 5.07813,-32.42191 0,0 -3.51563,-17.96878 -3.90625,-20.70316 -0.39063,-2.73437 -0.78125,-28.90628 -1.56251,-30.85941 -0.78125,-1.95313 -15.23439,-7.81251 -15.23439,-7.81251"
       id="path4157"
       inkscape:connector-curvature="0"
       sodipodi:nodetypes="csssscssc" />
    <path
       style="opacity:1;fill:#94756e;fill-opacity:1;stroke:none;stroke-width:2;stroke-linecap:round;stroke-linejoin:round;stroke-miterlimit:4;stroke-dasharray:none;stroke-opacity:1"
       d="M 162.41406 90.044922 A 8.2864189 8.5626326 0 0 0 154.12695 98.607422 A 8.2864189 8.5626326 0 0 0 162.41406 107.17188 A 8.2864189 8.5626326 0 0 0 170.70117 98.607422 A 8.2864189 8.5626326 0 0 0 162.41406 90.044922 z M 167.10938 128.16406 A 14.639339 15.744195 0 0 0 152.4707 143.9082 A 14.639339 15.744195 0 0 0 167.10938 159.65234 A 14.639339 15.744195 0 0 0 181.74805 143.9082 A 14.639339 15.744195 0 0 0 167.10938 128.16406 z M 134.79297 148.05078 A 27.068968 25.687897 0 0 0 107.72266 173.73828 A 27.068968 25.687897 0 0 0 107.82031 175.78906 A 34.802959 36.460243 0 0 0 88.857422 183.56836 A 12.705842 14.363126 0 0 0 76.234375 170.70117 A 12.705842 14.363126 0 0 0 63.529297 185.0625 A 12.705842 14.363126 0 0 0 76.234375 199.42578 A 12.705842 14.363126 0 0 0 77.960938 199.27734 A 34.802959 36.460243 0 0 0 75.683594 212.13281 A 34.802959 36.460243 0 0 0 76.773438 221.05273 A 33.698101 33.974316 0 0 0 67.632812 225.74023 A 12.153414 12.705842 0 0 0 59.109375 222.07617 A 12.153414 12.705842 0 0 0 46.957031 234.78125 A 12.153414 12.705842 0 0 0 54.283203 246.4375 A 33.698101 33.974316 0 0 0 53.585938 253.28906 A 33.698101 33.974316 0 0 0 87.283203 287.26172 A 33.698101 33.974316 0 0 0 120.98242 253.28906 A 33.698101 33.974316 0 0 0 120.39062 247.05664 A 34.802959 36.460243 0 0 0 145.28906 212.13281 A 34.802959 36.460243 0 0 0 142.65625 198.29492 A 27.068968 25.687897 0 0 0 161.86133 173.73828 A 27.068968 25.687897 0 0 0 134.79297 148.05078 z "
       transform="translate(0,598.8189)"
       id="path4186" />
    <path
       style="fill:#510606;fill-rule:evenodd;stroke:none;stroke-width:1px;stroke-linecap:butt;stroke-linejoin:miter;stroke-opacity:1;fill-opacity:1"
       d="m 42.968807,889.47136 -1.953128,-5.07813 c 0,0 -1.953127,2.34376 6.640634,-1.5625 8.593761,-3.90625 15.62502,-11.71876 18.359399,-16.40627 2.734379,-4.68751 5.859383,-13.67189 6.640634,-21.4844 0.781251,-7.81251 7.81251,-24.21879 12.109391,-26.56254 4.29688,-2.34375 14.843769,-7.03126 23.828153,-13.67189 8.98439,-6.64064 19.53128,-15.2344 21.87503,-17.96878 2.34376,-2.73437 16.7969,-19.9219 18.3594,-24.6094 1.5625,-4.68751 7.03126,-12.50002 9.37501,-15.62502 2.34376,-3.12501 6.25001,-6.25001 12.10939,-10.15627 5.85939,-3.90625 10.15627,-10.93751 10.93752,-14.45314 0.78125,-3.51563 2.73438,-7.81251 2.73438,-12.89064 0,-5.07814 -4.29688,-14.84377 -4.29688,-19.53128 0,-4.68751 -1.56251,-7.81251 -1.56251,-12.10939 0,-4.29688 5.07814,-13.67189 7.81252,-16.40627 2.73437,-2.73438 3.90625,-6.64064 7.42188,-9.37501 3.51563,-2.73438 13.28127,-5.07814 13.28127,-5.07814 0,0 24.21878,14.84377 25.39066,22.65628 1.17187,7.81251 4.29688,110.93765 3.125,115.62516 -1.17188,4.6875 -57.03133,100.00013 -57.03133,100.00013 L 94.922,920.72141 78.125103,918.76828"
       id="path4162"
       inkscape:connector-curvature="0" />
    <path
       style="opacity:1;fill:#472f1f;fill-opacity:1;stroke:none;stroke-width:2;stroke-linecap:round;stroke-linejoin:round;stroke-miterlimit:4;stroke-dasharray:none;stroke-opacity:1"
       d="M 221.75391 54.958984 A 186.99684 186.99684 0 0 0 194.9668 57.074219 C 191.90967 62.849457 188.69534 67.867124 187.27344 70.710938 C 183.40644 78.444927 188.37733 95.01846 196.11133 107.17188 C 203.84532 119.32528 193.90307 125.40108 191.69336 133.6875 C 189.48365 141.97392 168.49035 146.94593 165.17578 148.05078 C 161.86122 149.15564 152.4707 172.35811 152.4707 180.64453 C 152.4707 188.93095 139.21116 197.76911 132.58203 200.53125 C 125.95289 203.29339 101.09429 217.1037 95.017578 220.9707 C 88.940871 224.83769 84.522402 244.17287 86.179688 253.01172 C 87.836971 261.85056 74.578354 277.31855 67.949219 281.18555 C 61.320084 285.05254 49.718559 287.81476 45.851562 288.36719 C 44.995677 288.48946 42.856129 287.29811 40.103516 285.43359 A 186.99684 186.99684 0 0 0 41.9375 291.69922 L 38.669922 303.83594 L 41.984375 327.03711 C 41.984375 327.03711 44.746706 317.64576 45.851562 319.85547 C 46.956418 322.06518 51.927734 351.34375 51.927734 351.34375 L 58.005859 339.74219 L 64.082031 365.1543 L 69.052734 354.6582 L 91.150391 385.04297 L 91.150391 376.75586 L 104.96094 399.40625 L 107.17188 392.77539 L 134.79297 419.29297 L 136.44922 412.66406 L 160.20312 424.26367 L 160.20312 420.39844 L 183.95898 434.20898 L 189.48242 426.47461 L 206.05469 436.41797 L 211.58008 428.68359 L 236.99219 436.9707 L 240.85938 429.78906 L 253.01172 438.62695 L 259.64062 426.47461 L 276.76562 435.86523 L 281.18555 423.16016 C 281.18555 423.16016 290.02466 433.10328 292.23438 432.55078 C 294.44408 431.99838 312.12109 413.76758 312.12109 413.76758 C 312.12109 413.76758 327.03711 412.11171 327.03711 409.34961 C 327.03711 406.58741 329.24609 396.64258 329.24609 396.64258 L 341.95312 415.42578 L 346.37305 389.46094 L 369.02148 397.74805 L 365.1543 370.67969 L 376.20312 384.49023 L 382.83203 340.84766 L 394.98633 357.97266 L 395.53906 324.82812 C 395.53906 324.82812 410.45385 351.34421 408.24414 338.08594 C 406.03443 324.82767 400.50977 307.15039 400.50977 307.15039 L 409.90234 311.01758 L 406.03516 293.33984 L 413.76758 292.78711 L 407.13867 270.13672 C 407.13867 270.13672 420.39844 282.28979 420.39844 280.08008 C 420.39844 277.87037 413.76758 250.80273 413.76758 250.80273 C 413.76758 250.80273 428.1317 257.98369 422.60742 249.69727 C 417.08315 241.41085 408.24414 220.9707 408.24414 220.9707 C 408.24414 220.9707 424.81775 218.7605 423.71289 216.55078 C 422.60803 214.34107 406.03516 193.90234 406.03516 193.90234 C 406.03516 193.90234 420.39805 198.32218 412.66406 191.14062 C 405.74332 184.71423 396.17078 172.23059 394.14062 169.55469 A 186.99684 186.99684 0 0 0 393.70703 168.55469 C 395.59382 168.87284 407.74493 170.71082 401.61523 164.07031 C 394.9861 156.88875 386.69922 146.94531 386.69922 146.94531 L 390.56641 139.21094 C 390.56641 139.21094 383.93823 138.10742 381.72852 138.10742 L 377.1543 138.10742 A 186.99684 186.99684 0 0 0 221.75391 54.958984 z "
       transform="translate(0,598.8189)"
       id="path4136" />
    <path
       style="fill:#d0b9a2;fill-opacity:1;fill-rule:evenodd;stroke:none;stroke-width:1px;stroke-linecap:butt;stroke-linejoin:miter;stroke-opacity:1"
       d="m 271.17311,654.42624 1.34842,75.51136 c 0,0 116.23476,16.82814 137.08907,-5.39367 27.4178,-29.2157 35.50831,-124.95331 35.50831,-124.95331 0,0 -56.18405,73.26399 -94.83866,58.4314 -35.8834,-13.76921 -79.10714,-3.59578 -79.10714,-3.59578 z"
       id="path4138"
       inkscape:connector-curvature="0"
       sodipodi:nodetypes="ccscsc" />
    <path
       style="fill:#b6967b;fill-rule:evenodd;stroke:none;stroke-width:1px;stroke-linecap:butt;stroke-linejoin:miter;stroke-opacity:1;fill-opacity:1"
       d="M 306.30273 51.988281 C 286.4107 52.020166 271.17383 55.607422 271.17383 55.607422 L 272.0918 107.02539 C 278.64631 115.45545 287.64454 126.57732 293.41016 133.64844 C 302.81126 134.65039 314.48628 135.72744 326.99023 136.43555 C 327.13159 135.38995 327.16407 134.55764 327.03711 134.24023 C 326.48468 132.85916 320.13291 129.82083 322.06641 128.99219 C 323.9999 128.16355 324.27601 120.70467 325.38086 118.21875 C 326.48572 115.73282 316.81836 107.44727 316.81836 107.44727 C 316.81836 107.44727 322.6177 100.81775 321.78906 99.712891 C 320.96042 98.608041 311.01605 92.531367 308.25391 89.216797 C 305.49177 85.902237 314.60742 85.902344 314.60742 85.902344 C 314.60742 85.902344 308.53042 73.196647 308.80664 72.091797 C 309.08285 70.986937 313.50195 67.671875 313.50195 67.671875 L 304.38867 61.320312 C 304.38867 61.320312 310.18873 58.833071 312.39844 57.175781 C 313.4789 56.365436 310.91748 54.103472 308.02734 52.001953 C 307.4518 51.996897 306.87093 51.98737 306.30273 51.988281 z "
       transform="translate(0,598.8189)"
       id="path4214" />
    <path
       style="fill:#472f1f;fill-rule:evenodd;stroke:none;stroke-width:1px;stroke-linecap:butt;stroke-linejoin:miter;stroke-opacity:1;fill-opacity:1"
       d="M 251.59375 25.917969 C 251.66914 25.881554 251.59716 25.89579 251.35547 25.964844 C 250.90215 26.094363 250.25383 26.345214 249.49219 26.675781 C 250.50175 26.321533 251.45617 25.984422 251.59375 25.917969 z M 249.49219 26.675781 C 242.20352 29.233331 215.60863 38.117188 213.78906 38.117188 C 211.57935 38.117188 213.23633 29.279297 213.23633 29.279297 L 201.14453 41.855469 C 198.50482 53.000205 189.88071 65.496395 187.27344 70.710938 C 183.40644 78.444927 188.37733 95.018465 196.11133 107.17188 C 203.84532 119.32529 193.90307 125.40108 191.69336 133.6875 C 190.07726 139.74787 178.45393 144.0141 171.00781 146.3125 L 271.24219 153.57422 L 325.38086 148.05078 L 311.57031 137.55469 L 328.69531 138.10742 L 311.57031 124.29688 C 311.57031 124.29688 328.6952 120.42969 332.00977 120.42969 C 335.32434 120.42969 315.43555 108.27539 315.43555 108.27539 C 315.43555 108.27539 330.90357 104.96063 333.11328 104.4082 C 335.323 103.85577 312.12109 88.388672 312.12109 88.388672 C 312.12109 88.388672 327.03822 86.732117 332.5625 86.179688 C 338.08678 85.627258 314.88477 74.025391 314.88477 74.025391 C 314.88477 74.025391 340.29481 73.472352 343.60938 72.919922 C 346.92394 72.367492 309.91142 62.976984 301.625 60.214844 C 293.33859 57.452704 310.46484 54.138672 310.46484 54.138672 L 297.20703 49.71875 L 300.52148 36.460938 L 267.375 43.089844 L 287.81445 34.25 C 287.81445 34.25 239.20067 38.669303 234.78125 37.564453 C 230.8799 36.589112 243.75665 29.165107 249.49219 26.675781 z "
       transform="translate(0,598.8189)"
       id="path4142" />
    <path
       style="fill:#a15953;fill-rule:evenodd;stroke:none;stroke-width:1px;stroke-linecap:butt;stroke-linejoin:miter;stroke-opacity:1;fill-opacity:1"
       d="M 445.11914 0.77148438 C 445.11914 0.77148438 430.27985 20.099269 410.61914 36.892578 C 409.42579 41.266056 406.61861 49.50071 401.5625 53.152344 C 394.53124 58.230474 380.46875 78.542969 380.46875 78.542969 L 371.48438 106.66797 C 371.48438 106.66797 384.375 85.964844 387.10938 82.839844 C 389.84375 79.714844 410.15625 56.277334 410.15625 57.839844 C 410.15625 59.402344 411.32814 63.308584 408.98438 67.996094 C 406.64062 72.683604 401.17188 89.089844 401.17188 89.089844 C 401.17188 89.089844 409.375 84.792974 410.15625 81.277344 C 410.9375 77.761714 414.84376 67.214834 416.79688 71.121094 C 418.75 75.027344 419.14062 80.496089 417.57812 84.011719 C 416.01562 87.527349 411.71875 104.32422 411.71875 104.32422 L 429.6875 67.214844 C 429.6875 67.214844 428.90625 79.324219 427.73438 81.667969 C 426.5625 84.011729 423.4375 91.433594 423.4375 91.433594 L 423.4375 102.43359 C 439.85033 63.007328 445.11914 0.77148438 445.11914 0.77148438 z "
       transform="translate(0,598.8189)"
       id="path4181" />
  </g>
</svg>
