<?xml version="1.0" encoding="UTF-8" standalone="no"?>
<!-- Created with Inkscape (http://www.inkscape.org/) -->

<svg
   xmlns:dc="http://purl.org/dc/elements/1.1/"
   xmlns:cc="http://creativecommons.org/ns#"
   xmlns:rdf="http://www.w3.org/1999/02/22-rdf-syntax-ns#"
   xmlns:svg="http://www.w3.org/2000/svg"
   xmlns="http://www.w3.org/2000/svg"
   xmlns:sodipodi="http://sodipodi.sourceforge.net/DTD/sodipodi-0.dtd"
   xmlns:inkscape="http://www.inkscape.org/namespaces/inkscape"
   width="256"
   height="256"
   viewBox="0 0 256 256"
   id="svg4220"
   version="1.1"
   inkscape:version="0.91 r13725"
   sodipodi:docname="bull.svg"
   inkscape:export-filename="C:\Prog\Projets\teeworlds\skins\bull.png"
   inkscape:export-xdpi="90"
   inkscape:export-ydpi="90">
  <defs
     id="defs4222" />
  <sodipodi:namedview
     id="base"
     pagecolor="#ffffff"
     bordercolor="#666666"
     borderopacity="1.0"
     inkscape:pageopacity="0.0"
     inkscape:pageshadow="2"
     inkscape:zoom="3.2070312"
     inkscape:cx="153.93574"
     inkscape:cy="146.70375"
     inkscape:document-units="px"
     inkscape:current-layer="layer1-1"
     showgrid="false"
     units="px"
     showguides="false"
     inkscape:window-width="1920"
     inkscape:window-height="1018"
     inkscape:window-x="-8"
     inkscape:window-y="-8"
     inkscape:window-maximized="1" />
  <metadata
     id="metadata4225">
    <rdf:RDF>
      <cc:Work
         rdf:about="">
        <dc:format>image/svg+xml</dc:format>
        <dc:type
           rdf:resource="http://purl.org/dc/dcmitype/StillImage" />
        <dc:title></dc:title>
      </cc:Work>
    </rdf:RDF>
  </metadata>
  <g
     inkscape:label="Calque 1"
     inkscape:groupmode="layer"
     id="layer1"
     transform="translate(0,-796.36216)">
    <path
       style="fill:#000000;fill-opacity:0.50196081;fill-rule:evenodd;stroke:none;stroke-width:1px;stroke-linecap:butt;stroke-linejoin:miter;stroke-opacity:1"
       d="M 92.144531 173.35547 C 92.074162 173.85781 90.624396 173.64045 90.347656 173.59375 A 35.05946 35.05946 0 0 1 90.429688 173.78125 C 90.810316 174.28295 92.604796 176.62326 93.902344 177.82812 C 95.352359 179.17458 92.660156 178.3457 92.660156 178.3457 C 92.660155 178.3457 95.767469 182.1775 95.974609 182.5918 C 96.181759 183.00609 93.074219 183.41992 93.074219 183.41992 C 93.074219 183.41992 94.731851 187.25304 95.767578 188.80664 C 96.803308 190.36023 94.109375 189.01367 94.109375 189.01367 C 94.109375 189.01367 95.353516 194.08766 95.353516 194.50195 C 95.353516 194.91624 92.867185 192.63867 92.867188 192.63867 L 94.109375 196.88477 L 92.660156 196.98828 L 93.384766 200.30273 L 91.625 199.57812 C 91.625 199.57812 92.659928 202.89117 93.074219 205.37695 C 93.488511 207.86265 90.691406 202.89258 90.691406 202.89258 L 90.587891 209.10547 L 88.310547 205.89648 L 87.066406 214.07812 L 84.996094 211.48828 L 85.720703 216.56445 L 81.474609 215.00977 L 80.644531 219.87891 L 78.263672 216.35742 C 78.263672 216.35742 77.849609 218.22038 77.849609 218.73828 C 77.849609 219.25618 75.052734 219.56641 75.052734 219.56641 C 75.052734 219.56641 71.738509 222.98429 71.324219 223.08789 C 70.909925 223.19149 69.251953 221.32814 69.251953 221.32812 L 68.423828 223.71094 L 65.212891 221.94922 L 63.970703 224.22852 L 61.691406 222.57031 L 60.966797 223.91797 L 56.203125 222.36328 L 55.166016 223.81445 L 52.058594 221.94922 L 51.023438 223.40039 L 46.570312 220.81055 L 46.570312 221.53516 L 42.115234 219.35938 L 41.804688 220.60352 L 36.626953 215.63086 L 36.298828 216.61523 L 38.611328 219.79492 L 38.611328 218.24219 L 41.201172 222.48828 L 41.615234 221.24414 L 46.792969 226.2168 L 47.103516 224.97266 L 51.558594 227.14844 L 51.558594 226.42383 L 56.011719 229.01367 L 57.046875 227.5625 L 60.154297 229.42773 L 61.191406 227.97656 L 65.955078 229.53125 L 66.679688 228.18359 L 68.958984 229.8418 L 70.201172 227.5625 L 73.412109 229.32422 L 74.240234 226.94141 C 74.240234 226.94141 75.898206 228.80477 76.3125 228.70117 C 76.72679 228.59757 80.041016 225.17969 80.041016 225.17969 C 80.041016 225.17969 82.837891 224.86946 82.837891 224.35156 C 82.837891 223.83366 83.251953 221.9707 83.251953 221.9707 L 85.632812 225.49219 L 86.462891 220.62305 L 90.708984 222.17773 L 89.984375 217.10156 L 92.054688 219.69141 L 93.298828 211.50977 L 95.576172 214.71875 L 95.679688 208.50586 C 95.679688 208.50586 98.476792 213.47593 98.0625 210.99023 C 97.648209 208.50443 96.613281 205.19141 96.613281 205.19141 L 98.373047 205.91602 L 97.648438 202.60156 L 99.097656 202.49805 L 97.855469 198.25195 C 97.855469 198.25195 100.3418 200.52952 100.3418 200.11523 C 100.3418 199.70094 99.097656 194.62695 99.097656 194.62695 C 99.097656 194.62695 101.79159 195.97351 100.75586 194.41992 C 99.720129 192.86632 98.0625 189.0332 98.0625 189.0332 C 98.0625 189.0332 101.17004 188.61937 100.96289 188.20508 C 100.75575 187.79078 97.648437 183.95898 97.648438 183.95898 C 97.648438 183.95898 100.34064 184.78786 98.890625 183.44141 C 97.593077 182.23655 95.798597 179.89623 95.417969 179.39453 A 35.05946 35.05946 0 0 0 95.335938 179.20703 C 95.689684 179.26673 97.969555 179.61023 96.820312 178.36523 C 95.577438 177.01878 94.023437 175.1543 94.023438 175.1543 L 94.748047 173.70508 C 94.748047 173.70508 93.506088 173.49805 93.091797 173.49805 L 92.234375 173.49805 A 35.05946 35.05946 0 0 0 92.226562 173.48828 A 35.05946 35.05946 0 0 0 92.144531 173.35547 z "
       transform="translate(0,796.36216)"
       id="path4883" />
    <path
       style="fill:#000000;fill-opacity:1;fill-rule:evenodd;stroke:#000000;stroke-width:8;stroke-linecap:butt;stroke-linejoin:round;stroke-opacity:1;stroke-miterlimit:4;stroke-dasharray:none"
       d="m 20.229681,816.26646 c 0,0 1.515772,17.95017 6.65625,23.42773 1.141345,1.21619 3.823316,1.7983 7.02539,2.02735 a 35.05946,35.05946 0 0 0 -1.802734,2.92187 c -0.160406,0.29042 -0.314561,0.58377 -0.466797,0.87891 a 35.05946,35.05946 0 0 0 -0.798828,1.62109 c -0.332642,0.7357 -0.641707,1.48408 -0.923828,2.24414 -5.06e-4,0.001 -0.0014,0.003 -0.002,0.004 a 35.05946,35.05946 0 0 0 -2.189453,12.09375 35.05946,35.05946 0 0 0 1.322265,9.41406 l -0.589843,2.18945 0.621093,4.34961 c 0,0 0.517464,-1.76194 0.72461,-1.34765 0.207146,0.4143 1.140625,5.90429 1.140625,5.90429 l 1.138672,-2.17578 1.138671,4.76563 0.933594,-1.96875 4.142578,5.69726 0,-1.55469 2.589844,4.24805 0.414063,-1.24414 5.177734,4.97266 0.310547,-1.24414 4.453125,2.17578 0,-0.72461 4.455078,2.58789 1.035156,-1.44922 3.107422,1.86523 1.035156,-1.45117 4.765625,1.55469 0.72461,-1.34766 2.277344,1.65821 1.24414,-2.2793 3.210938,1.75977 0.828125,-2.38086 c 0,0 1.657971,1.86335 2.072265,1.75976 0.41429,-0.10357 3.728516,-3.52148 3.728516,-3.52148 0,0 2.794922,-0.31027 2.794922,-0.82813 0,-0.51787 0.414062,-2.38281 0.414062,-2.38281 l 2.382813,3.52148 0.828125,-4.86718 4.248047,1.55273 -0.726563,-5.07422 2.072266,2.58985 1.242187,-8.1836 2.279297,3.21094 0.103516,-6.21289 c 0,0 2.797104,4.97012 2.382812,2.48437 -0.414291,-2.48575 -1.451172,-5.79882 -1.451172,-5.79882 l 1.761719,0.72461 -0.724609,-3.31446 1.449218,-0.10351 -1.242187,-4.2461 c 0,0 2.484376,2.27757 2.484376,1.86328 0,-0.41429 -1.242189,-5.48828 -1.242189,-5.48828 0,0 2.691989,1.34656 1.656249,-0.20703 -1.035727,-1.5536 -2.691405,-5.38672 -2.691405,-5.38672 0,0 3.107535,-0.41383 2.900395,-0.82812 -0.20715,-0.4143 -3.314457,-4.2461 -3.314457,-4.2461 0,0 2.692207,0.82888 1.242187,-0.51757 -1.297548,-1.20486 -3.092028,-3.54713 -3.472656,-4.04883 a 35.05946,35.05946 0 0 0 -0.0039,-0.01 35.05946,35.05946 0 0 0 -0.07813,-0.17578 35.05946,35.05946 0 0 0 0,-0.002 c 0.353749,0.0597 2.631661,0.40515 1.482422,-0.83985 -1.242875,-1.34645 -2.794922,-3.21093 -2.794922,-3.21093 l 0.724609,-1.44922 c 0,0 -1.243912,-0.20703 -1.658203,-0.20703 l -0.857422,0 a 35.05946,35.05946 0 0 0 -0.220703,-0.35547 c 2.878351,-0.26402 5.251955,-0.84295 6.306641,-1.9668 0.995986,-1.0613 1.852551,-2.59661 2.591795,-4.37305 l 0,0.006 c 0.19703,-0.47328 0.38427,-0.96458 0.56446,-1.46875 0.0907,-0.25389 0.17514,-0.5172 0.26171,-0.77734 0.10327,-0.31023 0.20528,-0.62006 0.30274,-0.9375 0.0898,-0.29265 0.17476,-0.58747 0.25976,-0.88477 0.0849,-0.29662 0.16792,-0.59274 0.24805,-0.89257 0.077,-0.28815 0.15385,-0.57345 0.22656,-0.86328 0.0481,-0.1915 0.0905,-0.38049 0.13672,-0.57227 0.23331,-0.96801 0.45006,-1.93537 0.63867,-2.88281 2.6e-4,-0.001 -2.6e-4,-0.003 0,-0.004 0.0512,-0.25732 0.0867,-0.48662 0.13477,-0.74023 0.18217,-0.9601 0.34704,-1.88062 0.48633,-2.75586 0.0676,-0.42455 0.11769,-0.77798 0.17578,-1.17383 0.0932,-0.6333 0.17579,-1.21062 0.24609,-1.75195 0.0467,-0.35979 0.0663,-0.49386 0.10352,-0.80469 0.1869,-1.5327 0.2793,-2.55078 0.2793,-2.55078 0,0 -0.68726,0.89578 -1.82032,2.17187 -0.10446,0.11773 -0.2552,0.2686 -0.36718,0.39258 -0.51431,0.56878 -1.06337,1.16803 -1.71485,1.82227 -0.0394,0.0396 -0.0832,0.0794 -0.12305,0.11914 -0.33281,0.33199 -0.676378,0.66953 -1.037105,1.00781 -0.107111,0.10047 -0.222709,0.19835 -0.332032,0.29883 -0.312314,0.28695 -0.628525,0.57444 -0.957031,0.85742 -3.510057,3.02353 -7.863576,5.6528 -11.427734,4.28516 -2.61975,-1.00526 -5.436712,-1.3202 -7.914063,-1.3418 -0.0033,-0.002 -0.0045,-0.005 -0.0078,-0.008 -0.107906,-9.6e-4 -0.217689,-0.002 -0.324219,-0.002 -0.137237,2.2e-4 -0.263663,0.008 -0.398437,0.01 l -1.306641,-0.43555 0.621094,-2.48633 -6.214844,1.24414 3.832031,-1.6582 c 0,0 -9.114776,0.82824 -9.943359,0.62109 -0.731452,-0.18286 1.684426,-1.57429 2.759765,-2.04101 -1.36653,0.47951 -6.354166,2.14453 -6.695312,2.14453 -0.414291,0 -0.103516,-1.65625 -0.103516,-1.65625 l -2.265625,2.35742 c -0.07854,0.33158 -0.192308,0.66995 -0.318359,1.00781 -0.189364,0.005 -0.371498,0.019 -0.523438,0.0527 -0.932157,0.20714 -2.796185,0.20726 -4.039062,-0.20703 -1.087516,-0.36251 -2.887635,-0.80547 -3.806641,-0.77149 -0.131288,0.005 -0.245312,0.021 -0.335937,0.0469 -0.306138,0.0875 -0.542875,0.46157 -0.730469,0.85351 -0.141997,0.14592 -0.39686,0.41986 -0.830078,0.99414 -0.0457,-0.003 -0.09249,-0.005 -0.138672,-0.008 -0.132903,-0.008 -0.255874,-0.0166 -0.392578,-0.0234 -0.205448,-0.0103 -0.415494,-0.0168 -0.628906,-0.0234 -0.08327,-0.003 -0.151938,-0.0117 -0.236329,-0.0137 -0.0018,0.002 -0.0041,0.006 -0.0059,0.008 -0.226892,-0.005 -0.447237,-0.0152 -0.681641,-0.0156 -0.11915,-2.4e-4 -0.246314,0.007 -0.367187,0.008 -0.252319,0.002 -0.502783,0.008 -0.761719,0.0176 -0.177844,0.006 -0.352704,0.0116 -0.533203,0.0215 -0.418199,0.0227 -0.842434,0.054 -1.271484,0.0977 -0.03958,0.004 -0.07754,0.006 -0.117188,0.01 -1.718022,0.18283 -3.5004,0.54689 -5.195312,1.19727 -7.247233,2.78091 -17.779297,-10.95508 -17.779297,-10.95508 z m 47.757812,4.85742 c 0.189279,-0.0664 0.366783,-0.13012 0.392578,-0.14258 0.01414,-0.007 3.11e-4,-0.003 -0.04492,0.01 -0.08499,0.0243 -0.20486,0.0708 -0.347657,0.13281 z"
       id="path4813"
       inkscape:connector-curvature="0" />
    <path
       style="fill:none;fill-opacity:1;fill-rule:evenodd;stroke:#000000;stroke-width:2;stroke-linecap:butt;stroke-linejoin:round;stroke-opacity:1;stroke-miterlimit:4;stroke-dasharray:none"
       d="M 148.07227 147.75 C 148.07227 147.75 149.58999 165.69822 154.73047 171.17578 C 155.8718 172.39196 158.55383 172.97407 161.75586 173.20312 A 35.05946 35.05946 0 0 0 159.94336 176.14258 C 159.79183 176.41729 159.64422 176.69373 159.5 176.97266 A 35.05946 35.05946 0 0 0 158.67773 178.64648 C 158.34857 179.3758 158.04321 180.11786 157.76367 180.87109 C 157.76338 180.87189 157.76201 180.87225 157.76172 180.87305 A 35.05946 35.05946 0 0 0 155.57031 192.96875 A 35.05946 35.05946 0 0 0 156.57227 201.11914 A 35.05946 35.05946 0 0 0 156.57422 201.12305 A 35.05946 35.05946 0 0 0 156.89453 202.37695 L 156.30469 204.57031 L 156.92578 208.91992 C 156.92578 208.91992 157.44324 207.15797 157.65039 207.57227 C 157.85753 207.98657 158.78906 213.47656 158.78906 213.47656 L 159.92969 211.30078 L 161.06836 216.06641 L 162 214.09766 L 166.14453 219.79492 L 166.14453 218.24219 L 168.73242 222.48828 L 169.14844 221.24414 L 174.32617 226.2168 L 174.63672 224.97266 L 179.08984 227.14844 L 179.08984 226.42383 L 183.54492 229.01367 L 184.58008 227.5625 L 187.6875 229.42773 L 188.72266 227.97656 L 193.48633 229.53125 L 194.21289 228.18359 L 196.49023 229.8418 L 197.73438 227.5625 L 200.94336 229.32422 L 201.77344 226.94141 C 201.77344 226.94141 203.42946 228.80477 203.84375 228.70117 C 204.25804 228.59757 207.57227 225.17969 207.57227 225.17969 C 207.57227 225.17969 210.36914 224.86946 210.36914 224.35156 C 210.36914 223.83366 210.7832 221.9707 210.7832 221.9707 L 213.16602 225.49219 L 213.99414 220.62305 L 218.24023 222.17773 L 217.51562 217.10156 L 219.58789 219.69141 L 220.83008 211.50977 L 223.10938 214.71875 L 223.21289 208.50586 C 223.21289 208.50586 226.00804 213.47593 225.59375 210.99023 C 225.17946 208.50443 224.14453 205.19141 224.14453 205.19141 L 225.90625 205.91602 L 225.17969 202.60156 L 226.63086 202.49805 L 225.38672 198.25195 C 225.38672 198.25195 227.87305 200.52952 227.87305 200.11523 C 227.87305 199.70094 226.63086 194.62695 226.63086 194.62695 C 226.63086 194.62695 229.32284 195.97351 228.28711 194.41992 C 227.25138 192.86632 225.59375 189.0332 225.59375 189.0332 C 225.59375 189.0332 228.70129 188.61937 228.49414 188.20508 C 228.28699 187.79078 225.17969 183.95898 225.17969 183.95898 C 225.17969 183.95898 227.87385 184.78786 226.42383 183.44141 C 225.12628 182.23655 223.3318 179.89623 222.95117 179.39453 A 35.05946 35.05946 0 0 0 222.95117 179.39258 A 35.05946 35.05946 0 0 0 222.86914 179.20703 C 223.22289 179.26673 225.5008 179.61023 224.35156 178.36523 C 223.10868 177.01878 221.55469 175.1543 221.55469 175.1543 L 222.28125 173.70508 C 222.28125 173.70508 221.03734 173.49805 220.62305 173.49805 L 219.76562 173.49805 A 35.05946 35.05946 0 0 0 219.54492 173.14258 C 222.42298 172.87853 224.79696 172.29954 225.85156 171.17578 C 226.84755 170.11448 227.70411 168.57917 228.44336 166.80273 L 228.44336 166.80859 C 228.64038 166.33531 228.82763 165.84401 229.00781 165.33984 C 229.09409 165.09841 229.17334 164.84866 229.25586 164.60156 C 229.36776 164.26655 229.47886 163.93132 229.58398 163.58789 C 229.66429 163.32542 229.73998 163.06114 229.81641 162.79492 C 229.90662 162.48086 229.99516 162.16733 230.08008 161.84961 C 230.15873 161.55521 230.23635 161.26294 230.31055 160.9668 C 230.35597 160.78561 230.39762 160.60722 230.44141 160.42578 C 230.67591 159.45364 230.89261 158.48078 231.08203 157.5293 C 231.08229 157.52799 231.08177 157.5267 231.08203 157.52539 C 231.1402 157.23311 231.18026 156.97297 231.23438 156.68555 C 231.40406 155.78548 231.55956 154.91673 231.69141 154.0918 C 231.76709 153.61801 231.82666 153.21944 231.89062 152.78125 C 231.97934 152.17531 232.0574 151.62402 232.125 151.10352 C 232.17175 150.74358 232.19125 150.60977 232.22852 150.29883 C 232.41542 148.76613 232.50781 147.75 232.50781 147.75 C 232.50781 147.75 232.3432 147.96382 232.04102 148.33398 C 232.0255 148.353 232.0319 148.34536 232.01562 148.36523 C 231.95958 148.43379 231.84428 148.56218 231.7793 148.64062 C 231.48392 148.99678 231.14764 149.39971 230.6875 149.91797 C 230.58278 150.03599 230.4326 150.18819 230.32031 150.3125 C 229.80601 150.88128 229.25695 151.48053 228.60547 152.13477 C 228.56608 152.17435 228.52224 152.21416 228.48242 152.25391 C 228.14961 152.5859 227.80604 152.92344 227.44531 153.26172 C 227.34485 153.35596 227.23718 153.44872 227.13477 153.54297 C 226.8083 153.84332 226.47506 154.14346 226.13086 154.43945 C 222.62514 157.45388 218.28224 160.06946 214.72656 158.70508 C 212.10682 157.69983 209.2918 157.38293 206.81445 157.36133 C 206.81069 157.35858 206.80846 157.35626 206.80469 157.35352 C 206.69678 157.35256 206.58895 157.35156 206.48242 157.35156 C 206.34451 157.35178 206.21745 157.35935 206.08203 157.36133 L 204.77734 156.92578 L 205.39844 154.43945 L 199.18359 155.68359 L 203.01562 154.02539 C 203.01562 154.02539 193.90085 154.85363 193.07227 154.64648 C 192.34082 154.46362 194.75474 153.07219 195.83008 152.60547 C 194.46355 153.08498 189.47787 154.75 189.13672 154.75 C 188.72243 154.75 189.0332 153.09375 189.0332 153.09375 L 186.76562 155.45117 C 186.68709 155.78275 186.57527 156.12112 186.44922 156.45898 C 186.25963 156.46421 186.07788 156.47792 185.92578 156.51172 C 184.99362 156.71886 183.12959 156.71898 181.88672 156.30469 C 180.7992 155.94218 178.99909 155.50118 178.08008 155.53516 C 177.94879 155.54016 177.83477 155.55418 177.74414 155.58008 C 177.438 155.66755 177.20127 156.04165 177.01367 156.43359 C 176.87167 156.57951 176.61681 156.85345 176.18359 157.42773 C 176.13861 157.42477 176.09232 157.42274 176.04688 157.41992 C 175.9139 157.41169 175.79108 157.4033 175.6543 157.39648 C 175.44814 157.38617 175.23762 157.37966 175.02344 157.37305 C 174.94017 157.37046 174.8715 157.36134 174.78711 157.35938 C 174.78533 157.36136 174.78304 157.36519 174.78125 157.36719 C 174.55403 157.36186 174.33437 157.35194 174.09961 157.35156 C 173.97031 157.3513 173.83249 157.35989 173.70117 157.36133 C 173.45119 157.36407 173.20173 157.36957 172.94531 157.37891 C 172.78803 157.38467 172.63397 157.38799 172.47461 157.39648 C 172.04365 157.41929 171.60664 157.45103 171.16406 157.49609 C 171.12453 157.50012 171.08647 157.50164 171.04688 157.50586 C 169.32946 157.68876 167.54778 158.05495 165.85352 158.70508 C 158.60628 161.48599 148.07227 147.75 148.07227 147.75 z M 195.83008 152.60547 C 196.01936 152.53907 196.19882 152.4773 196.22461 152.46484 L 196.22461 152.46289 C 196.23871 152.45589 196.22496 152.45966 196.17969 152.47266 C 196.09469 152.49696 195.97288 152.54348 195.83008 152.60547 z "
       transform="translate(0,796.36216)"
       id="path4855" />
    <g
       transform="matrix(0.18748691,0,0,0.18748691,149.05425,703.8518)"
       id="layer1-1"
       inkscape:label="Calque 1">
      <path
         id="path4151"
         transform="translate(0,598.8189)"
         d="m 154.81055,42.294922 c -0.70025,0.02589 -1.30374,0.10408 -1.78711,0.242187 -3.867,1.10485 -6.07813,10.496094 -6.07813,10.496094 l -3.20312,19.222656 A 186.99684,186.99684 0 0 0 34.757812,241.95508 186.99684,186.99684 0 0 0 221.75391,428.95117 186.99684,186.99684 0 0 0 408.75,241.95508 186.99684,186.99684 0 0 0 221.75391,54.958984 a 186.99684,186.99684 0 0 0 -7.6875,0.271485 c -1.44612,-3.859954 -2.48633,-6.617188 -2.48633,-6.617188 0,0 -9.94417,-2.208375 -14.91602,-1.103515 -4.97185,1.10485 -14.91578,1.104241 -21.54492,-1.105469 -5.80049,-1.933496 -15.40688,-4.290643 -20.30859,-4.109375 z"
         style="fill:#867563;fill-opacity:1;fill-rule:evenodd;stroke:none;stroke-width:1px;stroke-linecap:butt;stroke-linejoin:miter;stroke-opacity:1"
         inkscape:connector-curvature="0" />
      <path
         sodipodi:nodetypes="ccsccc"
         inkscape:connector-curvature="0"
         id="path4174"
         transform="translate(0,598.8189)"
         d="M 104.72656,96.650391 C 78.350319,117.81625 58.20773,145.73886 46.443359,177.44531 c 0,0 16.924829,-27.86161 27.384776,-30.54298 54.262305,-13.9099 60.937485,-12.10936 60.937485,-12.10936 l -21.09374,-32.8125 z"
         style="fill:#746555;fill-opacity:1;fill-rule:evenodd;stroke:none;stroke-width:1px;stroke-linecap:butt;stroke-linejoin:miter;stroke-opacity:1" />
      <path
         style="fill:#d0b9a2;fill-opacity:1;fill-rule:evenodd;stroke:none;stroke-width:1px;stroke-linecap:butt;stroke-linejoin:miter;stroke-opacity:1"
         d="m 168.71231,654.42624 -1.34842,75.51136 c 0,0 -116.234761,16.82814 -137.089071,-5.39367 -27.4178,-29.2157 -35.5083103,-124.95331 -35.5083103,-124.95331 0,0 56.1840503,73.26399 94.8386603,58.4314 35.883401,-13.76921 79.107141,-3.59578 79.107141,-3.59578 z"
         id="path4140"
         inkscape:connector-curvature="0"
         sodipodi:nodetypes="ccscsc" />
      <path
         id="path4201"
         transform="translate(0,598.8189)"
         d="m 133.58203,51.988281 c -5.17209,-0.0083 -10.66008,0.226365 -16.27539,0.824219 0.79119,1.653134 2.57031,4.249728 2.57031,5.193359 0,1.38107 -2.20918,4.141548 -6.07617,5.798829 -3.867,1.65728 10.2197,-2.208506 1.38086,7.458984 -8.83885,9.66749 -14.91501,11.048196 -11.32422,15.191406 3.59078,4.14321 8.56221,8.286993 2.76172,11.601563 -5.8005,3.314569 1.65606,7.733229 -2.21094,12.705079 -3.86699,4.97185 -9.942857,0.55189 -5.523434,6.07617 4.419424,5.52428 9.943264,9.66847 8.009764,14.08789 -0.74777,1.70918 -1.82215,3.86888 -2.76758,5.92774 18.90913,-0.76036 36.94404,-2.54744 48.93164,-3.9336 5.22721,-8.51502 11.83991,-20.86597 12.39453,-21.60547 0.50742,-0.67655 1.79437,-15.588682 2.75391,-27.414059 l 0.27149,-15.203125 -10.61524,-14.988282 c -6.23742,-0.865818 -14.70931,-1.70536 -24.28125,-1.720703 z"
         style="fill:#b6967b;fill-opacity:1;fill-rule:evenodd;stroke:none;stroke-width:1px;stroke-linecap:butt;stroke-linejoin:miter;stroke-opacity:1"
         inkscape:connector-curvature="0" />
      <path
         id="path4209"
         transform="translate(0,598.8189)"
         d="m 137.25,52.035156 c -2.89684,3.231415 -7.1917,10.173909 -9.91602,24.476563 -4.41942,23.20197 -4.41796,43.918061 -4.41796,45.851561 0,1.84795 0.25409,8.66511 0.51757,13.3711 7.20344,-0.53203 13.94937,-1.14744 19.90821,-1.75782 l 1.94726,-1.94726 c 0,0 -1.38251,-22.37159 -0.83008,-26.79102 0.55242,-4.41942 4.42032,-21.269283 6.90625,-33.146483 2.48592,-11.8772 7.18165,-16.296875 7.18165,-16.296875 l 0.18164,-0.863281 -0.86524,-1.222657 C 152.43581,52.955596 145.31375,52.223055 137.25,52.035156 Z"
         style="fill:#aa8465;fill-opacity:1;fill-rule:evenodd;stroke:none;stroke-width:1px;stroke-linecap:butt;stroke-linejoin:miter;stroke-opacity:1"
         inkscape:connector-curvature="0" />
      <path
         sodipodi:nodetypes="csssscssc"
         inkscape:connector-curvature="0"
         id="path4157"
         d="m 150.09785,644.84213 c 0,0 -20.01956,19.43362 -18.06642,44.23834 1.9308,24.5211 1.95312,41.79693 5.85937,46.09381 3.90626,4.29688 20.31253,4.68751 22.65629,4.68751 2.34375,0 17.96877,-1.5625 21.4844,-1.95313 3.51563,-0.39062 5.07813,-32.42191 5.07813,-32.42191 0,0 -3.51563,-17.96878 -3.90625,-20.70316 -0.39063,-2.73437 -0.78125,-28.90628 -1.56251,-30.85941 -0.78125,-1.95313 -15.23439,-7.81251 -15.23439,-7.81251"
         style="fill:#867563;fill-opacity:1;fill-rule:evenodd;stroke:none;stroke-width:1px;stroke-linecap:butt;stroke-linejoin:miter;stroke-opacity:1" />
      <path
         id="path4186"
         transform="translate(0,598.8189)"
         d="m 162.41406,90.044922 a 8.2864189,8.5626326 0 0 0 -8.28711,8.5625 8.2864189,8.5626326 0 0 0 8.28711,8.564458 8.2864189,8.5626326 0 0 0 8.28711,-8.564458 8.2864189,8.5626326 0 0 0 -8.28711,-8.5625 z m 4.69532,38.119138 a 14.639339,15.744195 0 0 0 -14.63868,15.74414 14.639339,15.744195 0 0 0 14.63868,15.74414 14.639339,15.744195 0 0 0 14.63867,-15.74414 14.639339,15.744195 0 0 0 -14.63867,-15.74414 z m -32.31641,19.88672 a 27.068968,25.687897 0 0 0 -27.07031,25.6875 27.068968,25.687897 0 0 0 0.0977,2.05078 34.802959,36.460243 0 0 0 -18.962888,7.7793 12.705842,14.363126 0 0 0 -12.623047,-12.86719 12.705842,14.363126 0 0 0 -12.705078,14.36133 12.705842,14.363126 0 0 0 12.705078,14.36328 12.705842,14.363126 0 0 0 1.726563,-0.14844 34.802959,36.460243 0 0 0 -2.277344,12.85547 34.802959,36.460243 0 0 0 1.089844,8.91992 33.698101,33.974316 0 0 0 -9.140626,4.6875 12.153414,12.705842 0 0 0 -8.523437,-3.66406 12.153414,12.705842 0 0 0 -12.152344,12.70508 12.153414,12.705842 0 0 0 7.326172,11.65625 33.698101,33.974316 0 0 0 -0.697265,6.85156 33.698101,33.974316 0 0 0 33.697265,33.97266 33.698101,33.974316 0 0 0 33.699217,-33.97266 33.698101,33.974316 0 0 0 -0.5918,-6.23242 34.802959,36.460243 0 0 0 24.89844,-34.92383 34.802959,36.460243 0 0 0 -2.63281,-13.83789 27.068968,25.687897 0 0 0 19.20508,-24.55664 27.068968,25.687897 0 0 0 -27.06836,-25.6875 z"
         style="opacity:1;fill:#6e5752;fill-opacity:1;stroke:none;stroke-width:2;stroke-linecap:round;stroke-linejoin:round;stroke-miterlimit:4;stroke-dasharray:none;stroke-opacity:1"
         inkscape:connector-curvature="0" />
      <path
         inkscape:connector-curvature="0"
         id="path4162"
         d="m 42.968807,889.47136 -1.953128,-5.07813 c 0,0 -1.953127,2.34376 6.640634,-1.5625 8.593761,-3.90625 15.62502,-11.71876 18.359399,-16.40627 2.734379,-4.68751 5.859383,-13.67189 6.640634,-21.4844 0.781251,-7.81251 7.81251,-24.21879 12.109391,-26.56254 4.29688,-2.34375 14.843769,-7.03126 23.828153,-13.67189 8.98439,-6.64064 19.53128,-15.2344 21.87503,-17.96878 2.34376,-2.73437 16.7969,-19.9219 18.3594,-24.6094 1.5625,-4.68751 7.03126,-12.50002 9.37501,-15.62502 2.34376,-3.12501 6.25001,-6.25001 12.10939,-10.15627 5.85939,-3.90625 10.15627,-10.93751 10.93752,-14.45314 0.78125,-3.51563 2.73438,-7.81251 2.73438,-12.89064 0,-5.07814 -4.29688,-14.84377 -4.29688,-19.53128 0,-4.68751 -1.56251,-7.81251 -1.56251,-12.10939 0,-4.29688 5.07814,-13.67189 7.81252,-16.40627 2.73437,-2.73438 3.90625,-6.64064 7.42188,-9.37501 3.51563,-2.73438 13.28127,-5.07814 13.28127,-5.07814 0,0 24.21878,14.84377 25.39066,22.65628 1.17187,7.81251 4.29688,110.93765 3.125,115.62516 -1.17188,4.6875 -57.03133,100.00013 -57.03133,100.00013 L 94.922,920.72141 78.125103,918.76828"
         style="fill:#510606;fill-opacity:1;fill-rule:evenodd;stroke:none;stroke-width:1px;stroke-linecap:butt;stroke-linejoin:miter;stroke-opacity:1" />
      <path
         id="path4136"
         transform="translate(0,598.8189)"
         d="m 221.75391,54.958984 a 186.99684,186.99684 0 0 0 -26.78711,2.115235 c -3.05713,5.775238 -6.27146,10.792905 -7.69336,13.636719 -3.867,7.733989 1.10389,24.307522 8.83789,36.460942 7.73399,12.1534 -2.20826,18.2292 -4.41797,26.51562 -2.20971,8.28642 -23.20301,13.25843 -26.51758,14.36328 -3.31456,1.10486 -12.70508,24.30733 -12.70508,32.59375 0,8.28642 -13.25954,17.12458 -19.88867,19.88672 -6.62914,2.76214 -31.48774,16.57245 -37.564452,20.43945 -6.076707,3.86699 -10.495176,23.20217 -8.83789,32.04102 1.657283,8.83884 -11.601334,24.30683 -18.230469,28.17383 -6.629135,3.86699 -18.23066,6.62921 -22.097657,7.18164 -0.855885,0.12227 -2.995433,-1.06908 -5.748046,-2.9336 a 186.99684,186.99684 0 0 0 1.833984,6.26563 l -3.267578,12.13672 3.314453,23.20117 c 0,0 2.762331,-9.39135 3.867187,-7.18164 1.104856,2.20971 6.076172,31.48828 6.076172,31.48828 l 6.078125,-11.60156 6.076172,25.41211 4.970703,-10.4961 22.097657,30.38477 0,-8.28711 13.810549,22.65039 2.21094,-6.63086 27.62109,26.51758 1.65625,-6.62891 23.7539,11.59961 0,-3.86523 23.75586,13.81054 5.52344,-7.73437 16.57227,9.94336 5.52539,-7.73438 25.41211,8.28711 3.86719,-7.18164 12.15234,8.83789 6.6289,-12.15234 17.125,9.39062 4.41993,-12.70507 c 0,0 8.83911,9.94312 11.04883,9.39062 2.2097,-0.5524 19.88671,-18.7832 19.88671,-18.7832 0,0 14.91602,-1.65587 14.91602,-4.41797 0,-2.7622 2.20898,-12.70703 2.20898,-12.70703 l 12.70703,18.7832 4.41993,-25.96484 22.64843,8.28711 -3.86718,-27.06836 11.04882,13.81054 6.62891,-43.64257 12.1543,17.125 0.55273,-33.14454 c 0,0 14.91479,26.51609 12.70508,13.25782 -2.20971,-13.25827 -7.73437,-30.93555 -7.73437,-30.93555 l 9.39257,3.86719 -3.86718,-17.67774 7.73242,-0.55273 -6.62891,-22.65039 c 0,0 13.25977,12.15307 13.25977,9.94336 0,-2.20971 -6.63086,-29.27735 -6.63086,-29.27735 0,0 14.36412,7.18096 8.83984,-1.10546 -5.52427,-8.28642 -14.36328,-28.72657 -14.36328,-28.72657 0,0 16.57361,-2.2102 15.46875,-4.41992 -1.10486,-2.20971 -17.67773,-22.64844 -17.67773,-22.64844 0,0 14.36289,4.41984 6.6289,-2.76172 -6.92074,-6.42639 -16.49328,-18.91003 -18.52344,-21.58593 a 186.99684,186.99684 0 0 0 -0.43359,-1 c 1.88679,0.31815 14.0379,2.15613 7.9082,-4.48438 -6.62913,-7.18156 -14.91601,-17.125 -14.91601,-17.125 l 3.86719,-7.73437 c 0,0 -6.62818,-1.10352 -8.83789,-1.10352 l -4.57422,0 A 186.99684,186.99684 0 0 0 221.75391,54.958984 Z"
         style="opacity:1;fill:#472f1f;fill-opacity:1;stroke:none;stroke-width:2;stroke-linecap:round;stroke-linejoin:round;stroke-miterlimit:4;stroke-dasharray:none;stroke-opacity:1"
         inkscape:connector-curvature="0" />
      <path
         sodipodi:nodetypes="ccscsc"
         inkscape:connector-curvature="0"
         id="path4138"
         d="m 271.17311,654.42624 1.34842,75.51136 c 0,0 116.23476,16.82814 137.08907,-5.39367 27.4178,-29.2157 35.50831,-124.95331 35.50831,-124.95331 0,0 -56.18405,73.26399 -94.83866,58.4314 -35.8834,-13.76921 -79.10714,-3.59578 -79.10714,-3.59578 z"
         style="fill:#d0b9a2;fill-opacity:1;fill-rule:evenodd;stroke:none;stroke-width:1px;stroke-linecap:butt;stroke-linejoin:miter;stroke-opacity:1" />
      <path
         id="path4214"
         transform="translate(0,598.8189)"
         d="m 306.30273,51.988281 c -19.89203,0.03189 -35.1289,3.619141 -35.1289,3.619141 l 0.91797,51.417968 c 6.55451,8.43006 15.55274,19.55193 21.31836,26.62305 9.4011,1.00195 21.07612,2.079 33.58007,2.78711 0.14136,-1.0456 0.17384,-1.87791 0.0469,-2.19532 -0.55243,-1.38107 -6.9042,-4.4194 -4.9707,-5.24804 1.93349,-0.82864 2.2096,-8.28752 3.31445,-10.77344 1.10486,-2.48593 -8.5625,-10.77148 -8.5625,-10.77148 0,0 5.79934,-6.62952 4.9707,-7.734379 -0.82864,-1.10485 -10.77301,-7.181524 -13.53515,-10.496094 -2.76214,-3.31456 6.35351,-3.314453 6.35351,-3.314453 0,0 -6.077,-12.705697 -5.80078,-13.810547 0.27621,-1.10486 4.69531,-4.419922 4.69531,-4.419922 l -9.11328,-6.351563 c 0,0 5.80006,-2.487241 8.00977,-4.144531 1.08046,-0.810345 -1.48096,-3.072309 -4.3711,-5.173828 -0.57554,-0.0051 -1.15641,-0.01458 -1.72461,-0.01367 z"
         style="fill:#b6967b;fill-opacity:1;fill-rule:evenodd;stroke:none;stroke-width:1px;stroke-linecap:butt;stroke-linejoin:miter;stroke-opacity:1"
         inkscape:connector-curvature="0" />
      <path
         id="path4142"
         transform="translate(0,598.8189)"
         d="m 251.59375,25.917969 c 0.0754,-0.03641 0.003,-0.02218 -0.23828,0.04687 -0.45332,0.129519 -1.10164,0.38037 -1.86328,0.710937 1.00956,-0.354248 1.96398,-0.691359 2.10156,-0.757812 z m -2.10156,0.757812 c -7.28867,2.55755 -33.88356,11.441407 -35.70313,11.441407 -2.20971,0 -0.55273,-8.837891 -0.55273,-8.837891 l -12.0918,12.576172 c -2.63971,11.144736 -11.26382,23.640926 -13.87109,28.855469 -3.867,7.733989 1.10389,24.307527 8.83789,36.460942 7.73399,12.15341 -2.20826,18.2292 -4.41797,26.51562 -1.6161,6.06037 -13.23943,10.3266 -20.68555,12.625 l 100.23438,7.26172 54.13867,-5.52344 -13.81055,-10.49609 17.125,0.55273 -17.125,-13.81054 c 0,0 17.12489,-3.86719 20.43946,-3.86719 3.31457,0 -16.57422,-12.1543 -16.57422,-12.1543 0,0 15.46802,-3.31476 17.67773,-3.86719 2.20972,-0.55243 -20.99219,-16.019528 -20.99219,-16.019528 0,0 14.91713,-1.656555 20.44141,-2.208984 5.52428,-0.55243 -17.67773,-12.154297 -17.67773,-12.154297 0,0 25.41004,-0.553039 28.72461,-1.105469 3.31456,-0.55243 -33.69796,-9.942938 -41.98438,-12.705078 -8.28641,-2.76214 8.83984,-6.076172 8.83984,-6.076172 L 297.20703,49.71875 300.52148,36.460938 267.375,43.089844 287.81445,34.25 c 0,0 -48.61378,4.419303 -53.0332,3.314453 -3.90135,-0.975341 8.9754,-8.399346 14.71094,-10.888672 z"
         style="fill:#472f1f;fill-opacity:1;fill-rule:evenodd;stroke:none;stroke-width:1px;stroke-linecap:butt;stroke-linejoin:miter;stroke-opacity:1"
         inkscape:connector-curvature="0" />
      <path
         id="path4181"
         transform="translate(0,598.8189)"
         d="m 445.11914,0.77148438 c 0,0 -14.83929,19.32778462 -34.5,36.12109362 -1.19335,4.373478 -4.00053,12.608132 -9.05664,16.259766 -7.03126,5.07813 -21.09375,25.390625 -21.09375,25.390625 l -8.98437,28.125001 c 0,0 12.89062,-20.703126 15.625,-23.828126 2.73437,-3.125 23.04687,-26.56251 23.04687,-25 0,1.5625 1.17189,5.46874 -1.17187,10.15625 -2.34376,4.68751 -7.8125,21.09375 -7.8125,21.09375 0,0 8.20312,-4.29687 8.98437,-7.8125 0.78125,-3.51563 4.68751,-14.06251 6.64063,-10.15625 1.95312,3.90625 2.34374,9.374995 0.78124,12.890625 -1.5625,3.51563 -5.85937,20.312501 -5.85937,20.312501 L 429.6875,67.214844 c 0,0 -0.78125,12.109375 -1.95312,14.453125 -1.17188,2.34376 -4.29688,9.765625 -4.29688,9.765625 l 0,10.999996 C 439.85033,63.007328 445.11914,0.77148438 445.11914,0.77148438 Z"
         style="fill:#a15953;fill-opacity:1;fill-rule:evenodd;stroke:none;stroke-width:1px;stroke-linecap:butt;stroke-linejoin:miter;stroke-opacity:1"
         inkscape:connector-curvature="0" />
    </g>
  </g>
</svg>
