<?xml version="1.0" encoding="UTF-8" standalone="no"?>
<!-- Created with Inkscape (http://www.inkscape.org/) -->

<svg
   xmlns:dc="http://purl.org/dc/elements/1.1/"
   xmlns:cc="http://creativecommons.org/ns#"
   xmlns:rdf="http://www.w3.org/1999/02/22-rdf-syntax-ns#"
   xmlns:svg="http://www.w3.org/2000/svg"
   xmlns="http://www.w3.org/2000/svg"
   xmlns:sodipodi="http://sodipodi.sourceforge.net/DTD/sodipodi-0.dtd"
   xmlns:inkscape="http://www.inkscape.org/namespaces/inkscape"
   width="128"
   height="128"
   viewBox="0 0 128 128"
   id="svg4202"
   version="1.1"
   inkscape:version="0.91 r13725"
   sodipodi:docname="dominant_eyes.svg"
   inkscape:export-filename="C:\Prog\Projets\teeworlds\zomb_assets\dominant_eyes.png"
   inkscape:export-xdpi="90"
   inkscape:export-ydpi="90">
  <defs
     id="defs4204" />
  <sodipodi:namedview
     id="base"
     pagecolor="#ffffff"
     bordercolor="#666666"
     borderopacity="1.0"
     inkscape:pageopacity="0.0"
     inkscape:pageshadow="2"
     inkscape:zoom="9.0708542"
     inkscape:cx="66.809652"
     inkscape:cy="71.881203"
     inkscape:document-units="px"
     inkscape:current-layer="g4783"
     showgrid="false"
     units="px"
     showguides="true"
     inkscape:guide-bbox="true"
     inkscape:window-width="1920"
     inkscape:window-height="1018"
     inkscape:window-x="-8"
     inkscape:window-y="-8"
     inkscape:window-maximized="1">
    <sodipodi:guide
       position="144.52619,94.479903"
       orientation="0,1"
       id="guide4761" />
    <sodipodi:guide
       position="150.76248,65.169306"
       orientation="0,1"
       id="guide4763" />
    <sodipodi:guide
       position="138.75761,29.778319"
       orientation="0,1"
       id="guide4765" />
    <sodipodi:guide
       position="63.766139,75.147381"
       orientation="1,0"
       id="guide4767" />
  </sodipodi:namedview>
  <metadata
     id="metadata4207">
    <rdf:RDF>
      <cc:Work
         rdf:about="">
        <dc:format>image/svg+xml</dc:format>
        <dc:type
           rdf:resource="http://purl.org/dc/dcmitype/StillImage" />
        <dc:title />
      </cc:Work>
    </rdf:RDF>
  </metadata>
  <g
     inkscape:label="Calque 1"
     inkscape:groupmode="layer"
     id="layer1"
     transform="translate(0,-924.36216)">
    <g
       id="g4777">
      <path
         sodipodi:nodetypes="ccccsscccc"
         inkscape:connector-curvature="0"
         id="path4775"
         d="m 31.571255,926.1551 5.378806,5.92448 2.72838,0.15591 8.80877,11.84896 c 0,0 -5.300853,8.65287 -6.548113,9.90012 -1.247259,1.24726 -15.590743,2.02679 -18.786844,0.93544 -4.695948,-1.60349 -8.341048,-10.83556 -8.341048,-10.83556 0,0 6.392204,-11.84896 6.781973,-11.92692 0.389769,-0.0779 3.196102,0.85749 3.196102,0.85749 z"
         style="fill:#000000;fill-opacity:0.50196078;fill-rule:evenodd;stroke:none;stroke-width:1px;stroke-linecap:butt;stroke-linejoin:miter;stroke-opacity:1" />
      <path
         sodipodi:nodetypes="ccccc"
         inkscape:connector-curvature="0"
         id="path4769"
         d="m 17.929355,943.7189 6.315528,-8.91095 4.980548,8.62656 -4.897749,10.28131 z"
         style="fill:#000000;fill-opacity:1;fill-rule:evenodd;stroke:none;stroke-width:1px;stroke-linecap:butt;stroke-linejoin:miter;stroke-opacity:1" />
      <path
         style="fill:#000000;fill-opacity:1;fill-rule:evenodd;stroke:none;stroke-width:1px;stroke-linecap:butt;stroke-linejoin:miter;stroke-opacity:1"
         d="m 45.205943,943.7189 -6.315528,-8.91095 -4.980548,8.62656 4.897749,10.28131 z"
         id="path4771"
         inkscape:connector-curvature="0"
         sodipodi:nodetypes="ccccc" />
      <path
         sodipodi:nodetypes="ccccc"
         inkscape:connector-curvature="0"
         id="path4773"
         d="m 31.649209,928.02599 3.663824,5.14493 -3.741778,5.30086 -3.663825,-5.37881 z"
         style="fill:#000000;fill-opacity:1;fill-rule:evenodd;stroke:none;stroke-width:1px;stroke-linecap:butt;stroke-linejoin:miter;stroke-opacity:1" />
    </g>
    <g
       id="g4783"
       transform="translate(64.712759,31.639799)">
      <path
         style="fill:#000000;fill-opacity:0.50196078;fill-rule:evenodd;stroke:none;stroke-width:1px;stroke-linecap:butt;stroke-linejoin:miter;stroke-opacity:1"
         d="m 31.571255,926.1551 5.378806,5.92448 2.72838,0.15591 8.80877,11.84896 c 0,0 -5.300853,8.65287 -6.548113,9.90012 -1.247259,1.24726 -15.590743,2.02679 -18.786844,0.93544 -4.695948,-1.60349 -8.341048,-10.83556 -8.341048,-10.83556 0,0 6.392204,-11.84896 6.781973,-11.92692 0.389769,-0.0779 3.196102,0.85749 3.196102,0.85749 z"
         id="path4785"
         inkscape:connector-curvature="0"
         sodipodi:nodetypes="ccccsscccc" />
      <path
         style="fill:#000000;fill-opacity:1;fill-rule:evenodd;stroke:none;stroke-width:1px;stroke-linecap:butt;stroke-linejoin:miter;stroke-opacity:1"
         d="m 17.929355,943.7189 6.315528,-8.91095 4.980548,8.62656 -4.897749,10.28131 z"
         id="path4787"
         inkscape:connector-curvature="0"
         sodipodi:nodetypes="ccccc" />
      <path
         sodipodi:nodetypes="ccccc"
         inkscape:connector-curvature="0"
         id="path4789"
         d="m 45.205943,943.7189 -6.315528,-8.91095 -4.980548,8.62656 4.897749,10.28131 z"
         style="fill:#000000;fill-opacity:1;fill-rule:evenodd;stroke:none;stroke-width:1px;stroke-linecap:butt;stroke-linejoin:miter;stroke-opacity:1" />
      <path
         style="fill:#000000;fill-opacity:1;fill-rule:evenodd;stroke:none;stroke-width:1px;stroke-linecap:butt;stroke-linejoin:miter;stroke-opacity:1"
         d="m 31.649209,928.02599 3.663824,5.14493 -3.741778,5.30086 -3.663825,-5.37881 z"
         id="path4791"
         inkscape:connector-curvature="0"
         sodipodi:nodetypes="ccccc" />
    </g>
    <g
       transform="translate(0.44097282,31.639799)"
       id="g4793">
      <path
         sodipodi:nodetypes="ccccsscccc"
         inkscape:connector-curvature="0"
         id="path4795"
         d="m 31.571255,926.1551 5.378806,5.92448 2.72838,0.15591 8.80877,11.84896 c 0,0 -5.300853,8.65287 -6.548113,9.90012 -1.247259,1.24726 -15.590743,2.02679 -18.786844,0.93544 -4.695948,-1.60349 -8.341048,-10.83556 -8.341048,-10.83556 0,0 6.392204,-11.84896 6.781973,-11.92692 0.389769,-0.0779 3.196102,0.85749 3.196102,0.85749 z"
         style="fill:#000000;fill-opacity:0.50196078;fill-rule:evenodd;stroke:none;stroke-width:1px;stroke-linecap:butt;stroke-linejoin:miter;stroke-opacity:1" />
      <path
         sodipodi:nodetypes="ccccc"
         inkscape:connector-curvature="0"
         id="path4797"
         d="m 17.929355,943.7189 3.28384,-5.32805 8.012236,5.04366 -8.976747,4.98964 z"
         style="fill:#000000;fill-opacity:1;fill-rule:evenodd;stroke:none;stroke-width:1px;stroke-linecap:butt;stroke-linejoin:miter;stroke-opacity:1" />
      <path
         style="fill:#000000;fill-opacity:1;fill-rule:evenodd;stroke:none;stroke-width:1px;stroke-linecap:butt;stroke-linejoin:miter;stroke-opacity:1"
         d="m 45.205943,943.7189 -3.338962,-5.10756 -7.957114,4.82317 8.976747,4.05257 z"
         id="path4799"
         inkscape:connector-curvature="0"
         sodipodi:nodetypes="ccccc" />
      <path
         sodipodi:nodetypes="ccccc"
         inkscape:connector-curvature="0"
         id="path4801"
         d="m 31.649209,928.02599 3.663824,5.14493 -3.741778,5.30086 -3.663825,-5.37881 z"
         style="fill:#000000;fill-opacity:1;fill-rule:evenodd;stroke:none;stroke-width:1px;stroke-linecap:butt;stroke-linejoin:miter;stroke-opacity:1" />
    </g>
    <g
       id="g4803"
       transform="translate(0,63.142509)">
      <path
         style="fill:#a60000;fill-opacity:0.50196081;fill-rule:evenodd;stroke:none;stroke-width:1px;stroke-linecap:butt;stroke-linejoin:miter;stroke-opacity:1"
         d="m 31.571255,926.1551 5.378806,5.92448 2.72838,0.15591 8.80877,11.84896 c 0,0 -5.300853,8.65287 -6.548113,9.90012 -1.247259,1.24726 -15.590743,2.02679 -18.786844,0.93544 -4.695948,-1.60349 -8.341048,-10.83556 -8.341048,-10.83556 0,0 6.392204,-11.84896 6.781973,-11.92692 0.389769,-0.0779 3.196102,0.85749 3.196102,0.85749 z"
         id="path4805"
         inkscape:connector-curvature="0"
         sodipodi:nodetypes="ccccsscccc" />
      <path
         style="fill:#fb0000;fill-opacity:1;fill-rule:evenodd;stroke:none;stroke-width:1px;stroke-linecap:butt;stroke-linejoin:miter;stroke-opacity:1"
         d="m 17.929355,943.7189 6.315528,-8.91095 4.980548,8.62656 -4.897749,10.28131 z"
         id="path4807"
         inkscape:connector-curvature="0"
         sodipodi:nodetypes="ccccc" />
      <path
         sodipodi:nodetypes="ccccc"
         inkscape:connector-curvature="0"
         id="path4809"
         d="m 45.205943,943.7189 -6.315528,-8.91095 -4.980548,8.62656 4.897749,10.28131 z"
         style="fill:#fb0000;fill-opacity:1;fill-rule:evenodd;stroke:none;stroke-width:1px;stroke-linecap:butt;stroke-linejoin:miter;stroke-opacity:1" />
      <path
         style="fill:#fb0000;fill-opacity:1;fill-rule:evenodd;stroke:none;stroke-width:1px;stroke-linecap:butt;stroke-linejoin:miter;stroke-opacity:1"
         d="m 31.649209,928.02599 3.663824,5.14493 -3.741778,5.30086 -3.663825,-5.37881 z"
         id="path4811"
         inkscape:connector-curvature="0"
         sodipodi:nodetypes="ccccc" />
    </g>
  </g>
</svg>
