<?xml version="1.0" encoding="UTF-8" standalone="no"?>
<!-- Created with Inkscape (http://www.inkscape.org/) -->

<svg
   xmlns:dc="http://purl.org/dc/elements/1.1/"
   xmlns:cc="http://creativecommons.org/ns#"
   xmlns:rdf="http://www.w3.org/1999/02/22-rdf-syntax-ns#"
   xmlns:svg="http://www.w3.org/2000/svg"
   xmlns="http://www.w3.org/2000/svg"
   xmlns:sodipodi="http://sodipodi.sourceforge.net/DTD/sodipodi-0.dtd"
   xmlns:inkscape="http://www.inkscape.org/namespaces/inkscape"
   width="128"
   height="128"
   viewBox="0 0 128 128"
   id="svg2"
   version="1.1"
   inkscape:version="0.91 r13725"
   sodipodi:docname="dominant_head.svg">
  <defs
     id="defs4" />
  <sodipodi:namedview
     id="base"
     pagecolor="#ffffff"
     bordercolor="#666666"
     borderopacity="1.0"
     inkscape:pageopacity="0.0"
     inkscape:pageshadow="2"
     inkscape:zoom="6.4140625"
     inkscape:cx="41.399279"
     inkscape:cy="68.997033"
     inkscape:document-units="px"
     inkscape:current-layer="layer1"
     showgrid="false"
     units="px"
     inkscape:window-width="1920"
     inkscape:window-height="1018"
     inkscape:window-x="-8"
     inkscape:window-y="-8"
     inkscape:window-maximized="1" />
  <metadata
     id="metadata7">
    <rdf:RDF>
      <cc:Work
         rdf:about="">
        <dc:format>image/svg+xml</dc:format>
        <dc:type
           rdf:resource="http://purl.org/dc/dcmitype/StillImage" />
        <dc:title></dc:title>
      </cc:Work>
    </rdf:RDF>
  </metadata>
  <g
     inkscape:label="Calque 1"
     inkscape:groupmode="layer"
     id="layer1"
     transform="translate(0,-924.36216)">
    <path
       style="fill:#879aa9;fill-opacity:1;fill-rule:evenodd;stroke:none;stroke-width:1px;stroke-linecap:butt;stroke-linejoin:miter;stroke-opacity:1"
       d="m 106.01705,994.98823 c 0,0 -0.46772,14.18757 -1.24726,15.43487 -0.77953,1.2472 -4.989035,12.9403 -8.886721,18.397 -2.806333,5.9245 -14.499391,9.3545 -14.499391,9.3545 0,0 -4.989037,-5.3009 -4.989037,-5.9245 0,-0.6236 1.403167,-14.6553 2.026796,-17.4616 0.62363,-2.8064 3.741779,-9.1986 5.924483,-12.1608 2.182704,-2.96225 7.015834,-10.13399 7.951279,-10.44581 0.935444,-0.31181 9.822171,-2.1827 9.822171,-2.1827"
       id="path4154"
       inkscape:connector-curvature="0"
       sodipodi:nodetypes="ccccssssc" />
    <path
       style="fill:#627183;fill-opacity:1;fill-rule:evenodd;stroke:none;stroke-width:1px;stroke-linecap:butt;stroke-linejoin:miter;stroke-opacity:1"
       d="m 102.58203,75.910156 c -2.20487,0.1103 -5.292961,2.811975 -10.253905,3.859375 -4.960944,1.0473 -4.189448,3.085797 -8.654297,5.841797 -4.46485,2.7561 -2.038846,17.419082 -1.818359,18.521482 0.220486,1.1024 3.30664,8.26758 3.30664,8.26758 0,0 0.121691,-0.013 0.128907,-0.0137 1.675569,-0.69871 3.659327,-1.64896 5.49414,-2.82227 0.03909,-1.50093 -1.676093,-0.28349 -1.889152,-1.93472 -0.220486,-1.7087 1.613544,-4.35531 1.889152,-5.73331 0.275608,-1.3781 -0.33138,-1.73213 -0.166015,-3.496029 0.165365,-1.7639 -0.16363,-1.433372 -0.21875,-2.701172 -0.05512,-1.2678 -0.386285,-1.929478 0.05469,-2.205078 0.440973,-0.2756 1.70463,-1.197671 2.862184,-1.693771 1.157554,-0.496 0.91075,-0.986151 1.958059,-1.592551 1.047311,-0.6063 2.745213,-4.385727 4.288618,-4.385727 1.543401,0 1.460881,-0.899299 2.838921,-3.104099 0.63828,-1.021259 1.72957,3.393706 2.47214,3.061304 0.39766,-1.266244 0.68957,-5.644883 0.88477,-9.435547 -1.16578,-0.329295 -2.3177,-0.476579 -3.17774,-0.433594 z"
       transform="translate(0,924.36216)"
       id="path4156"
       inkscape:connector-curvature="0"
       sodipodi:nodetypes="cccscccscsssccscccc" />
    <path
       style="fill:#430927;fill-opacity:1;fill-rule:evenodd;stroke:none;stroke-width:1px;stroke-linecap:butt;stroke-linejoin:miter;stroke-opacity:1"
       d="m 108.82339,981.03451 c 0,0 2.72838,7.01584 1.79293,9.97808 -0.38715,1.22597 -0.62363,9.74421 -1.40317,11.77101 -0.77954,2.0268 -3.35201,0.9354 -5.69062,2.0268 -4.524778,2.25 -4.000301,1.7945 -4.833127,2.8063 -2.182704,2.6505 0.467722,4.3654 -3.429963,6.2363 -3.897686,1.8709 -6.548112,2.3386 -7.639464,3.2741 -1.091352,0.9354 -6.236298,5.4567 -6.236298,5.4567 0,0 -2.806333,-6.5481 -2.650426,-9.0426 0.155908,-2.4945 4.677223,-24.94518 7.951279,-26.03653 3.274056,-1.09135 9.042631,-3.27406 9.042631,-3.27406"
       id="path4150"
       inkscape:connector-curvature="0"
       sodipodi:nodetypes="cssccsccssc" />
    <path
       style="opacity:1;fill:#23394e;fill-opacity:1;stroke:none;stroke-width:8;stroke-linecap:round;stroke-linejoin:round;stroke-miterlimit:4;stroke-dasharray:none;stroke-opacity:1"
       d="M 51.332031 1.0488281 C 48.783686 0.82571498 35.771575 8.9446009 34.923828 9.5097656 C 33.988384 10.133396 22.137884 22.451376 20.890625 24.322266 C 20.704372 24.601646 20.489234 24.974254 20.263672 25.384766 C 19.79875 25.413211 19.363371 25.463164 19.021484 25.568359 C 16.994688 26.191989 15.278269 31.492352 14.810547 36.013672 C 14.342825 40.534982 14.50024 42.875 13.720703 42.875 C 12.941166 42.875 11.53759 41.784087 9.9785156 43.966797 C 8.4194413 46.149497 9.0420433 51.761446 9.5097656 55.191406 C 9.9774879 58.621366 10.913035 63.610676 10.445312 69.535156 C 10.181686 72.874422 13.520478 77.012121 16.496094 80.025391 A 47.707672 47.707672 0 0 0 63.455078 119.58008 A 47.707672 47.707672 0 0 0 87.521484 112.99805 C 88.403242 110.22139 88.571672 106.76477 89.333984 105.39258 C 90.113522 103.98938 89.490234 98.532806 89.490234 97.441406 C 89.490234 96.350106 92.765385 89.958644 93.544922 87.152344 C 94.324459 84.346044 95.259869 84.345114 96.195312 81.382812 C 96.312647 81.011259 96.404699 80.640135 96.478516 80.269531 C 96.485268 80.235627 96.487702 80.201856 96.494141 80.167969 C 96.55431 79.851301 96.603988 79.535309 96.640625 79.220703 C 96.655952 79.089082 96.663719 78.959243 96.675781 78.828125 C 96.693911 78.631158 96.71241 78.435827 96.724609 78.240234 C 96.777037 77.398851 96.795495 76.583241 96.822266 75.78125 C 96.833393 75.448954 96.841946 75.113794 96.865234 74.791016 C 96.879615 74.591037 96.899808 74.395046 96.921875 74.199219 C 96.934182 74.090073 96.943734 73.978857 96.958984 73.871094 C 97.002508 73.563526 97.057044 73.260106 97.130859 72.964844 C 97.754489 70.470324 98.221731 68.910292 98.689453 67.195312 C 99.157175 65.480333 102.11866 63.299071 103.67773 62.519531 C 103.85138 62.432707 104.06338 62.29441 104.29102 62.134766 C 104.36707 62.081491 104.44634 62.021144 104.52734 61.960938 C 104.65642 61.864919 104.79385 61.756148 104.93359 61.644531 C 105.14637 61.47481 105.37252 61.276833 105.60352 61.078125 C 106.01945 60.720108 106.43427 60.346427 106.87305 59.933594 C 107.06141 59.756684 107.2276 59.604184 107.41406 59.423828 C 107.96441 58.891127 108.49981 58.359345 108.9707 57.865234 C 108.9799 57.855585 108.99085 57.843599 109 57.833984 C 109.59578 57.207875 110.09645 56.651381 110.38281 56.283203 C 111.32288 55.074536 111.11526 53.773827 111.03711 52.832031 C 110.689 50.01524 110.38281 47.435799 110.38281 46.617188 C 110.38281 44.434486 110.22715 35.390421 109.60352 33.519531 C 108.97989 31.648641 103.20981 24.164782 101.80664 21.826172 C 100.40347 19.487562 98.376953 20.891412 98.376953 22.138672 C 98.376953 23.385922 97.597656 26.037109 97.597656 26.037109 C 97.597656 26.037109 96.038276 21.827814 94.791016 19.021484 C 93.543757 16.215144 85.437536 9.667075 82.787109 7.484375 C 80.136683 5.301665 72.808594 1.0917969 72.808594 1.0917969 L 67.351562 1.8710938 L 68.755859 4.2089844 C 69.223581 4.9885244 69.067673 8.731363 68.755859 10.914062 C 68.444044 13.096763 68.443702 14.967884 68.599609 19.021484 C 68.740965 22.69672 68.132992 23.779763 67.898438 24.419922 A 47.707672 47.707672 0 0 0 63.455078 24.166016 A 47.707672 47.707672 0 0 0 59.396484 24.369141 C 56.372975 16.305648 52.950505 7.1307705 52.853516 6.5488281 C 52.697608 5.6133881 51.917626 3.7409537 51.761719 1.4023438 C 51.747102 1.1830991 51.595653 1.0719088 51.332031 1.0488281 z "
       transform="translate(0,924.36216)"
       id="path4136" />
    <path
       style="fill:#11326e;fill-rule:evenodd;stroke:none;stroke-width:1px;stroke-linecap:butt;stroke-linejoin:miter;stroke-opacity:1;fill-opacity:1"
       d="M 51.332031 1.0488281 C 50.701028 0.99358245 49.42605 1.4513723 47.855469 2.1777344 C 48.334215 3.5483123 48.807233 5.3620973 48.287109 6.4023438 C 47.405163 8.1662337 45.861762 10.590706 46.302734 11.472656 C 46.743707 12.354596 48.947048 15.661886 48.726562 19.410156 C 48.506076 23.158426 44.318139 27.238487 47.074219 30.435547 C 49.830299 33.632597 53.577473 36.166655 54.900391 40.796875 C 56.22331 45.427085 57.216359 47.412751 59.751953 51.050781 C 62.287547 54.688801 65.924695 56.671875 66.806641 60.640625 C 67.688586 64.609385 68.570312 67.367188 68.570312 67.367188 C 68.570312 67.367188 72.318577 61.08334 72.539062 58.4375 C 72.75955 55.79166 72.539713 48.956174 73.201172 46.089844 C 73.862632 43.223524 75.185979 40.687505 76.619141 38.703125 C 78.052302 36.718745 78.82422 37.269102 77.832031 33.851562 C 76.839842 30.434022 76.618923 30.98525 77.390625 26.90625 C 78.162328 22.82726 78.052736 21.393877 77.060547 18.748047 C 76.068359 16.102207 75.405598 15.222012 75.736328 12.576172 C 76.067058 9.9303319 77.060547 9.9303444 76.068359 7.6152344 C 75.57307 6.4595624 73.978369 3.6534191 72.505859 1.1347656 L 67.351562 1.8710938 L 68.755859 4.2089844 C 69.223581 4.9885244 69.067673 8.7313635 68.755859 10.914062 C 68.444044 13.096763 68.443702 14.967884 68.599609 19.021484 C 68.740965 22.69672 68.132992 23.779763 67.898438 24.419922 A 47.707672 47.707672 0 0 0 63.455078 24.166016 A 47.707672 47.707672 0 0 0 59.396484 24.369141 C 56.372975 16.305648 52.950505 7.1307705 52.853516 6.5488281 C 52.697608 5.6133881 51.917626 3.7409536 51.761719 1.4023438 C 51.747102 1.1830991 51.595653 1.0719088 51.332031 1.0488281 z "
       transform="translate(0,924.36216)"
       id="path4197" />
    <path
       style="fill:#546d82;fill-rule:evenodd;stroke:none;stroke-width:1px;stroke-linecap:butt;stroke-linejoin:miter;stroke-opacity:1;fill-opacity:1"
       d="m 67.040195,977.83841 c 0,0 -0.155908,-4.0536 -1.559074,-7.17174 -1.403167,-3.11815 -2.026797,-4.83313 -2.962242,-6.70402 -0.935444,-1.87089 -2.338611,-7.01584 -2.650426,-8.73082 -0.311815,-1.71498 -0.935444,-4.83313 -0.935444,-5.61267 0,-0.77953 0,-0.93544 -0.62363,-2.65042 -0.62363,-1.71498 -1.24726,-4.2095 -1.24726,-4.2095 0,0 0.311815,-0.62363 2.338612,-1.24726 2.026796,-0.62363 3.274056,-1.24726 4.83313,-0.93545 1.559074,0.31182 3.118149,0.46773 3.741778,0.62363 0.62363,0.15591 1.24726,-0.31181 1.714982,0.77954 0.467722,1.09135 1.091352,3.89768 0.467722,5.76857 -0.623629,1.87089 -2.182704,3.58588 -2.494518,6.39221 -0.311815,2.80633 0,2.80633 0.155907,7.63946 0.155907,4.83313 0.311815,5.61267 0.311815,7.63947 0,2.02679 -1.091352,8.419 -1.091352,8.419 z"
       id="path4142"
       inkscape:connector-curvature="0" />
    <path
       style="opacity:1;fill:#251e32;fill-opacity:1;stroke:none;stroke-width:8;stroke-linecap:round;stroke-linejoin:round;stroke-miterlimit:4;stroke-dasharray:none;stroke-opacity:1"
       d="M 101.36914 42.671875 A 2.9214449 2.6458368 0 0 0 98.447266 45.318359 A 2.9214449 2.6458368 0 0 0 101.36914 47.962891 A 2.9214449 2.6458368 0 0 0 104.29102 45.318359 A 2.9214449 2.6458368 0 0 0 101.36914 42.671875 z M 85.603516 45.427734 A 1.8190128 1.653648 0 0 0 83.785156 47.082031 A 1.8190128 1.653648 0 0 0 85.603516 48.734375 A 1.8190128 1.653648 0 0 0 87.423828 47.082031 A 1.8190128 1.653648 0 0 0 85.603516 45.427734 z M 110.24414 48.625 A 5.8428898 6.6145921 0 0 0 105.01172 52.3125 A 5.8980112 5.0160656 0 0 0 100.70703 50.71875 A 5.8980112 5.0160656 0 0 0 94.882812 54.982422 A 9.4257936 9.9770098 0 0 0 87.919922 51.710938 A 9.4257936 9.9770098 0 0 0 78.492188 61.689453 A 9.4257936 9.9770098 0 0 0 86.984375 71.615234 A 8.5989695 8.7092133 0 0 0 87.167969 73.308594 A 7.4965377 7.606781 0 0 0 82.130859 80.484375 A 7.4965377 7.606781 0 0 0 83.193359 84.371094 A 10.638469 11.134563 0 0 0 80.037109 92.28125 A 10.638469 11.134563 0 0 0 86.341797 102.44141 A 3.1419313 3.2521744 0 0 0 85.878906 104.13281 A 3.1419313 3.2521744 0 0 0 88.732422 107.36914 C 88.901202 106.56495 89.083198 105.844 89.333984 105.39258 C 90.113522 103.98938 89.490234 98.532806 89.490234 97.441406 C 89.490234 96.350106 92.765385 89.958644 93.544922 87.152344 C 94.324459 84.346044 95.25987 84.345115 96.195312 81.382812 C 96.312647 81.011259 96.404699 80.640135 96.478516 80.269531 C 96.485268 80.235627 96.487702 80.201856 96.494141 80.167969 C 96.55431 79.851301 96.603988 79.535309 96.640625 79.220703 C 96.655952 79.089082 96.663719 78.959243 96.675781 78.828125 C 96.693911 78.631158 96.71241 78.435827 96.724609 78.240234 C 96.777037 77.398851 96.795495 76.583241 96.822266 75.78125 C 96.833393 75.448954 96.841946 75.113794 96.865234 74.791016 C 96.879615 74.591037 96.899808 74.395046 96.921875 74.199219 C 96.934182 74.090073 96.943734 73.978857 96.958984 73.871094 C 97.002508 73.563526 97.057044 73.260106 97.130859 72.964844 C 97.754489 70.470324 98.221731 68.910292 98.689453 67.195312 C 99.157175 65.480334 102.11866 63.299071 103.67773 62.519531 C 103.85138 62.432707 104.06338 62.29441 104.29102 62.134766 C 104.36707 62.081491 104.44634 62.021143 104.52734 61.960938 C 104.65642 61.864919 104.79385 61.756148 104.93359 61.644531 C 105.14637 61.47481 105.37252 61.276833 105.60352 61.078125 C 106.01945 60.720108 106.43427 60.346427 106.87305 59.933594 C 107.06141 59.756684 107.2276 59.604184 107.41406 59.423828 C 107.96441 58.891127 108.49981 58.359345 108.9707 57.865234 C 108.9799 57.855585 108.99085 57.843599 109 57.833984 C 109.59578 57.207875 110.09645 56.651381 110.38281 56.283203 C 111.32288 55.074536 111.11526 53.773827 111.03711 52.832031 C 110.84272 51.259096 110.6691 49.798303 110.54688 48.638672 A 5.8428898 6.6145921 0 0 0 110.24414 48.625 z M 70.335938 72.658203 A 4.6302142 4.7955794 0 0 0 65.705078 77.453125 A 4.6302142 4.7955794 0 0 0 70.335938 82.25 A 4.6302142 4.7955794 0 0 0 74.964844 77.453125 A 4.6302142 4.7955794 0 0 0 70.335938 72.658203 z M 67.523438 88.533203 A 1.1575536 1.102432 0 0 0 66.367188 89.634766 A 1.1575536 1.102432 0 0 0 67.523438 90.738281 A 1.1575536 1.102432 0 0 0 68.681641 89.634766 A 1.1575536 1.102432 0 0 0 67.523438 88.533203 z M 76.068359 94.265625 A 1.653648 2.0394993 0 0 0 74.414062 96.304688 A 1.653648 2.0394993 0 0 0 76.068359 98.34375 A 1.653648 2.0394993 0 0 0 77.720703 96.304688 A 1.653648 2.0394993 0 0 0 76.068359 94.265625 z M 62.617188 107.93555 A 1.8741344 1.9843776 0 0 0 60.744141 109.91992 A 1.8741344 1.9843776 0 0 0 62.617188 111.9043 A 1.8741344 1.9843776 0 0 0 64.492188 109.91992 A 1.8741344 1.9843776 0 0 0 62.617188 107.93555 z "
       transform="translate(0,924.36216)"
       id="path4162" />
  </g>
</svg>
