<?xml version="1.0" encoding="UTF-8" standalone="no"?>
<!-- Created with Inkscape (http://www.inkscape.org/) -->

<svg
   xmlns:dc="http://purl.org/dc/elements/1.1/"
   xmlns:cc="http://creativecommons.org/ns#"
   xmlns:rdf="http://www.w3.org/1999/02/22-rdf-syntax-ns#"
   xmlns:svg="http://www.w3.org/2000/svg"
   xmlns="http://www.w3.org/2000/svg"
   xmlns:sodipodi="http://sodipodi.sourceforge.net/DTD/sodipodi-0.dtd"
   xmlns:inkscape="http://www.inkscape.org/namespaces/inkscape"
   width="256"
   height="256"
   viewBox="0 0 256 256"
   id="svg4813"
   version="1.1"
   inkscape:version="0.91 r13725"
   sodipodi:docname="dominant.svg"
   inkscape:export-filename="C:\Prog\Projets\teeworlds\zomb_assets\dominant.png"
   inkscape:export-xdpi="90"
   inkscape:export-ydpi="90">
  <defs
     id="defs4815" />
  <sodipodi:namedview
     id="base"
     pagecolor="#ffffff"
     bordercolor="#666666"
     borderopacity="1.0"
     inkscape:pageopacity="0.0"
     inkscape:pageshadow="2"
     inkscape:zoom="3.2070312"
     inkscape:cx="139.03513"
     inkscape:cy="142.42262"
     inkscape:document-units="px"
     inkscape:current-layer="layer1-3"
     showgrid="false"
     units="px"
     inkscape:window-width="1920"
     inkscape:window-height="1018"
     inkscape:window-x="-8"
     inkscape:window-y="-8"
     inkscape:window-maximized="1" />
  <metadata
     id="metadata4818">
    <rdf:RDF>
      <cc:Work
         rdf:about="">
        <dc:format>image/svg+xml</dc:format>
        <dc:type
           rdf:resource="http://purl.org/dc/dcmitype/StillImage" />
        <dc:title />
      </cc:Work>
    </rdf:RDF>
  </metadata>
  <g
     inkscape:label="Calque 1"
     inkscape:groupmode="layer"
     id="layer1"
     transform="translate(0,-796.36216)">
    <path
       style="fill:none;fill-opacity:1;fill-rule:evenodd;stroke:#000000;stroke-width:2;stroke-linecap:butt;stroke-linejoin:round;stroke-opacity:1;stroke-miterlimit:4;stroke-dasharray:none"
       d="M 183.45898 134.4707 C 183.19852 134.4479 182.80479 134.53158 182.31445 134.69531 C 182.31445 134.69531 182.3125 134.69531 182.3125 134.69531 C 182.30809 134.69679 182.30521 134.69773 182.30078 134.69922 C 182.05887 134.78039 181.79415 134.88096 181.50977 134.99805 C 181.23224 135.11227 180.93514 135.2438 180.625 135.38672 C 180.61208 135.39267 180.60086 135.39635 180.58789 135.40234 C 176.64804 137.22453 170.43866 141.10405 169.91211 141.45508 C 169.13985 141.96993 159.35781 152.13906 158.32812 153.68359 C 158.17436 153.91423 157.99676 154.22165 157.81055 154.56055 C 157.42673 154.58405 157.06741 154.62602 156.78516 154.71289 C 155.11192 155.22773 153.69472 159.60333 153.30859 163.33594 C 152.92246 167.06855 153.05175 169 152.4082 169 C 151.76465 169 150.60547 168.10038 149.31836 169.90234 C 148.03126 171.70428 148.54551 176.33634 148.93164 179.16797 C 149.31778 181.99961 150.08926 186.11876 149.70312 191.00977 C 149.48549 193.76653 152.24267 197.18229 154.69922 199.66992 A 39.3855 39.3855 0 0 0 193.4668 232.32422 A 39.3855 39.3855 0 0 0 213.33594 226.89062 C 213.4919 226.3995 213.616 225.88154 213.72852 225.36133 C 213.7344 225.35836 213.74021 225.35454 213.74609 225.35156 C 214.11529 225.16547 214.48437 224.96791 214.85547 224.75977 C 214.86258 224.75578 214.86984 224.75204 214.87695 224.74805 C 214.88353 224.74434 214.88991 224.74004 214.89648 224.73633 C 215.26879 224.52662 215.63684 224.30564 216 224.07422 C 216.0096 224.0681 216.01971 224.06277 216.0293 224.05664 C 217.83146 222.90417 219.45563 221.49407 220.23828 219.8418 C 223.45605 215.3369 226.93067 205.68194 227.57422 204.65234 C 227.60416 204.60443 227.63329 204.51185 227.66211 204.41992 C 227.66236 204.41911 227.66185 204.41683 227.66211 204.41602 C 227.73222 204.19074 227.79816 203.80108 227.86133 203.36133 C 227.88507 203.19648 227.90709 203.01867 227.92969 202.83008 C 227.97937 202.41724 228.02759 201.97975 228.07227 201.47852 C 228.08223 201.36527 228.09187 201.25729 228.10156 201.14062 C 228.14401 200.63765 228.18325 200.13739 228.2207 199.5918 C 229.57163 199.4326 230.78511 199.53411 231.24219 198.3457 C 231.88575 196.67245 232.08078 189.64102 232.40039 188.62891 C 233.00922 186.70098 231.77427 182.79953 231.20898 181.18945 C 231.62083 180.75109 232.00214 180.33627 232.20898 180.07031 C 232.98507 179.07248 232.81256 177.99821 232.74805 177.2207 C 232.59346 175.96982 232.45954 174.8263 232.35938 173.88672 C 232.27318 173.0795 232.20898 172.40166 232.20898 172.08984 C 232.20898 170.28789 232.0793 162.82187 231.56445 161.27734 C 231.04961 159.73281 226.28731 153.55371 225.12891 151.62305 C 223.97051 149.69239 222.29688 150.85117 222.29688 151.88086 C 222.29688 152.91054 221.6543 155.09961 221.6543 155.09961 C 221.6543 155.09961 220.36563 151.62538 219.33594 149.30859 C 218.30624 146.99179 211.61386 141.58515 209.42578 139.7832 C 207.23769 137.98125 201.18945 134.50586 201.18945 134.50586 L 200.93945 134.54102 L 196.68359 135.14844 L 196.68359 135.15039 L 197.84375 137.08008 C 198.22988 137.72363 198.10117 140.81329 197.84375 142.61523 C 197.63815 144.05448 197.59907 145.37302 197.65625 147.5332 C 197.5054 147.53861 197.35354 147.54444 197.19922 147.50586 C 196.68438 147.37716 195.39649 147.24765 194.10938 146.99023 C 192.82228 146.73281 191.79238 147.24882 190.11914 147.76367 C 188.81742 148.1642 188.38141 148.55477 188.24805 148.71289 C 186.4248 143.82603 184.77418 139.36773 184.71484 139.01172 C 184.58613 138.23946 183.94121 136.69238 183.8125 134.76172 C 183.8004 134.58072 183.67662 134.48975 183.45898 134.4707 z "
       transform="translate(0,796.36216)"
       id="path5418" />
    <g
       transform="matrix(0.82555904,0,0,0.82555904,141.08084,37.136347)"
       id="layer1-3"
       inkscape:label="Calque 1">
      <path
         sodipodi:nodetypes="ccccssssc"
         inkscape:connector-curvature="0"
         id="path4154"
         d="m 106.01705,994.98823 c 0,0 -0.46772,14.18757 -1.24726,15.43487 -0.77953,1.2472 -4.989035,12.9403 -8.886721,18.397 -2.806333,5.9245 -14.499391,9.3545 -14.499391,9.3545 0,0 -4.989037,-5.3009 -4.989037,-5.9245 0,-0.6236 1.403167,-14.6553 2.026796,-17.4616 0.62363,-2.8064 3.741779,-9.1986 5.924483,-12.1608 2.182704,-2.96225 7.015834,-10.13399 7.951279,-10.44581 0.935444,-0.31181 9.822171,-2.1827 9.822171,-2.1827"
         style="fill:#afa295;fill-opacity:1;fill-rule:evenodd;stroke:none;stroke-width:1px;stroke-linecap:butt;stroke-linejoin:miter;stroke-opacity:1" />
      <path
         sodipodi:nodetypes="cccscccscsssccscccc"
         inkscape:connector-curvature="0"
         id="path4156"
         transform="translate(0,924.36216)"
         d="m 102.58203,75.910156 c -2.20487,0.1103 -5.292961,2.811975 -10.253905,3.859375 -4.960944,1.0473 -4.189448,3.085797 -8.654297,5.841797 -4.46485,2.7561 -2.038846,17.419082 -1.818359,18.521482 0.220486,1.1024 3.30664,8.26758 3.30664,8.26758 0,0 0.121691,-0.013 0.128907,-0.0137 1.675569,-0.69871 3.659327,-1.64896 5.49414,-2.82227 0.03909,-1.50093 -1.676093,-0.28349 -1.889152,-1.93472 -0.220486,-1.7087 1.613544,-4.35531 1.889152,-5.73331 0.275608,-1.3781 -0.33138,-1.73213 -0.166015,-3.496029 0.165365,-1.7639 -0.16363,-1.433372 -0.21875,-2.701172 -0.05512,-1.2678 -0.386285,-1.929478 0.05469,-2.205078 0.440973,-0.2756 1.70463,-1.197671 2.862184,-1.693771 1.157554,-0.496 0.91075,-0.986151 1.958059,-1.592551 1.047311,-0.6063 2.745213,-4.385727 4.288618,-4.385727 1.543398,0 1.460878,-0.899299 2.838918,-3.104099 0.63828,-1.021259 1.72957,3.393706 2.47214,3.061304 0.39766,-1.266244 0.68957,-5.644883 0.88477,-9.435547 -1.16578,-0.329295 -2.3177,-0.476579 -3.17774,-0.433594 z"
         style="fill:#a58360;fill-opacity:1;fill-rule:evenodd;stroke:none;stroke-width:1px;stroke-linecap:butt;stroke-linejoin:miter;stroke-opacity:1" />
      <path
         sodipodi:nodetypes="cssccsccssc"
         inkscape:connector-curvature="0"
         id="path4150"
         d="m 108.82339,981.03451 c 0,0 2.72838,7.01584 1.79293,9.97808 -0.38715,1.22597 -0.62363,9.74421 -1.40317,11.77101 -0.77954,2.0268 -3.35201,0.9354 -5.69062,2.0268 -4.524778,2.25 -4.000301,1.7945 -4.833127,2.8063 -2.182704,2.6505 0.467722,4.3654 -3.429963,6.2363 -3.897686,1.8709 -6.548112,2.3386 -7.639464,3.2741 -1.091352,0.9354 -6.236298,5.4567 -6.236298,5.4567 0,0 -2.806333,-6.5481 -2.650426,-9.0426 0.155908,-2.4945 4.677223,-24.94518 7.951279,-26.03653 3.274056,-1.09135 9.042631,-3.27406 9.042631,-3.27406"
         style="fill:#430927;fill-opacity:1;fill-rule:evenodd;stroke:none;stroke-width:1px;stroke-linecap:butt;stroke-linejoin:miter;stroke-opacity:1" />
      <path
         id="path4136"
         transform="translate(0,924.36216)"
         d="M 51.332031,1.0488281 C 48.783686,0.82571498 35.771575,8.9446009 34.923828,9.5097656 33.988384,10.133396 22.137884,22.451376 20.890625,24.322266 c -0.186253,0.27938 -0.401391,0.651988 -0.626953,1.0625 -0.464922,0.02845 -0.900301,0.0784 -1.242188,0.183593 -2.026796,0.62363 -3.743215,5.923993 -4.210937,10.445313 -0.467722,4.52131 -0.310307,6.861328 -1.089844,6.861328 -0.779537,0 -2.183113,-1.090913 -3.7421874,1.091797 -1.5590743,2.1827 -0.9364723,7.794649 -0.46875,11.224609 0.4677223,3.42996 1.4032694,8.41927 0.9355464,14.34375 -0.263626,3.339266 3.075166,7.476965 6.050782,10.490235 a 47.707672,47.707672 0 0 0 46.958984,39.554689 47.707672,47.707672 0 0 0 24.066406,-6.58203 c 0.881758,-2.77666 1.050188,-6.23328 1.8125,-7.60547 0.779538,-1.4032 0.15625,-6.859774 0.15625,-7.951174 0,-1.0913 3.275151,-7.482762 4.054688,-10.289062 0.779537,-2.8063 1.714947,-2.80723 2.65039,-5.769532 0.117335,-0.371553 0.209387,-0.742677 0.283204,-1.113281 0.0068,-0.0339 0.0092,-0.06767 0.01563,-0.101562 0.06017,-0.316668 0.109847,-0.63266 0.146484,-0.947266 0.01533,-0.131621 0.02309,-0.26146 0.03516,-0.392578 0.01813,-0.196967 0.03663,-0.392298 0.04883,-0.587891 0.05243,-0.841383 0.07089,-1.656993 0.09766,-2.458984 0.01113,-0.332296 0.01968,-0.667456 0.04297,-0.990234 0.01438,-0.199979 0.03457,-0.39597 0.05664,-0.591797 0.01231,-0.109146 0.02186,-0.220362 0.03711,-0.328125 0.04352,-0.307568 0.09806,-0.610988 0.171875,-0.90625 0.62363,-2.49452 1.090872,-4.054552 1.558594,-5.769532 0.467722,-1.714979 3.429211,-3.896241 4.988281,-4.675781 0.17365,-0.08682 0.38565,-0.225121 0.61329,-0.384765 0.076,-0.05327 0.15532,-0.113622 0.23632,-0.173828 0.12908,-0.09602 0.26651,-0.20479 0.40625,-0.316407 0.21278,-0.169721 0.43893,-0.367698 0.66993,-0.566406 0.41593,-0.358017 0.83075,-0.731698 1.26953,-1.144531 0.18836,-0.17691 0.35455,-0.32941 0.54101,-0.509766 0.55035,-0.532701 1.08575,-1.064483 1.55664,-1.558594 0.009,-0.0096 0.0202,-0.02164 0.0293,-0.03125 0.59578,-0.626109 1.09645,-1.182603 1.38281,-1.550781 0.94007,-1.208667 0.73245,-2.509376 0.6543,-3.451172 -0.34811,-2.816791 -0.6543,-5.396232 -0.6543,-6.214843 0,-2.182702 -0.15566,-11.226767 -0.77929,-13.097657 -0.62363,-1.87089 -6.39371,-9.354749 -7.79688,-11.693359 -1.40317,-2.33861 -3.429691,-0.93476 -3.429691,0.3125 0,1.24725 -0.779297,3.898437 -0.779297,3.898437 0,0 -1.55938,-4.209295 -2.80664,-7.015625 C 93.543757,16.215144 85.437536,9.667075 82.787109,7.484375 80.136683,5.301665 72.808594,1.0917969 72.808594,1.0917969 l -5.457032,0.7792969 1.404297,2.3378906 c 0.467722,0.77954 0.311814,4.5223786 0,6.7050776 -0.311815,2.182701 -0.312157,4.053822 -0.15625,8.107422 0.141356,3.675236 -0.466617,4.758279 -0.701171,5.398438 a 47.707672,47.707672 0 0 0 -4.44336,-0.253906 47.707672,47.707672 0 0 0 -4.058594,0.203125 C 56.372975,16.305648 52.950505,7.1307705 52.853516,6.5488281 52.697608,5.6133881 51.917626,3.7409537 51.761719,1.4023438 51.747102,1.1830991 51.595653,1.0719088 51.332031,1.0488281 Z"
         style="opacity:1;fill:#4b3833;fill-opacity:1;stroke:none;stroke-width:8;stroke-linecap:round;stroke-linejoin:round;stroke-miterlimit:4;stroke-dasharray:none;stroke-opacity:1"
         inkscape:connector-curvature="0" />
      <path
         id="path4197"
         transform="translate(0,924.36216)"
         d="m 51.332031,1.0488281 c -0.631003,-0.0552456 -1.905981,0.4025442 -3.476562,1.1289063 0.478746,1.3705779 0.951764,3.1843629 0.43164,4.2246094 -0.881946,1.7638899 -2.425347,4.1883622 -1.984375,5.0703122 0.440973,0.88194 2.644314,4.18923 2.423828,7.9375 -0.220486,3.74827 -4.408423,7.828331 -1.652343,11.025391 2.75608,3.19705 6.503254,5.731108 7.826172,10.361328 1.322919,4.63021 2.315968,6.615876 4.851562,10.253906 2.535594,3.63802 6.172742,5.621094 7.054688,9.589844 0.881945,3.96876 1.763671,6.726563 1.763671,6.726563 0,0 3.748265,-6.283848 3.96875,-8.929688 0.220488,-2.64584 6.51e-4,-9.481326 0.66211,-12.347656 0.66146,-2.86632 1.984807,-5.402339 3.417969,-7.386719 1.433161,-1.98438 2.205079,-1.434023 1.21289,-4.851563 -0.992189,-3.41754 -1.213108,-2.866312 -0.441406,-6.945312 0.771703,-4.07899 0.662111,-5.512373 -0.330078,-8.158203 -0.992188,-2.64584 -1.654949,-3.526035 -1.324219,-6.171875 0.33073,-2.6458401 1.324219,-2.6458276 0.332031,-4.9609376 -0.495289,-1.155672 -2.08999,-3.9618153 -3.5625,-6.4804688 l -5.154297,0.7363282 1.404297,2.3378906 c 0.467722,0.77954 0.311814,4.5223791 0,6.7050776 -0.311815,2.182701 -0.312157,4.053822 -0.15625,8.107422 0.141356,3.675236 -0.466617,4.758279 -0.701171,5.398438 a 47.707672,47.707672 0 0 0 -4.44336,-0.253906 47.707672,47.707672 0 0 0 -4.058594,0.203125 C 56.372975,16.305648 52.950505,7.1307705 52.853516,6.5488281 52.697608,5.6133881 51.917626,3.7409536 51.761719,1.4023438 51.747102,1.1830991 51.595653,1.0719088 51.332031,1.0488281 Z"
         style="fill:#113e92;fill-opacity:1;fill-rule:evenodd;stroke:none;stroke-width:1px;stroke-linecap:butt;stroke-linejoin:miter;stroke-opacity:1"
         inkscape:connector-curvature="0" />
      <path
         inkscape:connector-curvature="0"
         id="path4142"
         d="m 67.040195,977.83841 c 0,0 -0.155908,-4.0536 -1.559074,-7.17174 -1.403167,-3.11815 -2.026797,-4.83313 -2.962242,-6.70402 -0.935444,-1.87089 -2.338611,-7.01584 -2.650426,-8.73082 -0.311815,-1.71498 -0.935444,-4.83313 -0.935444,-5.61267 0,-0.77953 0,-0.93544 -0.62363,-2.65042 -0.62363,-1.71498 -1.24726,-4.2095 -1.24726,-4.2095 0,0 0.311815,-0.62363 2.338612,-1.24726 2.026796,-0.62363 3.274056,-1.24726 4.83313,-0.93545 1.559074,0.31182 3.118149,0.46773 3.741778,0.62363 0.62363,0.15591 1.24726,-0.31181 1.714982,0.77954 0.467722,1.09135 1.091352,3.89768 0.467722,5.76857 -0.623629,1.87089 -2.182704,3.58588 -2.494518,6.39221 -0.311815,2.80633 0,2.80633 0.155907,7.63946 0.155907,4.83313 0.311815,5.61267 0.311815,7.63947 0,2.02679 -1.091352,8.419 -1.091352,8.419 z"
         style="fill:#2c87aa;fill-opacity:1;fill-rule:evenodd;stroke:none;stroke-width:1px;stroke-linecap:butt;stroke-linejoin:miter;stroke-opacity:1" />
      <path
         id="path4162"
         transform="translate(0,924.36216)"
         d="m 101.36914,42.671875 a 2.9214449,2.6458368 0 0 0 -2.921874,2.646484 2.9214449,2.6458368 0 0 0 2.921874,2.644532 2.9214449,2.6458368 0 0 0 2.92188,-2.644532 2.9214449,2.6458368 0 0 0 -2.92188,-2.646484 z m -15.765624,2.755859 a 1.8190128,1.653648 0 0 0 -1.81836,1.654297 1.8190128,1.653648 0 0 0 1.81836,1.652344 1.8190128,1.653648 0 0 0 1.820312,-1.652344 1.8190128,1.653648 0 0 0 -1.820312,-1.654297 z M 110.24414,48.625 a 5.8428898,6.6145921 0 0 0 -5.23242,3.6875 5.8980112,5.0160656 0 0 0 -4.30469,-1.59375 5.8980112,5.0160656 0 0 0 -5.824218,4.263672 9.4257936,9.9770098 0 0 0 -6.96289,-3.271484 9.4257936,9.9770098 0 0 0 -9.427734,9.978515 9.4257936,9.9770098 0 0 0 8.492187,9.925781 8.5989695,8.7092133 0 0 0 0.183594,1.69336 7.4965377,7.606781 0 0 0 -5.03711,7.175781 7.4965377,7.606781 0 0 0 1.0625,3.886719 10.638469,11.134563 0 0 0 -3.15625,7.910156 10.638469,11.134563 0 0 0 6.304688,10.16016 3.1419313,3.2521744 0 0 0 -0.462891,1.6914 3.1419313,3.2521744 0 0 0 2.853516,3.23633 c 0.16878,-0.80419 0.350776,-1.52514 0.601562,-1.97656 0.779538,-1.4032 0.15625,-6.859774 0.15625,-7.951174 0,-1.0913 3.275151,-7.482762 4.054688,-10.289062 0.779537,-2.8063 1.714948,-2.807229 2.65039,-5.769532 0.117335,-0.371553 0.209387,-0.742677 0.283204,-1.113281 0.0068,-0.0339 0.0092,-0.06767 0.01563,-0.101562 0.06017,-0.316668 0.109847,-0.63266 0.146484,-0.947266 0.01533,-0.131621 0.02309,-0.26146 0.03516,-0.392578 0.01813,-0.196967 0.03663,-0.392298 0.04883,-0.587891 0.05243,-0.841383 0.07089,-1.656993 0.09766,-2.458984 0.01113,-0.332296 0.01968,-0.667456 0.04297,-0.990234 0.01438,-0.199979 0.03457,-0.39597 0.05664,-0.591797 0.01231,-0.109146 0.02186,-0.220362 0.03711,-0.328125 0.04352,-0.307568 0.09806,-0.610988 0.171875,-0.90625 0.62363,-2.49452 1.090872,-4.054552 1.558594,-5.769532 0.467722,-1.714978 3.429211,-3.896241 4.988281,-4.675781 0.17365,-0.08682 0.38565,-0.225121 0.61329,-0.384765 0.076,-0.05327 0.15532,-0.113623 0.23632,-0.173828 0.12908,-0.09602 0.26651,-0.20479 0.40625,-0.316407 0.21278,-0.169721 0.43893,-0.367698 0.66993,-0.566406 0.41593,-0.358017 0.83075,-0.731698 1.26953,-1.144531 0.18836,-0.17691 0.35455,-0.32941 0.54101,-0.509766 0.55035,-0.532701 1.08575,-1.064483 1.55664,-1.558594 0.009,-0.0096 0.0202,-0.02164 0.0293,-0.03125 0.59578,-0.626109 1.09645,-1.182603 1.38281,-1.550781 0.94007,-1.208667 0.73245,-2.509376 0.6543,-3.451172 -0.19439,-1.572935 -0.36801,-3.033728 -0.49023,-4.193359 A 5.8428898,6.6145921 0 0 0 110.24414,48.625 Z M 70.335938,72.658203 a 4.6302142,4.7955794 0 0 0 -4.63086,4.794922 4.6302142,4.7955794 0 0 0 4.63086,4.796875 4.6302142,4.7955794 0 0 0 4.628906,-4.796875 4.6302142,4.7955794 0 0 0 -4.628906,-4.794922 z m -2.8125,15.875 a 1.1575536,1.102432 0 0 0 -1.15625,1.101563 1.1575536,1.102432 0 0 0 1.15625,1.103515 1.1575536,1.102432 0 0 0 1.158203,-1.103515 1.1575536,1.102432 0 0 0 -1.158203,-1.101563 z m 8.544921,5.732422 a 1.653648,2.0394993 0 0 0 -1.654297,2.039063 1.653648,2.0394993 0 0 0 1.654297,2.039062 1.653648,2.0394993 0 0 0 1.652344,-2.039062 1.653648,2.0394993 0 0 0 -1.652344,-2.039063 z M 62.617188,107.93555 a 1.8741344,1.9843776 0 0 0 -1.873047,1.98437 1.8741344,1.9843776 0 0 0 1.873047,1.98438 1.8741344,1.9843776 0 0 0 1.875,-1.98438 1.8741344,1.9843776 0 0 0 -1.875,-1.98437 z"
         style="opacity:1;fill:#452323;fill-opacity:1;stroke:none;stroke-width:8;stroke-linecap:round;stroke-linejoin:round;stroke-miterlimit:4;stroke-dasharray:none;stroke-opacity:1"
         inkscape:connector-curvature="0" />
    </g>
    <path
       style="fill:#000000;fill-opacity:1;fill-rule:evenodd;stroke:#000000;stroke-width:8;stroke-linecap:butt;stroke-linejoin:round;stroke-opacity:1;stroke-miterlimit:4;stroke-dasharray:none"
       d="M 55.302734 4.7558594 C 55.042269 4.7330594 54.648538 4.8167313 54.158203 4.9804688 C 54.158203 4.9804688 54.15625 4.9804688 54.15625 4.9804688 C 54.151836 4.9819417 54.148961 4.9828889 54.144531 4.984375 C 53.902627 5.0655458 53.639846 5.1661248 53.355469 5.2832031 C 53.081619 5.3959094 52.786124 5.5253333 52.480469 5.6660156 C 52.463407 5.6738681 52.448788 5.6795695 52.431641 5.6875 C 48.491788 7.5096968 42.282404 11.389209 41.755859 11.740234 C 40.983595 12.255084 31.201561 22.42422 30.171875 23.96875 C 30.018112 24.19939 29.840511 24.506803 29.654297 24.845703 C 29.270476 24.869203 28.911154 24.911177 28.628906 24.998047 C 26.955666 25.512887 25.538476 29.888484 25.152344 33.621094 C 24.766212 37.353704 24.895507 39.285156 24.251953 39.285156 C 23.6084 39.285156 22.449217 38.38554 21.162109 40.1875 C 19.875001 41.98944 20.389259 46.621495 20.775391 49.453125 C 21.161523 52.284765 21.934961 56.403912 21.548828 61.294922 C 21.331189 64.051682 24.086422 67.467448 26.542969 69.955078 A 39.3855 39.3855 0 0 0 65.310547 102.60938 A 39.3855 39.3855 0 0 0 85.179688 97.175781 C 85.335649 96.684658 85.459755 96.166698 85.572266 95.646484 C 85.57277 95.64623 85.573715 95.646739 85.574219 95.646484 C 85.955503 95.454596 86.337405 95.248631 86.720703 95.033203 C 87.105302 94.817045 87.484501 94.588933 87.859375 94.349609 C 87.863799 94.346785 87.868625 94.344624 87.873047 94.341797 C 89.675437 93.189261 91.299294 91.777452 92.082031 90.125 C 95.299801 85.62017 98.774421 75.96714 99.417969 74.9375 C 99.447853 74.889683 99.477098 74.796724 99.505859 74.705078 C 99.576309 74.480596 99.641633 74.09143 99.705078 73.650391 C 99.730347 73.475272 99.755317 73.283949 99.779297 73.082031 C 99.827121 72.680636 99.870909 72.256833 99.914062 71.773438 C 99.92436 71.656666 99.935306 71.546212 99.945312 71.425781 C 99.987764 70.922812 100.027 70.422545 100.06445 69.876953 C 101.41607 69.717465 102.62866 69.81977 103.08594 68.630859 C 103.72949 66.957619 103.92647 59.926173 104.24609 58.914062 C 104.85492 56.986131 103.61802 53.084688 103.05273 51.474609 C 103.46458 51.036249 103.84588 50.621422 104.05273 50.355469 C 104.82881 49.357639 104.65632 48.283369 104.5918 47.505859 C 104.43702 46.253421 104.30136 45.106201 104.20117 44.166016 C 104.11548 43.362714 104.05273 42.685782 104.05273 42.375 C 104.05273 40.57305 103.92304 33.10703 103.4082 31.5625 C 102.89335 30.01797 98.131056 23.838863 96.972656 21.908203 C 95.814257 19.977543 94.140625 21.136326 94.140625 22.166016 C 94.140625 23.195696 93.498047 25.384766 93.498047 25.384766 C 93.498047 25.384766 92.209374 21.91054 91.179688 19.59375 C 90.149989 17.27695 83.459568 11.870309 81.271484 10.068359 C 79.083401 8.2664094 73.033203 4.7910156 73.033203 4.7910156 L 72.783203 4.8261719 L 68.527344 5.4335938 L 69.6875 7.3652344 C 70.073632 8.0087844 69.944921 11.098451 69.6875 12.900391 C 69.481893 14.339636 69.444773 15.658173 69.501953 17.818359 C 69.350978 17.823765 69.197419 17.829628 69.042969 17.791016 C 68.528127 17.662306 67.240232 17.532821 65.953125 17.275391 C 64.666017 17.017981 63.636131 17.533988 61.962891 18.048828 C 60.661169 18.449363 60.225157 18.83993 60.091797 18.998047 C 59.498821 17.408688 58.849203 15.678697 58.353516 14.335938 C 57.325133 11.550171 56.598629 9.53709 56.558594 9.296875 C 56.429883 8.524615 55.786913 6.977535 55.658203 5.046875 C 55.646133 4.865875 55.52037 4.7749094 55.302734 4.7558594 z "
       transform="translate(0,796.36216)"
       id="path5394" />
    <path
       style="fill:#000000;fill-opacity:0.3137255;fill-rule:evenodd;stroke:none;stroke-width:1px;stroke-linecap:butt;stroke-linejoin:miter;stroke-opacity:1"
       d="M 106.6875 165.88867 C 105.28245 169.11129 103.10882 174.14422 102.43164 176.17578 C 101.4962 178.98211 101.18418 184.4378 100.56055 187.24414 C 99.93692 190.05047 99.468888 193.32521 97.753906 196.44336 C 96.038925 199.56151 94.323329 203.92752 92.140625 207.35742 C 89.957921 210.78742 87.619074 209.0724 84.033203 212.6582 C 80.447332 216.2441 77.641484 218.73808 73.587891 219.51758 C 69.534298 220.29708 71.09372 217.64618 64.857422 218.42578 C 58.621125 219.20528 63.610989 220.29648 54.568359 219.20508 C 45.525728 218.11378 43.653509 217.64724 42.40625 216.24414 C 41.158991 214.84094 41.783479 214.99701 38.353516 211.87891 C 35.670888 209.44011 32.103623 205.74938 30.355469 203.92969 A 39.3855 39.3855 0 0 0 68.117188 232.32422 A 39.3855 39.3855 0 0 0 87.986328 226.89062 C 88.14229 226.3995 88.266395 225.88154 88.378906 225.36133 C 88.384788 225.35836 88.390601 225.35454 88.396484 225.35156 C 88.76568 225.16547 89.134763 224.96791 89.505859 224.75977 C 89.512969 224.75578 89.520235 224.75204 89.527344 224.74805 C 89.533923 224.74434 89.540297 224.74004 89.546875 224.73633 C 89.919184 224.52662 90.287227 224.30564 90.650391 224.07422 C 90.659989 224.0681 90.670098 224.06277 90.679688 224.05664 C 92.481851 222.90417 94.106017 221.49407 94.888672 219.8418 C 98.106442 215.3369 101.58107 205.68194 102.22461 204.65234 C 102.25456 204.60443 102.28368 204.51185 102.3125 204.41992 C 102.31275 204.41911 102.31225 204.41683 102.3125 204.41602 C 102.38262 204.19074 102.44855 203.80108 102.51172 203.36133 C 102.53546 203.19648 102.55748 203.01867 102.58008 202.83008 C 102.62976 202.41724 102.67798 201.97975 102.72266 201.47852 C 102.73262 201.36527 102.74226 201.25729 102.75195 201.14062 C 102.7944 200.63765 102.83364 200.13739 102.87109 199.5918 C 104.22202 199.4326 105.43549 199.53411 105.89258 198.3457 C 106.53614 196.67245 106.73116 189.64102 107.05078 188.62891 C 107.65961 186.70098 106.42465 182.79953 105.85938 181.18945 C 106.27121 180.75109 106.65251 180.33627 106.85938 180.07031 C 107.63545 179.07248 107.46296 177.99821 107.39844 177.2207 C 107.24385 175.96982 107.10993 174.8263 107.00977 173.88672 C 106.92357 173.0795 106.85937 172.40166 106.85938 172.08984 C 106.85938 171.09113 106.81067 168.39473 106.6875 165.88867 z "
       transform="translate(0,796.36216)"
       id="path5434" />
  </g>
</svg>
