<?xml version="1.0" encoding="UTF-8" standalone="no"?>
<!-- Created with Inkscape (http://www.inkscape.org/) -->

<svg
   xmlns:osb="http://www.openswatchbook.org/uri/2009/osb"
   xmlns:dc="http://purl.org/dc/elements/1.1/"
   xmlns:cc="http://creativecommons.org/ns#"
   xmlns:rdf="http://www.w3.org/1999/02/22-rdf-syntax-ns#"
   xmlns:svg="http://www.w3.org/2000/svg"
   xmlns="http://www.w3.org/2000/svg"
   xmlns:sodipodi="http://sodipodi.sourceforge.net/DTD/sodipodi-0.dtd"
   xmlns:inkscape="http://www.inkscape.org/namespaces/inkscape"
   width="64"
   height="192"
   viewBox="0 0 16.933333 50.800001"
   version="1.1"
   id="svg8"
   sodipodi:docname="gametype_icon.svg"
   inkscape:export-filename="C:\Prog\Projets\teeworlds\zomb_assets\zomb.png"
   inkscape:export-xdpi="96"
   inkscape:export-ydpi="96"
   inkscape:version="0.92.2 (5c3e80d, 2017-08-06)">
  <defs
     id="defs2">
    <marker
       style="overflow:visible;"
       id="Arrow1Lend"
       refX="0.0"
       refY="0.0"
       orient="auto"
       inkscape:stockid="Arrow1Lend">
      <path
         transform="scale(0.8) rotate(180) translate(12.5,0)"
         style="fill-rule:evenodd;stroke:#000000;stroke-width:1.0pt;marker-start:none;"
         d="M 0.0,0.0 L 5.0,-5.0 L -12.5,0.0 L 5.0,5.0 L 0.0,0.0 z "
         id="path6835" />
    </marker>
    <linearGradient
       id="linearGradient6253">
      <stop
         id="stop6255"
         offset="0"
         style="stop-color:#f7eca4;stop-opacity:1;" />
      <stop
         id="stop6257"
         offset="1"
         style="stop-color:#eed538;stop-opacity:0;" />
    </linearGradient>
    <linearGradient
       id="linearGradient6243">
      <stop
         id="stop6245"
         offset="0"
         style="stop-color:#ffffff;stop-opacity:0;" />
      <stop
         style="stop-color:#e6c500;stop-opacity:0;"
         offset="0.5"
         id="stop6251" />
      <stop
         id="stop6247"
         offset="1"
         style="stop-color:#e6c500;stop-opacity:0;" />
    </linearGradient>
    <linearGradient
       id="linearGradient4050">
      <stop
         id="stop4052"
         offset="0"
         style="stop-color:#ff8900;stop-opacity:1;" />
      <stop
         id="stop4054"
         offset="1"
         style="stop-color:#fff224;stop-opacity:1;" />
    </linearGradient>
    <linearGradient
       id="linearGradient3800">
      <stop
         id="stop3802"
         offset="0"
         style="stop-color:#ffa300;stop-opacity:1;" />
      <stop
         id="stop3804"
         offset="1"
         style="stop-color:#ff3d00;stop-opacity:1;" />
    </linearGradient>
    <inkscape:perspective
       id="perspective10"
       inkscape:persp3d-origin="0.5 : 0.33333333 : 1"
       inkscape:vp_z="1 : 0.5 : 1"
       inkscape:vp_y="0 : 1000 : 0"
       inkscape:vp_x="0 : 0.5 : 1"
       sodipodi:type="inkscape:persp3d" />
    <clipPath
       clipPathUnits="userSpaceOnUse"
       id="clipPath1679">
      <path
         sodipodi:nodetypes="aaaaaasaaacaaasaaaaaaca"
         inkscape:connector-curvature="0"
         id="path1681"
         d="m 699.59951,126.12096 c -2.01427,-0.65649 -3.87845,-1.78362 -5.57371,-3.05418 -3.20014,-2.39842 -6.05396,-5.30624 -8.4864,-8.48059 -2.36064,-3.08065 -4.13608,-6.58909 -5.80492,-10.09309 -2.1622,-4.539912 -4.20038,-9.200792 -5.41328,-14.080837 -0.56283,-2.264551 -1.09879,-4.630862 -0.83934,-6.949841 0.14057,-1.256398 0.0438,-3.287538 1.27563,-3.571754 3.28276,-0.757396 6.86717,-0.902264 10.09568,-2.077449 3.55513,-1.294081 6.81692,-3.328035 9.98632,-5.394078 2.62838,-1.713368 4.53795,-4.567551 7.43508,-5.771986 0.52786,-0.21945 1.70098,-0.218679 1.70098,-0.218679 0,0 1.17311,-7.73e-4 1.70098,0.218679 2.89713,1.204433 4.8067,4.058618 7.43508,5.771986 3.1694,2.066043 6.43119,4.099997 9.98632,5.394078 3.22851,1.175185 6.81292,1.320053 10.09568,2.077449 1.23188,0.284216 1.13506,2.315356 1.27563,3.571754 0.25945,2.318979 -0.27651,4.68529 -0.83934,6.949841 -1.2129,4.880045 -3.25108,9.540925 -5.41328,14.080837 -1.66884,3.504 -3.44428,7.01244 -5.80492,10.09309 -2.43244,3.17435 -5.28626,6.08217 -8.4864,8.48059 -1.69526,1.27056 -3.55944,2.3977 -5.57371,3.05418 -1.39847,0.45579 -4.37604,0.56697 -4.37604,0.56697 0,0 -2.97756,-0.11119 -4.37604,-0.56697 z"
         style="opacity:0.58800001;fill:#ff0000;stroke:none" />
    </clipPath>
    <clipPath
       clipPathUnits="userSpaceOnUse"
       id="clipPath4075">
      <g
         style="fill:#ff0000;fill-opacity:1;stroke:none"
         id="g4081"
         transform="matrix(-0.68118327,-0.73211294,-0.73211294,0.68118327,956.84368,1030.8447)">
        <path
           style="fill:#ff0000;fill-opacity:1;stroke:none"
           d="m 724.18042,41.411585 c 3.26386,-4.089364 6.89771,-8.16521 8.65924,-13.091944 1.10424,-3.088379 1.49935,-6.545497 1.00584,-9.788008 -0.37011,-2.431771 -1.40489,-4.833758 -2.9041,-6.783854 -2.17954,-2.8350516 -5.10509,-5.3392546 -8.44574,-6.6152029 -2.37725,-0.9079841 -5.11028,-0.9302526 -7.61801,-0.4977442 -2.06851,0.3567566 -4.00799,1.3716311 -5.78319,2.4917552 -1.87908,1.1856731 -5.01586,4.3900059 -5.01586,4.3900059 0,0 -3.13678,-3.204333 -5.01586,-4.3900059 -1.7752,-1.1201245 -3.71468,-2.1349986 -5.78319,-2.4917552 -2.50773,-0.4325084 -5.24076,-0.4102399 -7.61801,0.4977442 -3.34065,1.2759483 -6.2662,3.7801513 -8.44574,6.6152029 -1.49921,1.950096 -2.53399,4.352083 -2.9041,6.783854 -0.49351,3.242511 -0.0984,6.699629 1.00584,9.788008 1.76153,4.926734 5.39537,9.00258 8.65924,13.091944 6.04919,7.579154 20.10182,21.029581 20.10182,21.029581 0,0 14.05263,-13.450428 20.10182,-21.029581 z"
           id="path4077-9"
           inkscape:connector-curvature="0"
           sodipodi:nodetypes="aaaaaaacaaaaaaaca" />
        <path
           sodipodi:nodetypes="aaaaaaacaaaaaaaca"
           inkscape:connector-curvature="0"
           id="path4079-4"
           d="m 719.99456,38.888519 c 2.63169,-3.185289 5.51143,-6.300122 7.27238,-10.037892 1.01309,-2.150375 1.7276,-4.526875 1.78904,-6.903151 0.064,-2.476182 -0.20577,-5.162036 -1.49003,-7.280109 -1.33986,-2.209758 -3.57374,-4.04497 -6.01584,-4.8901805 -2.45382,-0.8492657 -5.31505,-0.6632413 -7.78887,0.1258476 -1.89839,0.6055389 -3.67461,1.8340229 -4.92906,3.3822179 -2.60772,3.218336 -4.75358,11.481477 -4.75358,11.481477 0,0 -2.15511,-8.263225 -4.75358,-11.481477 -1.25177,-1.550357 -3.03067,-2.776679 -4.92906,-3.3822179 -2.47382,-0.7890889 -5.33505,-0.9751133 -7.78887,-0.1258476 -2.4421,0.8452105 -4.67598,2.6804225 -6.01584,4.8901805 -1.28426,2.118073 -1.55403,4.803927 -1.49003,7.280109 0.0614,2.376276 0.77595,4.752776 1.78904,6.903151 1.76095,3.73777 4.63837,6.85452 7.27238,10.037892 4.93264,5.961423 15.91596,16.896984 15.91596,16.896984 0,0 10.9944,-10.940133 15.91596,-16.896984 z"
           style="fill:#ff0000;fill-opacity:1;stroke:none" />
      </g>
    </clipPath>
    <clipPath
       clipPathUnits="userSpaceOnUse"
       id="clipPath9234">
      <rect
         inkscape:export-ydpi="90"
         inkscape:export-xdpi="90"
         inkscape:export-filename="/home/android272/Development/FOSS/Teeworlds/ideas/Hooks/rect4083-3.png"
         ry="3.7489784"
         y="14.318578"
         x="46.77742"
         height="4.4364538"
         width="28.994326"
         id="rect9236"
         style="color:#000000;fill:#848688;fill-opacity:1;fill-rule:nonzero;stroke:none;stroke-width:1.11864793;marker:none;visibility:visible;display:inline;overflow:visible;filter:url(#filter12935-6);enable-background:accumulate"
         rx="3.7489786" />
    </clipPath>
    <filter
       color-interpolation-filters="sRGB"
       inkscape:collect="always"
       id="filter12935-6"
       x="-0.018247442"
       width="1.0364949"
       y="-0.11925567"
       height="1.2385113">
      <feGaussianBlur
         inkscape:collect="always"
         stdDeviation="0.22044678"
         id="feGaussianBlur12937-4" />
    </filter>
    <linearGradient
       id="linearGradient6982"
       osb:paint="solid">
      <stop
         style="stop-color:#696a6c;stop-opacity:1;"
         offset="0"
         id="stop6984" />
    </linearGradient>
    <clipPath
       id="clipPath4994"
       clipPathUnits="userSpaceOnUse">
      <rect
         y="96"
         x="32"
         height="64"
         width="64"
         id="rect4996"
         style="fill:#80b3ff;fill-opacity:1;stroke:none" />
    </clipPath>
    <mask
       id="mask4023-4"
       maskUnits="userSpaceOnUse">
      <rect
         y="64"
         x="0"
         height="64"
         width="64"
         id="rect4025-0"
         style="fill:#ffffff;fill-opacity:1;stroke:none" />
    </mask>
    <clipPath
       id="clipPath5065"
       clipPathUnits="userSpaceOnUse">
      <rect
         y="96"
         x="32"
         height="64"
         width="64"
         id="rect5067"
         style="fill:#80b3ff;fill-opacity:1;stroke:none" />
    </clipPath>
    <mask
       id="mask5069"
       maskUnits="userSpaceOnUse">
      <rect
         y="64"
         x="0"
         height="64"
         width="64"
         id="rect5071"
         style="fill:#ffffff;fill-opacity:1;stroke:none" />
    </mask>
    <clipPath
       id="clipPath5077"
       clipPathUnits="userSpaceOnUse">
      <rect
         y="96"
         x="32"
         height="64"
         width="64"
         id="rect5079"
         style="fill:#80b3ff;fill-opacity:1;stroke:none" />
    </clipPath>
    <mask
       id="mask5081"
       maskUnits="userSpaceOnUse">
      <rect
         y="64"
         x="0"
         height="64"
         width="64"
         id="rect5083"
         style="fill:#ffffff;fill-opacity:1;stroke:none" />
    </mask>
    <clipPath
       id="clipPath5045"
       clipPathUnits="userSpaceOnUse">
      <rect
         style="fill:#80b3ff;fill-opacity:1;stroke:none"
         id="rect5047"
         width="64"
         height="64"
         x="32"
         y="96.000008" />
    </clipPath>
    <mask
       id="mask5091"
       maskUnits="userSpaceOnUse">
      <rect
         y="64"
         x="0"
         height="64"
         width="64"
         id="rect5093"
         style="fill:#ffffff;fill-opacity:1;stroke:none" />
    </mask>
    <clipPath
       id="clipPath6022"
       clipPathUnits="userSpaceOnUse">
      <rect
         transform="scale(1,-1)"
         y="-447.99997"
         x="640.00012"
         height="64"
         width="64"
         id="rect6024"
         style="fill:#f2f2f2;fill-opacity:1;stroke:none;display:inline" />
    </clipPath>
    <clipPath
       id="clipPath6022-1"
       clipPathUnits="userSpaceOnUse">
      <rect
         transform="scale(1,-1)"
         y="-447.99997"
         x="640.00012"
         height="64"
         width="64"
         id="rect6024-0"
         style="fill:#f2f2f2;fill-opacity:1;stroke:none;display:inline" />
    </clipPath>
  </defs>
  <sodipodi:namedview
     id="base"
     pagecolor="#ffffff"
     bordercolor="#666666"
     borderopacity="1.0"
     inkscape:pageopacity="0.0"
     inkscape:pageshadow="2"
     inkscape:zoom="8.5416667"
     inkscape:cx="25.246001"
     inkscape:cy="162.35083"
     inkscape:document-units="mm"
     inkscape:current-layer="layer1"
     showgrid="true"
     units="px"
     inkscape:snap-global="false"
     inkscape:window-width="1920"
     inkscape:window-height="1017"
     inkscape:window-x="-8"
     inkscape:window-y="-8"
     inkscape:window-maximized="1">
    <inkscape:grid
       type="xygrid"
       id="grid815"
       spacingx="16.933333"
       spacingy="16.933333" />
  </sodipodi:namedview>
  <metadata
     id="metadata5">
    <rdf:RDF>
      <cc:Work
         rdf:about="">
        <dc:format>image/svg+xml</dc:format>
        <dc:type
           rdf:resource="http://purl.org/dc/dcmitype/StillImage" />
        <dc:title></dc:title>
      </cc:Work>
    </rdf:RDF>
  </metadata>
  <g
     inkscape:label="Layer 1"
     inkscape:groupmode="layer"
     id="layer1"
     transform="translate(0,-246.19998)">
    <path
       inkscape:connector-curvature="0"
       id="path6442"
       d="m 11.351096,247.97612 -0.130216,0.22137 -2.04e-4,1.4e-4 c 4.05e-4,0.008 -1.99e-4,0.0163 2.15e-4,0.0245 0.0038,0.0899 0.0049,0.17913 0.0022,0.2673 -4.17e-4,0.0149 -0.0016,0.0296 -0.0022,0.0445 -0.0036,0.086 -0.0095,0.17156 -0.01907,0.25596 -8.5e-5,7.2e-4 1.41e-4,7.2e-4 -4.81e-4,0.002 -0.01142,0.0996 -0.02679,0.19798 -0.04622,0.2953 -0.01957,0.098 -0.04287,0.19504 -0.07031,0.29087 0,0 -2.05e-4,1.4e-4 -2.05e-4,1.4e-4 -0.0038,0.0135 -0.0091,0.0264 -0.01296,0.0398 -0.02375,0.0795 -0.04924,0.15869 -0.07828,0.2368 -0.0095,0.0256 -0.02093,0.0506 -0.03099,0.0759 -0.02565,0.0648 -0.05181,0.12961 -0.08105,0.19348 -0.01562,0.0341 -0.03343,0.0674 -0.05001,0.10117 -0.02627,0.0535 -0.05227,0.10729 -0.08102,0.1602 -0.02044,0.0376 -0.04278,0.0747 -0.06443,0.11205 -0.0212,0.0365 -0.04095,0.0735 -0.06332,0.10973 l 0.0095,0.009 -2.08e-4,1.5e-4 -1.99e-4,1.4e-4 -0.02537,0.0916 -0.176805,0.0996 -2.06e-4,1.4e-4 -0.0525,-0.21367 -0.0151,-0.0179 c -0.09764,-0.0457 -0.196041,-0.0879 -0.295072,-0.12859 -0.04075,-0.0168 -0.081876,-0.0326 -0.1228522,-0.0485 -0.061137,-0.0238 -0.1225301,-0.0471 -0.1841488,-0.0692 -0.045715,-0.0164 -0.091328,-0.0329 -0.1372484,-0.0484 -0.051586,-0.0175 -0.1033653,-0.0342 -0.1552365,-0.0507 -0.052102,-0.0166 -0.1041838,-0.0335 -0.1565721,-0.049 -0.00947,0.0396 -0.020126,0.079 -0.029901,0.1186 -0.00315,0.0126 -0.00593,0.0252 -0.00914,0.0379 -1.949e-4,0 -3.644e-4,1e-4 -5.427e-4,8e-5 -0.01896,0.0757 -0.037357,0.15169 -0.057255,0.22738 0.024359,0.0103 0.048813,0.0199 0.072725,0.0308 l 0.00174,9.7e-4 c 0.032695,0.0141 0.065071,0.0291 0.097033,0.0446 a 0.155587,0.155587 0 0 1 0.0029,9.7e-4 c 0.032185,0.017 0.064218,0.0343 0.095726,0.0526 0.030032,0.0171 0.060168,0.0345 0.089536,0.0528 a 0.155587,0.155587 0 0 1 0.0029,9.6e-4 c 0.029006,0.0191 0.057576,0.0385 0.085799,0.0587 0.030597,0.0211 0.060241,0.0433 0.090027,0.0655 a 0.155587,0.155587 0 0 1 0.00233,0.002 c 0.02623,0.0211 0.052537,0.0427 0.077344,0.0655 l 0.00233,0.002 c 0.027866,0.0235 0.054823,0.0479 0.081252,0.073 a 0.155587,0.155587 0 0 1 0.00226,0.002 c 0.025468,0.0251 0.050223,0.051 0.074413,0.0773 0.024088,0.0249 0.047426,0.0507 0.070159,0.0771 a 0.155587,0.155587 0 0 1 1.47e-4,1.9e-4 c 0.04043,0.0471 0.07919,0.0957 0.115577,0.14601 a 0.155587,0.155587 0 0 1 0.0014,0.002 c 0.0344,0.0491 0.06662,0.0998 0.09679,0.15168 0.0039,0.006 0.0079,0.0115 0.01145,0.0178 a 0.155587,0.155587 0 0 1 2.92e-4,4.1e-4 c 0.0011,0.002 0.0024,0.004 0.0035,0.006 l -3.52e-4,-6e-5 a 0.155587,0.155587 0 0 1 0.0016,0.002 0.155587,0.155587 0 0 1 0.0032,0.005 0.155587,0.155587 0 0 1 0.002,0.004 c 0.01129,0.0219 0.02263,0.044 0.03351,0.066 0.01689,0.0311 0.03277,0.0626 0.04793,0.0947 0.0041,0.007 0.0077,0.014 0.01035,0.022 a 0.155587,0.155587 0 0 1 0.0049,0.0103 c 0.0092,0.0228 0.01811,0.0455 0.02658,0.0686 0.01395,0.0337 0.02708,0.0676 0.03933,0.10199 a 0.155587,0.155587 0 0 1 0.0016,0.003 c 0.0106,0.032 0.02042,0.0645 0.02951,0.097 0.01061,0.0351 0.02041,0.0705 0.02923,0.10612 a 0.155587,0.155587 0 0 1 6.51e-4,0.004 c 0.0078,0.0347 0.01481,0.0697 0.02085,0.10469 0.0067,0.0345 0.01289,0.0692 0.01788,0.10401 a 0.155587,0.155587 0 0 1 4.9e-5,0.004 c 0.0044,0.0363 0.008,0.0724 0.01061,0.10887 4e-5,3.9e-4 1.35e-4,7.1e-4 2.36e-4,9.6e-4 5.9e-5,7.1e-4 -3.1e-5,9.7e-4 -7.4e-5,0.003 0.0031,0.0329 0.0052,0.0659 0.0067,0.099 a 0.155587,0.155587 0 0 1 4.9e-5,0.004 c 8.46e-4,0.0374 3.92e-4,0.0746 -7.76e-4,0.11202 -2.65e-4,0.0345 -9.6e-4,0.0689 -0.0028,0.10336 a 0.155587,0.155587 0 0 1 -1.17e-4,0.004 c -0.0028,0.0352 -0.0065,0.0706 -0.011,0.10576 5.2e-5,7e-4 -5.19e-4,0.002 -5.07e-4,0.004 0,0 1.42e-4,2.1e-4 1.42e-4,2.1e-4 -0.0036,0.0338 -0.0084,0.0672 -0.01357,0.10076 a 0.155587,0.155587 0 0 1 -3.4e-4,0.004 c -0.0064,0.0363 -0.01391,0.072 -0.02216,0.10786 -6e-5,2.8e-4 -5.7e-5,4.1e-4 -1.05e-4,6.8e-4 -1.4e-4,6.5e-4 2.35e-4,9.6e-4 -4.64e-4,0.002 -0.007,0.0333 -0.01492,0.0662 -0.02353,0.099 a 0.155587,0.155587 0 0 1 -5.07e-4,0.004 c -0.01024,0.0361 -0.02165,0.0717 -0.03373,0.10715 -0.01018,0.0318 -0.02107,0.0637 -0.03278,0.0951 a 0.155587,0.155587 0 0 1 -9.16e-4,0.003 c -0.0127,0.032 -0.02658,0.0641 -0.04078,0.0956 a 0.155587,0.155587 0 0 1 -0.02345,0.0665 c 0,0 -0.01992,0.0309 -0.02487,0.0387 -0.0158,0.0305 -0.03236,0.0605 -0.04958,0.09 -1.47e-4,2.7e-4 -1.85e-4,5.8e-4 -2.15e-4,7.2e-4 -2.01e-4,5.2e-4 -6.73e-4,9.5e-4 -9.61e-4,0.002 -0.01748,0.0315 -0.0359,0.0625 -0.05492,0.0929 a 0.155587,0.155587 0 0 1 -0.0014,0.003 c -0.01506,0.0232 -0.0305,0.046 -0.04647,0.0685 -2.62e-4,4.5e-4 -1.96e-4,7e-4 -0.0012,9.6e-4 a 0.155587,0.155587 0 0 1 -0.0034,0.004 c -0.002,0.003 -0.0048,0.007 -0.0073,0.0103 -0.02092,0.0302 -0.0427,0.0594 -0.06517,0.0886 a 0.155587,0.155587 0 0 1 -7.76e-4,9.6e-4 c -0.01309,0.0165 -0.02639,0.033 -0.03993,0.049 -0.05856,0.0836 -0.1159391,0.16319 -0.1702569,0.22399 -0.02594,0.0289 -0.058455,0.0677 -0.090998,0.10632 a 0.155587,0.155587 0 0 1 -0.00219,0.003 c -0.1436429,0.1704 -0.3067486,0.37805 -0.3067486,0.37805 a 0.155587,0.155587 0 0 1 -0.1810146,0.0477 c 0,0 -0.111508,-0.0464 -0.2282215,-0.0961 -0.4266388,0.14169 -0.8962417,0.15153 -1.3258503,0.0188 -0.4511811,-0.13944 -0.854084,-0.43061 -1.1279107,-0.81535 a 0.155587,0.155587 0 0 1 -1.463e-4,-2e-4 c -0.1846949,-0.26044 -0.3011298,-0.5645 -0.3571341,-0.87881 -0.041735,-0.0164 -0.098681,-0.0397 -0.098807,-0.0397 a 0.155587,0.155587 0 0 1 -0.106182,-0.1481 c 0,0 1.85e-5,-0.0397 0.00161,-0.0982 l 2.24e-5,-7.1e-4 c 0.00211,-0.10791 0.010055,-0.30812 0.045195,-0.51755 0.03521,-0.20989 0.087717,-0.43006 0.2319245,-0.58848 0.1254288,-0.1378 0.2902406,-0.31484 0.439991,-0.46482 0.07487,-0.075 0.1458024,-0.14322 0.2081003,-0.19761 0.062297,-0.0544 0.099083,-0.0941 0.1809393,-0.12408 0.015995,-0.006 0.020534,-0.007 0.027234,-0.0103 0.03135,-0.0206 0.063054,-0.0408 0.095408,-0.0599 a 0.155587,0.155587 0 0 1 0.00118,-7e-4 c 0.030293,-0.0175 0.061127,-0.0342 0.092149,-0.0502 0.031949,-0.0172 0.064284,-0.0334 0.096994,-0.0489 a 0.155587,0.155587 0 0 1 0.0031,-9.6e-4 c 0.031847,-0.0143 0.063823,-0.0277 0.096274,-0.0405 l 0.0031,-9.6e-4 c 0.032337,-0.0134 0.064916,-0.0262 0.09782,-0.0379 a 0.155587,0.155587 0 0 1 0.0033,-7e-4 c 0.032649,-0.0108 0.065536,-0.0208 0.098674,-0.0302 0.035659,-0.0107 0.071611,-0.0208 0.1078113,-0.0299 a 0.155587,0.155587 0 0 1 0.00367,-7.1e-4 c 0.033086,-0.007 0.066164,-0.0141 0.099468,-0.02 l 0.00367,-7.1e-4 c 0.035281,-0.007 0.07062,-0.0129 0.1061551,-0.0178 a 0.155587,0.155587 0 0 1 0.00307,-3e-4 c 0.035114,-0.004 0.070349,-0.007 0.1056078,-0.0105 0.035526,-0.004 0.071391,-0.006 0.1070338,-0.007 a 0.155587,0.155587 0 0 1 0.00327,-1.3e-4 c 0.034672,-7.2e-4 0.069299,-6.3e-4 0.1039879,2.5e-4 l 0.00248,1.5e-4 c 0.035669,2e-4 0.071277,9.6e-4 0.1068511,0.004 a 0.155587,0.155587 0 0 1 0.00286,4.3e-4 c 0.034553,0.003 0.069236,0.007 0.1036716,0.0106 0.036946,0.004 0.073479,0.008 0.1101896,0.0147 a 0.155587,0.155587 0 0 1 0.00305,5.7e-4 c 0.016202,0.003 0.032227,0.007 0.048387,0.0103 0.037832,-0.1226 0.075342,-0.2458 0.1105596,-0.37371 -0.070445,-0.0179 -0.141143,-0.0349 -0.2119589,-0.0516 -0.058427,-0.0138 -0.1170257,-0.0273 -0.1757359,-0.0401 -0.046519,-0.0103 -0.093184,-0.0201 -0.1398229,-0.0299 -0.060914,-0.0128 -0.1220385,-0.0254 -0.1831855,-0.0376 -0.00888,-9.6e-4 -0.01744,-0.004 -0.026076,-0.005 -0.052008,-0.0103 -0.1042202,-0.0196 -0.1563312,-0.0293 -0.00173,-4.4e-4 -0.00387,-3.3e-4 -0.00573,-7e-4 -0.00128,-5.8e-4 -0.00305,-5.9e-4 -0.00416,-9.7e-4 -5.95e-5,-1e-5 -9.26e-5,-1.9e-4 -1.464e-4,-2e-4 -0.1506492,-0.028 -0.3012472,-0.0556 -0.4526926,-0.0809 l -0.1076447,0.18251 -2.033e-4,1.5e-4 5.69e-5,-3.5e-4 -0.037865,-0.14586 -0.1603284,0.0894 2.5e-4,-4.8e-4 -3.964e-4,2.8e-4 0.080014,-0.13608 0.044114,-0.0748 c -3.8e-6,-1.2e-4 6.05e-5,-2.3e-4 5.68e-5,-3.6e-4 -0.00542,-0.10117 -0.00673,-0.20119 -0.00408,-0.30016 0.00264,-0.0972 0.0093,-0.19323 0.019478,-0.28829 -3.799e-4,-9.7e-4 1.509e-4,-0.004 3.655e-4,-0.005 6.9e-5,-6.5e-4 -1.739e-4,-7e-4 4.807e-4,-0.002 0.00627,-0.0574 0.016892,-0.11357 0.025837,-0.17022 0.00655,-0.0413 0.011363,-0.083 0.019304,-0.12399 0.011955,-0.0616 0.027659,-0.12217 0.042721,-0.18285 0.00824,-0.0331 0.01499,-0.0663 0.024092,-0.0991 0.016989,-0.0612 0.037333,-0.12133 0.05746,-0.18163 0.010933,-0.0328 0.020582,-0.0658 0.032404,-0.0982 0.021642,-0.0593 0.046381,-0.1179 0.070984,-0.17645 0.013281,-0.0316 0.025621,-0.0635 0.039755,-0.0948 0.027226,-0.0605 0.057406,-0.12042 0.087793,-0.18012 0.01433,-0.028 0.027699,-0.0564 0.042649,-0.0843 0.031584,-0.0588 0.065708,-0.11679 0.1002133,-0.17477 0.012606,-0.0212 0.023691,-0.043 0.03672,-0.064 l -0.00121,-0.002 2.049e-4,-1.4e-4 0.025596,-0.093 2.032e-4,-1.5e-4 0.1763694,-0.0981 1.99e-4,-1.3e-4 0.051404,0.21168 0.016373,0.0199 c 0.1045268,0.049 0.2100198,0.0941 0.3160955,0.13737 0.027198,0.011 0.054603,0.0213 0.081864,0.0319 0.078253,0.0307 0.1566395,0.0606 0.2355819,0.0887 0.03744,0.0133 0.074998,0.0261 0.1126136,0.0388 0.067666,0.023 0.1357332,0.045 0.2039059,0.0662 0.043336,0.0134 0.086609,0.0268 0.1300974,0.0396 0.068853,0.0204 0.1381075,0.0395 0.207417,0.0582 0.045975,0.0124 0.092021,0.0251 0.1382901,0.0368 0.042886,0.011 0.086069,0.0211 0.1291036,0.0317 0.052777,0.0127 0.1053897,0.0258 0.1581375,0.0378 0.012822,0.003 0.025624,0.006 0.038389,0.008 0.147933,0.0333 0.296261,0.064 0.445461,0.0927 5.6e-5,-7e-5 1.47e-4,-9e-5 2.04e-4,-1.5e-4 0.187759,0.0364 0.375749,0.0707 0.564779,0.10251 0.0077,9.6e-4 0.01552,0.003 0.02327,0.004 l 0.107435,-0.18237 1.52e-4,2.1e-4 0.03805,0.14574 z"
       style="display:inline;fill:#171412;fill-opacity:1;stroke:none;stroke-width:0.25797865;stroke-linecap:butt;stroke-linejoin:round;stroke-miterlimit:4;stroke-dasharray:none;stroke-opacity:1" />
    <path
       style="display:inline;fill:#2d2623;fill-opacity:1;stroke:none;stroke-width:0.37674639;stroke-linecap:butt;stroke-linejoin:round;stroke-miterlimit:4;stroke-dasharray:none;stroke-opacity:1"
       d="m 4.7864372,246.41062 0.048354,0.37194 -1.066e-4,3.5e-4 c 0.00796,0.009 0.014377,0.019 0.022193,0.028 0.085011,0.10025 0.1662047,0.20211 0.2422259,0.30612 0.01285,0.0175 0.024635,0.0355 0.037221,0.0533 0.072983,0.10251 0.1428597,0.20628 0.2075032,0.31215 5.392e-4,9e-4 0.00106,10e-4 0.00151,0.003 0.076117,0.12504 0.14661,0.25224 0.2114638,0.38185 0.065333,0.13056 0.1254348,0.26328 0.179726,0.39835 0,0 -1.066e-4,3.5e-4 -1.066e-4,3.5e-4 0.00758,0.0189 0.013278,0.0385 0.020661,0.0574 0.043959,0.11301 0.085504,0.22708 0.1220472,0.34315 0.011963,0.0379 0.021198,0.0771 0.03236,0.11534 0.028569,0.0978 0.056461,0.19587 0.080028,0.29571 0.012545,0.0533 0.021892,0.10768 0.033059,0.16147 0.017734,0.0853 0.035926,0.17053 0.050223,0.25731 0.010189,0.0617 0.017709,0.12453 0.026178,0.18696 0.0083,0.0611 0.018684,0.12144 0.025374,0.18325 l 0.019144,0.002 -1.066e-4,3.6e-4 -1.036e-4,3.4e-4 0.052935,0.12839 -0.1145395,0.27331 -1.066e-4,3.5e-4 -0.2520934,-0.19925 -0.033537,-0.007 c -0.1535654,0.0348 -0.3047545,0.0745 -0.4554587,0.11628 -0.062002,0.0172 -0.1235169,0.036 -0.1850548,0.0543 -0.091874,0.0273 -0.1834178,0.0556 -0.274338,0.0853 -0.067429,0.0221 -0.1346678,0.0441 -0.2015935,0.0673 -0.075164,0.0261 -0.149805,0.0533 -0.224375,0.0808 -0.074915,0.0276 -0.1501174,0.0548 -0.2245225,0.0838 0.024554,0.0541 0.047675,0.10917 0.071858,0.16352 0.00772,0.0174 0.015791,0.0344 0.023461,0.0519 -2.241e-4,1.7e-4 -3.376e-4,4.3e-4 -5.553e-4,5.7e-4 0.046122,0.10441 0.092926,0.20835 0.1378478,0.31345 0.037053,-0.0103 0.074121,-0.0208 0.111468,-0.0297 l 0.0031,-1.4e-4 c 0.050313,-0.0131 0.1009931,-0.0249 0.1518714,-0.0356 a 0.22721585,0.22721585 0 0 1 0.0048,-7e-4 c 0.052332,-0.009 0.1047835,-0.018 0.1575475,-0.0251 0.049952,-0.007 0.1002554,-0.0142 0.1505007,-0.0195 a 0.22721585,0.22721585 0 0 1 0.0048,-7.1e-4 c 0.050457,-0.004 0.1009118,-0.007 0.1515198,-0.009 0.054199,-0.003 0.1082474,-0.004 0.1625466,-0.005 a 0.22721585,0.22721585 0 0 1 0.00451,2.7e-4 c 0.049213,8.9e-4 0.098794,0.002 0.1478986,0.006 l 0.00451,2.8e-4 c 0.05316,0.002 0.1062333,0.006 0.1592132,0.0114 a 0.22721585,0.22721585 0 0 1 0.00477,6.9e-4 c 0.051919,0.006 0.1036483,0.0138 0.1551355,0.0225 0.050166,0.007 0.1001473,0.016 0.1499114,0.0259 a 0.22721585,0.22721585 0 0 1 3.512e-4,1e-4 c 0.088815,0.018 0.1771078,0.0394 0.2641404,0.0647 a 0.22721585,0.22721585 0 0 1 0.00351,0.001 c 0.083764,0.0259 0.1662754,0.0553 0.247576,0.0881 0.00975,0.003 0.01941,0.006 0.029194,0.0103 a 0.22721585,0.22721585 0 0 1 6.998e-4,2.1e-4 c 0.00299,10e-4 0.00603,0.002 0.00903,0.003 l -4.577e-4,2.5e-4 a 0.22721585,0.22721585 0 0 1 0.00375,0.001 0.22721585,0.22721585 0 0 1 0.00832,0.003 0.22721585,0.22721585 0 0 1 0.00541,0.002 c 0.032748,0.0153 0.065497,0.0304 0.097893,0.0462 0.047359,0.0207 0.093951,0.0428 0.1401145,0.0661 0.01077,0.004 0.021415,0.009 0.031576,0.016 a 0.22721585,0.22721585 0 0 1 0.014558,0.007 c 0.031031,0.0179 0.061704,0.0363 0.092124,0.0552 0.046313,0.0264 0.091856,0.0537 0.136781,0.0823 a 0.22721585,0.22721585 0 0 1 0.00462,0.002 c 0.041014,0.0275 0.081292,0.0559 0.1209574,0.0853 0.043747,0.031 0.086715,0.063 0.1288287,0.0961 a 0.22721585,0.22721585 0 0 1 0.00363,0.003 c 0.040095,0.033 0.079471,0.067 0.1178862,0.102 0.038669,0.0338 0.076887,0.0682 0.1138678,0.10386 a 0.22721585,0.22721585 0 0 1 0.00333,0.004 c 0.037578,0.0378 0.074201,0.0763 0.1098448,0.116 3.917e-4,4.1e-4 8.005e-4,7.1e-4 0.00121,0.001 7.512e-4,8.2e-4 0.0016,0.002 0.00221,0.003 0.032965,0.0351 0.065186,0.0715 0.096518,0.10814 a 0.22721585,0.22721585 0 0 1 0.00333,0.004 c 0.034441,0.0422 0.06739,0.0857 0.099578,0.1298 0.030598,0.04 0.060707,0.0804 0.089385,0.1217 a 0.22721585,0.22721585 0 0 1 0.00297,0.004 c 0.028498,0.0432 0.055815,0.0872 0.082148,0.13178 8.811e-4,10e-4 0.00148,0.003 0.00227,0.004 0,0 3.513e-4,1.1e-4 3.513e-4,1.1e-4 0.026018,0.0422 0.050726,0.085 0.07475,0.12839 a 0.22721585,0.22721585 0 0 1 0.00263,0.004 c 0.025047,0.0475 0.04855,0.0955 0.071155,0.14419 1.855e-4,3.9e-4 3.035e-4,5.3e-4 4.954e-4,8.9e-4 4.129e-4,8.7e-4 0.0012,0.001 0.00151,0.003 0.021644,0.0446 0.042084,0.0896 0.061606,0.1352 a 0.22721585,0.22721585 0 0 1 0.00227,0.004 c 0.020483,0.0507 0.039364,0.1021 0.05718,0.15377 0.016827,0.0459 0.032799,0.0923 0.047456,0.139 a 0.22721585,0.22721585 0 0 1 0.00157,0.004 c 0.014162,0.0484 0.026799,0.0977 0.038642,0.14669 a 0.22721585,0.22721585 0 0 1 0.032651,0.0978 c 0,0 0.00475,0.0535 0.00596,0.0669 0.00908,0.0493 0.016908,0.0987 0.02362,0.1483 7.22e-5,4.4e-4 3.072e-4,8.3e-4 4.037e-4,10e-4 2.533e-4,8e-4 3.588e-4,0.002 5.227e-4,0.003 0.00799,0.0519 0.014627,0.10421 0.020036,0.15642 a 0.22721585,0.22721585 0 0 1 5.721e-4,0.004 c 0.00339,0.0402 0.00597,0.0803 0.00782,0.12059 1.162e-4,7.7e-4 4.376e-4,10e-4 1.675e-4,0.003 a 0.22721585,0.22721585 0 0 1 8.83e-5,0.008 c 3.845e-4,0.005 5.026e-4,0.0121 6.699e-4,0.0181 0.00285,0.0535 0.00416,0.10688 0.00428,0.16047 a 0.22721585,0.22721585 0 0 1 1.076e-4,0.002 c -2.585e-4,0.0308 -9.127e-4,0.0616 -0.00206,0.0923 0.00741,0.14883 0.012632,0.29204 0.00453,0.41084 -0.00386,0.0567 -0.0067,0.13046 -0.0096,0.20415 a 0.22721585,0.22721585 0 0 1 -6.94e-5,0.005 c -0.01281,0.32524 -0.014682,0.71083 -0.014682,0.71083 a 0.22721585,0.22721585 0 0 1 -0.1658604,0.21733 c 0,0 -0.1701571,0.0465 -0.3492241,0.0939 -0.364794,0.54584 -0.8973161,0.97821 -1.5116019,1.21031 -0.6451336,0.24375 -1.3706317,0.26932 -2.0312297,0.0713 a 0.22721585,0.22721585 0 0 1 -3.51e-4,-10e-5 c -0.4464078,-0.13465 -0.8532435,-0.38079 -1.1995846,-0.6929 -0.06287,0.0184 -0.1493109,0.0428 -0.1494649,0.0429 a 0.22721585,0.22721585 0 0 1 -0.2551728,-0.0755 c 0,0 -0.035541,-0.0457 -0.086158,-0.11459 l -7.598e-4,-0.001 c -0.094305,-0.12629 -0.2646589,-0.36424 -0.4119127,-0.63716 -0.1475768,-0.27352 -0.2844419,-0.57441 -0.2602318,-0.88632 0.021054,-0.2713 0.052319,-0.62316 0.090494,-0.93031 0.019086,-0.15356 0.039677,-0.29582 0.06273,-0.41437 0.023052,-0.11855 0.029932,-0.19721 0.097342,-0.30526 0.013166,-0.0211 0.016916,-0.0271 0.022579,-0.0358 0.017618,-0.0519 0.036055,-0.10363 0.056322,-0.15454 a 0.22721585,0.22721585 0 0 1 5.922e-4,-0.002 c 0.019266,-0.0473 0.039772,-0.0943 0.06127,-0.14042 0.021447,-0.0484 0.04409,-0.0962 0.067908,-0.14342 a 0.22721585,0.22721585 0 0 1 0.00253,-0.004 c 0.023903,-0.045 0.048687,-0.0892 0.074717,-0.13295 l 0.00253,-0.004 c 0.02529,-0.0444 0.05143,-0.0883 0.078827,-0.13133 a 0.22721585,0.22721585 0 0 1 0.00288,-0.004 c 0.027871,-0.0418 0.056904,-0.0827 0.086722,-0.12322 0.031437,-0.0444 0.063816,-0.0883 0.097504,-0.13109 a 0.22721585,0.22721585 0 0 1 0.00359,-0.004 c 0.031485,-0.0382 0.063594,-0.0756 0.096796,-0.11215 l 0.00359,-0.004 c 0.034502,-0.0396 0.069914,-0.0781 0.1063143,-0.11583 a 0.22721585,0.22721585 0 0 1 0.00329,-0.003 c 0.036596,-0.0365 0.07406,-0.0721 0.1123846,-0.10671 0.038002,-0.0357 0.077271,-0.0705 0.1169861,-0.10419 a 0.22721585,0.22721585 0 0 1 0.00364,-0.003 c 0.039305,-0.0319 0.07933,-0.0628 0.1201086,-0.0929 l 0.00299,-0.002 c 0.041309,-0.0317 0.083468,-0.0622 0.126287,-0.0918 a 0.22721585,0.22721585 0 0 1 0.0037,-0.002 c 0.042292,-0.0278 0.085463,-0.0548 0.1290583,-0.0807 0.046158,-0.0285 0.09259,-0.0557 0.1401555,-0.0819 a 0.22721585,0.22721585 0 0 1 0.00405,-0.002 c 0.021322,-0.0111 0.043115,-0.0212 0.064678,-0.0319 -0.066295,-0.17524 -0.133513,-0.3509 -0.2075924,-0.52993 -0.097313,0.0425 -0.194055,0.0862 -0.2905971,0.13056 -0.079728,0.0365 -0.1592927,0.0736 -0.2385267,0.11134 -0.062825,0.0299 -0.1254403,0.0604 -0.1880074,0.0909 -0.081684,0.0399 -0.1635183,0.08 -0.2448487,0.12093 -0.011626,0.006 -0.023211,0.0116 -0.034702,0.0174 -0.069055,0.0349 -0.1376849,0.0709 -0.2064408,0.10644 -0.00239,0.001 -0.00475,0.003 -0.00739,0.004 -0.00199,4.9e-4 -0.00404,0.002 -0.0061,0.002 -7.83e-5,4e-5 -2.757e-4,-1.3e-4 -3.511e-4,-1e-4 -0.1988218,0.10272 -0.3971164,0.20599 -0.5943582,0.31263 l 0.039546,0.30692 -1.037e-4,3.5e-4 -2.474e-4,-4.5e-4 -0.1744164,-0.13419 -0.1046737,0.2468 -1.467e-4,-7.9e-4 -2.043e-4,6.8e-4 -0.029754,-0.22859 -0.016212,-0.12579 c -1.113e-4,-1.3e-4 -1.362e-4,-3.2e-4 -2.473e-4,-4.5e-4 -0.096989,-0.11183 -0.1881603,-0.22591 -0.2738186,-0.34239 -0.084082,-0.1144 -0.1625082,-0.23109 -0.2360048,-0.3498 -0.0015,-0.001 -0.00293,-0.004 -0.00413,-0.006 -5.056e-4,-8.1e-4 -0.00112,-0.001 -0.00151,-0.003 -0.044246,-0.0718 -0.08235,-0.14607 -0.12282804,-0.2194 -0.029478,-0.0535 -0.061402,-0.10598 -0.088915,-0.16024 -0.0414209,-0.0817 -0.07764,-0.16563 -0.11468244,-0.24909 -0.0200954,-0.0454 -0.0422173,-0.0899 -0.0610434,-0.1358 -0.0352342,-0.0857 -0.0657425,-0.17334 -0.096598,-0.2609 -0.0167099,-0.0475 -0.0352362,-0.0943 -0.0506882,-0.14226 -0.0283087,-0.0879 -0.0522326,-0.17749 -0.0763769,-0.26706 -0.0130082,-0.0483 -0.0273588,-0.0961 -0.0391708,-0.14494 -0.0228637,-0.0942 -0.0417795,-0.19028 -0.0602625,-0.28633 -0.008665,-0.0452 -0.0186252,-0.0898 -0.0263584,-0.13535 -0.0163256,-0.0961 -0.0289629,-0.19355 -0.0411644,-0.29132 -0.004482,-0.0358 -0.0111372,-0.0707 -0.0150522,-0.1067 l -0.00305,-0.001 1.0663e-4,-3.5e-4 -0.053916,-0.13022 1.0365e-4,-3.5e-4 0.11541668,-0.27115 1.0365e-4,-3.4e-4 0.2490437,0.19795 0.0366992,0.008 c 0.16437321,-0.0373 0.32644733,-0.0798 0.48754857,-0.12503 0.041264,-0.0116 0.082029,-0.0244 0.1230876,-0.0365 0.1177691,-0.0347 0.2349032,-0.0706 0.3510868,-0.10897 0.055082,-0.0182 0.1098235,-0.0372 0.164591,-0.0563 0.098583,-0.0342 0.1968668,-0.0697 0.2944561,-0.10643 0.061986,-0.0234 0.1238525,-0.0468 0.1854788,-0.071 0.097573,-0.0383 0.1946089,-0.0783 0.2912967,-0.11885 0.064142,-0.0269 0.1285791,-0.0536 0.1924625,-0.0815 0.059308,-0.0257 0.1182084,-0.0528 0.1772302,-0.0792 0.072237,-0.0327 0.1445763,-0.0648 0.2162002,-0.0982 0.017317,-0.008 0.034501,-0.0166 0.051799,-0.0247 0.2003681,-0.0943 0.398797,-0.19197 0.5967071,-0.29242 8.5e-6,-1.2e-4 9.84e-5,-2.2e-4 1.067e-4,-3.5e-4 0.2490615,-0.12639 0.4965239,-0.25539 0.7429385,-0.38821 0.010148,-0.005 0.020365,-0.0107 0.030481,-0.0162 l -0.039652,-0.30655 3.667e-4,1.1e-4 0.1745055,0.13389 z"
       id="path6337"
       inkscape:connector-curvature="0" />
    <g
       id="g6335"
       transform="matrix(0.45522622,-0.56166468,0.56166468,0.45522622,-138.39676,136.49053)">
      <path
         inkscape:connector-curvature="0"
         style="display:inline;fill:none;stroke:#000000;stroke-width:0.75692242;stroke-linecap:butt;stroke-linejoin:round;stroke-miterlimit:4;stroke-dasharray:none;stroke-opacity:1"
         d="m 6.4926235,257.40536 c -1.0912385,0.008 -2.1824525,0.18072 -3.2736893,0.49673 l -0.018921,-0.0331 H 2.9208973 l -0.4210379,0.42104 0.562961,0.31696 0.037848,0.0568 c 0.1841108,1.09513 0.2689796,2.18821 0.2885767,3.28315 -3.45380863,-0.12697 -7.0574785,0.16158 -9.4473386,-0.4305 -0.1449234,-0.0359 -0.2853537,-0.0756 -0.4210381,-0.11827 -0.1452776,-0.0457 -0.2784036,-0.0483 -0.4021151,-0.0189 -0.6477938,0.15375 -0.9797937,1.20723 -0.7663839,1.81662 0.00242,0.007 0.00689,0.0121 0.00946,0.0189 0.00216,0.006 0.00247,0.0132 0.00473,0.0189 0.0073,0.018 0.015309,0.035 0.023654,0.0521 0.01143,0.0239 0.024392,0.0443 0.037846,0.0662 0.00362,0.006 0.00571,0.0132 0.00946,0.0189 0.00121,0.002 0.0035,0.003 0.00473,0.005 0.00257,0.004 0.00683,0.006 0.00946,0.009 0.027911,0.0398 0.054276,0.0777 0.089885,0.10881 0.00572,0.005 0.012989,0.009 0.018923,0.0142 0.094291,0.0753 0.2166297,0.11827 0.364269,0.11827 3.8334747,0.0128 6.82408724,-0.54471 10.4644527,-0.53458 -0.00246,0.11416 -0.00583,0.23119 -0.00946,0.34535 -0.0012,0.041 -0.00326,0.0822 -0.00475,0.123 -0.020924,0.59002 -0.057594,1.17925 -0.1040769,1.7693 -0.010322,0.13095 -0.021828,0.26171 -0.033117,0.39266 -0.00109,0.0127 -0.00366,0.0252 -0.00475,0.0378 -7.438e-4,0.01 -0.00389,0.0188 -0.00475,0.0284 -4.543e-4,0.005 4.543e-4,0.009 0,0.0142 -0.039267,0.4481 -0.080011,0.8954 -0.1277305,1.34354 l -0.6008072,0.16085 0.3831917,0.22234 -0.3784611,0.3832 0.6954227,-0.1845 c 2.2536655,0.75877 4.5065975,0.71722 6.760263,0.0662 l 0.00475,0.005 H 10.24881 l 0.416307,-0.42103 -0.55823,-0.31224 -0.04258,-0.0615 c -0.2002936,-1.19139 -0.2845605,-2.38055 -0.2933071,-3.57173 -3.027e-4,-0.0454 3.027e-4,-0.0915 0,-0.13718 -0.00137,-0.52539 0.013429,-1.05469 0.037848,-1.58008 1.511e-4,-0.005 -1.516e-4,-0.01 0,-0.0142 0.0224,-0.47809 0.056278,-0.95531 0.094615,-1.43343 0.046683,-0.58217 0.098849,-1.16341 0.1608461,-1.74564 l 0.600808,-0.16085 -0.383192,-0.22235 0.383192,-0.38319 -0.7285385,0.19396 C 8.7888044,257.56895 7.6403577,257.3965 6.4925821,257.40503 Z"
         id="path4039-4" />
      <path
         inkscape:connector-curvature="0"
         style="display:inline;fill:#86632b;fill-opacity:1;stroke:#000000;stroke-width:0.15138449px;stroke-linecap:butt;stroke-linejoin:miter;stroke-opacity:1"
         d="m 5.0260863,262.04151 c -3.9086585,-0.34041 -8.3130644,0.1609 -11.0841591,-0.52563 -0.1449219,-0.0359 -0.2853779,-0.0751 -0.4210623,-0.11776 -0.1452776,-0.0457 -0.2805609,-0.0492 -0.4042723,-0.0199 -0.9192641,0.21818 -1.1995873,2.25018 -0.1933452,2.25018 4.4041322,0.0148 7.69917632,-0.72456 12.1406851,-0.48942 z"
         id="path2907-1"
         sodipodi:nodetypes="cscsccc" />
      <path
         style="display:inline;fill:#000000;fill-opacity:0.19607843;stroke:none;stroke-width:0.15138449"
         d="m 2.916165,261.9327 c -0.1490928,0.55642 -0.5483422,0.84916 -1.0002698,0.84916 -0.6450313,0.0388 -1.55147014,0.0913 -2.59710396,0.14625 -2.09126944,0.10985 -4.73931584,0.2293 -6.96642544,0.26771 0.089576,0.25479 0.2756849,0.43049 0.5724227,0.43049 4.4041306,0.0148 7.69763522,-0.7224 12.139144,-0.48726 l -0.037848,-1.09754 c -0.6916121,-0.0602 -1.3990605,-0.09 -2.1099213,-0.10881 z"
         id="path3841-4"
         inkscape:connector-curvature="0"
         sodipodi:nodetypes="ccsccccc" />
      <path
         inkscape:connector-curvature="0"
         style="display:inline;fill:#d19744;fill-opacity:1;stroke:#000000;stroke-width:0.15138449px;stroke-linecap:butt;stroke-linejoin:miter;stroke-opacity:1"
         d="m 6.4926235,257.40536 c -1.1700761,0.009 -2.3401529,0.20679 -3.5102279,0.56769 l 0.6055378,0.66231 0.813692,4.55573 -1.2158068,4.53207 c 2.3401512,0.79138 4.6803035,0.7218 7.0204554,0 l -0.6055379,-0.66231 -0.813692,-4.55573 1.2158069,-4.53207 c -1.1700751,-0.3957 -2.3401513,-0.57639 -3.5102275,-0.56769 z"
         id="path2914-8" />
      <path
         inkscape:connector-curvature="0"
         style="display:inline;fill:#86632b;fill-opacity:1;stroke:none;stroke-width:0.15138449"
         d="m 10.665158,257.75543 -0.7285377,0.19397 -0.501461,0.50146 -0.4825384,-0.47781 -0.2933073,0.29331 -0.1088075,-0.39739 H 7.3063144 l -0.1655768,0.28385 -0.1324606,-0.23181 -0.468346,0.80896 -0.2034224,-0.75692 H 5.2200474 l -0.1324612,0.22708 -0.3074998,-0.3075 -0.5345765,0.3075 -0.1419231,0.53458 -0.1797687,-0.65758 H 3.3182798 L 3.2000111,257.86897 H 2.9208956 l -0.4210379,0.42104 0.562961,0.31696 0.037849,0.0568 c 0.4753984,2.82777 0.3011064,5.65449 0,8.48226 l -0.6008072,0.16085 0.3831917,0.22234 -0.3784611,0.3832 0.7285378,-0.19397 0.5014609,-0.50146 0.4778078,0.47781 0.2933074,-0.29331 0.1088074,0.39739 h 1.2441912 l 0.1655768,-0.28385 0.1371924,0.23181 0.4636153,-0.80896 0.2034224,0.75692 h 1.11646 l 0.1324618,-0.22707 0.3122305,0.30749 0.5298459,-0.30749 0.1466536,-0.53458 0.1750381,0.65757 h 0.6055384 l 0.1182687,0.20816 h 0.2838465 l 0.416307,-0.42104 -0.55823,-0.31223 -0.04257,-0.0615 c -0.4753991,-2.82777 -0.3011065,-5.65449 0,-8.48226 l 0.600808,-0.16085 -0.383192,-0.22234 z"
         id="path2909-1"
         sodipodi:nodetypes="ccccccccccccccccccccccccccccccccccccccccccccccccccccc" />
      <path
         inkscape:connector-curvature="0"
         style="display:inline;fill:#5e4618;fill-opacity:1;stroke:none;stroke-width:0.15138449"
         d="m 3.5311646,258.07713 c 0.1802442,1.17015 0.3017347,2.50482 0.3784611,3.95965 -0.061391,0.41855 -0.2659432,0.72506 -0.5203841,0.99346 -0.00343,0.17548 -0.00796,0.35436 -0.014184,0.52984 0.4077935,-0.53386 0.7389139,-1.02783 0.8042301,-1.6605 -0.1132674,-1.47632 -0.2019182,-2.66544 -0.2885767,-3.82245 H 3.5311732 Z m -0.2601923,7.22861 c -0.012971,0.16568 -0.028059,0.33104 -0.042575,0.49673 0.771225,0.46462 0.9086205,1.08142 0.8420764,1.75038 l 0.141923,0.14192 0.1371919,-0.13719 c 0.072834,-0.62071 -0.1184295,-1.41513 -1.0786144,-2.25184 z"
         id="path2945-1" />
      <path
         inkscape:connector-curvature="0"
         style="display:inline;fill:#5e4618;fill-opacity:1;stroke:none;stroke-width:0.15138449"
         d="m 3.8907025,258.07713 c 0.3154689,1.07001 0.5105973,2.41937 0.6906921,3.94545 -0.2757019,1.02893 -0.7711151,1.43928 -0.7711151,2.69654 0.1630066,0.60835 0.6776742,1.594 0.8042301,2.16196 0.079743,0.35787 0.1032461,0.64563 0.099346,0.91777 h 0.2601923 l 0.014184,-0.52038 c 0,-1.38206 -0.7785732,-1.84137 -0.9461532,-2.57827 0.021021,-1.22425 1.0363282,-1.88256 0.7521921,-3.69946 -0.1096571,-1.01604 -0.2243853,-1.9972 -0.3548079,-2.90942 l -0.1939612,0.10881 -0.141923,0.53458 -0.1797692,-0.65758 h -0.033117 z"
         id="path3742-4" />
      <path
         inkscape:connector-curvature="0"
         style="display:inline;fill:#5e4618;fill-opacity:1;stroke:none;stroke-width:0.15138449"
         d="m 5.3808936,262.27805 c -0.996325,0 -0.9225264,3.65215 -0.1655768,3.65215 1.3286033,0.0326 1.8327237,-3.61224 0.1655768,-3.65215 z m -0.05677,0.40684 c 0.4770216,0 0.8314221,0.66827 0.7994995,1.34827 -0.033265,0.70866 -0.4711387,1.43342 -0.9745376,1.43342 -0.1490848,0 -0.2849057,-0.79486 -0.2459998,-1.53277 0.034009,-0.64507 0.2163407,-1.24892 0.4210379,-1.24892 z"
         id="path3748-8" />
      <path
         inkscape:connector-curvature="0"
         style="display:inline;fill:#d19744;fill-opacity:1;stroke:none;stroke-width:0.15138449"
         d="m 5.4876635,264.72257 c 0.096806,0.003 0.1927202,-0.0685 0.2516952,-0.14532 0.086256,-0.11241 0.1100153,-0.26889 0.1100153,-0.41058 0,-0.21906 0.00372,-0.50142 -0.1700866,-0.63477 -0.084892,-0.0651 -0.2318028,-0.0591 -0.3210137,0 -0.092166,0.061 -0.1073845,0.19703 -0.1293898,0.30537 -0.046992,0.23135 -0.1101395,0.49942 0,0.70824 0.048765,0.0924 0.1543384,0.17306 0.2587796,0.17706 z"
         id="path3763-5"
         sodipodi:nodetypes="csssssss" />
      <path
         inkscape:connector-curvature="0"
         style="display:inline;fill:#5e4618;fill-opacity:1;stroke:none;stroke-width:0.15138449"
         d="m 5.4802397,263.2242 c -0.2180766,0 -0.3879228,0.60282 -0.3879228,1.01239 0,0.40955 0.1414613,0.74746 0.3595385,0.74746 0.2180766,0 0.4967303,-0.54606 0.4967303,-0.95562 0,-0.40956 -0.2502687,-0.80423 -0.468346,-0.80423 z m 0.042575,0.41158 c 0.1196637,0.0117 0.2442742,0.32877 0.2223461,0.55349 -0.021919,0.22474 -0.1783766,0.42799 -0.2980385,0.41631 -0.1196614,-0.0117 -0.1827708,-0.35242 -0.1608456,-0.57715 0.02192,-0.22473 0.1168778,-0.40433 0.236538,-0.39265 z"
         id="path3754-9" />
      <path
         inkscape:connector-curvature="0"
         style="display:inline;fill:#5e4618;fill-opacity:1;stroke:none;stroke-width:0.15138449"
         d="m 5.2200474,257.97305 -0.1324612,0.22708 -0.1040768,-0.10408 c 0.1022196,0.68558 0.1974794,1.40075 0.236538,2.20454 0.07012,0.83792 0.5253728,1.30121 0.9650763,2.05788 0.2186339,0.37624 0.6596431,0.97128 0.5913459,1.42396 0,0.41223 -0.2138398,0.98155 -0.3500767,1.31515 -0.3388394,0.82972 -0.7334548,1.22408 -0.7332689,2.70127 h 0.1655768 l 0.1655768,-0.28385 0.1135386,0.19397 -0.033117,-0.47782 c -0.038341,-1.17269 1.0843017,-2.10776 1.11646,-3.63795 0,-0.89183 -1.5717939,-2.52795 -1.5800748,-2.75331 -0.1897122,-0.87291 -0.2034807,-1.86111 -0.1939617,-2.86684 z"
         id="path3769-2" />
      <path
         inkscape:connector-curvature="0"
         style="display:inline;fill:#5e4618;fill-opacity:1;stroke:none;stroke-width:0.15138449"
         d="m 7.008277,257.92101 -0.468346,0.80896 -0.1135381,-0.42104 c 0.031749,0.75507 0.090938,1.57916 0.1939612,2.14304 0.2076227,1.13639 0.9383838,2.21711 0.9383838,3.0554 0,0.42453 -0.4238907,1.11603 -0.4842309,4.1874 h 0.3737304 c 0.072677,-3.07159 0.4828772,-3.80054 0.4828772,-4.20836 -0.1456456,-0.93446 -0.889722,-2.38092 -0.889722,-3.36086 v -2.14777 z"
         id="path3774-0"
         sodipodi:nodetypes="cccsscccccc" />
      <path
         inkscape:connector-curvature="0"
         style="display:inline;fill:#5e4618;fill-opacity:1;stroke:none;stroke-width:0.15138449"
         d="m 8.3092369,257.86897 0.203423,3.19327 c 0.089286,1.39883 0.7219086,1.15194 1.2962298,0.65285 0.011581,-0.24928 0.026319,-0.49819 0.042575,-0.74747 -0.5161426,0.55228 -1.0205331,0.95372 -0.955615,-0.0757 0.055442,-0.87915 -0.1403879,-1.84226 -0.1135381,-2.74857 l -0.1229999,0.123 -0.1088075,-0.39739 z m 1.4618066,4.82538 c -0.4254618,0.42253 -0.78003,0.82157 -0.7994995,1.12119 -0.027349,1.36102 -0.1148706,2.56242 -0.2128843,3.74677 l 0.1608462,-0.0946 0.1466537,-0.53458 0.175038,0.65758 H 9.37839 c 0.03362,-1.62657 -0.05677,-3.01305 -0.05677,-3.63796 0.050173,-0.18725 0.2196741,-0.35953 0.4494229,-0.52039 -0.00177,-0.24452 -0.00429,-0.49347 5e-7,-0.738 z"
         id="path3783-0" />
      <path
         inkscape:connector-curvature="0"
         style="display:inline;fill:#5e4618;fill-opacity:1;stroke:none;stroke-width:0.15138449"
         d="m 7.5854298,257.86897 c 0.1204069,0.73232 0.1370454,1.46027 0.1040768,2.61612 -0.038638,1.35459 0.5818841,2.0415 0.5818841,3.43453 0,0.69756 -0.3204948,1.72859 -0.4352304,3.77515 h 0.1088074 l 0.1324618,-0.22707 0.2507305,0.24599 c 0.090277,-1.83491 0.3548073,-2.68232 0.3548073,-3.72784 0,-1.61991 -0.4636148,-1.65723 -0.4636148,-2.58773 l -0.1797692,-3.52915 z"
         id="path3793-1" />
      <path
         inkscape:connector-curvature="0"
         style="display:inline;fill:#5e4618;fill-opacity:1;stroke:none;stroke-width:0.15138449"
         d="m 10.665158,257.75543 -0.7285377,0.19397 -0.468346,0.46834 c -0.012502,0.23241 -0.037059,0.4557 -0.089884,0.65285 -0.2398794,0.89524 -0.091966,1.4974 0.5251147,1.19688 0.046683,-0.58217 0.098848,-1.16341 0.160846,-1.74565 l 0.600807,-0.16085 -0.383192,-0.22234 z"
         id="path3798-7" />
      <path
         inkscape:connector-curvature="0"
         sodipodi:nodetypes="ccccccccccccccccccccccccccccccccccccccccccccccccccccc"
         id="path3721-9"
         d="m 10.665158,257.75543 -0.7285377,0.19397 -0.501461,0.50146 -0.4825384,-0.47781 -0.2933073,0.29331 -0.1088075,-0.39739 H 7.3063144 l -0.1655768,0.28385 -0.1324606,-0.23181 -0.468346,0.80896 -0.2034224,-0.75692 H 5.2200474 l -0.1324612,0.22708 -0.3074998,-0.3075 -0.5345765,0.3075 -0.1419231,0.53458 -0.1797687,-0.65758 H 3.3182798 L 3.2000111,257.86897 H 2.9208956 l -0.4210379,0.42104 0.562961,0.31696 0.037849,0.0568 c 0.4753984,2.82777 0.3011064,5.65449 0,8.48226 l -0.6008072,0.16085 0.3831917,0.22234 -0.3784611,0.3832 0.7285378,-0.19397 0.5014609,-0.50146 0.4778078,0.47781 0.2933074,-0.29331 0.1088074,0.39739 h 1.2441912 l 0.1655768,-0.28385 0.1371924,0.23181 0.4636153,-0.80896 0.2034224,0.75692 h 1.11646 l 0.1324618,-0.22707 0.3122305,0.30749 0.5298459,-0.30749 0.1466536,-0.53458 0.1750381,0.65757 h 0.6055384 l 0.1182687,0.20816 h 0.2838465 l 0.416307,-0.42104 -0.55823,-0.31223 -0.04257,-0.0615 c -0.4753991,-2.82777 -0.3011065,-5.65449 0,-8.48226 l 0.600808,-0.16085 -0.383192,-0.22234 z"
         style="display:inline;fill:none;stroke:#000000;stroke-width:0.09083071;stroke-linecap:butt;stroke-linejoin:miter;stroke-miterlimit:4;stroke-dasharray:none;stroke-opacity:1" />
      <path
         inkscape:connector-curvature="0"
         style="display:inline;fill:#715121;fill-opacity:1;stroke:none;stroke-width:0.15138449"
         d="m 2.9208956,257.86897 -0.4210379,0.42104 0.562961,0.31696 0.037849,0.0568 c 0.4753984,2.82777 0.3011064,5.65449 0,8.48226 l -0.6008072,0.16085 0.3831917,0.22234 -0.3784611,0.3832 0.7285378,-0.19397 0.5014609,-0.50146 0.4778078,0.47781 0.2933074,-0.29331 0.1088074,0.39739 h 0.094616 c 0.3393915,-3.29217 0.5230589,-6.58094 0.018921,-9.87311 l -0.4825385,0.27439 -0.141923,0.53457 -0.1797687,-0.65758 H 3.3182803 L 3.2000116,257.869 Z"
         id="path3838-0" />
      <path
         inkscape:connector-curvature="0"
         style="display:inline;fill:#4f3912;fill-opacity:1;stroke:none;stroke-width:0.15138449"
         d="m 3.5311646,258.07713 c 0.1802442,1.17015 0.3017347,2.50482 0.3784611,3.95965 -0.061391,0.41855 -0.2659432,0.72506 -0.5203841,0.99346 -0.00343,0.17548 -0.00796,0.35436 -0.014184,0.52984 0.4077935,-0.53386 0.7389139,-1.02783 0.8042301,-1.6605 -0.1132674,-1.47632 -0.2019182,-2.66544 -0.2885767,-3.82245 H 3.5311732 Z m 0.3595379,0 c 0.3154689,1.07001 0.5105973,2.41937 0.6906921,3.94545 -0.2757019,1.02893 -0.7711151,1.43928 -0.7711151,2.69654 0.1630066,0.60835 0.6776742,1.594 0.8042301,2.16196 0.076121,0.34161 0.1006347,0.61868 0.099346,0.87993 0.048588,-0.47301 0.091963,-0.94635 0.1324612,-1.41924 -0.232879,-0.70961 -0.681843,-1.1034 -0.8042301,-1.64157 0.021021,-1.22425 1.0363287,-1.88256 0.752192,-3.69946 -0.1096571,-1.01604 -0.2243853,-1.9972 -0.3548073,-2.90942 l -0.1939617,0.10881 -0.1419231,0.53458 -0.1797687,-0.65758 z m 1.1495762,4.38068 c -0.5044676,0.59232 -0.5085369,2.5027 -0.141923,3.20746 0.018281,-0.24325 0.036933,-0.48529 0.052038,-0.72854 -0.043908,-0.28612 -0.065966,-0.64903 -0.047306,-1.00292 0.015317,-0.29049 0.063762,-0.56764 0.1277305,-0.79004 0.00515,-0.22833 0.00842,-0.45762 0.00946,-0.68596 z m -1.7693064,2.84793 c -0.012971,0.16568 -0.028059,0.33104 -0.042575,0.49673 0.771225,0.46462 0.9086205,1.08142 0.8420764,1.75038 l 0.141923,0.14192 0.1371919,-0.13719 c 0.072834,-0.62071 -0.1184295,-1.41513 -1.0786144,-2.25184 z"
         id="path4023-1" />
      <path
         inkscape:connector-curvature="0"
         style="display:inline;fill:none;stroke:#000000;stroke-width:0.10596915;stroke-linecap:butt;stroke-linejoin:miter;stroke-miterlimit:4;stroke-dasharray:none;stroke-opacity:1"
         d="m 10.665158,257.75543 -0.7285377,0.19397 -0.501461,0.50146 -0.4825384,-0.47781 -0.2933073,0.29331 -0.1088075,-0.39739 H 7.3063144 l -0.1655768,0.28385 -0.1324606,-0.23181 -0.468346,0.80896 -0.2034224,-0.75692 H 5.2200474 l -0.1324612,0.22708 -0.3074998,-0.3075 -0.5345765,0.3075 -0.1419231,0.53458 -0.1797687,-0.65758 H 3.3182798 L 3.2000111,257.86897 H 2.9208956 l -0.4210379,0.42104 0.562961,0.31696 0.037849,0.0568 c 0.4753984,2.82777 0.3011064,5.65449 0,8.48226 l -0.6008072,0.16085 0.3831917,0.22234 -0.3784611,0.3832 0.7285378,-0.19397 0.5014609,-0.50146 0.4778078,0.47781 0.2933074,-0.29331 0.1088074,0.39739 h 1.2441912 l 0.1655768,-0.28385 0.1371924,0.23181 0.4636153,-0.80896 0.2034224,0.75692 h 1.11646 l 0.1324618,-0.22707 0.3122305,0.30749 0.5298459,-0.30749 0.1466536,-0.53458 0.1750381,0.65757 h 0.6055384 l 0.1182687,0.20816 h 0.2838465 l 0.416307,-0.42104 -0.55823,-0.31223 -0.04257,-0.0615 c -0.4753991,-2.82777 -0.3011065,-5.65449 0,-8.48226 l 0.600808,-0.16085 -0.383192,-0.22234 z"
         id="path3833-1"
         sodipodi:nodetypes="ccccccccccccccccccccccccccccccccccccccccccccccccccccc" />
    </g>
    <path
       sodipodi:type="inkscape:offset"
       inkscape:radius="1.7251823"
       inkscape:original="M 33.277344 10.697266 A 22.351182 22.351182 0 0 0 31.351562 10.794922 A 22.351181 22.351181 0 0 0 31.0625 10.810547 A 10.653095 8.7953352 0 0 0 31.060547 10.808594 A 22.351181 22.351181 0 0 0 31.048828 10.810547 A 22.351181 22.351181 0 0 0 31.044922 10.810547 A 22.351181 22.351181 0 0 0 30.291016 10.923828 A 22.351182 22.351182 0 0 0 29.144531 11.097656 A 22.351181 22.351181 0 0 0 28.851562 11.142578 A 22.351181 22.351181 0 0 0 28.117188 11.328125 A 22.351182 22.351182 0 0 0 26.960938 11.623047 A 22.351181 22.351181 0 0 0 25.970703 11.953125 A 22.351182 22.351182 0 0 0 24.871094 12.353516 A 22.351181 22.351181 0 0 0 23.869141 12.802734 A 22.351182 22.351182 0 0 0 22.859375 13.289062 A 22.351181 22.351181 0 0 0 21.851562 13.869141 A 22.351182 22.351182 0 0 0 20.951172 14.419922 A 22.351181 22.351181 0 0 0 20.013672 15.091797 A 22.351182 22.351182 0 0 0 19.134766 15.757812 A 22.351181 22.351181 0 0 0 18.287109 16.503906 A 22.351182 22.351182 0 0 0 17.494141 17.242188 A 22.351181 22.351181 0 0 0 16.699219 18.09375 A 22.351182 22.351182 0 0 0 15.988281 18.904297 A 22.351181 22.351181 0 0 0 15.289062 19.826172 A 22.351182 22.351182 0 0 0 14.667969 20.695312 A 22.351181 22.351181 0 0 0 14.064453 21.679688 A 22.351182 22.351182 0 0 0 13.84375 22.037109 L 13.769531 22.019531 C 13.769531 22.019531 13.57639 22.501728 13.541016 22.585938 C 13.539916 22.588638 13.534303 22.600786 13.533203 22.603516 A 22.351182 22.351182 0 0 0 13.523438 22.619141 A 22.351181 22.351181 0 0 0 13.039062 23.623047 A 22.351182 22.351182 0 0 0 12.572266 24.667969 A 22.351181 22.351181 0 0 0 12.267578 25.486328 A 22.351181 22.351181 0 0 0 12.251953 25.527344 A 5.544254 5.9506394 0 0 0 12.251953 25.529297 A 22.351181 22.351181 0 0 0 12.197266 25.691406 A 22.351182 22.351182 0 0 0 11.841797 26.767578 A 22.351181 22.351181 0 0 0 11.660156 27.429688 C 11.272255 28.518124 10.924477 29.561196 10.751953 30.320312 C 10.644016 30.795238 10.49693 31.361442 10.353516 31.917969 C 10.353543 31.915969 10.353487 31.914109 10.353516 31.912109 C 9.7254277 34.350056 8.8945312 37.171875 8.8945312 37.171875 C 8.8945312 37.171875 10.080241 37.92262 11.714844 38.914062 A 22.351182 22.351182 0 0 0 33.277344 55.400391 A 22.351182 22.351182 0 0 0 43.722656 52.792969 C 44.694406 53.342587 45.525722 53.948033 45.527344 53.949219 C 45.527344 53.949219 45.863808 53.708921 46.378906 53.320312 C 48.222005 51.954949 53.228267 48.008181 53.943359 44.71875 C 54.814185 40.71298 56.092473 34.269403 55.744141 32.992188 C 55.669911 32.720013 55.676081 32.756405 55.609375 32.521484 A 22.351182 22.351182 0 0 0 55.53125 31.132812 A 22.351181 22.351181 0 0 0 55.402344 30.0625 A 22.351182 22.351182 0 0 0 55.230469 28.923828 A 22.351181 22.351181 0 0 0 54.986328 27.839844 A 22.351182 22.351182 0 0 0 54.710938 26.761719 A 22.351181 22.351181 0 0 0 54.365234 25.720703 A 22.351182 22.351182 0 0 0 53.970703 24.638672 A 22.351181 22.351181 0 0 0 53.527344 23.652344 A 22.351182 22.351182 0 0 0 53.029297 22.621094 A 22.351181 22.351181 0 0 0 52.486328 21.673828 A 22.351182 22.351182 0 0 0 51.892578 20.705078 A 22.351181 22.351181 0 0 0 51.248047 19.804688 A 22.351182 22.351182 0 0 0 50.566406 18.90625 A 22.351181 22.351181 0 0 0 49.853516 18.09375 A 22.351182 22.351182 0 0 0 49.056641 17.240234 A 22.351181 22.351181 0 0 0 48.289062 16.525391 A 22.351182 22.351182 0 0 0 47.404297 15.746094 A 22.351181 22.351181 0 0 0 46.541016 15.089844 A 22.351182 22.351182 0 0 0 45.617188 14.429688 A 22.351181 22.351181 0 0 0 44.669922 13.849609 A 22.351182 22.351182 0 0 0 43.697266 13.291016 A 22.351181 22.351181 0 0 0 42.683594 12.802734 A 22.351182 22.351182 0 0 0 41.675781 12.351562 A 22.351181 22.351181 0 0 0 40.642578 11.972656 A 22.351182 22.351182 0 0 0 39.552734 11.611328 A 22.351181 22.351181 0 0 0 38.511719 11.345703 A 22.351182 22.351182 0 0 0 37.380859 11.091797 A 22.351181 22.351181 0 0 0 36.289062 10.927734 A 22.351182 22.351182 0 0 0 35.191406 10.794922 A 22.351181 22.351181 0 0 0 33.277344 10.697266 z "
       style="opacity:1;fill:#000000;fill-opacity:1;stroke:none;stroke-width:7.44737005;stroke-linecap:round;stroke-linejoin:round;stroke-miterlimit:4;stroke-dasharray:none;stroke-opacity:1"
       id="circle1009"
       d="m 33.263672,8.9726562 c -0.692559,0.00521 -1.384686,0.04059 -2.074219,0.1054688 l 0.08008,-0.00586 c -0.07836,0.00373 -0.156057,0.00723 -0.234375,0.011719 a 1.7253548,1.7253548 0 0 0 -0.0039,0 c -0.02415,0.00139 -0.04812,0.00244 -0.07227,0.00391 l 0.002,0.00195 a 1.7253548,1.7253548 0 0 0 -0.03125,0.00195 1.7253548,1.7253548 0 0 0 -0.06641,0.00391 1.7253548,1.7253548 0 0 0 -0.04492,0.00391 c -0.271366,0.036054 -0.542521,0.077759 -0.8125,0.1230468 -0.389543,0.04993 -0.777427,0.1068564 -1.164062,0.1757813 -0.08774,0.013056 -0.176084,0.026991 -0.263672,0.041016 a 1.7253548,1.7253548 0 0 0 -0.121094,0.023437 c -0.264789,0.062148 -0.528484,0.1281341 -0.791015,0.1992188 l 0.07031,-0.015625 c -0.417893,0.094786 -0.833854,0.1994526 -1.246094,0.3164062 a 1.7253548,1.7253548 0 0 0 -0.03711,0.011719 c -0.358259,0.1101936 -0.713683,0.2286686 -1.066406,0.3554686 -0.385798,0.129847 -0.769719,0.268729 -1.148438,0.417969 a 1.7253548,1.7253548 0 0 0 -0.0332,0.01367 c -0.363653,0.152426 -0.72435,0.314272 -1.080078,0.484375 -0.354929,0.16079 -0.706027,0.329986 -1.052734,0.507812 a 1.7253548,1.7253548 0 0 0 -0.03516,0.01758 c -0.355899,0.192703 -0.705047,0.395072 -1.050781,0.605469 -0.0038,0.0022 -0.008,0.0037 -0.01172,0.0059 -0.0073,0.0044 -0.01424,0.0092 -0.02148,0.01367 -0.316512,0.184166 -0.629717,0.375808 -0.9375,0.574219 a 1.7253548,1.7253548 0 0 0 -0.0332,0.02149 c -0.342771,0.232504 -0.679445,0.474731 -1.009766,0.724609 -0.30972,0.223705 -0.615339,0.453215 -0.914062,0.691406 a 1.7253548,1.7253548 0 0 0 -0.03125,0.02539 c -0.301525,0.252169 -0.595948,0.512668 -0.884766,0.779297 -0.0086,0.0076 -0.01678,0.01578 -0.02539,0.02344 -6.75e-4,6.25e-4 -0.0013,0.0013 -0.002,0.002 -0.281393,0.250314 -0.55683,0.506293 -0.826172,0.769531 a 1.7253548,1.7253548 0 0 0 -0.02539,0.02539 c -0.28589,0.29069 -0.563225,0.587746 -0.833984,0.892578 -0.0022,0.0024 -0.0037,0.0054 -0.0059,0.0078 -0.0049,0.0055 -0.01074,0.01011 -0.01563,0.01563 -0.254696,0.277362 -0.502734,0.560606 -0.744141,0.849609 a 1.7253548,1.7253548 0 0 0 -0.02344,0.02734 c -0.259575,0.324437 -0.509515,0.656705 -0.751953,0.99414 -0.222377,0.296945 -0.440019,0.599348 -0.648438,0.90625 a 1.7253548,1.7253548 0 0 0 -0.01953,0.0293 c -0.20876,0.321557 -0.408395,0.64931 -0.601562,0.980469 a 1.7253548,1.7253548 0 0 0 -0.451172,0.642578 c 0,0 -0.151506,0.378183 -0.189453,0.472656 -0.173364,0.338352 -0.338947,0.681163 -0.496094,1.027344 -0.0015,0.0032 -0.0024,0.0066 -0.0039,0.0098 -0.0036,0.008 -0.0081,0.01548 -0.01172,0.02344 -0.171353,0.360037 -0.333067,0.723696 -0.486328,1.091797 a 1.7253548,1.7253548 0 0 0 -0.01367,0.03125 c -0.112329,0.284574 -0.218911,0.570727 -0.320313,0.859375 -0.0025,0.0067 -0.0053,0.01286 -0.0078,0.01953 -2.02e-4,5.77e-4 2.02e-4,0.0014 0,0.002 a 1.7253548,1.7253548 0 0 0 -0.02148,0.0625 c -0.01475,0.04322 -0.02847,0.08756 -0.04297,0.130859 -0.137406,0.383093 -0.265003,0.768637 -0.382813,1.158203 a 1.7253548,1.7253548 0 0 0 -0.0059,0.01758 C 10.120255,26.509586 10.058729,26.734702 10,26.960938 9.6213003,28.027132 9.2706852,29.055848 9.0703125,29.9375 c -0.095683,0.421006 -0.235222,0.96354 -0.375,1.505859 a 1.7253548,1.7253548 0 0 0 -0.011719,0.03906 c -0.6166196,2.393431 -1.4433594,5.203125 -1.4433594,5.203125 a 1.7253548,1.7253548 0 0 0 0.7304687,1.943359 c 0,0 1.136852,0.708338 2.3359379,1.44336 1.461931,4.766096 4.390354,9.074841 8.351562,12.103515 4.160134,3.18077 9.382347,4.947929 14.619141,4.949219 a 1.7253548,1.7253548 0 0 0 0.002,0 c 3.540603,-0.005 7.03621,-0.90583 10.236328,-2.419922 0.416978,0.271155 0.993155,0.635998 0.994141,0.636719 a 1.7253548,1.7253548 0 0 0 2.019531,0.01172 c 0,0 0.358523,-0.255745 0.876953,-0.646485 l 0.0098,-0.0078 c 0.961501,-0.712526 2.720069,-2.072647 4.386718,-3.736328 1.670265,-1.667291 3.321524,-3.555565 3.826172,-5.876953 0.43898,-2.019294 0.980383,-4.647666 1.373047,-6.964844 0.196332,-1.158589 0.356187,-2.23781 0.447266,-3.150391 0.09108,-0.91258 0.213431,-1.498672 -0.04102,-2.431641 -0.04967,-0.182118 -0.06551,-0.235142 -0.08789,-0.310546 -0.01476,-0.415768 -0.03403,-0.83165 -0.07031,-1.246094 a 1.7253548,1.7253548 0 0 0 -0.002,-0.01367 c -0.03701,-0.38535 -0.08313,-0.77118 -0.138672,-1.154297 -0.05029,-0.39849 -0.109529,-0.79593 -0.179687,-1.191406 a 1.7253548,1.7253548 0 0 0 -0.0078,-0.03711 c -0.07562,-0.379524 -0.160082,-0.755423 -0.253906,-1.13086 l -0.0078,-0.03516 c -0.08711,-0.377676 -0.18382,-0.753923 -0.289062,-1.126953 a 1.7253548,1.7253548 0 0 0 -0.0098,-0.03516 C 56.250002,25.892869 56.128544,25.531115 56,25.171875 55.868381,24.779795 55.727812,24.390639 55.576172,24.005859 a 1.7253548,1.7253548 0 0 0 -0.01563,-0.03711 c -0.145619,-0.34611 -0.29929,-0.688424 -0.460938,-1.027344 l -0.01563,-0.03516 C 54.919382,22.543421 54.744904,22.186245 54.5625,21.832031 a 1.7253548,1.7253548 0 0 0 -0.01563,-0.03125 C 54.360263,21.45596 54.164166,21.114594 53.960938,20.779297 53.762252,20.437033 53.555159,20.097679 53.339844,19.765625 a 1.7253548,1.7253548 0 0 0 -0.01953,-0.0293 c -0.216064,-0.318203 -0.440814,-0.631966 -0.671874,-0.939453 l -0.01758,-0.02344 C 52.399617,18.452949 52.1608,18.138795 51.914062,17.830078 a 1.7253548,1.7253548 0 0 0 -0.02344,-0.0293 C 51.64384,17.505402 51.389568,17.216802 51.128906,16.933594 50.855456,16.625493 50.576008,16.324915 50.287109,16.03125 a 1.7253548,1.7253548 0 0 0 -0.02539,-0.02539 c -0.260627,-0.254398 -0.526929,-0.501828 -0.798828,-0.74414 l -0.002,-0.002 c -0.309591,-0.28747 -0.626885,-0.567109 -0.951172,-0.837891 a 1.7253548,1.7253548 0 0 0 -0.0293,-0.02344 C 48.185735,14.16289 47.885555,13.934327 47.580078,13.712891 l -0.01758,-0.01172 c -0.320211,-0.240897 -0.64668,-0.474603 -0.978516,-0.699219 a 1.7253548,1.7253548 0 0 0 -0.0293,-0.02148 C 46.230577,12.770745 45.900226,12.568897 45.566406,12.375 l -0.02148,-0.01172 C 45.20755,12.158574 44.866557,11.961315 44.519531,11.773438 a 1.7253548,1.7253548 0 0 0 -0.03516,-0.01758 c -0.359481,-0.184448 -0.72349,-0.359266 -1.091797,-0.52539 -0.346487,-0.164826 -0.696813,-0.322625 -1.050781,-0.470703 a 1.7253548,1.7253548 0 0 0 -0.0332,-0.01367 c -0.357767,-0.14129 -0.717906,-0.272498 -1.082032,-0.396485 -0.387902,-0.139762 -0.77926,-0.269013 -1.173828,-0.3886715 a 1.7253548,1.7253548 0 0 0 -0.0332,-0.00977 C 39.65966,9.8500754 39.297782,9.7561062 38.933594,9.671875 l -0.03516,-0.00781 C 38.506334,9.565904 38.111392,9.4767316 37.714844,9.3984375 a 1.7253548,1.7253548 0 0 0 -0.03516,-0.00586 C 37.2892,9.3239982 36.897304,9.2660105 36.503906,9.2167969 36.122615,9.1616332 35.738968,9.1149284 35.355469,9.078125 a 1.7253548,1.7253548 0 0 0 -0.002,0 c -0.685342,-0.064518 -1.374152,-0.0999 -2.0625,-0.1054688 a 1.7253548,1.7253548 0 0 0 -0.02734,0 z"
       transform="matrix(0.1912881,0,0,0.1912881,0.86756461,252.01584)" />
    <g
       transform="matrix(0.14245933,0,0,0.14245933,2.6909638,113.01653)"
       id="layer1-0"
       inkscape:label="Calque 1">
      <circle
         r="30.01218"
         cy="1020.0892"
         cx="31.883068"
         id="path3336"
         style="opacity:1;fill:#2f151e;fill-opacity:1;stroke:none;stroke-width:10;stroke-linecap:round;stroke-linejoin:round;stroke-miterlimit:4;stroke-dasharray:none;stroke-opacity:1" />
      <path
         id="circle4138"
         transform="translate(0,988.36216)"
         d="M 31.882812,1.7148438 A 30.01218,30.01218 0 0 0 1.8710938,31.726562 30.01218,30.01218 0 0 0 2.5976562,38.123047 C 4.1445069,37.1313 6.0330529,35.9375 6.2363281,35.9375 c 0.3118149,0 34.7682629,6.3911 35.0800779,6.625 0.276317,0.207272 11.217193,6.344754 13.980469,7.894531 A 30.01218,30.01218 0 0 0 61.894531,31.726562 30.01218,30.01218 0 0 0 31.882812,1.7148438 Z"
         style="opacity:1;fill:#957e74;fill-opacity:1;stroke:none;stroke-width:10;stroke-linecap:round;stroke-linejoin:round;stroke-miterlimit:4;stroke-dasharray:none;stroke-opacity:1"
         inkscape:connector-curvature="0" />
      <path
         inkscape:connector-curvature="0"
         id="path4140"
         d="m 5.6906212,1005.2781 c 0,0 -3.274056,7.7174 -4.0535932,11.1474 -0.77953714,3.43 -2.49451886,9.1985 -2.49451886,9.1985 0,0 2.26065776,1.4812 5.84652866,3.5859 3.5858708,2.1048 4.1315469,4.4434 5.5347142,5.067 1.403166,0.6236 7.56151,6.0024 7.56151,6.0024 0,0 -1.792936,-1.9488 1.637028,-3.352 3.429963,-1.4031 6.470158,-4.1315 6.470158,-4.1315 0,0 -1.325213,3.7418 0.545676,6.5481 1.870889,2.8063 3.118149,5.1449 7.327649,5.1449 4.209501,0 8.652863,0.6237 10.445798,1.4032 1.792936,0.7795 3.819732,2.2607 3.819732,2.2607 0,0 10.133983,-7.0159 11.303289,-12.3947 1.169306,-5.3788 2.884287,-14.0316 2.416565,-15.7466 -0.467722,-1.715 -0.857491,-2.9623 -0.857491,-2.9623 z"
         style="fill:#957e74;fill-opacity:1;fill-rule:evenodd;stroke:none;stroke-width:1px;stroke-linecap:butt;stroke-linejoin:miter;stroke-opacity:1" />
      <path
         id="path4145"
         transform="translate(0,988.36216)"
         d="m 1.1035156,30.201172 c -0.84336839,3.273567 -1.96093748,7.060547 -1.96093748,7.060547 0,0 2.25983228,1.481237 5.84570308,3.585937 3.5858709,2.1048 4.131989,4.442807 5.5351568,5.066406 1.403166,0.6236 7.5625,6.003907 7.5625,6.003907 0,0 -1.793246,-1.950316 1.636718,-3.353516 3.429963,-1.4031 6.470703,-4.130859 6.470703,-4.130859 0,0 -1.325967,3.742528 0.544922,6.548828 1.870889,2.8063 3.118625,5.144531 7.328125,5.144531 4.209501,0 8.652378,0.622844 10.445313,1.402344 1.792936,0.7795 3.820312,2.261719 3.820312,2.261719 0,0 1.588781,-1.113306 3.570313,-2.765625 -0.385994,-0.296643 -0.740834,-0.544025 -0.998047,-0.664063 -1.169306,-0.5457 -0.312191,-5.068234 -1.949219,-4.990234 -1.637028,0.0779 -9.120854,-2.104566 -9.90039,-2.572266 -0.779538,-0.4677 -8.496606,-9.743712 -13.173829,-10.445312 -4.677223,-0.7016 -9.43205,4.598162 -13.173828,3.039062 -3.7417785,-1.5591 -7.7185428,-4.6768 -10.2910154,-6.9375 -1.0618609,-0.933168 -1.3363195,-2.606203 -1.3125,-4.253906 z"
         style="fill:#917062;fill-opacity:1;fill-rule:evenodd;stroke:none;stroke-width:1px;stroke-linecap:butt;stroke-linejoin:miter;stroke-opacity:1"
         inkscape:connector-curvature="0" />
      <path
         id="path4150"
         transform="translate(0,988.36216)"
         d="M 28.90625,1.8632812 A 30.01218,30.01218 0 0 0 3.6523438,21.626953 a 7.4445796,7.9902558 0 0 0 0.1777343,0.525391 5.1839218,5.7685747 0 0 0 -0.4472656,0.287109 30.01218,30.01218 0 0 0 -1.4707031,8.091797 5.1839218,5.7685747 0 0 0 4.2851562,2.521484 5.1839218,5.7685747 0 0 0 3.5078125,-1.529296 6.3142509,6.82095 0 0 0 5.6523439,3.789062 6.3142509,6.82095 0 0 0 5.423828,-3.341797 6.8989038,7.7953715 0 0 0 4.982422,2.40625 6.8989038,7.7953715 0 0 0 6.035156,-4.021484 6.4311814,6.3532276 0 0 0 0.746094,0.04687 6.4311814,6.3532276 0 0 0 6.43164,-6.353516 6.4311814,6.3532276 0 0 0 -1.523437,-4.095703 4.5602922,4.2874541 0 0 0 0.978516,-2.646484 4.5602922,4.2874541 0 0 0 -2.222657,-3.675782 14.304506,11.809988 0 0 0 0.117188,-1.43164 A 14.304506,11.809988 0 0 0 28.90625,1.8632812 Z"
         style="opacity:1;fill:#7b6052;fill-opacity:1;stroke:none;stroke-width:10;stroke-linecap:round;stroke-linejoin:round;stroke-miterlimit:4;stroke-dasharray:none;stroke-opacity:1"
         inkscape:connector-curvature="0" />
      <ellipse
         ry="2.1047504"
         rx="2.2216809"
         cy="998.96387"
         cx="40.029232"
         id="path4166"
         style="opacity:1;fill:#7b6052;fill-opacity:1;stroke:none;stroke-width:10;stroke-linecap:round;stroke-linejoin:round;stroke-miterlimit:4;stroke-dasharray:none;stroke-opacity:1" />
      <ellipse
         ry="3.2350793"
         rx="2.8063338"
         cy="1027.222"
         cx="42.874542"
         id="path4168"
         style="opacity:1;fill:#7b6052;fill-opacity:1;stroke:none;stroke-width:10;stroke-linecap:round;stroke-linejoin:round;stroke-miterlimit:4;stroke-dasharray:none;stroke-opacity:1" />
    </g>
    <g
       transform="matrix(0.13802966,0,0,0.13802966,3.0073691,128.1674)"
       id="g4157">
      <path
         style="opacity:1;fill:#000000;fill-opacity:0.50196078;stroke:none;stroke-width:10;stroke-linecap:round;stroke-linejoin:round;stroke-miterlimit:4;stroke-dasharray:none;stroke-opacity:1"
         d="m 18.320485,932.00243 a 6.6556261,14.238039 0 0 0 -0.810219,6.80896 6.6556261,14.238039 0 0 0 6.65575,14.2383 6.6556261,14.238039 0 0 0 6.65575,-14.2383 6.6556261,14.238039 0 0 0 -0.819281,-6.80896 z"
         id="ellipse4149"
         inkscape:connector-curvature="0" />
      <path
         style="opacity:1;fill:#000000;fill-opacity:1;stroke:none;stroke-width:10;stroke-linecap:round;stroke-linejoin:round;stroke-miterlimit:4;stroke-dasharray:none;stroke-opacity:1"
         d="m 21.12815,932.00243 a 4.7023445,11.584989 0 0 0 -0.58002,5.57036 4.7023445,11.584989 0 0 0 4.7018,11.58606 4.7023445,11.584989 0 0 0 4.703615,-11.58606 4.7023445,11.584989 0 0 0 -0.583646,-5.57036 z"
         id="path4147"
         inkscape:connector-curvature="0" />
    </g>
    <g
       transform="matrix(-0.13802966,0,0,0.13802966,11.6719,128.1674)"
       id="g4161">
      <path
         inkscape:connector-curvature="0"
         id="path4163"
         d="m 18.320485,932.00243 a 6.6556261,14.238039 0 0 0 -0.810219,6.80896 6.6556261,14.238039 0 0 0 6.65575,14.2383 6.6556261,14.238039 0 0 0 6.65575,-14.2383 6.6556261,14.238039 0 0 0 -0.819281,-6.80896 z"
         style="opacity:1;fill:#000000;fill-opacity:0.50196078;stroke:none;stroke-width:10;stroke-linecap:round;stroke-linejoin:round;stroke-miterlimit:4;stroke-dasharray:none;stroke-opacity:1" />
      <path
         inkscape:connector-curvature="0"
         id="path4165"
         d="m 21.12815,932.00243 a 4.7023445,11.584989 0 0 0 -0.58002,5.57036 4.7023445,11.584989 0 0 0 4.7018,11.58606 4.7023445,11.584989 0 0 0 4.703615,-11.58606 4.7023445,11.584989 0 0 0 -0.583646,-5.57036 z"
         style="opacity:1;fill:#000000;fill-opacity:1;stroke:none;stroke-width:10;stroke-linecap:round;stroke-linejoin:round;stroke-miterlimit:4;stroke-dasharray:none;stroke-opacity:1" />
    </g>
  </g>
</svg>
