<?xml version="1.0" encoding="UTF-8" standalone="no"?>
<!-- Created with Inkscape (http://www.inkscape.org/) -->

<svg
   xmlns:dc="http://purl.org/dc/elements/1.1/"
   xmlns:cc="http://creativecommons.org/ns#"
   xmlns:rdf="http://www.w3.org/1999/02/22-rdf-syntax-ns#"
   xmlns:svg="http://www.w3.org/2000/svg"
   xmlns="http://www.w3.org/2000/svg"
   xmlns:sodipodi="http://sodipodi.sourceforge.net/DTD/sodipodi-0.dtd"
   xmlns:inkscape="http://www.inkscape.org/namespaces/inkscape"
   width="256"
   height="256"
   viewBox="0 0 256 256"
   id="svg2"
   version="1.1"
   inkscape:version="0.92.1 r15371"
   sodipodi:docname="hunter.svg"
   inkscape:export-filename="C:\Prog\Projects\teeworlds\zomb_assets\hunter.png"
   inkscape:export-xdpi="90"
   inkscape:export-ydpi="90">
  <defs
     id="defs4">
    <filter
       style="color-interpolation-filters:sRGB;"
       inkscape:label="Colorize"
       id="filter4522">
      <feComposite
         in2="SourceGraphic"
         operator="arithmetic"
         k1="2.7"
         k2="1"
         result="composite1"
         id="feComposite4508" />
      <feColorMatrix
         in="composite1"
         values="1"
         type="saturate"
         result="colormatrix1"
         id="feColorMatrix4510" />
      <feFlood
         flood-opacity="1"
         flood-color="rgb(158,0,0)"
         result="flood1"
         id="feFlood4512" />
      <feBlend
         in="flood1"
         in2="colormatrix1"
         mode="multiply"
         result="blend1"
         id="feBlend4514" />
      <feBlend
         in2="blend1"
         mode="screen"
         result="blend2"
         id="feBlend4516" />
      <feColorMatrix
         in="blend2"
         values="1"
         type="saturate"
         result="colormatrix2"
         id="feColorMatrix4518" />
      <feComposite
         in="colormatrix2"
         in2="SourceGraphic"
         operator="in"
         k2="1"
         result="composite2"
         id="feComposite4520" />
    </filter>
  </defs>
  <sodipodi:namedview
     id="base"
     pagecolor="#ffffff"
     bordercolor="#666666"
     borderopacity="1.0"
     inkscape:pageopacity="0.0"
     inkscape:pageshadow="2"
     inkscape:zoom="3.2070312"
     inkscape:cx="115.21039"
     inkscape:cy="155.05352"
     inkscape:document-units="px"
     inkscape:current-layer="layer1"
     showgrid="false"
     units="px"
     inkscape:window-width="1920"
     inkscape:window-height="1017"
     inkscape:window-x="-8"
     inkscape:window-y="-8"
     inkscape:window-maximized="1"
     showguides="false" />
  <metadata
     id="metadata7">
    <rdf:RDF>
      <cc:Work
         rdf:about="">
        <dc:format>image/svg+xml</dc:format>
        <dc:type
           rdf:resource="http://purl.org/dc/dcmitype/StillImage" />
        <dc:title />
      </cc:Work>
    </rdf:RDF>
  </metadata>
  <g
     inkscape:label="Calque 1"
     inkscape:groupmode="layer"
     id="layer1"
     transform="translate(0,-796.36216)">
    <g
       id="g4562">
      <g
         id="g4795"
         transform="translate(-128.31182,129.40317)">
        <path
           style="fill:#000000;fill-opacity:0.29019609;stroke:none;stroke-width:2.06003833;stroke-linecap:round;stroke-linejoin:round;stroke-miterlimit:4;stroke-dasharray:none;stroke-opacity:1"
           d="M 85.556641 161.07031 C 86.531687 162.82052 88.815868 166.96801 90.068359 170.00977 C 91.611759 173.75804 92.604381 173.31792 92.494141 176.8457 C 92.383891 180.37348 92.934898 182.46831 92.273438 185.00391 C 91.611977 187.5395 92.27344 195.25629 91.28125 197.68164 C 90.28906 200.10699 88.636287 202.20052 86.210938 205.50781 C 83.785577 208.81511 81.690321 212.78493 76.619141 214.54883 C 71.547951 216.31272 72.098103 217.3047 68.570312 218.29688 C 65.042532 219.28907 64.602224 220.17166 60.302734 219.95117 C 56.003254 219.73069 51.594628 219.83941 46.523438 218.40625 C 41.452247 216.97309 43.094236 215.45329 38.253906 216.0918 C 34.655958 216.56642 33.726338 215.3634 32.490234 214.66797 L 33.414062 216.73047 C 33.414062 216.73047 35.067931 218.27365 35.619141 218.49414 C 36.010694 218.65076 36.795873 219.00662 37.783203 219.41797 A 36.901455 36.680969 0 0 0 63.953125 230.26172 A 36.901455 36.680969 0 0 0 92.042969 217.35156 C 92.720259 217.21789 93.206385 217.08485 93.607422 216.95117 C 94.599612 216.62044 95.15104 214.96789 95.8125 214.08594 C 96.234278 213.52357 96.454773 212.95085 96.685547 212.30664 C 97.017412 212.53474 97.345901 212.76504 97.6875 212.98242 C 100.11285 214.52582 98.458546 212.32074 99.009766 210.77734 C 99.560976 209.23393 99.780822 208.46268 100.33203 207.25 C 100.88325 206.03733 101.21419 203.94228 101.54492 201.84766 C 101.87565 199.75304 101.54492 198.09961 101.54492 198.09961 C 101.54492 198.09961 101.13266 197.89787 100.59961 197.69922 A 36.901455 36.680969 0 0 0 100.85352 193.58008 A 36.901455 36.680969 0 0 0 100.58789 189.56641 C 101.32176 189.52347 101.87695 189.50195 101.87695 189.50195 C 101.87695 189.50195 101.87652 188.17774 101.43555 187.18555 C 100.99457 186.19336 101.32487 184.31967 100.99414 181.67383 C 100.66341 179.02799 98.790153 177.59571 97.908203 176.60352 L 97.792969 176.61133 C 102.01785 174.56947 98.326568 174.81005 97.908203 174.28711 C 97.467233 173.73589 95.703134 171.42057 92.726562 167.12109 C 89.750002 162.8216 85.78125 161.16797 85.78125 161.16797 C 85.78125 161.16797 85.569689 161.07605 85.556641 161.07031 z "
           transform="translate(128.31182,666.95899)"
           id="ellipse4761" />
      </g>
      <g
         id="g4598">
        <ellipse
           ry="36.680969"
           rx="36.901455"
           cy="860.539"
           cx="192.26414"
           id="path4524"
           style="fill:#c8c4be;fill-opacity:1;stroke:none;stroke-width:2.06003833;stroke-linecap:round;stroke-linejoin:round;stroke-miterlimit:4;stroke-dasharray:none;stroke-opacity:1" />
        <path
           inkscape:connector-curvature="0"
           id="path4526"
           d="m 172.31013,829.22992 c 1.32292,-0.88195 3.08681,-4.51997 5.29167,-4.51997 2.20486,0 3.74827,-1.21268 5.84289,-1.32292 2.09462,-0.11025 3.52778,-0.77171 9.37067,-0.44098 5.84289,0.33073 10.80384,0.99219 12.78821,1.65365 1.98438,0.66146 8.48873,3.52778 8.48873,3.52778 0,0 1.76389,2.09463 -0.66146,2.64584 -2.42535,0.55122 -2.31511,0.55122 -5.6224,1.54341 -3.3073,0.99219 -2.75608,2.3151 -9.15019,2.3151 -6.3941,0 -6.28386,-0.22048 -9.92189,-0.66146 -3.63802,-0.44097 -4.96094,0.11025 -7.49653,-1.10243 -2.5356,-1.21267 -4.079,-1.65365 -5.40192,-2.09462 -1.32292,-0.44097 -3.52778,-1.5434 -3.52778,-1.5434 z"
           style="fill:#3a3a3a;stroke:none;stroke-width:1px;stroke-linecap:butt;stroke-linejoin:miter;stroke-opacity:1;fill-opacity:1" />
        <ellipse
           ry="2.4165652"
           rx="3.0012181"
           cy="872.13318"
           cx="161.0134"
           id="path4546"
           style="fill:#b0a79a;fill-opacity:1;stroke:none;stroke-width:2;stroke-linecap:round;stroke-linejoin:round;stroke-miterlimit:4;stroke-dasharray:none;stroke-opacity:1" />
        <circle
           r="0.81851405"
           cy="874.12097"
           cx="164.98904"
           id="path4550"
           style="fill:#b0a79a;fill-opacity:1;stroke:none;stroke-width:2;stroke-linecap:round;stroke-linejoin:round;stroke-miterlimit:4;stroke-dasharray:none;stroke-opacity:1" />
        <ellipse
           ry="3.2740562"
           rx="3.3130329"
           cy="888.03571"
           cx="174.34349"
           id="path4552"
           style="fill:#b0a79a;fill-opacity:1;stroke:none;stroke-width:2;stroke-linecap:round;stroke-linejoin:round;stroke-miterlimit:4;stroke-dasharray:none;stroke-opacity:1" />
        <ellipse
           ry="5.3398294"
           rx="6.5870891"
           cy="885.81403"
           cx="189.38855"
           id="path4554"
           style="fill:#b0a79a;fill-opacity:1;stroke:none;stroke-width:2;stroke-linecap:round;stroke-linejoin:round;stroke-miterlimit:4;stroke-dasharray:none;stroke-opacity:1" />
        <ellipse
           ry="1.8319124"
           rx="2.1047504"
           cy="889.3999"
           cx="194.96225"
           id="path4556"
           style="fill:#b0a79a;fill-opacity:1;stroke:none;stroke-width:2;stroke-linecap:round;stroke-linejoin:round;stroke-miterlimit:4;stroke-dasharray:none;stroke-opacity:1" />
        <ellipse
           ry="1.2862363"
           rx="1.36419"
           cy="887.68494"
           cx="209.42265"
           id="path4558"
           style="fill:#b0a79a;fill-opacity:1;stroke:none;stroke-width:2;stroke-linecap:round;stroke-linejoin:round;stroke-miterlimit:4;stroke-dasharray:none;stroke-opacity:1" />
        <ellipse
           ry="3.3909867"
           rx="4.9500608"
           cy="860.79089"
           cx="216.51645"
           id="path4560"
           style="fill:#b0a79a;fill-opacity:1;stroke:none;stroke-width:2;stroke-linecap:round;stroke-linejoin:round;stroke-miterlimit:4;stroke-dasharray:none;stroke-opacity:1" />
        <ellipse
           ry="1.9878198"
           rx="2.0267966"
           cy="857.75073"
           cx="223.25945"
           id="path4562"
           style="fill:#b0a79a;fill-opacity:1;stroke:none;stroke-width:2;stroke-linecap:round;stroke-linejoin:round;stroke-miterlimit:4;stroke-dasharray:none;stroke-opacity:1" />
        <ellipse
           ry="1.4421438"
           rx="1.6760049"
           cy="836.93707"
           cx="178.78685"
           id="path4564"
           style="fill:#b0a79a;fill-opacity:1;stroke:none;stroke-width:2;stroke-linecap:round;stroke-linejoin:round;stroke-miterlimit:4;stroke-dasharray:none;stroke-opacity:1" />
        <ellipse
           ry="1.3252132"
           rx="1.5200975"
           cy="833.23425"
           cx="172.86237"
           id="path4566"
           style="fill:#b0a79a;fill-opacity:1;stroke:none;stroke-width:2;stroke-linecap:round;stroke-linejoin:round;stroke-miterlimit:4;stroke-dasharray:none;stroke-opacity:1" />
        <path
           inkscape:connector-curvature="0"
           id="path4538"
           d="m 226.21905,843.56153 c 0.88195,0.99219 2.75608,2.42535 3.08681,5.07119 0.33073,2.64584 0,4.51997 0.44098,5.51216 0.44097,0.99219 0.44097,2.31511 0.44097,2.31511 0,0 -5.07119,0.11024 -7.60678,1.10243 -2.5356,0.99219 -1.65365,2.53559 -5.62241,3.52778 -3.96875,0.99219 -7.93751,1.43316 -12.78821,2.42535 -4.8507,0.99219 -19.18231,4.96095 -21.60767,5.62241 -2.42535,0.66146 -12.23699,2.64583 -12.23699,2.64583 0,0 -2.53559,-2.20486 -2.97657,-4.18924 -0.44097,-1.98438 -0.66146,-4.74046 -2.09462,-5.95313 -1.43316,-1.21268 -3.30729,-0.99219 -1.87413,-3.96876 1.43316,-2.97656 1.32292,-5.84289 4.18924,-6.83508 2.86632,-0.99218 14.99307,-3.74826 21.9384,-3.96875 6.94532,-0.22049 18.30037,-2.20486 18.30037,-2.20486"
           style="fill:#313131;stroke:none;stroke-width:1px;stroke-linecap:butt;stroke-linejoin:miter;stroke-opacity:1;fill-opacity:1" />
        <path
           inkscape:connector-curvature="0"
           id="path4542"
           d="m 160.29362,880.49301 c -0.33073,-0.66146 -2.64584,-3.85852 -1.32292,-4.079 1.32292,-0.22049 2.86632,0 5.07119,-0.22049 2.20486,-0.22049 7.05556,-1.98438 7.93751,-1.98438 0.88194,0 8.70921,0.66146 12.67797,0.11025 3.96875,-0.55122 31.19882,-3.63803 33.62417,-4.079 2.42535,-0.44097 9.92189,-1.87414 9.92189,-1.87414 0,0 -1.10243,3.52779 -1.43316,5.07119 -0.33073,1.54341 -0.7717,3.3073 -1.32292,4.63022 -0.55122,1.32291 -0.66146,2.09462 -1.32292,2.97656 -0.66146,0.88195 -1.21267,2.5356 -2.20486,2.86633 -0.99219,0.33073 -2.09462,0.66145 -6.94532,0.99218 -4.8507,0.33073 -8.48873,0.11025 -14.66235,0.99219 -6.17362,0.88195 0.88195,1.87414 -12.45748,2.42535 -13.33943,0.55122 -12.45748,0.99219 -15.21356,0.22049 -2.75608,-0.7717 -3.52779,-0.99219 -5.29168,-1.65365 -1.76389,-0.66146 -2.86632,-1.21267 -3.41754,-1.43316 -0.55121,-0.22049 -2.20486,-1.76389 -2.20486,-1.76389"
           style="fill:#31312f;stroke:none;stroke-width:1px;stroke-linecap:butt;stroke-linejoin:miter;stroke-opacity:1;fill-opacity:1" />
        <path
           inkscape:connector-curvature="0"
           id="path4536"
           d="m 156.21462,870.46087 c -0.88195,-3.08681 -2.20487,-4.07899 -1.65365,-5.73264 0.55122,-1.65365 1.32292,-1.87414 0.7717,-3.96876 -0.55121,-2.09462 -1.43316,-4.079 -0.22048,-4.8507 1.21267,-0.7717 4.51997,-3.08681 8.04775,-1.76389 3.52778,1.32292 7.05557,1.32292 11.24481,3.08681 4.18924,1.76389 8.9297,3.74827 13.89064,4.51997 4.96095,0.7717 10.14238,0 14.33162,-0.99219 4.18924,-0.99219 3.30729,-1.87413 7.71702,0.11025 4.40973,1.98437 7.05557,2.3151 9.59116,2.3151 2.53559,0 6.39411,1.10243 7.3863,1.10243 0.99218,0 2.53559,0.77171 2.53559,0.77171 0,0 0.33073,1.65365 0,3.74827 -0.33073,2.09462 -0.66146,4.18924 -1.21268,5.40191 -0.55121,1.21268 -0.7717,1.98438 -1.32291,3.52779 -0.55122,1.5434 1.10243,3.74826 -1.32292,2.20486 -2.42535,-1.54341 -4.51997,-3.52778 -7.49654,-3.52778 -2.97657,0 -2.86632,0 -9.15019,0 -6.28386,0 -8.04775,-0.11025 -13.11894,-0.77171 -5.07119,-0.66145 -4.96094,-0.44097 -12.45748,-0.33072 -7.49654,0.11024 -7.82727,1.10243 -13.33943,-0.66146 -5.51216,-1.7639 -5.95313,-2.20487 -8.81945,-2.75608 -2.86633,-0.55122 -5.40192,-1.43317 -5.40192,-1.43317 z"
           style="fill:#3a3a3a;stroke:none;stroke-width:1px;stroke-linecap:butt;stroke-linejoin:miter;stroke-opacity:1;fill-opacity:1" />
        <path
           inkscape:connector-curvature="0"
           id="path4544"
           d="m 161.28581,843.67178 c 0,0 -2.97657,-3.41754 -1.32292,-4.96095 1.65365,-1.5434 1.32292,-1.98438 2.42535,-2.75608 1.10243,-0.7717 1.87413,-2.20486 2.75608,-2.31511 0.88194,-0.11024 3.41754,-0.55121 6.50435,0.88195 3.08681,1.43316 10.14237,1.76389 12.01651,1.10243 1.87413,-0.66146 4.51997,-1.76389 6.3941,-1.98438 1.87414,-0.22048 6.61459,-0.88194 8.37849,-0.44097 1.76389,0.44097 7.27605,2.64584 7.27605,2.64584 l 1.32292,6.72483 0.7717,2.09463"
           style="fill:#2a2a2a;stroke:none;stroke-width:1px;stroke-linecap:butt;stroke-linejoin:miter;stroke-opacity:1;fill-opacity:1" />
        <path
           inkscape:connector-curvature="0"
           id="path4534"
           d="m 214.0923,828.12748 c 0,0 3.96876,1.65365 6.94532,5.95314 2.97657,4.29948 4.74046,6.61459 5.18143,7.16581 0.44098,0.55121 4.63022,0.22048 -0.7717,2.64583 -5.40192,2.42535 -16.20575,4.8507 -19.07207,5.62241 -2.86633,0.7717 -3.3073,0.88194 -12.12676,2.75608 -8.81945,1.87413 -7.71702,6.06337 -13.33942,4.63021 -5.62241,-1.43316 -4.96095,-1.98438 -7.05557,-1.87413 -2.09462,0.11024 -3.41754,0.7717 -7.27605,1.10243 -3.85851,0.33073 -6.72484,0.66146 -7.82727,0.7717 -1.10243,0.11024 -3.19705,0.7717 -3.96875,0.11024 -0.77171,-0.66146 -0.88195,-0.7717 -0.66146,-3.30729 0.22048,-2.5356 0.44097,-2.97657 0.88194,-5.29168 0.44098,-2.3151 1.98438,-6.17362 2.86633,-6.3941 0.88194,-0.22049 3.08681,0.88194 9.03994,0.44097 5.95313,-0.44097 10.58335,-0.11024 14.66235,-0.55122 4.07899,-0.44097 7.38629,-1.21267 11.68578,-3.19705 4.29948,-1.98438 5.51216,-2.75608 8.04775,-3.74827 2.53559,-0.99219 4.18924,-2.42535 6.72483,-3.74827 2.5356,-1.32291 6.06338,-3.08681 6.06338,-3.08681 z"
           style="fill:#424242;stroke:none;stroke-width:1px;stroke-linecap:butt;stroke-linejoin:miter;stroke-opacity:1;fill-opacity:1" />
      </g>
      <g
         id="g4721"
         transform="translate(-128.46772)">
        <path
           style="fill:#000000;fill-opacity:1;stroke:#000000;stroke-width:4;stroke-linecap:round;stroke-linejoin:round;stroke-miterlimit:4;stroke-dasharray:none;stroke-opacity:1"
           d="M 60.712891 26.498047 C 57.74666 26.549724 56.547527 26.942703 54.976562 27.025391 C 52.881942 27.135631 51.339626 28.347656 49.134766 28.347656 C 46.929906 28.347656 45.164717 31.985238 43.841797 32.867188 C 43.841797 32.867188 44.160803 33.01899 44.273438 33.074219 A 36.901455 36.680969 0 0 0 38.917969 37.138672 C 37.883873 37.106911 37.091228 37.225414 36.675781 37.277344 C 35.793831 37.387594 35.022352 38.820097 33.919922 39.591797 C 32.817492 40.363497 33.149744 40.806209 31.496094 42.349609 C 30.527488 43.253644 31.150191 44.787457 31.830078 45.914062 A 36.901455 36.680969 0 0 0 31.822266 45.927734 C 30.568967 45.744304 29.815347 45.552508 29.400391 45.65625 C 28.518441 45.87673 26.976136 49.735681 26.535156 52.050781 C 26.094186 54.365891 25.872824 54.806197 25.652344 57.341797 C 25.459835 59.555612 25.548231 59.928559 26.080078 60.425781 C 25.893987 61.408478 26.463444 62.869664 26.865234 64.396484 C 26.886418 64.476982 26.892793 64.538132 26.910156 64.613281 A 36.901455 36.680969 0 0 0 26.970703 66.271484 C 26.805802 66.918356 26.415656 67.399522 26.09375 68.365234 C 25.54253 70.018884 26.864144 71.012799 27.746094 74.099609 C 27.746094 74.099609 28.184458 74.233815 28.339844 74.285156 A 36.901455 36.680969 0 0 0 30.564453 80.046875 C 30.545081 80.049903 30.523183 80.049522 30.503906 80.052734 C 29.180986 80.273214 31.495442 83.469399 31.826172 84.130859 L 33.259766 87.328125 C 33.259766 87.328125 34.913634 88.871307 35.464844 89.091797 C 35.85645 89.248441 36.641355 89.602241 37.628906 90.013672 A 36.901455 36.680969 0 0 0 63.796875 100.85742 A 36.901455 36.680969 0 0 0 91.884766 87.951172 C 92.563882 87.817291 93.049523 87.682711 93.451172 87.548828 C 94.443362 87.218098 94.99479 85.563591 95.65625 84.681641 C 96.078369 84.118819 96.300236 83.547284 96.53125 82.902344 C 96.863054 83.1304 97.189716 83.362738 97.53125 83.580078 C 99.9566 85.123478 98.302296 82.9184 98.853516 81.375 C 99.404726 79.83159 99.624571 79.060336 100.17578 77.847656 C 100.727 76.634986 101.05794 74.539932 101.38867 72.445312 C 101.7194 70.350692 101.38867 68.697266 101.38867 68.697266 C 101.38867 68.697266 100.97641 68.493568 100.44336 68.294922 A 36.901455 36.680969 0 0 0 100.69727 64.177734 A 36.901455 36.680969 0 0 0 100.43164 60.164062 C 101.16551 60.121122 101.7207 60.097656 101.7207 60.097656 C 101.7207 60.097656 101.72027 58.775393 101.2793 57.783203 C 100.83832 56.791013 101.16862 54.917324 100.83789 52.271484 C 100.50716 49.625644 98.633903 48.191409 97.751953 47.199219 L 97.638672 47.205078 C 101.86118 45.163998 98.170269 45.407646 97.751953 44.884766 C 97.310983 44.333546 95.546883 42.01823 92.570312 37.71875 C 89.593752 33.41926 85.625 31.765625 85.625 31.765625 C 85.625 31.765625 79.121099 28.899741 77.136719 28.238281 C 75.152349 27.576821 70.190546 26.914714 64.347656 26.583984 C 62.886934 26.501302 61.701634 26.480821 60.712891 26.498047 z "
           transform="translate(128.46772,796.36216)"
           id="ellipse4687" />
      </g>
      <g
         id="g4758"
         transform="translate(0,128.93544)">
        <path
           style="fill:none;fill-opacity:1;stroke:#000000;stroke-width:2;stroke-linecap:round;stroke-linejoin:round;stroke-miterlimit:4;stroke-dasharray:none;stroke-opacity:1"
           d="M 189.18164 155.43359 C 186.21541 155.48527 185.01628 155.87825 183.44531 155.96094 C 181.35069 156.07118 179.80642 157.2832 177.60156 157.2832 C 175.3967 157.2832 173.63347 160.92078 172.31055 161.80273 C 172.31055 161.80273 172.62955 161.95454 172.74219 162.00977 A 36.901455 36.680969 0 0 0 167.38672 166.07227 C 166.35239 166.04045 165.56004 166.16095 165.14453 166.21289 C 164.26258 166.32314 163.4911 167.75564 162.38867 168.52734 C 161.28624 169.29904 161.61654 169.7398 159.96289 171.2832 C 158.99421 172.18731 159.61888 173.72298 160.29883 174.84961 A 36.901455 36.680969 0 0 0 160.29102 174.86328 C 159.03646 174.67976 158.28432 174.488 157.86914 174.5918 C 156.98719 174.81228 155.44293 178.67123 155.00195 180.98633 C 154.56098 183.30144 154.33962 183.74174 154.11914 186.27734 C 153.92669 188.49045 154.0155 188.86435 154.54688 189.36133 C 154.36098 190.34402 154.93029 191.80539 155.33203 193.33203 C 155.35379 193.41471 155.36118 193.47764 155.37891 193.55469 A 36.901455 36.680969 0 0 0 155.4375 195.20898 C 155.27226 195.85475 154.88209 196.33615 154.56055 197.30078 C 154.00933 198.95443 155.33289 199.94639 156.21484 203.0332 C 156.21484 203.0332 156.65192 203.16762 156.80664 203.21875 A 36.901455 36.680969 0 0 0 159.03125 208.98047 C 159.01191 208.98349 158.98995 208.98312 158.9707 208.98633 C 157.64778 209.20681 159.96224 212.40495 160.29297 213.06641 L 161.72656 216.26367 C 161.72656 216.26367 163.38043 217.80685 163.93164 218.02734 C 164.32346 218.18407 165.10923 218.53943 166.09766 218.95117 A 36.901455 36.680969 0 0 0 192.26367 229.79297 A 36.901455 36.680969 0 0 0 220.35352 216.88672 C 221.03219 216.75289 221.51842 216.61821 221.91992 216.48438 C 222.91211 216.15365 223.46354 214.49914 224.125 213.61719 C 224.54703 213.05449 224.7671 212.48263 224.99805 211.83789 C 225.32985 212.06595 225.65651 212.29828 225.99805 212.51562 C 228.4234 214.05902 226.77105 211.85395 227.32227 210.31055 C 227.87348 208.76714 228.09332 207.99588 228.64453 206.7832 C 229.19575 205.57053 229.52669 203.47548 229.85742 201.38086 C 230.18815 199.28624 229.85742 197.63281 229.85742 197.63281 C 229.85742 197.63281 229.44326 197.42913 228.91016 197.23047 A 36.901455 36.680969 0 0 0 229.16602 193.11133 A 36.901455 36.680969 0 0 0 228.90039 189.09961 C 229.6335 189.05673 230.1875 189.0332 230.1875 189.0332 C 230.1875 189.0332 230.18706 187.71094 229.74609 186.71875 C 229.30511 185.72656 229.63737 183.85092 229.30664 181.20508 C 228.97591 178.55924 227.1007 177.12696 226.21875 176.13477 L 226.10547 176.14062 C 230.32798 174.09955 226.63707 174.34319 226.21875 173.82031 C 225.77778 173.26909 224.01368 170.95378 221.03711 166.6543 C 218.06055 162.35481 214.0918 160.70117 214.0918 160.70117 C 214.0918 160.70117 207.5879 157.83529 205.60352 157.17383 C 203.61915 156.51237 198.65734 155.85026 192.81445 155.51953 C 191.35373 155.43685 190.17038 155.41637 189.18164 155.43359 z "
           transform="translate(0,667.42672)"
           id="ellipse4724" />
      </g>
    </g>
  </g>
</svg>
