<?xml version="1.0" encoding="UTF-8" standalone="no"?>
<!-- Created with Inkscape (http://www.inkscape.org/) -->

<svg
   xmlns:dc="http://purl.org/dc/elements/1.1/"
   xmlns:cc="http://creativecommons.org/ns#"
   xmlns:rdf="http://www.w3.org/1999/02/22-rdf-syntax-ns#"
   xmlns:svg="http://www.w3.org/2000/svg"
   xmlns="http://www.w3.org/2000/svg"
   xmlns:sodipodi="http://sodipodi.sourceforge.net/DTD/sodipodi-0.dtd"
   xmlns:inkscape="http://www.inkscape.org/namespaces/inkscape"
   width="256"
   height="256"
   viewBox="0 0 256 256"
   id="svg4466"
   version="1.1"
   inkscape:version="0.91 r13725"
   sodipodi:docname="mudge.svg"
   inkscape:export-filename="C:\Prog\Projets\teeworlds\skins\mudge.png"
   inkscape:export-xdpi="90"
   inkscape:export-ydpi="90">
  <defs
     id="defs4468" />
  <sodipodi:namedview
     id="base"
     pagecolor="#ffffff"
     bordercolor="#666666"
     borderopacity="1.0"
     inkscape:pageopacity="0.0"
     inkscape:pageshadow="2"
     inkscape:zoom="3.2070312"
     inkscape:cx="92.103122"
     inkscape:cy="237.87049"
     inkscape:document-units="px"
     inkscape:current-layer="layer1-5"
     showgrid="false"
     units="px"
     inkscape:window-width="1920"
     inkscape:window-height="1018"
     inkscape:window-x="-8"
     inkscape:window-y="-8"
     inkscape:window-maximized="1" />
  <metadata
     id="metadata4471">
    <rdf:RDF>
      <cc:Work
         rdf:about="">
        <dc:format>image/svg+xml</dc:format>
        <dc:type
           rdf:resource="http://purl.org/dc/dcmitype/StillImage" />
        <dc:title />
      </cc:Work>
    </rdf:RDF>
  </metadata>
  <g
     inkscape:label="Calque 1"
     inkscape:groupmode="layer"
     id="layer1"
     transform="translate(0,-796.36219)">
    <path
       style="fill:#000000;fill-opacity:0.50196078;fill-rule:evenodd;stroke:none;stroke-width:1px;stroke-linecap:butt;stroke-linejoin:miter;stroke-opacity:1"
       d="m 88.347656,163.26367 c 1.041163,2.31463 7.972687,18.08887 6.13086,25.04688 -1.984377,7.49654 -3.087671,15.32448 -4.851563,16.53711 -1.763891,1.2127 -2.424045,4.40891 -2.644531,5.07031 -0.220487,0.6615 -1.763889,4.63126 -1.984375,5.07226 -0.220486,0.441 -0.662109,2.86524 -0.662109,2.86524 0,0 -10.802936,6.39453 -22.929688,6.39453 -8.251399,0 -15.294372,-1.87111 -19.007812,-3.07812 6.409461,4.8739 14.233115,7.52544 22.285156,7.55273 7.936859,-0.0148 15.658902,-2.57965 22.027344,-7.31641 0.0064,-0.087 0.0054,-0.16815 0.0078,-0.25195 0.06157,-0.1699 0.362198,-1.08593 -0.07617,-1.86523 -0.48293,-0.8586 -0.91097,-1.39517 -0.75,-2.03907 0.16098,-0.6439 0.428162,-1.82289 0.857422,-2.46679 0.42927,-0.6439 0.858765,-1.77103 1.234375,-2.36133 0.3756,-0.5902 0.322195,-1.1272 1.234375,-1.3418 0.9122,-0.2146 0.804789,-0.26724 0.912109,-0.96484 0.10731,-0.6975 0.0531,-1.1272 0.375,-1.3418 0.32195,-0.2146 0.860007,-0.42981 1.503907,-0.53711 0.6439,-0.1073 0.695933,-0.10684 1.339843,-0.58984 0.64389,-0.4828 1.395977,-1.12819 1.878907,-1.39649 0.48292,-0.2682 0.696971,-0.58984 1.394531,-0.58984 0.69756,0 0.805207,6e-4 1.341797,-0.375 0.51615,-0.3613 0.753787,-0.50578 0.773437,-0.51758 0.21096,0.055 0.466615,0.12231 0.490235,0.12891 0.183456,-0.5176 0.355373,-1.03921 0.515625,-1.56446 1.271829,-3.74777 1.934539,-7.67522 1.962889,-11.63281 -0.0111,-6.4648 -1.714705,-12.81403 -4.941405,-18.41601 -2.158662,-3.35861 -4.206448,-5.54105 -6.345703,-8.16797 -0.667306,-0.64357 -1.358548,-1.26184 -2.072266,-1.85352 z"
       transform="translate(0,796.36219)"
       id="path5517"
       inkscape:connector-curvature="0"
       sodipodi:nodetypes="csccscsccccccscsscsccssccccccc" />
    <g
       transform="matrix(0.68833528,0,0,0.68833528,144.91299,173.78996)"
       id="layer1-5"
       inkscape:label="Calque 1">
      <path
         inkscape:connector-curvature="0"
         id="path4459"
         d="m 100.24848,1040.1234 c 0,0 0.62363,-1.559 -0.078,-2.8063 -0.70158,-1.2473 -1.325209,-2.0268 -1.091348,-2.9622 0.233861,-0.9355 0.62363,-2.6505 1.247258,-3.5859 0.62363,-0.9355 1.24726,-2.5725 1.79294,-3.43 0.54567,-0.8575 0.46772,-1.637 1.79293,-1.9488 1.32522,-0.3118 1.16931,-0.3898 1.32522,-1.4032 0.1559,-1.0134 0.078,-1.637 0.54567,-1.9488 0.46772,-0.3118 1.24726,-0.6237 2.18271,-0.7796 0.93544,-0.1559 1.01339,-0.1559 1.94884,-0.8575 0.93544,-0.7015 2.02679,-1.637 2.72838,-2.0268 0.70158,-0.3897 1.0134,-0.8575 2.02679,-0.8575 1.0134,0 1.16931,0 1.94885,-0.5456 0.77953,-0.5457 1.1693,-0.7796 1.1693,-0.7796 l -0.93544,-3.8977 c 0,0 -8.80877,-0.4677 -11.22534,-0.5456 -2.41656,-0.078 -11.6151,3.5858 -11.771007,4.0536 -0.155908,0.4677 -1.325213,4.4433 -1.637028,5.6126 -0.311815,1.1693 0.155907,18.7869 0.155907,18.7869"
         style="fill:#3b0f0f;fill-opacity:1;fill-rule:evenodd;stroke:none;stroke-width:1px;stroke-linecap:butt;stroke-linejoin:miter;stroke-opacity:1" />
      <path
         style="fill:#156507;fill-opacity:1;fill-rule:evenodd;stroke:none;stroke-width:1px;stroke-linecap:butt;stroke-linejoin:miter;stroke-opacity:1"
         d="m 25.049533,944.34793 c 0,0 -2.207701,-2.33593 -5.052799,0.37899 -2.845099,2.71492 -4.239654,6.63435 -4.239654,6.63435 0,0 4.977794,1.3308 7.414009,-0.16523 2.436222,-1.49603 2.916608,-5.72212 2.916608,-5.72212"
         id="path4375"
         inkscape:connector-curvature="0" />
      <path
         inkscape:connector-curvature="0"
         id="path4364"
         d="m 16.166078,932.95298 c 0,0 -3.234792,-2.32145 -6.2430363,-0.57287 -3.008242,1.74856 -3.958042,4.74894 -3.958042,4.74894 0,0 6.4957743,1.97533 9.2396703,1.1642 2.743889,-0.81114 2.48813,-4.22583 2.48813,-4.22583"
         style="fill:#156507;fill-opacity:1;fill-rule:evenodd;stroke:none;stroke-width:1px;stroke-linecap:butt;stroke-linejoin:miter;stroke-opacity:1" />
      <rect
         transform="matrix(0.77225935,-0.63530741,0.63530741,0.77225935,0,0)"
         style="opacity:1;fill:#5e6060;fill-opacity:1;stroke:none;stroke-width:8;stroke-linecap:round;stroke-linejoin:round;stroke-miterlimit:4;stroke-dasharray:none;stroke-opacity:1"
         id="rect4256"
         width="13.112507"
         height="5.426887"
         x="-535.07251"
         y="792.82886"
         ry="2.7134435" />
      <rect
         ry="2.6820862"
         y="965.81952"
         x="-338.08936"
         height="5.3641725"
         width="15.139345"
         id="rect4258"
         style="opacity:1;fill:#5e6060;fill-opacity:1;stroke:none;stroke-width:8;stroke-linecap:round;stroke-linejoin:round;stroke-miterlimit:4;stroke-dasharray:none;stroke-opacity:1"
         transform="matrix(0.93990405,-0.34143868,0.34143868,0.93990405,0,0)" />
      <rect
         ry="2.7134435"
         y="812.54987"
         x="-530.88239"
         height="5.426887"
         width="13.112507"
         id="rect4252"
         style="opacity:1;fill:#5e6060;fill-opacity:1;stroke:none;stroke-width:8;stroke-linecap:round;stroke-linejoin:round;stroke-miterlimit:4;stroke-dasharray:none;stroke-opacity:1"
         transform="matrix(0.77225935,-0.63530741,0.63530741,0.77225935,0,0)" />
      <path
         inkscape:connector-curvature="0"
         id="path4294"
         d="m 111.02713,960.83353 -2.69141,2.21484 c -0.61197,0.50344 -0.93803,1.21503 -0.97851,1.94531 l 2.3418,1.03906 c 0,0 0.6054,-2.8064 0.5664,-3.58593 -0.0326,-0.6527 0.54472,-1.36035 0.76172,-1.61328 z"
         style="fill:#313132;fill-opacity:1;fill-rule:evenodd;stroke:none;stroke-width:1px;stroke-linecap:butt;stroke-linejoin:miter;stroke-opacity:1" />
      <path
         id="path4136"
         transform="translate(0,924.36216)"
         d="M 68.267578,19.082031 A 53.788063,53.788063 0 0 0 14.478516,72.871094 53.788063,53.788063 0 0 0 68.267578,126.6582 53.788063,53.788063 0 0 0 100.26758,116.0293 c 0.0642,-0.86436 0.005,-1.65899 -0.386721,-1.91992 -0.992189,-0.6614 -2.316406,-1.43308 -2.316406,-1.98438 0,-0.5512 0.331814,-1.10267 0.111328,-3.19727 -0.220486,-2.0946 -1.543838,-3.41662 -0.441406,-4.07812 1.102432,-0.6615 1.322266,-2.86719 1.322266,-2.86719 0,0 1.433371,-1.21227 2.205079,-1.54297 0.7717,-0.3308 1.98437,-3.087888 1.98437,-3.087888 l 2.64649,-3.416015 c 0,0 -1.76303,-1.544313 0.88281,-0.882813 2.64583,0.6614 3.63672,0.771485 3.63672,0.771485 0,0 0.33094,-4.519138 2.20508,-3.085938 1.87413,1.4331 3.52778,0.771485 3.96875,0.771485 0.429,0 2.26689,0.506841 2.36914,0.535156 A 53.788063,53.788063 0 0 0 122.05469,72.871094 53.788063,53.788063 0 0 0 68.267578,19.082031 Z"
         style="opacity:1;fill:#8f9770;fill-opacity:1;stroke:none;stroke-width:8;stroke-linecap:round;stroke-linejoin:round;stroke-miterlimit:4;stroke-dasharray:none;stroke-opacity:1"
         inkscape:connector-curvature="0" />
      <path
         id="path4404"
         transform="translate(0,924.36216)"
         d="m 47.435547,23.337891 a 53.788063,53.788063 0 0 0 -32.957031,49.533203 53.788063,53.788063 0 0 0 3.669922,19.521484 9.5883074,9.3544455 0 0 0 2.666015,0.373047 9.5883074,9.3544455 0 0 0 8.255859,-4.621094 21.671133,22.918392 0 0 0 3.046876,0.25586 21.671133,22.918392 0 0 0 1.427734,-0.05469 14.499391,16.448235 0 0 0 14.474609,15.644529 14.499391,16.448235 0 0 0 14.5,-16.447263 14.499391,16.448235 0 0 0 -0.287109,-3.177735 10.211937,10.523751 0 0 0 7.068359,2.94336 10.211937,10.523751 0 0 0 10.212891,-10.523438 10.211937,10.523751 0 0 0 -0.132813,-1.636718 5.3788061,6.8599267 0 0 0 2.470703,-5.769532 5.3788061,6.8599267 0 0 0 -0.0918,-1.248047 A 15.434835,14.577345 0 0 0 91.361328,54.646484 15.434835,14.577345 0 0 0 76.982422,40.117188 14.343484,14.811206 0 0 0 62.673828,26.347656 14.343484,14.811206 0 0 0 55.994141,28.0625 16.526188,15.278928 0 0 0 47.435547,23.337891 Z"
         style="opacity:1;fill:#717d41;fill-opacity:1;stroke:none;stroke-width:1;stroke-linecap:round;stroke-linejoin:round;stroke-miterlimit:4;stroke-dasharray:none;stroke-opacity:1"
         inkscape:connector-curvature="0" />
      <path
         inkscape:connector-curvature="0"
         id="path4225"
         d="m 56.251827,972.27933 c -3.420996,2.1855 -4.416808,6.69814 -2.231298,10.11904 2.18551,3.4209 6.699705,4.4157 10.120701,2.2302 l 10.510819,-6.71484 c 3.420995,-2.1855 4.415764,-6.6997 2.230254,-10.1207 -2.185511,-3.421 -6.698662,-4.4142 -10.119657,-2.2286 l -10.510819,6.7149 z m 2.221828,3.4778 10.510819,-6.7149 c 1.554153,-0.9928 3.42817,-0.5799 4.421085,0.9743 0.99286,1.5541 0.57987,3.4281 -0.974283,4.421 l -10.510819,6.71484 c -1.554154,0.9929 -3.42817,0.5799 -4.421031,-0.9742 -0.992914,-1.5541 -0.579924,-3.42814 0.974229,-4.42104 z"
         style="opacity:1;fill:#000000;fill-opacity:1;stroke:none;stroke-width:8;stroke-linecap:round;stroke-linejoin:round;stroke-miterlimit:4;stroke-dasharray:none;stroke-opacity:1" />
      <path
         inkscape:connector-curvature="0"
         id="path4191"
         d="m 106.90213,959.81399 -5.13281,3.86719 c -2.437758,1.83625 -3.179339,4.99714 -2.283203,7.76953 l -5.617187,4.61914 c -2.37399,-0.80838 -5.095027,-0.37878 -7.140626,1.38282 l -9.451171,8.13867 c -2.189371,1.88532 -2.986713,4.76149 -2.314453,7.37305 l -7.660157,5.74218 c -2.177081,-0.98245 -4.787297,-0.87963 -6.958984,0.50782 l -10.509766,6.71481 c -2.357842,1.5063 -3.564903,4.117 -3.371093,6.7149 l -4.949219,2.3457 c -1.82951,-2.0163 -4.704998,-2.9269 -7.5,-2.0996 l -11.960938,3.539 c -1.25875,0.3726 -2.335945,1.0529 -3.185547,1.9297 a 53.788063,53.788063 0 0 0 2.123047,4.418 c 0.21759,-1.1106 1.016111,-2.0281 2.234375,-2.3887 l 11.958985,-3.541 c 0.442097,-0.1308 0.87998,-0.1708 1.294921,-0.1309 0.313317,0.03 0.607736,0.12 0.888672,0.2383 l -1.814453,0.8613 c -1.433134,0.6795 -2.040732,2.3794 -1.361328,3.8125 0.408113,0.8609 1.186948,1.4172 2.052735,1.5821 l -11.203126,3.3164 c -0.646775,0.1914 -1.281512,0.1846 -1.853515,0.019 a 53.788063,53.788063 0 0 0 2.84375,3.9785 c 0.05986,-0.016 0.119899,-0.025 0.179687,-0.043 l 11.960938,-3.5391 c 3.023543,-0.8949 5.021271,-3.5468 5.226562,-6.5098 l 5.689454,-2.6972 c 2.386704,1.9945 5.86766,2.3087 8.634765,0.541 l 10.509766,-6.7149 c 2.925554,-1.8689 4.069377,-5.4392 2.974609,-8.5742 l 7.275391,-5.4531 c 2.61049,1.46578 5.95113,1.23423 8.357422,-0.83789 l 9.451171,-8.13867 c 2.546104,-2.19252 3.214392,-5.72734 1.869141,-8.625 l 5.023435,-4.13282 c 2.51109,1.24258 5.62318,0.89693 8.05078,-0.93164 l 4.2832,-3.22851 a 53.788063,53.788063 0 0 0 -2.07617,-3.58985 l -4.87109,3.66992 c -0.57054,0.48273 -1.22425,0.73143 -1.87891,0.77735 0.41279,-0.95084 0.29995,-2.08688 -0.40625,-2.94531 -0.74413,-0.90455 -1.9184,-1.23115 -2.9746,-0.9336 0.13474,-0.67904 0.49628,-1.315 1.12304,-1.78711 l 5.19531,-3.91211 a 53.788063,53.788063 0 0 0 -2.72656,-3.10547 z m -18.099607,21.29883 c -0.148893,0.79962 0.03228,1.6558 0.591797,2.33594 1.00487,1.22149 2.798044,1.3955 4.019531,0.39063 l 1.316407,-1.08204 c 0.08671,0.97042 -0.290684,1.95032 -1.13086,2.67383 l -9.451172,8.13867 c -0.3994,0.34395 -0.841781,0.56526 -1.296875,0.69141 l 0.341797,-0.25586 c 1.278642,-0.9583 1.536428,-2.76042 0.578125,-4.03906 -0.958302,-1.27864 -2.758467,-1.53643 -4.037109,-0.57813 l -0.621094,0.46485 c 0.192631,-0.41394 0.472229,-0.80306 0.857422,-1.13477 l 8.832031,-7.60547 z m -25.634765,21.26958 c -0.328963,0.8869 -0.219335,1.9159 0.392578,2.7324 0.933044,1.2449 2.662773,1.5133 3.933594,0.6426 -0.09715,0.9135 -0.598732,1.7655 -1.482422,2.33 l -10.509766,6.7149 c -0.513495,0.328 -1.061552,0.4869 -1.601562,0.5176 0.939551,-0.822 1.269461,-2.1828 0.707031,-3.3692 -0.650852,-1.3729 -2.236635,-1.9758 -3.628907,-1.4277 0.253978,-0.4287 0.605712,-0.8166 1.076172,-1.1172 l 10.511719,-6.7149 c 0.196153,-0.1253 0.397634,-0.2275 0.601563,-0.3085 z"
         style="opacity:1;fill:#43482f;fill-opacity:1;stroke:none;stroke-width:8;stroke-linecap:round;stroke-linejoin:round;stroke-miterlimit:4;stroke-dasharray:none;stroke-opacity:1" />
      <path
         style="opacity:1;fill:#5e6060;fill-opacity:1;stroke:none;stroke-width:8;stroke-linecap:round;stroke-linejoin:round;stroke-miterlimit:4;stroke-dasharray:none;stroke-opacity:1"
         d="m 20.130672,1015.3923 c -3.892613,1.1521 -6.099793,5.212 -4.947748,9.1047 1.152072,3.8925 5.21388,6.0991 9.106493,4.9471 l 11.959857,-3.5396 c 3.892612,-1.1521 6.099233,-5.2139 4.947188,-9.1065 -1.152046,-3.8926 -5.213294,-6.0975 -9.105934,-4.9453 l -11.959856,3.5396 z m 1.171202,3.9573 11.959857,-3.5397 c 1.768389,-0.5233 3.454624,0.3927 3.978023,2.1612 0.523375,1.7683 -0.392696,3.4545 -2.161112,3.9779 l -11.959857,3.5397 c -1.768417,0.5234 -3.454624,-0.3927 -3.977999,-2.1611 -0.523399,-1.7684 0.392672,-3.4546 2.161088,-3.978 z"
         id="path4147"
         inkscape:connector-curvature="0" />
      <path
         inkscape:connector-curvature="0"
         id="path4319"
         d="m 19.818148,1020.482 -0.05664,0.019 c 0,0 0.09504,0.1422 0.220703,0.3457 a 53.788063,53.788063 0 0 1 -0.164063,-0.3652 z m 0.806641,1.6601 c 0.138223,0.3613 0.249489,0.7329 0.265625,1.0879 0.05512,1.2126 -0.523438,2.6465 -0.523438,2.6465 l 0.0098,0 1.978516,-0.7187 a 53.788063,53.788063 0 0 1 -1.730469,-3.0176 z"
         style="fill:#313132;fill-opacity:1;fill-rule:evenodd;stroke:none;stroke-width:1px;stroke-linecap:butt;stroke-linejoin:miter;stroke-opacity:1" />
      <path
         inkscape:connector-curvature="0"
         id="path4151"
         d="m 48.300548,1003.0199 c -3.420996,2.1855 -4.416808,6.6981 -2.231298,10.119 2.18551,3.4209 6.699705,4.4157 10.120701,2.2302 l 10.510819,-6.7148 c 3.420995,-2.1855 4.415764,-6.6997 2.230254,-10.12071 -2.185511,-3.421 -6.698662,-4.4142 -10.119657,-2.2286 l -10.510819,6.71491 z m 2.221828,3.4778 10.510819,-6.71491 c 1.554153,-0.9928 3.42817,-0.5799 4.421085,0.97431 0.99286,1.5541 0.57987,3.4281 -0.974283,4.421 l -10.510819,6.7148 c -1.554154,0.9929 -3.42817,0.5799 -4.421031,-0.9742 -0.992914,-1.5541 -0.579924,-3.4281 0.974229,-4.421 z"
         style="opacity:1;fill:#5e6060;fill-opacity:1;stroke:none;stroke-width:8;stroke-linecap:round;stroke-linejoin:round;stroke-miterlimit:4;stroke-dasharray:none;stroke-opacity:1" />
      <path
         inkscape:connector-curvature="0"
         id="rect4227"
         d="m 90.324008,948.22806 c -0.03519,0.0292 -0.07262,0.054 -0.107422,0.084 l -6.363282,4.72266 c -2.341127,1.73669 -3.075953,4.71861 -2.328124,7.40234 l -6.857422,5.13867 c -2.331066,-1.50073 -5.406735,-1.60735 -7.904297,-0.0117 l -10.511719,6.71485 c -2.404658,1.53621 -3.60405,4.22264 -3.349609,6.87109 l -12.556641,5.95313 c -1.443864,0.68449 -2.055584,2.39793 -1.371094,3.84179 0.684491,1.44387 2.397934,2.05559 3.841797,1.3711 l 12.861328,-6.09766 c 2.380017,1.87155 5.76015,2.1368 8.462891,0.41016 l 10.511719,-6.71485 c 2.612153,-1.66877 3.804626,-4.69387 3.251953,-7.55468 l 7.177734,-5.38086 c 2.561064,1.38354 5.798882,1.04074 8.333984,-0.83985 l 6.363282,-4.7207 c 1.319624,-0.97892 2.122154,-2.35657 2.445314,-3.85156 a 53.788063,53.788063 0 0 0 -4.400392,-3.22656 c 0.766552,1.33537 0.55598,2.99251 -0.736328,3.95117 l -6.365235,4.72265 c -0.370299,0.2747 -0.761502,0.47832 -1.160156,0.60743 l 0.439453,-0.33008 c 1.278642,-0.95831 1.536428,-2.75847 0.578125,-4.03711 -0.958303,-1.27864 -2.758467,-1.53643 -4.037109,-0.57813 l -0.94336,0.70703 c 0.191838,-0.46139 0.494462,-0.88625 0.945313,-1.2207 l 6.365234,-4.72266 c 0.642955,-0.55362 1.39468,-0.80813 2.136719,-0.80078 a 53.788063,53.788063 0 0 0 -4.722656,-2.41015 z m -19.529297,20.27539 c -1.134493,0.98474 -1.339464,2.67477 -0.423828,3.89648 0.732311,0.97711 1.955174,1.35306 3.0625,1.05078 -0.248643,0.37691 -0.578644,0.71589 -1.001953,0.98633 l -10.511719,6.71485 c -0.274685,0.17548 -0.559619,0.29174 -0.847657,0.38085 0.957178,-0.82671 1.293977,-2.20522 0.72461,-3.40625 -0.684491,-1.44386 -2.397933,-2.05558 -3.841797,-1.37109 l -0.671875,0.31836 c 0.253097,-0.51088 0.648339,-0.96946 1.191406,-1.31641 l 10.509766,-6.71484 c 0.579736,-0.37034 1.20413,-0.5462 1.810547,-0.53906 z"
         style="opacity:1;fill:#3d412b;fill-opacity:1;stroke:none;stroke-width:8;stroke-linecap:round;stroke-linejoin:round;stroke-miterlimit:4;stroke-dasharray:none;stroke-opacity:1" />
      <path
         style="opacity:1;fill:#5e6060;fill-opacity:1;stroke:none;stroke-width:8;stroke-linecap:round;stroke-linejoin:round;stroke-miterlimit:4;stroke-dasharray:none;stroke-opacity:1"
         d="m 75.901288,983.77445 c -3.076147,2.64895 -3.421353,7.25721 -0.772394,10.33334 2.648949,3.07605 7.258641,3.42003 10.334787,0.77108 l 9.451281,-8.13881 c 3.076146,-2.64895 3.420093,-7.25865 0.77113,-10.3348 -2.648963,-3.07615 -7.257395,-3.41869 -10.333526,-0.76964 l -9.451278,8.13883 z m 2.692975,3.12722 9.451278,-8.13883 c 1.397498,-1.20334 3.311148,-1.06062 4.514615,0.3369 1.203398,1.39744 1.060587,3.31109 -0.336897,4.51453 l -9.451281,8.13881 c -1.397485,1.20345 -3.311149,1.06063 -4.514548,-0.33681 -1.203462,-1.39751 -1.060651,-3.31115 0.336833,-4.5146 z"
         id="path4155"
         inkscape:connector-curvature="0" />
      <path
         inkscape:connector-curvature="0"
         id="path4166"
         d="m 27.751221,982.32104 c -3.892613,1.1521 -6.099793,5.212 -4.947748,9.1047 1.152072,3.8925 5.21388,6.0991 9.106493,4.9471 l 11.959857,-3.5396 c 3.892612,-1.1521 6.099233,-5.2139 4.947188,-9.1065 -1.152046,-3.8926 -5.213294,-6.0975 -9.105934,-4.9453 l -11.959856,3.5396 z m 1.171202,3.9573 11.959857,-3.5397 c 1.768389,-0.5233 3.454624,0.3927 3.978023,2.1612 0.523375,1.7683 -0.392696,3.4545 -2.161112,3.9779 l -11.959857,3.5397 c -1.768417,0.5234 -3.454624,-0.3927 -3.977999,-2.1611 -0.523399,-1.7684 0.392672,-3.4546 2.161088,-3.978 z"
         style="opacity:1;fill:#6e5b5b;fill-opacity:1;stroke:none;stroke-width:8;stroke-linecap:round;stroke-linejoin:round;stroke-miterlimit:4;stroke-dasharray:none;stroke-opacity:1" />
      <path
         style="opacity:1;fill:#5e6060;fill-opacity:1;stroke:none;stroke-width:8;stroke-linecap:round;stroke-linejoin:round;stroke-miterlimit:4;stroke-dasharray:none;stroke-opacity:1"
         d="m 56.251827,970.27933 c -3.420996,2.1855 -4.416808,6.69814 -2.231298,10.11904 2.18551,3.4209 6.699705,4.4157 10.120701,2.2302 l 10.510819,-6.71484 c 3.420995,-2.1855 4.415764,-6.6997 2.230254,-10.1207 -2.185511,-3.421 -6.698662,-4.4142 -10.119657,-2.2286 l -10.510819,6.7149 z m 2.221828,3.4778 10.510819,-6.7149 c 1.554153,-0.9928 3.42817,-0.5799 4.421085,0.9743 0.99286,1.5541 0.57987,3.4281 -0.974283,4.421 l -10.510819,6.71484 c -1.554154,0.9929 -3.42817,0.5799 -4.421031,-0.9742 -0.992914,-1.5541 -0.579924,-3.42814 0.974229,-4.42104 z"
         id="path4170"
         inkscape:connector-curvature="0" />
      <path
         sodipodi:nodetypes="ssssscsscsssss"
         inkscape:connector-curvature="0"
         id="path4174"
         d="m 83.852567,951.03389 c -3.260364,2.4186 -3.421353,7.25721 -0.772394,10.33334 2.648949,3.07605 7.074418,3.18968 10.334787,0.77108 l 6.364471,-4.72127 c 3.260369,-2.41859 3.420089,-7.25865 0.771129,-10.3348 -2.648962,-3.07615 -7.257394,-3.41869 -10.333525,-0.76964 z m 2.692975,3.12722 6.364468,-4.72129 c 1.397498,-1.20334 3.311148,-1.06062 4.514615,0.3369 1.203398,1.39744 1.144295,3.41576 -0.336897,4.51453 l -6.364471,4.72127 c -1.481197,1.09878 -3.311149,1.06063 -4.514548,-0.33681 -1.203462,-1.39751 -1.144361,-3.41582 0.336833,-4.5146 z"
         style="opacity:1;fill:#5e6060;fill-opacity:1;stroke:none;stroke-width:8;stroke-linecap:round;stroke-linejoin:round;stroke-miterlimit:4;stroke-dasharray:none;stroke-opacity:1" />
      <path
         inkscape:connector-curvature="0"
         id="path4332"
         d="m 76.370883,966.15189 -2.949219,1.89453 c 0.634268,1.01306 0.665904,2.1525 0.185547,3.09961 l 0.0078,0.0215 c 0,0 1.239149,-1.18533 1.625,-1.46094 0.385851,-0.27561 1.84809,-0.79795 2.289063,-0.66015 0.160695,0.0502 0.333476,0.15303 0.496094,0.26172 -0.06126,-1.03228 -0.345984,-2.06277 -0.863282,-3.0254 l -0.791015,-0.13085 z"
         style="fill:#313132;fill-opacity:1;fill-rule:evenodd;stroke:none;stroke-width:1px;stroke-linecap:butt;stroke-linejoin:miter;stroke-opacity:1" />
      <path
         inkscape:connector-curvature="0"
         id="path4337"
         d="m 84.622836,957.43899 c -0.117464,10e-4 -0.19439,0.0127 -0.21875,0.0371 -0.152889,0.15289 -1.543215,1.70465 -2.263672,2.50782 0.259653,0.48734 0.56924,0.9529 0.939453,1.38281 0.974716,1.13187 2.190769,1.85984 3.5,2.21094 -0.140188,-0.46638 -0.247031,-1.0364 -0.111328,-1.46289 0.26222,-0.82412 2.072647,-2.23433 2.21875,-2.34766 -0.909094,0.0426 -1.79498,-0.29805 -2.478516,-1.0918 -0.303245,-0.35214 -0.525649,-0.74406 -0.666015,-1.15039 -0.365831,-0.0454 -0.721303,-0.088 -0.919922,-0.0859 z"
         style="fill:#313132;fill-opacity:1;fill-rule:evenodd;stroke:none;stroke-width:1px;stroke-linecap:butt;stroke-linejoin:miter;stroke-opacity:1" />
      <rect
         ry="2.7226508"
         y="819.74567"
         x="-531.76758"
         height="5.4453015"
         width="23.948427"
         id="rect4239"
         style="opacity:1;fill:#696b6b;fill-opacity:1;stroke:none;stroke-width:8;stroke-linecap:round;stroke-linejoin:round;stroke-miterlimit:4;stroke-dasharray:none;stroke-opacity:1"
         transform="matrix(0.80475554,-0.59360637,0.60584205,0.79558495,0,0)" />
      <path
         sodipodi:nodetypes="ssssscsscscccs"
         inkscape:connector-curvature="0"
         id="path4176"
         d="m 101.17158,962.48825 c -3.242543,2.44245 -3.484472,7.22715 -0.86243,10.32617 2.62203,3.09902 7.08512,3.30354 10.32767,0.86112 l 5.62417,-4.23636 c 3.24256,-2.44243 3.48323,-7.22856 0.86118,-10.32768 -2.62206,-3.09912 -7.22733,-3.48181 -10.32643,-0.85967 z m 2.66561,3.15057 5.62417,-4.23642 c 1.40793,-1.19112 3.32026,-1.03173 4.5115,0.37623 1.19117,1.40788 1.03169,3.32021 -0.37623,4.51143 l -5.62417,4.23635 c -1.40792,1.19122 -3.32027,1.03173 -4.51144,-0.37614 -1.19123,-1.40787 -1.09692,-3.40184 0.37617,-4.51145 z"
         style="opacity:1;fill:#5e6060;fill-opacity:1;stroke:none;stroke-width:8;stroke-linecap:round;stroke-linejoin:round;stroke-miterlimit:4;stroke-dasharray:none;stroke-opacity:1" />
      <path
         inkscape:connector-curvature="0"
         id="path4223"
         d="m 29.655422,981.47579 c 0,0 1.322918,-3.08682 3.086809,-3.19706 1.763892,-0.11024 3.803391,0.4961 3.803391,0.4961 0,0 1.543405,1.21267 2.094621,2.09462 0.551216,0.88194 1.212675,2.09462 2.039499,2.70096 0.826824,0.60633 1.984377,0.82682 2.149742,1.5434 0.165365,0.71658 1.433162,1.87413 1.433162,3.74827 0,1.87413 0.220486,4.29948 -0.05512,4.74046 -0.275608,0.44097 -0.661459,1.04731 -1.322918,1.5434 -0.661459,0.4961 -4.244363,0.55122 -4.244363,0.55122 0,0 -1.929256,-0.66146 -2.315108,-0.88195 -0.385851,-0.22048 -1.212675,-1.15755 -1.708769,-1.5434 -0.496095,-0.38585 -5.071188,-2.37023 -5.071188,-2.37023"
         style="fill:#3b0f0f;fill-opacity:1;fill-rule:evenodd;stroke:none;stroke-width:1px;stroke-linecap:butt;stroke-linejoin:miter;stroke-opacity:1" />
      <path
         inkscape:connector-curvature="0"
         id="path4211"
         d="m 41.898226,978.4761 c -0.721437,-0.009 -1.45763,0.0887 -2.1875,0.30469 l -11.958984,3.54102 c -0.08023,0.0237 -0.155589,0.0558 -0.234375,0.082 -0.605647,1.83427 -1.225428,3.69431 -1.462891,4.1875 -0.182507,0.37905 0.127489,1.29014 0.589844,2.29297 0.14773,-1.2094 0.979643,-2.22139 2.277344,-2.60547 l 11.960937,-3.54102 c 1.768389,-0.5233 3.455117,0.39361 3.978516,2.16211 0.523375,1.7683 -0.393693,3.45512 -2.162109,3.97852 l -11.958985,3.53906 c -0.797807,0.23613 -1.573161,0.16506 -2.238281,-0.13086 0.110826,0.18025 0.28125,0.46289 0.28125,0.46289 0,0 3.106326,1.85075 5.191406,3.01172 l 9.894532,-2.92773 c 3.892611,-1.1521 6.09931,-5.21483 4.947265,-9.10743 -0.936037,-3.16273 -3.791742,-5.21098 -6.917969,-5.25 z"
         style="fill:#641919;fill-opacity:1;fill-rule:evenodd;stroke:none;stroke-width:1px;stroke-linecap:butt;stroke-linejoin:miter;stroke-opacity:1" />
      <path
         inkscape:connector-curvature="0"
         id="path4178"
         d="m 39.687553,996.24837 c 0,0 -0.110243,-3.96875 -2.645837,-4.74046 -2.535594,-0.7717 -3.748269,-2.09462 -3.748269,-2.09462 0,0 0.33073,-0.33073 -1.653648,-1.32292 -1.984377,-0.99218 -2.645837,-0.11024 -1.984377,-1.5434 0.661459,-1.43316 1.874134,-0.88195 2.315107,-2.75608 0.440973,-1.87413 0.881945,-3.41754 0.330729,-4.079 -0.551216,-0.66146 -1.984377,-1.76389 -3.197052,-1.76389 -1.212676,0 -5.51216,0.44097 -6.394106,2.09462 -0.881946,1.65365 -1.763891,7.05557 -2.976566,9.26043 -1.212676,2.20486 -2.204864,0.55122 -1.874135,4.74046 0.33073,4.18924 1.874135,6.94529 5.51216,7.05559 3.638026,0.1102 12.236995,0.3307 12.236995,0.3307"
         style="fill:#717d41;fill-opacity:1;fill-rule:evenodd;stroke:none;stroke-width:1px;stroke-linecap:butt;stroke-linejoin:miter;stroke-opacity:1" />
      <path
         sodipodi:nodetypes="sccssscscscssssccssccccsssscccs"
         inkscape:connector-curvature="0"
         id="path4445"
         transform="translate(0,924.36216)"
         d="m 32.466797,52.703125 c -0.220487,0 -2.314453,1.103516 -2.314453,1.103516 l -0.607422,1.101562 c 0,0 0.274958,0.551208 0.330078,0.992188 0.05512,0.44097 0.220703,0.551207 0.220703,0.992187 0,0.44099 -0.55078,0.496094 -1.046875,0.496094 -0.496094,0 -1.92947,0.717885 -2.205078,0.828125 -0.275608,0.11025 -0.992624,0.495874 1.046875,0.771484 2.039499,0.2756 1.433594,1.763672 1.433594,1.763672 0,0 -1.762587,1.98351 -2.148438,2.09375 -0.385851,0.11024 0.109158,0.497172 0.384766,0.607422 0.275608,0.11024 0.936414,0.660806 1.322265,1.322266 0.385852,0.66146 1.379124,1.985243 1.59961,2.371093 0.220486,0.38585 1.984373,1.818577 2.976562,2.535157 0.992188,0.71658 2.811414,1.54232 3.69336,2.36914 0.29641,0.277887 0.688777,0.440013 1.083984,0.5625 -0.489216,-0.932248 -0.997507,-1.732356 -1.130859,-1.910156 -0.233861,-0.31182 0.311884,0.312801 -0.857422,-1.324219 -1.169305,-1.63703 -1.168242,-1.870335 -2.181641,-2.416015 -1.013398,-0.54568 -2.339842,-1.248047 -2.339844,-1.248047 l -1.324218,-1.169922 -0.3125,-1.324219 0.07422,0.002 c -0.02756,-0.129718 -0.04568,-0.273845 -0.03516,-0.43164 0.03898,-0.58466 -0.155137,-0.895644 0.351563,-1.402344 0.506699,-0.5067 1.479955,-1.053435 1.791769,-2.066835 0.311815,-1.0134 0.235062,-1.32355 0.390969,-2.06411 0.155906,-0.74056 0.03831,-2.222746 0.194215,-2.300696 0.155907,-0.0779 1.597656,-1.246093 1.597656,-1.246093 l 0.796875,-0.257813 c -0.664747,-0.192339 -2.598008,-0.75 -2.785156,-0.75 z"
         style="fill:#4b5036;fill-opacity:1;fill-rule:evenodd;stroke:none;stroke-width:1px;stroke-linecap:butt;stroke-linejoin:miter;stroke-opacity:1" />
      <path
         sodipodi:nodetypes="cccsscsssccssssscccssscccc"
         inkscape:connector-curvature="0"
         id="path4368"
         transform="translate(0,924.36216)"
         d="m 30.089844,63.220703 0.3125,1.324219 1.324218,1.169922 c 10e-7,0 1.326446,0.702367 2.339844,1.248047 1.013399,0.54568 1.012336,0.778985 2.181641,2.416015 1.169306,1.63702 0.623561,1.012399 0.857422,1.324219 0.233861,0.31181 1.637574,2.495617 2.027343,4.054687 0.389765,1.559031 0.3125,3.273982 0.3125,5.300782 10e-7,2.0268 -0.07847,3.274681 -0.234374,5.613281 -0.155908,2.3386 1.247634,3.896328 1.949218,5.611328 0.701583,1.7149 3.117188,9.511717 3.117188,9.511717 0,0 -0.234375,-1.793161 -0.234375,-3.664061 0,-1.8709 -1.246094,-6.938822 -1.246094,-8.419921 0,-1.4811 -0.85869,-6.079447 -0.546875,-7.560547 0.311814,-1.4811 0,-3.975932 0,-5.457032 0,-1.4811 0.625273,-1.481595 1.638672,-2.884765 1.013398,-1.40317 0.544922,-3.898438 0.544922,-3.898438 l -0.492188,-0.349609 c -0.100993,0.04864 -0.209457,0.101842 -0.365234,0.195312 -0.389769,0.23381 -1.637404,0.310547 -1.949219,0.310547 -0.311815,0 -1.833835,-0.132152 -2.457465,-0.521919 -0.62363,-0.38977 -0.788538,-0.340681 -0.944445,-1.509981 -0.155908,-1.16931 0.448673,-1.349248 0.6046,-1.583118 0.113378,-0.170066 0.34389,-0.601211 0.509766,-0.90625 l -2.700737,-1.168185 z"
         style="fill:#3b0f0f;fill-opacity:1;fill-rule:evenodd;stroke:none;stroke-width:1px;stroke-linecap:butt;stroke-linejoin:miter;stroke-opacity:1" />
      <path
         sodipodi:nodetypes="cccccc"
         inkscape:connector-curvature="0"
         id="path4299"
         d="m 50.515414,1011.9097 c -1.615815,0.4738 -3.149058,0.931 -4.390625,1.3066 1.010274,1.5378 2.494622,2.5698 4.134765,3.0313 -0.07673,-0.4131 -0.181897,-0.8901 0.09744,-1.7281 0.687306,-0.9684 1.691525,-1.7057 2.185762,-2.1215 -0.717037,0.082 -1.423991,-0.084 -2.027344,-0.4883 z"
         style="fill:#313132;fill-opacity:1;fill-rule:evenodd;stroke:none;stroke-width:1px;stroke-linecap:butt;stroke-linejoin:miter;stroke-opacity:1" />
      <path
         inkscape:connector-curvature="0"
         id="path4306"
         d="m 38.411898,1015.0835 c -0.227259,0.1136 -1.771782,1.5477 -1.861328,1.6309 0.30207,0.3473 0.543933,0.7641 0.689453,1.2558 0.221252,0.7476 0.170754,1.4748 -0.07813,2.1114 0.131425,-0.057 2.172624,-0.9421 3.041016,-0.9043 0.459747,0.02 0.905533,0.3362 1.234375,0.6406 0.126014,-0.9823 0.05979,-2.0058 -0.240235,-3.0195 -0.153039,-0.5171 -0.360874,-1.0015 -0.609374,-1.4551 -0.982935,-0.1723 -2.034599,-0.3303 -2.175782,-0.2598 z"
         style="fill:#313132;fill-opacity:1;fill-rule:evenodd;stroke:none;stroke-width:1px;stroke-linecap:butt;stroke-linejoin:miter;stroke-opacity:1" />
      <rect
         transform="matrix(0.90360341,-0.42837003,0.42837003,0.90360341,0,0)"
         style="opacity:1;fill:#696b6b;fill-opacity:1;stroke:none;stroke-width:8;stroke-linecap:round;stroke-linejoin:round;stroke-miterlimit:4;stroke-dasharray:none;stroke-opacity:1"
         id="rect4149"
         width="22.593185"
         height="5.7257075"
         x="-406.10669"
         y="931.83942"
         ry="2.8628538" />
      <path
         inkscape:connector-curvature="0"
         id="path4284"
         d="m 78.365023,991.51907 c -1.374477,0.50039 -3.068359,1.14649 -3.068359,1.14649 l -0.4375,1.09375 c 0.08889,0.11644 0.17264,0.23514 0.269531,0.34765 1.070458,1.24306 2.463108,2.03171 3.943359,2.36524 -0.15244,-0.34828 -0.298542,-0.87237 -0.02734,-1.38086 0.331896,-0.62231 1.538294,-1.88381 2.238281,-2.60156 -1.036588,0.21721 -2.11515,-0.1126 -2.917969,-0.97071 z"
         style="fill:#313132;fill-opacity:1;fill-rule:evenodd;stroke:none;stroke-width:1px;stroke-linecap:butt;stroke-linejoin:miter;stroke-opacity:1" />
      <path
         inkscape:connector-curvature="0"
         id="path4289"
         d="m 67.909945,998.23196 -2.453125,2.53124 c 0.712032,1.1187 0.687499,2.3973 0.04297,3.3985 0.798048,-0.5676 2.266526,-1.5352 3.126953,-1.5743 0.45907,-0.021 0.973435,0.06 1.455078,0.1602 0.0524,-1.4369 -0.314466,-2.90638 -1.15039,-4.21486 -0.04018,-0.0629 -0.08717,-0.11843 -0.128907,-0.17968 l -0.892578,-0.1211 z"
         style="fill:#313132;fill-opacity:1;fill-rule:evenodd;stroke:none;stroke-width:1px;stroke-linecap:butt;stroke-linejoin:miter;stroke-opacity:1" />
      <rect
         ry="2.8842874"
         y="837.26727"
         x="-551.66406"
         height="5.7685747"
         width="25.257004"
         id="rect4153"
         style="opacity:1;fill:#696b6b;fill-opacity:1;stroke:#000000;stroke-width:0;stroke-linecap:round;stroke-linejoin:round;stroke-miterlimit:4;stroke-dasharray:none;stroke-opacity:1"
         transform="matrix(0.80020388,-0.59972806,0.59972806,0.80020388,0,0)" />
      <path
         inkscape:connector-curvature="0"
         id="path4274"
         d="m 103.83182,970.51321 c -0.87377,0.54264 -1.92992,1.20539 -2.00586,1.30664 -0.0836,0.11152 -0.6883,0.87913 -1.11523,1.42188 0.94163,0.94891 2.07273,1.57296 3.28125,1.87695 0.0113,-0.27673 0.0662,-1.1056 0.56249,-1.70117 0.55735,-0.66881 2.3703,-2.21488 2.54688,-2.36523 -1.10419,0.47529 -2.33419,0.28676 -3.26953,-0.53907 z"
         style="fill:#313132;fill-opacity:1;fill-rule:evenodd;stroke:none;stroke-width:1px;stroke-linecap:butt;stroke-linejoin:miter;stroke-opacity:1" />
      <path
         inkscape:connector-curvature="0"
         id="path4279"
         d="m 95.86307,976.96439 -2.728516,1.40429 -0.443359,0.91406 c 0.634869,0.83758 0.827388,1.82771 0.570313,2.73829 0.313036,-0.27 1.815213,-1.54883 2.484375,-1.54883 0.617134,0 1.419959,0.51635 1.716797,0.71484 2.4e-5,-1.41385 -0.408257,-2.83146 -1.240235,-4.07031 -0.107037,-0.045 -0.359375,-0.15234 -0.359375,-0.15234 z"
         style="fill:#313132;fill-opacity:1;fill-rule:evenodd;stroke:none;stroke-width:1px;stroke-linecap:butt;stroke-linejoin:miter;stroke-opacity:1" />
      <rect
         transform="matrix(0.77225935,-0.63530741,0.63530741,0.77225935,0,0)"
         style="opacity:1;fill:#696b6b;fill-opacity:1;stroke:none;stroke-width:8;stroke-linecap:round;stroke-linejoin:round;stroke-miterlimit:4;stroke-dasharray:none;stroke-opacity:1"
         id="rect4157"
         width="21.873039"
         height="5.7101321"
         x="-554.67822"
         y="811.88885"
         ry="2.8550661" />
      <path
         inkscape:connector-curvature="0"
         id="path4327"
         d="m 57.109164,977.29837 c -1.225561,0.30021 -2.716797,0.67969 -2.716797,0.67969 0,0 -0.265586,1.34434 -0.447266,2.28711 0.0268,0.0439 0.04834,0.0892 0.07617,0.13281 0.798124,1.24927 1.907568,2.17089 3.160157,2.73633 0.0069,-0.24856 0.03263,-0.5191 0.132812,-0.79102 0.272838,-0.74056 2.884766,-2.61133 2.884766,-2.61133 0,0 -0.02458,-0.0453 -0.02539,-0.0469 -1.042026,0.009 -2.038626,-0.51355 -2.673828,-1.50781 -0.182017,-0.2849 -0.301467,-0.57991 -0.390625,-0.87891 z"
         style="fill:#313132;fill-opacity:1;fill-rule:evenodd;stroke:none;stroke-width:1px;stroke-linecap:butt;stroke-linejoin:miter;stroke-opacity:1" />
      <rect
         ry="2.8842874"
         y="905.61823"
         x="-387.56064"
         height="5.7685747"
         width="25.257004"
         id="rect4168"
         style="opacity:1;fill:#4d4f50;fill-opacity:1;stroke:none;stroke-width:8;stroke-linecap:round;stroke-linejoin:round;stroke-miterlimit:4;stroke-dasharray:none;stroke-opacity:1"
         transform="matrix(0.90360341,-0.42837003,0.42837003,0.90360341,0,0)" />
      <path
         style="fill:#320d0d;fill-rule:evenodd;stroke:none;stroke-width:1px;stroke-linecap:butt;stroke-linejoin:miter;stroke-opacity:1;fill-opacity:1"
         d="M 177.35352 54.144531 L 175.4375 54.65625 C 175.58777 54.863957 175.71317 55.099519 175.79297 55.369141 C 175.99509 56.052027 175.87585 56.712453 175.52539 57.228516 L 175.53516 57.341797 C 175.53516 57.341797 176.11328 57.010198 176.85742 57.203125 C 177.34482 57.32949 177.77742 58.037144 178.03125 58.525391 C 178.70494 57.367857 178.92738 55.951797 178.51562 54.560547 C 178.50168 54.513442 178.47806 54.472161 178.46289 54.425781 C 177.92879 54.292989 177.35352 54.144531 177.35352 54.144531 z "
         transform="matrix(1.4527804,0,0,1.4527804,-210.52675,904.46073)"
         id="path4197" />
      <path
         inkscape:connector-curvature="0"
         id="path4216"
         d="m 49.495883,978.76517 -9.150391,4.33789 c -1.443864,0.68449 -2.055584,2.39793 -1.371094,3.84179 0.684491,1.44387 2.397934,2.05559 3.841797,1.3711 l 9.837891,-4.66406 c -0.09876,-0.13149 -0.171875,-0.24216 -0.171875,-0.29493 0,-0.27284 1.558182,-1.16908 2.259765,-1.67578 0.701584,-0.50669 -0.349609,-0.62304 -0.349609,-0.62304 l -0.742187,0 c -0.545676,0 -0.818185,-0.11795 -0.740235,-0.46875 0.07795,-0.35079 0.818943,-1.32422 0.195313,-1.32422 -0.62363,0 -2.884012,0.46645 -3.429688,0.31054 -0.230312,-0.0658 -0.223778,-0.41339 -0.179687,-0.81054 z"
         style="fill:#641919;fill-opacity:1;fill-rule:evenodd;stroke:none;stroke-width:1px;stroke-linecap:butt;stroke-linejoin:miter;stroke-opacity:1" />
      <path
         inkscape:connector-curvature="0"
         id="rect4260"
         d="m 118.44705,961.40384 c -0.16625,0.35651 -0.40339,0.68566 -0.72851,0.95312 l -2.96875,2.44336 c 0.10332,-0.003 1.32288,-0.0469 1.77148,-0.30859 0.46773,-0.27284 1.67621,-0.70025 1.87109,-1.16797 0.12628,-0.30307 0.17596,-0.91132 0.20313,-1.38672 -0.0506,-0.17769 -0.085,-0.35861 -0.14844,-0.5332 z"
         style="opacity:1;fill:#313132;fill-opacity:1;stroke:none;stroke-width:8;stroke-linecap:round;stroke-linejoin:round;stroke-miterlimit:4;stroke-dasharray:none;stroke-opacity:1" />
      <path
         inkscape:connector-curvature="0"
         id="path4311"
         d="m 21.378695,1025.5132 -0.791015,0.2891 c 0.380107,-0.074 0.771625,-0.1541 1.109374,-0.2071 -0.110304,-0.015 -0.211985,-0.055 -0.318359,-0.082 z m -2.003906,0.7285 -2.679688,0.9746 c 0.316741,0.363 0.654204,0.7044 1.03125,0.9961 0.01735,-0.3639 0.08714,-0.7962 0.38086,-1.041 0.319799,-0.2665 0.817412,-0.6475 1.267578,-0.9297 z"
         style="fill:#313132;fill-opacity:1;fill-rule:evenodd;stroke:none;stroke-width:1px;stroke-linecap:butt;stroke-linejoin:miter;stroke-opacity:1" />
      <path
         inkscape:connector-curvature="0"
         id="path4344"
         d="m 102.01346,949.7261 c -0.0221,0.0194 -0.0376,0.0437 -0.0605,0.0625 l -3.869137,3.1836 c -0.04028,0.10871 -0.08445,0.21622 -0.138672,0.32031 0.02735,-0.0249 0.886573,-0.80817 1.308594,-1 0.401184,-0.37402 0.958785,-1.1684 2.201175,-1.36328 0.41969,0.0478 0.62663,0.17825 0.89648,0.38086 -0.0528,-0.53492 -0.171,-1.06527 -0.33789,-1.58399 z"
         style="fill:#313132;fill-opacity:1;fill-rule:evenodd;stroke:none;stroke-width:1px;stroke-linecap:butt;stroke-linejoin:miter;stroke-opacity:1" />
      <path
         inkscape:connector-curvature="0"
         id="path4379"
         d="m 37.041716,962.78956 c 0,0 0.496094,-1.76389 0.71658,-2.09462 0.220487,-0.33073 0.05512,-0.44097 1.267797,-1.04731 1.212675,-0.60634 4.244363,-2.09462 5.071187,-2.70096 0.826824,-0.60634 2.535594,-1.5434 2.811202,-1.5434 0.275608,0 2.259986,0 2.259986,0 l -0.826824,2.53559 -4.023877,3.74827"
         style="fill:#3b0f0f;fill-opacity:1;fill-rule:evenodd;stroke:none;stroke-width:1px;stroke-linecap:butt;stroke-linejoin:miter;stroke-opacity:1" />
      <path
         inkscape:connector-curvature="0"
         id="path4354"
         d="m 38.91585,964.05736 -1.322918,-9.81165 -3.638026,-5.95313 -1.984377,-2.31511 -23.9227755,5.51216 -0.220486,-2.64584 c 0,0 5.4019175,-2.97656 5.8428895,-2.97656 0.440973,0 5.51216,-0.77171 6.17362,-0.99219 0.661459,-0.22049 6.283862,-2.20487 6.283862,-2.20487 l -1.433162,-3.30729 c 0,0 -4.8507,-2.86632 -5.291673,-3.08681 -0.440973,-0.22049 -6.283863,-1.32292 -6.283863,-1.32292 l 2.315108,-2.31511 4.740457,-1.21267 3.417539,2.97656 6.17362,4.40973 3.748269,3.19706 7.496537,3.74826 c 0,0 -0.551216,2.5356 0.33073,3.74827 0.881945,1.21268 7.276051,7.49654 7.276051,7.49654 l 0,6.83508"
         style="fill:#441f05;fill-opacity:1;fill-rule:evenodd;stroke:none;stroke-width:1px;stroke-linecap:butt;stroke-linejoin:miter;stroke-opacity:1" />
      <path
         inkscape:connector-curvature="0"
         id="path4356"
         d="m 36.380256,967.69538 c 0,0 0.440973,-5.18143 0.992189,-5.18143 0.551216,0 1.984378,-0.33073 3.858512,-0.33073 1.874135,0 2.204864,0.11024 3.307296,-0.7717 1.102432,-0.88195 1.543405,-1.21268 1.874135,-1.98438 0.330729,-0.7717 1.212675,-1.98438 1.212675,-1.98438 l 0.661459,-0.55121 c 0,0 0,-0.7717 1.102432,-0.7717 1.102432,0 0.551216,-0.33073 1.763891,0.11024 1.212675,0.44097 5.401917,0.55121 6.614592,1.10243 1.212676,0.55122 5.071188,3.52778 4.630215,3.96876 -0.440973,0.44097 -9.260429,5.51216 -9.701402,5.73264 -0.440973,0.22049 -12.788211,4.8507 -12.788211,4.8507"
         style="fill:#717d41;fill-opacity:1;fill-rule:evenodd;stroke:none;stroke-width:1px;stroke-linecap:butt;stroke-linejoin:miter;stroke-opacity:1" />
      <path
         id="path4381"
         transform="translate(0,924.36216)"
         d="m 35.140625,23.324219 a 0.85438478,0.82682401 0 0 0 -0.855469,0.826172 0.85438478,0.82682401 0 0 0 0.855469,0.828125 0.85438478,0.82682401 0 0 0 0.853516,-0.828125 0.85438478,0.82682401 0 0 0 -0.853516,-0.826172 z m 3.445313,0.220703 a 0.99218881,0.99218881 0 0 0 -0.992188,0.992187 0.99218881,0.99218881 0 0 0 0.992188,0.992188 0.99218881,0.99218881 0 0 0 0.992187,-0.992188 0.99218881,0.99218881 0 0 0 -0.992187,-0.992187 z m -1.296876,2.755859 a 3.2797353,3.5002217 0 0 0 -1.607421,0.453125 l 1.912109,3.128906 1.292969,9.591797 a 3.7758296,3.9687552 0 0 0 0.607422,0.05469 3.7758296,3.9687552 0 0 0 3.427734,-2.318359 4.0238767,3.169492 0 0 0 1.285156,0.169921 4.0238767,3.169492 0 0 0 3.988281,-2.777343 3.8860729,3.3624177 0 0 0 0.421876,-0.152344 l 0,-1.8125 c 0,0 -3.035412,-2.988694 -5.214844,-5.246094 a 2.1221817,2.3977897 0 0 0 -1.066406,2.017578 2.5631545,2.0394993 0 0 0 -0.361329,-0.02344 2.5631545,2.0394993 0 0 0 -1.408203,0.33789 3.2797353,3.5002217 0 0 0 -3.277344,-3.423828 z"
         style="opacity:1;fill:#240c03;fill-opacity:1;stroke:none;stroke-width:1;stroke-linecap:round;stroke-linejoin:round;stroke-miterlimit:4;stroke-dasharray:none;stroke-opacity:1"
         inkscape:connector-curvature="0" />
      <path
         inkscape:connector-curvature="0"
         id="path4358"
         d="m 36.014616,962.8713 c 0,0 2.416566,-1.0134 3.35201,-1.32522 0.935445,-0.31181 0.62363,-0.62363 2.338612,-0.93544 1.714981,-0.31182 2.338611,-0.85749 3.196102,-1.48112 0.857491,-0.62363 1.48112,-0.85749 2.10475,-1.55908 0.62363,-0.70158 0.935445,-0.93544 1.091352,-1.40316 0.155908,-0.46773 0,-0.38977 0.389769,-0.85749 0.389768,-0.46773 1.48112,-0.93545 1.48112,-0.93545 0,0 -0.311815,2.88429 -1.091352,3.50792 -0.779537,0.62363 -1.169305,1.48112 -1.637028,2.10475 -0.467722,0.62363 -1.325213,2.10475 -2.182704,2.1827 -0.857491,0.0779 -3.040195,0.70159 -4.443361,0.85749 -1.403167,0.15591 -3.196103,0.54568 -3.585871,0.46772 -0.389769,-0.0779 -1.013399,-0.1559 -1.013399,-0.1559"
         style="fill:#3b0f0f;fill-opacity:1;fill-rule:evenodd;stroke:none;stroke-width:1px;stroke-linecap:butt;stroke-linejoin:miter;stroke-opacity:1" />
      <path
         inkscape:connector-curvature="0"
         id="path4360"
         d="m 8.3945465,950.25616 c 0,0 -3.1181486,-0.77953 -4.0535932,3.0402 -0.9354446,3.81973 0,7.87332 0,7.87332 0,0 4.9110841,-1.55907 6.1583427,-4.13154 1.24726,-2.57248 -0.6236286,-6.39221 -0.6236286,-6.39221"
         style="fill:#156507;fill-opacity:1;fill-rule:evenodd;stroke:none;stroke-width:1px;stroke-linecap:butt;stroke-linejoin:miter;stroke-opacity:1" />
      <path
         style="fill:#156507;fill-opacity:1;fill-rule:evenodd;stroke:none;stroke-width:1px;stroke-linecap:butt;stroke-linejoin:miter;stroke-opacity:1"
         d="m 25.945903,933.4218 c 0,0 1.035165,-3.84466 -1.65986,-6.04554 -2.695019,-2.20088 -5.837743,-2.03453 -5.837743,-2.03453 0,0 0.435937,6.77547 2.160451,9.05866 1.724519,2.28318 4.830996,0.84258 4.830996,0.84258"
         id="path4362"
         inkscape:connector-curvature="0" />
      <path
         inkscape:connector-curvature="0"
         id="path4366"
         d="m 37.028015,963.26106 c 0,0 0.233861,2.49452 0.233861,3.27406 0,0.77954 1.169306,-2.1827 1.169306,-2.1827 0,0 1.48112,1.55907 1.169305,2.26065 -0.311815,0.70159 1.403167,-0.62363 1.325213,2.57248 -0.07795,3.1961 0.62363,4.91108 0.935445,5.14494 0.311815,0.23386 2.10475,2.10475 2.10475,2.10475 0,0 -1.403167,-2.49452 -1.403167,-3.66382 0,-1.16931 0.779538,-4.2095 1.013399,-4.91109 0.233861,-0.70158 0.467722,-2.57247 0.467722,-2.57247 0,0 2.182704,-1.0134 2.338611,-1.48112 0.155908,-0.46772 1.013399,-1.71498 1.403167,-1.87089 0.389769,-0.15591 0.935445,-0.46772 1.013399,-1.48112 0.07795,-1.0134 -0.155908,-2.26066 -0.155908,-2.65043 0,-0.38977 0.233861,-0.93544 0.233861,-0.93544"
         style="fill:#3b0f0f;fill-opacity:1;fill-rule:evenodd;stroke:none;stroke-width:1px;stroke-linecap:butt;stroke-linejoin:miter;stroke-opacity:1" />
      <path
         style="fill:#156507;fill-opacity:1;fill-rule:evenodd;stroke:none;stroke-width:1px;stroke-linecap:butt;stroke-linejoin:miter;stroke-opacity:1"
         d="m 13.903855,945.92128 c 0,0 0.365743,-3.19324 -3.543424,-3.62196 -3.9091681,-0.42872 -7.8059253,1.02796 -7.8059253,1.02796 0,0 2.1869293,4.66549 4.9002247,5.56621 2.7133056,0.90071 6.2560706,-1.45288 6.2560706,-1.45288"
         id="path4373"
         inkscape:connector-curvature="0" />
      <ellipse
         ry="3.5829041"
         rx="3.3624177"
         cy="1036.6525"
         cx="42.057781"
         id="path4431"
         style="opacity:1;fill:#717d41;fill-opacity:1;stroke:none;stroke-width:1;stroke-linecap:round;stroke-linejoin:round;stroke-miterlimit:4;stroke-dasharray:none;stroke-opacity:1" />
      <ellipse
         ry="5.2916737"
         rx="5.3467951"
         cy="1022.1555"
         cx="76.233177"
         id="path4433"
         style="opacity:1;fill:#717d41;fill-opacity:1;stroke:none;stroke-width:1;stroke-linecap:round;stroke-linejoin:round;stroke-miterlimit:4;stroke-dasharray:none;stroke-opacity:1" />
      <ellipse
         ry="2.5907152"
         rx="2.7009585"
         cy="1006.4459"
         cx="89.241875"
         id="path4435"
         style="opacity:1;fill:#717d41;fill-opacity:1;stroke:none;stroke-width:1;stroke-linecap:round;stroke-linejoin:round;stroke-miterlimit:4;stroke-dasharray:none;stroke-opacity:1" />
      <ellipse
         ry="6.5594707"
         rx="6.8902001"
         cy="991.56305"
         cx="106.77054"
         id="path4437"
         style="opacity:1;fill:#717d41;fill-opacity:1;stroke:none;stroke-width:1;stroke-linecap:round;stroke-linejoin:round;stroke-miterlimit:4;stroke-dasharray:none;stroke-opacity:1" />
      <circle
         r="1.37804"
         cy="999.8313"
         cx="92.990143"
         id="path4439"
         style="opacity:1;fill:#717d41;fill-opacity:1;stroke:none;stroke-width:1;stroke-linecap:round;stroke-linejoin:round;stroke-miterlimit:4;stroke-dasharray:none;stroke-opacity:1" />
      <ellipse
         ry="2.1497424"
         rx="2.3702288"
         cy="967.97101"
         cx="95.635979"
         id="path4441"
         style="opacity:1;fill:#717d41;fill-opacity:1;stroke:none;stroke-width:1;stroke-linecap:round;stroke-linejoin:round;stroke-miterlimit:4;stroke-dasharray:none;stroke-opacity:1" />
      <ellipse
         ry="3.6931472"
         rx="4.2443633"
         cy="951.76526"
         cx="75.902443"
         id="path4443"
         style="opacity:1;fill:#717d41;fill-opacity:1;stroke:none;stroke-width:1;stroke-linecap:round;stroke-linejoin:round;stroke-miterlimit:4;stroke-dasharray:none;stroke-opacity:1" />
      <path
         id="path4461"
         transform="translate(0,924.36216)"
         d="m 103.44531,87.152344 c -0.38977,0 -0.15625,3.039684 -0.15625,4.208984 0,1.1693 -0.85845,3.273709 -1.32617,4.28711 -0.46772,1.0134 -1.24746,1.091921 -1.87109,1.169921 -0.623633,0.0779 -0.779402,1.324638 -1.714847,3.273441 -0.935444,1.9489 -1.948464,1.24874 -2.494141,1.56054 -0.545675,0.3118 -1.714774,-0.0786 -2.572265,-0.3125 -0.857491,-0.2339 1.480982,3.27429 1.714844,4.52149 0.233861,1.2473 0.07847,2.18204 0.234375,3.27344 0.155907,1.0914 -3.42e-4,0.70177 -0.15625,1.01367 -0.155907,0.3118 0.311916,2.10426 0.935546,3.35156 0.541953,1.08385 3.43369,1.93156 4.234378,2.33984 0.0411,-0.78712 -0.0307,-1.48918 -0.392581,-1.73046 -0.992189,-0.66141 -2.316406,-1.43308 -2.316406,-1.98438 0,-0.5512 0.331814,-1.10267 0.111328,-3.19727 -0.220486,-2.0946 -1.543838,-3.41662 -0.441406,-4.07812 1.102432,-0.6615 1.322266,-2.86719 1.322266,-2.86719 0,0 1.43337,-1.21227 2.205079,-1.54297 0.7717,-0.3308 1.98437,-3.087888 1.98437,-3.087888 l 2.64649,-3.416015 c 0,0 -1.76303,-1.544313 0.88281,-0.882813 2.64583,0.6614 3.63672,0.771485 3.63672,0.771485 0,0 0.33094,-4.519138 2.20508,-3.085938 1.87413,1.4331 3.52778,0.771485 3.96875,0.771485 0.429,0 2.26689,0.506841 2.36914,0.535156 a 53.788063,53.788063 0 0 0 0.74804,-2.273438 c -0.38299,0.04884 -0.58656,0.0659 -0.86914,0.109375 -1.01345,0.1559 -0.93554,-2.261718 -0.93554,-2.261718 0,0 -2.26021,1.949218 -3.35156,1.949218 -1.09137,0 -0.39131,-0.07825 -0.70313,-0.15625 -0.31181,-0.078 -1.71334,-1.169143 -2.80469,-1.714843 -1.09135,-0.5457 -0.70323,1.871715 -1.63867,3.041015 -0.93544,1.1693 -1.40211,0.2331 -2.18164,-0.3125 -0.77954,-0.5457 -2.88367,-3.273437 -3.27344,-3.273437 z"
         style="fill:#4b5036;fill-opacity:1;fill-rule:evenodd;stroke:none;stroke-width:1px;stroke-linecap:butt;stroke-linejoin:miter;stroke-opacity:1"
         inkscape:connector-curvature="0" />
    </g>
    <path
       style="fill:#000000;fill-opacity:1;fill-rule:evenodd;stroke:#000000;stroke-width:8;stroke-linecap:butt;stroke-linejoin:round;stroke-opacity:1;stroke-miterlimit:4;stroke-dasharray:none"
       d="M 30.390625 14.373047 C 30.390625 14.373047 30.551606 16.754929 31.074219 18.689453 L 28.416016 19.369141 C 27.68288 18.974821 26.062382 18.324218 24.523438 19.21875 C 22.452759 20.42235 21.798828 22.486328 21.798828 22.486328 C 21.798828 22.486328 26.269482 23.847392 28.158203 23.289062 C 29.121976 23.004153 29.544229 22.253706 29.730469 21.585938 C 30.381678 21.722805 30.94647 21.849211 31.048828 21.900391 C 31.352365 22.052161 34.691406 24.023438 34.691406 24.023438 L 35.677734 26.300781 C 35.677734 26.300781 34.727561 26.633126 33.96875 26.900391 C 33.341235 26.717298 32.459042 26.760631 31.457031 27.716797 C 31.425043 27.747322 31.398644 27.781548 31.367188 27.8125 C 31.365441 27.813084 31.353219 27.817807 31.351562 27.818359 C 30.914086 27.964177 27.785995 28.441837 27.263672 28.480469 C 27.27856 28.31004 27.401674 26.327589 24.824219 26.044922 C 22.133401 25.749812 19.451172 26.753906 19.451172 26.753906 C 19.451172 26.753906 20.956562 29.963984 22.824219 30.583984 C 22.909602 30.612328 23.000408 30.613463 23.087891 30.632812 L 23.158203 31.484375 C 22.551549 31.443025 21.178061 31.580209 20.679688 33.615234 C 20.035788 36.244484 20.679688 39.035156 20.679688 39.035156 C 20.679688 39.035156 24.06139 37.962126 24.919922 36.191406 C 25.64905 34.687574 24.866955 32.660529 24.603516 32.054688 L 29.111328 31.015625 C 28.752595 31.733991 28.539062 32.283203 28.539062 32.283203 C 28.539062 32.283203 31.965645 33.199692 33.642578 32.169922 C 34.56862 31.60126 35.06191 30.490485 35.337891 29.582031 L 39.699219 28.578125 L 41.064453 30.171875 L 43.230469 33.716797 A 37.024221 37.024221 0 0 0 27.658203 63.859375 A 37.024221 37.024221 0 0 0 28.396484 71.214844 A 37.024221 37.024221 0 0 0 29.355469 74.919922 A 37.024221 37.024221 0 0 0 30.107422 77.074219 C 28.808223 77.977212 28.01613 79.431155 27.960938 81.011719 L 27.685547 81.111328 C 26.724231 81.460545 26.230861 82.5172 26.580078 83.478516 C 26.929295 84.439831 27.983997 84.931248 28.945312 84.582031 L 29.179688 84.498047 C 29.212424 84.53575 29.251388 84.566892 29.285156 84.603516 C 29.39787 84.727596 29.515963 84.846523 29.638672 84.958984 C 29.708645 85.021132 29.776458 85.084562 29.849609 85.142578 C 29.86538 85.155191 29.878557 85.171235 29.894531 85.183594 C 29.894652 85.181052 29.896356 85.178332 29.896484 85.175781 C 31.133583 86.134062 32.790601 86.511132 34.412109 86.03125 L 34.962891 85.867188 A 37.024221 37.024221 0 0 0 35.611328 86.773438 C 35.623057 86.770306 35.634741 86.768232 35.646484 86.765625 A 37.024221 37.024221 0 0 0 64.683594 100.88281 A 37.024221 37.024221 0 0 0 86.710938 93.566406 C 86.717357 93.479976 86.716358 93.397878 86.71875 93.314453 C 86.780315 93.144565 87.080947 92.228515 86.642578 91.449219 C 86.159656 90.590659 85.731603 90.054026 85.892578 89.410156 C 86.053553 88.766216 86.320735 87.587229 86.75 86.943359 C 87.179266 86.299419 87.608764 85.172281 87.984375 84.582031 C 88.359979 83.991781 88.306561 83.454854 89.21875 83.240234 C 90.130945 83.025614 90.023541 82.970997 90.130859 82.273438 C 90.238171 81.575878 90.183945 81.148214 90.505859 80.933594 C 90.827807 80.718974 91.365863 80.503804 92.009766 80.396484 C 92.653663 80.289174 92.70766 80.289571 93.351562 79.806641 C 93.995458 79.323771 94.745587 78.678466 95.228516 78.410156 C 95.711438 78.141906 95.925495 77.820312 96.623047 77.820312 C 97.320606 77.820312 97.428259 77.820862 97.964844 77.445312 C 98.480992 77.083984 98.718629 76.939602 98.738281 76.927734 C 98.949236 76.982843 99.204892 77.050099 99.228516 77.056641 A 37.024221 37.024221 0 0 0 99.744141 75.492188 A 37.024221 37.024221 0 0 0 101.70703 63.859375 A 37.024221 37.024221 0 0 0 96.767578 45.443359 L 97.71875 44.726562 C 99.423466 43.442501 99.913356 41.221099 99.25 39.291016 C 99.240805 39.259311 99.235958 39.226545 99.224609 39.195312 C 99.518164 38.564697 99.451499 37.797599 98.978516 37.222656 C 98.507135 36.649661 97.771174 36.4363 97.097656 36.599609 C 95.290962 35.482489 92.917008 35.575279 91.203125 37.025391 L 90.626953 37.458984 A 37.024221 37.024221 0 0 0 87.695312 34.853516 C 88.087003 34.051146 88.226695 33.143267 88.136719 32.242188 C 88.139528 32.244289 88.141702 32.245923 88.144531 32.248047 C 88.142399 32.226443 88.137205 32.205175 88.134766 32.183594 C 88.1246 32.092259 88.106821 32.003091 88.091797 31.912109 C 88.056247 31.705097 88.009261 31.500036 87.949219 31.296875 C 87.935475 31.249737 87.931099 31.201131 87.916016 31.154297 C 88.669346 30.489819 88.770285 29.35428 88.126953 28.572266 C 87.490031 27.798044 86.372077 27.673185 85.576172 28.263672 C 83.774116 27.231374 81.460871 27.372255 79.792969 28.808594 L 78.701172 29.619141 A 37.024221 37.024221 0 0 0 64.683594 26.833984 A 37.024221 37.024221 0 0 0 46.634766 31.548828 C 46.472748 31.367866 46.219536 31.10362 46.148438 31.005859 C 45.541363 30.171139 45.921875 28.425781 45.921875 28.425781 L 40.761719 25.845703 L 38.181641 23.644531 L 34.900391 21.300781 C 35.067869 21.244308 35.203125 21.189453 35.203125 21.189453 L 35.552734 19.935547 C 35.552734 19.935547 36.265237 17.288377 34.410156 15.773438 C 32.55508 14.258488 30.390625 14.373047 30.390625 14.373047 z M 82.949219 30.414062 L 82.023438 31.173828 A 37.024221 37.024221 0 0 0 81.648438 30.958984 C 82.041973 30.620869 82.494799 30.446684 82.949219 30.414062 z M 94.230469 38.660156 C 94.251327 38.657667 94.272095 38.662009 94.292969 38.660156 L 94.117188 38.802734 C 94.117188 38.802734 94.115234 38.804688 94.115234 38.804688 L 92.851562 39.84375 A 37.024221 37.024221 0 0 0 92.574219 39.546875 L 93.039062 39.195312 C 93.402485 38.887854 93.813881 38.709865 94.230469 38.660156 z M 96.537109 41.648438 C 96.405134 41.983603 96.193884 42.297053 95.884766 42.558594 L 95.279297 43.015625 A 37.024221 37.024221 0 0 0 95.128906 42.806641 L 96.537109 41.648438 z M 31.292969 79.748047 A 37.024221 37.024221 0 0 0 31.314453 79.792969 L 31.226562 79.826172 C 31.247999 79.799432 31.270142 79.773804 31.292969 79.748047 z M 33.091797 83.076172 A 37.024221 37.024221 0 0 0 33.273438 83.373047 C 33.052002 83.406509 32.835216 83.409749 32.626953 83.380859 C 32.551023 83.370559 32.481424 83.342719 32.408203 83.324219 L 33.080078 83.080078 L 33.091797 83.076172 z "
       transform="translate(0,796.36219)"
       id="path5153" />
    <path
       style="fill:none;fill-opacity:1;fill-rule:evenodd;stroke:#000000;stroke-width:2;stroke-linecap:butt;stroke-linejoin:round;stroke-opacity:1;stroke-miterlimit:4;stroke-dasharray:none"
       d="M 157.61133 142.2168 C 157.61133 142.2168 157.77231 144.59868 158.29492 146.5332 L 155.63867 147.21484 C 154.9065 146.82064 153.28449 146.16715 151.74414 147.0625 C 149.67346 148.2661 149.01953 150.33008 149.01953 150.33008 C 149.01953 150.33008 153.49019 151.69114 155.37891 151.13281 C 156.34177 150.84817 156.76465 150.09894 156.95117 149.43164 C 157.60227 149.56849 158.16719 149.69297 158.26953 149.74414 C 158.57307 149.89591 161.91016 151.86914 161.91016 151.86914 L 162.89844 154.14453 C 162.89844 154.14453 161.9474 154.47649 161.1875 154.74414 C 160.56013 154.56192 159.67838 154.60569 158.67773 155.56055 C 158.64575 155.59107 158.61935 155.6253 158.58789 155.65625 C 158.58614 155.65683 158.57392 155.66156 158.57227 155.66211 C 158.1348 155.80793 155.0067 156.28559 154.48438 156.32422 C 154.49926 156.15379 154.62238 154.17329 152.04492 153.89062 C 149.3541 153.59551 146.67187 154.59766 146.67188 154.59766 C 146.67188 154.59766 148.17727 157.80969 150.04492 158.42969 C 150.13031 158.45803 150.22111 158.45917 150.30859 158.47852 L 150.37891 159.32812 C 149.77225 159.28677 148.39876 159.42396 147.90039 161.45898 C 147.25649 164.08823 147.90039 166.87891 147.90039 166.87891 C 147.90039 166.87891 151.28208 165.80588 152.14062 164.03516 C 152.87024 162.53032 152.08709 160.50266 151.82422 159.89844 L 156.33203 158.85938 C 155.9733 159.57774 155.75977 160.12695 155.75977 160.12695 C 155.75977 160.12695 159.18635 161.04344 160.86328 160.01367 C 161.78932 159.44501 162.28261 158.33424 162.55859 157.42578 L 166.91992 156.42188 L 168.28516 158.01562 L 170.45117 161.56055 A 37.024221 37.024221 0 0 0 154.87891 191.70312 A 37.024221 37.024221 0 0 0 157.32617 204.91797 C 156.02722 205.82141 155.23427 207.27664 155.17969 208.85742 L 154.90625 208.95703 C 153.94493 209.30625 153.45156 210.36095 153.80078 211.32227 C 154.15 212.28358 155.2047 212.775 156.16602 212.42578 L 156.39844 212.3418 C 156.42878 212.37677 156.46487 212.4054 156.49609 212.43945 C 156.61395 212.5697 156.73837 212.69301 156.86719 212.81055 C 156.93419 212.8698 156.99845 212.93085 157.06836 212.98633 C 157.08455 212.99929 157.09883 213.01465 157.11523 213.02734 C 157.11536 213.02479 157.11706 213.0221 157.11719 213.01953 C 158.35429 213.9778 160.01131 214.3549 161.63281 213.875 L 162.18359 213.71289 A 37.024221 37.024221 0 0 0 162.83203 214.61914 C 162.84387 214.61598 162.85534 214.61199 162.86719 214.60938 A 37.024221 37.024221 0 0 0 191.9043 228.72656 A 37.024221 37.024221 0 0 0 213.93164 221.41016 C 213.93809 221.32333 213.93708 221.24199 213.93945 221.1582 C 214.00102 220.98832 214.30165 220.0723 213.86328 219.29297 C 213.38035 218.43437 212.95231 217.89781 213.11328 217.25391 C 213.27426 216.61001 213.54144 215.43101 213.9707 214.78711 C 214.39997 214.14321 214.82947 213.01608 215.20508 212.42578 C 215.58068 211.83558 215.52727 211.29858 216.43945 211.08398 C 217.35165 210.86938 217.24424 210.81674 217.35156 210.11914 C 217.45887 209.42164 217.40466 208.99194 217.72656 208.77734 C 218.04851 208.56274 218.58657 208.34753 219.23047 208.24023 C 219.87437 208.13293 219.9264 208.13339 220.57031 207.65039 C 221.2142 207.16759 221.96629 206.52221 222.44922 206.25391 C 222.93214 205.98571 223.14619 205.66406 223.84375 205.66406 C 224.54131 205.66406 224.64896 205.66466 225.18555 205.28906 C 225.7017 204.92776 225.93933 204.78335 225.95898 204.77148 C 226.16994 204.8266 226.4256 204.89385 226.44922 204.90039 A 37.024221 37.024221 0 0 0 226.96484 203.33594 A 37.024221 37.024221 0 0 0 228.92773 191.70312 A 37.024221 37.024221 0 0 0 223.98633 173.28711 L 224.93945 172.57031 C 226.64807 171.28331 227.13701 169.05424 226.4668 167.12109 C 226.45898 167.09493 226.4527 167.0688 226.44336 167.04297 C 226.73885 166.41169 226.67309 165.64243 226.19922 165.06641 C 225.7274 164.49288 224.99043 164.27919 224.31641 164.44336 C 222.50995 163.3275 220.13711 163.42149 218.42383 164.87109 L 217.84961 165.30469 A 37.024221 37.024221 0 0 0 214.91602 162.69922 C 215.3083 161.89646 215.44551 160.98762 215.35547 160.08594 C 215.35876 160.0884 215.36192 160.0893 215.36523 160.0918 C 215.36265 160.06563 215.35655 160.0398 215.35352 160.01367 C 215.34385 159.9289 215.32635 159.84618 215.3125 159.76172 C 215.27698 159.55337 215.23027 159.34704 215.16992 159.14258 C 215.15619 159.09542 215.15179 159.04686 215.13672 159 C 215.89085 158.33563 215.99124 157.19833 215.34766 156.41602 C 214.71073 155.64179 213.59278 155.51693 212.79688 156.10742 C 210.99482 155.07512 208.67962 155.216 207.01172 156.65234 L 205.91992 157.46289 A 37.024221 37.024221 0 0 0 191.9043 154.67773 A 37.024221 37.024221 0 0 0 173.85547 159.39258 C 173.69345 159.21162 173.44024 158.94737 173.36914 158.84961 C 172.76206 158.01489 173.14258 156.26953 173.14258 156.26953 L 167.98242 153.68945 L 165.40234 151.48828 L 162.12109 149.14453 C 162.28857 149.08806 162.42383 149.0332 162.42383 149.0332 L 162.77344 147.7793 C 162.77344 147.7793 163.48594 145.13213 161.63086 143.61719 C 159.77578 142.10224 157.61133 142.2168 157.61133 142.2168 z M 210.16992 158.25781 L 209.24219 159.01953 A 37.024221 37.024221 0 0 0 208.86719 158.80469 C 209.26122 158.4654 209.71468 158.29049 210.16992 158.25781 z M 221.51172 166.50391 L 221.33594 166.64844 L 220.07031 167.68945 A 37.024221 37.024221 0 0 0 219.79297 167.39062 L 220.25977 167.03906 C 220.64082 166.71668 221.07458 166.54311 221.51172 166.50391 z M 223.75781 169.49219 C 223.62584 169.82735 223.41459 170.14276 223.10547 170.4043 L 222.5 170.86133 A 37.024221 37.024221 0 0 0 222.34961 170.65039 L 223.75781 169.49219 z M 158.51367 207.59375 A 37.024221 37.024221 0 0 0 158.53516 207.63867 L 158.44727 207.66992 C 158.46835 207.64366 158.49125 207.61906 158.51367 207.59375 z M 160.31055 210.91992 A 37.024221 37.024221 0 0 0 160.49414 211.21875 C 160.27274 211.2522 160.05589 211.25349 159.84766 211.22461 C 159.77176 211.21461 159.70213 211.18792 159.62891 211.16992 L 159.62891 211.16797 L 160.30078 210.92383 L 160.31055 210.91992 z "
       transform="translate(0,796.36219)"
       id="path5336" />
  </g>
</svg>
