<?xml version="1.0" encoding="UTF-8" standalone="no"?>
<!-- Created with Inkscape (http://www.inkscape.org/) -->

<svg
   xmlns:dc="http://purl.org/dc/elements/1.1/"
   xmlns:cc="http://creativecommons.org/ns#"
   xmlns:rdf="http://www.w3.org/1999/02/22-rdf-syntax-ns#"
   xmlns:svg="http://www.w3.org/2000/svg"
   xmlns="http://www.w3.org/2000/svg"
   xmlns:sodipodi="http://sodipodi.sourceforge.net/DTD/sodipodi-0.dtd"
   xmlns:inkscape="http://www.inkscape.org/namespaces/inkscape"
   width="256"
   height="256"
   viewBox="0 0 256 256"
   id="svg4239"
   version="1.1"
   inkscape:version="0.91 r13725"
   sodipodi:docname="wartule.svg"
   inkscape:export-filename="C:\Prog\Projets\teeworlds\zomb_assets\wartule.png"
   inkscape:export-xdpi="90"
   inkscape:export-ydpi="90">
  <title
     id="title5026">wartule</title>
  <defs
     id="defs4241" />
  <sodipodi:namedview
     id="base"
     pagecolor="#ffffff"
     bordercolor="#666666"
     borderopacity="1.0"
     inkscape:pageopacity="0.0"
     inkscape:pageshadow="2"
     inkscape:zoom="6.4140624"
     inkscape:cx="160.38603"
     inkscape:cy="198.47115"
     inkscape:document-units="px"
     inkscape:current-layer="layer1"
     showgrid="false"
     units="px"
     inkscape:window-width="1920"
     inkscape:window-height="1018"
     inkscape:window-x="-8"
     inkscape:window-y="-8"
     inkscape:window-maximized="1" />
  <metadata
     id="metadata4244">
    <rdf:RDF>
      <cc:Work
         rdf:about="">
        <dc:format>image/svg+xml</dc:format>
        <dc:type
           rdf:resource="http://purl.org/dc/dcmitype/StillImage" />
        <dc:title>wartule</dc:title>
      </cc:Work>
    </rdf:RDF>
  </metadata>
  <g
     inkscape:label="Calque 1"
     inkscape:groupmode="layer"
     id="layer1"
     transform="translate(0,-796.36216)">
    <ellipse
       style="opacity:1;fill:#970070;fill-opacity:1;stroke:none;stroke-width:2;stroke-linecap:round;stroke-linejoin:round;stroke-miterlimit:4;stroke-dasharray:none;stroke-opacity:1"
       id="path4146"
       cx="219.90144"
       cy="839.18805"
       rx="8.3519516"
       ry="8.4738789" />
    <path
       inkscape:connector-curvature="0"
       style="opacity:1;fill:#790059;fill-opacity:1;stroke:none;stroke-width:2;stroke-linecap:round;stroke-linejoin:round;stroke-miterlimit:4;stroke-dasharray:none;stroke-opacity:1"
       d="m 227.0221,834.77292 a 8.351952,8.4738788 0 0 1 0.28258,2.17353 8.351952,8.4738788 0 0 1 -8.35198,8.47417 8.351952,8.4738788 0 0 1 -7.11934,-4.05838 8.351952,8.4738788 0 0 0 8.06787,6.29912 8.351952,8.4738788 0 0 0 8.35198,-8.47265 8.351952,8.4738788 0 0 0 -1.23111,-4.41579 z"
       id="ellipse4188" />
    <path
       style="opacity:1;fill:#7b493d;fill-opacity:1;stroke:none;stroke-width:2;stroke-linecap:round;stroke-linejoin:round;stroke-miterlimit:4;stroke-dasharray:none;stroke-opacity:1"
       d="m 191.06646,823.15531 c -9.04113,0.0171 -17.76846,3.31665 -24.55951,9.28523 -1.12711,-0.38348 -1.48467,0.10285 -2.21783,0.75455 -0.77593,0.68972 -0.94938,0.51729 -1.81153,0.77593 -0.86215,0.25865 -0.43107,1.46463 -0.77593,2.84407 -0.0507,0.20265 -0.30422,0.7967 -0.64457,1.55187 -2.64214,3.5842 -4.62134,7.61242 -5.84394,11.89408 -1.31767,2.55881 -2.44869,4.68892 -2.65009,4.83278 -0.6035,0.43107 0.0865,1.72395 0.3452,2.75853 0.25864,1.03458 0.17243,3.01667 0,4.56854 -0.17243,1.55188 0.43056,2.41484 1.03407,3.96673 0.12568,0.32319 0.32383,0.74547 0.52696,1.17306 3.39679,17.53134 18.7398,30.19765 36.59717,30.21252 21.34124,-0.26208 20.11567,-5.91625 24.95205,-8.88352 3.4486,0.3448 1.80966,-2.07004 3.79261,-3.96673 1.98294,-1.89676 1.5517,-0.94756 2.1552,-1.4648 0.6035,-0.51732 2.32746,-4.05178 2.75853,-4.3104 0.43108,-0.25862 0.60418,-0.86242 1.46633,-1.89707 0.86215,-1.03456 0.0866,-2.32779 0.3452,-3.10373 0.25865,-0.77594 1.20734,-1.03438 1.89707,-2.1552 0.68972,-1.12082 0.34451,-1.89705 0.43073,-3.44893 0.0862,-1.55189 0.0857,-1.80999 0.25814,-2.58594 0.17242,-0.77594 0.4309,-2.6735 -0.17261,-4.74266 -0.2138,-0.73304 -0.43667,-1.87325 -0.65679,-3.07624 -0.16348,-2.63345 -0.60585,-5.24212 -1.3197,-7.78224 -0.006,-0.68306 0.0398,-1.23517 -0.006,-1.55645 -0.0862,-0.6035 -0.25898,-1.03373 -0.3452,-1.4648 -0.0862,-0.43108 -1.20684,-1.6391 -1.37927,-2.58747 -0.17243,-0.94836 0.25898,-1.29271 -0.43073,-2.58593 -0.68973,-1.29323 -1.29356,-2.24091 -1.89707,-3.18927 -0.6035,-0.94837 -1.46514,-1.98345 -2.58593,-2.8456 -1.1208,-0.86215 -1.98379,-2.49989 -2.41487,-3.53447 -0.43107,-1.03458 -1.72429,-1.46666 -2.3278,-1.81152 -0.56265,-0.3216 -0.91444,-0.30889 -3.03485,-0.78968 -6.28534,-4.43953 -13.78967,-6.82698 -21.48479,-6.83524 z"
       id="path4136"
       inkscape:connector-curvature="0"
       sodipodi:nodetypes="ccsssccsssscccccscsssssccscsssssscc" />
    <path
       inkscape:connector-curvature="0"
       style="fill:#5f2553;fill-opacity:1;fill-rule:evenodd;stroke:none;stroke-width:1px;stroke-linecap:butt;stroke-linejoin:miter;stroke-opacity:1"
       d="m 191.06646,823.15531 c -0.13834,2.6e-4 -0.27575,0.009 -0.41394,0.0107 -1.68385,0.12347 -3.65455,0.30492 -5.78895,0.52849 -6.77099,1.15536 -13.13676,4.15837 -18.35662,8.74605 -1.12711,-0.38348 -1.48467,0.10285 -2.21783,0.75455 -0.77593,0.68972 -0.94938,0.51729 -1.81153,0.77593 -0.86215,0.25865 -0.43107,1.46463 -0.77593,2.84407 -0.0507,0.20264 -0.30422,0.7967 -0.64457,1.55187 -2.64214,3.58419 -4.62134,7.61242 -5.84394,11.89408 -1.31767,2.55881 -2.44869,4.68892 -2.65009,4.83278 -0.6035,0.43107 0.0865,1.72395 0.3452,2.75853 0.25864,1.03458 0.17243,3.01667 0,4.56854 -0.17243,1.55188 0.43056,2.41484 1.03407,3.96673 0.12568,0.32319 0.32383,0.74547 0.52696,1.17306 0.15527,0.80139 0.34405,1.58873 0.54835,2.36904 0.0152,-0.003 0.0309,-0.002 0.0458,-0.008 1.20701,-0.43107 1.55186,-1.03514 2.3278,1.03406 0.77593,2.06914 1.20785,2.15591 1.63893,3.62154 0.43107,1.46562 2.93113,5.51859 2.93113,5.51859 0,0 1.03356,-8.27663 1.2922,-9.3112 0.25865,-1.03456 0.94853,-1.89813 1.72447,0.17107 0.77593,2.06914 1.63859,1.98383 2.06966,0.863 0.43108,-1.12074 0.60368,-4.91421 0.94854,-5.43153 0.34486,-0.51732 1.20649,0.60333 2.58593,0.60333 1.37944,0 2.15605,-0.7763 1.46633,-3.44893 -0.68972,-2.67268 -2.24158,-7.24238 -1.55186,-9.6564 0.68971,-2.41401 0.77627,-4.13745 1.12113,-6.1204 0.34486,-1.98294 1.1196,-1.72481 2.67147,-0.5178 3.74544,2.91312 3.4491,5.43205 4.39746,5.1734 0.94837,-0.25864 1.6391,-5.00046 3.3634,-2.3278 1.7243,2.67266 1.03407,2.58696 1.81,4.39747 0.77593,1.81051 3.87966,5.25808 5.43153,2.84407 1.55187,-2.41402 2.06797,-4.91373 2.67147,-8.01747 0.60351,-3.10373 -0.5321,-2.67923 1.89707,-3.70707 2.43424,-1.02998 3.96571,2.75803 6.03487,0.68887 2.06915,-2.06916 2.41401,-1.72345 3.87966,0.863 1.46566,2.58645 3.70758,4.48283 4.22487,2.75853 0.51729,-1.72429 0.94904,-4.22486 3.01819,-5.0008 3.17043,1.20301 2.75854,2.1552 2.75854,2.1552 -0.86215,1.1208 -0.60283,1.03459 -1.6374,2.3278 -1.03458,1.29323 -2.07001,1.63809 -2.41487,3.10374 -0.34486,1.46565 -1.37994,0.94818 -0.5178,4.483 0.86215,3.53481 1.72549,4.65507 1.98413,5.68966 0.25865,1.03457 0.60334,1.29394 0.60334,3.79414 0,2.50027 1.63825,5.17369 0.94853,7.07046 -0.68972,1.89669 -1.46684,2.58666 0.34367,2.5004 1.81051,-0.0862 3.19012,-2.93113 4.05227,-3.70707 0.86215,-0.77594 4.22503,-2.15588 2.8456,1.03407 -1.37945,3.18995 -4.74216,5.51796 -1.12114,4.8282 3.62103,-0.68969 4.56955,-4.13804 5.60413,-4.3104 0.95195,-0.15867 1.45459,2.05045 1.73211,3.35117 0.84783,-1.03275 0.0798,-2.31979 0.33756,-3.09304 0.25865,-0.77594 1.20734,-1.03437 1.89707,-2.1552 0.68972,-1.12082 0.34451,-1.89704 0.43073,-3.44893 0.0862,-1.55189 0.0857,-1.80999 0.25814,-2.58594 0.17242,-0.77594 0.4309,-2.6735 -0.17261,-4.74266 -0.2138,-0.73304 -0.43667,-1.87325 -0.65679,-3.07624 -0.16348,-2.63345 -0.60585,-5.24212 -1.3197,-7.78224 -0.006,-0.68306 0.0401,-1.23517 -0.006,-1.55645 -0.0862,-0.6035 -0.25898,-1.03373 -0.3452,-1.4648 -0.0862,-0.43108 -1.20684,-1.6391 -1.37927,-2.58747 -0.17243,-0.94836 0.25898,-1.29271 -0.43073,-2.58593 -0.68973,-1.29323 -1.29356,-2.24091 -1.89707,-3.18927 -0.6035,-0.94837 -1.46514,-1.98345 -2.58593,-2.8456 -1.12081,-0.86214 -1.9838,-2.49988 -2.41487,-3.53446 -0.43107,-1.03458 -1.7243,-1.46667 -2.3278,-1.81153 -0.56235,-0.32154 -0.91444,-0.30886 -3.03485,-0.78965 -6.28534,-4.43953 -13.78967,-6.82698 -21.48479,-6.83524 z m -16.94987,31.07551 c -0.17243,2.24159 0.17277,3.62102 0.3452,4.6556 0.17243,1.03458 1.0356,2.50108 1.81153,2.41486 0.77593,-0.0862 1.98209,-1.03508 1.4648,-2.06966 -0.51729,-1.03458 -1.29373,-3.27633 -1.29373,-3.27633 l -2.3278,-1.72447 z m 27.9336,0.5178 c -2.24159,0.60351 -3.18859,-8.6e-4 -3.27481,0.68887 -0.0862,0.68971 0.0862,0.34485 0,1.55187 -0.0862,1.207 0.86113,3.1039 1.29221,3.27633 0.43107,0.17242 2.67266,0.51831 3.10373,-0.51627 0.43108,-1.03458 0.60333,-2.58746 0.60333,-2.58746 l -1.72446,-2.41334 z m -10.49954,5.92489 c -0.41255,0.033 -1.13946,0.62777 -1.13946,0.62777 0.25865,1.89673 0.0874,2.93058 1.2082,2.41334 1.12079,-0.51732 1.63774,-1.55221 1.20666,-1.89707 -0.43107,-0.34486 -0.77627,-0.94717 -1.12113,-1.1196 -0.0431,-0.0216 -0.0953,-0.0291 -0.15427,-0.0244 z m -18.33219,10.67367 c -0.55989,-0.004 -0.99741,0.29937 -0.99741,0.29937 l -0.17259,1.20667 c 1.46565,1.207 1.3796,1.89643 1.72446,1.20667 0.34486,-0.68969 1.46464,-1.29236 0.51627,-2.24074 -0.35564,-0.35564 -0.73479,-0.46945 -1.07073,-0.47197 z"
       id="path4219" />
    <path
       inkscape:connector-curvature="0"
       style="opacity:1;fill:#590f4a;fill-opacity:1;stroke:none;stroke-width:2;stroke-linecap:round;stroke-linejoin:round;stroke-miterlimit:4;stroke-dasharray:none;stroke-opacity:1"
       d="m 191.06646,823.15531 c -9.04113,0.0171 -17.76846,3.31665 -24.55951,9.28523 -0.67892,-0.23099 -1.07724,-0.14238 -1.448,0.10386 a 18.837614,17.557388 0 0 0 18.44674,14.02026 18.837614,17.557388 0 0 0 14.62359,-6.51142 9.6931416,9.0835094 0 0 0 6.2258,2.1216 9.6931416,9.0835094 0 0 0 9.69458,-9.08362 9.6931416,9.0835094 0 0 0 -0.51169,-2.88683 c -0.32844,-0.0692 -0.48896,-0.10098 -0.98672,-0.21384 -6.28534,-4.43953 -13.78967,-6.82698 -21.48479,-6.83524 z m -29.3037,13.34513 c -0.0184,0.10457 -0.0343,0.20764 -0.0611,0.31465 -0.0507,0.20265 -0.30422,0.7967 -0.64458,1.55187 -2.64214,3.5842 -4.62133,7.61242 -5.84394,11.89408 -1.31767,2.55881 -2.44869,4.68892 -2.65008,4.83278 -0.25514,0.18224 -0.27395,0.52301 -0.19704,0.92867 a 10.729514,11.095294 0 0 0 2.65009,1.50605 6.827873,7.0107624 0 0 0 -0.56057,2.77839 6.827873,7.0107624 0 0 0 6.8276,7.01089 6.827873,7.0107624 0 0 0 6.8276,-7.01089 6.827873,7.0107624 0 0 0 -2.06508,-5.01302 10.729514,11.095294 0 0 0 3.45657,-8.14424 10.729514,11.095294 0 0 0 -7.73948,-10.64923 z m 61.56449,13.3818 a 9.5712149,9.9979577 0 0 0 -9.57238,9.99854 9.5712149,9.9979577 0 0 0 9.57238,9.99854 9.5712149,9.9979577 0 0 0 5.57054,-1.87721 c 0.0532,-0.96446 0.0815,-1.40174 0.22453,-2.04523 0.17242,-0.77594 0.4309,-2.6735 -0.17261,-4.74266 -0.2138,-0.73304 -0.43667,-1.87326 -0.65679,-3.07624 -0.15648,-2.5207 -0.5762,-5.01694 -1.23721,-7.45384 a 9.5712149,9.9979577 0 0 0 -3.72846,-0.8019 z"
       id="ellipse4201" />
    <ellipse
       style="opacity:1;fill:#801364;fill-opacity:1;stroke:none;stroke-width:2;stroke-linecap:round;stroke-linejoin:round;stroke-miterlimit:4;stroke-dasharray:none;stroke-opacity:1"
       id="path4140"
       cx="182.10428"
       cy="827.17834"
       rx="18.837614"
       ry="17.557388" />
    <path
       inkscape:connector-curvature="0"
       style="opacity:1;fill:#60134d;fill-opacity:1;stroke:none;stroke-width:2;stroke-linecap:round;stroke-linejoin:round;stroke-miterlimit:4;stroke-dasharray:none;stroke-opacity:1"
       d="m 195.87938,815.22338 a 18.837614,17.557388 0 0 1 1.77029,7.38205 18.837614,17.557388 0 0 1 -18.83777,17.55778 18.837614,17.557388 0 0 1 -13.77587,-5.60413 18.837614,17.557388 0 0 0 17.06901,10.17725 18.837614,17.557388 0 0 0 18.83624,-17.55778 18.837614,17.557388 0 0 0 -5.0619,-11.95517 z"
       id="ellipse4172" />
    <path
       style="fill:#c50092;fill-opacity:1;fill-rule:evenodd;stroke:none;stroke-width:1px;stroke-linecap:butt;stroke-linejoin:miter;stroke-opacity:1"
       d="m 179.31137,809.39929 c -0.15087,0.0431 -0.28002,0.0438 -0.40935,0.10845 -0.12932,0.0647 -0.45212,0.19398 -0.45212,0.19398 0,0 -0.0652,-0.10793 -0.12983,0.21537 -0.0647,0.32331 -0.0857,0.38711 -0.0641,0.49489 0.0215,0.10776 0.15071,0.0871 0.0214,0.28104 -0.12932,0.19398 -0.36692,0.32331 -0.51779,0.38797 -0.15088,0.0647 -0.38763,-0.001 -0.43074,-0.23828 -0.0431,-0.23709 -0.0424,-0.27986 -0.0855,-0.43073 -0.0431,-0.15088 0.12814,-0.28053 -0.0443,-0.3452 -0.17243,-0.0647 -0.4309,-0.19296 -0.60333,-0.1283 -0.17243,0.0647 -0.32263,0.15086 -0.47351,0.19398 -0.15087,0.0431 -0.62607,3.4e-4 -0.64763,0.15121 -0.0215,0.15088 -0.0422,0.34401 0.0871,0.49489 0.12932,0.15088 0.49488,0.15122 0.68887,0.15122 0.19398,0 0.32381,0.28037 0.32381,0.36658 0,0.0862 -0.10777,0.43039 -0.19398,0.4735 -0.0862,0.0431 -0.15054,0.25882 -0.8187,0.1726 -0.66817,-0.0862 -0.9706,-0.25797 -1.27235,-0.0855 -0.30175,0.17244 -0.45263,0.40919 -0.58195,0.43074 -0.12932,0.0216 -0.3009,-0.0862 -0.49489,-0.19398 -0.19398,-0.10778 -0.43209,-0.21554 -0.64762,-0.19399 -0.21554,0.0216 -0.60215,0.0648 -0.75303,0.1726 -0.15087,0.10777 -0.90661,0.4954 -0.99282,0.62472 -0.0862,0.12933 -0.0852,0.30141 0.0657,0.43073 0.15088,0.12932 0.43107,0.23761 0.77593,0.12984 0.34486,-0.10777 0.81887,-0.19399 1.18529,-0.19399 0.36641,0 0.8187,0.15122 0.8187,0.15122 0,0 0.58721,0.0761 0.80648,0.0825 -0.056,0.0646 -0.2593,0.0584 -0.33264,0.15376 -0.21554,0.2802 -0.32347,-0.0216 -0.88387,0.0647 -0.5604,0.0862 -0.81887,0.15088 -1.29305,0.38797 -0.47418,0.23709 -0.83992,0.15105 -1.24944,0.32347 -0.40952,0.17243 -1.16441,0.94836 -1.6817,1.20701 -0.51729,0.25864 -0.94853,0.3233 -1.3365,0.58195 -0.38796,0.25864 -0.7318,0.49624 -0.90423,0.71178 -0.17243,0.21554 -0.62557,0.5385 -0.90577,0.8187 -0.2802,0.2802 -0.38762,0.51763 -0.62471,0.92715 -0.2371,0.40952 -0.21537,0.62506 -0.19382,1.03458 0.0216,0.40954 0.30107,-0.23675 0.55972,-0.47385 0.25864,-0.23709 0.36692,-0.49658 0.99198,-0.88455 0.62506,-0.38796 0.51712,-0.56091 1.18528,-1.29373 0.66817,-0.73286 0.40986,-0.30074 1.31512,-0.71025 0.90525,-0.40953 0.51644,-0.47435 0.88285,-0.75455 0.36641,-0.2802 0.75523,-0.0643 1.10009,-0.30141 0.34486,-0.2371 0.17209,-0.53901 0.96957,-0.68989 0.79749,-0.15087 0.77628,-0.0428 1.37978,-0.2152 0.48271,-0.13792 0.55351,-0.30819 0.93122,-0.17582 -0.2843,0.18344 -0.81555,0.52812 -1.05545,0.67206 -0.30482,0.18289 -0.36513,0.60926 -1.09669,1.21889 -0.73156,0.60963 -1.52478,0.91514 -1.70767,1.70767 -0.18289,0.79252 -0.79214,1.21882 -1.21888,1.88942 -0.42675,0.6706 -0.24335,0.73172 -1.15779,1.46328 -0.91445,0.73156 -1.34109,0.12222 -1.34109,1.52437 0,1.40215 0.18196,2.07167 -0.42768,2.98612 -0.60963,0.91445 -0.73163,1.82881 -0.73163,2.74326 0,0.91445 -0.24327,1.15953 -0.42616,1.95206 -0.18288,0.79251 -0.48756,0.5485 0.0611,2.01162 0.54866,1.46311 1.76723,4.02324 1.76723,4.02324 0,0 -0.48738,-1.21964 -0.54835,-2.25601 -0.061,-1.03638 2.7e-4,-1.64638 0.1222,-2.25601 0.12192,-0.60963 0.18283,-2.49935 0.67054,-3.4138 0.4877,-0.91444 1.21942,-2.68165 1.46327,-3.83995 0.24386,-1.1583 -0.36596,-1.34089 0.60945,-1.95053 0.97541,-0.60963 1.95033,-1.2199 2.55997,-2.3782 0.60963,-1.1583 0.30444,-1.58555 1.21888,-2.31711 0.91445,-0.73155 1.58614,-1.58381 1.89096,-1.52285 0.30481,0.0609 1.03578,0.12088 0.42615,0.91341 -0.60963,0.79251 -1.34081,1.03701 -1.21889,2.3782 0.12193,1.34119 0.36565,2.80443 -0.0611,3.536 -0.42674,0.73155 -0.67148,1.15854 -1.09822,2.19491 -0.42674,1.03637 -0.73097,2.31606 -0.42615,3.23051 0.30482,0.91444 0.36626,0.9752 0.91493,2.68216 0.54867,1.70697 0.91394,2.80516 1.15779,3.17094 0.24385,0.36578 0.85311,0.54811 1.21889,1.82833 0.36578,1.28023 0.67174,1.58496 1.22041,2.74326 0.54867,1.1583 1.70614,3.23051 1.70614,3.23051 0,0 5.9e-4,-1.03616 -0.42615,-2.68216 -0.42675,-1.64601 -1.34122,-2.7427 -1.40218,-4.57159 -0.061,-1.8289 0.4869,-3.04878 -0.36659,-4.45093 -0.85348,-1.40215 -1.15779,-1.58429 -1.15779,-2.43777 0,-0.85349 -0.12211,-0.67164 0.60945,-2.5615 0.73156,-1.88985 1.03699,-4.08356 0.97602,-5.11993 -0.061,-1.03638 -0.0619,-1.64652 0.24286,-2.31711 0.30482,-0.6706 -0.18168,-0.97576 0.54988,-0.85383 0.73156,0.12192 1.1572,-0.97507 1.58394,0.85383 0.42674,1.82889 0.18324,1.9502 0.85383,2.49887 0.6706,0.54866 0.73092,0.85378 1.0967,1.52437 0.36578,0.6706 0.85431,0.48867 1.76876,1.82986 0.91444,1.3412 0.61024,1.2802 0.97602,2.07272 0.36578,0.79252 0.66955,0.48714 0.91341,1.82833 0.24385,1.34119 -0.91445,2.01229 0,2.31711 0.91444,0.30481 2.13376,0.48647 2.80435,1.52284 0.6706,1.03638 0.97579,1.58537 2.25601,2.92656 1.28023,1.34118 1.82914,1.15848 2.19492,2.86545 0.36578,1.70696 0.42615,2.68216 0.42615,2.68216 0,0 1.28057,-2.49935 0.85383,-3.4138 -0.42674,-0.91444 -2.01157,-3.41388 -2.68216,-4.14544 -0.6706,-0.73155 -1.9516,-2.07253 -2.4393,-2.68216 -0.48771,-0.60963 -0.85298,-0.4884 -1.15779,-1.70766 -0.30482,-1.21926 -0.48733,-2.37676 -1.21889,-3.10832 -0.73156,-0.73155 -1.28133,-0.97539 -1.89096,-2.07272 -0.60963,-1.09734 -0.60872,-1.82841 -0.9745,-2.55997 -0.36577,-0.73155 -0.97615,-1.76804 -1.03712,-2.13381 -0.061,-0.36578 -0.12179,-1.03766 0.0611,-1.28152 0.18289,-0.24384 -0.24329,-1.27949 1.64657,-0.36505 1.88986,0.91445 1.82921,2.07259 2.92655,2.01162 1.09734,-0.0609 2.01071,-0.9745 2.98612,-0.9745 0.97541,0 1.03648,-0.0611 2.13382,0.67054 1.09734,0.73156 1.15854,0.67009 2.19491,1.15779 1.03638,0.48771 1.70734,0.4876 2.25601,1.34108 0.54867,0.85349 0.66982,1.03581 1.0356,1.82834 0.36578,0.79252 0.97602,2.19491 0.97602,2.19491 0,0 0.85389,-1.34031 0.1833,-2.37668 -0.6706,-1.03637 -3.47557,-4.81624 -3.78039,-4.93817 -0.30481,-0.12193 -0.48674,-0.48819 -1.64504,-0.91493 -1.1583,-0.42674 -1.28127,-0.54875 -2.56149,-0.73164 -1.28023,-0.18289 -0.3649,0.36664 -2.37668,-0.30396 -2.01178,-0.67059 -1.95074,-0.97616 -2.74326,-1.03712 -0.79252,-0.061 -1.34256,0.30471 -2.01315,-0.0611 -0.67059,-0.36578 -1.33974,-0.97477 -0.73011,-1.09669 0.60963,-0.12193 1.21811,-0.48878 2.25448,-0.48878 1.03638,0 1.40261,-0.12139 2.98765,0.24439 1.58504,0.36578 1.58456,0 2.55997,0 0.97541,0 1.28092,5.3e-4 1.70766,0.24439 0.42675,0.24384 1.76804,0.9134 2.13382,0.9134 0.36578,0 0.85383,0.12219 0.85383,0.12219 0,0 -0.12286,-0.66982 -0.42768,-1.03559 -0.30481,-0.36578 0.12271,-0.48806 -1.03559,-0.85384 -1.1583,-0.36578 -1.15814,-0.42641 -2.01163,-0.54834 -0.85348,-0.12192 -0.85418,-0.1222 -1.70766,-0.1222 -0.85348,0 -1.1e-4,0.24375 -2.13382,-0.0611 -2.13371,-0.30482 -2.31619,-0.60918 -3.2916,-0.48725 -0.97541,0.12192 -1.52365,0.18176 -1.88943,0.18176 -0.36578,0 -0.79373,-0.06 -0.54987,-0.24286 0.24385,-0.18289 0.67048,-0.67054 1.34108,-0.67054 0.67059,0 1.09749,0.12209 1.46327,0.0611 0.36578,-0.0609 0.79255,-0.24439 1.40218,-0.24439 l 0.85383,0 c 0,0 0.42715,-6.7e-4 0.18329,-0.30549 -0.24384,-0.30482 0.18295,-0.24313 -0.67054,-0.36505 -0.85348,-0.12193 -1.64584,-0.24439 -2.01162,-0.24439 -0.36578,0 -0.61038,1.7e-4 -1.03712,0.0611 -0.42674,0.0609 -0.18305,0.18355 -1.46328,0.30548 -1.28022,0.12193 -1.27926,-4.6e-4 -1.64504,0.48725 -0.36578,0.48771 -0.30543,0.73177 -0.97602,0.79274 -0.6706,0.061 -0.73164,0.18329 -0.73164,0.18329 0,0 -0.0608,-0.24493 0.0611,-0.48878 0.12193,-0.24386 0.54835,-0.48725 0.54835,-0.48725 l 0.18328,-0.54834 c 0,0 -0.0268,-0.362 -0.11303,-0.362 -0.0862,0 -0.15155,-0.0859 -0.30243,-0.0428 z"
       id="path4234"
       inkscape:connector-curvature="0"
       sodipodi:nodetypes="csccsccsccccssssccscccccccsccscccsssssssscssssccsssssssssscssssssscssssssssscsssssssssssssssssscsssssssscscscssscsssssccsssscscsssscsscscscssssssccsccsc" />
    <ellipse
       style="opacity:1;fill:#7d005d;fill-opacity:1;stroke:none;stroke-width:2;stroke-linecap:round;stroke-linejoin:round;stroke-miterlimit:4;stroke-dasharray:none;stroke-opacity:1"
       id="path4142"
       cx="204.05101"
       cy="831.26288"
       rx="9.6931419"
       ry="9.0835094" />
    <ellipse
       style="opacity:1;fill:#97006f;fill-opacity:1;stroke:none;stroke-width:2;stroke-linecap:round;stroke-linejoin:round;stroke-miterlimit:4;stroke-dasharray:none;stroke-opacity:1"
       id="path4144"
       cx="220.99878"
       cy="857.29413"
       rx="9.5712147"
       ry="9.9979582" />
    <ellipse
       style="opacity:1;fill:#93006d;fill-opacity:1;stroke:none;stroke-width:2;stroke-linecap:round;stroke-linejoin:round;stroke-miterlimit:4;stroke-dasharray:none;stroke-opacity:1"
       id="path4138"
       cx="157.04843"
       cy="844.73572"
       rx="10.729515"
       ry="11.095294" />
    <ellipse
       style="opacity:1;fill:#7d005d;fill-opacity:1;stroke:none;stroke-width:2;stroke-linecap:round;stroke-linejoin:round;stroke-miterlimit:4;stroke-dasharray:none;stroke-opacity:1"
       id="path4148"
       cx="159.7308"
       cy="857.72083"
       rx="6.8278732"
       ry="7.0107622" />
    <path
       inkscape:connector-curvature="0"
       style="opacity:1;fill:#66004b;fill-opacity:1;stroke:none;stroke-width:2;stroke-linecap:round;stroke-linejoin:round;stroke-miterlimit:4;stroke-dasharray:none;stroke-opacity:1"
       d="m 210.56865,824.55443 a 9.6931416,9.0835094 0 0 1 1.40829,4.69684 9.6931416,9.0835094 0 0 1 -9.69458,9.08361 9.6931416,9.0835094 0 0 1 -6.51601,-2.37515 9.6931416,9.0835094 0 0 0 8.28477,4.38677 9.6931416,9.0835094 0 0 0 9.69305,-9.08361 9.6931416,9.0835094 0 0 0 -3.17552,-6.70846 z"
       id="ellipse4178" />
    <path
       inkscape:connector-curvature="0"
       style="opacity:1;fill:#8c0067;fill-opacity:1;stroke:none;stroke-width:2;stroke-linecap:round;stroke-linejoin:round;stroke-miterlimit:4;stroke-dasharray:none;stroke-opacity:1"
       d="m 228.98943,851.80068 a 9.5712149,9.9979577 0 0 1 0.28715,2.39043 9.5712149,9.9979577 0 0 1 -9.57086,9.99701 9.5712149,9.9979577 0 0 1 -7.98997,-4.50133 9.5712149,9.9979577 0 0 0 9.28371,7.60507 9.5712149,9.9979577 0 0 0 9.57086,-9.99702 9.5712149,9.9979577 0 0 0 -1.58089,-5.49416 z"
       id="ellipse4183" />
    <path
       inkscape:connector-curvature="0"
       style="opacity:1;fill:#7b005b;fill-opacity:1;stroke:none;stroke-width:2;stroke-linecap:round;stroke-linejoin:round;stroke-miterlimit:4;stroke-dasharray:none;stroke-opacity:1"
       d="m 164.08292,836.36756 a 10.729514,11.095294 0 0 1 1.97038,6.38464 10.729514,11.095294 0 0 1 -10.72865,11.09524 10.729514,11.095294 0 0 1 -7.03228,-2.72341 10.729514,11.095294 0 0 0 8.75675,4.70754 10.729514,11.095294 0 0 0 10.72865,-11.09524 10.729514,11.095294 0 0 0 -3.69485,-8.36877 z"
       id="ellipse4193" />
    <path
       inkscape:connector-curvature="0"
       style="opacity:1;fill:#66004c;fill-opacity:1;stroke:none;stroke-width:2;stroke-linecap:round;stroke-linejoin:round;stroke-miterlimit:4;stroke-dasharray:none;stroke-opacity:1"
       d="m 163.07329,851.61128 a 6.827873,7.0107624 0 0 1 1.50299,4.38525 6.827873,7.0107624 0 0 1 -6.82913,7.01089 6.827873,7.0107624 0 0 1 -3.34201,-0.90118 6.827873,7.0107624 0 0 0 5.32614,2.62565 6.827873,7.0107624 0 0 0 6.8276,-7.0109 6.827873,7.0107624 0 0 0 -3.48559,-6.10971 z"
       id="ellipse4198" />
    <path
       style="opacity:1;fill:#000000;fill-opacity:1;stroke:#000000;stroke-width:8;stroke-linecap:round;stroke-linejoin:round;stroke-miterlimit:4;stroke-dasharray:none;stroke-opacity:1"
       d="M 51.466797 13.037109 C 51.315921 13.080209 51.187917 13.081834 51.058594 13.146484 C 50.929272 13.211184 50.605469 13.339844 50.605469 13.339844 C 50.605469 13.339844 50.541224 13.231387 50.476562 13.554688 C 50.468304 13.595982 50.467775 13.605212 50.460938 13.638672 A 18.837614 17.557388 0 0 0 49.423828 13.855469 C 49.441918 13.79219 49.445821 13.738966 49.355469 13.705078 C 49.183039 13.640378 48.924384 13.511512 48.751953 13.576172 C 48.579524 13.640872 48.428219 13.726411 48.277344 13.769531 C 48.126467 13.812631 47.652412 13.771005 47.630859 13.921875 C 47.61137 14.058326 47.605036 14.22608 47.697266 14.369141 A 18.837614 17.557388 0 0 0 44.960938 15.572266 C 44.880222 15.552341 44.798669 15.529314 44.720703 15.537109 C 44.505165 15.558709 44.117673 15.603138 43.966797 15.710938 C 43.815921 15.818707 43.060823 16.204664 42.974609 16.333984 C 42.892396 16.457304 42.894682 16.61917 43.025391 16.746094 A 18.837614 17.557388 0 0 0 39.574219 19.845703 C 39.309589 20.029472 39.073234 20.205331 38.945312 20.365234 C 38.772883 20.580774 38.319261 20.903394 38.039062 21.183594 C 37.758863 21.463794 37.651154 21.701808 37.414062 22.111328 C 37.176972 22.520848 37.199149 22.736964 37.220703 23.146484 C 37.225698 23.2414 37.246154 23.275662 37.275391 23.275391 A 18.837614 17.557388 0 0 0 35.421875 30.816406 A 18.837614 17.557388 0 0 0 36.546875 36.740234 C 36.51106 36.772725 36.482952 36.798574 36.445312 36.832031 C 35.669378 37.521751 35.49496 37.350735 34.632812 37.609375 C 34.236854 37.728165 34.117255 38.052635 34.066406 38.496094 A 10.729515 11.095294 0 0 0 29.205078 37.277344 A 10.729515 11.095294 0 0 0 18.474609 48.373047 A 10.729515 11.095294 0 0 0 21.808594 56.392578 A 10.729514 11.095294 0 0 0 21.912109 56.492188 A 10.729515 11.095294 0 0 0 22.611328 57.111328 A 10.729514 11.095294 0 0 0 22.740234 57.212891 A 10.729515 11.095294 0 0 0 23.478516 57.742188 A 10.729514 11.095294 0 0 0 23.642578 57.845703 A 10.729515 11.095294 0 0 0 24.392578 58.277344 A 10.729514 11.095294 0 0 0 24.611328 58.386719 A 10.729515 11.095294 0 0 0 24.869141 58.515625 C 24.820157 58.586275 24.742696 58.715316 24.71875 58.732422 C 24.64907 58.782193 24.59979 58.844502 24.5625 58.916016 C 24.546873 58.945392 24.540126 58.98108 24.529297 59.013672 C 24.51498 59.05823 24.500419 59.102378 24.494141 59.152344 C 24.487124 59.204488 24.485547 59.260949 24.486328 59.318359 C 24.486958 59.350434 24.487499 59.382521 24.490234 59.416016 C 24.495965 59.490016 24.504719 59.566279 24.519531 59.646484 C 24.52041 59.65124 24.520579 59.655383 24.521484 59.660156 C 24.521484 59.660156 24.523438 59.660156 24.523438 59.660156 C 24.628231 60.212809 24.912899 60.890094 25.0625 61.486328 A 6.8278732 7.0107622 0 0 0 25.205078 62.767578 C 25.246956 63.783731 25.180909 65.010485 25.064453 66.058594 C 24.892023 67.610474 25.494152 68.473501 26.097656 70.025391 C 26.22334 70.348581 26.421872 70.771629 26.625 71.199219 C 30.021788 88.730559 45.365288 101.39529 63.222656 101.41016 C 84.563897 101.14808 83.337446 95.494614 88.173828 92.527344 C 91.622425 92.872144 89.983851 90.457237 91.966797 88.560547 C 93.949737 86.663787 93.519544 87.612943 94.123047 87.095703 C 94.72655 86.578383 96.44979 83.043776 96.880859 82.785156 C 97.311937 82.526536 97.485501 81.923322 98.347656 80.888672 C 98.994267 80.112752 98.718997 79.188784 98.650391 78.449219 C 98.627882 78.203684 98.626971 77.978469 98.691406 77.785156 C 98.950051 77.009216 99.900126 76.749736 100.58984 75.628906 C 101.27957 74.508086 100.93331 73.731578 101.01953 72.179688 C 101.0342 71.915618 101.04181 71.838698 101.05273 71.640625 C 101.10593 70.676165 101.1343 70.23724 101.27734 69.59375 C 101.36355 69.20578 101.47169 68.539012 101.48242 67.708984 C 101.48242 67.708984 101.48242 67.707031 101.48242 67.707031 C 101.48779 67.292018 101.47005 66.838418 101.41211 66.357422 C 101.40019 66.258441 101.37864 66.153751 101.36328 66.052734 A 9.5712149 9.9979577 0 0 0 101.37891 66.023438 A 9.5712147 9.9979582 0 0 0 101.61328 65.599609 A 9.5712149 9.9979577 0 0 0 101.82617 65.136719 A 9.5712147 9.9979582 0 0 0 102.01758 64.689453 A 9.5712149 9.9979577 0 0 0 102.17969 64.226562 A 9.5712147 9.9979582 0 0 0 102.33594 63.736328 A 9.5712149 9.9979577 0 0 0 102.45117 63.259766 A 9.5712147 9.9979582 0 0 0 102.55469 62.787109 A 9.5712149 9.9979577 0 0 0 102.63477 62.228516 A 9.5712147 9.9979582 0 0 0 102.68359 61.804688 A 9.5712149 9.9979577 0 0 0 102.72656 60.933594 A 9.5712149 9.9979577 0 0 0 102.72656 60.931641 A 9.5712147 9.9979582 0 0 0 102.68555 60.085938 A 9.5712149 9.9979577 0 0 0 102.62891 59.599609 A 9.5712147 9.9979582 0 0 0 102.55078 59.070312 A 9.5712149 9.9979577 0 0 0 102.46289 58.662109 A 9.5712147 9.9979582 0 0 0 102.32422 58.09375 A 9.5712149 9.9979577 0 0 0 102.21289 57.740234 A 9.5712147 9.9979582 0 0 0 101.99023 57.109375 A 9.5712149 9.9979577 0 0 0 101.89453 56.886719 A 9.5712147 9.9979582 0 0 0 101.58203 56.207031 A 9.5712149 9.9979577 0 0 0 101.4375 55.945312 A 9.5712147 9.9979582 0 0 0 99.140625 53.142578 C 99.146625 52.854446 99.147844 52.609122 99.123047 52.4375 C 99.036827 51.834 98.863564 51.403726 98.777344 50.972656 C 98.711801 50.64492 98.05026 49.868026 97.660156 49.097656 A 8.351952 8.4738788 0 0 0 97.673828 49.085938 A 8.3519516 8.4738789 0 0 0 97.966797 48.806641 A 8.351952 8.4738788 0 0 0 98.230469 48.519531 A 8.3519516 8.4738789 0 0 0 98.521484 48.183594 A 8.351952 8.4738788 0 0 0 98.763672 47.859375 A 8.3519516 8.4738789 0 0 0 99.017578 47.501953 A 8.351952 8.4738788 0 0 0 99.230469 47.146484 A 8.3519516 8.4738789 0 0 0 99.441406 46.775391 A 8.351952 8.4738788 0 0 0 99.621094 46.396484 A 8.3519516 8.4738789 0 0 0 99.791016 46.011719 A 8.351952 8.4738788 0 0 0 99.931641 45.619141 A 8.3519516 8.4738789 0 0 0 100.06836 45.205078 A 8.351952 8.4738788 0 0 0 100.16992 44.800781 A 8.3519516 8.4738789 0 0 0 100.25977 44.386719 A 8.351952 8.4738788 0 0 0 100.32227 43.966797 A 8.3519516 8.4738789 0 0 0 100.37305 43.550781 A 8.351952 8.4738788 0 0 0 100.4043 42.933594 A 8.3519516 8.4738789 0 0 0 100.41016 42.826172 A 8.3519516 8.4738789 0 0 0 100.36914 42.070312 A 8.351952 8.4738788 0 0 0 100.33203 41.761719 A 8.3519516 8.4738789 0 0 0 100.25391 41.232422 A 8.351952 8.4738788 0 0 0 100.19141 40.947266 A 8.3519516 8.4738789 0 0 0 100.05078 40.392578 A 8.351952 8.4738788 0 0 0 99.978516 40.169922 A 8.3519516 8.4738789 0 0 0 99.759766 39.570312 A 8.351952 8.4738788 0 0 0 99.699219 39.431641 A 8.3519516 8.4738789 0 0 0 99.398438 38.800781 A 8.351952 8.4738788 0 0 0 99.177734 38.412109 A 8.3519516 8.4738789 0 0 0 92.056641 34.351562 A 8.3519516 8.4738789 0 0 0 88.861328 35.005859 C 88.443424 34.760665 88.019429 34.576393 87.742188 34.417969 C 87.330096 34.182343 86.794956 34.073477 85.830078 33.871094 A 9.6931416 9.0835094 0 0 0 85.810547 33.755859 A 9.6931419 9.0835094 0 0 0 85.716797 33.175781 A 9.6931416 9.0835094 0 0 0 85.652344 32.910156 A 9.6931419 9.0835094 0 0 0 85.482422 32.289062 A 9.6931416 9.0835094 0 0 0 85.404297 32.064453 A 9.6931419 9.0835094 0 0 0 85.144531 31.40625 A 9.6931416 9.0835094 0 0 0 85.082031 31.273438 A 9.6931419 9.0835094 0 0 0 84.720703 30.576172 A 9.6931416 9.0835094 0 0 0 84.667969 30.490234 A 9.6931419 9.0835094 0 0 0 82.949219 28.388672 A 9.6931416 9.0835094 0 0 0 82.724609 28.191406 A 9.6931419 9.0835094 0 0 0 76.207031 25.816406 A 9.6931419 9.0835094 0 0 0 72.505859 26.511719 A 18.837614 17.557388 0 0 0 72.292969 25.785156 A 18.837614 17.557388 0 0 0 72.111328 25.279297 A 18.837614 17.557388 0 0 0 71.652344 24.107422 A 18.837614 17.557388 0 0 0 71.458984 23.705078 A 18.837614 17.557388 0 0 0 70.830078 22.498047 A 18.837614 17.557388 0 0 0 70.640625 22.1875 A 18.837614 17.557388 0 0 0 69.849609 20.988281 A 18.837614 17.557388 0 0 0 69.648438 20.726562 A 18.837614 17.557388 0 0 0 68.710938 19.578125 A 18.837614 17.557388 0 0 0 68.035156 18.861328 A 18.837614 17.557388 0 0 0 67.115234 18.011719 C 67.293725 18.043477 67.429688 18.074219 67.429688 18.074219 C 67.429688 18.074219 67.306769 17.404832 67.001953 17.039062 C 66.697138 16.673283 67.123144 16.551327 65.964844 16.185547 C 64.806544 15.819767 64.806609 15.758649 63.953125 15.636719 C 63.78512 15.612719 63.732113 15.609248 63.617188 15.59375 A 18.837614 17.557388 0 0 0 59.636719 13.998047 C 59.701231 13.956924 59.736846 13.885904 59.625 13.746094 C 59.38115 13.441274 59.808562 13.502779 58.955078 13.380859 C 58.101594 13.258929 57.309139 13.136719 56.943359 13.136719 C 56.577581 13.136719 56.332992 13.136336 55.90625 13.197266 C 55.708903 13.225429 55.649094 13.268009 55.521484 13.316406 A 18.837614 17.557388 0 0 0 54.259766 13.259766 A 18.837614 17.557388 0 0 0 51.880859 13.421875 C 51.878022 13.38681 51.851074 13.080078 51.769531 13.080078 C 51.683311 13.080078 51.617674 12.994009 51.466797 13.037109 z "
       transform="translate(0,796.36216)"
       id="ellipse4838" />
    <path
       style="opacity:1;fill:none;fill-opacity:1;stroke:#000000;stroke-width:2;stroke-linecap:round;stroke-linejoin:round;stroke-miterlimit:4;stroke-dasharray:none;stroke-opacity:1"
       d="M 179.31055 141.19336 C 179.15968 141.23646 179.03167 141.23613 178.90234 141.30078 C 178.77302 141.36548 178.44922 141.49609 178.44922 141.49609 C 178.44922 141.49609 178.38494 141.38764 178.32031 141.71094 C 178.31205 141.75223 178.31153 141.76146 178.30469 141.79492 A 18.837614 17.557388 0 0 0 177.26758 142.01172 C 177.28608 141.94766 177.29039 141.89552 177.19922 141.86133 C 177.02679 141.79663 176.76813 141.66776 176.5957 141.73242 C 176.42327 141.79712 176.27393 141.88266 176.12305 141.92578 C 175.97218 141.96888 175.49617 141.92726 175.47461 142.07812 C 175.45515 142.21471 175.45043 142.38224 175.54297 142.52539 A 18.837614 17.557388 0 0 0 172.80273 143.72852 C 172.72266 143.70892 172.6418 143.68563 172.56445 143.69336 C 172.34891 143.71496 171.96338 143.75743 171.8125 143.86523 C 171.66163 143.973 170.90457 144.36091 170.81836 144.49023 C 170.73617 144.61355 170.73841 144.77542 170.86914 144.90234 A 18.837614 17.557388 0 0 0 167.42188 148 C 167.15568 148.1847 166.91756 148.36086 166.78906 148.52148 C 166.61663 148.73702 166.16497 149.05964 165.88477 149.33984 C 165.60457 149.62004 165.49686 149.85806 165.25977 150.26758 C 165.02267 150.6771 165.0429 150.89321 165.06445 151.30273 C 165.06945 151.39738 165.09004 151.42974 165.11914 151.42969 A 18.837614 17.557388 0 0 0 163.26758 158.97266 A 18.837614 17.557388 0 0 0 164.39062 164.89648 C 164.35488 164.92891 164.32662 164.9549 164.28906 164.98828 C 163.51313 165.678 163.34067 165.50698 162.47852 165.76562 C 162.15521 165.86262 162.01206 166.09144 161.94336 166.41406 C 161.92784 166.48693 161.92146 166.57052 161.91211 166.65234 A 10.729515 11.095294 0 0 0 157.04883 165.43359 A 10.729515 11.095294 0 0 0 146.31836 176.5293 A 10.729515 11.095294 0 0 0 148.94531 183.7793 A 10.729514 11.095294 0 0 0 148.96484 183.80469 A 10.729515 11.095294 0 0 0 149.66992 184.56641 A 10.729514 11.095294 0 0 0 149.73438 184.62695 A 10.729515 11.095294 0 0 0 150.47656 185.2832 A 10.729514 11.095294 0 0 0 150.55859 185.34766 A 10.729515 11.095294 0 0 0 151.31641 185.89453 A 10.729514 11.095294 0 0 0 151.5 186.00977 A 10.729515 11.095294 0 0 0 152.23047 186.42773 A 10.729514 11.095294 0 0 0 152.4668 186.54688 A 10.729515 11.095294 0 0 0 152.71289 186.66992 C 152.6637 186.74093 152.58652 186.86956 152.5625 186.88672 C 152.49282 186.93649 152.44354 187.00075 152.40625 187.07227 C 152.39064 187.10161 152.38387 187.13736 152.37305 187.16992 C 152.35873 187.21448 152.34417 187.25863 152.33789 187.30859 C 152.33087 187.36074 152.3293 187.4172 152.33008 187.47461 C 152.33071 187.50668 152.33125 187.53877 152.33398 187.57227 C 152.33971 187.64627 152.34847 187.72253 152.36328 187.80273 C 152.36416 187.80749 152.36433 187.81163 152.36523 187.81641 C 152.36523 187.81641 152.36719 187.81641 152.36719 187.81641 C 152.47197 188.36906 152.75662 189.04634 152.90625 189.64258 A 6.8278732 7.0107622 0 0 0 153.04883 190.92383 C 153.09071 191.93998 153.02466 193.16673 152.9082 194.21484 C 152.73577 195.76672 153.3379 196.62975 153.94141 198.18164 C 154.06709 198.50483 154.26562 198.92593 154.46875 199.35352 C 157.86554 216.88483 173.20904 229.55151 191.06641 229.56641 C 212.40765 229.30431 211.1812 223.65089 216.01758 220.68359 C 219.46618 221.02839 217.8276 218.6135 219.81055 216.7168 C 221.79349 214.82 221.3633 215.76915 221.9668 215.25195 C 222.5703 214.73455 224.29354 211.20001 224.72461 210.94141 C 225.15569 210.68271 225.32926 210.07952 226.19141 209.04492 C 226.62465 208.52502 226.64271 207.94072 226.58789 207.38867 C 226.56608 207.16679 226.53577 206.95874 226.51172 206.75391 C 226.50616 206.70683 226.49839 206.65123 226.49414 206.60547 C 226.48295 206.48338 226.47725 206.36263 226.48242 206.25195 C 226.48771 206.14141 226.50528 206.03758 226.53711 205.94141 C 226.53711 205.94141 226.53711 205.93945 226.53711 205.93945 C 226.66643 205.5515 226.9685 205.29389 227.32422 204.99219 C 227.6797 204.69069 228.08906 204.34507 228.43359 203.78516 C 229.12331 202.66437 228.77706 201.88783 228.86328 200.33594 C 228.87795 200.07187 228.88556 199.99495 228.89648 199.79688 A 9.5712149 9.9979577 0 0 0 228.89844 199.79492 C 228.9249 199.31515 228.94523 198.96539 228.97656 198.65625 C 229.0082 198.34461 229.05129 198.07284 229.12305 197.75 C 229.25236 197.16805 229.42969 195.95471 229.25586 194.51172 C 229.24398 194.4131 229.22232 194.30962 229.20703 194.20898 A 9.5712149 9.9979577 0 0 0 229.22852 194.16797 A 9.5712147 9.9979582 0 0 0 229.45508 193.75781 A 9.5712149 9.9979577 0 0 0 229.67773 193.27539 A 9.5712147 9.9979582 0 0 0 229.85938 192.85352 A 9.5712149 9.9979577 0 0 0 230.02734 192.375 A 9.5712147 9.9979582 0 0 0 230.17969 191.89258 A 9.5712149 9.9979577 0 0 0 230.29492 191.41602 A 9.5712147 9.9979582 0 0 0 230.39844 190.94336 A 9.5712149 9.9979577 0 0 0 230.47852 190.38477 A 9.5712147 9.9979582 0 0 0 230.52734 189.96094 A 9.5712149 9.9979577 0 0 0 230.57031 189.08789 A 9.5712147 9.9979582 0 0 0 230.52734 188.21484 A 9.5712149 9.9979577 0 0 0 230.48047 187.81055 A 9.5712147 9.9979582 0 0 0 230.39258 187.20703 A 9.5712149 9.9979577 0 0 0 230.3125 186.83594 A 9.5712147 9.9979582 0 0 0 230.16992 186.25195 A 9.5712149 9.9979577 0 0 0 230.05469 185.89062 A 9.5712147 9.9979582 0 0 0 229.83789 185.27344 A 9.5712149 9.9979577 0 0 0 229.73047 185.02148 A 9.5712147 9.9979582 0 0 0 229.42578 184.36523 A 9.5712149 9.9979577 0 0 0 229.26172 184.06641 A 9.5712147 9.9979582 0 0 0 226.98438 181.29883 C 226.98476 181.28038 226.98403 181.25436 226.98438 181.23633 C 226.98438 181.23633 226.98438 181.23438 226.98438 181.23438 C 226.98937 180.97161 226.98964 180.75425 226.9668 180.59375 C 226.9668 180.59375 226.9668 180.5918 226.9668 180.5918 C 226.9238 180.29075 226.85952 180.0333 226.79492 179.79688 C 226.79492 179.79688 226.79492 179.79492 226.79492 179.79492 C 226.73035 179.55869 226.6642 179.34385 226.62109 179.12891 C 226.62109 179.12891 226.62109 179.12695 226.62109 179.12695 C 226.57804 178.91164 226.27698 178.5031 225.96484 178.0293 C 225.96484 178.0293 225.96484 178.02734 225.96484 178.02734 C 225.8089 177.79058 225.65004 177.53802 225.51953 177.28516 C 225.51953 177.28516 225.51953 177.2832 225.51953 177.2832 C 225.51415 177.27277 225.51114 177.26238 225.50586 177.25195 A 8.3519516 8.4738789 0 0 0 225.81055 176.96289 A 8.351952 8.4738788 0 0 0 226.06445 176.68555 A 8.3519516 8.4738789 0 0 0 226.37305 176.33008 A 8.351952 8.4738788 0 0 0 226.60742 176.01562 A 8.3519516 8.4738789 0 0 0 226.85547 175.66602 A 8.351952 8.4738788 0 0 0 227.07422 175.30273 A 8.3519516 8.4738789 0 0 0 227.28906 174.91992 A 8.351952 8.4738788 0 0 0 227.45703 174.57031 A 8.3519516 8.4738789 0 0 0 227.63477 174.16602 A 8.351952 8.4738788 0 0 0 227.77539 173.77539 A 8.3519516 8.4738789 0 0 0 227.91211 173.36133 A 8.351952 8.4738788 0 0 0 228.01367 172.95703 A 8.3519516 8.4738789 0 0 0 228.10352 172.54297 A 8.351952 8.4738788 0 0 0 228.16602 172.12305 A 8.3519516 8.4738789 0 0 0 228.2168 171.70703 A 8.351952 8.4738788 0 0 0 228.25391 170.98242 A 8.3519516 8.4738789 0 0 0 228.2168 170.25 A 8.351952 8.4738788 0 0 0 228.17578 169.90625 A 8.3519516 8.4738789 0 0 0 228.09375 169.36914 A 8.351952 8.4738788 0 0 0 228.04297 169.13281 A 8.3519516 8.4738789 0 0 0 227.89453 168.54883 A 8.351952 8.4738788 0 0 0 227.81836 168.31445 A 8.3519516 8.4738789 0 0 0 227.61133 167.74414 A 8.351952 8.4738788 0 0 0 227.5332 167.56641 A 8.3519516 8.4738789 0 0 0 227.23438 166.94141 A 8.351952 8.4738788 0 0 0 227.02539 166.57422 A 8.351952 8.4738788 0 0 0 227.02148 166.56641 A 8.3519516 8.4738789 0 0 0 219.90234 162.50781 A 8.3519516 8.4738789 0 0 0 216.70508 163.16211 C 216.28725 162.91699 215.86312 162.73261 215.58594 162.57422 C 215.17357 162.33843 214.63831 162.22811 213.67188 162.02539 A 9.6931416 9.0835094 0 0 0 213.6582 161.9375 A 9.6931419 9.0835094 0 0 0 213.56055 161.33203 A 9.6931416 9.0835094 0 0 0 213.49609 161.06641 A 9.6931419 9.0835094 0 0 0 213.32617 160.44531 A 9.6931416 9.0835094 0 0 0 213.24805 160.2207 A 9.6931419 9.0835094 0 0 0 212.98828 159.56055 A 9.6931416 9.0835094 0 0 0 212.92773 159.43359 A 9.6931419 9.0835094 0 0 0 212.57031 158.74219 A 9.6931416 9.0835094 0 0 0 212.49414 158.61719 A 9.6931419 9.0835094 0 0 0 212.05859 157.95508 A 9.6931416 9.0835094 0 0 0 212.00391 157.88086 A 9.6931419 9.0835094 0 0 0 210.79297 156.54492 A 9.6931416 9.0835094 0 0 0 210.56836 156.34766 A 9.6931419 9.0835094 0 0 0 204.05078 153.97266 A 9.6931419 9.0835094 0 0 0 200.34961 154.66797 A 18.837614 17.557388 0 0 0 200.13672 153.93945 A 18.837614 17.557388 0 0 0 199.95898 153.44336 A 18.837614 17.557388 0 0 0 199.49219 152.25586 A 18.837614 17.557388 0 0 0 199.30664 151.87109 A 18.837614 17.557388 0 0 0 198.68164 150.66406 A 18.837614 17.557388 0 0 0 198.46875 150.32031 A 18.837614 17.557388 0 0 0 197.69336 149.14453 A 18.837614 17.557388 0 0 0 197.49219 148.88281 A 18.837614 17.557388 0 0 0 196.55469 147.73438 A 18.837614 17.557388 0 0 0 195.87891 147.01758 A 18.837614 17.557388 0 0 0 194.95898 146.16797 C 195.13751 146.19973 195.27344 146.23047 195.27344 146.23047 C 195.27344 146.23047 195.15052 145.56108 194.8457 145.19531 C 194.54089 144.82953 194.96885 144.70758 193.81055 144.3418 C 192.65225 143.97602 192.65232 143.9149 191.79883 143.79297 C 191.62986 143.76883 191.57629 143.76554 191.46094 143.75 A 18.837614 17.557388 0 0 0 187.48047 142.1543 C 187.54578 142.11334 187.58126 142.04298 187.46875 141.90234 C 187.22491 141.59752 187.65232 141.65903 186.79883 141.53711 C 185.94535 141.41518 185.15289 141.29297 184.78711 141.29297 C 184.42133 141.29297 184.17674 141.29259 183.75 141.35352 C 183.55036 141.38201 183.49219 141.42353 183.36133 141.47266 A 18.837614 17.557388 0 0 0 182.10352 141.41406 A 18.837614 17.557388 0 0 0 179.72461 141.57812 C 179.7218 141.54339 179.69489 141.23633 179.61328 141.23633 C 179.52708 141.23633 179.46143 141.15026 179.31055 141.19336 z "
       transform="translate(0,796.36216)"
       id="ellipse4872" />
    <path
       style="opacity:1;fill:#000000;fill-opacity:0.50196081;stroke:none;stroke-width:2;stroke-linecap:round;stroke-linejoin:round;stroke-miterlimit:4;stroke-dasharray:none;stroke-opacity:1"
       d="M 101.38086 197.16016 C 101.32764 197.30519 101.2467 197.57996 101.20312 197.68164 C 100.54166 199.22504 99.549698 199.66601 98.447266 200.6582 C 97.344834 201.65039 97.455297 200.76736 95.691406 202.53125 C 93.927514 204.29514 93.486112 204.07502 92.273438 205.94922 C 91.060762 207.82332 90.290149 208.15447 89.408203 210.35938 C 88.526257 212.56417 90.620447 211.90191 86.982422 213.44531 C 83.344396 214.98871 82.130209 214.7689 81.46875 216.0918 C 80.80729 217.4147 80.917754 218.73837 79.705078 219.73047 C 78.492403 220.72267 78.161895 221.16231 75.957031 221.38281 C 73.752167 221.60331 72.430341 222.04491 70.115234 223.03711 C 67.800127 224.02931 68.240022 226.0141 64.050781 224.4707 C 59.861539 222.9273 57.215496 222.92732 55.892578 223.47852 C 54.56966 224.02972 53.468317 224.4707 53.027344 224.4707 L 51.923828 224.4707 C 49.498477 224.4707 52.695752 224.91057 48.175781 224.35938 C 46.500894 224.15509 44.708743 223.87892 43.035156 223.60742 C 48.891548 227.38745 55.840777 229.56025 63.222656 229.56641 C 84.563897 229.30431 83.337446 223.65089 88.173828 220.68359 C 91.622425 221.02839 89.983851 218.6135 91.966797 216.7168 C 93.949737 214.82 93.519544 215.76915 94.123047 215.25195 C 94.72655 214.73455 96.44979 211.20001 96.880859 210.94141 C 97.311937 210.68271 97.485501 210.07952 98.347656 209.04492 C 98.780897 208.52502 98.798963 207.94072 98.744141 207.38867 C 98.722336 207.16679 98.692025 206.95874 98.667969 206.75391 C 98.662414 206.70683 98.654635 206.65123 98.650391 206.60547 C 98.639198 206.48338 98.633498 206.36263 98.638672 206.25195 C 98.643962 206.14141 98.659578 206.03758 98.691406 205.94141 L 98.691406 205.93945 C 98.950051 205.16355 99.90013 204.90606 100.58984 203.78516 C 101.27957 202.66437 100.93331 201.88783 101.01953 200.33594 C 101.03425 200.07092 101.04178 199.9935 101.05273 199.79492 C 101.05282 199.79329 101.05264 199.79265 101.05273 199.79102 C 101.05301 199.78598 101.05441 199.78234 101.05469 199.77734 C 101.0806 199.30816 101.10188 198.95904 101.13281 198.6543 L 101.13281 198.65234 C 101.16442 198.34203 101.20582 198.07174 101.27734 197.75 C 101.31144 197.59655 101.3472 197.39404 101.38086 197.16016 z "
       transform="translate(0,796.36216)"
       id="ellipse4906" />
  </g>
</svg>
