<?xml version="1.0" encoding="UTF-8" standalone="no"?>
<!-- Created with Inkscape (http://www.inkscape.org/) -->

<svg
   xmlns:dc="http://purl.org/dc/elements/1.1/"
   xmlns:cc="http://creativecommons.org/ns#"
   xmlns:rdf="http://www.w3.org/1999/02/22-rdf-syntax-ns#"
   xmlns:svg="http://www.w3.org/2000/svg"
   xmlns="http://www.w3.org/2000/svg"
   xmlns:sodipodi="http://sodipodi.sourceforge.net/DTD/sodipodi-0.dtd"
   xmlns:inkscape="http://www.inkscape.org/namespaces/inkscape"
   width="256"
   height="256"
   viewBox="0 0 256 256"
   id="svg4239"
   version="1.1"
   inkscape:version="0.91 r13725"
   sodipodi:docname="wartule.svg"
   inkscape:export-filename="C:\Prog\Projets\teeworlds\zomb_assets\wartule.png"
   inkscape:export-xdpi="90"
   inkscape:export-ydpi="90">
  <title
     id="title5026">wartule</title>
  <defs
     id="defs4241" />
  <sodipodi:namedview
     id="base"
     pagecolor="#ffffff"
     bordercolor="#666666"
     borderopacity="1.0"
     inkscape:pageopacity="0.0"
     inkscape:pageshadow="2"
     inkscape:zoom="3.2070312"
     inkscape:cx="40.927526"
     inkscape:cy="111.13731"
     inkscape:document-units="px"
     inkscape:current-layer="layer1"
     showgrid="false"
     units="px"
     inkscape:window-width="1920"
     inkscape:window-height="1018"
     inkscape:window-x="-8"
     inkscape:window-y="-8"
     inkscape:window-maximized="1" />
  <metadata
     id="metadata4244">
    <rdf:RDF>
      <cc:Work
         rdf:about="">
        <dc:format>image/svg+xml</dc:format>
        <dc:type
           rdf:resource="http://purl.org/dc/dcmitype/StillImage" />
        <dc:title>wartule</dc:title>
      </cc:Work>
    </rdf:RDF>
  </metadata>
  <g
     inkscape:label="Calque 1"
     inkscape:groupmode="layer"
     id="layer1"
     transform="translate(0,-796.36216)">
    <g
       transform="matrix(0.78204295,0,0,0.78204295,141.44186,81.243338)"
       id="layer1-3"
       inkscape:label="Calque 1">
      <ellipse
         ry="10.835567"
         rx="10.679659"
         cy="969.18555"
         cx="100.32643"
         id="path4146"
         style="opacity:1;fill:#c0008e;fill-opacity:1;stroke:none;stroke-width:2;stroke-linecap:round;stroke-linejoin:round;stroke-miterlimit:4;stroke-dasharray:none;stroke-opacity:1" />
      <path
         id="ellipse4188"
         transform="translate(0,924.36216)"
         d="m 109.43164,39.177734 a 10.679659,10.835567 0 0 1 0.36133,2.779297 10.679659,10.835567 0 0 1 -10.679689,10.835938 10.679659,10.835567 0 0 1 -9.103515,-5.189453 10.679659,10.835567 0 0 0 10.316404,8.054687 10.679659,10.835567 0 0 0 10.67969,-10.833984 10.679659,10.835567 0 0 0 -1.57422,-5.646485 z"
         style="opacity:1;fill:#a00076;fill-opacity:1;stroke:none;stroke-width:2;stroke-linecap:round;stroke-linejoin:round;stroke-miterlimit:4;stroke-dasharray:none;stroke-opacity:1"
         inkscape:connector-curvature="0" />
      <path
         sodipodi:nodetypes="ccsssccsssscccccscsssssccscsssssscc"
         inkscape:connector-curvature="0"
         id="path4136"
         transform="translate(0,924.36216)"
         d="m 63.455078,24.322266 c -11.560908,0.02188 -22.720566,4.241015 -31.404297,11.873046 -1.441229,-0.490351 -1.898442,0.131521 -2.835937,0.964844 -0.992189,0.88195 -1.213974,0.661458 -2.316406,0.992188 -1.102432,0.33073 -0.551215,1.872829 -0.992188,3.636718 -0.06478,0.259121 -0.389003,1.01874 -0.824219,1.984376 -3.378506,4.583121 -5.909306,9.73402 -7.472656,15.208984 -1.684908,3.271961 -3.131148,5.99574 -3.388672,6.179687 -0.771702,0.55121 0.110676,2.204424 0.441406,3.527344 0.330729,1.32292 0.220486,3.857417 0,5.841797 -0.220487,1.98439 0.550564,3.087866 1.322266,5.072266 0.160713,0.413267 0.414087,0.953235 0.673828,1.5 4.34348,22.417354 23.96262,38.613794 46.796875,38.632814 27.28909,-0.33512 25.721957,-7.56512 31.90625,-11.35938 4.409728,0.4409 2.314015,-2.64696 4.849612,-5.07226 2.53559,-2.4254 1.98416,-1.21165 2.75586,-1.87305 0.7717,-0.6615 2.97613,-5.181018 3.52734,-5.511718 0.55122,-0.3307 0.77256,-1.102781 1.875,-2.425781 1.10243,-1.3229 0.11068,-2.97655 0.44141,-3.96875 0.33073,-0.9922 1.54383,-1.32266 2.42578,-2.75586 0.88195,-1.4332 0.44053,-2.425756 0.55078,-4.410156 0.11024,-1.9844 0.10959,-2.314441 0.33008,-3.306641 0.22048,-0.9922 0.55099,-3.418613 -0.22071,-6.064453 -0.27339,-0.937344 -0.55838,-2.395334 -0.83984,-3.933593 -0.20905,-3.367396 -0.77471,-6.703116 -1.6875,-9.951172 -0.008,-0.873423 0.0509,-1.57941 -0.008,-1.990235 -0.11025,-0.7717 -0.33116,-1.321837 -0.44141,-1.873047 -0.11024,-0.55122 -1.54318,-2.095913 -1.76367,-3.308593 -0.22049,-1.21267 0.33116,-1.653001 -0.55078,-3.306641 -0.88195,-1.65365 -1.65407,-2.865455 -2.42578,-4.078125 -0.7717,-1.21268 -1.87348,-2.536242 -3.30664,-3.638672 -1.433166,-1.10243 -2.536678,-3.196611 -3.087894,-4.519531 -0.551216,-1.32292 -2.20486,-1.875426 -2.976562,-2.316406 C 94.088939,33.661037 93.639103,33.67729 90.927734,33.0625 82.890652,27.385666 73.294846,24.332827 63.455078,24.322266 Z"
         style="opacity:1;fill:#7d3a5b;fill-opacity:1;stroke:none;stroke-width:2;stroke-linecap:round;stroke-linejoin:round;stroke-miterlimit:4;stroke-dasharray:none;stroke-opacity:1" />
      <path
         id="path4219"
         transform="translate(0,924.36216)"
         d="m 63.455078,24.322266 c -0.176892,3.34e-4 -0.3526,0.01137 -0.529297,0.01367 -2.153147,0.157879 -4.67309,0.38991 -7.402343,0.675781 -8.65809,1.47737 -16.798006,5.31732 -23.472657,11.183593 -1.441229,-0.490349 -1.898442,0.131521 -2.835937,0.964844 -0.992189,0.88195 -1.213975,0.661458 -2.316406,0.992188 -1.102434,0.33073 -0.551215,1.87283 -0.992188,3.636718 -0.06478,0.259122 -0.389003,1.01874 -0.824219,1.984376 -3.378506,4.58312 -5.909306,9.73402 -7.472656,15.208984 -1.684908,3.271961 -3.131148,5.99574 -3.388672,6.179687 -0.771702,0.55121 0.110676,2.204424 0.441406,3.527344 0.330729,1.32292 0.220486,3.857417 0,5.841797 -0.220487,1.98439 0.550564,3.087866 1.322266,5.072266 0.160713,0.413267 0.414087,0.953235 0.673828,1.5 0.198549,1.024741 0.439935,2.031505 0.701172,3.029296 0.01942,-0.004 0.03957,-0.003 0.05859,-0.0098 1.543405,-0.5512 1.984373,-1.323633 2.976562,1.322265 0.992189,2.645802 1.544487,2.75676 2.095703,4.63086 0.551216,1.8741 3.748047,7.05664 3.748047,7.05664 0,0 1.321614,-10.583348 1.652344,-11.90625 0.330729,-1.3229 1.212889,-2.427148 2.205078,0.21875 0.992189,2.645802 2.095268,2.536716 2.646485,1.103516 0.551214,-1.4331 0.771917,-6.283812 1.21289,-6.945312 0.440973,-0.6615 1.54275,0.771484 3.306641,0.771484 1.763891,0 2.756946,-0.992656 1.875,-4.410156 -0.881945,-3.41757 -2.866321,-9.260847 -1.984375,-12.347656 0.881945,-3.086811 0.992621,-5.290572 1.433594,-7.826172 0.440972,-2.53559 1.431637,-2.205515 3.416015,-0.66211 4.789303,3.725012 4.410372,6.945965 5.623047,6.615235 1.212675,-0.33073 2.095917,-6.394102 4.300781,-2.976563 2.204864,3.417541 1.322264,3.307947 2.314453,5.623047 0.992189,2.31511 4.960935,6.723529 6.945313,3.636719 1.984377,-3.08681 2.644313,-6.283193 3.416015,-10.251953 0.771704,-3.96875 -0.6804,-3.425939 2.425782,-4.740235 3.112666,-1.31704 5.07096,3.5267 7.716797,0.88086 2.645837,-2.64584 3.086803,-2.203785 4.960937,1.103515 1.874135,3.3073 4.740885,5.732214 5.402344,3.527344 0.661459,-2.20486 1.213538,-5.402341 3.859375,-6.394531 4.054026,1.538286 3.527344,2.755859 3.527344,2.755859 -1.102432,1.43316 -0.770832,1.322923 -2.09375,2.976563 -1.322919,1.65365 -2.646918,2.09462 -3.087891,3.96875 -0.440973,1.87413 -1.764541,1.21244 -0.662109,5.732422 1.102432,4.519969 2.206379,5.95245 2.537109,7.27539 0.33073,1.3229 0.771484,1.654563 0.771484,4.851563 0,3.1971 2.094837,6.615615 1.212891,9.041015 -0.881945,2.4253 -1.875654,3.307566 0.439453,3.197266 2.315107,-0.1102 4.079209,-3.748034 5.181641,-4.740234 1.102432,-0.992201 5.402565,-2.756735 3.638675,1.322265 -1.763897,4.079 -6.063811,7.055828 -1.433597,6.173828 4.630217,-0.8819 5.843097,-5.291318 7.166017,-5.511719 1.21726,-0.202888 1.85998,2.621924 2.21485,4.285157 1.08412,-1.320581 0.10206,-2.966328 0.43164,-3.955078 0.33073,-0.9922 1.54383,-1.32266 2.42578,-2.75586 0.88195,-1.4332 0.44053,-2.425756 0.55078,-4.410156 0.11024,-1.9844 0.10959,-2.314441 0.33008,-3.306641 0.22048,-0.9922 0.55099,-3.418613 -0.22071,-6.064453 -0.27339,-0.937344 -0.55838,-2.395336 -0.83984,-3.933593 -0.20905,-3.367396 -0.77471,-6.703116 -1.6875,-9.951172 -0.008,-0.873423 0.0513,-1.57941 -0.008,-1.990235 -0.11025,-0.7717 -0.33116,-1.321837 -0.44141,-1.873047 -0.11024,-0.55122 -1.54318,-2.095913 -1.76367,-3.308593 -0.22049,-1.21267 0.33116,-1.653001 -0.55078,-3.306641 -0.88195,-1.65365 -1.65407,-2.865455 -2.42578,-4.078125 -0.7717,-1.21268 -1.87348,-2.536242 -3.30664,-3.638672 -1.433176,-1.10243 -2.536682,-3.196611 -3.087898,-4.519531 C 97.233746,35.065715 95.580102,34.513209 94.8084,34.072229 94.089323,33.661074 93.639103,33.67729 90.927734,33.0625 82.890652,27.385666 73.294846,24.332827 63.455078,24.322266 Z M 41.78125,64.058594 c -0.220486,2.86633 0.22092,4.630205 0.441406,5.953125 0.220486,1.32292 1.324218,3.19813 2.316406,3.08789 0.99219,-0.11025 2.534506,-1.323564 1.873047,-2.646484 -0.66146,-1.32292 -1.654296,-4.189453 -1.654297,-4.189453 L 41.78125,64.058594 Z M 77.5,64.720703 c -2.866323,0.77171 -4.077257,-0.0011 -4.1875,0.880859 -0.110244,0.88194 0.110243,0.440966 0,1.984376 -0.110244,1.5434 1.101128,3.968963 1.652344,4.189453 0.551216,0.22048 3.417534,0.662763 3.96875,-0.660157 0.551216,-1.32292 0.771484,-3.308593 0.771484,-3.308593 L 77.5,64.720703 Z m -13.425781,7.576172 c -0.527531,0.04221 -1.457032,0.802734 -1.457031,0.802734 0.33073,2.42535 0.111759,3.747338 1.544921,3.085938 1.433162,-0.6615 2.094185,-1.984811 1.542969,-2.425781 -0.551216,-0.44098 -0.992621,-1.211151 -1.433594,-1.431641 -0.05512,-0.02756 -0.121904,-0.03728 -0.197265,-0.03125 z M 40.632812,85.945312 c -0.715934,-0.0054 -1.27539,0.382813 -1.27539,0.382813 l -0.220703,1.542969 c 1.874135,1.5434 1.764106,2.424968 2.205078,1.542968 0.440973,-0.881899 1.872831,-1.652534 0.660156,-2.865234 -0.454753,-0.454762 -0.93958,-0.600284 -1.369141,-0.603516 z"
         style="fill:#5c2451;fill-opacity:1;fill-rule:evenodd;stroke:none;stroke-width:1px;stroke-linecap:butt;stroke-linejoin:miter;stroke-opacity:1"
         inkscape:connector-curvature="0" />
      <path
         id="ellipse4201"
         transform="translate(0,924.36216)"
         d="m 63.455078,24.322266 c -11.560908,0.02188 -22.720566,4.241016 -31.404297,11.873046 -0.868137,-0.295366 -1.377465,-0.182059 -1.851562,0.132813 a 24.087698,22.45067 0 0 0 23.58789,17.927734 24.087698,22.45067 0 0 0 18.699219,-8.326171 12.394641,11.615103 0 0 0 7.960938,2.71289 A 12.394641,11.615103 0 0 0 92.84375,37.027344 12.394641,11.615103 0 0 0 92.189453,33.335938 C 91.769474,33.247473 91.564216,33.206819 90.927734,33.0625 82.890652,27.385666 73.294846,24.332827 63.455078,24.322266 Z M 25.984375,41.386719 c -0.0235,0.133711 -0.04391,0.265501 -0.07813,0.402343 -0.06478,0.259122 -0.389003,1.01874 -0.824219,1.984376 -3.378506,4.58312 -5.909306,9.73402 -7.472656,15.208984 -1.684908,3.271961 -3.131148,5.99574 -3.388672,6.179687 -0.326243,0.233029 -0.3503,0.668782 -0.251953,1.1875 a 13.719853,14.187576 0 0 0 3.388672,1.925782 8.7308159,8.9646769 0 0 0 -0.716797,3.552734 8.7308159,8.9646769 0 0 0 8.730469,8.964844 8.7308159,8.9646769 0 0 0 8.730468,-8.964844 8.7308159,8.9646769 0 0 0 -2.640624,-6.410156 13.719853,14.187576 0 0 0 4.419921,-10.414063 13.719853,14.187576 0 0 0 -9.896484,-13.617187 z m 78.722655,17.111328 a 12.238733,12.78441 0 0 0 -12.240233,12.785156 12.238733,12.78441 0 0 0 12.240233,12.785156 12.238733,12.78441 0 0 0 7.12305,-2.40039 c 0.068,-1.233257 0.10425,-1.792402 0.28711,-2.615235 0.22048,-0.9922 0.55099,-3.418613 -0.22071,-6.064453 -0.27339,-0.937344 -0.55838,-2.395336 -0.83984,-3.933593 -0.2001,-3.223225 -0.73679,-6.41517 -1.58203,-9.53125 a 12.238733,12.78441 0 0 0 -4.76758,-1.025391 z"
         style="opacity:1;fill:#590f4a;fill-opacity:1;stroke:none;stroke-width:2;stroke-linecap:round;stroke-linejoin:round;stroke-miterlimit:4;stroke-dasharray:none;stroke-opacity:1"
         inkscape:connector-curvature="0" />
      <ellipse
         ry="22.45067"
         rx="24.087698"
         cy="953.82867"
         cx="51.995129"
         id="path4140"
         style="opacity:1;fill:#93006d;fill-opacity:1;stroke:none;stroke-width:2;stroke-linecap:round;stroke-linejoin:round;stroke-miterlimit:4;stroke-dasharray:none;stroke-opacity:1" />
      <path
         id="ellipse4172"
         transform="translate(0,924.36216)"
         d="M 69.609375,14.179688 A 24.087698,22.45067 0 0 1 71.873047,23.619141 24.087698,22.45067 0 0 1 47.785156,46.070312 24.087698,22.45067 0 0 1 30.169922,38.904297 24.087698,22.45067 0 0 0 51.996094,51.917969 24.087698,22.45067 0 0 0 76.082031,29.466797 24.087698,22.45067 0 0 0 69.609375,14.179688 Z"
         style="opacity:1;fill:#730055;fill-opacity:1;stroke:none;stroke-width:2;stroke-linecap:round;stroke-linejoin:round;stroke-miterlimit:4;stroke-dasharray:none;stroke-opacity:1"
         inkscape:connector-curvature="0" />
      <path
         sodipodi:nodetypes="csccsccsccccssssccscccccccsccscccsssssssscssssccsssssssssscssssssscssssssssscsssssssssssssssssscsssssssscscscssscsssssccsssscscsssscsscscscssssssccsccsc"
         inkscape:connector-curvature="0"
         id="path4234"
         transform="translate(0,924.36216)"
         d="m 48.423828,6.7324219 c -0.192926,0.0551 -0.358072,0.055972 -0.523437,0.1386719 -0.165365,0.0827 -0.578125,0.2480468 -0.578125,0.2480468 0,0 -0.08333,-0.1380193 -0.166016,0.2753906 -0.08268,0.41341 -0.109594,0.4950025 -0.08203,0.6328126 0.02756,0.1377999 0.192709,0.1113249 0.02734,0.359375 -0.165365,0.2480399 -0.469183,0.4134137 -0.662109,0.4960937 -0.192925,0.0827 -0.495659,-0.00152 -0.550781,-0.3046875 -0.05512,-0.30317 -0.05425,-0.3578613 -0.109375,-0.5507812 -0.05512,-0.1929301 0.163844,-0.3587163 -0.05664,-0.4414063 -0.220487,-0.0827 -0.550997,-0.2467425 -0.771484,-0.1640625 -0.220486,0.0827 -0.412544,0.1929169 -0.605469,0.2480469 -0.192926,0.0551 -0.800565,4.394e-4 -0.828125,0.1933593 -0.02756,0.1929301 -0.05403,0.4398825 0.111328,0.6328126 0.165365,0.19293 0.632813,0.1933593 0.88086,0.1933593 0.248048,0 0.414062,0.35851 0.414062,0.46875 0,0.11024 -0.137804,0.5503488 -0.248047,0.6054688 -0.110243,0.0551 -0.19249,0.3309531 -1.046875,0.2207031 C 42.774521,9.874135 42.387804,9.65451 42.001953,9.875 c -0.385852,0.22049 -0.578776,0.523221 -0.744141,0.550781 -0.165365,0.0276 -0.384765,-0.110247 -0.632812,-0.248047 -0.248048,-0.13781 -0.552517,-0.2756065 -0.828125,-0.2480465 -0.275608,0.0276 -0.769966,0.082914 -0.962891,0.2207035 -0.192926,0.1378 -1.159288,0.633468 -1.269531,0.798828 -0.110243,0.16537 -0.108939,0.385411 0.08398,0.550781 0.192925,0.16536 0.551214,0.303826 0.992187,0.166016 0.440973,-0.1378 1.047091,-0.248047 1.515625,-0.248047 0.468534,0 1.046875,0.193359 1.046875,0.193359 0,0 0.750864,0.09735 1.03125,0.105469 -0.07164,0.08254 -0.331564,0.0747 -0.425348,0.196615 -0.275608,0.35829 -0.413626,-0.02757 -1.130207,0.08268 -0.716581,0.11024 -1.047091,0.192933 -1.653429,0.496094 -0.606337,0.30317 -1.074002,0.193147 -1.597657,0.413627 -0.523655,0.22049 -1.48893,1.212674 -2.15039,1.543404 -0.661459,0.33073 -1.212891,0.41341 -1.708985,0.74414 -0.496095,0.33073 -0.935763,0.634547 -1.15625,0.910157 -0.220486,0.27561 -0.799913,0.688585 -1.158203,1.046875 -0.358291,0.35829 -0.495659,0.661897 -0.798828,1.185547 -0.303168,0.52366 -0.27539,0.799267 -0.247829,1.322917 0.02756,0.52368 0.38498,-0.302733 0.715711,-0.605906 0.330729,-0.30317 0.469183,-0.634977 1.268446,-1.131077 0.799263,-0.49609 0.66124,-0.717237 1.515625,-1.654297 0.854385,-0.93711 0.524087,-0.384553 1.681641,-0.908203 1.157552,-0.52366 0.660373,-0.606554 1.128906,-0.964844 0.468534,-0.35829 0.965713,-0.08225 1.406685,-0.385416 0.440973,-0.30317 0.220051,-0.689232 1.239799,-0.882162 1.01975,-0.19292 0.992621,-0.05469 1.764323,-0.275173 0.617243,-0.176358 0.707771,-0.39408 1.190756,-0.224827 -0.363536,0.234574 -1.042844,0.675317 -1.34961,0.859375 -0.389769,0.23386 -0.466898,0.779054 -1.402343,1.558594 -0.935444,0.77953 -1.949733,1.170194 -2.183594,2.183594 -0.233861,1.0134 -1.012918,1.558515 -1.558594,2.416015 -0.545676,0.85749 -0.311163,0.935654 -1.480469,1.871094 -1.169306,0.93545 -1.714843,0.156279 -1.714843,1.949219 0,1.79293 0.232663,2.649049 -0.546876,3.818359 -0.779537,1.16931 -0.935546,2.338503 -0.935546,3.507813 0,1.1693 -0.311061,1.482693 -0.544922,2.496093 -0.233861,1.01339 -0.623455,0.701376 0.07813,2.572266 0.701583,1.87089 2.259765,5.144531 2.259765,5.144531 0,0 -0.623217,-1.559555 -0.701172,-2.884765 -0.07795,-1.32522 3.43e-4,-2.105226 0.15625,-2.884766 0.155908,-0.77954 0.233792,-3.195924 0.857422,-4.365234 0.62363,-1.1693 1.559279,-3.429037 1.871094,-4.910157 0.311815,-1.48112 -0.467962,-1.7146 0.779297,-2.49414 1.24726,-0.77954 2.493899,-1.559896 3.273437,-3.041016 0.779537,-1.48112 0.389288,-2.027441 1.558594,-2.96289 1.169306,-0.93544 2.0282,-2.025216 2.417969,-1.947266 0.389769,0.0779 1.324459,0.154569 0.544922,1.167969 -0.779537,1.01339 -1.714502,1.326035 -1.558594,3.041015 0.155907,1.71498 0.467547,3.586035 -0.07813,4.521485 -0.545676,0.93544 -0.858621,1.48143 -1.404297,2.80664 -0.545676,1.32521 -0.93469,2.96155 -0.544922,4.13086 0.389769,1.1693 0.468338,1.246987 1.169922,3.429687 0.701583,2.1827 1.168655,3.586968 1.480469,4.054688 0.311815,0.46772 1.090871,0.70087 1.558594,2.33789 0.467722,1.63703 0.858964,2.026693 1.560547,3.507813 0.701583,1.48112 2.18164,4.130859 2.18164,4.130859 0,0 7.54e-4,-1.324937 -0.544922,-3.429687 -0.545676,-2.10476 -1.715015,-3.507093 -1.792968,-5.845703 -0.07795,-2.33862 0.622602,-3.898477 -0.46875,-5.691407 -1.091352,-1.79294 -1.480469,-2.025837 -1.480469,-3.117187 0,-1.09136 -0.156148,-0.858821 0.779297,-3.275391 0.935444,-2.41656 1.326001,-5.221665 1.248047,-6.546875 -0.07795,-1.32521 -0.07922,-2.105401 0.310546,-2.96289 0.38977,-0.85749 -0.23232,-1.247707 0.703126,-1.091797 0.935443,0.1559 1.479714,-1.246814 2.02539,1.091797 0.545676,2.33861 0.234306,2.493732 1.091797,3.195312 0.857491,0.70158 0.934622,1.091729 1.402344,1.949219 0.467722,0.85749 1.092413,0.624864 2.261719,2.339843 1.169305,1.71499 0.780324,1.636991 1.248046,2.650391 0.467723,1.0134 0.856154,0.622911 1.167969,2.337891 0.311815,1.71498 -1.169306,2.57312 0,2.96289 1.169306,0.38977 2.728447,0.622056 3.585938,1.947266 0.857491,1.32522 1.247737,2.027208 2.884765,3.742188 1.637028,1.714979 2.338919,1.481352 2.806641,3.664062 0.467722,2.1827 0.544922,3.429688 0.544922,3.429688 0,0 1.637473,-3.195925 1.091797,-4.365235 -0.545676,-1.1693 -2.572198,-4.365331 -3.429688,-5.300781 -0.857491,-0.93544 -2.49551,-2.650148 -3.11914,-3.429688 -0.62363,-0.77954 -1.0907,-0.624513 -1.480469,-2.183593 -0.389768,-1.55907 -0.623149,-3.03916 -1.558594,-3.97461 -0.935444,-0.93544 -1.638432,-1.24723 -2.417969,-2.65039 -0.779537,-1.40317 -0.778371,-2.337988 -1.246094,-3.273438 -0.467722,-0.93544 -1.248217,-2.260796 -1.326171,-2.728515 -0.07795,-0.46772 -0.155732,-1.326852 0.07813,-1.638672 0.233861,-0.31181 -0.311097,-1.636097 2.105468,-0.466797 2.416566,1.16931 2.339021,2.650225 3.742188,2.572265 1.403167,-0.0779 2.571099,-1.246093 3.818359,-1.246093 1.247259,0 1.325349,-0.07807 2.728516,0.857421 1.403167,0.93544 1.481428,0.856839 2.806641,1.480469 1.325214,0.62363 2.183182,0.623494 2.884765,1.714844 0.701583,1.09135 0.856497,1.324491 1.324219,2.337891 0.467722,1.0134 1.248047,2.80664 1.248047,2.80664 0,0 1.091866,-1.713852 0.234375,-3.039062 -0.857491,-1.32521 -4.444216,-6.158543 -4.833985,-6.314453 -0.389768,-0.15591 -0.622394,-0.624242 -2.103515,-1.169922 -1.481121,-0.54567 -1.638363,-0.701687 -3.275391,-0.935547 -1.637028,-0.23386 -0.466589,0.468818 -3.039062,-0.388672 -2.572472,-0.85749 -2.494415,-1.248222 -3.507813,-1.326172 -1.013398,-0.078 -1.716728,0.389635 -2.574219,-0.07813 -0.85749,-0.46772 -1.71313,-1.246434 -0.933593,-1.402344 0.779537,-0.15591 1.557599,-0.625 2.882812,-0.625 1.325213,0 1.793517,-0.15522 3.820313,0.3125 2.026797,0.46773 2.026178,0 3.273437,0 1.24726,0 1.637918,6.8e-4 2.183594,0.3125 0.545676,0.31181 2.260794,1.167969 2.728516,1.167969 0.467723,0 1.091796,0.15625 1.091796,0.15625 0,0 -0.157106,-0.856499 -0.546875,-1.324219 -0.389768,-0.46772 0.156903,-0.624077 -1.324218,-1.091797 -1.48112,-0.467729 -1.480914,-0.545261 -2.572266,-0.701171 -1.091352,-0.1559004 -1.092242,-0.1562504 -2.183594,-0.1562504 -1.091352,0 -1.35e-4,0.3116854 -2.728515,-0.078125 -2.72838,-0.38977 -2.961726,-0.7789568 -4.208985,-0.6230468 -1.247259,0.1559099 -1.948293,0.2324218 -2.416015,0.2324218 -0.467723,0 -1.01494,-0.076737 -0.703125,-0.3105468 0.311815,-0.2338601 0.857352,-0.8574219 1.714843,-0.8574219 0.857491,0 1.403372,0.156125 1.871094,0.078125 0.467723,-0.0779 1.013432,-0.3125 1.792969,-0.3125 l 1.091797,0 c 0,0 0.54619,-8.55e-4 0.234375,-0.390625 -0.311811,-0.38977 0.23393,-0.3108869 -0.857422,-0.4667969 -1.091352,-0.15591 -2.104543,-0.3125 -2.572266,-0.3125 -0.467722,0 -0.780496,2.25e-4 -1.326172,0.078125 -0.545676,0.0779 -0.234065,0.234715 -1.871093,0.390625 -1.637028,0.15591 -1.635794,-5.831e-4 -2.103516,0.6230469 -0.467723,0.62363 -0.390556,0.9357118 -1.248047,1.0136719 -0.857491,0.078 -0.935547,0.234375 -0.935547,0.234375 0,0 -0.07778,-0.31319 0.07813,-0.625 0.155908,-0.3118201 0.701172,-0.6230469 0.701172,-0.6230469 L 48.955078,7.25 c 0,0 -0.03429,-0.4628906 -0.144531,-0.4628906 -0.110243,0 -0.193793,-0.1098275 -0.386719,-0.054687 z"
         style="fill:#c50092;fill-opacity:1;fill-rule:evenodd;stroke:none;stroke-width:1px;stroke-linecap:butt;stroke-linejoin:miter;stroke-opacity:1" />
      <ellipse
         ry="11.615103"
         rx="12.394641"
         cy="959.05157"
         cx="80.058464"
         id="path4142"
         style="opacity:1;fill:#7d005d;fill-opacity:1;stroke:none;stroke-width:2;stroke-linecap:round;stroke-linejoin:round;stroke-miterlimit:4;stroke-dasharray:none;stroke-opacity:1" />
      <ellipse
         ry="12.78441"
         rx="12.238733"
         cy="992.33783"
         cx="101.7296"
         id="path4144"
         style="opacity:1;fill:#ab007e;fill-opacity:1;stroke:none;stroke-width:2;stroke-linecap:round;stroke-linejoin:round;stroke-miterlimit:4;stroke-dasharray:none;stroke-opacity:1" />
      <ellipse
         ry="14.187576"
         rx="13.719853"
         cy="976.27936"
         cx="19.95615"
         id="path4138"
         style="opacity:1;fill:#93006d;fill-opacity:1;stroke:none;stroke-width:2;stroke-linecap:round;stroke-linejoin:round;stroke-miterlimit:4;stroke-dasharray:none;stroke-opacity:1" />
      <ellipse
         ry="8.9646769"
         rx="8.7308159"
         cy="992.88342"
         cx="23.386114"
         id="path4148"
         style="opacity:1;fill:#7d005d;fill-opacity:1;stroke:none;stroke-width:2;stroke-linecap:round;stroke-linejoin:round;stroke-miterlimit:4;stroke-dasharray:none;stroke-opacity:1" />
      <path
         id="ellipse4178"
         transform="translate(0,924.36216)"
         d="m 88.392578,26.111328 a 12.394641,11.615103 0 0 1 1.800781,6.00586 12.394641,11.615103 0 0 1 -12.396484,11.615234 12.394641,11.615103 0 0 1 -8.332031,-3.03711 12.394641,11.615103 0 0 0 10.59375,5.609376 12.394641,11.615103 0 0 0 12.394531,-11.615235 12.394641,11.615103 0 0 0 -4.060547,-8.578125 z"
         style="opacity:1;fill:#66004b;fill-opacity:1;stroke:none;stroke-width:2;stroke-linecap:round;stroke-linejoin:round;stroke-miterlimit:4;stroke-dasharray:none;stroke-opacity:1"
         inkscape:connector-curvature="0" />
      <path
         id="ellipse4183"
         transform="translate(0,924.36216)"
         d="m 111.94727,60.951172 a 12.238733,12.78441 0 0 1 0.36718,3.05664 12.238733,12.78441 0 0 1 -12.23828,12.783204 12.238733,12.78441 0 0 1 -10.216795,-5.75586 12.238733,12.78441 0 0 0 11.871095,9.72461 12.238733,12.78441 0 0 0 12.23828,-12.783204 12.238733,12.78441 0 0 0 -2.02148,-7.02539 z"
         style="opacity:1;fill:#8c0067;fill-opacity:1;stroke:none;stroke-width:2;stroke-linecap:round;stroke-linejoin:round;stroke-miterlimit:4;stroke-dasharray:none;stroke-opacity:1"
         inkscape:connector-curvature="0" />
      <path
         id="ellipse4193"
         transform="translate(0,924.36216)"
         d="m 28.951172,41.216797 a 13.719853,14.187576 0 0 1 2.519531,8.164062 13.719853,14.187576 0 0 1 -13.71875,14.1875 13.719853,14.187576 0 0 1 -8.9921874,-3.482421 13.719853,14.187576 0 0 0 11.1972654,6.019531 13.719853,14.187576 0 0 0 13.71875,-14.1875 13.719853,14.187576 0 0 0 -4.724609,-10.701172 z"
         style="opacity:1;fill:#7b005b;fill-opacity:1;stroke:none;stroke-width:2;stroke-linecap:round;stroke-linejoin:round;stroke-miterlimit:4;stroke-dasharray:none;stroke-opacity:1"
         inkscape:connector-curvature="0" />
      <path
         id="ellipse4198"
         transform="translate(0,924.36216)"
         d="m 27.660156,60.708984 a 8.7308159,8.9646769 0 0 1 1.921875,5.607422 8.7308159,8.9646769 0 0 1 -8.732422,8.964844 8.7308159,8.9646769 0 0 1 -4.273437,-1.152344 8.7308159,8.9646769 0 0 0 6.810547,3.357422 8.7308159,8.9646769 0 0 0 8.730469,-8.964844 8.7308159,8.9646769 0 0 0 -4.457032,-7.8125 z"
         style="opacity:1;fill:#66004c;fill-opacity:1;stroke:none;stroke-width:2;stroke-linecap:round;stroke-linejoin:round;stroke-miterlimit:4;stroke-dasharray:none;stroke-opacity:1"
         inkscape:connector-curvature="0" />
    </g>
    <path
       style="opacity:1;fill:#000000;fill-opacity:1;stroke:#000000;stroke-width:8;stroke-linecap:round;stroke-linejoin:round;stroke-miterlimit:4;stroke-dasharray:none;stroke-opacity:1"
       d="M 51.466797 13.037109 C 51.315921 13.080209 51.187917 13.081834 51.058594 13.146484 C 50.929272 13.211184 50.605469 13.339844 50.605469 13.339844 C 50.605469 13.339844 50.541224 13.231387 50.476562 13.554688 C 50.468304 13.595982 50.467775 13.605212 50.460938 13.638672 A 18.837614 17.557388 0 0 0 49.423828 13.855469 C 49.441918 13.79219 49.445821 13.738966 49.355469 13.705078 C 49.183039 13.640378 48.924384 13.511512 48.751953 13.576172 C 48.579524 13.640872 48.428219 13.726411 48.277344 13.769531 C 48.126467 13.812631 47.652412 13.771005 47.630859 13.921875 C 47.61137 14.058326 47.605036 14.22608 47.697266 14.369141 A 18.837614 17.557388 0 0 0 44.960938 15.572266 C 44.880222 15.552341 44.798669 15.529314 44.720703 15.537109 C 44.505165 15.558709 44.117673 15.603138 43.966797 15.710938 C 43.815921 15.818707 43.060823 16.204664 42.974609 16.333984 C 42.892396 16.457304 42.894682 16.61917 43.025391 16.746094 A 18.837614 17.557388 0 0 0 39.574219 19.845703 C 39.309589 20.029472 39.073234 20.205331 38.945312 20.365234 C 38.772883 20.580774 38.319261 20.903394 38.039062 21.183594 C 37.758863 21.463794 37.651154 21.701808 37.414062 22.111328 C 37.176972 22.520848 37.199149 22.736964 37.220703 23.146484 C 37.225698 23.2414 37.246154 23.275662 37.275391 23.275391 A 18.837614 17.557388 0 0 0 35.421875 30.816406 A 18.837614 17.557388 0 0 0 36.546875 36.740234 C 36.51106 36.772725 36.482952 36.798574 36.445312 36.832031 C 35.669378 37.521751 35.49496 37.350735 34.632812 37.609375 C 34.236854 37.728165 34.117255 38.052635 34.066406 38.496094 A 10.729515 11.095294 0 0 0 29.205078 37.277344 A 10.729515 11.095294 0 0 0 18.474609 48.373047 A 10.729515 11.095294 0 0 0 21.808594 56.392578 A 10.729514 11.095294 0 0 0 21.912109 56.492188 A 10.729515 11.095294 0 0 0 22.611328 57.111328 A 10.729514 11.095294 0 0 0 22.740234 57.212891 A 10.729515 11.095294 0 0 0 23.478516 57.742188 A 10.729514 11.095294 0 0 0 23.642578 57.845703 A 10.729515 11.095294 0 0 0 24.392578 58.277344 A 10.729514 11.095294 0 0 0 24.611328 58.386719 A 10.729515 11.095294 0 0 0 24.869141 58.515625 C 24.820157 58.586275 24.742696 58.715316 24.71875 58.732422 C 24.64907 58.782193 24.59979 58.844502 24.5625 58.916016 C 24.546873 58.945392 24.540126 58.98108 24.529297 59.013672 C 24.51498 59.05823 24.500419 59.102378 24.494141 59.152344 C 24.487124 59.204488 24.485547 59.260949 24.486328 59.318359 C 24.486958 59.350434 24.487499 59.382521 24.490234 59.416016 C 24.495965 59.490016 24.504719 59.566279 24.519531 59.646484 C 24.52041 59.65124 24.520579 59.655383 24.521484 59.660156 C 24.521484 59.660156 24.523438 59.660156 24.523438 59.660156 C 24.628231 60.212809 24.912899 60.890094 25.0625 61.486328 A 6.8278732 7.0107622 0 0 0 25.205078 62.767578 C 25.246956 63.783731 25.180909 65.010485 25.064453 66.058594 C 24.892023 67.610474 25.494152 68.473501 26.097656 70.025391 C 26.22334 70.348581 26.421872 70.771629 26.625 71.199219 C 30.021788 88.730559 45.365288 101.39529 63.222656 101.41016 C 84.563897 101.14808 83.337446 95.494614 88.173828 92.527344 C 91.622425 92.872144 89.983851 90.457237 91.966797 88.560547 C 93.949737 86.663787 93.519544 87.612943 94.123047 87.095703 C 94.72655 86.578383 96.44979 83.043776 96.880859 82.785156 C 97.311937 82.526536 97.485501 81.923322 98.347656 80.888672 C 98.994267 80.112752 98.718997 79.188784 98.650391 78.449219 C 98.627882 78.203684 98.626971 77.978469 98.691406 77.785156 C 98.950051 77.009216 99.900126 76.749736 100.58984 75.628906 C 101.27957 74.508086 100.93331 73.731578 101.01953 72.179688 C 101.0342 71.915618 101.04181 71.838698 101.05273 71.640625 C 101.10593 70.676165 101.1343 70.23724 101.27734 69.59375 C 101.36355 69.20578 101.47169 68.539012 101.48242 67.708984 C 101.48242 67.708984 101.48242 67.707031 101.48242 67.707031 C 101.48779 67.292018 101.47005 66.838418 101.41211 66.357422 C 101.40019 66.258441 101.37864 66.153751 101.36328 66.052734 A 9.5712149 9.9979577 0 0 0 101.37891 66.023438 A 9.5712147 9.9979582 0 0 0 101.61328 65.599609 A 9.5712149 9.9979577 0 0 0 101.82617 65.136719 A 9.5712147 9.9979582 0 0 0 102.01758 64.689453 A 9.5712149 9.9979577 0 0 0 102.17969 64.226562 A 9.5712147 9.9979582 0 0 0 102.33594 63.736328 A 9.5712149 9.9979577 0 0 0 102.45117 63.259766 A 9.5712147 9.9979582 0 0 0 102.55469 62.787109 A 9.5712149 9.9979577 0 0 0 102.63477 62.228516 A 9.5712147 9.9979582 0 0 0 102.68359 61.804688 A 9.5712149 9.9979577 0 0 0 102.72656 60.933594 A 9.5712149 9.9979577 0 0 0 102.72656 60.931641 A 9.5712147 9.9979582 0 0 0 102.68555 60.085938 A 9.5712149 9.9979577 0 0 0 102.62891 59.599609 A 9.5712147 9.9979582 0 0 0 102.55078 59.070312 A 9.5712149 9.9979577 0 0 0 102.46289 58.662109 A 9.5712147 9.9979582 0 0 0 102.32422 58.09375 A 9.5712149 9.9979577 0 0 0 102.21289 57.740234 A 9.5712147 9.9979582 0 0 0 101.99023 57.109375 A 9.5712149 9.9979577 0 0 0 101.89453 56.886719 A 9.5712147 9.9979582 0 0 0 101.58203 56.207031 A 9.5712149 9.9979577 0 0 0 101.4375 55.945312 A 9.5712147 9.9979582 0 0 0 99.140625 53.142578 C 99.146625 52.854446 99.147844 52.609122 99.123047 52.4375 C 99.036827 51.834 98.863564 51.403726 98.777344 50.972656 C 98.711801 50.64492 98.05026 49.868026 97.660156 49.097656 A 8.351952 8.4738788 0 0 0 97.673828 49.085938 A 8.3519516 8.4738789 0 0 0 97.966797 48.806641 A 8.351952 8.4738788 0 0 0 98.230469 48.519531 A 8.3519516 8.4738789 0 0 0 98.521484 48.183594 A 8.351952 8.4738788 0 0 0 98.763672 47.859375 A 8.3519516 8.4738789 0 0 0 99.017578 47.501953 A 8.351952 8.4738788 0 0 0 99.230469 47.146484 A 8.3519516 8.4738789 0 0 0 99.441406 46.775391 A 8.351952 8.4738788 0 0 0 99.621094 46.396484 A 8.3519516 8.4738789 0 0 0 99.791016 46.011719 A 8.351952 8.4738788 0 0 0 99.931641 45.619141 A 8.3519516 8.4738789 0 0 0 100.06836 45.205078 A 8.351952 8.4738788 0 0 0 100.16992 44.800781 A 8.3519516 8.4738789 0 0 0 100.25977 44.386719 A 8.351952 8.4738788 0 0 0 100.32227 43.966797 A 8.3519516 8.4738789 0 0 0 100.37305 43.550781 A 8.351952 8.4738788 0 0 0 100.4043 42.933594 A 8.3519516 8.4738789 0 0 0 100.41016 42.826172 A 8.3519516 8.4738789 0 0 0 100.36914 42.070312 A 8.351952 8.4738788 0 0 0 100.33203 41.761719 A 8.3519516 8.4738789 0 0 0 100.25391 41.232422 A 8.351952 8.4738788 0 0 0 100.19141 40.947266 A 8.3519516 8.4738789 0 0 0 100.05078 40.392578 A 8.351952 8.4738788 0 0 0 99.978516 40.169922 A 8.3519516 8.4738789 0 0 0 99.759766 39.570312 A 8.351952 8.4738788 0 0 0 99.699219 39.431641 A 8.3519516 8.4738789 0 0 0 99.398438 38.800781 A 8.351952 8.4738788 0 0 0 99.177734 38.412109 A 8.3519516 8.4738789 0 0 0 92.056641 34.351562 A 8.3519516 8.4738789 0 0 0 88.861328 35.005859 C 88.443424 34.760665 88.019429 34.576393 87.742188 34.417969 C 87.330096 34.182343 86.794956 34.073477 85.830078 33.871094 A 9.6931416 9.0835094 0 0 0 85.810547 33.755859 A 9.6931419 9.0835094 0 0 0 85.716797 33.175781 A 9.6931416 9.0835094 0 0 0 85.652344 32.910156 A 9.6931419 9.0835094 0 0 0 85.482422 32.289062 A 9.6931416 9.0835094 0 0 0 85.404297 32.064453 A 9.6931419 9.0835094 0 0 0 85.144531 31.40625 A 9.6931416 9.0835094 0 0 0 85.082031 31.273438 A 9.6931419 9.0835094 0 0 0 84.720703 30.576172 A 9.6931416 9.0835094 0 0 0 84.667969 30.490234 A 9.6931419 9.0835094 0 0 0 82.949219 28.388672 A 9.6931416 9.0835094 0 0 0 82.724609 28.191406 A 9.6931419 9.0835094 0 0 0 76.207031 25.816406 A 9.6931419 9.0835094 0 0 0 72.505859 26.511719 A 18.837614 17.557388 0 0 0 72.292969 25.785156 A 18.837614 17.557388 0 0 0 72.111328 25.279297 A 18.837614 17.557388 0 0 0 71.652344 24.107422 A 18.837614 17.557388 0 0 0 71.458984 23.705078 A 18.837614 17.557388 0 0 0 70.830078 22.498047 A 18.837614 17.557388 0 0 0 70.640625 22.1875 A 18.837614 17.557388 0 0 0 69.849609 20.988281 A 18.837614 17.557388 0 0 0 69.648438 20.726562 A 18.837614 17.557388 0 0 0 68.710938 19.578125 A 18.837614 17.557388 0 0 0 68.035156 18.861328 A 18.837614 17.557388 0 0 0 67.115234 18.011719 C 67.293725 18.043477 67.429688 18.074219 67.429688 18.074219 C 67.429688 18.074219 67.306769 17.404832 67.001953 17.039062 C 66.697138 16.673283 67.123144 16.551327 65.964844 16.185547 C 64.806544 15.819767 64.806609 15.758649 63.953125 15.636719 C 63.78512 15.612719 63.732113 15.609248 63.617188 15.59375 A 18.837614 17.557388 0 0 0 59.636719 13.998047 C 59.701231 13.956924 59.736846 13.885904 59.625 13.746094 C 59.38115 13.441274 59.808562 13.502779 58.955078 13.380859 C 58.101594 13.258929 57.309139 13.136719 56.943359 13.136719 C 56.577581 13.136719 56.332992 13.136336 55.90625 13.197266 C 55.708903 13.225429 55.649094 13.268009 55.521484 13.316406 A 18.837614 17.557388 0 0 0 54.259766 13.259766 A 18.837614 17.557388 0 0 0 51.880859 13.421875 C 51.878022 13.38681 51.851074 13.080078 51.769531 13.080078 C 51.683311 13.080078 51.617674 12.994009 51.466797 13.037109 z "
       transform="translate(0,796.36216)"
       id="ellipse4838" />
    <path
       style="opacity:1;fill:none;fill-opacity:1;stroke:#000000;stroke-width:2;stroke-linecap:round;stroke-linejoin:round;stroke-miterlimit:4;stroke-dasharray:none;stroke-opacity:1"
       d="M 179.31055 141.19336 C 179.15968 141.23646 179.03167 141.23613 178.90234 141.30078 C 178.77302 141.36548 178.44922 141.49609 178.44922 141.49609 C 178.44922 141.49609 178.38494 141.38764 178.32031 141.71094 C 178.31205 141.75223 178.31153 141.76146 178.30469 141.79492 A 18.837614 17.557388 0 0 0 177.26758 142.01172 C 177.28608 141.94766 177.29039 141.89552 177.19922 141.86133 C 177.02679 141.79663 176.76813 141.66776 176.5957 141.73242 C 176.42327 141.79712 176.27393 141.88266 176.12305 141.92578 C 175.97218 141.96888 175.49617 141.92726 175.47461 142.07812 C 175.45515 142.21471 175.45043 142.38224 175.54297 142.52539 A 18.837614 17.557388 0 0 0 172.80273 143.72852 C 172.72266 143.70892 172.6418 143.68563 172.56445 143.69336 C 172.34891 143.71496 171.96338 143.75743 171.8125 143.86523 C 171.66163 143.973 170.90457 144.36091 170.81836 144.49023 C 170.73617 144.61355 170.73841 144.77542 170.86914 144.90234 A 18.837614 17.557388 0 0 0 167.42188 148 C 167.15568 148.1847 166.91756 148.36086 166.78906 148.52148 C 166.61663 148.73702 166.16497 149.05964 165.88477 149.33984 C 165.60457 149.62004 165.49686 149.85806 165.25977 150.26758 C 165.02267 150.6771 165.0429 150.89321 165.06445 151.30273 C 165.06945 151.39738 165.09004 151.42974 165.11914 151.42969 A 18.837614 17.557388 0 0 0 163.26758 158.97266 A 18.837614 17.557388 0 0 0 164.39062 164.89648 C 164.35488 164.92891 164.32662 164.9549 164.28906 164.98828 C 163.51313 165.678 163.34067 165.50698 162.47852 165.76562 C 162.15521 165.86262 162.01206 166.09144 161.94336 166.41406 C 161.92784 166.48693 161.92146 166.57052 161.91211 166.65234 A 10.729515 11.095294 0 0 0 157.04883 165.43359 A 10.729515 11.095294 0 0 0 146.31836 176.5293 A 10.729515 11.095294 0 0 0 148.94531 183.7793 A 10.729514 11.095294 0 0 0 148.96484 183.80469 A 10.729515 11.095294 0 0 0 149.66992 184.56641 A 10.729514 11.095294 0 0 0 149.73438 184.62695 A 10.729515 11.095294 0 0 0 150.47656 185.2832 A 10.729514 11.095294 0 0 0 150.55859 185.34766 A 10.729515 11.095294 0 0 0 151.31641 185.89453 A 10.729514 11.095294 0 0 0 151.5 186.00977 A 10.729515 11.095294 0 0 0 152.23047 186.42773 A 10.729514 11.095294 0 0 0 152.4668 186.54688 A 10.729515 11.095294 0 0 0 152.71289 186.66992 C 152.6637 186.74093 152.58652 186.86956 152.5625 186.88672 C 152.49282 186.93649 152.44354 187.00075 152.40625 187.07227 C 152.39064 187.10161 152.38387 187.13736 152.37305 187.16992 C 152.35873 187.21448 152.34417 187.25863 152.33789 187.30859 C 152.33087 187.36074 152.3293 187.4172 152.33008 187.47461 C 152.33071 187.50668 152.33125 187.53877 152.33398 187.57227 C 152.33971 187.64627 152.34847 187.72253 152.36328 187.80273 C 152.36416 187.80749 152.36433 187.81163 152.36523 187.81641 C 152.36523 187.81641 152.36719 187.81641 152.36719 187.81641 C 152.47197 188.36906 152.75662 189.04634 152.90625 189.64258 A 6.8278732 7.0107622 0 0 0 153.04883 190.92383 C 153.09071 191.93998 153.02466 193.16673 152.9082 194.21484 C 152.73577 195.76672 153.3379 196.62975 153.94141 198.18164 C 154.06709 198.50483 154.26562 198.92593 154.46875 199.35352 C 157.86554 216.88483 173.20904 229.55151 191.06641 229.56641 C 212.40765 229.30431 211.1812 223.65089 216.01758 220.68359 C 219.46618 221.02839 217.8276 218.6135 219.81055 216.7168 C 221.79349 214.82 221.3633 215.76915 221.9668 215.25195 C 222.5703 214.73455 224.29354 211.20001 224.72461 210.94141 C 225.15569 210.68271 225.32926 210.07952 226.19141 209.04492 C 226.62465 208.52502 226.64271 207.94072 226.58789 207.38867 C 226.56608 207.16679 226.53577 206.95874 226.51172 206.75391 C 226.50616 206.70683 226.49839 206.65123 226.49414 206.60547 C 226.48295 206.48338 226.47725 206.36263 226.48242 206.25195 C 226.48771 206.14141 226.50528 206.03758 226.53711 205.94141 C 226.53711 205.94141 226.53711 205.93945 226.53711 205.93945 C 226.66643 205.5515 226.9685 205.29389 227.32422 204.99219 C 227.6797 204.69069 228.08906 204.34507 228.43359 203.78516 C 229.12331 202.66437 228.77706 201.88783 228.86328 200.33594 C 228.87795 200.07187 228.88556 199.99495 228.89648 199.79688 A 9.5712149 9.9979577 0 0 0 228.89844 199.79492 C 228.9249 199.31515 228.94523 198.96539 228.97656 198.65625 C 229.0082 198.34461 229.05129 198.07284 229.12305 197.75 C 229.25236 197.16805 229.42969 195.95471 229.25586 194.51172 C 229.24398 194.4131 229.22232 194.30962 229.20703 194.20898 A 9.5712149 9.9979577 0 0 0 229.22852 194.16797 A 9.5712147 9.9979582 0 0 0 229.45508 193.75781 A 9.5712149 9.9979577 0 0 0 229.67773 193.27539 A 9.5712147 9.9979582 0 0 0 229.85938 192.85352 A 9.5712149 9.9979577 0 0 0 230.02734 192.375 A 9.5712147 9.9979582 0 0 0 230.17969 191.89258 A 9.5712149 9.9979577 0 0 0 230.29492 191.41602 A 9.5712147 9.9979582 0 0 0 230.39844 190.94336 A 9.5712149 9.9979577 0 0 0 230.47852 190.38477 A 9.5712147 9.9979582 0 0 0 230.52734 189.96094 A 9.5712149 9.9979577 0 0 0 230.57031 189.08789 A 9.5712147 9.9979582 0 0 0 230.52734 188.21484 A 9.5712149 9.9979577 0 0 0 230.48047 187.81055 A 9.5712147 9.9979582 0 0 0 230.39258 187.20703 A 9.5712149 9.9979577 0 0 0 230.3125 186.83594 A 9.5712147 9.9979582 0 0 0 230.16992 186.25195 A 9.5712149 9.9979577 0 0 0 230.05469 185.89062 A 9.5712147 9.9979582 0 0 0 229.83789 185.27344 A 9.5712149 9.9979577 0 0 0 229.73047 185.02148 A 9.5712147 9.9979582 0 0 0 229.42578 184.36523 A 9.5712149 9.9979577 0 0 0 229.26172 184.06641 A 9.5712147 9.9979582 0 0 0 226.98438 181.29883 C 226.98476 181.28038 226.98403 181.25436 226.98438 181.23633 C 226.98438 181.23633 226.98438 181.23438 226.98438 181.23438 C 226.98937 180.97161 226.98964 180.75425 226.9668 180.59375 C 226.9668 180.59375 226.9668 180.5918 226.9668 180.5918 C 226.9238 180.29075 226.85952 180.0333 226.79492 179.79688 C 226.79492 179.79688 226.79492 179.79492 226.79492 179.79492 C 226.73035 179.55869 226.6642 179.34385 226.62109 179.12891 C 226.62109 179.12891 226.62109 179.12695 226.62109 179.12695 C 226.57804 178.91164 226.27698 178.5031 225.96484 178.0293 C 225.96484 178.0293 225.96484 178.02734 225.96484 178.02734 C 225.8089 177.79058 225.65004 177.53802 225.51953 177.28516 C 225.51953 177.28516 225.51953 177.2832 225.51953 177.2832 C 225.51415 177.27277 225.51114 177.26238 225.50586 177.25195 A 8.3519516 8.4738789 0 0 0 225.81055 176.96289 A 8.351952 8.4738788 0 0 0 226.06445 176.68555 A 8.3519516 8.4738789 0 0 0 226.37305 176.33008 A 8.351952 8.4738788 0 0 0 226.60742 176.01562 A 8.3519516 8.4738789 0 0 0 226.85547 175.66602 A 8.351952 8.4738788 0 0 0 227.07422 175.30273 A 8.3519516 8.4738789 0 0 0 227.28906 174.91992 A 8.351952 8.4738788 0 0 0 227.45703 174.57031 A 8.3519516 8.4738789 0 0 0 227.63477 174.16602 A 8.351952 8.4738788 0 0 0 227.77539 173.77539 A 8.3519516 8.4738789 0 0 0 227.91211 173.36133 A 8.351952 8.4738788 0 0 0 228.01367 172.95703 A 8.3519516 8.4738789 0 0 0 228.10352 172.54297 A 8.351952 8.4738788 0 0 0 228.16602 172.12305 A 8.3519516 8.4738789 0 0 0 228.2168 171.70703 A 8.351952 8.4738788 0 0 0 228.25391 170.98242 A 8.3519516 8.4738789 0 0 0 228.2168 170.25 A 8.351952 8.4738788 0 0 0 228.17578 169.90625 A 8.3519516 8.4738789 0 0 0 228.09375 169.36914 A 8.351952 8.4738788 0 0 0 228.04297 169.13281 A 8.3519516 8.4738789 0 0 0 227.89453 168.54883 A 8.351952 8.4738788 0 0 0 227.81836 168.31445 A 8.3519516 8.4738789 0 0 0 227.61133 167.74414 A 8.351952 8.4738788 0 0 0 227.5332 167.56641 A 8.3519516 8.4738789 0 0 0 227.23438 166.94141 A 8.351952 8.4738788 0 0 0 227.02539 166.57422 A 8.351952 8.4738788 0 0 0 227.02148 166.56641 A 8.3519516 8.4738789 0 0 0 219.90234 162.50781 A 8.3519516 8.4738789 0 0 0 216.70508 163.16211 C 216.28725 162.91699 215.86312 162.73261 215.58594 162.57422 C 215.17357 162.33843 214.63831 162.22811 213.67188 162.02539 A 9.6931416 9.0835094 0 0 0 213.6582 161.9375 A 9.6931419 9.0835094 0 0 0 213.56055 161.33203 A 9.6931416 9.0835094 0 0 0 213.49609 161.06641 A 9.6931419 9.0835094 0 0 0 213.32617 160.44531 A 9.6931416 9.0835094 0 0 0 213.24805 160.2207 A 9.6931419 9.0835094 0 0 0 212.98828 159.56055 A 9.6931416 9.0835094 0 0 0 212.92773 159.43359 A 9.6931419 9.0835094 0 0 0 212.57031 158.74219 A 9.6931416 9.0835094 0 0 0 212.49414 158.61719 A 9.6931419 9.0835094 0 0 0 212.05859 157.95508 A 9.6931416 9.0835094 0 0 0 212.00391 157.88086 A 9.6931419 9.0835094 0 0 0 210.79297 156.54492 A 9.6931416 9.0835094 0 0 0 210.56836 156.34766 A 9.6931419 9.0835094 0 0 0 204.05078 153.97266 A 9.6931419 9.0835094 0 0 0 200.34961 154.66797 A 18.837614 17.557388 0 0 0 200.13672 153.93945 A 18.837614 17.557388 0 0 0 199.95898 153.44336 A 18.837614 17.557388 0 0 0 199.49219 152.25586 A 18.837614 17.557388 0 0 0 199.30664 151.87109 A 18.837614 17.557388 0 0 0 198.68164 150.66406 A 18.837614 17.557388 0 0 0 198.46875 150.32031 A 18.837614 17.557388 0 0 0 197.69336 149.14453 A 18.837614 17.557388 0 0 0 197.49219 148.88281 A 18.837614 17.557388 0 0 0 196.55469 147.73438 A 18.837614 17.557388 0 0 0 195.87891 147.01758 A 18.837614 17.557388 0 0 0 194.95898 146.16797 C 195.13751 146.19973 195.27344 146.23047 195.27344 146.23047 C 195.27344 146.23047 195.15052 145.56108 194.8457 145.19531 C 194.54089 144.82953 194.96885 144.70758 193.81055 144.3418 C 192.65225 143.97602 192.65232 143.9149 191.79883 143.79297 C 191.62986 143.76883 191.57629 143.76554 191.46094 143.75 A 18.837614 17.557388 0 0 0 187.48047 142.1543 C 187.54578 142.11334 187.58126 142.04298 187.46875 141.90234 C 187.22491 141.59752 187.65232 141.65903 186.79883 141.53711 C 185.94535 141.41518 185.15289 141.29297 184.78711 141.29297 C 184.42133 141.29297 184.17674 141.29259 183.75 141.35352 C 183.55036 141.38201 183.49219 141.42353 183.36133 141.47266 A 18.837614 17.557388 0 0 0 182.10352 141.41406 A 18.837614 17.557388 0 0 0 179.72461 141.57812 C 179.7218 141.54339 179.69489 141.23633 179.61328 141.23633 C 179.52708 141.23633 179.46143 141.15026 179.31055 141.19336 z "
       transform="translate(0,796.36216)"
       id="ellipse4872" />
    <path
       style="opacity:1;fill:#000000;fill-opacity:0.50196081;stroke:none;stroke-width:2;stroke-linecap:round;stroke-linejoin:round;stroke-miterlimit:4;stroke-dasharray:none;stroke-opacity:1"
       d="M 101.38086 197.16016 C 101.32764 197.30519 101.2467 197.57996 101.20312 197.68164 C 100.54166 199.22504 99.549698 199.66601 98.447266 200.6582 C 97.344834 201.65039 97.455297 200.76736 95.691406 202.53125 C 93.927514 204.29514 93.486112 204.07502 92.273438 205.94922 C 91.060762 207.82332 90.290149 208.15447 89.408203 210.35938 C 88.526257 212.56417 90.620447 211.90191 86.982422 213.44531 C 83.344396 214.98871 82.130209 214.7689 81.46875 216.0918 C 80.80729 217.4147 80.917754 218.73837 79.705078 219.73047 C 78.492403 220.72267 78.161895 221.16231 75.957031 221.38281 C 73.752167 221.60331 72.430341 222.04491 70.115234 223.03711 C 67.800127 224.02931 68.240022 226.0141 64.050781 224.4707 C 59.861539 222.9273 57.215496 222.92732 55.892578 223.47852 C 54.56966 224.02972 53.468317 224.4707 53.027344 224.4707 L 51.923828 224.4707 C 49.498477 224.4707 52.695752 224.91057 48.175781 224.35938 C 46.500894 224.15509 44.708743 223.87892 43.035156 223.60742 C 48.891548 227.38745 55.840777 229.56025 63.222656 229.56641 C 84.563897 229.30431 83.337446 223.65089 88.173828 220.68359 C 91.622425 221.02839 89.983851 218.6135 91.966797 216.7168 C 93.949737 214.82 93.519544 215.76915 94.123047 215.25195 C 94.72655 214.73455 96.44979 211.20001 96.880859 210.94141 C 97.311937 210.68271 97.485501 210.07952 98.347656 209.04492 C 98.780897 208.52502 98.798963 207.94072 98.744141 207.38867 C 98.722336 207.16679 98.692025 206.95874 98.667969 206.75391 C 98.662414 206.70683 98.654635 206.65123 98.650391 206.60547 C 98.639198 206.48338 98.633498 206.36263 98.638672 206.25195 C 98.643962 206.14141 98.659578 206.03758 98.691406 205.94141 L 98.691406 205.93945 C 98.950051 205.16355 99.90013 204.90606 100.58984 203.78516 C 101.27957 202.66437 100.93331 201.88783 101.01953 200.33594 C 101.03425 200.07092 101.04178 199.9935 101.05273 199.79492 C 101.05282 199.79329 101.05264 199.79265 101.05273 199.79102 C 101.05301 199.78598 101.05441 199.78234 101.05469 199.77734 C 101.0806 199.30816 101.10188 198.95904 101.13281 198.6543 L 101.13281 198.65234 C 101.16442 198.34203 101.20582 198.07174 101.27734 197.75 C 101.31144 197.59655 101.3472 197.39404 101.38086 197.16016 z "
       transform="translate(0,796.36216)"
       id="ellipse4906" />
  </g>
</svg>
