<?xml version="1.0" encoding="UTF-8" standalone="no"?>
<!-- Created with Inkscape (http://www.inkscape.org/) -->

<svg
   xmlns:dc="http://purl.org/dc/elements/1.1/"
   xmlns:cc="http://creativecommons.org/ns#"
   xmlns:rdf="http://www.w3.org/1999/02/22-rdf-syntax-ns#"
   xmlns:svg="http://www.w3.org/2000/svg"
   xmlns="http://www.w3.org/2000/svg"
   xmlns:sodipodi="http://sodipodi.sourceforge.net/DTD/sodipodi-0.dtd"
   xmlns:inkscape="http://www.inkscape.org/namespaces/inkscape"
   width="128"
   height="128"
   viewBox="0 0 128 128"
   id="svg2"
   version="1.1"
   inkscape:version="0.91 r13725"
   sodipodi:docname="wartule_head.svg">
  <defs
     id="defs4" />
  <sodipodi:namedview
     id="base"
     pagecolor="#ffffff"
     bordercolor="#666666"
     borderopacity="1.0"
     inkscape:pageopacity="0.0"
     inkscape:pageshadow="2"
     inkscape:zoom="6.4140625"
     inkscape:cx="51.472048"
     inkscape:cy="65.683288"
     inkscape:document-units="px"
     inkscape:current-layer="layer1"
     showgrid="false"
     units="px"
     inkscape:window-width="1920"
     inkscape:window-height="1018"
     inkscape:window-x="-8"
     inkscape:window-y="-8"
     inkscape:window-maximized="1" />
  <metadata
     id="metadata7">
    <rdf:RDF>
      <cc:Work
         rdf:about="">
        <dc:format>image/svg+xml</dc:format>
        <dc:type
           rdf:resource="http://purl.org/dc/dcmitype/StillImage" />
        <dc:title></dc:title>
      </cc:Work>
    </rdf:RDF>
  </metadata>
  <g
     inkscape:label="Calque 1"
     inkscape:groupmode="layer"
     id="layer1"
     transform="translate(0,-924.36216)">
    <ellipse
       style="opacity:1;fill:#c0008e;fill-opacity:1;stroke:none;stroke-width:2;stroke-linecap:round;stroke-linejoin:round;stroke-miterlimit:4;stroke-dasharray:none;stroke-opacity:1"
       id="path4146"
       cx="100.32643"
       cy="969.18555"
       rx="10.679659"
       ry="10.835567" />
    <path
       style="opacity:1;fill:#a00076;fill-opacity:1;stroke:none;stroke-width:2;stroke-linecap:round;stroke-linejoin:round;stroke-miterlimit:4;stroke-dasharray:none;stroke-opacity:1"
       d="M 109.43164 39.177734 A 10.679659 10.835567 0 0 1 109.79297 41.957031 A 10.679659 10.835567 0 0 1 99.113281 52.792969 A 10.679659 10.835567 0 0 1 90.009766 47.603516 A 10.679659 10.835567 0 0 0 100.32617 55.658203 A 10.679659 10.835567 0 0 0 111.00586 44.824219 A 10.679659 10.835567 0 0 0 109.43164 39.177734 z "
       transform="translate(0,924.36216)"
       id="ellipse4188" />
    <path
       style="opacity:1;fill:#7d3a5b;fill-opacity:1;stroke:none;stroke-width:2;stroke-linecap:round;stroke-linejoin:round;stroke-miterlimit:4;stroke-dasharray:none;stroke-opacity:1"
       d="m 63.455078,24.322266 c -11.560908,0.02188 -22.720566,4.241015 -31.404297,11.873046 -1.441229,-0.490351 -1.898442,0.131521 -2.835937,0.964844 -0.992189,0.88195 -1.213974,0.661458 -2.316406,0.992188 -1.102432,0.33073 -0.551215,1.872829 -0.992188,3.636718 -0.06478,0.259121 -0.389003,1.01874 -0.824219,1.984376 -3.378506,4.583121 -5.909306,9.73402 -7.472656,15.208984 -1.684908,3.271961 -3.131148,5.99574 -3.388672,6.179687 -0.771702,0.55121 0.110676,2.204424 0.441406,3.527344 0.330729,1.32292 0.220486,3.857417 0,5.841797 -0.220487,1.98439 0.550564,3.087866 1.322266,5.072266 0.160713,0.413267 0.414087,0.953235 0.673828,1.5 4.34348,22.417354 23.96262,38.613794 46.796875,38.632814 27.28909,-0.33512 25.721957,-7.56512 31.90625,-11.35938 4.409728,0.4409 2.314015,-2.64696 4.849612,-5.07226 2.53559,-2.4254 1.98416,-1.21165 2.75586,-1.87305 0.7717,-0.6615 2.97613,-5.181018 3.52734,-5.511718 0.55122,-0.3307 0.77256,-1.102781 1.875,-2.425781 1.10243,-1.3229 0.11068,-2.97655 0.44141,-3.96875 0.33073,-0.9922 1.54383,-1.32266 2.42578,-2.75586 0.88195,-1.4332 0.44053,-2.425756 0.55078,-4.410156 0.11024,-1.9844 0.10959,-2.314441 0.33008,-3.306641 0.22048,-0.9922 0.55099,-3.418613 -0.22071,-6.064453 -0.27339,-0.937344 -0.55838,-2.395334 -0.83984,-3.933593 -0.20905,-3.367396 -0.77471,-6.703116 -1.6875,-9.951172 -0.008,-0.873423 0.0509,-1.57941 -0.008,-1.990235 -0.11025,-0.7717 -0.33116,-1.321837 -0.44141,-1.873047 -0.11024,-0.55122 -1.54318,-2.095913 -1.76367,-3.308593 -0.22049,-1.21267 0.33116,-1.653001 -0.55078,-3.306641 -0.88195,-1.65365 -1.65407,-2.865455 -2.42578,-4.078125 -0.7717,-1.21268 -1.87348,-2.536242 -3.30664,-3.638672 -1.433166,-1.10243 -2.536678,-3.196611 -3.087894,-4.519531 -0.551216,-1.32292 -2.20486,-1.875426 -2.976562,-2.316406 C 94.088939,33.661037 93.639103,33.67729 90.927734,33.0625 82.890652,27.385666 73.294846,24.332827 63.455078,24.322266 Z"
       transform="translate(0,924.36216)"
       id="path4136"
       inkscape:connector-curvature="0"
       sodipodi:nodetypes="ccsssccsssscccccscsssssccscsssssscc" />
    <path
       style="fill:#5c2451;fill-opacity:1;fill-rule:evenodd;stroke:none;stroke-width:1px;stroke-linecap:butt;stroke-linejoin:miter;stroke-opacity:1"
       d="M 63.455078 24.322266 C 63.278186 24.3226 63.102478 24.333637 62.925781 24.335938 C 60.772634 24.493817 58.252691 24.725848 55.523438 25.011719 C 46.865348 26.489089 38.725432 30.329039 32.050781 36.195312 C 30.609552 35.704963 30.152339 36.326833 29.214844 37.160156 C 28.222655 38.042106 28.000869 37.821614 26.898438 38.152344 C 25.796004 38.483074 26.347223 40.025174 25.90625 41.789062 C 25.84147 42.048184 25.517247 42.807802 25.082031 43.773438 C 21.703525 48.356558 19.172725 53.507458 17.609375 58.982422 C 15.924467 62.254383 14.478227 64.978162 14.220703 65.162109 C 13.449001 65.713319 14.331379 67.366533 14.662109 68.689453 C 14.992838 70.012373 14.882595 72.54687 14.662109 74.53125 C 14.441622 76.51564 15.212673 77.619116 15.984375 79.603516 C 16.145088 80.016783 16.398462 80.556751 16.658203 81.103516 C 16.856752 82.128257 17.098138 83.135021 17.359375 84.132812 C 17.378795 84.128812 17.398949 84.129847 17.417969 84.123047 C 18.961374 83.571847 19.402342 82.799414 20.394531 85.445312 C 21.38672 88.091114 21.939018 88.202072 22.490234 90.076172 C 23.04145 91.950272 26.238281 97.132812 26.238281 97.132812 C 26.238281 97.132812 27.559895 86.549464 27.890625 85.226562 C 28.221354 83.903662 29.103514 82.799414 30.095703 85.445312 C 31.087892 88.091114 32.190971 87.982028 32.742188 86.548828 C 33.293402 85.115728 33.514105 80.265016 33.955078 79.603516 C 34.396051 78.942016 35.497828 80.375 37.261719 80.375 C 39.02561 80.375 40.018665 79.382344 39.136719 75.964844 C 38.254774 72.547274 36.270398 66.703997 37.152344 63.617188 C 38.034289 60.530377 38.144965 58.326616 38.585938 55.791016 C 39.02691 53.255426 40.017575 53.585501 42.001953 55.128906 C 46.791256 58.853918 46.412325 62.074871 47.625 61.744141 C 48.837675 61.413411 49.720917 55.350039 51.925781 58.767578 C 54.130645 62.185119 53.248045 62.075525 54.240234 64.390625 C 55.232423 66.705735 59.201169 71.114154 61.185547 68.027344 C 63.169924 64.940534 63.82986 61.744151 64.601562 57.775391 C 65.373266 53.806641 63.921162 54.349452 67.027344 53.035156 C 70.14001 51.718116 72.098304 56.561856 74.744141 53.916016 C 77.389978 51.270176 77.830944 51.712231 79.705078 55.019531 C 81.579213 58.326831 84.445963 60.751745 85.107422 58.546875 C 85.768881 56.342015 86.32096 53.144534 88.966797 52.152344 C 93.020823 53.69063 92.494141 54.908203 92.494141 54.908203 C 91.391709 56.341363 91.723309 56.231126 90.400391 57.884766 C 89.077472 59.538416 87.753473 59.979386 87.3125 61.853516 C 86.871527 63.727646 85.547959 63.065956 86.650391 67.585938 C 87.752823 72.105907 88.85677 73.538388 89.1875 74.861328 C 89.51823 76.184228 89.958984 76.515891 89.958984 79.712891 C 89.958984 82.909991 92.053821 86.328506 91.171875 88.753906 C 90.28993 91.179206 89.296221 92.061472 91.611328 91.951172 C 93.926435 91.840972 95.690537 88.203138 96.792969 87.210938 C 97.895401 86.218737 102.19553 84.454203 100.43164 88.533203 C 98.667747 92.612203 94.367833 95.589031 98.998047 94.707031 C 103.62826 93.825131 104.84114 89.415713 106.16406 89.195312 C 107.38132 88.992424 108.02404 91.817236 108.37891 93.480469 C 109.46303 92.159888 108.48097 90.514141 108.81055 89.525391 C 109.14128 88.533191 110.35438 88.202731 111.23633 86.769531 C 112.11828 85.336331 111.67686 84.343775 111.78711 82.359375 C 111.89735 80.374975 111.8967 80.044934 112.11719 79.052734 C 112.33767 78.060534 112.66818 75.634121 111.89648 72.988281 C 111.62309 72.050937 111.3381 70.592945 111.05664 69.054688 C 110.84759 65.687292 110.28193 62.351572 109.36914 59.103516 C 109.36114 58.230093 109.42043 57.524106 109.36133 57.113281 C 109.25108 56.341581 109.03017 55.791444 108.91992 55.240234 C 108.80968 54.689014 107.37674 53.144321 107.15625 51.931641 C 106.93576 50.718971 107.48741 50.27864 106.60547 48.625 C 105.72352 46.97135 104.9514 45.759545 104.17969 44.546875 C 103.40799 43.334195 102.30621 42.010633 100.87305 40.908203 C 99.439878 39.805773 98.336372 37.711592 97.785156 36.388672 C 97.23394 35.065752 95.580296 34.513246 94.808594 34.072266 C 94.089323 33.661074 93.639103 33.67729 90.927734 33.0625 C 82.890652 27.385666 73.294846 24.332827 63.455078 24.322266 z M 41.78125 64.058594 C 41.560764 66.924924 42.00217 68.688799 42.222656 70.011719 C 42.443142 71.334639 43.546874 73.209849 44.539062 73.099609 C 45.531252 72.989359 47.073568 71.776045 46.412109 70.453125 C 45.750649 69.130205 44.757813 66.263672 44.757812 66.263672 L 41.78125 64.058594 z M 77.5 64.720703 C 74.633677 65.492413 73.422743 64.719613 73.3125 65.601562 C 73.202256 66.483502 73.422743 66.042528 73.3125 67.585938 C 73.202256 69.129338 74.413628 71.554901 74.964844 71.775391 C 75.51606 71.995871 78.382378 72.438154 78.933594 71.115234 C 79.48481 69.792314 79.705078 67.806641 79.705078 67.806641 L 77.5 64.720703 z M 64.074219 72.296875 C 63.546688 72.339082 62.617187 73.099609 62.617188 73.099609 C 62.947918 75.524959 62.728947 76.846947 64.162109 76.185547 C 65.595271 75.524047 66.256294 74.200736 65.705078 73.759766 C 65.153862 73.318786 64.712457 72.548615 64.271484 72.328125 C 64.216363 72.300565 64.14958 72.290845 64.074219 72.296875 z M 40.632812 85.945312 C 39.916878 85.939927 39.357422 86.328125 39.357422 86.328125 L 39.136719 87.871094 C 41.010854 89.414494 40.900825 90.296062 41.341797 89.414062 C 41.78277 88.532163 43.214628 87.761528 42.001953 86.548828 C 41.5472 86.094066 41.062373 85.948544 40.632812 85.945312 z "
       transform="translate(0,924.36216)"
       id="path4219" />
    <path
       style="opacity:1;fill:#590f4a;fill-opacity:1;stroke:none;stroke-width:2;stroke-linecap:round;stroke-linejoin:round;stroke-miterlimit:4;stroke-dasharray:none;stroke-opacity:1"
       d="M 63.455078 24.322266 C 51.89417 24.344146 40.734512 28.563282 32.050781 36.195312 C 31.182644 35.899946 30.673316 36.013253 30.199219 36.328125 A 24.087698 22.45067 0 0 0 53.787109 54.255859 A 24.087698 22.45067 0 0 0 72.486328 45.929688 A 12.394641 11.615103 0 0 0 80.447266 48.642578 A 12.394641 11.615103 0 0 0 92.84375 37.027344 A 12.394641 11.615103 0 0 0 92.189453 33.335938 C 91.769474 33.247473 91.564216 33.206819 90.927734 33.0625 C 82.890652 27.385666 73.294846 24.332827 63.455078 24.322266 z M 25.984375 41.386719 C 25.960872 41.52043 25.940461 41.65222 25.90625 41.789062 C 25.84147 42.048184 25.517247 42.807802 25.082031 43.773438 C 21.703525 48.356558 19.172725 53.507458 17.609375 58.982422 C 15.924467 62.254383 14.478227 64.978162 14.220703 65.162109 C 13.89446 65.395138 13.870403 65.830891 13.96875 66.349609 A 13.719853 14.187576 0 0 0 17.357422 68.275391 A 8.7308159 8.9646769 0 0 0 16.640625 71.828125 A 8.7308159 8.9646769 0 0 0 25.371094 80.792969 A 8.7308159 8.9646769 0 0 0 34.101562 71.828125 A 8.7308159 8.9646769 0 0 0 31.460938 65.417969 A 13.719853 14.187576 0 0 0 35.880859 55.003906 A 13.719853 14.187576 0 0 0 25.984375 41.386719 z M 104.70703 58.498047 A 12.238733 12.78441 0 0 0 92.466797 71.283203 A 12.238733 12.78441 0 0 0 104.70703 84.068359 A 12.238733 12.78441 0 0 0 111.83008 81.667969 C 111.89813 80.434712 111.93433 79.875567 112.11719 79.052734 C 112.33767 78.060534 112.66818 75.634121 111.89648 72.988281 C 111.62309 72.050937 111.3381 70.592945 111.05664 69.054688 C 110.85654 65.831463 110.31985 62.639518 109.47461 59.523438 A 12.238733 12.78441 0 0 0 104.70703 58.498047 z "
       transform="translate(0,924.36216)"
       id="ellipse4201" />
    <ellipse
       style="opacity:1;fill:#93006d;fill-opacity:1;stroke:none;stroke-width:2;stroke-linecap:round;stroke-linejoin:round;stroke-miterlimit:4;stroke-dasharray:none;stroke-opacity:1"
       id="path4140"
       cx="51.995129"
       cy="953.82867"
       rx="24.087698"
       ry="22.45067" />
    <path
       style="opacity:1;fill:#730055;fill-opacity:1;stroke:none;stroke-width:2;stroke-linecap:round;stroke-linejoin:round;stroke-miterlimit:4;stroke-dasharray:none;stroke-opacity:1"
       d="M 69.609375 14.179688 A 24.087698 22.45067 0 0 1 71.873047 23.619141 A 24.087698 22.45067 0 0 1 47.785156 46.070312 A 24.087698 22.45067 0 0 1 30.169922 38.904297 A 24.087698 22.45067 0 0 0 51.996094 51.917969 A 24.087698 22.45067 0 0 0 76.082031 29.466797 A 24.087698 22.45067 0 0 0 69.609375 14.179688 z "
       transform="translate(0,924.36216)"
       id="ellipse4172" />
    <path
       style="fill:#c50092;fill-opacity:1;fill-rule:evenodd;stroke:none;stroke-width:1px;stroke-linecap:butt;stroke-linejoin:miter;stroke-opacity:1"
       d="m 48.423828,6.7324219 c -0.192926,0.0551 -0.358072,0.055972 -0.523437,0.1386719 -0.165365,0.0827 -0.578125,0.2480468 -0.578125,0.2480468 0,0 -0.08333,-0.1380193 -0.166016,0.2753906 -0.08268,0.41341 -0.109594,0.4950025 -0.08203,0.6328126 0.02756,0.1377999 0.192709,0.1113249 0.02734,0.359375 -0.165365,0.2480399 -0.469183,0.4134137 -0.662109,0.4960937 -0.192925,0.0827 -0.495659,-0.00152 -0.550781,-0.3046875 -0.05512,-0.30317 -0.05425,-0.3578613 -0.109375,-0.5507812 -0.05512,-0.1929301 0.163844,-0.3587163 -0.05664,-0.4414063 -0.220487,-0.0827 -0.550997,-0.2467425 -0.771484,-0.1640625 -0.220486,0.0827 -0.412544,0.1929169 -0.605469,0.2480469 -0.192926,0.0551 -0.800565,4.394e-4 -0.828125,0.1933593 -0.02756,0.1929301 -0.05403,0.4398825 0.111328,0.6328126 0.165365,0.19293 0.632813,0.1933593 0.88086,0.1933593 0.248048,0 0.414062,0.35851 0.414062,0.46875 0,0.11024 -0.137804,0.5503488 -0.248047,0.6054688 -0.110243,0.0551 -0.19249,0.3309531 -1.046875,0.2207031 C 42.774521,9.874135 42.387804,9.65451 42.001953,9.875 c -0.385852,0.22049 -0.578776,0.523221 -0.744141,0.550781 -0.165365,0.0276 -0.384765,-0.110247 -0.632812,-0.248047 -0.248048,-0.13781 -0.552517,-0.2756065 -0.828125,-0.2480465 -0.275608,0.0276 -0.769966,0.082914 -0.962891,0.2207035 -0.192926,0.1378 -1.159288,0.633468 -1.269531,0.798828 -0.110243,0.16537 -0.108939,0.385411 0.08398,0.550781 0.192925,0.16536 0.551214,0.303826 0.992187,0.166016 0.440973,-0.1378 1.047091,-0.248047 1.515625,-0.248047 0.468534,0 1.046875,0.193359 1.046875,0.193359 0,0 0.750864,0.09735 1.03125,0.105469 -0.07164,0.08254 -0.331564,0.0747 -0.425348,0.196615 -0.275608,0.35829 -0.413626,-0.02757 -1.130207,0.08268 -0.716581,0.11024 -1.047091,0.192933 -1.653429,0.496094 -0.606337,0.30317 -1.074002,0.193147 -1.597657,0.413627 -0.523655,0.22049 -1.48893,1.212674 -2.15039,1.543404 -0.661459,0.33073 -1.212891,0.41341 -1.708985,0.74414 -0.496095,0.33073 -0.935763,0.634547 -1.15625,0.910157 -0.220486,0.27561 -0.799913,0.688585 -1.158203,1.046875 -0.358291,0.35829 -0.495659,0.661897 -0.798828,1.185547 -0.303168,0.52366 -0.27539,0.799267 -0.247829,1.322917 0.02756,0.52368 0.38498,-0.302733 0.715711,-0.605906 0.330729,-0.30317 0.469183,-0.634977 1.268446,-1.131077 0.799263,-0.49609 0.66124,-0.717237 1.515625,-1.654297 0.854385,-0.93711 0.524087,-0.384553 1.681641,-0.908203 1.157552,-0.52366 0.660373,-0.606554 1.128906,-0.964844 0.468534,-0.35829 0.965713,-0.08225 1.406685,-0.385416 0.440973,-0.30317 0.220051,-0.689232 1.239799,-0.882162 1.01975,-0.19292 0.992621,-0.05469 1.764323,-0.275173 0.617243,-0.176358 0.707771,-0.39408 1.190756,-0.224827 -0.363536,0.234574 -1.042844,0.675317 -1.34961,0.859375 -0.389769,0.23386 -0.466898,0.779054 -1.402343,1.558594 -0.935444,0.77953 -1.949733,1.170194 -2.183594,2.183594 -0.233861,1.0134 -1.012918,1.558515 -1.558594,2.416015 -0.545676,0.85749 -0.311163,0.935654 -1.480469,1.871094 -1.169306,0.93545 -1.714843,0.156279 -1.714843,1.949219 0,1.79293 0.232663,2.649049 -0.546876,3.818359 -0.779537,1.16931 -0.935546,2.338503 -0.935546,3.507813 0,1.1693 -0.311061,1.482693 -0.544922,2.496093 -0.233861,1.01339 -0.623455,0.701376 0.07813,2.572266 0.701583,1.87089 2.259765,5.144531 2.259765,5.144531 0,0 -0.623217,-1.559555 -0.701172,-2.884765 -0.07795,-1.32522 3.43e-4,-2.105226 0.15625,-2.884766 0.155908,-0.77954 0.233792,-3.195924 0.857422,-4.365234 0.62363,-1.1693 1.559279,-3.429037 1.871094,-4.910157 0.311815,-1.48112 -0.467962,-1.7146 0.779297,-2.49414 1.24726,-0.77954 2.493899,-1.559896 3.273437,-3.041016 0.779537,-1.48112 0.389288,-2.027441 1.558594,-2.96289 1.169306,-0.93544 2.0282,-2.025216 2.417969,-1.947266 0.389769,0.0779 1.324459,0.154569 0.544922,1.167969 -0.779537,1.01339 -1.714502,1.326035 -1.558594,3.041015 0.155907,1.71498 0.467547,3.586035 -0.07813,4.521485 -0.545676,0.93544 -0.858621,1.48143 -1.404297,2.80664 -0.545676,1.32521 -0.93469,2.96155 -0.544922,4.13086 0.389769,1.1693 0.468338,1.246987 1.169922,3.429687 0.701583,2.1827 1.168655,3.586968 1.480469,4.054688 0.311815,0.46772 1.090871,0.70087 1.558594,2.33789 0.467722,1.63703 0.858964,2.026693 1.560547,3.507813 0.701583,1.48112 2.18164,4.130859 2.18164,4.130859 0,0 7.54e-4,-1.324937 -0.544922,-3.429687 -0.545676,-2.10476 -1.715015,-3.507093 -1.792968,-5.845703 -0.07795,-2.33862 0.622602,-3.898477 -0.46875,-5.691407 -1.091352,-1.79294 -1.480469,-2.025837 -1.480469,-3.117187 0,-1.09136 -0.156148,-0.858821 0.779297,-3.275391 0.935444,-2.41656 1.326001,-5.221665 1.248047,-6.546875 -0.07795,-1.32521 -0.07922,-2.105401 0.310546,-2.96289 0.38977,-0.85749 -0.23232,-1.247707 0.703126,-1.091797 0.935443,0.1559 1.479714,-1.246814 2.02539,1.091797 0.545676,2.33861 0.234306,2.493732 1.091797,3.195312 0.857491,0.70158 0.934622,1.091729 1.402344,1.949219 0.467722,0.85749 1.092413,0.624864 2.261719,2.339843 1.169305,1.71499 0.780324,1.636991 1.248046,2.650391 0.467723,1.0134 0.856154,0.622911 1.167969,2.337891 0.311815,1.71498 -1.169306,2.57312 0,2.96289 1.169306,0.38977 2.728447,0.622056 3.585938,1.947266 0.857491,1.32522 1.247737,2.027208 2.884765,3.742188 1.637028,1.714979 2.338919,1.481352 2.806641,3.664062 0.467722,2.1827 0.544922,3.429688 0.544922,3.429688 0,0 1.637473,-3.195925 1.091797,-4.365235 -0.545676,-1.1693 -2.572198,-4.365331 -3.429688,-5.300781 -0.857491,-0.93544 -2.49551,-2.650148 -3.11914,-3.429688 -0.62363,-0.77954 -1.0907,-0.624513 -1.480469,-2.183593 -0.389768,-1.55907 -0.623149,-3.03916 -1.558594,-3.97461 -0.935444,-0.93544 -1.638432,-1.24723 -2.417969,-2.65039 -0.779537,-1.40317 -0.778371,-2.337988 -1.246094,-3.273438 -0.467722,-0.93544 -1.248217,-2.260796 -1.326171,-2.728515 -0.07795,-0.46772 -0.155732,-1.326852 0.07813,-1.638672 0.233861,-0.31181 -0.311097,-1.636097 2.105468,-0.466797 2.416566,1.16931 2.339021,2.650225 3.742188,2.572265 1.403167,-0.0779 2.571099,-1.246093 3.818359,-1.246093 1.247259,0 1.325349,-0.07807 2.728516,0.857421 1.403167,0.93544 1.481428,0.856839 2.806641,1.480469 1.325214,0.62363 2.183182,0.623494 2.884765,1.714844 0.701583,1.09135 0.856497,1.324491 1.324219,2.337891 0.467722,1.0134 1.248047,2.80664 1.248047,2.80664 0,0 1.091866,-1.713852 0.234375,-3.039062 -0.857491,-1.32521 -4.444216,-6.158543 -4.833985,-6.314453 -0.389768,-0.15591 -0.622394,-0.624242 -2.103515,-1.169922 -1.481121,-0.54567 -1.638363,-0.701687 -3.275391,-0.935547 -1.637028,-0.23386 -0.466589,0.468818 -3.039062,-0.388672 -2.572472,-0.85749 -2.494415,-1.248222 -3.507813,-1.326172 -1.013398,-0.078 -1.716728,0.389635 -2.574219,-0.07813 -0.85749,-0.46772 -1.71313,-1.246434 -0.933593,-1.402344 0.779537,-0.15591 1.557599,-0.625 2.882812,-0.625 1.325213,0 1.793517,-0.15522 3.820313,0.3125 2.026797,0.46773 2.026178,0 3.273437,0 1.24726,0 1.637918,6.8e-4 2.183594,0.3125 0.545676,0.31181 2.260794,1.167969 2.728516,1.167969 0.467723,0 1.091796,0.15625 1.091796,0.15625 0,0 -0.157106,-0.856499 -0.546875,-1.324219 -0.389768,-0.46772 0.156903,-0.624077 -1.324218,-1.091797 -1.48112,-0.467729 -1.480914,-0.545261 -2.572266,-0.701171 -1.091352,-0.1559004 -1.092242,-0.1562504 -2.183594,-0.1562504 -1.091352,0 -1.35e-4,0.3116854 -2.728515,-0.078125 -2.72838,-0.38977 -2.961726,-0.7789568 -4.208985,-0.6230468 -1.247259,0.1559099 -1.948293,0.2324218 -2.416015,0.2324218 -0.467723,0 -1.01494,-0.076737 -0.703125,-0.3105468 0.311815,-0.2338601 0.857352,-0.8574219 1.714843,-0.8574219 0.857491,0 1.403372,0.156125 1.871094,0.078125 0.467723,-0.0779 1.013432,-0.3125 1.792969,-0.3125 l 1.091797,0 c 0,0 0.54619,-8.55e-4 0.234375,-0.390625 -0.311811,-0.38977 0.23393,-0.3108869 -0.857422,-0.4667969 -1.091352,-0.15591 -2.104543,-0.3125 -2.572266,-0.3125 -0.467722,0 -0.780496,2.25e-4 -1.326172,0.078125 -0.545676,0.0779 -0.234065,0.234715 -1.871093,0.390625 -1.637028,0.15591 -1.635794,-5.831e-4 -2.103516,0.6230469 -0.467723,0.62363 -0.390556,0.9357118 -1.248047,1.0136719 -0.857491,0.078 -0.935547,0.234375 -0.935547,0.234375 0,0 -0.07778,-0.31319 0.07813,-0.625 0.155908,-0.3118201 0.701172,-0.6230469 0.701172,-0.6230469 L 48.955078,7.25 c 0,0 -0.03429,-0.4628906 -0.144531,-0.4628906 -0.110243,0 -0.193793,-0.1098275 -0.386719,-0.054687 z"
       transform="translate(0,924.36216)"
       id="path4234"
       inkscape:connector-curvature="0"
       sodipodi:nodetypes="csccsccsccccssssccscccccccsccscccsssssssscssssccsssssssssscssssssscssssssssscsssssssssssssssssscsssssssscscscssscsssssccsssscscsssscsscscscssssssccsccsc" />
    <ellipse
       style="opacity:1;fill:#7d005d;fill-opacity:1;stroke:none;stroke-width:2;stroke-linecap:round;stroke-linejoin:round;stroke-miterlimit:4;stroke-dasharray:none;stroke-opacity:1"
       id="path4142"
       cx="80.058464"
       cy="959.05157"
       rx="12.394641"
       ry="11.615103" />
    <ellipse
       style="opacity:1;fill:#ab007e;fill-opacity:1;stroke:none;stroke-width:2;stroke-linecap:round;stroke-linejoin:round;stroke-miterlimit:4;stroke-dasharray:none;stroke-opacity:1"
       id="path4144"
       cx="101.7296"
       cy="992.33783"
       rx="12.238733"
       ry="12.78441" />
    <ellipse
       style="opacity:1;fill:#93006d;fill-opacity:1;stroke:none;stroke-width:2;stroke-linecap:round;stroke-linejoin:round;stroke-miterlimit:4;stroke-dasharray:none;stroke-opacity:1"
       id="path4138"
       cx="19.95615"
       cy="976.27936"
       rx="13.719853"
       ry="14.187576" />
    <ellipse
       style="opacity:1;fill:#7d005d;fill-opacity:1;stroke:none;stroke-width:2;stroke-linecap:round;stroke-linejoin:round;stroke-miterlimit:4;stroke-dasharray:none;stroke-opacity:1"
       id="path4148"
       cx="23.386114"
       cy="992.88342"
       rx="8.7308159"
       ry="8.9646769" />
    <path
       style="opacity:1;fill:#66004b;fill-opacity:1;stroke:none;stroke-width:2;stroke-linecap:round;stroke-linejoin:round;stroke-miterlimit:4;stroke-dasharray:none;stroke-opacity:1"
       d="M 88.392578 26.111328 A 12.394641 11.615103 0 0 1 90.193359 32.117188 A 12.394641 11.615103 0 0 1 77.796875 43.732422 A 12.394641 11.615103 0 0 1 69.464844 40.695312 A 12.394641 11.615103 0 0 0 80.058594 46.304688 A 12.394641 11.615103 0 0 0 92.453125 34.689453 A 12.394641 11.615103 0 0 0 88.392578 26.111328 z "
       transform="translate(0,924.36216)"
       id="ellipse4178" />
    <path
       style="opacity:1;fill:#8c0067;fill-opacity:1;stroke:none;stroke-width:2;stroke-linecap:round;stroke-linejoin:round;stroke-miterlimit:4;stroke-dasharray:none;stroke-opacity:1"
       d="M 111.94727 60.951172 A 12.238733 12.78441 0 0 1 112.31445 64.007812 A 12.238733 12.78441 0 0 1 100.07617 76.791016 A 12.238733 12.78441 0 0 1 89.859375 71.035156 A 12.238733 12.78441 0 0 0 101.73047 80.759766 A 12.238733 12.78441 0 0 0 113.96875 67.976562 A 12.238733 12.78441 0 0 0 111.94727 60.951172 z "
       transform="translate(0,924.36216)"
       id="ellipse4183" />
    <path
       style="opacity:1;fill:#7b005b;fill-opacity:1;stroke:none;stroke-width:2;stroke-linecap:round;stroke-linejoin:round;stroke-miterlimit:4;stroke-dasharray:none;stroke-opacity:1"
       d="M 28.951172 41.216797 A 13.719853 14.187576 0 0 1 31.470703 49.380859 A 13.719853 14.187576 0 0 1 17.751953 63.568359 A 13.719853 14.187576 0 0 1 8.7597656 60.085938 A 13.719853 14.187576 0 0 0 19.957031 66.105469 A 13.719853 14.187576 0 0 0 33.675781 51.917969 A 13.719853 14.187576 0 0 0 28.951172 41.216797 z "
       transform="translate(0,924.36216)"
       id="ellipse4193" />
    <path
       style="opacity:1;fill:#66004c;fill-opacity:1;stroke:none;stroke-width:2;stroke-linecap:round;stroke-linejoin:round;stroke-miterlimit:4;stroke-dasharray:none;stroke-opacity:1"
       d="M 27.660156 60.708984 A 8.7308159 8.9646769 0 0 1 29.582031 66.316406 A 8.7308159 8.9646769 0 0 1 20.849609 75.28125 A 8.7308159 8.9646769 0 0 1 16.576172 74.128906 A 8.7308159 8.9646769 0 0 0 23.386719 77.486328 A 8.7308159 8.9646769 0 0 0 32.117188 68.521484 A 8.7308159 8.9646769 0 0 0 27.660156 60.708984 z "
       transform="translate(0,924.36216)"
       id="ellipse4198" />
  </g>
</svg>
