<?xml version="1.0" encoding="UTF-8" standalone="no"?>
<!-- Created with Inkscape (http://www.inkscape.org/) -->

<svg
   xmlns:dc="http://purl.org/dc/elements/1.1/"
   xmlns:cc="http://creativecommons.org/ns#"
   xmlns:rdf="http://www.w3.org/1999/02/22-rdf-syntax-ns#"
   xmlns:svg="http://www.w3.org/2000/svg"
   xmlns="http://www.w3.org/2000/svg"
   xmlns:sodipodi="http://sodipodi.sourceforge.net/DTD/sodipodi-0.dtd"
   xmlns:inkscape="http://www.inkscape.org/namespaces/inkscape"
   width="256"
   height="256"
   viewBox="0 0 256 256"
   id="svg2"
   version="1.1"
   inkscape:version="0.91 r13725"
   sodipodi:docname="zombie2.svg"
   inkscape:export-filename="C:\Prog\Projets\teeworlds\ignore\zombie2.png"
   inkscape:export-xdpi="90"
   inkscape:export-ydpi="90">
  <defs
     id="defs4" />
  <sodipodi:namedview
     id="base"
     pagecolor="#ffffff"
     bordercolor="#666666"
     borderopacity="1.0"
     inkscape:pageopacity="0.0"
     inkscape:pageshadow="2"
     inkscape:zoom="3.2070312"
     inkscape:cx="78.385243"
     inkscape:cy="120.0756"
     inkscape:document-units="px"
     inkscape:current-layer="layer1"
     showgrid="false"
     units="px"
     inkscape:window-width="1920"
     inkscape:window-height="1018"
     inkscape:window-x="-8"
     inkscape:window-y="-8"
     inkscape:window-maximized="1" />
  <metadata
     id="metadata7">
    <rdf:RDF>
      <cc:Work
         rdf:about="">
        <dc:format>image/svg+xml</dc:format>
        <dc:type
           rdf:resource="http://purl.org/dc/dcmitype/StillImage" />
        <dc:title></dc:title>
      </cc:Work>
    </rdf:RDF>
  </metadata>
  <g
     inkscape:label="Calque 1"
     inkscape:groupmode="layer"
     id="layer1"
     transform="translate(0,-796.36216)">
    <path
       style="fill:#000000;fill-opacity:0.50196081;fill-rule:evenodd;stroke:none;stroke-width:1px;stroke-linecap:butt;stroke-linejoin:miter;stroke-opacity:1"
       d="M 87.042969 159.67578 C 87.042969 159.67578 87.01538 159.75738 86.996094 159.96289 C 87.138445 160.13479 87.290447 160.3175 87.4375 160.49609 C 87.181776 160.03513 87.042969 159.67578 87.042969 159.67578 z M 88.871094 162.2207 C 88.902077 162.25773 88.923916 162.28511 88.955078 162.32227 C 89.244498 162.66735 89.51898 163.05128 89.787109 163.45312 C 89.903634 163.6271 90.014437 163.8115 90.126953 163.99414 C 90.267833 164.22384 90.406652 164.45402 90.541016 164.69531 C 90.676517 164.93742 90.806795 165.18215 90.935547 165.43359 C 91.028252 165.6154 91.117851 165.79878 91.207031 165.98438 C 91.349605 166.28008 91.49184 166.57257 91.625 166.875 C 91.62902 166.8842 91.632719 166.89334 91.636719 166.90234 C 92.757721 169.45511 93.544794 172.17569 93.896484 173.98438 C 94.082348 174.94026 94.191726 176.17164 94.259766 177.45508 A 37.659155 37.659155 0 0 1 95.279297 185.94531 A 37.659155 37.659155 0 0 1 57.621094 223.60352 A 37.659155 37.659155 0 0 1 32.605469 214.03516 A 37.659155 37.659155 0 0 0 63.023438 229.55664 A 37.659155 37.659155 0 0 0 100.68164 191.89844 A 37.659155 37.659155 0 0 0 99.662109 183.4082 C 99.594066 182.12476 99.484692 180.89339 99.298828 179.9375 C 98.947138 178.12881 98.160065 175.40824 97.039062 172.85547 C 97.035062 172.84636 97.031353 172.83723 97.027344 172.82812 C 96.894184 172.52569 96.751949 172.2332 96.609375 171.9375 C 96.520192 171.75191 96.430596 171.56853 96.337891 171.38672 C 96.209139 171.13528 96.07886 170.89055 95.943359 170.64844 C 95.808995 170.40715 95.670177 170.17697 95.529297 169.94727 C 95.416781 169.76463 95.305978 169.58022 95.189453 169.40625 C 94.921324 169.0044 94.646842 168.62047 94.357422 168.27539 C 92.156189 165.65085 90.403336 163.33217 89.019531 162.34375 C 88.966229 162.30568 88.92206 162.26069 88.871094 162.2207 z "
       transform="translate(0,796.36216)"
       id="path4262" />
    <path
       style="fill:#000000;fill-opacity:1;fill-rule:evenodd;stroke:#000000;stroke-width:8;stroke-linecap:butt;stroke-linejoin:round;stroke-opacity:1;stroke-miterlimit:4;stroke-dasharray:none"
       d="M 64.585938 27.3125 C 62.605595 27.369211 60.974609 27.851562 60.974609 27.851562 C 60.974609 27.851562 58.107779 27.362472 55.242188 28.201172 C 52.679123 28.951342 51.607422 30.296875 51.607422 30.296875 C 51.607422 30.296875 47.623552 31.136188 45.107422 32.673828 C 42.591292 34.211458 43.082031 35.398438 43.082031 35.398438 C 43.082031 35.398438 41.055192 35.538408 38.539062 37.705078 C 38.230908 37.970434 37.961792 38.236672 37.722656 38.498047 L 37.720703 38.496094 C 37.717001 38.500139 37.714624 38.503769 37.710938 38.507812 C 37.464788 38.777717 37.252401 39.043873 37.070312 39.300781 C 37.060081 39.315219 37.053013 39.327416 37.042969 39.341797 C 36.870512 39.588678 36.723705 39.828385 36.601562 40.054688 C 36.472471 40.293864 36.369926 40.517471 36.287109 40.724609 C 36.285993 40.727405 36.286265 40.729633 36.285156 40.732422 C 36.226474 40.879819 36.182234 41.013644 36.142578 41.140625 L 34.898438 40.380859 A 37.659155 37.659155 0 0 0 32.242188 44.103516 C 32.157213 44.028635 32.065819 43.947972 31.982422 43.875 C 30.400935 42.4912 30.302735 43.480469 30.302734 43.480469 C 30.302734 43.480469 28.168701 47.314706 27.634766 48.816406 C 27.520883 49.1367 27.422645 49.483854 27.333984 49.845703 C 26.54975 52.921225 26.547793 57.218599 26.636719 59.783203 A 37.659155 37.659155 0 0 0 26.611328 60.130859 A 37.659155 37.659155 0 0 0 26.410156 62.837891 A 37.659155 37.659155 0 0 0 26.349609 64.236328 A 37.659155 37.659155 0 0 0 64.007812 101.89453 A 37.659155 37.659155 0 0 0 101.66602 64.236328 A 37.659155 37.659155 0 0 0 100.64648 55.746094 C 100.57845 54.462651 100.46907 53.231278 100.2832 52.275391 C 99.931511 50.4667 99.144439 47.746126 98.023438 45.193359 C 98.019437 45.184249 98.015728 45.175122 98.011719 45.166016 C 97.878559 44.863581 97.736324 44.571092 97.59375 44.275391 C 97.504567 44.089805 97.414971 43.906424 97.322266 43.724609 C 97.193514 43.473171 97.063235 43.228437 96.927734 42.986328 C 96.79337 42.745037 96.654552 42.514863 96.513672 42.285156 C 96.401156 42.102519 96.290353 41.918115 96.173828 41.744141 C 95.905699 41.342293 95.631217 40.958358 95.341797 40.613281 C 93.140564 37.988741 91.387711 35.670061 90.003906 34.681641 C 88.620108 33.693211 88.027344 32.013672 88.027344 32.013672 C 88.027344 32.013672 87.828477 32.210906 88.125 34.978516 C 88.143369 35.149962 88.142934 35.274271 88.152344 35.421875 A 37.659155 37.659155 0 0 0 87.509766 34.855469 L 86.474609 36.130859 C 86.136951 35.800717 85.805881 35.491427 85.476562 35.1875 C 85.360886 35.080781 85.236544 34.95557 85.125 34.855469 C 84.44861 34.248463 83.854883 33.770215 83.478516 33.582031 C 81.940881 32.813211 81.033203 33.09375 81.033203 33.09375 C 81.033203 33.09375 79.705709 30.926441 76.560547 29.738281 C 73.81604 28.701461 72.226562 29.179688 72.226562 29.179688 C 72.226562 29.179688 69.486315 27.881551 66.634766 27.431641 C 65.944803 27.322781 65.246052 27.293596 64.585938 27.3125 z "
       transform="translate(0,796.36216)"
       id="path4183" />
    <path
       style="fill:none;fill-opacity:1;fill-rule:evenodd;stroke:#000000;stroke-width:2;stroke-linecap:butt;stroke-linejoin:round;stroke-opacity:1;stroke-miterlimit:4;stroke-dasharray:none"
       d="M 192.58594 155.3125 C 190.6056 155.36921 188.97461 155.85156 188.97461 155.85156 C 188.97461 155.85156 186.10778 155.36247 183.24219 156.20117 C 180.67912 156.95134 179.60742 158.29688 179.60742 158.29688 C 179.60742 158.29688 175.62355 159.13619 173.10742 160.67383 C 170.59129 162.21146 171.08203 163.39844 171.08203 163.39844 C 171.08203 163.39844 169.05519 163.53841 166.53906 165.70508 C 166.23091 165.97043 165.96179 166.23667 165.72266 166.49805 L 165.7207 166.49609 C 165.717 166.50014 165.71462 166.50377 165.71094 166.50781 C 165.46479 166.77772 165.2524 167.04387 165.07031 167.30078 C 165.06008 167.31522 165.05301 167.32742 165.04297 167.3418 C 164.87051 167.58868 164.72371 167.82839 164.60156 168.05469 C 164.47247 168.29386 164.36993 168.51747 164.28711 168.72461 C 164.28599 168.72741 164.28626 168.72963 164.28516 168.73242 C 164.22647 168.87982 164.18223 169.01364 164.14258 169.14062 L 162.89844 168.38086 A 37.659155 37.659155 0 0 0 160.24219 172.10352 C 160.15721 172.02863 160.06582 171.94797 159.98242 171.875 C 158.40093 170.4912 158.30273 171.48047 158.30273 171.48047 C 158.30273 171.48047 156.1687 175.31471 155.63477 176.81641 C 155.52088 177.1367 155.42264 177.48385 155.33398 177.8457 C 154.54975 180.92123 154.54779 185.2186 154.63672 187.7832 A 37.659155 37.659155 0 0 0 154.61133 188.13086 A 37.659155 37.659155 0 0 0 154.41016 190.83789 A 37.659155 37.659155 0 0 0 154.34961 192.23633 A 37.659155 37.659155 0 0 0 192.00781 229.89453 A 37.659155 37.659155 0 0 0 229.66602 192.23633 A 37.659155 37.659155 0 0 0 228.64648 183.74609 C 228.57845 182.46265 228.46907 181.23128 228.2832 180.27539 C 227.93151 178.4667 227.14444 175.74613 226.02344 173.19336 C 226.01944 173.18425 226.01573 173.17512 226.01172 173.16602 C 225.87856 172.86358 225.73632 172.57109 225.59375 172.27539 C 225.50457 172.0898 225.41497 171.90642 225.32227 171.72461 C 225.19351 171.47317 225.06324 171.22844 224.92773 170.98633 C 224.79337 170.74504 224.65455 170.51486 224.51367 170.28516 C 224.40116 170.10252 224.29035 169.91811 224.17383 169.74414 C 223.9057 169.34229 223.63122 168.95836 223.3418 168.61328 C 221.14057 165.98874 219.38772 163.67006 218.00391 162.68164 C 216.62011 161.69321 216.02734 160.01367 216.02734 160.01367 C 216.02734 160.01367 215.8285 160.21091 216.125 162.97852 C 216.14337 163.14996 216.14293 163.27427 216.15234 163.42188 A 37.659155 37.659155 0 0 0 215.50977 162.85547 L 214.47461 164.13086 C 214.13695 163.80072 213.80588 163.49143 213.47656 163.1875 C 213.36089 163.08078 213.23654 162.95557 213.125 162.85547 C 212.44861 162.24846 211.85488 161.77022 211.47852 161.58203 C 209.94088 160.81321 209.0332 161.09375 209.0332 161.09375 C 209.0332 161.09375 207.70571 158.92644 204.56055 157.73828 C 201.81604 156.70146 200.22656 157.17969 200.22656 157.17969 C 200.22656 157.17969 197.48632 155.88155 194.63477 155.43164 C 193.9448 155.32278 193.24605 155.2936 192.58594 155.3125 z "
       transform="translate(0,796.36216)"
       id="path4223" />
    <g
       transform="matrix(0.63398472,0,0,0.63398472,151.5812,233.8435)"
       id="layer1-2"
       inkscape:label="Calque 1">
      <path
         sodipodi:nodetypes="cscscscscscscsscc"
         inkscape:connector-curvature="0"
         id="path4151"
         d="m 19.513047,953.58425 c 0,0 0.110243,-3.41754 4.078998,-6.83508 3.968755,-3.41754 7.165808,-3.63802 7.165808,-3.63802 0,0 -0.771702,-1.87414 3.197053,-4.29949 3.968755,-2.42535 10.252618,-3.74827 10.252618,-3.74827 0,0 1.68986,-2.12404 5.732647,-3.3073 4.51997,-1.32291 9.039942,-0.55121 9.039942,-0.55121 0,0 4.576515,-1.34829 8.929699,-0.66146 4.497819,0.70965 8.819456,2.75608 8.819456,2.75608 0,0 2.506099,-0.75345 6.835079,0.88195 4.960943,1.87413 7.055564,5.29167 7.055564,5.29167 0,0 1.433162,-0.44097 3.858512,0.7717 2.425355,1.21268 10.473107,9.92189 10.473107,9.92189 0,0 -1.65365,18.07989 -3.08681,20.06427 -1.43316,1.98437 -25.025209,13.67015 -27.340316,14.66234 -2.315107,0.99219 -42.664119,0.55122 -42.664119,0.55122 L 14.221373,971.44365"
         style="fill:#6e3b2e;fill-opacity:1;fill-rule:evenodd;stroke:none;stroke-width:1px;stroke-linecap:butt;stroke-linejoin:miter;stroke-opacity:1" />
      <path
         id="path4153"
         transform="translate(0,924.36216)"
         d="m 97.074219,17.890625 -0.390625,0.08594 c 0,0 -2.425347,1.323344 -2.976563,1.433594 -0.551216,0.11024 -5.070526,1.432726 -7.27539,2.535156 -2.204864,1.10243 -5.403428,0.882813 -6.50586,0.882813 -1.102432,0 -4.078125,3.748047 -4.078125,3.748047 0,0 -4.299912,-0.992401 -5.402344,-1.212891 -1.102432,-0.22049 -1.213106,3.087675 -2.425781,3.859375 -1.212675,0.7717 -6.50347,0.549703 -8.046875,0.439453 -1.543404,-0.11024 -5.402559,-1.101785 -6.615234,-1.322265 -1.212675,-0.22049 -2.314453,-2.646485 -2.314453,-2.646485 0,0 -8.37847,4.741975 -9.921875,4.521485 -1.543405,-0.22049 -6.836152,-1.76476 -8.048828,-1.875 -1.212675,-0.11025 -6.283204,-1.542969 -6.283204,-1.542969 l -4.486328,-3.162109 c -1.588642,1.73601 -2.26812,3.351582 -2.5625,4.396484 l -0.888672,16.404297 36.38086,10.033203 c 0,0 18.188582,0.218966 20.283203,-0.552734 2.09462,-0.7717 16.977643,-5.291868 21.056641,-10.142578 2.891989,-3.439124 5.988364,-8.105413 7.587894,-10.589844 0.14812,-1.27551 0.29209,-2.517514 0.40234,-3.566406 l -2.88086,-7.230469 c -1.47757,-1.516584 -3.115118,-3.15696 -4.607421,-4.496094 z"
         style="fill:#6d201b;fill-opacity:1;fill-rule:evenodd;stroke:none;stroke-width:1px;stroke-linecap:butt;stroke-linejoin:miter;stroke-opacity:1"
         inkscape:connector-curvature="0" />
      <path
         id="circle4138"
         transform="translate(0,924.36216)"
         d="m 100.83594,17.890625 -1.67969,2.066406 -6.546875,2.181641 -6.236328,5.613281 -13.095703,2.650391 -8.107422,16.36914 L 48.642578,41.470703 43.966797,33.519531 26.347656,31.804688 17.849609,26.605469 A 59.40073,59.40073 0 0 0 4.3652344,64.234375 59.40073,59.40073 0 0 0 63.765625,123.63477 59.40073,59.40073 0 0 0 123.16602,64.234375 59.40073,59.40073 0 0 0 100.83594,17.890625 Z"
         style="opacity:1;fill:#c1b9b3;fill-opacity:1;stroke:none;stroke-width:3;stroke-linecap:round;stroke-linejoin:round;stroke-miterlimit:4;stroke-dasharray:none;stroke-opacity:1"
         inkscape:connector-curvature="0" />
      <path
         id="path4136"
         transform="translate(0,924.36216)"
         d="m 101.65234,13.408203 c 0,0 -0.31342,0.312325 0.1543,4.677735 0.46772,4.365409 -0.93482,3.584528 -3.273437,5.611328 -2.338612,2.0268 6.704267,5.924411 -0.779297,5.300781 -7.483557,-0.62363 -7.327777,7.951784 -16.058594,4.677734 -8.730815,-3.27406 -16.837031,10.758095 -20.890624,7.328125 -4.053593,-3.42996 -6.8616,-2.962511 -12.31836,-5.457031 -5.45676,-2.49452 -24.476527,2.182914 -27.126953,1.871094 -2.650426,-0.31181 -5.612904,-3.118082 -8.107422,-5.300781 -2.494519,-2.182701 -2.650391,-0.623047 -2.650391,-0.623047 0,0 -3.3667942,6.049308 -4.2089839,8.417968 -1.7206845,4.83943 -1.7308026,12.782983 -1.5742187,17.298829 A 59.40073,59.40073 0 0 0 4.3652344,64.234375 59.40073,59.40073 0 0 0 63.765625,123.63477 59.40073,59.40073 0 0 0 123.16602,64.234375 59.40073,59.40073 0 0 0 121.56445,50.914062 c -0.10696,-2.050897 -0.28336,-4.018955 -0.58007,-5.544921 -0.92681,-4.76644 -3.74134,-13.563365 -7.79493,-18.396485 -3.47206,-4.13976 -6.23721,-7.796398 -8.41992,-9.355468 -2.1827,-1.55908 -3.11719,-4.208985 -3.11719,-4.208985 z"
         style="opacity:1;fill:#978170;fill-opacity:1;stroke:none;stroke-width:3;stroke-linecap:round;stroke-linejoin:round;stroke-miterlimit:4;stroke-dasharray:none;stroke-opacity:1"
         inkscape:connector-curvature="0" />
      <path
         id="path4163"
         transform="translate(0,924.36216)"
         d="m 101.65234,13.408203 c 0,0 -0.31342,0.312324 0.1543,4.677735 0.46772,4.365408 -0.93482,3.584528 -3.273437,5.611328 -2.338612,2.0268 6.704267,5.924411 -0.779297,5.300781 -7.483557,-0.62363 -7.327777,7.951784 -16.058594,4.677734 -8.730815,-3.27406 -16.837031,10.758095 -20.890624,7.328125 -4.053593,-3.42996 -6.8616,-2.962511 -12.31836,-5.457031 -1.72137,-0.786913 -4.79427,-0.858335 -8.27539,-0.599609 a 21.276937,19.623289 0 0 0 -0.970704,1.404296 14.441859,12.126752 0 0 0 -2.419922,-0.183593 14.441859,12.126752 0 0 0 -4.21875,0.541015 14.276495,12.898455 0 0 0 -0.103515,-0.835937 c -5.221733,0.78333 -9.921683,1.688099 -11.138672,1.544922 -2.650426,-0.31181 -5.612904,-3.118083 -8.107422,-5.300781 -2.494519,-2.182701 -2.65039,-0.623047 -2.650391,-0.623047 0,0 -3.3667942,6.049308 -4.2089839,8.417968 -0.3467991,0.975374 -0.6076568,2.097401 -0.828125,3.271485 a 14.276495,12.898455 0 0 0 12.7910159,7.205078 14.276495,12.898455 0 0 0 4.15625,-0.572266 14.441859,12.126752 0 0 0 3.777343,6.761719 12.07163,9.6462803 0 0 0 -1.59375,4.779297 12.07163,9.6462803 0 0 0 12.070313,9.646484 12.07163,9.6462803 0 0 0 8.726563,-2.998047 9.9218884,9.3155508 0 0 0 5.845703,2.199219 9.5911589,10.417982 0 0 0 -0.294922,2.507813 9.5911589,10.417982 0 0 0 9.589843,10.417968 9.5911589,10.417982 0 0 0 9.574219,-10.011718 10.142374,10.087253 0 0 0 2.884766,0.419921 10.142374,10.087253 0 0 0 10.142578,-10.085937 10.142374,10.087253 0 0 0 -1.439453,-5.15625 9.4257936,10.583347 0 0 0 2.78125,-2.248047 7.6619024,7.276051 0 0 0 5.328125,2.056641 7.6619024,7.276051 0 0 0 7.660156,-7.275391 7.6619024,7.276051 0 0 0 -0.351562,-2.152344 13.835522,13.284306 0 0 0 3.714839,-1.089843 6.5043488,7.3311729 0 0 0 4.68555,2.25 6.5043488,7.3311729 0 0 0 6.50391,-7.332032 6.5043488,7.3311729 0 0 0 -1.04297,-3.980468 13.559914,14.166251 0 0 0 6.3457,-4.328125 c -1.18604,-2.700992 -2.60297,-5.28414 -4.23047,-7.22461 -3.47206,-4.13976 -6.23721,-7.796399 -8.41992,-9.355468 -2.1827,-1.55908 -3.11719,-4.208985 -3.11719,-4.208985 z"
         style="opacity:1;fill:#806151;fill-opacity:1;stroke:none;stroke-width:3;stroke-linecap:round;stroke-linejoin:round;stroke-miterlimit:4;stroke-dasharray:none;stroke-opacity:1"
         inkscape:connector-curvature="0" />
      <path
         id="path4158"
         transform="translate(0,924.36216)"
         d="m 93.443359,29.863281 c -3.610775,1.965203 -5.123902,6.29655 -11.748047,3.8125 -8.730815,-3.27406 -16.837031,10.758095 -20.890624,7.328125 -4.053593,-3.42996 -6.8616,-2.962511 -12.31836,-5.457031 -4.743273,-2.168354 -19.710997,1.075465 -25.291016,1.757813 2.341419,1.154683 5.587364,2.279906 9.216797,2.169921 7.276051,-0.22049 18.299478,1.102864 18.960938,1.433594 0.661459,0.33073 3.306641,4.740235 3.306641,4.740235 0,0 1.874132,3.747397 0.992187,7.054687 -0.881946,3.3073 1.654297,5.734368 1.654297,8.710937 0,2.97656 1.984375,11.244141 1.984375,11.244141 0,0 1.10243,4.300147 0.992187,5.623047 C 60.192491,79.60415 63.5,70.011721 63.5,69.019531 c 0,-0.99219 -1.323788,-10.803384 1.101562,-15.433593 2.42535,-4.630211 2.866752,-9.591579 4.410157,-11.355469 1.543405,-1.76389 1.543832,-4.299265 5.402343,-4.740235 3.858513,-0.44097 4.740882,-1.763458 7.386719,-1.542968 2.645837,0.22048 4.410152,2.865016 7.386719,0.660156 2.976566,-2.20487 3.196831,-2.645394 3.748047,-3.527344 0.375806,-0.601285 0.469756,-2.112274 0.507812,-3.216797 z"
         style="fill:#471b12;fill-opacity:1;fill-rule:evenodd;stroke:none;stroke-width:1px;stroke-linecap:butt;stroke-linejoin:miter;stroke-opacity:1"
         inkscape:connector-curvature="0" />
      <ellipse
         ry="6.338984"
         rx="6.7248354"
         cy="997.84692"
         cx="104.06958"
         id="path4189"
         style="opacity:1;fill:#806151;fill-opacity:1;stroke:none;stroke-width:3;stroke-linecap:round;stroke-linejoin:round;stroke-miterlimit:4;stroke-dasharray:none;stroke-opacity:1" />
      <ellipse
         ry="2.2599857"
         rx="2.4804721"
         cy="982.30261"
         cx="104.1247"
         id="path4191"
         style="opacity:1;fill:#6f5447;fill-opacity:1;stroke:none;stroke-width:3;stroke-linecap:round;stroke-linejoin:round;stroke-miterlimit:4;stroke-dasharray:none;stroke-opacity:1" />
      <ellipse
         ry="4.3546066"
         rx="3.7482688"
         cy="993.43719"
         cx="14.993075"
         id="path4193"
         style="opacity:1;fill:#806151;fill-opacity:1;stroke:none;stroke-width:3;stroke-linecap:round;stroke-linejoin:round;stroke-miterlimit:4;stroke-dasharray:none;stroke-opacity:1" />
      <ellipse
         ry="6.2287407"
         rx="7.8272672"
         cy="1015.3755"
         cx="33.734421"
         id="path4195"
         style="opacity:1;fill:#806151;fill-opacity:1;stroke:none;stroke-width:3;stroke-linecap:round;stroke-linejoin:round;stroke-miterlimit:4;stroke-dasharray:none;stroke-opacity:1" />
      <ellipse
         ry="1.4331616"
         rx="1.2677968"
         cy="1004.8474"
         cx="40.624619"
         id="path4197"
         style="opacity:1;fill:#806151;fill-opacity:1;stroke:none;stroke-width:3;stroke-linecap:round;stroke-linejoin:round;stroke-miterlimit:4;stroke-dasharray:none;stroke-opacity:1" />
      <path
         inkscape:connector-curvature="0"
         id="path4203"
         d="m 32.521744,963.17541 c 0,0 3.527783,0.11024 2.866324,3.63803 -0.66146,3.52778 -1.874135,5.07118 -1.984378,5.51216 -0.110243,0.44097 -0.440973,4.74045 -0.110243,5.95313 0.330729,1.21267 2.42535,8.48873 2.42535,8.48873 0,0 -0.551216,-11.02432 0,-11.68578 0.551216,-0.66146 2.866323,-3.3073 3.417539,-3.74827 0.551216,-0.44098 0.881946,-4.8507 0.881946,-4.8507 l 2.535594,-3.41754"
         style="fill:#471b12;fill-opacity:1;fill-rule:evenodd;stroke:none;stroke-width:1px;stroke-linecap:butt;stroke-linejoin:miter;stroke-opacity:1" />
    </g>
  </g>
</svg>
