<?xml version="1.0" encoding="UTF-8" standalone="no"?>
<!-- Created with Inkscape (http://www.inkscape.org/) -->

<svg
   xmlns:dc="http://purl.org/dc/elements/1.1/"
   xmlns:cc="http://creativecommons.org/ns#"
   xmlns:rdf="http://www.w3.org/1999/02/22-rdf-syntax-ns#"
   xmlns:svg="http://www.w3.org/2000/svg"
   xmlns="http://www.w3.org/2000/svg"
   xmlns:sodipodi="http://sodipodi.sourceforge.net/DTD/sodipodi-0.dtd"
   xmlns:inkscape="http://www.inkscape.org/namespaces/inkscape"
   width="128"
   height="128"
   viewBox="0 0 128 128"
   id="svg2"
   version="1.1"
   inkscape:version="0.91 r13725"
   sodipodi:docname="zudge.svg">
  <defs
     id="defs4" />
  <sodipodi:namedview
     id="base"
     pagecolor="#ffffff"
     bordercolor="#666666"
     borderopacity="1.0"
     inkscape:pageopacity="0.0"
     inkscape:pageshadow="2"
     inkscape:zoom="4.5354271"
     inkscape:cx="60.023434"
     inkscape:cy="36.500271"
     inkscape:document-units="px"
     inkscape:current-layer="layer1"
     showgrid="false"
     units="px"
     inkscape:window-width="1920"
     inkscape:window-height="1018"
     inkscape:window-x="-8"
     inkscape:window-y="-8"
     inkscape:window-maximized="1"
     showguides="false" />
  <metadata
     id="metadata7">
    <rdf:RDF>
      <cc:Work
         rdf:about="">
        <dc:format>image/svg+xml</dc:format>
        <dc:type
           rdf:resource="http://purl.org/dc/dcmitype/StillImage" />
        <dc:title></dc:title>
      </cc:Work>
    </rdf:RDF>
  </metadata>
  <g
     inkscape:label="Calque 1"
     inkscape:groupmode="layer"
     id="layer1"
     transform="translate(0,-924.36216)">
    <path
       style="fill:#3b0f0f;fill-rule:evenodd;stroke:none;stroke-width:1px;stroke-linecap:butt;stroke-linejoin:miter;stroke-opacity:1;fill-opacity:1"
       d="m 100.24848,1040.1234 c 0,0 0.62363,-1.559 -0.078,-2.8063 -0.70158,-1.2473 -1.325209,-2.0268 -1.091348,-2.9622 0.233861,-0.9355 0.62363,-2.6505 1.247258,-3.5859 0.62363,-0.9355 1.24726,-2.5725 1.79294,-3.43 0.54567,-0.8575 0.46772,-1.637 1.79293,-1.9488 1.32522,-0.3118 1.16931,-0.3898 1.32522,-1.4032 0.1559,-1.0134 0.078,-1.637 0.54567,-1.9488 0.46772,-0.3118 1.24726,-0.6237 2.18271,-0.7796 0.93544,-0.1559 1.01339,-0.1559 1.94884,-0.8575 0.93544,-0.7015 2.02679,-1.637 2.72838,-2.0268 0.70158,-0.3897 1.0134,-0.8575 2.02679,-0.8575 1.0134,0 1.16931,0 1.94885,-0.5456 0.77953,-0.5457 1.1693,-0.7796 1.1693,-0.7796 l -0.93544,-3.8977 c 0,0 -8.80877,-0.4677 -11.22534,-0.5456 -2.41656,-0.078 -11.6151,3.5858 -11.771007,4.0536 -0.155908,0.4677 -1.325213,4.4433 -1.637028,5.6126 -0.311815,1.1693 0.155907,18.7869 0.155907,18.7869"
       id="path4459"
       inkscape:connector-curvature="0" />
    <path
       inkscape:connector-curvature="0"
       id="path4375"
       d="m 25.049533,944.34793 c 0,0 -2.207701,-2.33593 -5.052799,0.37899 -2.845099,2.71492 -4.239654,6.63435 -4.239654,6.63435 0,0 4.977794,1.3308 7.414009,-0.16523 2.436222,-1.49603 2.916608,-5.72212 2.916608,-5.72212"
       style="fill:#156507;fill-opacity:1;fill-rule:evenodd;stroke:none;stroke-width:1px;stroke-linecap:butt;stroke-linejoin:miter;stroke-opacity:1" />
    <path
       style="fill:#156507;fill-opacity:1;fill-rule:evenodd;stroke:none;stroke-width:1px;stroke-linecap:butt;stroke-linejoin:miter;stroke-opacity:1"
       d="m 16.166078,932.95298 c 0,0 -3.234792,-2.32145 -6.2430363,-0.57287 -3.008242,1.74856 -3.958042,4.74894 -3.958042,4.74894 0,0 6.4957743,1.97533 9.2396703,1.1642 2.743889,-0.81114 2.48813,-4.22583 2.48813,-4.22583"
       id="path4364"
       inkscape:connector-curvature="0" />
    <rect
       ry="2.7134435"
       y="792.82886"
       x="-535.07251"
       height="5.426887"
       width="13.112507"
       id="rect4256"
       style="opacity:1;fill:#848688;fill-opacity:1;stroke:none;stroke-width:8;stroke-linecap:round;stroke-linejoin:round;stroke-miterlimit:4;stroke-dasharray:none;stroke-opacity:1"
       transform="matrix(0.77225935,-0.63530741,0.63530741,0.77225935,0,0)" />
    <rect
       transform="matrix(0.93990405,-0.34143868,0.34143868,0.93990405,0,0)"
       style="opacity:1;fill:#848688;fill-opacity:1;stroke:none;stroke-width:8;stroke-linecap:round;stroke-linejoin:round;stroke-miterlimit:4;stroke-dasharray:none;stroke-opacity:1"
       id="rect4258"
       width="15.139345"
       height="5.3641725"
       x="-338.08936"
       y="965.81952"
       ry="2.6820862" />
    <rect
       transform="matrix(0.77225935,-0.63530741,0.63530741,0.77225935,0,0)"
       style="opacity:1;fill:#848688;fill-opacity:1;stroke:none;stroke-width:8;stroke-linecap:round;stroke-linejoin:round;stroke-miterlimit:4;stroke-dasharray:none;stroke-opacity:1"
       id="rect4252"
       width="13.112507"
       height="5.426887"
       x="-530.88239"
       y="812.54987"
       ry="2.7134435" />
    <path
       style="fill:#666769;fill-opacity:1;fill-rule:evenodd;stroke:none;stroke-width:1px;stroke-linecap:butt;stroke-linejoin:miter;stroke-opacity:1"
       d="m 111.02713,960.83353 -2.69141,2.21484 c -0.61197,0.50344 -0.93803,1.21503 -0.97851,1.94531 l 2.3418,1.03906 c 0,0 0.6054,-2.8064 0.5664,-3.58593 -0.0326,-0.6527 0.54472,-1.36035 0.76172,-1.61328 z"
       id="path4294"
       inkscape:connector-curvature="0" />
    <path
       style="opacity:1;fill:#8f9770;fill-opacity:1;stroke:none;stroke-width:8;stroke-linecap:round;stroke-linejoin:round;stroke-miterlimit:4;stroke-dasharray:none;stroke-opacity:1"
       d="M 68.267578 19.082031 A 53.788063 53.788063 0 0 0 14.478516 72.871094 A 53.788063 53.788063 0 0 0 68.267578 126.6582 A 53.788063 53.788063 0 0 0 100.26758 116.0293 C 100.33182 115.16494 100.27225 114.37031 99.880859 114.10938 C 98.88867 113.44798 97.564453 112.6763 97.564453 112.125 C 97.564453 111.5738 97.896267 111.02233 97.675781 108.92773 C 97.455295 106.83313 96.131943 105.51111 97.234375 104.84961 C 98.336807 104.18811 98.556641 101.98242 98.556641 101.98242 C 98.556641 101.98242 99.990012 100.77015 100.76172 100.43945 C 101.53342 100.10865 102.74609 97.351562 102.74609 97.351562 L 105.39258 93.935547 C 105.39258 93.935547 103.62955 92.391234 106.27539 93.052734 C 108.92122 93.714134 109.91211 93.824219 109.91211 93.824219 C 109.91211 93.824219 110.24305 89.305081 112.11719 90.738281 C 113.99132 92.171381 115.64497 91.509766 116.08594 91.509766 C 116.51494 91.509766 118.35283 92.016607 118.45508 92.044922 A 53.788063 53.788063 0 0 0 122.05469 72.871094 A 53.788063 53.788063 0 0 0 68.267578 19.082031 z "
       transform="translate(0,924.36216)"
       id="path4136" />
    <path
       style="opacity:1;fill:#717d41;fill-opacity:1;stroke:none;stroke-width:1;stroke-linecap:round;stroke-linejoin:round;stroke-miterlimit:4;stroke-dasharray:none;stroke-opacity:1"
       d="M 47.435547 23.337891 A 53.788063 53.788063 0 0 0 14.478516 72.871094 A 53.788063 53.788063 0 0 0 18.148438 92.392578 A 9.5883074 9.3544455 0 0 0 20.814453 92.765625 A 9.5883074 9.3544455 0 0 0 29.070312 88.144531 A 21.671133 22.918392 0 0 0 32.117188 88.400391 A 21.671133 22.918392 0 0 0 33.544922 88.345703 A 14.499391 16.448235 0 0 0 48.019531 103.99023 A 14.499391 16.448235 0 0 0 62.519531 87.542969 A 14.499391 16.448235 0 0 0 62.232422 84.365234 A 10.211937 10.523751 0 0 0 69.300781 87.308594 A 10.211937 10.523751 0 0 0 79.513672 76.785156 A 10.211937 10.523751 0 0 0 79.380859 75.148438 A 5.3788061 6.8599267 0 0 0 81.851562 69.378906 A 5.3788061 6.8599267 0 0 0 81.759766 68.130859 A 15.434835 14.577345 0 0 0 91.361328 54.646484 A 15.434835 14.577345 0 0 0 76.982422 40.117188 A 14.343484 14.811206 0 0 0 62.673828 26.347656 A 14.343484 14.811206 0 0 0 55.994141 28.0625 A 16.526188 15.278928 0 0 0 47.435547 23.337891 z "
       transform="translate(0,924.36216)"
       id="path4404" />
    <path
       style="opacity:1;fill:#000000;fill-opacity:1;stroke:none;stroke-width:8;stroke-linecap:round;stroke-linejoin:round;stroke-miterlimit:4;stroke-dasharray:none;stroke-opacity:1"
       d="m 56.251827,972.27933 c -3.420996,2.1855 -4.416808,6.69814 -2.231298,10.11904 2.18551,3.4209 6.699705,4.4157 10.120701,2.2302 l 10.510819,-6.71484 c 3.420995,-2.1855 4.415764,-6.6997 2.230254,-10.1207 -2.185511,-3.421 -6.698662,-4.4142 -10.119657,-2.2286 l -10.510819,6.7149 z m 2.221828,3.4778 10.510819,-6.7149 c 1.554153,-0.9928 3.42817,-0.5799 4.421085,0.9743 0.99286,1.5541 0.57987,3.4281 -0.974283,4.421 l -10.510819,6.71484 c -1.554154,0.9929 -3.42817,0.5799 -4.421031,-0.9742 -0.992914,-1.5541 -0.579924,-3.42814 0.974229,-4.42104 z"
       id="path4225"
       inkscape:connector-curvature="0" />
    <path
       style="opacity:1;fill:#626a45;fill-opacity:1;stroke:none;stroke-width:8;stroke-linecap:round;stroke-linejoin:round;stroke-miterlimit:4;stroke-dasharray:none;stroke-opacity:1"
       d="m 106.90213,959.81399 -5.13281,3.86719 c -2.437758,1.83625 -3.179339,4.99714 -2.283203,7.76953 l -5.617187,4.61914 c -2.37399,-0.80838 -5.095027,-0.37878 -7.140626,1.38282 l -9.451171,8.13867 c -2.189371,1.88532 -2.986713,4.76149 -2.314453,7.37305 l -7.660157,5.74218 c -2.177081,-0.98245 -4.787297,-0.87963 -6.958984,0.50782 l -10.509766,6.71481 c -2.357842,1.5063 -3.564903,4.117 -3.371093,6.7149 l -4.949219,2.3457 c -1.82951,-2.0163 -4.704998,-2.9269 -7.5,-2.0996 l -11.960938,3.539 c -1.25875,0.3726 -2.335945,1.0529 -3.185547,1.9297 a 53.788063,53.788063 0 0 0 2.123047,4.418 c 0.21759,-1.1106 1.016111,-2.0281 2.234375,-2.3887 l 11.958985,-3.541 c 0.442097,-0.1308 0.87998,-0.1708 1.294921,-0.1309 0.313317,0.03 0.607736,0.12 0.888672,0.2383 l -1.814453,0.8613 c -1.433134,0.6795 -2.040732,2.3794 -1.361328,3.8125 0.408113,0.8609 1.186948,1.4172 2.052735,1.5821 l -11.203126,3.3164 c -0.646775,0.1914 -1.281512,0.1846 -1.853515,0.019 a 53.788063,53.788063 0 0 0 2.84375,3.9785 c 0.05986,-0.016 0.119899,-0.025 0.179687,-0.043 l 11.960938,-3.5391 c 3.023543,-0.8949 5.021271,-3.5468 5.226562,-6.5098 l 5.689454,-2.6972 c 2.386704,1.9945 5.86766,2.3087 8.634765,0.541 l 10.509766,-6.7149 c 2.925554,-1.8689 4.069377,-5.4392 2.974609,-8.5742 l 7.275391,-5.4531 c 2.61049,1.46578 5.95113,1.23423 8.357422,-0.83789 l 9.451171,-8.13867 c 2.546104,-2.19252 3.214392,-5.72734 1.869141,-8.625 l 5.023435,-4.13282 c 2.51109,1.24258 5.62318,0.89693 8.05078,-0.93164 l 4.2832,-3.22851 a 53.788063,53.788063 0 0 0 -2.07617,-3.58985 l -4.87109,3.66992 c -0.57054,0.48273 -1.22425,0.73143 -1.87891,0.77735 0.41279,-0.95084 0.29995,-2.08688 -0.40625,-2.94531 -0.74413,-0.90455 -1.9184,-1.23115 -2.9746,-0.9336 0.13474,-0.67904 0.49628,-1.315 1.12304,-1.78711 l 5.19531,-3.91211 a 53.788063,53.788063 0 0 0 -2.72656,-3.10547 z m -18.099607,21.29883 c -0.148893,0.79962 0.03228,1.6558 0.591797,2.33594 1.00487,1.22149 2.798044,1.3955 4.019531,0.39063 l 1.316407,-1.08204 c 0.08671,0.97042 -0.290684,1.95032 -1.13086,2.67383 l -9.451172,8.13867 c -0.3994,0.34395 -0.841781,0.56526 -1.296875,0.69141 l 0.341797,-0.25586 c 1.278642,-0.9583 1.536428,-2.76042 0.578125,-4.03906 -0.958302,-1.27864 -2.758467,-1.53643 -4.037109,-0.57813 l -0.621094,0.46485 c 0.192631,-0.41394 0.472229,-0.80306 0.857422,-1.13477 l 8.832031,-7.60547 z m -25.634765,21.26958 c -0.328963,0.8869 -0.219335,1.9159 0.392578,2.7324 0.933044,1.2449 2.662773,1.5133 3.933594,0.6426 -0.09715,0.9135 -0.598732,1.7655 -1.482422,2.33 l -10.509766,6.7149 c -0.513495,0.328 -1.061552,0.4869 -1.601562,0.5176 0.939551,-0.822 1.269461,-2.1828 0.707031,-3.3692 -0.650852,-1.3729 -2.236635,-1.9758 -3.628907,-1.4277 0.253978,-0.4287 0.605712,-0.8166 1.076172,-1.1172 l 10.511719,-6.7149 c 0.196153,-0.1253 0.397634,-0.2275 0.601563,-0.3085 z"
       id="path4191"
       inkscape:connector-curvature="0" />
    <path
       inkscape:connector-curvature="0"
       id="path4147"
       d="m 20.130672,1015.3923 c -3.892613,1.1521 -6.099793,5.212 -4.947748,9.1047 1.152072,3.8925 5.21388,6.0991 9.106493,4.9471 l 11.959857,-3.5396 c 3.892612,-1.1521 6.099233,-5.2139 4.947188,-9.1065 -1.152046,-3.8926 -5.213294,-6.0975 -9.105934,-4.9453 l -11.959856,3.5396 z m 1.171202,3.9573 11.959857,-3.5397 c 1.768389,-0.5233 3.454624,0.3927 3.978023,2.1612 0.523375,1.7683 -0.392696,3.4545 -2.161112,3.9779 l -11.959857,3.5397 c -1.768417,0.5234 -3.454624,-0.3927 -3.977999,-2.1611 -0.523399,-1.7684 0.392672,-3.4546 2.161088,-3.978 z"
       style="opacity:1;fill:#848688;fill-opacity:1;stroke:none;stroke-width:8;stroke-linecap:round;stroke-linejoin:round;stroke-miterlimit:4;stroke-dasharray:none;stroke-opacity:1" />
    <path
       style="fill:#565859;fill-opacity:1;fill-rule:evenodd;stroke:none;stroke-width:1px;stroke-linecap:butt;stroke-linejoin:miter;stroke-opacity:1"
       d="m 19.818148,1020.482 -0.05664,0.019 c 0,0 0.09504,0.1422 0.220703,0.3457 a 53.788063,53.788063 0 0 1 -0.164063,-0.3652 z m 0.806641,1.6601 c 0.138223,0.3613 0.249489,0.7329 0.265625,1.0879 0.05512,1.2126 -0.523438,2.6465 -0.523438,2.6465 l 0.0098,0 1.978516,-0.7187 a 53.788063,53.788063 0 0 1 -1.730469,-3.0176 z"
       id="path4319"
       inkscape:connector-curvature="0" />
    <path
       style="opacity:1;fill:#848688;fill-opacity:1;stroke:none;stroke-width:8;stroke-linecap:round;stroke-linejoin:round;stroke-miterlimit:4;stroke-dasharray:none;stroke-opacity:1"
       d="m 48.300548,1003.0199 c -3.420996,2.1855 -4.416808,6.6981 -2.231298,10.119 2.18551,3.4209 6.699705,4.4157 10.120701,2.2302 l 10.510819,-6.7148 c 3.420995,-2.1855 4.415764,-6.6997 2.230254,-10.12071 -2.185511,-3.421 -6.698662,-4.4142 -10.119657,-2.2286 l -10.510819,6.71491 z m 2.221828,3.4778 10.510819,-6.71491 c 1.554153,-0.9928 3.42817,-0.5799 4.421085,0.97431 0.99286,1.5541 0.57987,3.4281 -0.974283,4.421 l -10.510819,6.7148 c -1.554154,0.9929 -3.42817,0.5799 -4.421031,-0.9742 -0.992914,-1.5541 -0.579924,-3.4281 0.974229,-4.421 z"
       id="path4151"
       inkscape:connector-curvature="0" />
    <path
       style="opacity:1;fill:#626a45;fill-opacity:1;stroke:none;stroke-width:8;stroke-linecap:round;stroke-linejoin:round;stroke-miterlimit:4;stroke-dasharray:none;stroke-opacity:1"
       d="m 90.324008,948.22806 c -0.03519,0.0292 -0.07262,0.054 -0.107422,0.084 l -6.363282,4.72266 c -2.341127,1.73669 -3.075953,4.71861 -2.328124,7.40234 l -6.857422,5.13867 c -2.331066,-1.50073 -5.406735,-1.60735 -7.904297,-0.0117 l -10.511719,6.71485 c -2.404658,1.53621 -3.60405,4.22264 -3.349609,6.87109 l -12.556641,5.95313 c -1.443864,0.68449 -2.055584,2.39793 -1.371094,3.84179 0.684491,1.44387 2.397934,2.05559 3.841797,1.3711 l 12.861328,-6.09766 c 2.380017,1.87155 5.76015,2.1368 8.462891,0.41016 l 10.511719,-6.71485 c 2.612153,-1.66877 3.804626,-4.69387 3.251953,-7.55468 l 7.177734,-5.38086 c 2.561064,1.38354 5.798882,1.04074 8.333984,-0.83985 l 6.363282,-4.7207 c 1.319624,-0.97892 2.122154,-2.35657 2.445314,-3.85156 a 53.788063,53.788063 0 0 0 -4.400392,-3.22656 c 0.766552,1.33537 0.55598,2.99251 -0.736328,3.95117 l -6.365235,4.72265 c -0.370299,0.2747 -0.761502,0.47832 -1.160156,0.60743 l 0.439453,-0.33008 c 1.278642,-0.95831 1.536428,-2.75847 0.578125,-4.03711 -0.958303,-1.27864 -2.758467,-1.53643 -4.037109,-0.57813 l -0.94336,0.70703 c 0.191838,-0.46139 0.494462,-0.88625 0.945313,-1.2207 l 6.365234,-4.72266 c 0.642955,-0.55362 1.39468,-0.80813 2.136719,-0.80078 a 53.788063,53.788063 0 0 0 -4.722656,-2.41015 z m -19.529297,20.27539 c -1.134493,0.98474 -1.339464,2.67477 -0.423828,3.89648 0.732311,0.97711 1.955174,1.35306 3.0625,1.05078 -0.248643,0.37691 -0.578644,0.71589 -1.001953,0.98633 l -10.511719,6.71485 c -0.274685,0.17548 -0.559619,0.29174 -0.847657,0.38085 0.957178,-0.82671 1.293977,-2.20522 0.72461,-3.40625 -0.684491,-1.44386 -2.397933,-2.05558 -3.841797,-1.37109 l -0.671875,0.31836 c 0.253097,-0.51088 0.648339,-0.96946 1.191406,-1.31641 l 10.509766,-6.71484 c 0.579736,-0.37034 1.20413,-0.5462 1.810547,-0.53906 z"
       id="rect4227"
       inkscape:connector-curvature="0" />
    <path
       inkscape:connector-curvature="0"
       id="path4155"
       d="m 75.901288,983.77445 c -3.076147,2.64895 -3.421353,7.25721 -0.772394,10.33334 2.648949,3.07605 7.258641,3.42003 10.334787,0.77108 l 9.451281,-8.13881 c 3.076146,-2.64895 3.420093,-7.25865 0.77113,-10.3348 -2.648963,-3.07615 -7.257395,-3.41869 -10.333526,-0.76964 l -9.451278,8.13883 z m 2.692975,3.12722 9.451278,-8.13883 c 1.397498,-1.20334 3.311148,-1.06062 4.514615,0.3369 1.203398,1.39744 1.060587,3.31109 -0.336897,4.51453 l -9.451281,8.13881 c -1.397485,1.20345 -3.311149,1.06063 -4.514548,-0.33681 -1.203462,-1.39751 -1.060651,-3.31115 0.336833,-4.5146 z"
       style="opacity:1;fill:#848688;fill-opacity:1;stroke:none;stroke-width:8;stroke-linecap:round;stroke-linejoin:round;stroke-miterlimit:4;stroke-dasharray:none;stroke-opacity:1" />
    <path
       style="opacity:1;fill:#6e5b5b;fill-opacity:1;stroke:none;stroke-width:8;stroke-linecap:round;stroke-linejoin:round;stroke-miterlimit:4;stroke-dasharray:none;stroke-opacity:1"
       d="m 27.751221,982.32104 c -3.892613,1.1521 -6.099793,5.212 -4.947748,9.1047 1.152072,3.8925 5.21388,6.0991 9.106493,4.9471 l 11.959857,-3.5396 c 3.892612,-1.1521 6.099233,-5.2139 4.947188,-9.1065 -1.152046,-3.8926 -5.213294,-6.0975 -9.105934,-4.9453 l -11.959856,3.5396 z m 1.171202,3.9573 11.959857,-3.5397 c 1.768389,-0.5233 3.454624,0.3927 3.978023,2.1612 0.523375,1.7683 -0.392696,3.4545 -2.161112,3.9779 l -11.959857,3.5397 c -1.768417,0.5234 -3.454624,-0.3927 -3.977999,-2.1611 -0.523399,-1.7684 0.392672,-3.4546 2.161088,-3.978 z"
       id="path4166"
       inkscape:connector-curvature="0" />
    <path
       inkscape:connector-curvature="0"
       id="path4170"
       d="m 56.251827,970.27933 c -3.420996,2.1855 -4.416808,6.69814 -2.231298,10.11904 2.18551,3.4209 6.699705,4.4157 10.120701,2.2302 l 10.510819,-6.71484 c 3.420995,-2.1855 4.415764,-6.6997 2.230254,-10.1207 -2.185511,-3.421 -6.698662,-4.4142 -10.119657,-2.2286 l -10.510819,6.7149 z m 2.221828,3.4778 10.510819,-6.7149 c 1.554153,-0.9928 3.42817,-0.5799 4.421085,0.9743 0.99286,1.5541 0.57987,3.4281 -0.974283,4.421 l -10.510819,6.71484 c -1.554154,0.9929 -3.42817,0.5799 -4.421031,-0.9742 -0.992914,-1.5541 -0.579924,-3.42814 0.974229,-4.42104 z"
       style="opacity:1;fill:#7d8082;fill-opacity:1;stroke:none;stroke-width:8;stroke-linecap:round;stroke-linejoin:round;stroke-miterlimit:4;stroke-dasharray:none;stroke-opacity:1" />
    <path
       style="opacity:1;fill:#848688;fill-opacity:1;stroke:none;stroke-width:8;stroke-linecap:round;stroke-linejoin:round;stroke-miterlimit:4;stroke-dasharray:none;stroke-opacity:1"
       d="m 83.852567,951.03389 c -3.260364,2.4186 -3.421353,7.25721 -0.772394,10.33334 2.648949,3.07605 7.074418,3.18968 10.334787,0.77108 l 6.364471,-4.72127 c 3.260369,-2.41859 3.420089,-7.25865 0.771129,-10.3348 -2.648962,-3.07615 -7.257394,-3.41869 -10.333525,-0.76964 z m 2.692975,3.12722 6.364468,-4.72129 c 1.397498,-1.20334 3.311148,-1.06062 4.514615,0.3369 1.203398,1.39744 1.144295,3.41576 -0.336897,4.51453 l -6.364471,4.72127 c -1.481197,1.09878 -3.311149,1.06063 -4.514548,-0.33681 -1.203462,-1.39751 -1.144361,-3.41582 0.336833,-4.5146 z"
       id="path4174"
       inkscape:connector-curvature="0"
       sodipodi:nodetypes="ssssscsscsssss" />
    <path
       style="fill:#565859;fill-opacity:1;fill-rule:evenodd;stroke:none;stroke-width:1px;stroke-linecap:butt;stroke-linejoin:miter;stroke-opacity:1"
       d="m 76.370883,966.15189 -2.949219,1.89453 c 0.634268,1.01306 0.665904,2.1525 0.185547,3.09961 l 0.0078,0.0215 c 0,0 1.239149,-1.18533 1.625,-1.46094 0.385851,-0.27561 1.84809,-0.79795 2.289063,-0.66015 0.160695,0.0502 0.333476,0.15303 0.496094,0.26172 -0.06126,-1.03228 -0.345984,-2.06277 -0.863282,-3.0254 l -0.791015,-0.13085 z"
       id="path4332"
       inkscape:connector-curvature="0" />
    <path
       style="fill:#565859;fill-opacity:1;fill-rule:evenodd;stroke:none;stroke-width:1px;stroke-linecap:butt;stroke-linejoin:miter;stroke-opacity:1"
       d="m 84.622836,957.43899 c -0.117464,0.001 -0.19439,0.0127 -0.21875,0.0371 -0.152889,0.15289 -1.543215,1.70465 -2.263672,2.50782 0.259653,0.48734 0.56924,0.9529 0.939453,1.38281 0.974716,1.13187 2.190769,1.85984 3.5,2.21094 -0.140188,-0.46638 -0.247031,-1.0364 -0.111328,-1.46289 0.26222,-0.82412 2.072647,-2.23433 2.21875,-2.34766 -0.909094,0.0426 -1.79498,-0.29805 -2.478516,-1.0918 -0.303245,-0.35214 -0.525649,-0.74406 -0.666015,-1.15039 -0.365831,-0.0454 -0.721303,-0.088 -0.919922,-0.0859 z"
       id="path4337"
       inkscape:connector-curvature="0" />
    <rect
       transform="matrix(0.80475554,-0.59360637,0.60584205,0.79558495,0,0)"
       style="opacity:1;fill:#9a9c9d;fill-opacity:1;stroke:none;stroke-width:8;stroke-linecap:round;stroke-linejoin:round;stroke-miterlimit:4;stroke-dasharray:none;stroke-opacity:1"
       id="rect4239"
       width="23.948427"
       height="5.4453015"
       x="-531.76758"
       y="819.74567"
       ry="2.7226508" />
    <path
       style="opacity:1;fill:#848688;fill-opacity:1;stroke:none;stroke-width:8;stroke-linecap:round;stroke-linejoin:round;stroke-miterlimit:4;stroke-dasharray:none;stroke-opacity:1"
       d="m 101.17158,962.48825 c -3.242543,2.44245 -3.484472,7.22715 -0.86243,10.32617 2.62203,3.09902 7.08512,3.30354 10.32767,0.86112 l 5.62417,-4.23636 c 3.24256,-2.44243 3.48323,-7.22856 0.86118,-10.32768 -2.62206,-3.09912 -7.22733,-3.48181 -10.32643,-0.85967 z m 2.66561,3.15057 5.62417,-4.23642 c 1.40793,-1.19112 3.32026,-1.03173 4.5115,0.37623 1.19117,1.40788 1.03169,3.32021 -0.37623,4.51143 l -5.62417,4.23635 c -1.40792,1.19122 -3.32027,1.03173 -4.51144,-0.37614 -1.19123,-1.40787 -1.09692,-3.40184 0.37617,-4.51145 z"
       id="path4176"
       inkscape:connector-curvature="0"
       sodipodi:nodetypes="ssssscsscscccs" />
    <path
       style="fill:#3b0f0f;fill-opacity:1;fill-rule:evenodd;stroke:none;stroke-width:1px;stroke-linecap:butt;stroke-linejoin:miter;stroke-opacity:1"
       d="m 29.655422,981.47579 c 0,0 1.322918,-3.08682 3.086809,-3.19706 1.763892,-0.11024 3.803391,0.4961 3.803391,0.4961 0,0 1.543405,1.21267 2.094621,2.09462 0.551216,0.88194 1.212675,2.09462 2.039499,2.70096 0.826824,0.60633 1.984377,0.82682 2.149742,1.5434 0.165365,0.71658 1.433162,1.87413 1.433162,3.74827 0,1.87413 0.220486,4.29948 -0.05512,4.74046 -0.275608,0.44097 -0.661459,1.04731 -1.322918,1.5434 -0.661459,0.4961 -4.244363,0.55122 -4.244363,0.55122 0,0 -1.929256,-0.66146 -2.315108,-0.88195 -0.385851,-0.22048 -1.212675,-1.15755 -1.708769,-1.5434 -0.496095,-0.38585 -5.071188,-2.37023 -5.071188,-2.37023"
       id="path4223"
       inkscape:connector-curvature="0" />
    <path
       style="fill:#641919;fill-opacity:1;fill-rule:evenodd;stroke:none;stroke-width:1px;stroke-linecap:butt;stroke-linejoin:miter;stroke-opacity:1"
       d="m 41.898226,978.4761 c -0.721437,-0.009 -1.45763,0.0887 -2.1875,0.30469 l -11.958984,3.54102 c -0.08023,0.0237 -0.155589,0.0558 -0.234375,0.082 -0.605647,1.83427 -1.225428,3.69431 -1.462891,4.1875 -0.182507,0.37905 0.127489,1.29014 0.589844,2.29297 0.14773,-1.2094 0.979643,-2.22139 2.277344,-2.60547 l 11.960937,-3.54102 c 1.768389,-0.5233 3.455117,0.39361 3.978516,2.16211 0.523375,1.7683 -0.393693,3.45512 -2.162109,3.97852 l -11.958985,3.53906 c -0.797807,0.23613 -1.573161,0.16506 -2.238281,-0.13086 0.110826,0.18025 0.28125,0.46289 0.28125,0.46289 0,0 3.106326,1.85075 5.191406,3.01172 l 9.894532,-2.92773 c 3.892611,-1.1521 6.09931,-5.21483 4.947265,-9.10743 -0.936037,-3.16273 -3.791742,-5.21098 -6.917969,-5.25 z"
       id="path4211"
       inkscape:connector-curvature="0" />
    <path
       style="fill:#717d41;fill-opacity:1;fill-rule:evenodd;stroke:none;stroke-width:1px;stroke-linecap:butt;stroke-linejoin:miter;stroke-opacity:1"
       d="m 39.687553,996.24837 c 0,0 -0.110243,-3.96875 -2.645837,-4.74046 -2.535594,-0.7717 -3.748269,-2.09462 -3.748269,-2.09462 0,0 0.33073,-0.33073 -1.653648,-1.32292 -1.984377,-0.99218 -2.645837,-0.11024 -1.984377,-1.5434 0.661459,-1.43316 1.874134,-0.88195 2.315107,-2.75608 0.440973,-1.87413 0.881945,-3.41754 0.330729,-4.079 -0.551216,-0.66146 -1.984377,-1.76389 -3.197052,-1.76389 -1.212676,0 -5.51216,0.44097 -6.394106,2.09462 -0.881946,1.65365 -1.763891,7.05557 -2.976566,9.26043 -1.212676,2.20486 -2.204864,0.55122 -1.874135,4.74046 0.33073,4.18924 1.874135,6.94529 5.51216,7.05559 3.638026,0.1102 12.236995,0.3307 12.236995,0.3307"
       id="path4178"
       inkscape:connector-curvature="0" />
    <path
       style="fill:#4b5036;fill-opacity:1;fill-rule:evenodd;stroke:none;stroke-width:1px;stroke-linecap:butt;stroke-linejoin:miter;stroke-opacity:1"
       d="m 32.466797,52.703125 c -0.220487,0 -2.314453,1.103516 -2.314453,1.103516 l -0.607422,1.101562 c 0,0 0.274958,0.551208 0.330078,0.992188 0.05512,0.44097 0.220703,0.551207 0.220703,0.992187 0,0.44099 -0.55078,0.496094 -1.046875,0.496094 -0.496094,0 -1.92947,0.717885 -2.205078,0.828125 -0.275608,0.11025 -0.992624,0.495874 1.046875,0.771484 2.039499,0.2756 1.433594,1.763672 1.433594,1.763672 0,0 -1.762587,1.98351 -2.148438,2.09375 -0.385851,0.11024 0.109158,0.497172 0.384766,0.607422 0.275608,0.11024 0.936414,0.660806 1.322265,1.322266 0.385852,0.66146 1.379124,1.985243 1.59961,2.371093 0.220486,0.38585 1.984373,1.818577 2.976562,2.535157 0.992188,0.71658 2.811414,1.54232 3.69336,2.36914 0.29641,0.277887 0.688777,0.440013 1.083984,0.5625 -0.489216,-0.932248 -0.997507,-1.732356 -1.130859,-1.910156 -0.233861,-0.31182 0.311884,0.312801 -0.857422,-1.324219 -1.169305,-1.63703 -1.168242,-1.870335 -2.181641,-2.416015 -1.013398,-0.54568 -2.339842,-1.248047 -2.339844,-1.248047 l -1.324218,-1.169922 -0.3125,-1.324219 0.07422,0.002 c -0.02756,-0.129718 -0.04568,-0.273845 -0.03516,-0.43164 0.03898,-0.58466 -0.155137,-0.895644 0.351563,-1.402344 0.506699,-0.5067 1.479955,-1.053435 1.791769,-2.066835 0.311815,-1.0134 0.235062,-1.32355 0.390969,-2.06411 0.155906,-0.74056 0.03831,-2.222746 0.194215,-2.300696 0.155907,-0.0779 1.597656,-1.246093 1.597656,-1.246093 l 0.796875,-0.257813 c -0.664747,-0.192339 -2.598008,-0.75 -2.785156,-0.75 z"
       transform="translate(0,924.36216)"
       id="path4445"
       inkscape:connector-curvature="0"
       sodipodi:nodetypes="sccssscscscssssccssccccsssscccs" />
    <path
       style="fill:#3b0f0f;fill-opacity:1;fill-rule:evenodd;stroke:none;stroke-width:1px;stroke-linecap:butt;stroke-linejoin:miter;stroke-opacity:1"
       d="m 30.089844,63.220703 0.3125,1.324219 1.324218,1.169922 c 10e-7,0 1.326446,0.702367 2.339844,1.248047 1.013399,0.54568 1.012336,0.778985 2.181641,2.416015 1.169306,1.63702 0.623561,1.012399 0.857422,1.324219 0.233861,0.31181 1.637574,2.495617 2.027343,4.054687 0.389765,1.559031 0.3125,3.273982 0.3125,5.300782 10e-7,2.0268 -0.07847,3.274681 -0.234374,5.613281 -0.155908,2.3386 1.247634,3.896328 1.949218,5.611328 0.701583,1.7149 3.117188,9.511717 3.117188,9.511717 0,0 -0.234375,-1.793161 -0.234375,-3.664061 0,-1.8709 -1.246094,-6.938822 -1.246094,-8.419921 0,-1.4811 -0.85869,-6.079447 -0.546875,-7.560547 0.311814,-1.4811 0,-3.975932 0,-5.457032 0,-1.4811 0.625273,-1.481595 1.638672,-2.884765 1.013398,-1.40317 0.544922,-3.898438 0.544922,-3.898438 l -0.492188,-0.349609 c -0.100993,0.04864 -0.209457,0.101842 -0.365234,0.195312 -0.389769,0.23381 -1.637404,0.310547 -1.949219,0.310547 -0.311815,0 -1.833835,-0.132152 -2.457465,-0.521919 -0.62363,-0.38977 -0.788538,-0.340681 -0.944445,-1.509981 -0.155908,-1.16931 0.448673,-1.349248 0.6046,-1.583118 0.113378,-0.170066 0.34389,-0.601211 0.509766,-0.90625 l -2.700737,-1.168185 z"
       transform="translate(0,924.36216)"
       id="path4368"
       inkscape:connector-curvature="0"
       sodipodi:nodetypes="cccsscsssccssssscccssscccc" />
    <path
       style="fill:#666769;fill-opacity:1;fill-rule:evenodd;stroke:none;stroke-width:1px;stroke-linecap:butt;stroke-linejoin:miter;stroke-opacity:1"
       d="m 50.515414,1011.9097 c -1.615815,0.4738 -3.149058,0.931 -4.390625,1.3066 1.010274,1.5378 2.494622,2.5698 4.134765,3.0313 -0.07673,-0.4131 -0.181897,-0.8901 0.09744,-1.7281 0.687306,-0.9684 1.691525,-1.7057 2.185762,-2.1215 -0.717037,0.082 -1.423991,-0.084 -2.027344,-0.4883 z"
       id="path4299"
       inkscape:connector-curvature="0"
       sodipodi:nodetypes="cccccc" />
    <path
       style="fill:#666769;fill-opacity:1;fill-rule:evenodd;stroke:none;stroke-width:1px;stroke-linecap:butt;stroke-linejoin:miter;stroke-opacity:1"
       d="m 38.411898,1015.0835 c -0.227259,0.1136 -1.771782,1.5477 -1.861328,1.6309 0.30207,0.3473 0.543933,0.7641 0.689453,1.2558 0.221252,0.7476 0.170754,1.4748 -0.07813,2.1114 0.131425,-0.057 2.172624,-0.9421 3.041016,-0.9043 0.459747,0.02 0.905533,0.3362 1.234375,0.6406 0.126014,-0.9823 0.05979,-2.0058 -0.240235,-3.0195 -0.153039,-0.5171 -0.360874,-1.0015 -0.609374,-1.4551 -0.982935,-0.1723 -2.034599,-0.3303 -2.175782,-0.2598 z"
       id="path4306"
       inkscape:connector-curvature="0" />
    <rect
       ry="2.8628538"
       y="931.83942"
       x="-406.10669"
       height="5.7257075"
       width="22.593185"
       id="rect4149"
       style="opacity:1;fill:#9a9c9d;fill-opacity:1;stroke:none;stroke-width:8;stroke-linecap:round;stroke-linejoin:round;stroke-miterlimit:4;stroke-dasharray:none;stroke-opacity:1"
       transform="matrix(0.90360341,-0.42837003,0.42837003,0.90360341,0,0)" />
    <path
       style="fill:#666769;fill-opacity:1;fill-rule:evenodd;stroke:none;stroke-width:1px;stroke-linecap:butt;stroke-linejoin:miter;stroke-opacity:1"
       d="m 78.365023,991.51907 c -1.374477,0.50039 -3.068359,1.14649 -3.068359,1.14649 l -0.4375,1.09375 c 0.08889,0.11644 0.17264,0.23514 0.269531,0.34765 1.070458,1.24306 2.463108,2.03171 3.943359,2.36524 -0.15244,-0.34828 -0.298542,-0.87237 -0.02734,-1.38086 0.331896,-0.62231 1.538294,-1.88381 2.238281,-2.60156 -1.036588,0.21721 -2.11515,-0.1126 -2.917969,-0.97071 z"
       id="path4284"
       inkscape:connector-curvature="0" />
    <path
       style="fill:#666769;fill-opacity:1;fill-rule:evenodd;stroke:none;stroke-width:1px;stroke-linecap:butt;stroke-linejoin:miter;stroke-opacity:1"
       d="m 67.909945,998.23196 -2.453125,2.53124 c 0.712032,1.1187 0.687499,2.3973 0.04297,3.3985 0.798048,-0.5676 2.266526,-1.5352 3.126953,-1.5743 0.45907,-0.021 0.973435,0.06 1.455078,0.1602 0.0524,-1.4369 -0.314466,-2.90638 -1.15039,-4.21486 -0.04018,-0.0629 -0.08717,-0.11843 -0.128907,-0.17968 l -0.892578,-0.1211 z"
       id="path4289"
       inkscape:connector-curvature="0" />
    <rect
       transform="matrix(0.80020388,-0.59972806,0.59972806,0.80020388,0,0)"
       style="opacity:1;fill:#9a9c9d;fill-opacity:1;stroke:#000000;stroke-width:0;stroke-linecap:round;stroke-linejoin:round;stroke-miterlimit:4;stroke-dasharray:none;stroke-opacity:1"
       id="rect4153"
       width="25.257004"
       height="5.7685747"
       x="-551.66406"
       y="837.26727"
       ry="2.8842874" />
    <path
       style="fill:#666769;fill-opacity:1;fill-rule:evenodd;stroke:none;stroke-width:1px;stroke-linecap:butt;stroke-linejoin:miter;stroke-opacity:1"
       d="m 103.83182,970.51321 c -0.87377,0.54264 -1.92992,1.20539 -2.00586,1.30664 -0.0836,0.11152 -0.6883,0.87913 -1.11523,1.42188 0.94163,0.94891 2.07273,1.57296 3.28125,1.87695 0.0113,-0.27673 0.0662,-1.1056 0.56249,-1.70117 0.55735,-0.66881 2.3703,-2.21488 2.54688,-2.36523 -1.10419,0.47529 -2.33419,0.28676 -3.26953,-0.53907 z"
       id="path4274"
       inkscape:connector-curvature="0" />
    <path
       style="fill:#666769;fill-opacity:1;fill-rule:evenodd;stroke:none;stroke-width:1px;stroke-linecap:butt;stroke-linejoin:miter;stroke-opacity:1"
       d="m 95.86307,976.96439 -2.728516,1.40429 -0.443359,0.91406 c 0.634869,0.83758 0.827388,1.82771 0.570313,2.73829 0.313036,-0.27 1.815213,-1.54883 2.484375,-1.54883 0.617134,0 1.419959,0.51635 1.716797,0.71484 2.4e-5,-1.41385 -0.408257,-2.83146 -1.240235,-4.07031 -0.107037,-0.045 -0.359375,-0.15234 -0.359375,-0.15234 z"
       id="path4279"
       inkscape:connector-curvature="0" />
    <rect
       ry="2.8550661"
       y="811.88885"
       x="-554.67822"
       height="5.7101321"
       width="21.873039"
       id="rect4157"
       style="opacity:1;fill:#9a9c9d;fill-opacity:1;stroke:none;stroke-width:8;stroke-linecap:round;stroke-linejoin:round;stroke-miterlimit:4;stroke-dasharray:none;stroke-opacity:1"
       transform="matrix(0.77225935,-0.63530741,0.63530741,0.77225935,0,0)" />
    <path
       style="fill:#565859;fill-opacity:1;fill-rule:evenodd;stroke:none;stroke-width:1px;stroke-linecap:butt;stroke-linejoin:miter;stroke-opacity:1"
       d="m 57.109164,977.29837 c -1.225561,0.30021 -2.716797,0.67969 -2.716797,0.67969 0,0 -0.265586,1.34434 -0.447266,2.28711 0.0268,0.0439 0.04834,0.0892 0.07617,0.13281 0.798124,1.24927 1.907568,2.17089 3.160157,2.73633 0.0069,-0.24856 0.03263,-0.5191 0.132812,-0.79102 0.272838,-0.74056 2.884766,-2.61133 2.884766,-2.61133 0,0 -0.02458,-0.0453 -0.02539,-0.0469 -1.042026,0.009 -2.038626,-0.51355 -2.673828,-1.50781 -0.182017,-0.2849 -0.301467,-0.57991 -0.390625,-0.87891 z"
       id="path4327"
       inkscape:connector-curvature="0" />
    <rect
       transform="matrix(0.90360341,-0.42837003,0.42837003,0.90360341,0,0)"
       style="opacity:1;fill:#737577;fill-opacity:1;stroke:none;stroke-width:8;stroke-linecap:round;stroke-linejoin:round;stroke-miterlimit:4;stroke-dasharray:none;stroke-opacity:1"
       id="rect4168"
       width="25.257004"
       height="5.7685747"
       x="-387.56064"
       y="905.61823"
       ry="2.8842874" />
    <path
       style="fill:#641919;fill-opacity:1;fill-rule:evenodd;stroke:none;stroke-width:1px;stroke-linecap:butt;stroke-linejoin:miter;stroke-opacity:1"
       d="m 49.495883,978.76517 -9.150391,4.33789 c -1.443864,0.68449 -2.055584,2.39793 -1.371094,3.84179 0.684491,1.44387 2.397934,2.05559 3.841797,1.3711 l 9.837891,-4.66406 c -0.09876,-0.13149 -0.171875,-0.24216 -0.171875,-0.29493 0,-0.27284 1.558182,-1.16908 2.259765,-1.67578 0.701584,-0.50669 -0.349609,-0.62304 -0.349609,-0.62304 l -0.742187,0 c -0.545676,0 -0.818185,-0.11795 -0.740235,-0.46875 0.07795,-0.35079 0.818943,-1.32422 0.195313,-1.32422 -0.62363,0 -2.884012,0.46645 -3.429688,0.31054 -0.230312,-0.0658 -0.223778,-0.41339 -0.179687,-0.81054 z"
       id="path4216"
       inkscape:connector-curvature="0" />
    <path
       style="opacity:1;fill:#666769;fill-opacity:1;stroke:none;stroke-width:8;stroke-linecap:round;stroke-linejoin:round;stroke-miterlimit:4;stroke-dasharray:none;stroke-opacity:1"
       d="m 118.44705,961.40384 c -0.16625,0.35651 -0.40339,0.68566 -0.72851,0.95312 l -2.96875,2.44336 c 0.10332,-0.003 1.32288,-0.0469 1.77148,-0.30859 0.46773,-0.27284 1.67621,-0.70025 1.87109,-1.16797 0.12628,-0.30307 0.17596,-0.91132 0.20313,-1.38672 -0.0506,-0.17769 -0.085,-0.35861 -0.14844,-0.5332 z"
       id="rect4260"
       inkscape:connector-curvature="0" />
    <path
       style="fill:#565859;fill-opacity:1;fill-rule:evenodd;stroke:none;stroke-width:1px;stroke-linecap:butt;stroke-linejoin:miter;stroke-opacity:1"
       d="m 21.378695,1025.5132 -0.791015,0.2891 c 0.380107,-0.074 0.771625,-0.1541 1.109374,-0.2071 -0.110304,-0.015 -0.211985,-0.055 -0.318359,-0.082 z m -2.003906,0.7285 -2.679688,0.9746 c 0.316741,0.363 0.654204,0.7044 1.03125,0.9961 0.01735,-0.3639 0.08714,-0.7962 0.38086,-1.041 0.319799,-0.2665 0.817412,-0.6475 1.267578,-0.9297 z"
       id="path4311"
       inkscape:connector-curvature="0" />
    <path
       style="fill:#565859;fill-opacity:1;fill-rule:evenodd;stroke:none;stroke-width:1px;stroke-linecap:butt;stroke-linejoin:miter;stroke-opacity:1"
       d="m 102.01346,949.7261 c -0.0221,0.0194 -0.0376,0.0437 -0.0605,0.0625 l -3.869137,3.1836 c -0.04028,0.10871 -0.08445,0.21622 -0.138672,0.32031 0.02735,-0.0249 0.886573,-0.80817 1.308594,-1 0.401184,-0.37402 0.958785,-1.1684 2.201175,-1.36328 0.41969,0.0478 0.62663,0.17825 0.89648,0.38086 -0.0528,-0.53492 -0.171,-1.06527 -0.33789,-1.58399 z"
       id="path4344"
       inkscape:connector-curvature="0" />
    <path
       style="fill:#3b0f0f;fill-rule:evenodd;stroke:none;stroke-width:1px;stroke-linecap:butt;stroke-linejoin:miter;stroke-opacity:1;fill-opacity:1"
       d="m 37.041716,962.78956 c 0,0 0.496094,-1.76389 0.71658,-2.09462 0.220487,-0.33073 0.05512,-0.44097 1.267797,-1.04731 1.212675,-0.60634 4.244363,-2.09462 5.071187,-2.70096 0.826824,-0.60634 2.535594,-1.5434 2.811202,-1.5434 0.275608,0 2.259986,0 2.259986,0 l -0.826824,2.53559 -4.023877,3.74827"
       id="path4379"
       inkscape:connector-curvature="0" />
    <path
       style="fill:#441f05;fill-opacity:1;fill-rule:evenodd;stroke:none;stroke-width:1px;stroke-linecap:butt;stroke-linejoin:miter;stroke-opacity:1"
       d="m 38.91585,964.05736 -1.322918,-9.81165 -3.638026,-5.95313 -1.984377,-2.31511 -23.9227755,5.51216 -0.220486,-2.64584 c 0,0 5.4019175,-2.97656 5.8428895,-2.97656 0.440973,0 5.51216,-0.77171 6.17362,-0.99219 0.661459,-0.22049 6.283862,-2.20487 6.283862,-2.20487 l -1.433162,-3.30729 c 0,0 -4.8507,-2.86632 -5.291673,-3.08681 -0.440973,-0.22049 -6.283863,-1.32292 -6.283863,-1.32292 l 2.315108,-2.31511 4.740457,-1.21267 3.417539,2.97656 6.17362,4.40973 3.748269,3.19706 7.496537,3.74826 c 0,0 -0.551216,2.5356 0.33073,3.74827 0.881945,1.21268 7.276051,7.49654 7.276051,7.49654 l 0,6.83508"
       id="path4354"
       inkscape:connector-curvature="0" />
    <path
       style="fill:#717d41;fill-rule:evenodd;stroke:none;stroke-width:1px;stroke-linecap:butt;stroke-linejoin:miter;stroke-opacity:1;fill-opacity:1"
       d="m 36.380256,967.69538 c 0,0 0.440973,-5.18143 0.992189,-5.18143 0.551216,0 1.984378,-0.33073 3.858512,-0.33073 1.874135,0 2.204864,0.11024 3.307296,-0.7717 1.102432,-0.88195 1.543405,-1.21268 1.874135,-1.98438 0.330729,-0.7717 1.212675,-1.98438 1.212675,-1.98438 l 0.661459,-0.55121 c 0,0 0,-0.7717 1.102432,-0.7717 1.102432,0 0.551216,-0.33073 1.763891,0.11024 1.212675,0.44097 5.401917,0.55121 6.614592,1.10243 1.212676,0.55122 5.071188,3.52778 4.630215,3.96876 -0.440973,0.44097 -9.260429,5.51216 -9.701402,5.73264 -0.440973,0.22049 -12.788211,4.8507 -12.788211,4.8507"
       id="path4356"
       inkscape:connector-curvature="0" />
    <path
       style="opacity:1;fill:#240c03;fill-opacity:1;stroke:none;stroke-width:1;stroke-linecap:round;stroke-linejoin:round;stroke-miterlimit:4;stroke-dasharray:none;stroke-opacity:1"
       d="M 35.140625 23.324219 A 0.85438478 0.82682401 0 0 0 34.285156 24.150391 A 0.85438478 0.82682401 0 0 0 35.140625 24.978516 A 0.85438478 0.82682401 0 0 0 35.994141 24.150391 A 0.85438478 0.82682401 0 0 0 35.140625 23.324219 z M 38.585938 23.544922 A 0.99218881 0.99218881 0 0 0 37.59375 24.537109 A 0.99218881 0.99218881 0 0 0 38.585938 25.529297 A 0.99218881 0.99218881 0 0 0 39.578125 24.537109 A 0.99218881 0.99218881 0 0 0 38.585938 23.544922 z M 37.289062 26.300781 A 3.2797353 3.5002217 0 0 0 35.681641 26.753906 L 37.59375 29.882812 L 38.886719 39.474609 A 3.7758296 3.9687552 0 0 0 39.494141 39.529297 A 3.7758296 3.9687552 0 0 0 42.921875 37.210938 A 4.0238767 3.169492 0 0 0 44.207031 37.380859 A 4.0238767 3.169492 0 0 0 48.195312 34.603516 A 3.8860729 3.3624177 0 0 0 48.617188 34.451172 L 48.617188 32.638672 C 48.617188 32.638672 45.581776 29.649978 43.402344 27.392578 A 2.1221817 2.3977897 0 0 0 42.335938 29.410156 A 2.5631545 2.0394993 0 0 0 41.974609 29.386719 A 2.5631545 2.0394993 0 0 0 40.566406 29.724609 A 3.2797353 3.5002217 0 0 0 37.289062 26.300781 z "
       transform="translate(0,924.36216)"
       id="path4381" />
    <path
       style="fill:#3b0f0f;fill-rule:evenodd;stroke:none;stroke-width:1px;stroke-linecap:butt;stroke-linejoin:miter;stroke-opacity:1;fill-opacity:1"
       d="m 36.014616,962.8713 c 0,0 2.416566,-1.0134 3.35201,-1.32522 0.935445,-0.31181 0.62363,-0.62363 2.338612,-0.93544 1.714981,-0.31182 2.338611,-0.85749 3.196102,-1.48112 0.857491,-0.62363 1.48112,-0.85749 2.10475,-1.55908 0.62363,-0.70158 0.935445,-0.93544 1.091352,-1.40316 0.155908,-0.46773 0,-0.38977 0.389769,-0.85749 0.389768,-0.46773 1.48112,-0.93545 1.48112,-0.93545 0,0 -0.311815,2.88429 -1.091352,3.50792 -0.779537,0.62363 -1.169305,1.48112 -1.637028,2.10475 -0.467722,0.62363 -1.325213,2.10475 -2.182704,2.1827 -0.857491,0.0779 -3.040195,0.70159 -4.443361,0.85749 -1.403167,0.15591 -3.196103,0.54568 -3.585871,0.46772 -0.389769,-0.0779 -1.013399,-0.1559 -1.013399,-0.1559"
       id="path4358"
       inkscape:connector-curvature="0" />
    <path
       style="fill:#156507;fill-opacity:1;fill-rule:evenodd;stroke:none;stroke-width:1px;stroke-linecap:butt;stroke-linejoin:miter;stroke-opacity:1"
       d="m 8.3945465,950.25616 c 0,0 -3.1181486,-0.77953 -4.0535932,3.0402 -0.9354446,3.81973 0,7.87332 0,7.87332 0,0 4.9110841,-1.55907 6.1583427,-4.13154 1.24726,-2.57248 -0.6236286,-6.39221 -0.6236286,-6.39221"
       id="path4360"
       inkscape:connector-curvature="0" />
    <path
       inkscape:connector-curvature="0"
       id="path4362"
       d="m 25.945903,933.4218 c 0,0 1.035165,-3.84466 -1.65986,-6.04554 -2.695019,-2.20088 -5.837743,-2.03453 -5.837743,-2.03453 0,0 0.435937,6.77547 2.160451,9.05866 1.724519,2.28318 4.830996,0.84258 4.830996,0.84258"
       style="fill:#156507;fill-opacity:1;fill-rule:evenodd;stroke:none;stroke-width:1px;stroke-linecap:butt;stroke-linejoin:miter;stroke-opacity:1" />
    <path
       style="fill:#3b0f0f;fill-rule:evenodd;stroke:none;stroke-width:1px;stroke-linecap:butt;stroke-linejoin:miter;stroke-opacity:1;fill-opacity:1"
       d="m 37.028015,963.26106 c 0,0 0.233861,2.49452 0.233861,3.27406 0,0.77954 1.169306,-2.1827 1.169306,-2.1827 0,0 1.48112,1.55907 1.169305,2.26065 -0.311815,0.70159 1.403167,-0.62363 1.325213,2.57248 -0.07795,3.1961 0.62363,4.91108 0.935445,5.14494 0.311815,0.23386 2.10475,2.10475 2.10475,2.10475 0,0 -1.403167,-2.49452 -1.403167,-3.66382 0,-1.16931 0.779538,-4.2095 1.013399,-4.91109 0.233861,-0.70158 0.467722,-2.57247 0.467722,-2.57247 0,0 2.182704,-1.0134 2.338611,-1.48112 0.155908,-0.46772 1.013399,-1.71498 1.403167,-1.87089 0.389769,-0.15591 0.935445,-0.46772 1.013399,-1.48112 0.07795,-1.0134 -0.155908,-2.26066 -0.155908,-2.65043 0,-0.38977 0.233861,-0.93544 0.233861,-0.93544"
       id="path4366"
       inkscape:connector-curvature="0" />
    <path
       inkscape:connector-curvature="0"
       id="path4373"
       d="m 13.903855,945.92128 c 0,0 0.365743,-3.19324 -3.543424,-3.62196 -3.9091681,-0.42872 -7.8059253,1.02796 -7.8059253,1.02796 0,0 2.1869293,4.66549 4.9002247,5.56621 2.7133056,0.90071 6.2560706,-1.45288 6.2560706,-1.45288"
       style="fill:#156507;fill-opacity:1;fill-rule:evenodd;stroke:none;stroke-width:1px;stroke-linecap:butt;stroke-linejoin:miter;stroke-opacity:1" />
    <ellipse
       style="opacity:1;fill:#717d41;fill-opacity:1;stroke:none;stroke-width:1;stroke-linecap:round;stroke-linejoin:round;stroke-miterlimit:4;stroke-dasharray:none;stroke-opacity:1"
       id="path4431"
       cx="42.057781"
       cy="1036.6525"
       rx="3.3624177"
       ry="3.5829041" />
    <ellipse
       style="opacity:1;fill:#717d41;fill-opacity:1;stroke:none;stroke-width:1;stroke-linecap:round;stroke-linejoin:round;stroke-miterlimit:4;stroke-dasharray:none;stroke-opacity:1"
       id="path4433"
       cx="76.233177"
       cy="1022.1555"
       rx="5.3467951"
       ry="5.2916737" />
    <ellipse
       style="opacity:1;fill:#717d41;fill-opacity:1;stroke:none;stroke-width:1;stroke-linecap:round;stroke-linejoin:round;stroke-miterlimit:4;stroke-dasharray:none;stroke-opacity:1"
       id="path4435"
       cx="89.241875"
       cy="1006.4459"
       rx="2.7009585"
       ry="2.5907152" />
    <ellipse
       style="opacity:1;fill:#717d41;fill-opacity:1;stroke:none;stroke-width:1;stroke-linecap:round;stroke-linejoin:round;stroke-miterlimit:4;stroke-dasharray:none;stroke-opacity:1"
       id="path4437"
       cx="106.77054"
       cy="991.56305"
       rx="6.8902001"
       ry="6.5594707" />
    <circle
       style="opacity:1;fill:#717d41;fill-opacity:1;stroke:none;stroke-width:1;stroke-linecap:round;stroke-linejoin:round;stroke-miterlimit:4;stroke-dasharray:none;stroke-opacity:1"
       id="path4439"
       cx="92.990143"
       cy="999.8313"
       r="1.37804" />
    <ellipse
       style="opacity:1;fill:#717d41;fill-opacity:1;stroke:none;stroke-width:1;stroke-linecap:round;stroke-linejoin:round;stroke-miterlimit:4;stroke-dasharray:none;stroke-opacity:1"
       id="path4441"
       cx="95.635979"
       cy="967.97101"
       rx="2.3702288"
       ry="2.1497424" />
    <ellipse
       style="opacity:1;fill:#717d41;fill-opacity:1;stroke:none;stroke-width:1;stroke-linecap:round;stroke-linejoin:round;stroke-miterlimit:4;stroke-dasharray:none;stroke-opacity:1"
       id="path4443"
       cx="75.902443"
       cy="951.76526"
       rx="4.2443633"
       ry="3.6931472" />
    <path
       style="fill:#4b5036;fill-rule:evenodd;stroke:none;stroke-width:1px;stroke-linecap:butt;stroke-linejoin:miter;stroke-opacity:1;fill-opacity:1"
       d="M 103.44531 87.152344 C 103.05554 87.152344 103.28906 90.192028 103.28906 91.361328 C 103.28906 92.530628 102.43061 94.635037 101.96289 95.648438 C 101.49517 96.661838 100.71543 96.740359 100.0918 96.818359 C 99.468167 96.896259 99.312398 98.142997 98.376953 100.0918 C 97.441509 102.0407 96.428489 101.34054 95.882812 101.65234 C 95.337137 101.96414 94.168038 101.57374 93.310547 101.33984 C 92.453056 101.10594 94.791529 104.61413 95.025391 105.86133 C 95.259252 107.10863 95.103858 108.04337 95.259766 109.13477 C 95.415673 110.22617 95.259424 109.83654 95.103516 110.14844 C 94.947609 110.46024 95.415432 112.2527 96.039062 113.5 C 96.581015 114.58385 99.472752 115.43156 100.27344 115.83984 C 100.31451 115.05272 100.24278 114.35066 99.880859 114.10938 C 98.88867 113.44797 97.564453 112.6763 97.564453 112.125 C 97.564453 111.5738 97.896267 111.02233 97.675781 108.92773 C 97.455295 106.83313 96.131943 105.51111 97.234375 104.84961 C 98.336807 104.18811 98.556641 101.98242 98.556641 101.98242 C 98.556641 101.98242 99.990011 100.77015 100.76172 100.43945 C 101.53342 100.10865 102.74609 97.351562 102.74609 97.351562 L 105.39258 93.935547 C 105.39258 93.935547 103.62955 92.391234 106.27539 93.052734 C 108.92122 93.714134 109.91211 93.824219 109.91211 93.824219 C 109.91211 93.824219 110.24305 89.305081 112.11719 90.738281 C 113.99132 92.171381 115.64497 91.509766 116.08594 91.509766 C 116.51494 91.509766 118.35283 92.016607 118.45508 92.044922 A 53.788063 53.788063 0 0 0 119.20312 89.771484 C 118.82013 89.820323 118.61656 89.837388 118.33398 89.880859 C 117.32053 90.036759 117.39844 87.619141 117.39844 87.619141 C 117.39844 87.619141 115.13823 89.568359 114.04688 89.568359 C 112.95551 89.568359 113.65557 89.490109 113.34375 89.412109 C 113.03194 89.334109 111.63041 88.242966 110.53906 87.697266 C 109.44771 87.151566 109.83583 89.568981 108.90039 90.738281 C 107.96495 91.907581 107.49828 90.971381 106.71875 90.425781 C 105.93921 89.880081 103.83508 87.152344 103.44531 87.152344 z "
       transform="translate(0,924.36216)"
       id="path4461" />
  </g>
</svg>
