<?xml version="1.0" encoding="UTF-8" standalone="no"?>
<!-- Created with Inkscape (http://www.inkscape.org/) -->

<svg
   xmlns:dc="http://purl.org/dc/elements/1.1/"
   xmlns:cc="http://creativecommons.org/ns#"
   xmlns:rdf="http://www.w3.org/1999/02/22-rdf-syntax-ns#"
   xmlns:svg="http://www.w3.org/2000/svg"
   xmlns="http://www.w3.org/2000/svg"
   xmlns:sodipodi="http://sodipodi.sourceforge.net/DTD/sodipodi-0.dtd"
   xmlns:inkscape="http://www.inkscape.org/namespaces/inkscape"
   width="128"
   height="128"
   viewBox="0 0 128 128"
   id="svg2"
   version="1.1"
   inkscape:version="0.91 r13725"
   sodipodi:docname="enraged_marking.svg"
   inkscape:export-filename="C:\Prog\Projets\teeworlds\skins\enrqged.png"
   inkscape:export-xdpi="90"
   inkscape:export-ydpi="90">
  <title
     id="title4181">enraged_marking</title>
  <defs
     id="defs4" />
  <sodipodi:namedview
     id="base"
     pagecolor="#ffffff"
     bordercolor="#666666"
     borderopacity="1.0"
     inkscape:pageopacity="0.0"
     inkscape:pageshadow="2"
     inkscape:zoom="6.4140625"
     inkscape:cx="46.728521"
     inkscape:cy="66.857291"
     inkscape:document-units="px"
     inkscape:current-layer="layer1"
     showgrid="false"
     units="px"
     inkscape:window-width="1920"
     inkscape:window-height="1018"
     inkscape:window-x="-8"
     inkscape:window-y="-8"
     inkscape:window-maximized="1" />
  <metadata
     id="metadata7">
    <rdf:RDF>
      <cc:Work
         rdf:about="">
        <dc:format>image/svg+xml</dc:format>
        <dc:type
           rdf:resource="http://purl.org/dc/dcmitype/StillImage" />
        <dc:title>enraged_marking</dc:title>
      </cc:Work>
    </rdf:RDF>
  </metadata>
  <g
     inkscape:label="Calque 1"
     inkscape:groupmode="layer"
     id="layer1"
     transform="translate(0,-924.3622)">
    <path
       style="fill:#300000;fill-rule:evenodd;stroke:none;stroke-width:1px;stroke-linecap:butt;stroke-linejoin:miter;stroke-opacity:1;fill-opacity:1"
       d="M 55.853516 35.798828 C 56.049618 35.589934 47.589999 37.261719 46.771484 37.261719 C 45.836039 37.261719 43.031148 39.13219 42.095703 42.40625 C 41.160259 45.68031 40.224609 45.214028 40.224609 46.617188 C 40.224609 48.020357 36.793209 49.110162 36.013672 50.357422 C 35.234135 51.604682 34.611328 54.723647 34.611328 57.841797 C 34.611328 60.959937 35.859375 59.869141 35.859375 59.869141 C 35.859375 59.869141 33.36479 67.508016 32.273438 69.378906 C 31.182086 71.249786 33.675884 73.431504 34.611328 75.146484 C 35.546773 76.861504 35.546875 80.915259 35.546875 82.318359 C 35.546875 83.721559 37.573294 86.373444 38.041016 87.464844 C 38.508738 88.556144 42.250548 88.555941 44.277344 88.244141 C 46.304141 87.932341 48.486636 90.115225 51.292969 92.765625 C 54.099303 95.416025 51.604645 93.856712 53.007812 96.195312 C 54.410979 98.533912 61.894531 99.001953 61.894531 99.001953 C 61.894531 99.001953 58.932224 97.286059 58.308594 96.818359 C 57.684964 96.350659 55.971628 93.700075 55.503906 92.296875 C 55.036184 90.893675 54.566988 89.957887 53.943359 88.554688 C 53.319729 87.151587 48.95429 83.254209 47.707031 82.474609 C 46.459771 81.695109 45.212651 79.981325 45.992188 78.578125 C 46.771725 77.175025 43.653509 72.965087 42.40625 72.185547 C 41.158991 71.406007 41.938185 66.261515 42.25 64.390625 C 42.423054 63.352295 42.405418 61.197726 42.380859 59.240234 C 43.698272 58.431328 45.115978 57.54628 45.525391 57.21875 C 46.304928 56.59512 46.615542 56.594576 49.421875 55.191406 C 52.228209 53.788236 51.604988 51.605158 53.164062 48.798828 C 54.723137 45.992488 54.879796 47.552637 57.0625 46.617188 C 59.245204 45.681748 60.803282 45.525294 62.830078 44.589844 C 64.856875 43.654404 65.170025 44.121191 66.105469 45.056641 C 67.040914 45.992081 70.781695 46.771824 71.873047 46.927734 C 72.964399 47.083634 70.78125 43.654297 70.78125 43.654297 C 70.78125 43.654297 68.288173 40.068262 66.105469 39.132812 C 63.922765 38.197373 63.453744 38.509396 60.179688 41.003906 C 56.905632 43.498426 54.255758 43.186237 53.320312 43.498047 C 52.522849 43.763872 50.902077 45.165528 46.103516 46.828125 C 46.48469 45.130608 46.682256 43.54246 46.771484 43.185547 C 46.927391 42.561917 51.761443 36.949112 55.191406 36.013672 C 55.620152 35.896741 55.825501 35.82867 55.853516 35.798828 z "
       transform="translate(0,924.3622)"
       id="path4149" />
    <path
       style="fill:#300000;fill-rule:evenodd;stroke:none;stroke-width:1px;stroke-linecap:butt;stroke-linejoin:miter;stroke-opacity:1;fill-opacity:1"
       d="M 72.476562 36.873047 C 71.950375 36.951001 71.951891 37.886441 74.056641 41.316406 C 78.266142 48.176336 79.667764 53.944593 77.796875 56.283203 C 75.925985 58.621813 76.081929 59.089708 75.146484 60.804688 C 74.21104 62.519667 74.524124 67.196099 74.835938 68.443359 C 75.147752 69.690619 76.862151 70.781901 75.458984 73.744141 C 75.386315 73.897556 75.324304 74.068093 75.255859 74.228516 C 73.879776 73.689816 71.973293 72.614531 71.716797 71.716797 C 71.404982 70.625447 69.690174 68.444079 67.351562 66.105469 C 65.012951 63.766859 63.609375 60.804688 63.609375 60.804688 C 63.609375 60.804688 62.050198 61.583984 62.673828 61.583984 C 63.297458 61.583984 64.38946 65.325346 65.636719 66.728516 C 66.883978 68.131686 67.041016 70.00309 67.041016 71.40625 C 67.041016 72.80942 67.664165 74.211044 68.599609 75.146484 C 69.535054 76.081904 71.249519 77.017725 72.808594 77.953125 C 73.190004 78.181985 73.58108 78.50775 73.962891 78.900391 C 73.708731 80.565338 73.672517 82.112154 73.900391 83.099609 C 74.368113 85.126409 75.458881 85.438044 74.523438 87.464844 C 73.587992 89.491644 71.716797 93.232422 71.716797 93.232422 L 69.845703 95.572266 C 76.237907 91.674566 77.173931 90.738134 78.109375 89.802734 C 79.04482 88.867234 82.943359 88.242897 82.943359 85.904297 C 82.943359 83.565697 79.512951 81.384572 81.851562 79.513672 C 84.190174 77.642772 86.216215 76.707218 86.839844 74.992188 C 87.463474 73.277208 85.281592 70.781386 85.4375 69.066406 C 85.593407 67.351426 87.931641 65.637205 87.931641 64.078125 C 87.931641 62.519055 89.802188 63.141928 87.775391 60.179688 C 85.748594 57.217448 82.942091 55.814832 83.253906 53.320312 C 83.56572 50.825793 85.748287 49.111707 84.96875 46.617188 C 84.189213 44.122668 79.824219 41.003906 79.824219 41.003906 C 79.824219 41.003906 79.201652 39.756453 77.642578 39.132812 C 76.083504 38.509193 74.056641 37.574219 74.056641 37.574219 C 74.056641 37.574219 73.00275 36.795093 72.476562 36.873047 z "
       transform="translate(0,924.3622)"
       id="path4151" />
    <path
       style="fill:#300000;fill-rule:evenodd;stroke:none;stroke-width:1px;stroke-linecap:butt;stroke-linejoin:miter;stroke-opacity:1;fill-opacity:1"
       d="m 49.578563,994.83236 c 3.741778,7.79534 5.612667,7.79534 7.327649,11.53714 1.714982,3.7418 1.559074,6.3922 3.429963,6.3922 1.87089,0 7.32765,3.5859 4.833131,-1.2472 -2.494519,-4.8332 -6.08039,-8.419 -6.236297,-11.3813 -0.155908,-2.96223 3.741778,-1.55906 -0.62363,-4.52131 -4.365408,-2.96224 -5.768575,-3.58587 -5.768575,-3.58587 l -3.118149,-2.1827"
       id="path4159"
       inkscape:connector-curvature="0" />
    <path
       style="fill:#300000;fill-rule:evenodd;stroke:none;stroke-width:1px;stroke-linecap:butt;stroke-linejoin:miter;stroke-opacity:1;fill-opacity:1"
       d="m 88.711328,1009.6436 c 3.585871,-4.0536 0.779537,-4.0536 2.026796,-6.2363 1.24726,-2.1827 1.870889,-2.8064 2.182704,-4.20953 0.311815,-1.40317 -0.155907,-3.27406 1.403167,-4.67723 1.559074,-1.40316 2.806334,-2.80633 0.467722,-2.33861 -2.338611,0.46772 -3.741778,0.46772 -4.053593,2.18271 -0.311815,1.71498 -1.403167,4.98903 -1.714981,6.85996 -0.311815,1.8709 -0.311815,4.2095 -1.24726,5.1449 -0.935445,0.9355 -0.935445,1.8709 -0.935445,1.8709"
       id="path4161"
       inkscape:connector-curvature="0" />
    <path
       style="fill:#d20000;fill-rule:evenodd;stroke:none;stroke-width:1px;stroke-linecap:butt;stroke-linejoin:miter;stroke-opacity:1;fill-opacity:1"
       d="m 59.16687,1022.6618 c 0,0 -3.274056,-2.4945 -3.741779,-3.1181 -0.467722,-0.6236 -1.169305,-0.9355 -1.714981,-2.8843 -0.545676,-1.9488 -0.779537,-3.1182 -1.325214,-3.7418 -0.545676,-0.6236 -1.714981,-1.9488 -2.494518,-2.4945 -0.779538,-0.5457 -2.494519,-1.637 -3.118149,-2.2607 -0.62363,-0.6236 -1.870889,-1.559 -1.948843,-1.9488 -0.07795,-0.3898 0.233861,-3.5079 -0.467722,-4.7552 -0.701584,-1.2472 -0.857491,-1.94882 -1.637028,-2.57245 -0.779537,-0.62363 -1.637028,-1.55907 -1.714982,-2.0268 -0.07795,-0.46772 -1.091352,-2.1827 -1.091352,-3.1961 0,-1.0134 -0.311815,-5.30085 -0.311815,-5.30085 0,0 0.389769,-1.94884 0.857491,-3.27406 0.467722,-1.32521 1.169306,-3.27405 1.403167,-5.06699 0.233861,-1.79293 -0.701583,-1.79293 1.403167,-2.10475 2.10475,-0.31181 2.416565,0.078 3.741778,-0.77953 1.325213,-0.8575 1.637028,-0.70159 2.884288,-2.57248 1.247259,-1.87089 2.10475,-3.27405 2.10475,-3.27405 0,0 0.389768,-1.24726 3.040195,-1.63703 2.650426,-0.38977 3.040195,-0.0779 4.443362,-0.85749 1.403166,-0.77954 1.870889,-1.48112 3.040194,-1.71498 1.169306,-0.23386 0.07795,-1.24726 2.806334,-0.23386 2.72838,1.01339 4.209501,2.1827 4.209501,2.1827 l 0.389768,0.23386 c 0,0 -2.494519,-2.49452 -3.118148,-3.11815 -0.62363,-0.62363 -1.24726,-1.32521 -1.870889,-1.32521 -0.62363,0 -3.118149,0.77954 -3.663825,1.09135 -0.545676,0.31181 -3.741778,1.87089 -4.911084,2.41657 -1.169306,0.54567 -6.158344,2.57247 -6.548112,3.04019 -0.389769,0.46772 -0.233861,0.62363 -2.10475,2.1827 -1.87089,1.55908 -1.403167,2.18271 -2.338612,1.79294 -0.935444,-0.38977 -1.325213,-1.40317 -1.403167,-2.57247 -0.07795,-1.16931 -0.07795,-1.79294 0.311815,-2.57248 0.389769,-0.77953 0.62363,-2.41656 0.935445,-2.88428 0.311815,-0.46772 1.637028,-2.26066 2.182704,-2.65043 0.545676,-0.38977 2.650426,-2.65043 2.650426,-2.65043 0,0 -1.247259,-0.31181 -3.274056,1.55908 -2.026797,1.87089 -3.429963,4.13155 -3.507917,5.30085 -0.07795,1.16931 -0.311815,3.11815 -1.24726,4.52132 -0.935444,1.40316 -1.48112,1.94884 -2.338611,2.80633 -0.857491,0.85749 -1.559074,1.55907 -1.948843,2.0268 -0.389769,0.46772 0.07795,3.66382 0.389769,5.06699 0.311815,1.40317 -2.72838,6.00243 -2.72838,6.54811 0,0.54568 0.467722,0.23386 -0.155908,1.87089 -0.62363,1.63703 -2.026796,0.15591 -0.857491,2.10475 1.169306,1.94884 2.104751,4.13155 2.650427,5.45676 0.545676,1.32518 1.169305,3.97568 1.091352,5.92448 -0.07795,1.9488 -1.24726,1.7929 0.07795,3.43 1.325214,1.637 0.857491,1.7929 2.650427,1.559 1.792935,-0.2338 2.182704,-0.9354 4.053593,0.1559 1.870889,1.0914 1.325213,1.5591 3.585871,2.4166 2.260657,0.8575 2.806333,1.4032 3.040195,1.8709 0.233861,0.4677 1.792935,3.2741 2.10475,4.2095 0.311815,0.9354 0.155907,1.1693 1.091352,1.9488 0.935445,0.7796 1.714982,1.0914 1.714982,1.0914"
       id="path4165"
       inkscape:connector-curvature="0" />
    <path
       style="fill:#d20000;fill-rule:evenodd;stroke:none;stroke-width:1px;stroke-linecap:butt;stroke-linejoin:miter;stroke-opacity:1;fill-opacity:1"
       d="m 63.72057,1012.2337 c 0,0 -1.322918,-1.7088 -2.204864,-2.9215 -0.881945,-1.2126 -2.645837,-3.5829 -2.75608,-4.8507 -0.110243,-1.2678 -0.992189,-2.9214 -1.37804,-3.9687 -0.385851,-1.04734 0.05512,-2.31513 -0.937067,-3.36244 -0.992189,-1.04731 -2.039499,-1.98438 -2.370229,-2.20487 -0.330729,-0.22048 -2.976566,-2.09462 -2.976566,-2.09462 0,0 0.606337,1.81901 1.763891,3.3073 1.157554,1.48828 1.929256,2.53559 1.984378,3.25217 0.05512,0.71656 0.05512,1.59856 0.496094,2.25996 0.440973,0.6615 4.244363,7.7171 4.244363,7.7171"
       id="path4175"
       inkscape:connector-curvature="0" />
    <path
       style="fill:#d20000;fill-rule:evenodd;stroke:none;stroke-width:1px;stroke-linecap:butt;stroke-linejoin:miter;stroke-opacity:1;fill-opacity:1"
       d="m 73.587337,1017.0844 c 0,0 1.929256,-1.6537 2.480472,-2.5356 0.551216,-0.882 1.433161,-2.5356 2.149742,-2.8663 0.716581,-0.3308 1.70877,-0.1103 1.37804,-1.2678 -0.330729,-1.1576 -0.606337,-2.7561 -0.606337,-3.5829 0,-0.8269 0.661459,-2.9215 1.322918,-4.0239 0.661459,-1.1025 1.04731,-1.3781 1.819013,-2.26 0.771702,-0.88195 1.267797,-3.3073 1.267797,-4.35461 0,-1.04731 0.110243,-6.00825 0.826824,-7.11069 0.71658,-1.10243 -0.220487,-4.57509 -0.66146,-4.90582 -0.440972,-0.33073 -0.771702,-1.98438 -0.771702,-2.48047 0,-0.4961 -0.881946,-6.1185 -0.606338,-7.05557 0.275608,-0.93706 0.66146,-1.65364 0.826824,-2.42535 0.165365,-0.7717 -0.220486,-1.65364 -1.102432,-2.37023 -0.881945,-0.71658 -3.693147,-2.92144 -3.913633,-3.25217 -0.220487,-0.33073 -2.315107,-1.98438 -2.645837,-2.42535 -0.33073,-0.44097 -0.33073,-0.82682 -0.33073,-0.44097 0,0.38585 1.984378,3.91363 2.976567,5.23655 0.992189,1.32292 1.267797,1.2678 1.653648,2.8112 0.385851,1.54341 0.826824,4.40973 0.881945,5.07119 0.05512,0.66146 0.496095,2.25998 0.05512,3.69315 -0.440973,1.43316 -1.102432,2.42535 -1.763891,3.74826 -0.661459,1.32292 -0.33073,0.77171 -0.826824,3.03169 -0.496095,2.25999 -0.385851,3.5829 -0.165365,4.90582 0.220486,1.32292 0.385851,2.81121 0.385851,3.03169 0,0.22049 -0.771702,1.70877 -0.496094,3.19706 0.275608,1.48828 0.606337,1.87412 -0.33073,1.87412 -0.937067,0 -2.094621,0 -2.535593,-0.1102 -0.440973,-0.1103 -2.756081,-0.44101 -3.141932,-1.21271 -0.385851,-0.7717 -1.157553,-1.59853 -1.488283,-2.25999 -0.33073,-0.66145 -1.433162,-1.98437 -1.763891,-2.64583 -0.33073,-0.66146 -2.535594,-4.35461 -2.535594,-4.35461 0,0 3.417539,7.49654 3.638026,7.82727 0.220486,0.33073 0.110243,0.49609 0.496094,0.93707 0.385851,0.44097 1.819013,1.7639 2.315107,1.9293 0.496095,0.1653 2.370229,1.3229 2.866324,1.4882 0.496094,0.1654 1.04731,1.323 1.04731,1.323 0,0 -0.110243,1.0473 -0.220486,2.2048 -0.110243,1.1576 0.220486,1.9293 0.330729,2.4805 0.110244,0.5512 0.275608,0.9922 0.110244,1.9292 -0.165365,0.9371 -1.102432,3.2522 -1.102432,3.2522"
       id="path4177"
       inkscape:connector-curvature="0" />
    <path
       style="fill:#d20000;fill-rule:evenodd;stroke:none;stroke-width:1px;stroke-linecap:butt;stroke-linejoin:miter;stroke-opacity:1;fill-opacity:1"
       d="m 88.635534,1007.7688 c 0,0 0.71658,-0.8268 0.826824,-1.2678 0.110243,-0.4409 0.110243,-1.1024 0.110243,-1.5434 0,-0.4409 0.385851,-1.7639 0.551216,-2.26 0.165365,-0.4961 0.937067,-1.7087 1.04731,-2.5907 0.110243,-0.88192 0.110243,-1.3229 0.385851,-2.14972 0.275608,-0.82682 0.66146,-2.8112 0.937068,-2.97657 0.275608,-0.16536 0.606337,-0.2756 1.102432,-0.71658 0.496094,-0.44097 1.488283,-1.04731 1.267797,-1.10243 -0.220487,-0.0551 -2.0395,0.11024 -2.204865,0.38585 -0.165364,0.27561 -1.267796,0.77171 -1.322918,1.43316 -0.05512,0.66146 -0.385851,2.86633 -0.496094,3.36242 -0.110244,0.4961 -0.716581,2.14977 -0.771703,2.53557 -0.05512,0.3859 -1.433161,6.1736 -1.433161,6.1736 z"
       id="path4179"
       inkscape:connector-curvature="0" />
  </g>
</svg>
