<?xml version="1.0" encoding="UTF-8" standalone="no"?>
<!-- Created with Inkscape (http://www.inkscape.org/) -->

<svg
   xmlns:dc="http://purl.org/dc/elements/1.1/"
   xmlns:cc="http://creativecommons.org/ns#"
   xmlns:rdf="http://www.w3.org/1999/02/22-rdf-syntax-ns#"
   xmlns:svg="http://www.w3.org/2000/svg"
   xmlns="http://www.w3.org/2000/svg"
   xmlns:sodipodi="http://sodipodi.sourceforge.net/DTD/sodipodi-0.dtd"
   xmlns:inkscape="http://www.inkscape.org/namespaces/inkscape"
   width="256"
   height="256"
   viewBox="0 0 256 256"
   id="svg2"
   version="1.1"
   inkscape:version="0.91 r13725"
   sodipodi:docname="hunter.svg"
   inkscape:export-filename="C:\Prog\Projets\teeworlds\skins\hunter.png"
   inkscape:export-xdpi="90"
   inkscape:export-ydpi="90">
  <defs
     id="defs4" />
  <sodipodi:namedview
     id="base"
     pagecolor="#ffffff"
     bordercolor="#666666"
     borderopacity="1.0"
     inkscape:pageopacity="0.0"
     inkscape:pageshadow="2"
     inkscape:zoom="2.2677135"
     inkscape:cx="129.72626"
     inkscape:cy="111.24286"
     inkscape:document-units="px"
     inkscape:current-layer="layer1"
     showgrid="false"
     units="px"
     inkscape:window-width="1920"
     inkscape:window-height="1018"
     inkscape:window-x="-8"
     inkscape:window-y="-8"
     inkscape:window-maximized="1" />
  <metadata
     id="metadata7">
    <rdf:RDF>
      <cc:Work
         rdf:about="">
        <dc:format>image/svg+xml</dc:format>
        <dc:type
           rdf:resource="http://purl.org/dc/dcmitype/StillImage" />
        <dc:title></dc:title>
      </cc:Work>
    </rdf:RDF>
  </metadata>
  <g
     inkscape:label="Calque 1"
     inkscape:groupmode="layer"
     id="layer1"
     transform="translate(0,-796.36216)">
    <path
       style="opacity:1;fill:#000000;fill-opacity:0.25098041;stroke:none;stroke-width:2;stroke-linecap:round;stroke-linejoin:round;stroke-miterlimit:4;stroke-dasharray:none;stroke-opacity:1"
       d="M 86.724609 162.38281 A 37.729599 37.729599 0 0 1 93.234375 183.55273 A 37.729599 37.729599 0 0 1 93.234375 183.55664 A 37.729599 37.729599 0 0 1 93.140625 186.22461 A 37.729599 37.729599 0 0 1 93.140625 186.22852 A 37.729599 37.729599 0 0 1 92.685547 189.9668 A 37.729599 37.729599 0 0 1 92.685547 189.9707 A 37.729599 37.729599 0 0 1 91.859375 193.64844 A 37.729599 37.729599 0 0 1 91.859375 193.65234 A 37.729599 37.729599 0 0 1 90.669922 197.22656 A 37.729599 37.729599 0 0 1 89.824219 199.12305 A 37.729599 37.729599 0 0 1 89.697266 199.4043 A 37.729599 37.729599 0 0 1 88.019531 202.60742 A 37.729599 37.729599 0 0 1 87.951172 202.72852 A 37.729599 37.729599 0 0 1 85.923828 205.80273 A 37.729599 37.729599 0 0 1 85.904297 205.83203 A 37.729599 37.729599 0 0 1 55.503906 221.28711 A 37.729599 37.729599 0 0 1 54.998047 221.26758 A 37.729599 37.729599 0 0 1 51.609375 221.04297 A 37.729599 37.729599 0 0 1 51.53125 221.03125 A 19.513046 17.528669 0 0 1 51.525391 221.03125 A 37.729599 37.729599 0 0 1 32.785156 213.55664 A 37.729599 37.729599 0 0 0 59.904297 229.85156 A 19.513046 17.528669 0 0 0 59.910156 229.85547 A 37.729599 37.729599 0 0 0 59.988281 229.86133 A 37.729599 37.729599 0 0 0 63.376953 230.08594 A 37.729599 37.729599 0 0 0 63.882812 230.10742 A 37.729599 37.729599 0 0 0 94.283203 214.65234 A 37.729599 37.729599 0 0 0 94.302734 214.62305 A 37.729599 37.729599 0 0 0 96.330078 211.54883 A 37.729599 37.729599 0 0 0 96.398438 211.42773 A 37.729599 37.729599 0 0 0 98.076172 208.22461 A 37.729599 37.729599 0 0 0 98.203125 207.94336 A 37.729599 37.729599 0 0 0 99.048828 206.04688 A 37.729599 37.729599 0 0 0 100.23828 202.47266 A 37.729599 37.729599 0 0 0 100.23828 202.46875 A 37.729599 37.729599 0 0 0 101.06445 198.79102 A 37.729599 37.729599 0 0 0 101.06445 198.78711 A 37.729599 37.729599 0 0 0 101.51953 195.04883 A 37.729599 37.729599 0 0 0 101.51953 195.04492 A 37.729599 37.729599 0 0 0 101.61328 192.37695 A 37.729599 37.729599 0 0 0 101.61328 192.37305 A 37.729599 37.729599 0 0 0 86.724609 162.38281 z "
       transform="translate(0,796.36216)"
       id="path4314" />
    <g
       id="g4243">
      <path
         id="path4173"
         transform="translate(0,796.36216)"
         d="M 191.76562 25.880859 A 37.729599 37.729599 0 0 0 154.03711 63.609375 A 37.729599 37.729599 0 0 0 191.76562 101.33984 A 37.729599 37.729599 0 0 0 229.49609 63.609375 A 37.729599 37.729599 0 0 0 191.76562 25.880859 z M 213.07031 45.287109 C 213.67966 45.244045 214.2576 45.544922 214.5332 45.544922 L 217.06836 47.861328 L 217.95117 48.853516 C 217.95117 48.853516 218.28169 49.955727 218.72266 50.617188 C 219.16363 51.278647 218.61263 51.719184 217.95117 53.152344 C 217.28971 54.585504 216.62761 53.703125 215.30469 53.703125 C 213.98177 53.703125 213.87175 53.81424 211.55664 53.59375 C 209.24154 53.37327 210.78494 52.160159 210.56445 51.167969 C 210.34397 50.175779 209.90256 48.96268 210.12305 47.75 C 210.34354 46.53733 211.1161 46.979383 211.99805 45.876953 C 212.32877 45.463542 212.7047 45.312948 213.07031 45.287109 z "
         style="opacity:1;fill:#f0e2d2;fill-opacity:1;stroke:none;stroke-width:2;stroke-linecap:round;stroke-linejoin:round;stroke-miterlimit:4;stroke-dasharray:none;stroke-opacity:1" />
      <path
         id="path4197"
         transform="translate(0,796.36216)"
         d="M 180.92383 27.488281 A 37.729599 37.729599 0 0 0 175.2168 29.755859 A 3.1419313 2.7560799 0 0 0 177.98828 31.214844 A 3.1419313 2.7560799 0 0 0 181.12891 28.458984 A 3.1419313 2.7560799 0 0 0 180.92383 27.488281 z M 201.63477 28.238281 A 10.142374 7.3862944 0 0 0 193.0625 31.691406 A 14.386738 11.079442 0 0 0 192.09961 31.654297 A 14.386738 11.079442 0 0 0 177.71289 42.734375 A 14.386738 11.079442 0 0 0 177.73242 43.185547 A 11.134563 10.252618 0 0 0 174.29492 42.679688 A 11.134563 10.252618 0 0 0 163.16016 52.931641 A 11.134563 10.252618 0 0 0 165.74023 59.480469 A 9.5360365 8.543848 0 0 0 160.95508 66.876953 A 9.5360365 8.543848 0 0 0 161.74805 70.279297 A 5.401917 6.0633759 0 0 0 160.18359 74.539062 A 5.401917 6.0633759 0 0 0 165.58594 80.603516 A 5.401917 6.0633759 0 0 0 170.92578 75.400391 A 9.5360365 8.543848 0 0 0 173.74414 74.902344 A 13.890643 14.441859 0 0 0 171.09766 83.359375 A 13.890643 14.441859 0 0 0 184.98828 97.800781 A 13.890643 14.441859 0 0 0 185.09766 97.796875 A 19.513046 17.528669 0 0 0 187.79297 101.08789 A 37.729599 37.729599 0 0 0 191.76562 101.33984 A 37.729599 37.729599 0 0 0 229.49609 63.609375 A 37.729599 37.729599 0 0 0 217.125 35.728516 A 6.9453216 5.677525 0 0 0 213.65039 40.640625 A 6.9453216 5.677525 0 0 0 218.97656 46.154297 A 13.890643 15.48917 0 0 0 217.91797 48.816406 L 217.95117 48.853516 C 217.95117 48.853516 218.28169 49.955725 218.72266 50.617188 C 219.16363 51.278647 218.61263 51.719184 217.95117 53.152344 C 217.7085 53.678139 217.4649 53.888847 217.18945 53.949219 A 13.890643 15.48917 0 0 0 220.59961 63.908203 A 12.677968 12.40236 0 0 0 210.34961 73.349609 A 19.513046 17.528669 0 0 0 202.07617 71.673828 A 19.513046 17.528669 0 0 0 194.6543 73.005859 A 13.890643 14.441859 0 0 0 184.98828 68.917969 A 13.890643 14.441859 0 0 0 179.26562 70.21875 A 9.5360365 8.543848 0 0 0 179.46289 69.744141 A 7.5516591 6.2838626 0 0 0 186.08984 63.515625 A 7.5516591 6.2838626 0 0 0 183.45898 58.751953 A 11.134563 10.252618 0 0 0 185.42969 52.931641 A 11.134563 10.252618 0 0 0 185.41406 52.537109 A 14.386738 11.079442 0 0 0 192.09961 53.814453 A 14.386738 11.079442 0 0 0 206.48633 42.734375 A 14.386738 11.079442 0 0 0 206.45703 42.115234 A 10.142374 7.3862944 0 0 0 211.77734 35.623047 A 10.142374 7.3862944 0 0 0 201.63477 28.238281 z M 172.08984 34.962891 A 2.4253504 2.3702288 0 0 0 169.66406 37.332031 A 2.4253504 2.3702288 0 0 0 172.08984 39.703125 A 2.4253504 2.3702288 0 0 0 174.51562 37.332031 A 2.4253504 2.3702288 0 0 0 172.08984 34.962891 z M 158.14453 55.248047 A 1.37804 1.5985264 0 0 0 156.76562 56.845703 A 1.37804 1.5985264 0 0 0 158.14453 58.443359 A 1.37804 1.5985264 0 0 0 159.52148 56.845703 A 1.37804 1.5985264 0 0 0 158.14453 55.248047 z M 154.45117 62.523438 A 3.4175391 3.4175391 0 0 0 154.07422 62.546875 A 37.729599 37.729599 0 0 0 154.03711 63.609375 A 37.729599 37.729599 0 0 0 154.52344 69.353516 A 3.4175391 3.4175391 0 0 0 157.86914 65.941406 A 3.4175391 3.4175391 0 0 0 154.45117 62.523438 z M 167.18359 84.572266 A 1.5985264 1.7638912 0 0 0 165.58594 86.335938 A 1.5985264 1.7638912 0 0 0 167.18359 88.099609 A 1.5985264 1.7638912 0 0 0 168.7832 86.335938 A 1.5985264 1.7638912 0 0 0 167.18359 84.572266 z "
         style="opacity:1;fill:#eab87c;fill-opacity:1;stroke:none;stroke-width:2;stroke-linecap:round;stroke-linejoin:round;stroke-miterlimit:4;stroke-dasharray:none;stroke-opacity:1" />
      <path
         id="path4175"
         transform="translate(0,796.36216)"
         d="M 191.76562 25.880859 A 37.729599 37.729599 0 0 0 190.6543 25.919922 C 192.7535 26.724255 195.00495 27.610139 196.01172 27.90625 C 197.88586 28.45746 202.40712 29.450954 203.28906 31.214844 C 204.17101 32.978734 210.89584 35.624351 205.27344 34.962891 C 199.65104 34.301431 198.87869 33.530162 197.66602 33.419922 C 196.45334 33.309672 193.25629 32.758033 192.70508 33.970703 C 192.15386 35.183383 192.26433 36.065318 186.97266 35.955078 C 181.68099 35.844838 178.70356 36.174264 179.14453 36.615234 C 179.5855 37.056204 186.9733 41.6875 189.61914 41.6875 C 192.26497 41.6875 199.53928 40.914722 199.75977 41.576172 C 199.98026 42.237632 200.20248 44.774962 199.54102 45.326172 C 198.87956 45.877392 197.66667 48.521484 194.35938 48.521484 C 191.05209 48.521484 188.51563 48.081594 187.52344 48.632812 C 186.53126 49.184033 185.6504 49.735674 183.66602 51.058594 C 181.68165 52.381514 180.13672 52.932939 178.15234 54.255859 C 176.16797 55.578779 172.86133 59.216797 172.86133 59.216797 C 172.86133 59.216797 175.72721 59.437064 177.38086 58.996094 C 179.03451 58.555124 182.01107 56.901474 182.3418 58.996094 C 182.67253 61.090714 181.79058 61.971139 180.35742 62.412109 C 178.92426 62.853079 177.04991 63.294491 176.16797 64.837891 C 175.28602 66.381291 171.75977 69.137581 171.75977 70.019531 C 171.75977 70.901471 169.55403 72.555339 172.86133 72.224609 C 176.16863 71.893879 176.83073 74.649736 176.5 75.972656 C 176.16928 77.295576 175.61717 79.060537 176.60938 83.029297 L 179.69727 95.375 C 179.69727 95.375 184.54752 88.100264 185.20898 86.777344 C 185.87044 85.454424 187.74435 81.816617 189.94922 83.029297 C 192.15408 84.241967 193.80794 82.587021 194.13867 84.681641 C 194.4694 86.776261 193.47656 88.761929 193.47656 89.974609 C 193.47656 91.187279 192.48437 94.824219 192.48438 94.824219 C 192.48438 94.824219 195.79145 93.281471 198.2168 90.525391 C 200.64215 87.769311 202.40603 80.60244 204.16992 79.5 C 205.93381 78.39757 210.1237 76.414276 210.78516 76.634766 C 211.44662 76.855256 214.09202 78.178166 213.32031 80.603516 C 212.54861 83.028866 209.90277 84.130859 212.32812 84.130859 C 214.75348 84.130859 217.39995 84.019977 218.94336 80.492188 C 220.48676 76.964406 219.38476 69.248266 221.36914 70.460938 C 223.35352 71.673616 224.01345 71.893436 223.79297 74.759766 C 223.57248 77.626086 223.79341 77.956811 223.24219 80.712891 C 222.96528 82.097427 222.44056 84.231693 222.16602 85.888672 A 37.729599 37.729599 0 0 0 226.87891 77.314453 C 226.80909 73.149491 226.43945 69.027344 226.43945 69.027344 C 226.43945 69.027344 227.59343 71.518884 228.25195 73.029297 A 37.729599 37.729599 0 0 0 229.38672 65.767578 C 229.35656 65.710862 229.33877 65.668683 229.30664 65.609375 C 227.87348 62.963545 227.65234 59.546664 227.65234 58.333984 C 227.65234 57.121304 227.76215 56.900609 227.21094 55.136719 C 226.65972 53.372829 225.99761 52.160372 225.55664 51.388672 C 225.11567 50.616972 224.78516 50.505859 224.78516 50.505859 L 223.13281 50.396484 C 223.13281 50.396484 222.69163 45.103954 221.91992 44.552734 C 221.14822 44.001514 220.48633 42.789278 220.48633 42.017578 C 220.48633 41.245868 220.37609 42.017583 220.48633 40.033203 C 220.50053 39.777602 220.53387 39.537757 220.57617 39.308594 A 37.729599 37.729599 0 0 0 191.76562 25.880859 z M 213.07031 45.287109 C 213.67966 45.244045 214.2576 45.544922 214.5332 45.544922 L 217.06836 47.861328 L 217.95117 48.853516 C 217.95117 48.853516 218.28169 49.955727 218.72266 50.617188 C 219.16363 51.278647 218.61263 51.719184 217.95117 53.152344 C 217.28971 54.585504 216.62761 53.703125 215.30469 53.703125 C 213.98177 53.703125 213.87175 53.81424 211.55664 53.59375 C 209.24154 53.37327 210.78494 52.160159 210.56445 51.167969 C 210.34397 50.175779 209.90256 48.96268 210.12305 47.75 C 210.34354 46.53733 211.1161 46.979383 211.99805 45.876953 C 212.32877 45.463542 212.7047 45.312948 213.07031 45.287109 z "
         style="fill:#970000;fill-rule:evenodd;stroke:none;stroke-width:1px;stroke-linecap:butt;stroke-linejoin:miter;stroke-opacity:1;fill-opacity:1" />
      <path
         id="path4188"
         transform="translate(0,796.36216)"
         d="M 215.00781 42.445312 C 214.98391 42.430315 214.96677 42.440526 214.95703 42.484375 C 214.87913 42.835175 214.84112 43.576604 214.5293 43.771484 C 214.21749 43.966374 214.52793 43.887316 213.9043 44.160156 C 213.69634 44.251138 213.31673 44.349101 212.9082 44.447266 L 211.33203 44.121094 C 211.33203 44.121094 209.92965 44.590349 208.13672 44.824219 C 206.34378 45.058079 207.27917 45.524564 207.20117 46.927734 C 207.12317 48.330894 207.20117 47.942261 207.20117 48.332031 C 207.20117 48.721801 205.56445 48.955078 205.56445 48.955078 C 205.56445 48.955078 206.81141 50.280327 207.20117 50.748047 C 207.59094 51.215767 207.12236 51.215116 206.81055 52.228516 C 206.49873 53.241916 205.79797 53.242294 205.4082 54.177734 C 205.01843 55.113184 200.96484 61.972656 200.96484 61.972656 C 200.96484 61.972656 203.6156 59.713027 205.56445 57.998047 C 207.51329 56.283067 206.49901 56.360133 207.82422 55.814453 C 209.14944 55.268773 208.60352 56.59375 208.60352 56.59375 C 208.60352 56.59375 209.54034 57.998484 209.22852 59.089844 C 208.91671 60.181194 208.29297 63.065318 208.29297 63.455078 C 208.29297 63.844848 208.91646 62.207333 210.00781 60.570312 C 211.09916 58.933284 212.11218 59.166492 212.50195 57.607422 C 212.89172 56.048392 212.89165 56.360823 213.35938 56.126953 C 213.8271 55.893093 214.52813 55.814678 215.77539 55.892578 C 217.02265 55.970538 217.17969 57.374417 217.17969 57.998047 C 217.17969 58.621677 218.11523 62.207303 218.11523 63.220703 C 218.11523 64.234103 218.6605 61.973646 218.81641 60.648438 C 218.97232 59.323228 218.50391 59.088892 218.50391 57.763672 C 218.50391 56.438462 219.43933 56.438666 219.36133 55.191406 C 219.30592 54.304794 219.22203 53.393698 219.33984 52.820312 C 219.57377 52.67464 219.86253 52.780344 219.83008 52.228516 C 219.79108 51.565906 219.43929 51.332789 219.36133 50.787109 C 219.28343 50.241439 219.47803 49.382881 219.2832 48.525391 C 219.08832 47.667901 218.27037 47.512642 217.76367 47.044922 C 217.25697 46.577192 216.94446 46.57692 216.55469 46.03125 C 216.16492 45.48557 216.08738 45.564521 215.85352 44.707031 C 215.64889 43.956719 215.17514 42.550292 215.00781 42.445312 z M 213.07031 45.287109 C 213.5577 45.252664 213.98245 45.410655 214.29102 45.486328 C 214.36823 45.505264 214.47804 45.544922 214.5332 45.544922 L 217.06836 47.861328 L 217.95117 48.853516 C 217.95117 48.853516 218.28169 49.955726 218.72266 50.617188 C 218.79844 50.730862 218.83576 50.838528 218.85742 50.945312 C 218.86188 50.967567 218.86679 50.991393 218.86914 51.013672 C 218.88036 51.11972 218.87514 51.225925 218.84375 51.339844 C 218.72937 51.754919 218.36203 52.262151 217.95117 53.152344 C 217.28971 54.585504 216.62761 53.703125 215.30469 53.703125 C 213.98177 53.703125 213.87175 53.81424 211.55664 53.59375 C 209.24154 53.37327 210.78494 52.160159 210.56445 51.167969 C 210.34397 50.175779 209.90256 48.96268 210.12305 47.75 C 210.34354 46.53733 211.1161 46.979383 211.99805 45.876953 C 212.32877 45.463542 212.7047 45.312948 213.07031 45.287109 z "
         style="fill:#320000;fill-rule:evenodd;stroke:none;stroke-width:1px;stroke-linecap:butt;stroke-linejoin:miter;stroke-opacity:1;fill-opacity:1" />
    </g>
    <path
       style="fill:#970000;fill-rule:evenodd;stroke:none;stroke-width:1px;stroke-linecap:butt;stroke-linejoin:miter;stroke-opacity:1;fill-opacity:1"
       d="m 176.56516,841.73122 c -3.42996,1.55908 -3.11814,1.48112 -4.44336,3.0402 -1.32521,1.55907 -2.65042,3.27405 -2.65042,3.27405 0,0 4.2095,-0.23386 5.30085,-1.55907 1.09135,-1.32521 1.32521,-1.16931 2.1827,-1.79294 0.85749,-0.62363 1.79294,-1.55907 1.79294,-1.55907"
       id="path4191"
       inkscape:connector-curvature="0" />
    <path
       style="fill:#970000;fill-rule:evenodd;stroke:none;stroke-width:1px;stroke-linecap:butt;stroke-linejoin:miter;stroke-opacity:1;fill-opacity:1"
       d="m 163.78076,860.82988 c -0.46773,0.93545 -1.24726,4.44336 -1.24726,5.53472 0,1.09135 1.32521,3.50791 1.1693,4.83313 -0.15591,1.32521 0.15591,2.10475 0.77954,0.54567 0.62363,-1.55907 0.31181,-5.69062 0.93544,-6.47016 0.62363,-0.77953 2.41657,-1.87089 2.88429,-2.10475 0.46772,-0.23386 1.94884,-0.85749 1.55908,-1.87089 -0.38977,-1.01339 -2.0268,-1.79293 -2.57248,-1.79293 -0.54567,0 -1.09135,0 -1.09135,0"
       id="path4193"
       inkscape:connector-curvature="0" />
    <path
       style="fill:#970000;fill-rule:evenodd;stroke:none;stroke-width:1px;stroke-linecap:butt;stroke-linejoin:miter;stroke-opacity:1;fill-opacity:1"
       d="m 207.51279,887.72391 c -1.09135,2.18271 -2.57247,3.74178 -2.1827,3.74178 0.38976,0 2.80633,-0.38977 4.05359,-1.48112 1.24726,-1.09135 1.09135,-2.88429 0.93544,-4.13155 -0.1559,-1.24725 -2.80633,-6.23629 -2.80633,-6.23629 0,0 -0.31182,3.1961 -0.70158,3.66382 -0.38977,0.46772 -0.38977,2.26066 -0.38977,2.26066"
       id="path4195"
       inkscape:connector-curvature="0" />
    <path
       style="color:#000000;font-style:normal;font-variant:normal;font-weight:normal;font-stretch:normal;font-size:medium;line-height:normal;font-family:sans-serif;text-indent:0;text-align:start;text-decoration:none;text-decoration-line:none;text-decoration-style:solid;text-decoration-color:#000000;letter-spacing:normal;word-spacing:normal;text-transform:none;direction:ltr;block-progression:tb;writing-mode:lr-tb;baseline-shift:baseline;text-anchor:start;white-space:normal;clip-rule:nonzero;display:inline;overflow:visible;visibility:visible;opacity:1;isolation:auto;mix-blend-mode:normal;color-interpolation:sRGB;color-interpolation-filters:linearRGB;solid-color:#000000;solid-opacity:1;fill:#000000;fill-opacity:1;fill-rule:nonzero;stroke:none;stroke-width:8;stroke-linecap:round;stroke-linejoin:round;stroke-miterlimit:4;stroke-dasharray:none;stroke-dashoffset:0;stroke-opacity:1;color-rendering:auto;image-rendering:auto;shape-rendering:auto;text-rendering:auto;enable-background:accumulate"
       d="M 64.150391 21.880859 C 63.740485 21.888859 63.331357 21.905381 62.921875 21.925781 A 4.0004 4.0004 0 0 0 62.333984 22.003906 C 58.918075 22.152676 55.529021 22.679047 52.25 23.654297 A 4.0004 4.0004 0 0 0 52.220703 23.664062 C 50.062738 24.324512 47.960533 25.158043 45.9375 26.158203 A 4.0004 4.0004 0 0 0 45.925781 26.162109 C 32.180745 32.882709 23.258446 46.605648 22.601562 61.861328 A 4.0004 4.0004 0 0 0 22.599609 61.867188 A 4.0004 4.0004 0 0 0 22.544922 62.351562 C 22.525722 62.743074 22.512076 63.133501 22.503906 63.525391 A 4.0004 4.0004 0 0 0 22.503906 63.642578 C 22.521336 65.739548 22.697272 67.831754 23.029297 69.902344 L 23.015625 69.818359 C 23.019925 69.849359 23.024927 69.879156 23.029297 69.910156 A 4.0004 4.0004 0 0 0 23.041016 69.96875 L 23.039062 69.966797 C 23.040463 69.975797 23.043522 69.983488 23.044922 69.992188 A 4.0004 4.0004 0 0 0 23.189453 70.587891 C 26.325574 88.941081 41.266008 103.07517 59.830078 105.06445 L 59.833984 105.06445 A 4.0004 4.0004 0 0 0 59.884766 105.06836 C 61.170936 105.21329 62.46372 105.2994 63.757812 105.32422 C 63.764314 105.32434 63.770804 105.32617 63.777344 105.32617 C 63.887835 105.33017 63.998853 105.33419 64.109375 105.33789 A 4.0004 4.0004 0 0 0 64.232422 105.33984 C 67.01685 105.33992 69.794503 105.06095 72.523438 104.50781 A 4.0004 4.0004 0 0 0 72.529297 104.50586 C 82.458853 102.47586 91.260443 96.858445 97.375 88.796875 A 4.0004 4.0004 0 0 0 97.841797 88.269531 C 97.848897 88.259531 97.858094 88.251886 97.865234 88.242188 L 97.863281 88.240234 A 4.0004 4.0004 0 0 0 97.902344 88.189453 C 98.680739 87.123443 99.406172 86.019706 100.08008 84.884766 A 4.0004 4.0004 0 0 0 100.12891 84.806641 C 100.16081 84.751441 100.19106 84.695955 100.22266 84.640625 C 100.22666 84.633625 100.23163 84.626541 100.23633 84.619141 A 4.0004 4.0004 0 0 0 100.3418 84.423828 C 100.95349 83.364581 101.52481 82.280606 102.04102 81.171875 A 4.0004 4.0004 0 0 0 102.05859 81.132812 C 102.11589 81.006192 102.1725 80.879143 102.22852 80.751953 L 102.22852 80.75 A 4.0004 4.0004 0 0 0 102.23047 80.744141 C 104.67229 75.365061 105.94505 69.528504 105.96289 63.621094 A 4.0004 4.0004 0 0 0 105.96289 63.603516 C 105.94549 51.870196 100.98657 40.681843 92.304688 32.789062 L 92.287109 32.773438 L 92.283203 32.769531 C 84.614976 25.780531 74.613745 21.897239 64.238281 21.880859 A 4.0004 4.0004 0 0 0 64.150391 21.880859 z M 77.060547 41.300781 C 77.391276 41.245681 89.572266 41.632812 89.572266 41.632812 L 95.195312 50.396484 C 95.195312 50.396484 94.369141 57.065754 93.873047 57.396484 C 93.376952 57.727214 83.785156 59.822266 83.785156 59.822266 L 74.359375 54.806641 L 72.650391 49.791016 L 77.060547 41.300781 z "
       transform="translate(0,796.36216)"
       id="path4251" />
    <path
       style="opacity:1;fill:none;fill-opacity:1;stroke:#000000;stroke-width:2;stroke-linecap:round;stroke-linejoin:round;stroke-miterlimit:4;stroke-dasharray:none;stroke-opacity:1"
       d="M 191.76562 154.43945 A 37.729599 37.729599 0 0 0 190.6543 154.47852 C 190.66765 154.48363 190.68 154.48902 190.69336 154.49414 A 37.729599 37.729599 0 0 0 180.92383 156.04688 A 37.729599 37.729599 0 0 0 175.22852 158.30859 A 37.729599 37.729599 0 0 0 175.2168 158.31445 A 37.729599 37.729599 0 0 0 154.07422 191.10547 A 37.729599 37.729599 0 0 0 154.03711 192.16797 A 37.729599 37.729599 0 0 0 154.51953 197.88672 A 37.729599 37.729599 0 0 0 154.52344 197.91211 A 37.729599 37.729599 0 0 0 187.78711 229.64648 A 19.513046 17.528669 0 0 0 187.79297 229.65039 A 37.729599 37.729599 0 0 0 187.87109 229.65625 A 37.729599 37.729599 0 0 0 191.25977 229.88086 A 37.729599 37.729599 0 0 0 191.76562 229.90234 A 37.729599 37.729599 0 0 0 222.16602 214.44336 C 222.16582 214.44452 222.16621 214.44611 222.16602 214.44727 A 37.729599 37.729599 0 0 0 222.19531 214.4043 A 37.729599 37.729599 0 0 0 224.21094 211.34375 A 37.729599 37.729599 0 0 0 224.28125 211.22266 A 37.729599 37.729599 0 0 0 225.95117 208.03516 A 37.729599 37.729599 0 0 0 226.10547 207.68945 A 37.729599 37.729599 0 0 0 226.93164 205.8418 A 37.729599 37.729599 0 0 0 228.12109 202.26758 A 37.729599 37.729599 0 0 0 228.12109 202.26367 A 37.729599 37.729599 0 0 0 228.94727 198.58594 A 37.729599 37.729599 0 0 0 228.94727 198.58203 A 37.729599 37.729599 0 0 0 229.40234 194.84375 A 37.729599 37.729599 0 0 0 229.40234 194.83984 A 37.729599 37.729599 0 0 0 229.49609 192.17188 A 37.729599 37.729599 0 0 0 229.49609 192.16797 A 37.729599 37.729599 0 0 0 191.76562 154.43945 z M 213.07031 173.8457 C 213.5577 173.81123 213.98245 173.96924 214.29102 174.04492 C 214.36822 174.06382 214.47804 174.10352 214.5332 174.10352 L 217.06836 176.41992 L 217.91992 177.375 L 217.91992 177.37695 A 13.890643 15.48917 0 0 0 217.91797 177.37891 L 217.95117 177.41602 C 217.95117 177.41602 218.28169 178.51823 218.72266 179.17969 C 218.72659 179.18559 218.72669 179.1914 218.73047 179.19727 C 218.79648 179.30234 218.83712 179.40258 218.85742 179.50195 C 218.85742 179.50195 218.85742 179.50391 218.85742 179.50391 C 218.86228 179.52724 218.86661 179.55086 218.86914 179.57422 C 218.86921 179.57485 218.86908 179.57554 218.86914 179.57617 C 218.86921 179.5768 218.86908 179.57749 218.86914 179.57812 C 218.87956 179.68229 218.87459 179.78655 218.84375 179.89844 C 218.81732 179.99434 218.77351 180.09771 218.72266 180.20703 C 218.6756 180.30912 218.5722 180.50712 218.50781 180.62695 C 218.35032 180.91692 218.1566 181.26584 217.95117 181.71094 C 217.87483 181.87634 217.79808 182.00465 217.7207 182.11328 C 217.72026 182.11391 217.71919 182.11461 217.71875 182.11523 C 217.70193 182.13866 217.6849 182.15866 217.66797 182.17969 C 217.6068 182.2561 217.54563 182.31707 217.48242 182.36523 C 217.46167 182.38097 217.44096 182.39906 217.41992 182.41211 C 217.25189 182.5169 217.07343 182.54286 216.87695 182.52344 C 216.8764 182.52338 216.87556 182.52349 216.875 182.52344 C 216.66866 182.50253 216.44134 182.43712 216.18359 182.37695 C 215.92515 182.31662 215.63542 182.26172 215.30469 182.26172 C 213.98177 182.26172 213.87175 182.37283 211.55664 182.15234 C 209.24154 181.93186 210.78494 180.71875 210.56445 179.72656 C 210.34397 178.73438 209.90256 177.52127 210.12305 176.30859 C 210.34354 175.09592 211.1161 175.53798 211.99805 174.43555 C 212.16341 174.22884 212.34046 174.08865 212.52148 173.99609 C 212.612 173.94982 212.7031 173.91484 212.79492 173.89062 C 212.88675 173.86641 212.97891 173.85216 213.07031 173.8457 z "
       transform="translate(0,796.36216)"
       id="path4289" />
  </g>
</svg>
