<?xml version="1.0" encoding="UTF-8" standalone="no"?>
<!-- Created with Inkscape (http://www.inkscape.org/) -->

<svg
   xmlns:dc="http://purl.org/dc/elements/1.1/"
   xmlns:cc="http://creativecommons.org/ns#"
   xmlns:rdf="http://www.w3.org/1999/02/22-rdf-syntax-ns#"
   xmlns:svg="http://www.w3.org/2000/svg"
   xmlns="http://www.w3.org/2000/svg"
   xmlns:sodipodi="http://sodipodi.sourceforge.net/DTD/sodipodi-0.dtd"
   xmlns:inkscape="http://www.inkscape.org/namespaces/inkscape"
   width="256"
   height="256"
   viewBox="0 0 256 256"
   id="svg4392"
   version="1.1"
   inkscape:version="0.91 r13725"
   sodipodi:docname="tank.svg"
   inkscape:export-filename="C:\Prog\Projets\teeworlds\skins\tank.png"
   inkscape:export-xdpi="90"
   inkscape:export-ydpi="90">
  <defs
     id="defs4394" />
  <sodipodi:namedview
     id="base"
     pagecolor="#ffffff"
     bordercolor="#666666"
     borderopacity="1.0"
     inkscape:pageopacity="0.0"
     inkscape:pageshadow="2"
     inkscape:zoom="3.2070312"
     inkscape:cx="146.10635"
     inkscape:cy="109.4209"
     inkscape:document-units="px"
     inkscape:current-layer="layer1"
     showgrid="false"
     units="px"
     inkscape:window-width="1920"
     inkscape:window-height="1018"
     inkscape:window-x="-8"
     inkscape:window-y="-8"
     inkscape:window-maximized="1" />
  <metadata
     id="metadata4397">
    <rdf:RDF>
      <cc:Work
         rdf:about="">
        <dc:format>image/svg+xml</dc:format>
        <dc:type
           rdf:resource="http://purl.org/dc/dcmitype/StillImage" />
        <dc:title></dc:title>
      </cc:Work>
    </rdf:RDF>
  </metadata>
  <g
     inkscape:label="Calque 1"
     inkscape:groupmode="layer"
     id="layer1"
     transform="translate(0,-796.36216)">
    <path
       style="opacity:1;fill:#000000;fill-opacity:0.07843138;stroke:none;stroke-width:2;stroke-linecap:round;stroke-linejoin:round;stroke-miterlimit:4;stroke-dasharray:none;stroke-opacity:1"
       d="M 93.728516 159.82031 C 94.22274 162.31241 96.906662 176.19859 96.195312 181.32031 C 95.415775 186.93298 93.856737 189.58326 93.544922 191.92188 C 93.233107 194.26049 96.195005 195.97536 93.388672 199.87305 C 90.582338 203.77076 89.647066 207.98132 89.023438 209.22852 C 88.399807 210.47582 87.776694 209.6964 84.814453 213.75 C 81.852212 217.8035 82.47557 216.08788 79.357422 218.73828 C 76.239273 221.38868 78.266039 223.26016 73.121094 224.35156 C 67.976148 225.44286 70.62658 228.24806 64.234375 225.59766 C 57.842171 222.94726 57.686062 221.54491 53.476562 224.19531 C 49.267061 226.84581 51.292901 229.0275 47.707031 227.3125 C 44.12116 225.5975 41.938666 223.25942 40.691406 223.10352 C 39.444147 222.94762 39.756581 222.63672 37.417969 222.63672 C 35.079358 222.63672 33.052187 220.76453 31.025391 219.36133 C 29.160688 218.07044 26.353639 217.71845 25.898438 217.66797 C 26.966535 218.72964 28.372427 219.90336 29.75 220.97656 A 3.7310865 3.9718015 0 0 0 29.6875 221.68164 A 3.7310865 3.9718015 0 0 0 33.417969 225.6543 A 3.7310865 3.9718015 0 0 0 35.347656 225.07617 C 42.260386 230.86267 50.788651 234.33044 59.738281 235.02344 L 59.804688 235.02344 C 60.324598 235.06344 60.844747 235.09814 61.367188 235.11914 C 61.918928 235.14114 62.471361 235.1572 63.025391 235.1582 C 64.475051 235.1482 65.826029 235.07724 67.167969 234.93164 C 67.838389 234.85864 68.507477 234.7678 69.185547 234.6582 C 69.367497 234.6282 69.558638 234.58719 69.742188 234.55469 C 69.744088 234.56469 69.771484 234.62695 69.771484 234.62695 C 69.771484 234.62695 70.241811 235.08581 71.113281 235.03711 C 71.609071 235.00911 71.825877 234.75148 71.929688 234.55078 C 72.493207 234.75858 73.062513 234.91776 73.345703 235.03906 C 73.651553 235.11606 73.91524 235.16236 74.15625 235.19336 C 74.15625 235.19336 74.158203 235.19336 74.158203 235.19336 C 75.645563 235.38456 76.019549 234.80521 76.699219 234.66211 C 78.316229 234.32171 83.124069 232.2693 84.568359 231.9082 C 86.012649 231.5472 88.818644 230.42705 89.746094 229.62305 C 89.946184 229.44965 90.098054 229.25189 90.214844 229.02539 C 90.291004 228.87769 90.346771 228.71266 90.394531 228.53906 C 90.407461 228.49206 90.420521 228.44303 90.431641 228.39453 C 90.450961 228.30953 90.462312 228.21084 90.476562 228.11914 C 90.508552 227.91374 90.531709 227.69067 90.542969 227.45117 C 90.546869 227.36717 90.552768 227.28041 90.554688 227.19141 C 90.561487 226.87101 90.559728 226.53124 90.548828 226.14844 C 90.610048 225.94894 90.692628 225.76788 90.767578 225.58008 C 91.162598 225.60308 91.7281 225.53403 92.03125 224.92773 C 92.18599 224.61823 92.363376 224.11691 92.503906 223.57031 C 94.267126 223.56031 94.755774 223.35535 95.521484 223.00195 C 95.684744 222.92695 95.877188 222.8012 96.080078 222.6582 C 96.153078 222.6072 96.223681 222.56025 96.300781 222.50195 C 96.303781 222.50195 96.3088 222.49219 96.3125 222.49219 C 96.3247 222.48219 96.339263 222.46798 96.351562 222.45898 C 96.637402 222.24068 96.943635 221.97955 97.265625 221.68945 C 98.920665 220.19835 100.87026 218.01258 101.29883 217.58398 C 101.90062 216.98218 104.30788 211.56748 105.15039 209.52148 C 105.48835 208.70068 105.3936 207.58034 105.16797 206.52344 A 8.545391 9.3277161 0 0 0 105.17383 206.52344 C 105.12713 206.30434 105.06362 206.11019 105.00781 205.90039 C 104.94391 205.66169 104.88928 205.42043 104.82031 205.20312 C 104.81938 205.20312 104.81936 205.20336 104.81836 205.19336 C 104.71461 204.86386 104.61581 204.59535 104.52148 204.34375 C 104.52848 204.34375 104.54163 204.35733 104.54883 204.36133 C 104.80459 204.42133 105.73781 204.70883 105.97852 203.49023 C 106.04412 203.15831 105.98852 202.8145 105.71094 202.30664 C 106.34217 201.809 106.96497 201.31715 107.55859 200.85547 C 108.64181 200.01294 108.04053 197.24581 108.28125 195.92188 C 108.31225 195.75163 108.32592 195.57598 108.32812 195.39453 C 108.32865 195.34883 108.31936 195.30024 108.31836 195.25391 C 108.31536 195.11868 108.31138 194.98216 108.29688 194.8418 C 108.28137 194.6959 108.2424 194.53745 108.2168 194.38672 C 108.1749 194.1392 108.13949 193.89488 108.08008 193.63672 C 108.07808 193.62592 108.07722 193.61617 108.07422 193.60547 A 8.545391 9.3277161 0 0 0 108.07227 193.60156 C 107.89498 192.83568 107.67163 192.0315 107.55664 191.22656 C 107.45503 190.51528 106.63644 188.235 105.75977 185.89062 C 105.36299 183.1041 104.69358 180.36167 103.76367 177.70508 C 104.02605 176.88218 104.31003 175.91524 104.42578 175.2207 C 104.6665 173.77641 103.10326 170.64716 102.74219 168.8418 C 102.61764 168.21901 102.04434 167.32985 101.23828 166.34961 A 2.8284044 2.7080467 0 0 0 101.41797 165.41016 A 2.8284044 2.7080467 0 0 0 98.589844 162.70312 A 2.8284044 2.7080467 0 0 0 97.751953 162.82617 C 96.889033 162.07514 96.001456 161.36936 95.160156 160.77734 C 94.645276 160.41502 94.245213 160.16953 93.814453 159.89258 A 5.3191058 4.6382603 0 0 0 93.822266 159.87695 C 93.786499 159.85385 93.760138 159.83957 93.728516 159.82031 z "
       transform="translate(0,796.36216)"
       id="path5251" />
    <path
       style="opacity:1;fill:none;fill-opacity:1;stroke:#000000;stroke-width:2;stroke-linecap:round;stroke-linejoin:round;stroke-miterlimit:4;stroke-dasharray:none;stroke-opacity:1"
       d="M 197.14453 145.61719 C 195.80139 145.63648 194.71872 146.04276 193.86523 146.50586 C 193.86027 146.50855 193.85651 146.51098 193.85156 146.51367 C 193.60965 146.64553 193.4075 146.76672 193.20508 146.90039 C 192.83954 146.27198 192.01023 145.93201 191.22461 145.97656 C 189.93424 146.04978 189.62891 147.25586 189.62891 147.25586 C 189.62891 147.25586 189.64558 147.32341 189.65039 147.3418 C 189.26101 147.2113 189.00575 147.12692 188.41992 146.93164 C 188.15731 146.8441 187.93015 146.78605 187.7207 146.74805 C 187.64725 146.73467 187.58603 146.73634 187.51758 146.72852 C 187.39072 146.71401 187.26111 146.69848 187.14648 146.70117 C 187.09091 146.70267 187.03797 146.71347 186.98438 146.71875 C 186.85915 146.7305 186.73202 146.74559 186.61133 146.77539 C 186.59977 146.77836 186.58773 146.78399 186.57617 146.78711 C 185.82203 146.98333 185.06297 147.4894 183.31055 147.9707 A 7.8722765 4.5957072 0 0 0 183.30859 147.97266 C 183.10071 148.02972 182.91755 148.08708 182.67969 148.14258 C 180.20972 148.71891 176.92074 150.96933 174.6875 152.61328 C 170.88564 154.3178 167.3632 156.57039 164.21094 159.2793 C 163.86181 159.57932 163.51548 159.88201 163.17578 160.19336 C 163.04197 160.31454 162.91156 160.43952 162.7793 160.5625 C 162.81747 160.5264 162.87891 160.46484 162.87891 160.46484 C 162.87891 160.46484 162.48858 159.65403 161.17969 159.84961 C 160.47077 160.176 160.16018 160.54012 159.96875 161.11719 C 159.32417 161.06571 158.7908 161.02148 158.48633 161.02148 C 158.21243 161.02148 158.0021 161.04499 157.82031 161.08984 C 157.66532 161.12766 157.52707 161.18511 157.4043 161.26172 C 157.38784 161.27172 157.36977 161.28423 157.35352 161.29492 C 157.29138 161.33713 157.21907 161.39938 157.15625 161.45312 C 156.95809 161.61843 156.7519 161.81947 156.46094 162.10156 C 156.45861 162.10382 156.45742 162.10516 156.45508 162.10742 C 156.33325 162.22544 156.23789 162.32281 156.08008 162.46484 C 154.8765 163.54805 151.62814 170.65096 150.54492 173.29883 C 150.03835 174.53713 150.21809 175.87191 150.59961 177.05859 C 150.68144 177.31311 150.77322 177.54902 150.86914 177.78711 C 150.97522 178.05394 151.08352 178.30342 151.19531 178.54297 C 151.15473 178.53409 151.08203 178.51562 151.08203 178.51562 C 151.08203 178.51562 149.83472 178.82666 149.87109 180.05273 C 149.90659 181.25089 150.42383 181.84375 150.42383 181.84375 C 150.42383 181.84375 150.44932 181.85832 150.45117 181.85938 C 150.00327 182.2466 149.49726 182.93596 149.33984 183.4082 C 148.85841 184.85249 147.17409 188.70429 147.53516 194.96289 C 147.82707 200.02274 148.35907 200.0706 149.12305 201.35742 C 149.20213 201.49062 149.28387 201.64043 149.36719 201.80273 C 149.47525 202.0177 149.58477 202.24746 149.70117 202.54492 C 150.28001 204.02425 151.09288 205.25848 151.73047 206.33008 C 151.73905 206.35437 151.74919 206.37807 151.75781 206.40234 C 151.43818 206.71324 151.23069 207.09639 151.14648 207.60156 C 151.02613 208.32366 151.37268 209.04631 151.73438 209.19531 C 152.0585 209.32875 152.61837 209.64683 152.74414 209.71875 C 152.75033 209.85135 152.7508 209.9637 152.75977 210.10352 C 152.78283 210.46308 152.82269 210.86081 152.86523 211.26172 C 152.87377 211.3415 152.87748 211.41124 152.88672 211.49219 C 152.88814 211.50546 152.88957 211.51732 152.89062 211.5293 C 153.02421 212.68659 153.23578 213.97148 153.55273 215.30273 C 153.8618 216.60079 156.57754 218.97067 159.15234 220.97656 A 3.7310865 3.9718015 0 0 0 159.08984 221.68164 A 3.7310865 3.9718015 0 0 0 162.82031 225.6543 A 3.7310865 3.9718015 0 0 0 164.75 225.07617 C 171.66273 230.86266 180.19099 234.33047 189.14062 235.02344 C 189.1627 235.02514 189.18495 235.02567 189.20703 235.02734 C 189.72694 235.06679 190.24709 235.10241 190.76953 235.12305 C 191.32127 235.14484 191.8737 235.16149 192.42773 235.16211 C 193.87739 235.15461 195.22837 235.08106 196.57031 234.93555 C 197.24073 234.86287 197.90982 234.77177 198.58789 234.66211 C 198.76984 234.63267 198.96098 234.59078 199.14453 234.55859 C 199.14645 234.56385 199.17383 234.63086 199.17383 234.63086 C 199.17383 234.63086 199.64415 235.08972 200.51562 235.04102 C 201.01141 235.01328 201.22822 234.75539 201.33203 234.55469 C 201.89555 234.76255 202.46486 234.92161 202.74805 235.04297 C 203.0539 235.11985 203.31758 235.16619 203.55859 235.19727 C 203.5593 235.19736 203.55985 235.19718 203.56055 235.19727 C 205.04791 235.38846 205.42189 234.80917 206.10156 234.66602 C 207.71857 234.32562 212.52641 232.27321 213.9707 231.91211 C 215.41499 231.55111 218.22099 230.43095 219.14844 229.62695 C 219.34853 229.45352 219.5004 229.2558 219.61719 229.0293 C 219.69335 228.88159 219.74912 228.71658 219.79688 228.54297 C 219.80981 228.49606 219.82286 228.44736 219.83398 228.39844 C 219.8533 228.31308 219.86466 228.21475 219.87891 228.12305 C 219.9109 227.91767 219.93405 227.69454 219.94531 227.45508 C 219.94924 227.37057 219.95513 227.28433 219.95703 227.19531 C 219.96387 226.87494 219.96205 226.53511 219.95117 226.15234 C 220.01239 225.9528 220.09497 225.7717 220.16992 225.58398 C 220.56494 225.60686 221.13044 225.53791 221.43359 224.93164 C 221.58833 224.62215 221.76572 224.12084 221.90625 223.57422 C 223.66947 223.56618 224.15812 223.35921 224.92383 223.00586 C 225.08709 222.93047 225.27953 222.80511 225.48242 222.66211 C 225.55546 222.61125 225.62602 222.56393 225.70312 222.50586 C 225.70658 222.50326 225.71138 222.50066 225.71484 222.49805 C 225.72703 222.48874 225.74163 222.47432 225.75391 222.46484 C 226.03975 222.24656 226.34598 221.9854 226.66797 221.69531 C 228.32301 220.20425 230.2726 218.01842 230.70117 217.58984 C 231.30296 216.98804 233.71022 211.57334 234.55273 209.52734 C 234.89069 208.70655 234.79596 207.58624 234.57031 206.5293 A 8.545391 9.3277161 0 0 0 234.57617 206.52539 C 234.52947 206.30635 234.46597 206.11215 234.41016 205.90234 C 234.34629 205.66364 234.29163 205.4223 234.22266 205.20508 C 234.22173 205.20218 234.22162 205.20016 234.2207 205.19727 C 234.11695 204.86773 234.01816 204.59924 233.92383 204.34766 C 233.93132 204.35104 233.94392 204.36215 233.95117 204.36523 C 234.20693 204.42523 235.14015 204.71276 235.38086 203.49414 C 235.44643 203.16222 235.39089 202.81841 235.11328 202.31055 C 235.74451 201.81291 236.36732 201.32106 236.96094 200.85938 C 238.04416 200.01685 237.44287 197.24972 237.68359 195.92578 C 237.71455 195.75554 237.72829 195.57989 237.73047 195.39844 C 237.731 195.35276 237.72371 195.30415 237.72266 195.25781 C 237.71964 195.12258 237.71601 194.98606 237.70117 194.8457 C 237.68568 194.6998 237.64664 194.54135 237.62109 194.39062 C 237.57918 194.1431 237.54374 193.89878 237.48438 193.64062 C 237.4819 193.62987 237.48101 193.62015 237.47852 193.60938 A 8.545391 9.3277161 0 0 0 237.47656 193.60547 C 237.29927 192.83959 237.07593 192.03541 236.96094 191.23047 C 236.85933 190.51919 236.04073 188.2389 235.16406 185.89453 C 234.76728 183.108 234.09788 180.36557 233.16797 177.70898 C 233.43035 176.88608 233.71433 175.91915 233.83008 175.22461 C 234.0708 173.78032 232.50755 170.65106 232.14648 168.8457 C 232.02193 168.22291 231.44864 167.33376 230.64258 166.35352 A 2.8284044 2.7080467 0 0 0 230.82227 165.41406 A 2.8284044 2.7080467 0 0 0 227.99414 162.70703 A 2.8284044 2.7080467 0 0 0 227.15625 162.83008 C 226.29333 162.07905 225.40575 161.37327 224.56445 160.78125 C 224.04957 160.41893 223.64951 160.17343 223.21875 159.89648 A 5.3191058 4.6382603 0 0 0 223.22656 159.88086 C 223.07376 159.78213 222.96878 159.72778 222.82617 159.63867 C 222.63083 159.51657 222.43199 159.38614 222.25586 159.28125 C 222.21291 158.88386 222.03957 157.65677 221.43359 157.05078 C 220.78784 156.40504 219.71168 156.33926 219.48047 156.33203 C 219.41599 156.03227 219.34518 155.76066 219.26758 155.60547 C 219.1813 155.43292 219.04616 155.24627 218.89062 155.05273 C 218.8306 154.97725 218.76312 154.89734 218.69336 154.81836 C 218.63406 154.75187 218.56001 154.67848 218.49414 154.60938 C 218.28875 154.39233 218.01639 154.13408 217.74805 153.88672 C 217.66516 153.81055 217.61145 153.74902 217.52344 153.66992 A 5.3191058 4.6382603 0 0 0 217.50586 153.67383 C 217.05185 153.26413 216.61325 152.868 216.01758 152.35742 C 214.33257 150.91313 210.36174 149.22776 208.19531 148.14453 C 206.02887 147.06131 205.71079 146.62457 201.14453 145.85742 C 199.59412 145.59694 197.60292 145.6106 197.14453 145.61719 z "
       transform="translate(0,796.36216)"
       id="path5142" />
    <path
       style="opacity:1;fill:#000000;fill-opacity:1;stroke:#000000;stroke-width:8;stroke-linecap:round;stroke-linejoin:round;stroke-miterlimit:4;stroke-dasharray:none;stroke-opacity:1"
       d="M 69.300781 19.019531 C 67.957643 19.038828 66.874973 19.445104 66.021484 19.908203 C 66.016524 19.910894 66.012757 19.913321 66.007812 19.916016 C 65.764869 20.048437 65.562487 20.170473 65.359375 20.304688 C 64.993742 19.676485 64.166344 19.336318 63.380859 19.380859 C 62.090491 19.454079 61.785156 20.658203 61.785156 20.658203 C 61.785156 20.658203 61.801817 20.725699 61.806641 20.744141 C 61.417306 20.613657 61.161869 20.531171 60.576172 20.335938 C 60.315282 20.248975 60.087261 20.190393 59.878906 20.152344 C 59.805599 20.138957 59.744105 20.140675 59.675781 20.132812 C 59.547727 20.118026 59.418329 20.100797 59.302734 20.103516 C 59.247164 20.105011 59.194218 20.115816 59.140625 20.121094 C 59.0154 20.132844 58.888265 20.147931 58.767578 20.177734 C 58.756797 20.180502 58.745157 20.184598 58.734375 20.1875 C 57.979478 20.383273 57.221002 20.893208 55.466797 21.375 C 55.258325 21.43225 55.074581 21.491192 54.835938 21.546875 C 52.365966 22.123205 49.076993 24.373628 46.84375 26.017578 C 42.608175 27.916542 38.712965 30.487821 35.298828 33.623047 C 35.181646 33.729377 35.069117 33.841502 34.953125 33.949219 C 34.979679 33.92478 35.035156 33.869141 35.035156 33.869141 C 35.035156 33.869141 34.644827 33.056373 33.335938 33.251953 C 32.62619 33.578725 32.314414 33.943229 32.123047 34.521484 C 31.479239 34.470059 30.946786 34.423828 30.642578 34.423828 C 30.369053 34.423828 30.158193 34.447464 29.976562 34.492188 C 29.820851 34.53001 29.68375 34.587185 29.560547 34.664062 C 29.54413 34.674042 29.525981 34.686603 29.509766 34.697266 C 29.447001 34.739905 29.374039 34.80301 29.310547 34.857422 C 29.124072 35.01312 28.925272 35.206177 28.660156 35.464844 C 28.641694 35.482857 28.630478 35.49317 28.611328 35.511719 C 28.489621 35.629608 28.393925 35.727303 28.236328 35.869141 C 27.032752 36.952351 23.782438 44.053302 22.699219 46.701172 C 22.192894 47.93886 22.374733 49.274694 22.755859 50.460938 C 22.838835 50.719195 22.931861 50.957894 23.029297 51.199219 C 23.134474 51.463157 23.240865 51.710131 23.351562 51.947266 C 23.310816 51.938347 23.238281 51.919922 23.238281 51.919922 C 23.238281 51.919922 21.990978 52.229008 22.027344 53.455078 C 22.062874 54.653248 22.580078 55.246094 22.580078 55.246094 C 22.580078 55.246094 22.605455 55.262551 22.607422 55.263672 C 22.159573 55.650936 21.653483 56.340331 21.496094 56.8125 C 21.396884 57.11013 21.225691 57.574112 21.052734 58.076172 C 20.386394 60.01044 19.404745 63.396439 19.691406 68.365234 C 19.983263 73.424085 20.515561 73.473697 21.279297 74.759766 A 4.8935773 4.9786831 0 0 0 21.277344 74.759766 C 21.356711 74.893439 21.439808 75.043999 21.523438 75.207031 C 21.631316 75.421722 21.741241 75.652312 21.857422 75.949219 C 22.436271 77.428509 23.249123 78.660852 23.886719 79.732422 C 23.895296 79.756704 23.905442 79.780421 23.914062 79.804688 C 23.594427 80.115609 23.384982 80.498728 23.300781 81.003906 C 23.180424 81.726026 23.528926 82.448746 23.890625 82.597656 C 24.214468 82.731062 24.773854 83.048745 24.900391 83.121094 C 24.906904 83.255177 24.905045 83.367312 24.914062 83.507812 C 24.914206 83.510107 24.915612 83.511378 24.916016 83.513672 C 24.91614 83.514378 24.915969 83.514919 24.916016 83.515625 C 24.937074 83.841465 24.974784 84.204454 25.011719 84.564453 C 25.0235 84.677931 25.029727 84.778607 25.042969 84.894531 C 25.046169 84.922131 25.047481 84.944956 25.050781 84.972656 C 25.184676 86.118997 25.394008 87.390367 25.707031 88.705078 C 26.016016 90.002793 28.732494 92.371411 31.306641 94.376953 A 3.7310865 3.9718015 0 0 0 31.244141 95.085938 A 3.7310865 3.9718015 0 0 0 34.976562 99.056641 A 3.7310865 3.9718015 0 0 0 36.90625 98.480469 C 43.81887 104.26663 52.347485 107.73282 61.296875 108.42578 C 61.820682 108.46634 62.344687 108.50197 62.871094 108.52344 C 63.440626 108.54919 64.011724 108.56382 64.583984 108.56445 C 66.952609 108.55187 69.063288 108.35305 71.300781 107.96094 C 71.302794 107.96644 71.330078 108.03516 71.330078 108.03516 C 71.330078 108.03516 71.800403 108.49407 72.671875 108.44531 C 73.168956 108.4175 73.38486 108.1579 73.488281 107.95703 C 73.654917 108.01855 73.822364 108.07784 73.982422 108.13086 C 74.363608 108.25699 74.704899 108.35985 74.904297 108.44531 C 75.202063 108.52016 75.461113 108.56635 75.697266 108.59766 C 75.703102 108.59842 75.710988 108.60081 75.716797 108.60156 A 7.8232457 5.9577024 0 0 0 75.71875 108.59961 C 77.204352 108.78997 77.578452 108.21334 78.257812 108.07031 C 79.874821 107.72989 84.682662 105.67551 86.126953 105.31445 C 87.571244 104.9534 90.377237 103.83327 91.304688 103.0293 C 91.50432 102.85624 91.656749 102.65944 91.773438 102.43359 C 91.775665 102.42928 91.777096 102.42425 91.779297 102.41992 C 91.851877 102.27706 91.904901 102.11808 91.951172 101.95117 C 91.965045 101.90117 91.978433 101.84918 91.990234 101.79688 C 92.008962 101.7137 92.02123 101.61849 92.035156 101.5293 C 92.067325 101.32338 92.090263 101.09959 92.101562 100.85938 C 92.10549 100.77484 92.111379 100.68865 92.113281 100.59961 C 92.120103 100.27982 92.118254 99.940547 92.107422 99.558594 C 92.107402 99.557893 92.107442 99.557341 92.107422 99.556641 C 92.107402 99.555924 92.107442 99.555404 92.107422 99.554688 C 92.168754 99.354789 92.25106 99.174345 92.326172 98.986328 C 92.721185 99.009045 93.28692 98.939806 93.589844 98.333984 C 93.744391 98.024882 93.920094 97.524332 94.060547 96.978516 C 95.82556 96.970578 96.31405 96.761741 97.080078 96.408203 C 97.252196 96.328761 97.45609 96.197043 97.671875 96.042969 C 97.723457 96.006509 97.772607 95.97357 97.826172 95.933594 C 97.883767 95.890201 97.948166 95.834228 98.007812 95.787109 C 98.262442 95.58769 98.529263 95.364319 98.810547 95.111328 C 98.81493 95.107386 98.819832 95.103561 98.824219 95.099609 C 100.47946 93.608529 102.42877 91.420867 102.85742 90.992188 C 103.45921 90.390427 105.86647 84.975748 106.70898 82.929688 C 107.04687 82.109109 106.9521 80.990344 106.72656 79.933594 A 8.545391 9.3277161 0 0 0 106.73047 79.929688 C 106.6856 79.719233 106.62563 79.532138 106.57227 79.330078 C 106.50653 79.082596 106.45025 78.832102 106.37891 78.607422 C 106.37798 78.60452 106.37787 78.602507 106.37695 78.599609 C 106.2737 78.271665 106.17602 78.004712 106.08203 77.753906 C 106.08888 77.756986 106.10078 77.766709 106.10742 77.769531 C 106.36318 77.829731 107.29639 78.115144 107.53711 76.896484 C 107.60267 76.56456 107.54714 76.222709 107.26953 75.714844 C 107.90086 75.217131 108.52337 74.725512 109.11719 74.263672 C 110.20041 73.421152 109.59718 70.654018 109.83789 69.330078 C 109.86884 69.159835 109.88454 68.982234 109.88672 68.800781 C 109.88724 68.755596 109.87993 68.707936 109.87891 68.662109 C 109.87593 68.525672 109.87244 68.387743 109.85742 68.246094 C 109.84384 68.118923 109.80845 67.980473 109.78711 67.849609 C 109.74366 67.582428 109.70308 67.316892 109.63867 67.037109 C 109.63682 67.029068 109.63663 67.021722 109.63477 67.013672 A 8.545391 9.3277161 0 0 0 109.63281 67.009766 C 109.45546 66.243344 109.23227 65.440343 109.11719 64.634766 C 109.01558 63.923486 108.19698 61.641245 107.32031 59.296875 C 106.92354 56.510345 106.25413 53.769871 105.32422 51.113281 C 105.58659 50.290381 105.87057 49.321493 105.98633 48.626953 C 106.22705 47.182663 104.6638 44.053407 104.30273 42.248047 C 104.17817 41.625194 103.60502 40.73622 102.79883 39.755859 A 2.8284044 2.7080467 0 0 0 102.97852 38.818359 A 2.8284044 2.7080467 0 0 0 100.15039 36.109375 A 2.8284044 2.7080467 0 0 0 99.3125 36.234375 C 98.449578 35.48335 97.560046 34.777569 96.71875 34.185547 C 96.204607 33.823743 95.805263 33.577448 95.375 33.300781 A 5.3191058 4.6382603 0 0 0 95.382812 33.285156 C 95.232532 33.188054 95.128697 33.134668 94.988281 33.046875 C 94.790847 32.923393 94.589971 32.789526 94.412109 32.683594 C 94.368989 32.285181 94.195376 31.058664 93.589844 30.453125 C 92.944089 29.807371 91.86793 29.741602 91.636719 29.734375 C 91.585494 29.496221 91.528743 29.309197 91.46875 29.152344 C 91.453231 29.111769 91.439775 29.04166 91.423828 29.009766 C 91.42362 29.009349 91.424037 29.008229 91.423828 29.007812 C 91.335854 28.831863 91.197022 28.641163 91.037109 28.443359 C 90.983509 28.376399 90.922547 28.306027 90.861328 28.236328 C 90.795999 28.162665 90.716026 28.080802 90.642578 28.003906 C 90.430299 27.780067 90.144141 27.512002 89.865234 27.255859 C 89.795202 27.191766 89.751334 27.140363 89.677734 27.074219 A 5.3191058 4.6382603 0 0 0 89.664062 27.076172 C 89.209825 26.666238 88.769941 26.270719 88.173828 25.759766 C 86.488821 24.315476 82.517999 22.630105 80.351562 21.546875 C 78.185125 20.463655 77.867035 20.026916 73.300781 19.259766 C 71.750366 18.999286 69.759174 19.012941 69.300781 19.019531 z "
       transform="translate(0,796.36216)"
       id="path5031" />
    <g
       transform="matrix(0.77198133,0,0,0.77198133,142.11859,98.300693)"
       id="layer1-2"
       inkscape:label="Calque 1">
      <path
         sodipodi:nodetypes="ssssccsssccsssccscccccsssccccscccssccssscsssss"
         inkscape:connector-curvature="0"
         id="path4136"
         transform="translate(0,924.36216)"
         d="m 71.279777,4.521827 c -4.156517,0.059686 -6.499726,2.962548 -7.045402,2.962548 -0.62363,0 -1.450178,-0.3217117 -4.256511,-1.2571617 -2.806334,-0.93544 -2.759625,0.4763586 -7.436848,1.5677086 -3.199524,0.7465542 -7.458691,3.6614961 -10.351563,5.7910161 -6.076144,2.724164 -11.617423,6.510727 -16.363281,11.18164 -1.95509,-0.06028 -3.848445,-0.291016 -4.623047,-0.291016 -1.559074,0 -1.558114,0.467924 -3.117187,1.871094 -1.559075,1.40316 -5.768709,10.603243 -7.171876,14.033203 -1.0020114,2.449368 0.0605,5.200624 0.978516,7.09375 -0.171812,1.432325 0.04489,2.38597 -1.002604,3.90473 -0.601175,0.480219 -1.3214071,1.452069 -1.5364584,2.097223 -0.6236297,1.870891 -2.8056128,6.859617 -2.3378906,14.966797 0.4677223,8.10718 1.4034737,6.236386 2.8066406,9.822266 0.7498224,1.916228 1.8029844,3.514262 2.6289064,4.902344 0.389562,1.102861 0.813598,2.19324 1.271484,3.269531 0.0058,2.027992 0.315702,5.11028 1.087891,8.353516 0.779537,3.274 13.408203,11.849604 13.408203,11.849604 l 0.150391,0.0215 c 10.187692,8.91671 23.262078,13.83851 36.800781,13.85351 3.755667,-0.0199 6.993098,-0.37873 10.669082,-1.14852 0.930748,0.45926 2.182187,0.77248 2.698774,0.99389 2.844163,0.71491 3.32097,-0.27118 4.344386,-0.48664 2.094621,-0.44097 8.323119,-3.10001 10.194008,-3.56771 1.870889,-0.4677 5.503689,-1.9195 6.705078,-2.96094 1.02282,-0.88665 1.10465,-2.26032 1.04102,-4.50021 0.52619,-1.71499 1.47658,-3.17017 2.41796,-3.33572 2.39509,-3.5e-4 3.01234,-0.2736 4.02344,-0.74024 2.0268,-0.9355 6.70484,-6.236024 7.48438,-7.015624 0.77954,-0.7795 3.89692,-7.794912 4.98828,-10.445312 0.82426,-2.001762 -0.30267,-5.412348 -0.90625,-6.96875 0.12229,-0.454891 0.23884,-0.911308 0.34961,-1.369141 0.69328,-0.546977 2.49439,-1.969851 3.67578,-2.888672 1.40317,-1.09137 0.62373,-4.675645 0.93555,-6.390625 0.31181,-1.71498 -0.62373,-3.899321 -0.93555,-6.082031 -0.13162,-0.921361 -1.19252,-3.877245 -2.32813,-6.914063 -0.51397,-3.609581 -1.37941,-7.160304 -2.58398,-10.601562 0.33987,-1.06596 0.70747,-2.319057 0.85742,-3.21875 0.31182,-1.87089 -1.71392,-5.925062 -2.18164,-8.263672 -0.46772,-2.33861 -5.61276,-7.483072 -9.82226,-10.445312 -4.2095,-2.96224 -6.23633,-3.585938 -6.23633,-3.585938 0,0 -0.2756,-2.421112 -0.624219,-3.118353 C 99.410143,16.409349 97.910156,15.12339 95.727452,13.2525 93.544748,11.38161 88.400084,9.1980919 85.59375,7.7949219 82.787416,6.3917519 82.375202,5.8277373 76.460222,4.8339844 74.451864,4.496568 71.873565,4.5133004 71.279777,4.521827 Z"
         style="opacity:1;fill:#bc8572;fill-opacity:1;stroke:none;stroke-width:2;stroke-linecap:round;stroke-linejoin:round;stroke-miterlimit:4;stroke-dasharray:none;stroke-opacity:1" />
      <path
         id="path4232"
         transform="translate(0,924.36216)"
         d="m 38.970703,67.917969 a 5.677525,4.7404575 0 0 0 -4.515625,1.875 4.0238767,4.6853361 0 0 0 -1.216797,-0.222657 4.0238767,4.6853361 0 0 0 -3.259765,1.947266 6.7799568,6.7248354 0 0 0 -3.464844,-0.955078 6.7799568,6.7248354 0 0 0 -4.845703,2.03125 5.5672817,4.2443633 0 0 0 -0.777344,-0.04687 5.5672817,4.2443633 0 0 0 -5.361328,3.113281 6.338984,6.4492273 0 0 0 -2.355469,-0.466797 6.338984,6.4492273 0 0 0 -4.1015624,1.533203 c 0.2345003,0.394958 0.4811855,0.852091 0.75,1.539063 0.7498224,1.916228 1.8029844,3.514262 2.6289064,4.902344 0.389562,1.102861 0.813598,2.19324 1.271484,3.269531 0.0014,0.481437 0.02278,1.030821 0.06055,1.619141 2.43e-4,0.0037 0.0017,0.008 0.002,0.01172 0.03702,0.555957 0.09243,1.15799 0.164063,1.785157 0.0041,0.0357 0.0056,0.06567 0.0098,0.101562 a 4.4097281,5.5121598 0 0 0 0.261719,0.01172 4.4097281,5.5121598 0 0 0 4.183594,-3.783203 5.1814303,5.071187 0 0 0 4.322265,-3.320313 6.7799568,6.7248354 0 0 0 3.78711,1.150391 6.7799568,6.7248354 0 0 0 2.179687,-0.367188 6.7248354,6.1184978 0 0 0 5.923829,3.232422 6.7248354,6.1184978 0 0 0 6.724609,-6.117187 6.7248354,6.1184978 0 0 0 -1.195313,-3.470703 5.677525,4.7404575 0 0 0 4.501954,-4.632813 5.677525,4.7404575 0 0 0 -5.677735,-4.740234 z"
         style="opacity:1;fill:#d4513a;fill-opacity:1;stroke:none;stroke-width:2;stroke-linecap:round;stroke-linejoin:round;stroke-miterlimit:4;stroke-dasharray:none;stroke-opacity:1"
         inkscape:connector-curvature="0" />
      <path
         sodipodi:nodetypes="ssssssssccssccccccsccccsss"
         inkscape:connector-curvature="0"
         id="path4149"
         transform="translate(0,924.36216)"
         d="m 38.470703,71.408203 c -0.48565,-0.01073 -0.955977,0.07473 -1.365234,0.308594 -2.182704,1.24726 -4.053523,3.742187 -5.300781,3.742187 -1.247261,0 -6.39244,-0.623387 -8.107422,-0.779296 -1.714981,-0.15591 -6.080523,0.312023 -7.171875,1.871093 -1.091352,1.5591 -1.246197,2.338988 -2.181641,3.742188 -0.935445,1.4032 -0.46851,2.02644 -1.248047,2.49414 -0.779537,0.4677 -1.246436,1.091944 -1.402344,2.027344 -0.155907,0.9354 0.295138,1.871553 0.763672,2.064453 0.468533,0.193 1.417969,0.740235 1.417969,0.740235 0,0 0.780427,-5.456875 2.183594,-7.171875 1.403167,-1.715 4.052493,-3.740585 4.832031,-3.896485 0.779537,-0.1559 3.74342,-9.03e-4 6.082031,0.466797 0.134736,0.02695 0.285464,0.04653 0.427735,0.07031 0.229102,0.640946 1.024225,2.198495 1.716112,2.502963 0.97442,0.4287 3.701771,0.390182 4.598239,1.910329 0.886564,1.503272 0.974658,1.247564 2.728617,1.559364 1.753958,0.3119 3.390625,-0.03906 3.390625,-0.03906 0,0 -3.040518,-0.546096 -3.703125,-1.091796 -0.662607,-0.545701 -1.089349,-1.678953 -1.675883,-2.065909 -1.831912,-1.208222 -3.663206,-0.935491 -4.208882,-1.559091 -0.236506,-0.270323 -0.449516,-0.646273 -0.625,-0.990235 1.811276,0.07667 3.591762,-0.0914 4.210937,-0.607422 0.935445,-0.7795 1.559039,-2.18267 2.650391,-2.65039 1.091352,-0.46772 4.521929,-1.871677 5.613281,-1.248047 0.886724,0.506699 -1.520516,-1.353878 -3.625,-1.400391 z"
         style="fill:#4a26d2;fill-opacity:1;fill-rule:evenodd;stroke:none;stroke-width:1px;stroke-linecap:butt;stroke-linejoin:miter;stroke-opacity:1" />
      <path
         id="path4258"
         transform="translate(0,924.36216)"
         d="m 68.910156,88.244141 a 5.1449451,4.5992694 0 0 0 -5.144531,4.599609 5.1449451,4.5992694 0 0 0 3.001953,4.173828 4.7551765,4.3654079 0 0 0 0.07422,0.41211 5.0669913,4.131547 0 0 0 -2.140625,3.365232 5.0669913,4.131547 0 0 0 1.318359,2.77149 5.0669913,5.8465285 0 0 0 -2.697265,4.64453 6.0024362,5.5347137 0 0 0 -4.779297,-2.19336 6.0024362,5.5347137 0 0 0 -2.566407,0.53711 5.8465285,5.4567599 0 0 0 -5.070312,-3.33399 3.4726608,3.2521744 0 0 0 -3.447266,-2.89258 3.4726608,3.2521744 0 0 0 -3.472656,3.25391 3.4726608,3.2521744 0 0 0 1.400391,2.60352 5.8465285,5.4567599 0 0 0 -0.640625,2.48242 5.8465285,5.4567599 0 0 0 5.845703,5.45703 5.8465285,5.4567599 0 0 0 2.396484,-0.48633 6.0024362,5.5347137 0 0 0 5.554688,3.44727 6.0024362,5.5347137 0 0 0 1.677734,-0.22266 10.133983,7.7174177 0 0 0 -0.04102,0.61328 10.133983,7.7174177 0 0 0 0.730468,2.85938 c 1.41333,0.10945 2.833293,0.17811 4.259766,0.17968 3.755667,-0.0199 6.993938,-0.37864 10.669922,-1.14843 0.930748,0.45926 2.180678,0.77273 2.697265,0.99414 0.396839,0.0998 0.740156,0.16094 1.052735,0.20117 a 10.133983,7.7174177 0 0 0 0.857422,-3.08594 10.133983,7.7174177 0 0 0 -7.158204,-7.37695 5.0669913,5.8465285 0 0 0 0.142579,-1.35352 5.0669913,5.8465285 0 0 0 -1.550782,-4.20117 5.0669913,4.131547 0 0 0 2.955079,-3.75 5.0669913,4.131547 0 0 0 -0.169922,-1.050779 4.7551765,4.3654079 0 0 0 1.572265,-3.238282 4.7551765,4.3654079 0 0 0 -2.18164,-3.664062 5.1449451,4.5992694 0 0 0 -5.146485,-4.597656 z"
         style="opacity:1;fill:#d4513a;fill-opacity:1;stroke:none;stroke-width:2;stroke-linecap:round;stroke-linejoin:round;stroke-miterlimit:4;stroke-dasharray:none;stroke-opacity:1"
         inkscape:connector-curvature="0" />
      <path
         sodipodi:nodetypes="cccsscccccscscsccsccsssc"
         inkscape:connector-curvature="0"
         id="path4154"
         transform="translate(0,924.36216)"
         d="m 70.335938,91.179688 c 0,0 1.101345,4.409115 0.880859,5.291015 -0.220487,0.882 -2.094183,2.205369 -2.535156,3.417969 -0.440973,1.212698 -0.77105,3.306628 -1.322266,4.298828 -0.551216,0.9922 -1.544489,2.31443 -1.103516,4.29883 0.440973,1.9844 2.204861,3.96946 2.976563,4.63086 0.542687,0.46519 1.036039,0.77737 1.623047,1.29883 -1.238599,-0.14308 -3.485112,-0.41498 -5.150391,-0.74805 -2.204864,-0.4409 -2.977428,-1.10175 -4.851562,-2.31445 -1.874134,-1.2126 -2.97591,-1.3234 -4.298828,-1.4336 -1.322919,-0.1103 -5.181205,-0.44077 -6.72461,-1.76367 -1.543405,-1.3229 -1.984375,-3.41797 -1.984375,-3.41797 0,0 -0.330516,4.63043 3.197266,6.17383 3.527782,1.5434 3.19726,-0.22073 7.166015,1.76367 3.968755,1.9843 3.417531,2.31557 5.953125,3.41797 1.866004,0.81128 5.700193,0.62683 8.2503,0.5332 0.903735,1.55838 1.496179,3.20169 1.496179,3.20169 0,0 0.608976,0.59445 1.737853,0.53129 1.041845,-0.0583 1.17902,-0.93199 1.17902,-0.93199 0,0 -1.242945,-4.31261 -2.520773,-5.53927 -1.063455,-1.40196 -4.833507,-3.08986 -5.512153,-5.18143 -0.537174,-1.65555 -2.2e-4,-4.07942 1.322699,-7.16622 1.322918,-3.086804 3.96745,-2.865201 2.644532,-5.841801 -1.322919,-2.9766 -2.423828,-4.519531 -2.423828,-4.519531 z"
         style="fill:#4a26d2;fill-opacity:1;fill-rule:evenodd;stroke:none;stroke-width:1px;stroke-linecap:butt;stroke-linejoin:miter;stroke-opacity:1" />
      <path
         id="path4276"
         transform="translate(0,924.36216)"
         d="m 86.683594,86.373047 a 5.7685747,5.8465285 0 0 0 -5.767578,5.845703 5.7685747,5.8465285 0 0 0 5.767578,5.847656 5.7685747,5.8465285 0 0 0 1.175781,-0.128906 5.9244823,6.7040195 0 0 0 5.841797,5.58594 5.9244823,6.7040195 0 0 0 0.34375,-0.0137 7.7953715,8.4969549 0 0 0 -0.0332,0.71484 7.7953715,8.4969549 0 0 0 6.376948,8.34961 c 0.44703,-0.86465 0.48115,-2.0545 0.4336,-3.72852 0.52619,-1.71499 1.47658,-3.17038 2.41796,-3.33593 2.39509,-3.5e-4 3.01234,-0.2736 4.02344,-0.74024 0.58353,-0.26933 1.39303,-0.91636 2.25977,-1.69726 a 7.7953715,8.4969549 0 0 0 -7.7168,-7.345708 7.7953715,8.4969549 0 0 0 -2.224606,0.361329 5.9244823,6.7040195 0 0 0 -5.880859,-5.972657 5.9244823,6.7040195 0 0 0 -1.558594,0.236328 5.7685747,5.8465285 0 0 0 -5.458984,-3.978515 z"
         style="opacity:1;fill:#d4513a;fill-opacity:1;stroke:none;stroke-width:2;stroke-linecap:round;stroke-linejoin:round;stroke-miterlimit:4;stroke-dasharray:none;stroke-opacity:1"
         inkscape:connector-curvature="0" />
      <path
         inkscape:connector-curvature="0"
         id="path4159"
         d="m 100.56029,1032.406 c 0,0 1.55908,0.4677 2.18271,-0.7795 0.62363,-1.2473 1.55907,-4.8332 0.31181,-5.4568 -1.24726,-0.6236 -3.429962,0.7796 -5.612666,-2.0268 -2.182704,-2.8063 -0.311815,-0.3118 -2.806334,-4.6772 -2.494519,-4.3654 -9.978076,-3.8977 -9.978076,-3.8977 0,0 4.677223,2.3386 6.236298,3.43 1.559074,1.0913 4.053593,4.2095 4.2095,5.9245 0.155908,1.7149 0.779537,2.9622 1.870889,3.8976 1.091352,0.9355 3.741779,-0.6236 3.741779,0.3119 0,0.9354 -0.15591,3.274 -0.15591,3.274 z"
         style="fill:#4a26d2;fill-opacity:1;fill-rule:evenodd;stroke:none;stroke-width:1px;stroke-linecap:butt;stroke-linejoin:miter;stroke-opacity:1" />
      <path
         id="path4286"
         transform="translate(0,924.36216)"
         d="m 81.033203,35.46875 a 4.0146165,3.7028015 0 0 0 -4.015625,3.703125 4.0146165,3.7028015 0 0 0 0.935547,2.369141 8.5749083,8.8087702 0 0 0 -0.40625,1.810546 8.8087702,8.6528625 0 0 0 -1.697266,-0.166015 8.8087702,8.6528625 0 0 0 -3.416015,0.677734 3.3520098,3.0791717 0 0 0 -2.197266,-0.753906 3.3520098,3.0791717 0 0 0 -3.351562,3.078125 3.3520098,3.0791717 0 0 0 0.93164,2.128906 8.8087702,8.6528625 0 0 0 -0.77539,3.523438 8.8087702,8.6528625 0 0 0 6.734375,8.40039 3.1181486,2.3386114 0 0 0 -0.498047,1.265625 3.1181486,2.3386114 0 0 0 0.560547,1.333985 8.7308159,7.8733253 0 0 0 -6.953125,7.708984 8.7308159,7.8733253 0 0 0 8.730468,7.873047 8.7308159,7.8733253 0 0 0 8.150391,-5.080078 18.241169,16.760048 0 0 0 11.804687,3.988281 18.241169,16.760048 0 0 0 7.773438,-1.617187 11.069427,12.082826 0 0 0 10.78125,9.412109 11.069427,12.082826 0 0 0 5.64062,-1.703125 c -0.258,-1.210046 -0.65225,-2.351531 -0.93554,-3.082031 0.12229,-0.454891 0.23884,-0.911308 0.34961,-1.369141 0.69328,-0.546977 2.49439,-1.969851 3.67578,-2.888672 1.40317,-1.09137 0.62373,-4.675645 0.93555,-6.390625 0.16251,-0.893865 -0.0154,-1.91781 -0.26563,-3 a 11.069427,12.082826 0 0 0 -9.40039,-5.732422 11.069427,12.082826 0 0 0 -0.33398,0.01367 18.241169,16.760048 0 0 0 0.0215,-0.402344 18.241169,16.760048 0 0 0 -18.242188,-16.759765 18.241169,16.760048 0 0 0 -0.951171,0.0293 8.5749083,8.8087702 0 0 0 -8.558594,-8.292969 8.5749083,8.8087702 0 0 0 -2.855469,0.515625 4.0146165,3.7028015 0 0 0 -2.171875,-0.59375 z"
         style="opacity:1;fill:#d4513a;fill-opacity:1;stroke:none;stroke-width:2;stroke-linecap:round;stroke-linejoin:round;stroke-miterlimit:4;stroke-dasharray:none;stroke-opacity:1"
         inkscape:connector-curvature="0" />
      <path
         sodipodi:nodetypes="csscscssscssscssscssssccssscccscssccsscc"
         inkscape:connector-curvature="0"
         id="path4165"
         transform="translate(0,924.36216)"
         d="m 80.462373,38.5948 c 0,0 2.969589,2.208037 4.180641,4.705801 0.490492,1.011627 1.18044,2.001855 1.481986,3.549039 0.292064,1.498536 0.329377,5.160153 -0.166016,5.791019 -0.891557,-0.731093 -3.645492,-1.049869 -5.036895,-1.12717 -2.806334,-0.1559 -9.828339,-4.116971 -9.828339,-4.116971 0,0 5.300506,6.860065 8.730469,7.171875 3.429964,0.31181 4.677596,-0.0011 6.392578,2.181641 1.714981,2.1827 1.482891,2.377002 2.942707,3.567708 0.610581,0.498024 1.736433,1.111128 2.578777,1.633464 -0.260878,0.397537 -0.288552,1.199337 -1.384331,2.538628 -1.403167,1.71498 -3.357718,1.614406 -5.0727,1.926216 -1.714982,0.31182 -5.300745,0.312257 -7.951172,1.091796 -2.650426,0.779531 -6.392578,7.171876 -6.392578,7.171876 0,0 3.816325,-1.899915 5.063585,-3.458985 1.247259,-1.55908 5.205436,-2.114955 7.098524,-1.998047 2.091375,0.129153 6.06423,0.446469 9.261719,-1.670574 2.38043,-1.576071 3.740535,-2.638254 4.107422,-3.63216 0.01221,1.34e-4 0.02494,0.002 0.03711,0.002 2.338612,0 6.29457,-0.144952 8.00955,0.946398 1.71498,1.09135 4.30858,2.794963 5.08811,4.198133 0.77954,1.40317 2.33857,3.118665 2.65039,4.677735 0.31181,1.55908 4.05273,4.833984 4.05273,4.833984 0,0 1.8713,1.713335 2.65084,2.044638 0.3313,0.07795 1.53969,0.449689 1.85151,-1.128922 0.21147,-1.070614 -0.44875,-2.163977 -4.50235,-6.685247 -4.05359,-4.52132 -3.71484,-5.280205 -5.08962,-7.17947 -0.48555,-0.670775 -1.51517,-1.725035 -1.90061,-2.150608 -0.86137,-2.250603 -0.93124,-3.461603 -2.20703,-4.857422 -0.89924,-0.835465 -8.107426,-5.144532 -8.107426,-5.144532 0,0 1.010396,2.791833 3.916666,4.593316 2.1909,1.358052 1.55618,2.549799 2.35482,3.559028 -0.31665,-0.06764 -0.59765,-0.129144 -0.97071,-0.201172 -5.273286,-1.018132 -3.89802,0.59481 -9.042963,-1.58789 C 91.30853,58.163637 90.295549,57.532706 89.333985,56.3243 l 0,-1.75586 c 0,0 0.157518,-4.053861 -0.154296,-5.457031 -0.311816,-1.40317 -0.787234,-3.851141 -1.714844,-5.300781 C 86.870649,42.882036 86.455096,41.107792 84.330858,39.724112 82.306532,38.641176 82.104171,38.7858 80.462373,38.5948 Z"
         style="fill:#4a26d2;fill-opacity:1;fill-rule:evenodd;stroke:none;stroke-width:1px;stroke-linecap:butt;stroke-linejoin:miter;stroke-opacity:1" />
      <path
         id="path4341"
         transform="translate(0,924.36216)"
         d="M 12.015625,45.097656 A 4.6302142,5.8428898 0 0 0 10.986328,45.25 c 0.260538,0.810875 0.589154,1.570697 0.90625,2.224609 -0.171812,1.432325 0.04554,2.385537 -1.001953,3.904297 -0.601175,0.480219 -1.3220581,1.452503 -1.5371094,2.097656 -0.1285135,0.385541 -0.3482226,0.98832 -0.5722656,1.638672 a 4.6302142,5.8428898 0 0 0 1.0859375,0.996094 4.9609442,6.2838626 0 0 0 -0.054687,0.892578 4.9609442,6.2838626 0 0 0 4.9609385,6.283203 4.9609442,6.2838626 0 0 0 0.289062,-0.01367 4.7955794,3.4726608 0 0 0 4.726561,2.880859 4.7955794,3.4726608 0 0 0 4.794922,-3.472656 4.7955794,3.4726608 0 0 0 -4.794922,-3.472657 4.7955794,3.4726608 0 0 0 -0.380859,0.01172 4.9609442,6.2838626 0 0 0 0.326172,-2.216797 4.9609442,6.2838626 0 0 0 -3.097656,-5.820312 4.6302142,5.8428898 0 0 0 0.0098,-0.244141 4.6302142,5.8428898 0 0 0 -4.630859,-5.841797 z"
         style="opacity:1;fill:#d4513a;fill-opacity:1;stroke:none;stroke-width:2;stroke-linecap:round;stroke-linejoin:round;stroke-miterlimit:4;stroke-dasharray:none;stroke-opacity:1"
         inkscape:connector-curvature="0" />
      <path
         sodipodi:nodetypes="cscsscsssc"
         inkscape:connector-curvature="0"
         id="path4174"
         d="m 11.611186,971.50132 c 0,0 -1.6148275,0.40157 -1.56772,1.98979 0.04603,1.55206 0.714147,2.3205 0.714147,2.3205 0,0 2.494519,1.40317 2.494519,2.96224 0,1.55908 -1.403167,2.80634 0.467722,5.14495 1.870889,2.33861 9.198538,4.83313 9.198538,4.83313 0,0 -4.989038,-2.65043 -5.612667,-5.14495 -0.62363,-2.49451 -0.62363,-5.92448 -1.559075,-7.17174 -0.935444,-1.24726 -2.026796,-0.93544 -2.182704,-2.80633 -0.155907,-1.87089 -1.95276,-2.12759 -1.95276,-2.12759 z"
         style="fill:#4a26d2;fill-opacity:1;fill-rule:evenodd;stroke:none;stroke-width:1px;stroke-linecap:butt;stroke-linejoin:miter;stroke-opacity:1" />
      <path
         id="path4327"
         transform="translate(0,924.36216)"
         d="m 28.617188,22.220703 c -0.9546,0.820341 -1.891761,1.661821 -2.791016,2.546875 -1.95509,-0.06028 -3.848445,-0.291016 -4.623047,-0.291016 -1.35515,0 -1.585988,0.394273 -2.632813,1.408204 a 6.0082545,5.9531326 0 0 0 -0.04883,0.691406 6.0082545,5.9531326 0 0 0 4.541016,5.765625 5.1263089,6.6697135 0 0 0 -0.792969,3.550781 5.1263089,6.6697135 0 0 0 3.941407,6.480469 4.1892414,4.9609442 0 0 0 -0.304688,1.841797 4.1892414,4.9609442 0 0 0 4.189453,4.960937 4.1892414,4.9609442 0 0 0 4.189453,-4.960937 4.1892414,4.9609442 0 0 0 -2.636718,-4.603516 5.1263089,6.6697135 0 0 0 0.873046,-3.71875 5.1263089,6.6697135 0 0 0 -0.0078,-0.287109 6.5043488,4.3546066 0 0 0 0.33789,0.01172 6.5043488,4.3546066 0 0 0 3.63086,-0.746094 3.8585119,3.5277824 0 0 0 2.984375,1.296875 3.8585119,3.5277824 0 0 0 3.859375,-3.529297 3.8585119,3.5277824 0 0 0 -3.859375,-3.527344 3.8585119,3.5277824 0 0 0 -0.882813,0.09961 6.5043488,4.3546066 0 0 0 -5.732422,-2.304688 6.5043488,4.3546066 0 0 0 -2.347656,0.294922 6.0082545,5.9531326 0 0 0 0.0332,-0.625 6.0082545,5.9531326 0 0 0 -1.919921,-4.355469 z"
         style="opacity:1;fill:#d4513a;fill-opacity:1;stroke:none;stroke-width:2;stroke-linecap:round;stroke-linejoin:round;stroke-miterlimit:4;stroke-dasharray:none;stroke-opacity:1"
         inkscape:connector-curvature="0" />
      <path
         sodipodi:nodetypes="ccscssscssccscscscc"
         inkscape:connector-curvature="0"
         id="path4176"
         transform="translate(0,924.36216)"
         d="m 24.691577,22.958085 c -1.213448,0.558678 -1.530835,1.197839 -1.773608,2.454024 0,0 -0.934999,2.339358 1.091797,3.898438 0.822118,0.632397 1.643364,1.156124 2.455078,1.5625 -0.481214,0.526868 -0.960168,1.614153 -1.208642,2.743584 -0.214373,0.97442 -0.999615,2.316314 0.487211,4.873647 0.974422,1.676001 3.410884,2.201089 3.410884,4.851519 l 0,4.210937 c 0,0 2.689266,-6.178312 1.286099,-7.737382 -1.403167,-1.55908 -3.157193,-1.14989 -3.157193,-3.17668 0,-2.0268 0.311917,-3.273544 0.935547,-4.208984 0.556154,-0.846374 1.173487,-1.126614 2.431425,-1.341581 1.870889,0 3.423533,-0.609523 5.556423,0.275608 3.557607,1.476377 5.109808,1.845269 5.109808,1.845269 0,0 -4.619131,-4.230193 -6.334113,-4.386093 -1.714981,-0.15591 -3.704099,0.254718 -4.639544,0.410628 -0.935445,0.1559 -4.713612,-0.60044 -4.812442,-2.008781 -0.155906,-2.221684 1.363025,-3.468424 1.363025,-3.468424 0,0 -0.506261,-1.051576 -2.201755,-0.798229 z"
         style="fill:#4a26d2;fill-opacity:1;fill-rule:evenodd;stroke:none;stroke-width:1px;stroke-linecap:butt;stroke-linejoin:miter;stroke-opacity:1" />
      <path
         id="path4315"
         transform="translate(0,924.36216)"
         d="m 67.03125,5.6738281 c -1.536,0.8333079 -2.479571,1.8105469 -2.796875,1.8105469 -0.62363,0 -1.449526,-0.3223625 -4.255859,-1.2578125 -2.620723,-0.8735697 -2.803872,0.2978479 -6.619141,1.3457031 a 10.197496,5.9531326 0 0 0 -1.621094,2.8359374 7.8272672,5.3467951 0 0 0 -6.980469,5.308594 7.8272672,5.3467951 0 0 0 0.201172,1.169922 4.7955794,4.8507009 0 0 0 -2.185546,4.066406 4.7955794,4.8507009 0 0 0 1.861328,3.830078 4.4648495,4.6853361 0 0 0 -0.207032,1.40625 4.4648495,4.6853361 0 0 0 4.464844,4.685547 4.4648495,4.6853361 0 0 0 4.464844,-4.685547 4.4648495,4.6853361 0 0 0 -1.365234,-3.363281 4.7955794,4.8507009 0 0 0 0.367187,-1.769531 7.8272672,5.3467951 0 0 0 0.226563,0.0078 7.8272672,5.3467951 0 0 0 7.693359,-4.382812 10.197496,5.9531326 0 0 0 1.623047,0.08203 10.197496,5.9531326 0 0 0 10.197265,-5.953125 10.197496,5.9531326 0 0 0 -5.068359,-5.1367189 z"
         style="opacity:1;fill:#d4513a;fill-opacity:1;stroke:none;stroke-width:2;stroke-linecap:round;stroke-linejoin:round;stroke-miterlimit:4;stroke-dasharray:none;stroke-opacity:1"
         inkscape:connector-curvature="0" />
      <path
         sodipodi:nodetypes="cssssssscsssssc"
         inkscape:connector-curvature="0"
         id="path4180"
         d="m 61.544458,931.00771 c 0,0 0.394272,-1.56166 2.065773,-1.65651 1.272393,-0.0722 2.650427,0.62363 2.806334,1.87089 0.155908,1.24726 1.041254,4.87916 -1.559074,5.61266 -1.788591,0.50453 -4.521316,0.31182 -5.768575,0.46773 -1.247259,0.1559 -2.143727,1.16931 -3.936662,1.676 -1.060885,0.29981 -3.858709,1.0134 -4.872108,2.80634 -1.528544,2.70434 -1.909865,3.50791 -2.065773,4.59927 -0.155907,1.09135 -0.779537,4.56029 -0.779537,4.56029 0,0 -1.325597,-1.97907 -1.325213,-5.10597 2.66e-4,-2.17326 1.286236,-3.5469 2.377588,-4.95006 1.091352,-1.40317 2.182704,-3.27406 3.741778,-4.2095 1.559074,-0.93545 3.585871,-2.18271 5.612668,-2.33861 2.026796,-0.15591 2.806333,0 3.58587,-0.46773 0.779538,-0.46772 0.116927,-2.8648 0.116931,-2.8648 z"
         style="fill:#4a26d2;fill-opacity:1;fill-rule:evenodd;stroke:none;stroke-width:1px;stroke-linecap:butt;stroke-linejoin:miter;stroke-opacity:1" />
      <path
         id="path4307"
         transform="translate(0,924.36216)"
         d="m 97.675781,14.955078 a 6.8902001,6.0082545 0 0 0 -5.865234,5.025391 4.2994847,3.8585119 0 0 0 -0.417969,-0.01953 4.2994847,3.8585119 0 0 0 -4.300781,3.859374 4.2994847,3.8585119 0 0 0 4.300781,3.857422 4.2994847,3.8585119 0 0 0 3.558594,-1.697265 6.8902001,6.0082545 0 0 0 3.662109,0.925781 A 6.8902001,6.0082545 0 0 0 105.06445,23 c -3.02363,-1.953691 -4.5039,-2.419922 -4.5039,-2.419922 0,0 -0.27638,-2.4219 -0.625003,-3.11914 -0.346866,-0.693738 -1.149952,-1.508474 -2.259766,-2.50586 z"
         style="opacity:1;fill:#d4513a;fill-opacity:1;stroke:none;stroke-width:2;stroke-linecap:round;stroke-linejoin:round;stroke-miterlimit:4;stroke-dasharray:none;stroke-opacity:1"
         inkscape:connector-curvature="0" />
      <path
         inkscape:connector-curvature="0"
         id="path4182"
         d="m 100.09257,942.75924 c 0,0 1.71498,0 2.65043,0.93544 0.93544,0.93545 1.09135,3.11815 1.09135,3.11815 0,0 -2.18271,1.55907 -4.209502,1.55907 -2.026797,0 -3.118149,-0.31181 -6.548112,-0.46772 -3.429964,-0.15591 -4.053593,0 -4.053593,0 0,0 4.365408,-2.1827 6.392204,-2.1827 2.026797,0 4.677223,-2.96224 4.677223,-2.96224 z"
         style="fill:#4a26d2;fill-opacity:1;fill-rule:evenodd;stroke:none;stroke-width:1px;stroke-linecap:butt;stroke-linejoin:miter;stroke-opacity:1" />
      <ellipse
         ry="2.4165652"
         rx="2.182704"
         cy="985.55585"
         cx="30.557856"
         id="path4354"
         style="opacity:1;fill:#d4513a;fill-opacity:1;stroke:none;stroke-width:2;stroke-linecap:round;stroke-linejoin:round;stroke-miterlimit:4;stroke-dasharray:none;stroke-opacity:1" />
      <ellipse
         ry="5.1449451"
         rx="4.8331304"
         cy="1027.417"
         cx="26.816078"
         id="path4356"
         style="opacity:1;fill:#d4513a;fill-opacity:1;stroke:none;stroke-width:2;stroke-linecap:round;stroke-linejoin:round;stroke-miterlimit:4;stroke-dasharray:none;stroke-opacity:1" />
      <ellipse
         ry="2.494519"
         rx="2.5724726"
         cy="1016.8152"
         cx="45.758831"
         id="path4358"
         style="opacity:1;fill:#d4513a;fill-opacity:1;stroke:none;stroke-width:2;stroke-linecap:round;stroke-linejoin:round;stroke-miterlimit:4;stroke-dasharray:none;stroke-opacity:1" />
      <ellipse
         ry="3.7417784"
         rx="3.819732"
         cy="1007.6168"
         cx="53.866016"
         id="path4360"
         style="opacity:1;fill:#d4513a;fill-opacity:1;stroke:none;stroke-width:2;stroke-linecap:round;stroke-linejoin:round;stroke-miterlimit:4;stroke-dasharray:none;stroke-opacity:1" />
      <ellipse
         ry="1.0133983"
         rx="1.1693057"
         cy="987.11493"
         cx="65.403168"
         id="path4362"
         style="opacity:1;fill:#d4513a;fill-opacity:1;stroke:none;stroke-width:2;stroke-linecap:round;stroke-linejoin:round;stroke-miterlimit:4;stroke-dasharray:none;stroke-opacity:1" />
      <ellipse
         ry="2.2606578"
         rx="2.0267966"
         cy="996.00165"
         cx="62.362972"
         id="path4364"
         style="opacity:1;fill:#d4513a;fill-opacity:1;stroke:none;stroke-width:2;stroke-linecap:round;stroke-linejoin:round;stroke-miterlimit:4;stroke-dasharray:none;stroke-opacity:1" />
      <circle
         r="1.1693057"
         cy="1006.9152"
         cx="89.568817"
         id="path4366"
         style="opacity:1;fill:#d4513a;fill-opacity:1;stroke:none;stroke-width:2;stroke-linecap:round;stroke-linejoin:round;stroke-miterlimit:4;stroke-dasharray:none;stroke-opacity:1" />
      <ellipse
         ry="2.1047504"
         rx="2.0267966"
         cy="1031.0808"
         cx="82.319122"
         id="path4368"
         style="opacity:1;fill:#d4513a;fill-opacity:1;stroke:none;stroke-width:2;stroke-linecap:round;stroke-linejoin:round;stroke-miterlimit:4;stroke-dasharray:none;stroke-opacity:1" />
      <ellipse
         ry="0.93544459"
         rx="0.85749084"
         cy="1014.6326"
         cx="105.62728"
         id="path4370"
         style="opacity:1;fill:#d4513a;fill-opacity:1;stroke:none;stroke-width:2;stroke-linecap:round;stroke-linejoin:round;stroke-miterlimit:4;stroke-dasharray:none;stroke-opacity:1" />
      <ellipse
         ry="5.222899"
         rx="5.1449451"
         cy="971.99188"
         cx="46.772228"
         id="path4372"
         style="opacity:1;fill:#d4513a;fill-opacity:1;stroke:none;stroke-width:2;stroke-linecap:round;stroke-linejoin:round;stroke-miterlimit:4;stroke-dasharray:none;stroke-opacity:1" />
      <circle
         r="2.0267966"
         cy="985.16608"
         cx="46.616322"
         id="path4374"
         style="opacity:1;fill:#d4513a;fill-opacity:1;stroke:none;stroke-width:2;stroke-linecap:round;stroke-linejoin:round;stroke-miterlimit:4;stroke-dasharray:none;stroke-opacity:1" />
      <ellipse
         ry="1.5197613"
         rx="1.7260617"
         cy="981.4101"
         cx="50.680996"
         id="path4376"
         style="opacity:1;fill:#d4513a;fill-opacity:1;stroke:none;stroke-width:2;stroke-linecap:round;stroke-linejoin:round;stroke-miterlimit:4;stroke-dasharray:none;stroke-opacity:1" />
      <ellipse
         ry="2.5724726"
         rx="2.494519"
         cy="955.77753"
         cx="62.830696"
         id="path4378"
         style="opacity:1;fill:#d4513a;fill-opacity:1;stroke:none;stroke-width:2;stroke-linecap:round;stroke-linejoin:round;stroke-miterlimit:4;stroke-dasharray:none;stroke-opacity:1" />
      <ellipse
         ry="3.1961024"
         rx="3.5079172"
         cy="964.82013"
         cx="108.43362"
         id="path4382"
         style="opacity:1;fill:#d4513a;fill-opacity:1;stroke:none;stroke-width:2;stroke-linecap:round;stroke-linejoin:round;stroke-miterlimit:4;stroke-dasharray:none;stroke-opacity:1" />
      <circle
         r="1.4031669"
         cy="948.68372"
         cx="81.539589"
         id="path4384"
         style="opacity:1;fill:#d4513a;fill-opacity:1;stroke:none;stroke-width:2;stroke-linecap:round;stroke-linejoin:round;stroke-miterlimit:4;stroke-dasharray:none;stroke-opacity:1" />
      <ellipse
         ry="2.2606578"
         rx="2.5724726"
         cy="937.84814"
         cx="88.009743"
         id="path4386"
         style="opacity:1;fill:#d4513a;fill-opacity:1;stroke:none;stroke-width:2;stroke-linecap:round;stroke-linejoin:round;stroke-miterlimit:4;stroke-dasharray:none;stroke-opacity:1" />
      <ellipse
         ry="3.5079172"
         rx="3.6638248"
         cy="954.53021"
         cx="111.23994"
         id="path4388"
         style="opacity:1;fill:#d4513a;fill-opacity:1;stroke:none;stroke-width:2;stroke-linecap:round;stroke-linejoin:round;stroke-miterlimit:4;stroke-dasharray:none;stroke-opacity:1" />
      <circle
         r="1.5590743"
         cy="962.55951"
         cx="99.313034"
         id="path4390"
         style="opacity:1;fill:#d4513a;fill-opacity:1;stroke:none;stroke-width:2;stroke-linecap:round;stroke-linejoin:round;stroke-miterlimit:4;stroke-dasharray:none;stroke-opacity:1" />
    </g>
  </g>
</svg>
