<?xml version="1.0" encoding="UTF-8" standalone="no"?>
<!-- Created with Inkscape (http://www.inkscape.org/) -->

<svg
   xmlns:dc="http://purl.org/dc/elements/1.1/"
   xmlns:cc="http://creativecommons.org/ns#"
   xmlns:rdf="http://www.w3.org/1999/02/22-rdf-syntax-ns#"
   xmlns:svg="http://www.w3.org/2000/svg"
   xmlns="http://www.w3.org/2000/svg"
   xmlns:sodipodi="http://sodipodi.sourceforge.net/DTD/sodipodi-0.dtd"
   xmlns:inkscape="http://www.inkscape.org/namespaces/inkscape"
   width="128"
   height="128"
   viewBox="0 0 128 128"
   id="svg2"
   version="1.1"
   inkscape:version="0.91 r13725"
   sodipodi:docname="tank_head.svg">
  <defs
     id="defs4" />
  <sodipodi:namedview
     id="base"
     pagecolor="#ffffff"
     bordercolor="#666666"
     borderopacity="1.0"
     inkscape:pageopacity="0.0"
     inkscape:pageshadow="2"
     inkscape:zoom="3.2070313"
     inkscape:cx="45.51203"
     inkscape:cy="100.77055"
     inkscape:document-units="px"
     inkscape:current-layer="layer1"
     showgrid="false"
     units="px"
     inkscape:window-width="1920"
     inkscape:window-height="1018"
     inkscape:window-x="-8"
     inkscape:window-y="-8"
     inkscape:window-maximized="1" />
  <metadata
     id="metadata7">
    <rdf:RDF>
      <cc:Work
         rdf:about="">
        <dc:format>image/svg+xml</dc:format>
        <dc:type
           rdf:resource="http://purl.org/dc/dcmitype/StillImage" />
        <dc:title></dc:title>
      </cc:Work>
    </rdf:RDF>
  </metadata>
  <g
     inkscape:label="Calque 1"
     inkscape:groupmode="layer"
     id="layer1"
     transform="translate(0,-924.36216)">
    <path
       style="opacity:1;fill:#bc8572;fill-opacity:1;stroke:none;stroke-width:2;stroke-linecap:round;stroke-linejoin:round;stroke-miterlimit:4;stroke-dasharray:none;stroke-opacity:1"
       d="m 71.279777,4.521827 c -4.156517,0.059686 -6.499726,2.962548 -7.045402,2.962548 -0.62363,0 -1.450178,-0.3217117 -4.256511,-1.2571617 -2.806334,-0.93544 -2.759625,0.4763586 -7.436848,1.5677086 -3.199524,0.7465542 -7.458691,3.6614961 -10.351563,5.7910161 -6.076144,2.724164 -11.617423,6.510727 -16.363281,11.18164 -1.95509,-0.06028 -3.848445,-0.291016 -4.623047,-0.291016 -1.559074,0 -1.558114,0.467924 -3.117187,1.871094 -1.559075,1.40316 -5.768709,10.603243 -7.171876,14.033203 -1.0020114,2.449368 0.0605,5.200624 0.978516,7.09375 -0.171812,1.432325 0.04489,2.38597 -1.002604,3.90473 -0.601175,0.480219 -1.3214071,1.452069 -1.5364584,2.097223 -0.6236297,1.870891 -2.8056128,6.859617 -2.3378906,14.966797 0.4677223,8.10718 1.4034737,6.236386 2.8066406,9.822266 0.7498224,1.916228 1.8029844,3.514262 2.6289064,4.902344 0.389562,1.102861 0.813598,2.19324 1.271484,3.269531 0.0058,2.027992 0.315702,5.11028 1.087891,8.353516 0.779537,3.274 13.408203,11.849604 13.408203,11.849604 l 0.150391,0.0215 c 10.187692,8.91671 23.262078,13.83851 36.800781,13.85351 3.755667,-0.0199 6.993098,-0.37873 10.669082,-1.14852 0.930748,0.45926 2.182187,0.77248 2.698774,0.99389 2.844163,0.71491 3.32097,-0.27118 4.344386,-0.48664 2.094621,-0.44097 8.323119,-3.10001 10.194008,-3.56771 1.870889,-0.4677 5.503689,-1.9195 6.705078,-2.96094 1.02282,-0.88665 1.10465,-2.26032 1.04102,-4.50021 0.52619,-1.71499 1.47658,-3.17017 2.41796,-3.33572 2.39509,-3.5e-4 3.01234,-0.2736 4.02344,-0.74024 2.0268,-0.9355 6.70484,-6.236024 7.48438,-7.015624 0.77954,-0.7795 3.89692,-7.794912 4.98828,-10.445312 0.82426,-2.001762 -0.30267,-5.412348 -0.90625,-6.96875 0.12229,-0.454891 0.23884,-0.911308 0.34961,-1.369141 0.69328,-0.546977 2.49439,-1.969851 3.67578,-2.888672 1.40317,-1.09137 0.62373,-4.675645 0.93555,-6.390625 0.31181,-1.71498 -0.62373,-3.899321 -0.93555,-6.082031 -0.13162,-0.921361 -1.19252,-3.877245 -2.32813,-6.914063 -0.51397,-3.609581 -1.37941,-7.160304 -2.58398,-10.601562 0.33987,-1.06596 0.70747,-2.319057 0.85742,-3.21875 0.31182,-1.87089 -1.71392,-5.925062 -2.18164,-8.263672 -0.46772,-2.33861 -5.61276,-7.483072 -9.82226,-10.445312 -4.2095,-2.96224 -6.23633,-3.585938 -6.23633,-3.585938 0,0 -0.2756,-2.421112 -0.624219,-3.118353 C 99.410143,16.409349 97.910156,15.12339 95.727452,13.2525 93.544748,11.38161 88.400084,9.1980919 85.59375,7.7949219 82.787416,6.3917519 82.375202,5.8277373 76.460222,4.8339844 74.451864,4.496568 71.873565,4.5133004 71.279777,4.521827 Z"
       transform="translate(0,924.36216)"
       id="path4136"
       inkscape:connector-curvature="0"
       sodipodi:nodetypes="ssssccsssccsssccscccccsssccccscccssccssscsssss" />
    <path
       style="opacity:1;fill:#ca6f58;fill-opacity:1;stroke:none;stroke-width:2;stroke-linecap:round;stroke-linejoin:round;stroke-miterlimit:4;stroke-dasharray:none;stroke-opacity:1"
       d="M 38.970703 67.917969 A 5.677525 4.7404575 0 0 0 34.455078 69.792969 A 4.0238767 4.6853361 0 0 0 33.238281 69.570312 A 4.0238767 4.6853361 0 0 0 29.978516 71.517578 A 6.7799568 6.7248354 0 0 0 26.513672 70.5625 A 6.7799568 6.7248354 0 0 0 21.667969 72.59375 A 5.5672817 4.2443633 0 0 0 20.890625 72.546875 A 5.5672817 4.2443633 0 0 0 15.529297 75.660156 A 6.338984 6.4492273 0 0 0 13.173828 75.193359 A 6.338984 6.4492273 0 0 0 9.0722656 76.726562 C 9.3067659 77.12152 9.5534511 77.578653 9.8222656 78.265625 C 10.572088 80.181853 11.62525 81.779887 12.451172 83.167969 C 12.840734 84.27083 13.26477 85.361209 13.722656 86.4375 C 13.724033 86.918937 13.745433 87.468321 13.783203 88.056641 C 13.783446 88.060312 13.784912 88.064685 13.785156 88.068359 C 13.82218 88.624316 13.877588 89.226349 13.949219 89.853516 C 13.953296 89.889211 13.954793 89.919189 13.958984 89.955078 A 4.4097281 5.5121598 0 0 0 14.220703 89.966797 A 4.4097281 5.5121598 0 0 0 18.404297 86.183594 A 5.1814303 5.071187 0 0 0 22.726562 82.863281 A 6.7799568 6.7248354 0 0 0 26.513672 84.013672 A 6.7799568 6.7248354 0 0 0 28.693359 83.646484 A 6.7248354 6.1184978 0 0 0 34.617188 86.878906 A 6.7248354 6.1184978 0 0 0 41.341797 80.761719 A 6.7248354 6.1184978 0 0 0 40.146484 77.291016 A 5.677525 4.7404575 0 0 0 44.648438 72.658203 A 5.677525 4.7404575 0 0 0 38.970703 67.917969 z "
       transform="translate(0,924.36216)"
       id="path4232" />
    <path
       style="fill:#6554a4;fill-opacity:1;fill-rule:evenodd;stroke:none;stroke-width:1px;stroke-linecap:butt;stroke-linejoin:miter;stroke-opacity:1"
       d="m 38.470703,71.408203 c -0.48565,-0.01073 -0.955977,0.07473 -1.365234,0.308594 -2.182704,1.24726 -4.053523,3.742187 -5.300781,3.742187 -1.247261,0 -6.39244,-0.623387 -8.107422,-0.779296 -1.714981,-0.15591 -6.080523,0.312023 -7.171875,1.871093 -1.091352,1.5591 -1.246197,2.338988 -2.181641,3.742188 -0.935445,1.4032 -0.46851,2.02644 -1.248047,2.49414 -0.779537,0.4677 -1.246436,1.091944 -1.402344,2.027344 -0.155907,0.9354 0.295138,1.871553 0.763672,2.064453 0.468533,0.193 1.417969,0.740235 1.417969,0.740235 0,0 0.780427,-5.456875 2.183594,-7.171875 1.403167,-1.715 4.052493,-3.740585 4.832031,-3.896485 0.779537,-0.1559 3.74342,-9.03e-4 6.082031,0.466797 0.134736,0.02695 0.285464,0.04653 0.427735,0.07031 0.229102,0.640946 1.024225,2.198495 1.716112,2.502963 0.97442,0.4287 3.701771,0.390182 4.598239,1.910329 0.886564,1.503272 0.974658,1.247564 2.728617,1.559364 1.753958,0.3119 3.390625,-0.03906 3.390625,-0.03906 0,0 -3.040518,-0.546096 -3.703125,-1.091796 -0.662607,-0.545701 -1.089349,-1.678953 -1.675883,-2.065909 -1.831912,-1.208222 -3.663206,-0.935491 -4.208882,-1.559091 -0.236506,-0.270323 -0.449516,-0.646273 -0.625,-0.990235 1.811276,0.07667 3.591762,-0.0914 4.210937,-0.607422 0.935445,-0.7795 1.559039,-2.18267 2.650391,-2.65039 1.091352,-0.46772 4.521929,-1.871677 5.613281,-1.248047 0.886724,0.506699 -1.520516,-1.353878 -3.625,-1.400391 z"
       transform="translate(0,924.36216)"
       id="path4149"
       inkscape:connector-curvature="0"
       sodipodi:nodetypes="ssssssssccssccccccsccccsss" />
    <path
       style="opacity:1;fill:#ca6f58;fill-opacity:1;stroke:none;stroke-width:2;stroke-linecap:round;stroke-linejoin:round;stroke-miterlimit:4;stroke-dasharray:none;stroke-opacity:1"
       d="M 68.910156 88.244141 A 5.1449451 4.5992694 0 0 0 63.765625 92.84375 A 5.1449451 4.5992694 0 0 0 66.767578 97.017578 A 4.7551765 4.3654079 0 0 0 66.841797 97.429688 A 5.0669913 4.131547 0 0 0 64.701172 100.79492 A 5.0669913 4.131547 0 0 0 66.019531 103.56641 A 5.0669913 5.8465285 0 0 0 63.322266 108.21094 A 6.0024362 5.5347137 0 0 0 58.542969 106.01758 A 6.0024362 5.5347137 0 0 0 55.976562 106.55469 A 5.8465285 5.4567599 0 0 0 50.90625 103.2207 A 3.4726608 3.2521744 0 0 0 47.458984 100.32812 A 3.4726608 3.2521744 0 0 0 43.986328 103.58203 A 3.4726608 3.2521744 0 0 0 45.386719 106.18555 A 5.8465285 5.4567599 0 0 0 44.746094 108.66797 A 5.8465285 5.4567599 0 0 0 50.591797 114.125 A 5.8465285 5.4567599 0 0 0 52.988281 113.63867 A 6.0024362 5.5347137 0 0 0 58.542969 117.08594 A 6.0024362 5.5347137 0 0 0 60.220703 116.86328 A 10.133983 7.7174177 0 0 0 60.179688 117.47656 A 10.133983 7.7174177 0 0 0 60.910156 120.33594 C 62.323486 120.44539 63.743449 120.51405 65.169922 120.51562 C 68.925589 120.49573 72.16386 120.13698 75.839844 119.36719 C 76.770592 119.82645 78.020522 120.13992 78.537109 120.36133 C 78.933948 120.46108 79.277265 120.52227 79.589844 120.5625 A 10.133983 7.7174177 0 0 0 80.447266 117.47656 A 10.133983 7.7174177 0 0 0 73.289062 110.09961 A 5.0669913 5.8465285 0 0 0 73.431641 108.74609 A 5.0669913 5.8465285 0 0 0 71.880859 104.54492 A 5.0669913 4.131547 0 0 0 74.835938 100.79492 A 5.0669913 4.131547 0 0 0 74.666016 99.744141 A 4.7551765 4.3654079 0 0 0 76.238281 96.505859 A 4.7551765 4.3654079 0 0 0 74.056641 92.841797 A 5.1449451 4.5992694 0 0 0 68.910156 88.244141 z "
       transform="translate(0,924.36216)"
       id="path4258" />
    <path
       style="fill:#6554a4;fill-opacity:1;fill-rule:evenodd;stroke:none;stroke-width:1px;stroke-linecap:butt;stroke-linejoin:miter;stroke-opacity:1"
       d="m 70.335938,91.179688 c 0,0 1.101345,4.409115 0.880859,5.291015 -0.220487,0.882 -2.094183,2.205369 -2.535156,3.417969 -0.440973,1.212698 -0.77105,3.306628 -1.322266,4.298828 -0.551216,0.9922 -1.544489,2.31443 -1.103516,4.29883 0.440973,1.9844 2.204861,3.96946 2.976563,4.63086 0.542687,0.46519 1.036039,0.77737 1.623047,1.29883 -1.238599,-0.14308 -3.485112,-0.41498 -5.150391,-0.74805 -2.204864,-0.4409 -2.977428,-1.10175 -4.851562,-2.31445 -1.874134,-1.2126 -2.97591,-1.3234 -4.298828,-1.4336 -1.322919,-0.1103 -5.181205,-0.44077 -6.72461,-1.76367 -1.543405,-1.3229 -1.984375,-3.41797 -1.984375,-3.41797 0,0 -0.330516,4.63043 3.197266,6.17383 3.527782,1.5434 3.19726,-0.22073 7.166015,1.76367 3.968755,1.9843 3.417531,2.31557 5.953125,3.41797 1.866004,0.81128 5.700193,0.62683 8.2503,0.5332 0.903735,1.55838 1.496179,3.20169 1.496179,3.20169 0,0 0.608976,0.59445 1.737853,0.53129 1.041845,-0.0583 1.17902,-0.93199 1.17902,-0.93199 0,0 -1.242945,-4.31261 -2.520773,-5.53927 -1.063455,-1.40196 -4.833507,-3.08986 -5.512153,-5.18143 -0.537174,-1.65555 -2.2e-4,-4.07942 1.322699,-7.16622 1.322918,-3.086804 3.96745,-2.865201 2.644532,-5.841801 -1.322919,-2.9766 -2.423828,-4.519531 -2.423828,-4.519531 z"
       transform="translate(0,924.36216)"
       id="path4154"
       inkscape:connector-curvature="0"
       sodipodi:nodetypes="cccsscccccscscsccsccsssc" />
    <path
       style="opacity:1;fill:#ca6f58;fill-opacity:1;stroke:none;stroke-width:2;stroke-linecap:round;stroke-linejoin:round;stroke-miterlimit:4;stroke-dasharray:none;stroke-opacity:1"
       d="M 86.683594 86.373047 A 5.7685747 5.8465285 0 0 0 80.916016 92.21875 A 5.7685747 5.8465285 0 0 0 86.683594 98.066406 A 5.7685747 5.8465285 0 0 0 87.859375 97.9375 A 5.9244823 6.7040195 0 0 0 93.701172 103.52344 A 5.9244823 6.7040195 0 0 0 94.044922 103.50977 A 7.7953715 8.4969549 0 0 0 94.011719 104.22461 A 7.7953715 8.4969549 0 0 0 100.38867 112.57422 C 100.8357 111.70957 100.86982 110.51972 100.82227 108.8457 C 101.34846 107.13071 102.29885 105.67532 103.24023 105.50977 C 105.63532 105.50942 106.25257 105.23617 107.26367 104.76953 C 107.8472 104.5002 108.6567 103.85317 109.52344 103.07227 A 7.7953715 8.4969549 0 0 0 101.80664 95.726562 A 7.7953715 8.4969549 0 0 0 99.582031 96.087891 A 5.9244823 6.7040195 0 0 0 93.701172 90.115234 A 5.9244823 6.7040195 0 0 0 92.142578 90.351562 A 5.7685747 5.8465285 0 0 0 86.683594 86.373047 z "
       transform="translate(0,924.36216)"
       id="path4276" />
    <path
       style="fill:#6554a4;fill-rule:evenodd;stroke:none;stroke-width:1px;stroke-linecap:butt;stroke-linejoin:miter;stroke-opacity:1;fill-opacity:1"
       d="m 100.56029,1032.406 c 0,0 1.55908,0.4677 2.18271,-0.7795 0.62363,-1.2473 1.55907,-4.8332 0.31181,-5.4568 -1.24726,-0.6236 -3.429962,0.7796 -5.612666,-2.0268 -2.182704,-2.8063 -0.311815,-0.3118 -2.806334,-4.6772 -2.494519,-4.3654 -9.978076,-3.8977 -9.978076,-3.8977 0,0 4.677223,2.3386 6.236298,3.43 1.559074,1.0913 4.053593,4.2095 4.2095,5.9245 0.155908,1.7149 0.779537,2.9622 1.870889,3.8976 1.091352,0.9355 3.741779,-0.6236 3.741779,0.3119 0,0.9354 -0.15591,3.274 -0.15591,3.274 z"
       id="path4159"
       inkscape:connector-curvature="0" />
    <path
       style="opacity:1;fill:#ca6f58;fill-opacity:1;stroke:none;stroke-width:2;stroke-linecap:round;stroke-linejoin:round;stroke-miterlimit:4;stroke-dasharray:none;stroke-opacity:1"
       d="M 81.033203 35.46875 A 4.0146165 3.7028015 0 0 0 77.017578 39.171875 A 4.0146165 3.7028015 0 0 0 77.953125 41.541016 A 8.5749083 8.8087702 0 0 0 77.546875 43.351562 A 8.8087702 8.6528625 0 0 0 75.849609 43.185547 A 8.8087702 8.6528625 0 0 0 72.433594 43.863281 A 3.3520098 3.0791717 0 0 0 70.236328 43.109375 A 3.3520098 3.0791717 0 0 0 66.884766 46.1875 A 3.3520098 3.0791717 0 0 0 67.816406 48.316406 A 8.8087702 8.6528625 0 0 0 67.041016 51.839844 A 8.8087702 8.6528625 0 0 0 73.775391 60.240234 A 3.1181486 2.3386114 0 0 0 73.277344 61.505859 A 3.1181486 2.3386114 0 0 0 73.837891 62.839844 A 8.7308159 7.8733253 0 0 0 66.884766 70.548828 A 8.7308159 7.8733253 0 0 0 75.615234 78.421875 A 8.7308159 7.8733253 0 0 0 83.765625 73.341797 A 18.241169 16.760048 0 0 0 95.570312 77.330078 A 18.241169 16.760048 0 0 0 103.34375 75.712891 A 11.069427 12.082826 0 0 0 114.125 85.125 A 11.069427 12.082826 0 0 0 119.76562 83.421875 C 119.50762 82.211829 119.11337 81.070344 118.83008 80.339844 C 118.95237 79.884953 119.06892 79.428536 119.17969 78.970703 C 119.87297 78.423726 121.67408 77.000852 122.85547 76.082031 C 124.25864 74.990661 123.4792 71.406386 123.79102 69.691406 C 123.95353 68.797541 123.77565 67.773596 123.52539 66.691406 A 11.069427 12.082826 0 0 0 114.125 60.958984 A 11.069427 12.082826 0 0 0 113.79102 60.972656 A 18.241169 16.760048 0 0 0 113.8125 60.570312 A 18.241169 16.760048 0 0 0 95.570312 43.810547 A 18.241169 16.760048 0 0 0 94.619141 43.839844 A 8.5749083 8.8087702 0 0 0 86.060547 35.546875 A 8.5749083 8.8087702 0 0 0 83.205078 36.0625 A 4.0146165 3.7028015 0 0 0 81.033203 35.46875 z "
       transform="translate(0,924.36216)"
       id="path4286" />
    <path
       style="fill:#6554a4;fill-opacity:1;fill-rule:evenodd;stroke:none;stroke-width:1px;stroke-linecap:butt;stroke-linejoin:miter;stroke-opacity:1"
       d="m 80.462373,38.5948 c 0,0 2.969589,2.208037 4.180641,4.705801 0.490492,1.011627 1.18044,2.001855 1.481986,3.549039 0.292064,1.498536 0.329377,5.160153 -0.166016,5.791019 -0.891557,-0.731093 -3.645492,-1.049869 -5.036895,-1.12717 -2.806334,-0.1559 -9.828339,-4.116971 -9.828339,-4.116971 0,0 5.300506,6.860065 8.730469,7.171875 3.429964,0.31181 4.677596,-0.0011 6.392578,2.181641 1.714981,2.1827 1.482891,2.377002 2.942707,3.567708 0.610581,0.498024 1.736433,1.111128 2.578777,1.633464 -0.260878,0.397537 -0.288552,1.199337 -1.384331,2.538628 -1.403167,1.71498 -3.357718,1.614406 -5.0727,1.926216 -1.714982,0.31182 -5.300745,0.312257 -7.951172,1.091796 -2.650426,0.779531 -6.392578,7.171876 -6.392578,7.171876 0,0 3.816325,-1.899915 5.063585,-3.458985 1.247259,-1.55908 5.205436,-2.114955 7.098524,-1.998047 2.091375,0.129153 6.06423,0.446469 9.261719,-1.670574 2.38043,-1.576071 3.740535,-2.638254 4.107422,-3.63216 0.01221,1.34e-4 0.02494,0.002 0.03711,0.002 2.338612,0 6.29457,-0.144952 8.00955,0.946398 1.71498,1.09135 4.30858,2.794963 5.08811,4.198133 0.77954,1.40317 2.33857,3.118665 2.65039,4.677735 0.31181,1.55908 4.05273,4.833984 4.05273,4.833984 0,0 1.8713,1.713335 2.65084,2.044638 0.3313,0.07795 1.53969,0.449689 1.85151,-1.128922 0.21147,-1.070614 -0.44875,-2.163977 -4.50235,-6.685247 -4.05359,-4.52132 -3.71484,-5.280205 -5.08962,-7.17947 -0.48555,-0.670775 -1.51517,-1.725035 -1.90061,-2.150608 -0.86137,-2.250603 -0.93124,-3.461603 -2.20703,-4.857422 -0.89924,-0.835465 -8.107426,-5.144532 -8.107426,-5.144532 0,0 1.010396,2.791833 3.916666,4.593316 2.1909,1.358052 1.55618,2.549799 2.35482,3.559028 -0.31665,-0.06764 -0.59765,-0.129144 -0.97071,-0.201172 -5.273286,-1.018132 -3.89802,0.59481 -9.042963,-1.58789 C 91.30853,58.163637 90.295549,57.532706 89.333985,56.3243 l 0,-1.75586 c 0,0 0.157518,-4.053861 -0.154296,-5.457031 -0.311816,-1.40317 -0.787234,-3.851141 -1.714844,-5.300781 C 86.870649,42.882036 86.455096,41.107792 84.330858,39.724112 82.306532,38.641176 82.104171,38.7858 80.462373,38.5948 Z"
       transform="translate(0,924.36216)"
       id="path4165"
       inkscape:connector-curvature="0"
       sodipodi:nodetypes="csscscssscssscssscssssccssscccscssccsscc" />
    <path
       style="opacity:1;fill:#ca6f58;fill-opacity:1;stroke:none;stroke-width:2;stroke-linecap:round;stroke-linejoin:round;stroke-miterlimit:4;stroke-dasharray:none;stroke-opacity:1"
       d="M 12.015625 45.097656 A 4.6302142 5.8428898 0 0 0 10.986328 45.25 C 11.246866 46.060875 11.575482 46.820697 11.892578 47.474609 C 11.720766 48.906934 11.938119 49.860146 10.890625 51.378906 C 10.28945 51.859125 9.5685669 52.831409 9.3535156 53.476562 C 9.2250021 53.862103 9.005293 54.464882 8.78125 55.115234 A 4.6302142 5.8428898 0 0 0 9.8671875 56.111328 A 4.9609442 6.2838626 0 0 0 9.8125 57.003906 A 4.9609442 6.2838626 0 0 0 14.773438 63.287109 A 4.9609442 6.2838626 0 0 0 15.0625 63.273438 A 4.7955794 3.4726608 0 0 0 19.789062 66.154297 A 4.7955794 3.4726608 0 0 0 24.583984 62.681641 A 4.7955794 3.4726608 0 0 0 19.789062 59.208984 A 4.7955794 3.4726608 0 0 0 19.408203 59.220703 A 4.9609442 6.2838626 0 0 0 19.734375 57.003906 A 4.9609442 6.2838626 0 0 0 16.636719 51.183594 A 4.6302142 5.8428898 0 0 0 16.646484 50.939453 A 4.6302142 5.8428898 0 0 0 12.015625 45.097656 z "
       transform="translate(0,924.36216)"
       id="path4341" />
    <path
       style="fill:#6554a4;fill-opacity:1;fill-rule:evenodd;stroke:none;stroke-width:1px;stroke-linecap:butt;stroke-linejoin:miter;stroke-opacity:1"
       d="m 11.611186,971.50132 c 0,0 -1.6148275,0.40157 -1.56772,1.98979 0.04603,1.55206 0.714147,2.3205 0.714147,2.3205 0,0 2.494519,1.40317 2.494519,2.96224 0,1.55908 -1.403167,2.80634 0.467722,5.14495 1.870889,2.33861 9.198538,4.83313 9.198538,4.83313 0,0 -4.989038,-2.65043 -5.612667,-5.14495 -0.62363,-2.49451 -0.62363,-5.92448 -1.559075,-7.17174 -0.935444,-1.24726 -2.026796,-0.93544 -2.182704,-2.80633 -0.155907,-1.87089 -1.95276,-2.12759 -1.95276,-2.12759 z"
       id="path4174"
       inkscape:connector-curvature="0"
       sodipodi:nodetypes="cscsscsssc" />
    <path
       style="opacity:1;fill:#ca6f58;fill-opacity:1;stroke:none;stroke-width:2;stroke-linecap:round;stroke-linejoin:round;stroke-miterlimit:4;stroke-dasharray:none;stroke-opacity:1"
       d="M 28.617188 22.220703 C 27.662588 23.041044 26.725427 23.882524 25.826172 24.767578 C 23.871082 24.707298 21.977727 24.476562 21.203125 24.476562 C 19.847975 24.476562 19.617137 24.870835 18.570312 25.884766 A 6.0082545 5.9531326 0 0 0 18.521484 26.576172 A 6.0082545 5.9531326 0 0 0 23.0625 32.341797 A 5.1263089 6.6697135 0 0 0 22.269531 35.892578 A 5.1263089 6.6697135 0 0 0 26.210938 42.373047 A 4.1892414 4.9609442 0 0 0 25.90625 44.214844 A 4.1892414 4.9609442 0 0 0 30.095703 49.175781 A 4.1892414 4.9609442 0 0 0 34.285156 44.214844 A 4.1892414 4.9609442 0 0 0 31.648438 39.611328 A 5.1263089 6.6697135 0 0 0 32.521484 35.892578 A 5.1263089 6.6697135 0 0 0 32.513672 35.605469 A 6.5043488 4.3546066 0 0 0 32.851562 35.617188 A 6.5043488 4.3546066 0 0 0 36.482422 34.871094 A 3.8585119 3.5277824 0 0 0 39.466797 36.167969 A 3.8585119 3.5277824 0 0 0 43.326172 32.638672 A 3.8585119 3.5277824 0 0 0 39.466797 29.111328 A 3.8585119 3.5277824 0 0 0 38.583984 29.210938 A 6.5043488 4.3546066 0 0 0 32.851562 26.90625 A 6.5043488 4.3546066 0 0 0 30.503906 27.201172 A 6.0082545 5.9531326 0 0 0 30.537109 26.576172 A 6.0082545 5.9531326 0 0 0 28.617188 22.220703 z "
       transform="translate(0,924.36216)"
       id="path4327" />
    <path
       style="fill:#6554a4;fill-opacity:1;fill-rule:evenodd;stroke:none;stroke-width:1px;stroke-linecap:butt;stroke-linejoin:miter;stroke-opacity:1"
       d="m 24.691577,22.958085 c -1.213448,0.558678 -1.530835,1.197839 -1.773608,2.454024 0,0 -0.934999,2.339358 1.091797,3.898438 0.822118,0.632397 1.643364,1.156124 2.455078,1.5625 -0.481214,0.526868 -0.960168,1.614153 -1.208642,2.743584 -0.214373,0.97442 -0.999615,2.316314 0.487211,4.873647 0.974422,1.676001 3.410884,2.201089 3.410884,4.851519 l 0,4.210937 c 0,0 2.689266,-6.178312 1.286099,-7.737382 -1.403167,-1.55908 -3.157193,-1.14989 -3.157193,-3.17668 0,-2.0268 0.311917,-3.273544 0.935547,-4.208984 0.556154,-0.846374 1.173487,-1.126614 2.431425,-1.341581 1.870889,0 3.423533,-0.609523 5.556423,0.275608 3.557607,1.476377 5.109808,1.845269 5.109808,1.845269 0,0 -4.619131,-4.230193 -6.334113,-4.386093 -1.714981,-0.15591 -3.704099,0.254718 -4.639544,0.410628 -0.935445,0.1559 -4.713612,-0.60044 -4.812442,-2.008781 -0.155906,-2.221684 1.363025,-3.468424 1.363025,-3.468424 0,0 -0.506261,-1.051576 -2.201755,-0.798229 z"
       transform="translate(0,924.36216)"
       id="path4176"
       inkscape:connector-curvature="0"
       sodipodi:nodetypes="ccscssscssccscscscc" />
    <path
       style="opacity:1;fill:#ca6f58;fill-opacity:1;stroke:none;stroke-width:2;stroke-linecap:round;stroke-linejoin:round;stroke-miterlimit:4;stroke-dasharray:none;stroke-opacity:1"
       d="M 67.03125 5.6738281 C 65.49525 6.507136 64.551679 7.484375 64.234375 7.484375 C 63.610745 7.484375 62.784849 7.1620125 59.978516 6.2265625 C 57.357793 5.3529928 57.174644 6.5244104 53.359375 7.5722656 A 10.197496 5.9531326 0 0 0 51.738281 10.408203 A 7.8272672 5.3467951 0 0 0 44.757812 15.716797 A 7.8272672 5.3467951 0 0 0 44.958984 16.886719 A 4.7955794 4.8507009 0 0 0 42.773438 20.953125 A 4.7955794 4.8507009 0 0 0 44.634766 24.783203 A 4.4648495 4.6853361 0 0 0 44.427734 26.189453 A 4.4648495 4.6853361 0 0 0 48.892578 30.875 A 4.4648495 4.6853361 0 0 0 53.357422 26.189453 A 4.4648495 4.6853361 0 0 0 51.992188 22.826172 A 4.7955794 4.8507009 0 0 0 52.359375 21.056641 A 7.8272672 5.3467951 0 0 0 52.585938 21.064453 A 7.8272672 5.3467951 0 0 0 60.279297 16.681641 A 10.197496 5.9531326 0 0 0 61.902344 16.763672 A 10.197496 5.9531326 0 0 0 72.099609 10.810547 A 10.197496 5.9531326 0 0 0 67.03125 5.6738281 z "
       transform="translate(0,924.36216)"
       id="path4315" />
    <path
       style="fill:#6554a4;fill-opacity:1;fill-rule:evenodd;stroke:none;stroke-width:1px;stroke-linecap:butt;stroke-linejoin:miter;stroke-opacity:1"
       d="m 61.544458,931.00771 c 0,0 0.394272,-1.56166 2.065773,-1.65651 1.272393,-0.0722 2.650427,0.62363 2.806334,1.87089 0.155908,1.24726 1.041254,4.87916 -1.559074,5.61266 -1.788591,0.50453 -4.521316,0.31182 -5.768575,0.46773 -1.247259,0.1559 -2.143727,1.16931 -3.936662,1.676 -1.060885,0.29981 -3.858709,1.0134 -4.872108,2.80634 -1.528544,2.70434 -1.909865,3.50791 -2.065773,4.59927 -0.155907,1.09135 -0.779537,4.56029 -0.779537,4.56029 0,0 -1.325597,-1.97907 -1.325213,-5.10597 2.66e-4,-2.17326 1.286236,-3.5469 2.377588,-4.95006 1.091352,-1.40317 2.182704,-3.27406 3.741778,-4.2095 1.559074,-0.93545 3.585871,-2.18271 5.612668,-2.33861 2.026796,-0.15591 2.806333,0 3.58587,-0.46773 0.779538,-0.46772 0.116927,-2.8648 0.116931,-2.8648 z"
       id="path4180"
       inkscape:connector-curvature="0"
       sodipodi:nodetypes="cssssssscsssssc" />
    <path
       style="opacity:1;fill:#ca6f58;fill-opacity:1;stroke:none;stroke-width:2;stroke-linecap:round;stroke-linejoin:round;stroke-miterlimit:4;stroke-dasharray:none;stroke-opacity:1"
       d="M 97.675781 14.955078 A 6.8902001 6.0082545 0 0 0 91.810547 19.980469 A 4.2994847 3.8585119 0 0 0 91.392578 19.960938 A 4.2994847 3.8585119 0 0 0 87.091797 23.820312 A 4.2994847 3.8585119 0 0 0 91.392578 27.677734 A 4.2994847 3.8585119 0 0 0 94.951172 25.980469 A 6.8902001 6.0082545 0 0 0 98.613281 26.90625 A 6.8902001 6.0082545 0 0 0 105.06445 23 C 102.04082 21.046309 100.56055 20.580078 100.56055 20.580078 C 100.56055 20.580078 100.28417 18.158178 99.935547 17.460938 C 99.588681 16.7672 98.785595 15.952464 97.675781 14.955078 z "
       transform="translate(0,924.36216)"
       id="path4307" />
    <path
       style="fill:#6554a4;fill-rule:evenodd;stroke:none;stroke-width:1px;stroke-linecap:butt;stroke-linejoin:miter;stroke-opacity:1;fill-opacity:1"
       d="m 100.09257,942.75924 c 0,0 1.71498,0 2.65043,0.93544 0.93544,0.93545 1.09135,3.11815 1.09135,3.11815 0,0 -2.18271,1.55907 -4.209502,1.55907 -2.026797,0 -3.118149,-0.31181 -6.548112,-0.46772 -3.429964,-0.15591 -4.053593,0 -4.053593,0 0,0 4.365408,-2.1827 6.392204,-2.1827 2.026797,0 4.677223,-2.96224 4.677223,-2.96224 z"
       id="path4182"
       inkscape:connector-curvature="0" />
    <ellipse
       style="opacity:1;fill:#ca6f58;fill-opacity:1;stroke:none;stroke-width:2;stroke-linecap:round;stroke-linejoin:round;stroke-miterlimit:4;stroke-dasharray:none;stroke-opacity:1"
       id="path4354"
       cx="30.557856"
       cy="985.55585"
       rx="2.182704"
       ry="2.4165652" />
    <ellipse
       style="opacity:1;fill:#ca6f58;fill-opacity:1;stroke:none;stroke-width:2;stroke-linecap:round;stroke-linejoin:round;stroke-miterlimit:4;stroke-dasharray:none;stroke-opacity:1"
       id="path4356"
       cx="26.816078"
       cy="1027.417"
       rx="4.8331304"
       ry="5.1449451" />
    <ellipse
       style="opacity:1;fill:#ca6f58;fill-opacity:1;stroke:none;stroke-width:2;stroke-linecap:round;stroke-linejoin:round;stroke-miterlimit:4;stroke-dasharray:none;stroke-opacity:1"
       id="path4358"
       cx="45.758831"
       cy="1016.8152"
       rx="2.5724726"
       ry="2.494519" />
    <ellipse
       style="opacity:1;fill:#ca6f58;fill-opacity:1;stroke:none;stroke-width:2;stroke-linecap:round;stroke-linejoin:round;stroke-miterlimit:4;stroke-dasharray:none;stroke-opacity:1"
       id="path4360"
       cx="53.866016"
       cy="1007.6168"
       rx="3.819732"
       ry="3.7417784" />
    <ellipse
       style="opacity:1;fill:#ca6f58;fill-opacity:1;stroke:none;stroke-width:2;stroke-linecap:round;stroke-linejoin:round;stroke-miterlimit:4;stroke-dasharray:none;stroke-opacity:1"
       id="path4362"
       cx="65.403168"
       cy="987.11493"
       rx="1.1693057"
       ry="1.0133983" />
    <ellipse
       style="opacity:1;fill:#ca6f58;fill-opacity:1;stroke:none;stroke-width:2;stroke-linecap:round;stroke-linejoin:round;stroke-miterlimit:4;stroke-dasharray:none;stroke-opacity:1"
       id="path4364"
       cx="62.362972"
       cy="996.00165"
       rx="2.0267966"
       ry="2.2606578" />
    <circle
       style="opacity:1;fill:#ca6f58;fill-opacity:1;stroke:none;stroke-width:2;stroke-linecap:round;stroke-linejoin:round;stroke-miterlimit:4;stroke-dasharray:none;stroke-opacity:1"
       id="path4366"
       cx="89.568817"
       cy="1006.9152"
       r="1.1693057" />
    <ellipse
       style="opacity:1;fill:#ca6f58;fill-opacity:1;stroke:none;stroke-width:2;stroke-linecap:round;stroke-linejoin:round;stroke-miterlimit:4;stroke-dasharray:none;stroke-opacity:1"
       id="path4368"
       cx="82.319122"
       cy="1031.0808"
       rx="2.0267966"
       ry="2.1047504" />
    <ellipse
       style="opacity:1;fill:#ca6f58;fill-opacity:1;stroke:none;stroke-width:2;stroke-linecap:round;stroke-linejoin:round;stroke-miterlimit:4;stroke-dasharray:none;stroke-opacity:1"
       id="path4370"
       cx="105.62728"
       cy="1014.6326"
       rx="0.85749084"
       ry="0.93544459" />
    <ellipse
       style="opacity:1;fill:#ca6f58;fill-opacity:1;stroke:none;stroke-width:2;stroke-linecap:round;stroke-linejoin:round;stroke-miterlimit:4;stroke-dasharray:none;stroke-opacity:1"
       id="path4372"
       cx="46.772228"
       cy="971.99188"
       rx="5.1449451"
       ry="5.222899" />
    <circle
       style="opacity:1;fill:#ca6f58;fill-opacity:1;stroke:none;stroke-width:2;stroke-linecap:round;stroke-linejoin:round;stroke-miterlimit:4;stroke-dasharray:none;stroke-opacity:1"
       id="path4374"
       cx="46.616322"
       cy="985.16608"
       r="2.0267966" />
    <ellipse
       style="opacity:1;fill:#ca6f58;fill-opacity:1;stroke:none;stroke-width:2;stroke-linecap:round;stroke-linejoin:round;stroke-miterlimit:4;stroke-dasharray:none;stroke-opacity:1"
       id="path4376"
       cx="50.680996"
       cy="981.4101"
       rx="1.7260617"
       ry="1.5197613" />
    <ellipse
       style="opacity:1;fill:#ca6f58;fill-opacity:1;stroke:none;stroke-width:2;stroke-linecap:round;stroke-linejoin:round;stroke-miterlimit:4;stroke-dasharray:none;stroke-opacity:1"
       id="path4378"
       cx="62.830696"
       cy="955.77753"
       rx="2.494519"
       ry="2.5724726" />
    <ellipse
       style="opacity:1;fill:#ca6f58;fill-opacity:1;stroke:none;stroke-width:2;stroke-linecap:round;stroke-linejoin:round;stroke-miterlimit:4;stroke-dasharray:none;stroke-opacity:1"
       id="path4380"
       cx="57.607796"
       cy="948.76166"
       rx="1.3252132"
       ry="1.0133983" />
    <ellipse
       style="opacity:1;fill:#ca6f58;fill-opacity:1;stroke:none;stroke-width:2;stroke-linecap:round;stroke-linejoin:round;stroke-miterlimit:4;stroke-dasharray:none;stroke-opacity:1"
       id="path4382"
       cx="108.43362"
       cy="964.82013"
       rx="3.5079172"
       ry="3.1961024" />
    <circle
       style="opacity:1;fill:#ca6f58;fill-opacity:1;stroke:none;stroke-width:2;stroke-linecap:round;stroke-linejoin:round;stroke-miterlimit:4;stroke-dasharray:none;stroke-opacity:1"
       id="path4384"
       cx="81.539589"
       cy="948.68372"
       r="1.4031669" />
    <ellipse
       style="opacity:1;fill:#ca6f58;fill-opacity:1;stroke:none;stroke-width:2;stroke-linecap:round;stroke-linejoin:round;stroke-miterlimit:4;stroke-dasharray:none;stroke-opacity:1"
       id="path4386"
       cx="88.009743"
       cy="937.84814"
       rx="2.5724726"
       ry="2.2606578" />
    <ellipse
       style="opacity:1;fill:#ca6f58;fill-opacity:1;stroke:none;stroke-width:2;stroke-linecap:round;stroke-linejoin:round;stroke-miterlimit:4;stroke-dasharray:none;stroke-opacity:1"
       id="path4388"
       cx="111.23994"
       cy="954.53021"
       rx="3.6638248"
       ry="3.5079172" />
    <circle
       style="opacity:1;fill:#ca6f58;fill-opacity:1;stroke:none;stroke-width:2;stroke-linecap:round;stroke-linejoin:round;stroke-miterlimit:4;stroke-dasharray:none;stroke-opacity:1"
       id="path4390"
       cx="99.313034"
       cy="962.55951"
       r="1.5590743" />
  </g>
</svg>
