<?xml version="1.0" encoding="UTF-8" standalone="no"?>
<!-- Created with Inkscape (http://www.inkscape.org/) -->

<svg
   xmlns:dc="http://purl.org/dc/elements/1.1/"
   xmlns:cc="http://creativecommons.org/ns#"
   xmlns:rdf="http://www.w3.org/1999/02/22-rdf-syntax-ns#"
   xmlns:svg="http://www.w3.org/2000/svg"
   xmlns="http://www.w3.org/2000/svg"
   xmlns:sodipodi="http://sodipodi.sourceforge.net/DTD/sodipodi-0.dtd"
   xmlns:inkscape="http://www.inkscape.org/namespaces/inkscape"
   width="128"
   height="128"
   viewBox="0 0 128 128"
   id="svg2"
   version="1.1"
   inkscape:version="0.91 r13725"
   sodipodi:docname="zombie_head2.svg">
  <defs
     id="defs4" />
  <sodipodi:namedview
     id="base"
     pagecolor="#ffffff"
     bordercolor="#666666"
     borderopacity="1.0"
     inkscape:pageopacity="0.0"
     inkscape:pageshadow="2"
     inkscape:zoom="9.0708542"
     inkscape:cx="85.442479"
     inkscape:cy="38.814482"
     inkscape:document-units="px"
     inkscape:current-layer="layer1"
     showgrid="false"
     units="px"
     inkscape:window-width="1920"
     inkscape:window-height="1018"
     inkscape:window-x="-8"
     inkscape:window-y="-8"
     inkscape:window-maximized="1" />
  <metadata
     id="metadata7">
    <rdf:RDF>
      <cc:Work
         rdf:about="">
        <dc:format>image/svg+xml</dc:format>
        <dc:type
           rdf:resource="http://purl.org/dc/dcmitype/StillImage" />
        <dc:title></dc:title>
      </cc:Work>
    </rdf:RDF>
  </metadata>
  <g
     inkscape:label="Calque 1"
     inkscape:groupmode="layer"
     id="layer1"
     transform="translate(0,-924.36216)">
    <path
       style="fill:#6e3b2e;fill-opacity:1;fill-rule:evenodd;stroke:none;stroke-width:1px;stroke-linecap:butt;stroke-linejoin:miter;stroke-opacity:1"
       d="m 19.513047,953.58425 c 0,0 0.110243,-3.41754 4.078998,-6.83508 3.968755,-3.41754 7.165808,-3.63802 7.165808,-3.63802 0,0 -0.771702,-1.87414 3.197053,-4.29949 3.968755,-2.42535 10.252618,-3.74827 10.252618,-3.74827 0,0 1.68986,-2.12404 5.732647,-3.3073 4.51997,-1.32291 9.039942,-0.55121 9.039942,-0.55121 0,0 4.576515,-1.34829 8.929699,-0.66146 4.497819,0.70965 8.819456,2.75608 8.819456,2.75608 0,0 2.506099,-0.75345 6.835079,0.88195 4.960943,1.87413 7.055564,5.29167 7.055564,5.29167 0,0 1.433162,-0.44097 3.858512,0.7717 2.425355,1.21268 10.473107,9.92189 10.473107,9.92189 0,0 -1.65365,18.07989 -3.08681,20.06427 -1.43316,1.98437 -25.025209,13.67015 -27.340316,14.66234 -2.315107,0.99219 -42.664119,0.55122 -42.664119,0.55122 L 14.221373,971.44365"
       id="path4151"
       inkscape:connector-curvature="0"
       sodipodi:nodetypes="cscscscscscscsscc" />
    <path
       style="fill:#6d201b;fill-rule:evenodd;stroke:none;stroke-width:1px;stroke-linecap:butt;stroke-linejoin:miter;stroke-opacity:1;fill-opacity:1"
       d="M 97.074219 17.890625 L 96.683594 17.976562 C 96.683594 17.976562 94.258247 19.299906 93.707031 19.410156 C 93.155815 19.520396 88.636505 20.842882 86.431641 21.945312 C 84.226777 23.047742 81.028213 22.828125 79.925781 22.828125 C 78.823349 22.828125 75.847656 26.576172 75.847656 26.576172 C 75.847656 26.576172 71.547744 25.583771 70.445312 25.363281 C 69.34288 25.142791 69.232206 28.450956 68.019531 29.222656 C 66.806856 29.994356 61.516061 29.772359 59.972656 29.662109 C 58.429252 29.551869 54.570097 28.560324 53.357422 28.339844 C 52.144747 28.119354 51.042969 25.693359 51.042969 25.693359 C 51.042969 25.693359 42.664499 30.435334 41.121094 30.214844 C 39.577689 29.994354 34.284942 28.450084 33.072266 28.339844 C 31.859591 28.229594 26.789062 26.796875 26.789062 26.796875 L 22.302734 23.634766 C 20.714092 25.370776 20.034614 26.986348 19.740234 28.03125 L 18.851562 44.435547 L 55.232422 54.46875 C 55.232422 54.46875 73.421004 54.687716 75.515625 53.916016 C 77.610245 53.144316 92.493268 48.624148 96.572266 43.773438 C 99.464255 40.334314 102.56063 35.668025 104.16016 33.183594 C 104.30828 31.908084 104.45225 30.66608 104.5625 29.617188 L 101.68164 22.386719 C 100.20407 20.870135 98.566522 19.229759 97.074219 17.890625 z "
       transform="translate(0,924.36216)"
       id="path4153" />
    <path
       style="opacity:1;fill:#c1b9b3;fill-opacity:1;stroke:none;stroke-width:3;stroke-linecap:round;stroke-linejoin:round;stroke-miterlimit:4;stroke-dasharray:none;stroke-opacity:1"
       d="M 100.83594 17.890625 L 99.15625 19.957031 L 92.609375 22.138672 L 86.373047 27.751953 L 73.277344 30.402344 L 65.169922 46.771484 L 48.642578 41.470703 L 43.966797 33.519531 L 26.347656 31.804688 L 17.849609 26.605469 A 59.40073 59.40073 0 0 0 4.3652344 64.234375 A 59.40073 59.40073 0 0 0 63.765625 123.63477 A 59.40073 59.40073 0 0 0 123.16602 64.234375 A 59.40073 59.40073 0 0 0 100.83594 17.890625 z "
       transform="translate(0,924.36216)"
       id="circle4138" />
    <path
       style="opacity:1;fill:#978170;fill-opacity:1;stroke:none;stroke-width:3;stroke-linecap:round;stroke-linejoin:round;stroke-miterlimit:4;stroke-dasharray:none;stroke-opacity:1"
       d="M 101.65234 13.408203 C 101.65234 13.408203 101.33892 13.720528 101.80664 18.085938 C 102.27436 22.451347 100.87182 21.670466 98.533203 23.697266 C 96.194591 25.724066 105.23747 29.621677 97.753906 28.998047 C 90.270349 28.374417 90.426129 36.949831 81.695312 33.675781 C 72.964497 30.401721 64.858281 44.433876 60.804688 41.003906 C 56.751095 37.573946 53.943088 38.041395 48.486328 35.546875 C 43.029568 33.052355 24.009801 37.729789 21.359375 37.417969 C 18.708949 37.106159 15.746471 34.299887 13.251953 32.117188 C 10.757434 29.934487 10.601562 31.494141 10.601562 31.494141 C 10.601562 31.494141 7.2347678 37.543449 6.3925781 39.912109 C 4.6718936 44.751539 4.6617755 52.695092 4.8183594 57.210938 A 59.40073 59.40073 0 0 0 4.3652344 64.234375 A 59.40073 59.40073 0 0 0 63.765625 123.63477 A 59.40073 59.40073 0 0 0 123.16602 64.234375 A 59.40073 59.40073 0 0 0 121.56445 50.914062 C 121.45749 48.863165 121.28109 46.895107 120.98438 45.369141 C 120.05757 40.602701 117.24304 31.805776 113.18945 26.972656 C 109.71739 22.832896 106.95224 19.176258 104.76953 17.617188 C 102.58683 16.058108 101.65234 13.408203 101.65234 13.408203 z "
       transform="translate(0,924.36216)"
       id="path4136" />
    <path
       style="opacity:1;fill:#806151;fill-opacity:1;stroke:none;stroke-width:3;stroke-linecap:round;stroke-linejoin:round;stroke-miterlimit:4;stroke-dasharray:none;stroke-opacity:1"
       d="M 101.65234 13.408203 C 101.65234 13.408203 101.33892 13.720527 101.80664 18.085938 C 102.27436 22.451346 100.87182 21.670466 98.533203 23.697266 C 96.194591 25.724066 105.23747 29.621677 97.753906 28.998047 C 90.270349 28.374417 90.426129 36.949831 81.695312 33.675781 C 72.964497 30.401721 64.858281 44.433876 60.804688 41.003906 C 56.751095 37.573946 53.943088 38.041395 48.486328 35.546875 C 46.764958 34.759962 43.692058 34.68854 40.210938 34.947266 A 21.276937 19.623289 0 0 0 39.240234 36.351562 A 14.441859 12.126752 0 0 0 36.820312 36.167969 A 14.441859 12.126752 0 0 0 32.601562 36.708984 A 14.276495 12.898455 0 0 0 32.498047 35.873047 C 27.276314 36.656377 22.576364 37.561146 21.359375 37.417969 C 18.708949 37.106159 15.746471 34.299886 13.251953 32.117188 C 10.757434 29.934487 10.601563 31.494141 10.601562 31.494141 C 10.601562 31.494141 7.2347678 37.543449 6.3925781 39.912109 C 6.045779 40.887483 5.7849213 42.00951 5.5644531 43.183594 A 14.276495 12.898455 0 0 0 18.355469 50.388672 A 14.276495 12.898455 0 0 0 22.511719 49.816406 A 14.441859 12.126752 0 0 0 26.289062 56.578125 A 12.07163 9.6462803 0 0 0 24.695312 61.357422 A 12.07163 9.6462803 0 0 0 36.765625 71.003906 A 12.07163 9.6462803 0 0 0 45.492188 68.005859 A 9.9218884 9.3155508 0 0 0 51.337891 70.205078 A 9.5911589 10.417982 0 0 0 51.042969 72.712891 A 9.5911589 10.417982 0 0 0 60.632812 83.130859 A 9.5911589 10.417982 0 0 0 70.207031 73.119141 A 10.142374 10.087253 0 0 0 73.091797 73.539062 A 10.142374 10.087253 0 0 0 83.234375 63.453125 A 10.142374 10.087253 0 0 0 81.794922 58.296875 A 9.4257936 10.583347 0 0 0 84.576172 56.048828 A 7.6619024 7.276051 0 0 0 89.904297 58.105469 A 7.6619024 7.276051 0 0 0 97.564453 50.830078 A 7.6619024 7.276051 0 0 0 97.212891 48.677734 A 13.835522 13.284306 0 0 0 100.92773 47.587891 A 6.5043488 7.3311729 0 0 0 105.61328 49.837891 A 6.5043488 7.3311729 0 0 0 112.11719 42.505859 A 6.5043488 7.3311729 0 0 0 111.07422 38.525391 A 13.559914 14.166251 0 0 0 117.41992 34.197266 C 116.23388 31.496274 114.81695 28.913126 113.18945 26.972656 C 109.71739 22.832896 106.95224 19.176257 104.76953 17.617188 C 102.58683 16.058108 101.65234 13.408203 101.65234 13.408203 z "
       transform="translate(0,924.36216)"
       id="path4163" />
    <path
       style="fill:#471b12;fill-rule:evenodd;stroke:none;stroke-width:1px;stroke-linecap:butt;stroke-linejoin:miter;stroke-opacity:1;fill-opacity:1"
       d="M 93.443359 29.863281 C 89.832584 31.828484 88.319457 36.159831 81.695312 33.675781 C 72.964497 30.401721 64.858281 44.433876 60.804688 41.003906 C 56.751095 37.573946 53.943088 38.041395 48.486328 35.546875 C 43.743055 33.378521 28.775331 36.62234 23.195312 37.304688 C 25.536731 38.459371 28.782676 39.584594 32.412109 39.474609 C 39.68816 39.254119 50.711587 40.577473 51.373047 40.908203 C 52.034506 41.238933 54.679688 45.648438 54.679688 45.648438 C 54.679688 45.648438 56.55382 49.395835 55.671875 52.703125 C 54.789929 56.010425 57.326172 58.437493 57.326172 61.414062 C 57.326172 64.390622 59.310547 72.658203 59.310547 72.658203 C 59.310547 72.658203 60.412977 76.95835 60.302734 78.28125 C 60.192491 79.60415 63.5 70.011721 63.5 69.019531 C 63.5 68.027341 62.176212 58.216147 64.601562 53.585938 C 67.026912 48.955727 67.468314 43.994359 69.011719 42.230469 C 70.555124 40.466579 70.555551 37.931204 74.414062 37.490234 C 78.272575 37.049264 79.154944 35.726776 81.800781 35.947266 C 84.446618 36.167746 86.210933 38.812282 89.1875 36.607422 C 92.164066 34.402552 92.384331 33.962028 92.935547 33.080078 C 93.311353 32.478793 93.405303 30.967804 93.443359 29.863281 z "
       transform="translate(0,924.36216)"
       id="path4158" />
    <ellipse
       style="opacity:1;fill:#806151;fill-opacity:1;stroke:none;stroke-width:3;stroke-linecap:round;stroke-linejoin:round;stroke-miterlimit:4;stroke-dasharray:none;stroke-opacity:1"
       id="path4189"
       cx="104.06958"
       cy="997.84692"
       rx="6.7248354"
       ry="6.338984" />
    <ellipse
       style="opacity:1;fill:#6f5447;fill-opacity:1;stroke:none;stroke-width:3;stroke-linecap:round;stroke-linejoin:round;stroke-miterlimit:4;stroke-dasharray:none;stroke-opacity:1"
       id="path4191"
       cx="104.1247"
       cy="982.30261"
       rx="2.4804721"
       ry="2.2599857" />
    <ellipse
       style="opacity:1;fill:#806151;fill-opacity:1;stroke:none;stroke-width:3;stroke-linecap:round;stroke-linejoin:round;stroke-miterlimit:4;stroke-dasharray:none;stroke-opacity:1"
       id="path4193"
       cx="14.993075"
       cy="993.43719"
       rx="3.7482688"
       ry="4.3546066" />
    <ellipse
       style="opacity:1;fill:#806151;fill-opacity:1;stroke:none;stroke-width:3;stroke-linecap:round;stroke-linejoin:round;stroke-miterlimit:4;stroke-dasharray:none;stroke-opacity:1"
       id="path4195"
       cx="33.734421"
       cy="1015.3755"
       rx="7.8272672"
       ry="6.2287407" />
    <ellipse
       style="opacity:1;fill:#806151;fill-opacity:1;stroke:none;stroke-width:3;stroke-linecap:round;stroke-linejoin:round;stroke-miterlimit:4;stroke-dasharray:none;stroke-opacity:1"
       id="path4197"
       cx="40.624619"
       cy="1004.8474"
       rx="1.2677968"
       ry="1.4331616" />
    <path
       style="fill:#471b12;fill-rule:evenodd;stroke:none;stroke-width:1px;stroke-linecap:butt;stroke-linejoin:miter;stroke-opacity:1;fill-opacity:1"
       d="m 32.521744,963.17541 c 0,0 3.527783,0.11024 2.866324,3.63803 -0.66146,3.52778 -1.874135,5.07118 -1.984378,5.51216 -0.110243,0.44097 -0.440973,4.74045 -0.110243,5.95313 0.330729,1.21267 2.42535,8.48873 2.42535,8.48873 0,0 -0.551216,-11.02432 0,-11.68578 0.551216,-0.66146 2.866323,-3.3073 3.417539,-3.74827 0.551216,-0.44098 0.881946,-4.8507 0.881946,-4.8507 l 2.535594,-3.41754"
       id="path4203"
       inkscape:connector-curvature="0" />
  </g>
</svg>
