<?xml version="1.0" encoding="UTF-8" standalone="no"?>
<!-- Created with Inkscape (http://www.inkscape.org/) -->

<svg
   xmlns:dc="http://purl.org/dc/elements/1.1/"
   xmlns:cc="http://creativecommons.org/ns#"
   xmlns:rdf="http://www.w3.org/1999/02/22-rdf-syntax-ns#"
   xmlns:svg="http://www.w3.org/2000/svg"
   xmlns="http://www.w3.org/2000/svg"
   xmlns:sodipodi="http://sodipodi.sourceforge.net/DTD/sodipodi-0.dtd"
   xmlns:inkscape="http://www.inkscape.org/namespaces/inkscape"
   width="256"
   height="256"
   viewBox="0 0 256 256"
   id="svg2"
   version="1.1"
   inkscape:version="0.91 r13725"
   sodipodi:docname="zombie1.svg"
   inkscape:export-filename="C:\Prog\Projets\teeworlds\ignore\zombie1.png"
   inkscape:export-xdpi="90"
   inkscape:export-ydpi="90">
  <defs
     id="defs4" />
  <sodipodi:namedview
     id="base"
     pagecolor="#ffffff"
     bordercolor="#666666"
     borderopacity="1.0"
     inkscape:pageopacity="0.0"
     inkscape:pageshadow="2"
     inkscape:zoom="3.2070312"
     inkscape:cx="78.495088"
     inkscape:cy="121.00415"
     inkscape:document-units="px"
     inkscape:current-layer="layer1"
     showgrid="false"
     units="px"
     showguides="true"
     inkscape:guide-bbox="true"
     inkscape:window-width="1920"
     inkscape:window-height="1018"
     inkscape:window-x="-8"
     inkscape:window-y="-8"
     inkscape:window-maximized="1">
    <sodipodi:guide
       position="119.42509,132.52132"
       orientation="0,1"
       id="guide3347" />
    <sodipodi:guide
       position="132.52132,124.41413"
       orientation="1,0"
       id="guide3349" />
  </sodipodi:namedview>
  <metadata
     id="metadata7">
    <rdf:RDF>
      <cc:Work
         rdf:about="">
        <dc:format>image/svg+xml</dc:format>
        <dc:type
           rdf:resource="http://purl.org/dc/dcmitype/StillImage" />
        <dc:title />
      </cc:Work>
    </rdf:RDF>
  </metadata>
  <g
     inkscape:label="Calque 1"
     inkscape:groupmode="layer"
     id="layer1"
     transform="translate(0,-796.36219)">
    <path
       style="opacity:1;fill:none;fill-opacity:1;stroke:#000000;stroke-width:2;stroke-linecap:round;stroke-linejoin:round;stroke-miterlimit:4;stroke-dasharray:none;stroke-opacity:1"
       d="M 191.95508 153.20312 A 38.341282 38.341282 0 0 0 188.69531 153.36523 A 38.341283 38.341283 0 0 0 188.15234 153.39258 A 38.341283 38.341283 0 0 0 188.14648 153.39453 A 38.341283 38.341283 0 0 0 186.75781 153.60156 A 38.341282 38.341282 0 0 0 184.9082 153.88086 A 38.341283 38.341283 0 0 0 183.01953 154.30469 A 38.341282 38.341282 0 0 0 181.1543 154.78125 A 38.341283 38.341283 0 0 0 179.38086 155.37109 A 38.341282 38.341282 0 0 0 177.54102 156.04297 A 38.341283 38.341283 0 0 0 175.80859 156.81836 A 38.341282 38.341282 0 0 0 174.08594 157.65039 A 38.341283 38.341283 0 0 0 172.41016 158.60938 A 38.341282 38.341282 0 0 0 170.78125 159.60938 A 38.341283 38.341283 0 0 0 169.23438 160.71484 A 38.341282 38.341282 0 0 0 167.69922 161.88086 A 38.341283 38.341283 0 0 0 166.28125 163.12695 A 38.341282 38.341282 0 0 0 164.84961 164.46094 A 38.341283 38.341283 0 0 0 163.56836 165.83594 A 38.341282 38.341282 0 0 0 162.28906 167.29297 A 38.341283 38.341283 0 0 0 161.14844 168.79297 A 38.341282 38.341282 0 0 0 160.00977 170.38672 A 38.341283 38.341283 0 0 0 159.01562 172.00781 A 38.341282 38.341282 0 0 0 158.62305 172.65039 L 158.49414 172.62305 C 158.49414 172.62305 158.24502 173.21885 158.04688 173.69531 A 38.341283 38.341283 0 0 0 157.23242 175.38672 A 38.341282 38.341282 0 0 0 156.44141 177.1582 A 38.341283 38.341283 0 0 0 155.9043 178.60352 A 38.341283 38.341283 0 0 0 155.89062 178.64062 A 9.5106299 10.207744 0 0 0 155.89062 178.64258 A 38.341283 38.341283 0 0 0 155.80273 178.9082 A 38.341282 38.341282 0 0 0 155.18359 180.77344 A 38.341283 38.341283 0 0 0 154.89062 181.82812 C 154.21451 183.72103 153.61612 185.54452 153.31641 186.86328 C 153.13181 187.67553 152.87992 188.64412 152.63477 189.5957 C 152.63475 189.59701 152.63478 189.5983 152.63477 189.59961 C 151.55745 193.78081 150.12891 198.61523 150.12891 198.61523 C 150.12891 198.61523 150.85015 199.0873 152.14453 199.89648 C 152.14453 199.89648 152.14648 199.89648 152.14648 199.89648 C 152.89258 200.3629 153.87482 200.96551 154.97266 201.62891 A 38.341282 38.341282 0 0 0 191.95508 229.88477 A 38.341282 38.341282 0 0 0 209.875 225.41211 C 211.54375 226.35591 212.96875 227.39648 212.96875 227.39648 C 212.96875 227.39648 213.57505 226.9686 214.50195 226.26758 C 214.92456 225.95334 215.1686 225.76223 215.75 225.30664 C 215.77747 225.28501 215.81209 225.25628 215.83984 225.23438 C 219.73639 222.17211 226.36011 216.38174 227.4082 211.56055 C 228.90202 204.68895 231.09361 193.63626 230.49609 191.44531 C 230.40669 191.1175 230.34923 190.93054 230.26562 190.63281 A 38.341282 38.341282 0 0 0 230.13281 188.27344 A 38.341283 38.341283 0 0 0 229.90234 186.375 A 38.341282 38.341282 0 0 0 229.61328 184.47266 A 38.341283 38.341283 0 0 0 229.20508 182.64844 A 38.341282 38.341282 0 0 0 228.71875 180.74023 A 38.341283 38.341283 0 0 0 228.12891 178.96875 A 38.341282 38.341282 0 0 0 227.45703 177.12891 A 38.341283 38.341283 0 0 0 226.69141 175.41602 A 38.341282 38.341282 0 0 0 225.83984 173.6543 A 38.341283 38.341283 0 0 0 224.9082 172.0293 A 38.341282 38.341282 0 0 0 223.88867 170.36719 A 38.341283 38.341283 0 0 0 222.79492 168.83594 A 38.341282 38.341282 0 0 0 221.60742 167.27539 A 38.341283 38.341283 0 0 0 220.375 165.87305 A 38.341282 38.341282 0 0 0 219.04883 164.44727 A 38.341283 38.341283 0 0 0 217.66211 163.15625 A 38.341282 38.341282 0 0 0 216.19727 161.87109 A 38.341283 38.341283 0 0 0 214.70898 160.74023 A 38.341282 38.341282 0 0 0 213.11719 159.59961 A 38.341283 38.341283 0 0 0 211.51367 158.61719 A 38.341282 38.341282 0 0 0 209.83203 157.65234 A 38.341283 38.341283 0 0 0 208.09375 156.8125 A 38.341282 38.341282 0 0 0 206.36523 156.03906 A 38.341283 38.341283 0 0 0 204.55078 155.37695 A 38.341282 38.341282 0 0 0 202.75 154.7793 A 38.341283 38.341283 0 0 0 200.87305 154.29883 A 38.341282 38.341282 0 0 0 199.02344 153.88477 A 38.341283 38.341283 0 0 0 197.10938 153.5957 A 38.341282 38.341282 0 0 0 195.22656 153.36719 A 38.341283 38.341283 0 0 0 191.95508 153.20312 z "
       transform="translate(0,796.36219)"
       id="circle4194" />
    <g
       transform="matrix(1.2775241,0,0,1.2775241,151.5362,-442.81443)"
       id="layer1-7"
       inkscape:label="Calque 1">
      <circle
         r="30.01218"
         cy="1020.0892"
         cx="31.883068"
         id="path3336"
         style="opacity:1;fill:#2f151e;fill-opacity:1;stroke:none;stroke-width:10;stroke-linecap:round;stroke-linejoin:round;stroke-miterlimit:4;stroke-dasharray:none;stroke-opacity:1" />
      <path
         id="circle4138"
         transform="translate(0,988.36216)"
         d="M 31.882812,1.7148438 A 30.01218,30.01218 0 0 0 1.8710938,31.726562 30.01218,30.01218 0 0 0 2.5976562,38.123047 C 4.1445069,37.1313 6.0330529,35.9375 6.2363281,35.9375 c 0.3118149,0 34.7682629,6.3911 35.0800779,6.625 0.276317,0.207272 11.217193,6.344754 13.980469,7.894531 A 30.01218,30.01218 0 0 0 61.894531,31.726562 30.01218,30.01218 0 0 0 31.882812,1.7148438 Z"
         style="opacity:1;fill:#957e74;fill-opacity:1;stroke:none;stroke-width:10;stroke-linecap:round;stroke-linejoin:round;stroke-miterlimit:4;stroke-dasharray:none;stroke-opacity:1"
         inkscape:connector-curvature="0" />
      <path
         inkscape:connector-curvature="0"
         id="path4140"
         d="m 5.6906212,1005.2781 c 0,0 -3.274056,7.7174 -4.0535932,11.1474 -0.77953714,3.43 -2.49451886,9.1985 -2.49451886,9.1985 0,0 2.26065776,1.4812 5.84652866,3.5859 3.5858708,2.1048 4.1315469,4.4434 5.5347142,5.067 1.403166,0.6236 7.56151,6.0024 7.56151,6.0024 0,0 -1.792936,-1.9488 1.637028,-3.352 3.429963,-1.4031 6.470158,-4.1315 6.470158,-4.1315 0,0 -1.325213,3.7418 0.545676,6.5481 1.870889,2.8063 3.118149,5.1449 7.327649,5.1449 4.209501,0 8.652863,0.6237 10.445798,1.4032 1.792936,0.7795 3.819732,2.2607 3.819732,2.2607 0,0 10.133983,-7.0159 11.303289,-12.3947 1.169306,-5.3788 2.884287,-14.0316 2.416565,-15.7466 -0.467722,-1.715 -0.857491,-2.9623 -0.857491,-2.9623 z"
         style="fill:#957e74;fill-opacity:1;fill-rule:evenodd;stroke:none;stroke-width:1px;stroke-linecap:butt;stroke-linejoin:miter;stroke-opacity:1" />
      <path
         id="path4145"
         transform="translate(0,988.36216)"
         d="m 1.1035156,30.201172 c -0.84336839,3.273567 -1.96093748,7.060547 -1.96093748,7.060547 0,0 2.25983228,1.481237 5.84570308,3.585937 3.5858709,2.1048 4.131989,4.442807 5.5351568,5.066406 1.403166,0.6236 7.5625,6.003907 7.5625,6.003907 0,0 -1.793246,-1.950316 1.636718,-3.353516 3.429963,-1.4031 6.470703,-4.130859 6.470703,-4.130859 0,0 -1.325967,3.742528 0.544922,6.548828 1.870889,2.8063 3.118625,5.144531 7.328125,5.144531 4.209501,0 8.652378,0.622844 10.445313,1.402344 1.792936,0.7795 3.820312,2.261719 3.820312,2.261719 0,0 1.588781,-1.113306 3.570313,-2.765625 -0.385994,-0.296643 -0.740834,-0.544025 -0.998047,-0.664063 -1.169306,-0.5457 -0.312191,-5.068234 -1.949219,-4.990234 -1.637028,0.0779 -9.120854,-2.104566 -9.90039,-2.572266 -0.779538,-0.4677 -8.496606,-9.743712 -13.173829,-10.445312 -4.677223,-0.7016 -9.43205,4.598162 -13.173828,3.039062 -3.7417785,-1.5591 -7.7185428,-4.6768 -10.2910154,-6.9375 -1.0618609,-0.933168 -1.3363195,-2.606203 -1.3125,-4.253906 z"
         style="fill:#917062;fill-opacity:1;fill-rule:evenodd;stroke:none;stroke-width:1px;stroke-linecap:butt;stroke-linejoin:miter;stroke-opacity:1"
         inkscape:connector-curvature="0" />
      <path
         id="path4150"
         transform="translate(0,988.36216)"
         d="M 28.90625,1.8632812 A 30.01218,30.01218 0 0 0 3.6523438,21.626953 a 7.4445796,7.9902558 0 0 0 0.1777343,0.525391 5.1839218,5.7685747 0 0 0 -0.4472656,0.287109 30.01218,30.01218 0 0 0 -1.4707031,8.091797 5.1839218,5.7685747 0 0 0 4.2851562,2.521484 5.1839218,5.7685747 0 0 0 3.5078125,-1.529296 6.3142509,6.82095 0 0 0 5.6523439,3.789062 6.3142509,6.82095 0 0 0 5.423828,-3.341797 6.8989038,7.7953715 0 0 0 4.982422,2.40625 6.8989038,7.7953715 0 0 0 6.035156,-4.021484 6.4311814,6.3532276 0 0 0 0.746094,0.04687 6.4311814,6.3532276 0 0 0 6.43164,-6.353516 6.4311814,6.3532276 0 0 0 -1.523437,-4.095703 4.5602922,4.2874541 0 0 0 0.978516,-2.646484 4.5602922,4.2874541 0 0 0 -2.222657,-3.675782 14.304506,11.809988 0 0 0 0.117188,-1.43164 A 14.304506,11.809988 0 0 0 28.90625,1.8632812 Z"
         style="opacity:1;fill:#7b6052;fill-opacity:1;stroke:none;stroke-width:10;stroke-linecap:round;stroke-linejoin:round;stroke-miterlimit:4;stroke-dasharray:none;stroke-opacity:1"
         inkscape:connector-curvature="0" />
      <ellipse
         ry="2.1047504"
         rx="2.2216809"
         cy="998.96387"
         cx="40.029232"
         id="path4166"
         style="opacity:1;fill:#7b6052;fill-opacity:1;stroke:none;stroke-width:10;stroke-linecap:round;stroke-linejoin:round;stroke-miterlimit:4;stroke-dasharray:none;stroke-opacity:1" />
      <ellipse
         ry="3.2350793"
         rx="2.8063338"
         cy="1027.222"
         cx="42.874542"
         id="path4168"
         style="opacity:1;fill:#7b6052;fill-opacity:1;stroke:none;stroke-width:10;stroke-linecap:round;stroke-linejoin:round;stroke-miterlimit:4;stroke-dasharray:none;stroke-opacity:1" />
    </g>
    <path
       style="opacity:1;fill:#000000;fill-opacity:1;stroke:#000000;stroke-width:8;stroke-linecap:round;stroke-linejoin:round;stroke-miterlimit:4;stroke-dasharray:none;stroke-opacity:1"
       d="M 64.552734 25.046875 A 38.341282 38.341282 0 0 0 61.289062 25.208984 A 38.341283 38.341283 0 0 0 60.75 25.236328 A 38.341283 38.341283 0 0 0 60.744141 25.238281 A 38.341283 38.341283 0 0 0 59.363281 25.443359 A 38.341282 38.341282 0 0 0 57.501953 25.724609 A 38.341283 38.341283 0 0 0 55.617188 26.148438 A 38.341282 38.341282 0 0 0 53.757812 26.623047 A 38.341283 38.341283 0 0 0 51.957031 27.220703 A 38.341282 38.341282 0 0 0 50.146484 27.882812 A 38.341283 38.341283 0 0 0 48.378906 28.673828 A 38.341282 38.341282 0 0 0 46.691406 29.488281 A 38.341283 38.341283 0 0 0 44.996094 30.460938 A 38.341282 38.341282 0 0 0 43.376953 31.453125 A 38.341283 38.341283 0 0 0 41.84375 32.548828 A 38.341282 38.341282 0 0 0 40.285156 33.734375 A 38.341283 38.341283 0 0 0 38.869141 34.980469 A 38.341282 38.341282 0 0 0 37.458984 36.294922 A 38.341283 38.341283 0 0 0 36.15625 37.691406 A 38.341282 38.341282 0 0 0 34.886719 39.136719 A 38.341283 38.341283 0 0 0 33.742188 40.642578 A 38.341282 38.341282 0 0 0 32.607422 42.228516 A 38.341283 38.341283 0 0 0 31.626953 43.826172 A 38.341282 38.341282 0 0 0 31.21875 44.494141 L 31.091797 44.466797 C 31.091797 44.466797 30.842646 45.063773 30.642578 45.544922 A 38.341283 38.341283 0 0 0 29.837891 47.214844 A 38.341282 38.341282 0 0 0 29.046875 48.982422 A 38.341283 38.341283 0 0 0 28.505859 50.433594 A 38.341283 38.341283 0 0 0 28.486328 50.484375 A 9.5106299 10.207744 0 0 0 28.488281 50.488281 A 38.341283 38.341283 0 0 0 28.40625 50.738281 A 38.341282 38.341282 0 0 0 27.78125 52.613281 A 38.341283 38.341283 0 0 0 27.490234 53.666016 C 26.813054 55.561478 26.212198 57.386624 25.912109 58.707031 C 25.727509 59.51928 25.475627 60.487869 25.230469 61.439453 C 25.23045 61.440762 25.230487 61.44205 25.230469 61.443359 C 24.153158 65.62456 22.726562 70.458984 22.726562 70.458984 C 22.726562 70.458984 24.349159 71.522901 27.09375 73.189453 C 27.09375 73.189453 27.095703 73.189453 27.095703 73.189453 C 27.235764 73.274499 27.424483 73.384537 27.570312 73.472656 A 38.341282 38.341282 0 0 0 64.552734 101.73047 A 38.341282 38.341282 0 0 0 82.470703 97.255859 C 84.139456 98.19966 85.566406 99.240234 85.566406 99.240234 C 85.566406 99.240234 86.188543 98.800792 87.132812 98.085938 C 87.517889 97.799063 87.715551 97.642647 88.228516 97.242188 C 88.32638 97.165441 88.423871 97.086219 88.525391 97.005859 C 92.433845 93.925132 98.965688 88.191044 100.00586 83.40625 C 101.49968 76.5347 103.69128 65.480013 103.09375 63.289062 C 103.00411 62.960377 102.94514 62.773038 102.86133 62.474609 A 38.341282 38.341282 0 0 0 102.72852 60.115234 A 38.341283 38.341283 0 0 0 102.50195 58.238281 A 38.341282 38.341282 0 0 0 102.21094 56.318359 A 38.341283 38.341283 0 0 0 101.79492 54.464844 A 38.341282 38.341282 0 0 0 101.31641 52.589844 A 38.341283 38.341283 0 0 0 100.73633 50.84375 A 38.341282 38.341282 0 0 0 100.04492 48.947266 A 38.341283 38.341283 0 0 0 99.304688 47.294922 A 38.341282 38.341282 0 0 0 98.435547 45.496094 A 38.341283 38.341283 0 0 0 97.515625 43.890625 A 38.341282 38.341282 0 0 0 96.476562 42.197266 A 38.341283 38.341283 0 0 0 95.392578 40.681641 A 38.341282 38.341282 0 0 0 94.214844 39.132812 A 38.341283 38.341283 0 0 0 92.951172 37.693359 A 38.341282 38.341282 0 0 0 91.646484 36.292969 A 38.341283 38.341283 0 0 0 90.246094 34.988281 A 38.341282 38.341282 0 0 0 88.806641 33.724609 A 38.341283 38.341283 0 0 0 87.273438 32.558594 A 38.341282 38.341282 0 0 0 85.726562 31.453125 A 38.341283 38.341283 0 0 0 84.097656 30.453125 A 38.341282 38.341282 0 0 0 82.421875 29.492188 A 38.341283 38.341283 0 0 0 80.716797 28.669922 A 38.341282 38.341282 0 0 0 78.960938 27.882812 A 38.341283 38.341283 0 0 0 77.140625 27.21875 A 38.341282 38.341282 0 0 0 75.345703 26.623047 A 38.341283 38.341283 0 0 0 73.496094 26.150391 A 38.341282 38.341282 0 0 0 71.597656 25.724609 A 38.341283 38.341283 0 0 0 69.75 25.445312 A 38.341282 38.341282 0 0 0 67.820312 25.210938 A 38.341283 38.341283 0 0 0 64.552734 25.046875 z "
       transform="translate(0,796.36219)"
       id="circle3370" />
    <path
       style="opacity:1;fill:#000000;fill-opacity:0.50196081;stroke:none;stroke-width:10;stroke-linecap:round;stroke-linejoin:round;stroke-miterlimit:4;stroke-dasharray:none;stroke-opacity:1"
       d="M 82.316406 157.85938 A 38.341282 38.341282 0 0 1 82.408203 157.94922 A 38.341283 38.341283 0 0 1 82.964844 158.25 A 38.341282 38.341282 0 0 0 82.316406 157.85938 z M 83.646484 158.66016 A 38.341283 38.341283 0 0 1 85.294922 159.77734 A 38.341282 38.341282 0 0 0 83.646484 158.66016 z M 86.878906 160.9082 A 38.341283 38.341283 0 0 1 88.476562 162.24023 A 38.341282 38.341282 0 0 0 86.878906 160.9082 z M 89.75 163.35742 A 38.341283 38.341283 0 0 1 91.384766 165.02539 A 38.341282 38.341282 0 0 0 89.75 163.35742 z M 92.5 166.24805 A 38.341283 38.341283 0 0 1 98.03125 185.07422 C 98.12094 185.39291 98.18467 185.59706 98.28125 185.95117 C 98.87878 188.14212 96.687183 199.19686 95.193359 206.06836 C 93.747745 212.71833 81.801478 221.15845 81.017578 221.70703 C 80.315001 222.38675 79.50164 223.11095 78.605469 223.83008 C 78.66065 223.84683 78.696718 223.86586 78.75 223.88281 C 78.010972 223.65014 77.100193 223.4324 76.056641 223.24023 A 38.341282 38.341282 0 0 1 60.550781 229.41016 A 38.341282 38.341282 0 0 0 63.488281 229.57422 A 38.341282 38.341282 0 0 0 81.410156 225.10352 C 81.117842 224.93816 80.819368 224.77644 80.519531 224.62305 C 80.219695 224.46966 79.918495 224.32461 79.621094 224.19531 C 79.917915 224.32435 80.21893 224.46995 80.519531 224.62305 C 80.821309 224.77675 81.117271 224.93783 81.410156 225.10352 C 83.076867 226.04636 84.501953 227.08398 84.501953 227.08398 C 84.501953 227.08398 97.44759 218.1216 98.941406 211.25 C 100.43523 204.3785 102.62683 193.32376 102.0293 191.13281 C 101.93337 190.7811 101.86999 190.57672 101.78125 190.26172 A 38.341282 38.341282 0 0 0 101.49219 186.44922 A 38.341283 38.341283 0 0 1 101.7793 190.25586 A 38.341283 38.341283 0 0 0 92.5 166.24805 z M 94.689453 169.02539 A 38.341283 38.341283 0 0 1 96.238281 171.41211 A 38.341282 38.341282 0 0 0 94.689453 169.02539 z M 96.724609 172.20508 A 38.341283 38.341283 0 0 1 98.126953 174.92969 A 38.341282 38.341282 0 0 0 96.724609 172.20508 z M 98.4375 175.57227 A 38.341283 38.341283 0 0 1 99.638672 178.61719 A 38.341282 38.341282 0 0 0 98.4375 175.57227 z M 99.814453 179.09375 A 38.341283 38.341283 0 0 1 100.75391 182.41992 A 38.341282 38.341282 0 0 0 99.814453 179.09375 z M 100.83594 182.74023 A 38.341283 38.341283 0 0 1 101.48242 186.38867 A 38.341282 38.341282 0 0 0 100.83594 182.74023 z "
       transform="translate(0,796.36219)"
       id="circle4239" />
  </g>
</svg>
