<?xml version="1.0" encoding="UTF-8" standalone="no"?>
<!-- Created with Inkscape (http://www.inkscape.org/) -->

<svg
   xmlns:dc="http://purl.org/dc/elements/1.1/"
   xmlns:cc="http://creativecommons.org/ns#"
   xmlns:rdf="http://www.w3.org/1999/02/22-rdf-syntax-ns#"
   xmlns:svg="http://www.w3.org/2000/svg"
   xmlns="http://www.w3.org/2000/svg"
   xmlns:sodipodi="http://sodipodi.sourceforge.net/DTD/sodipodi-0.dtd"
   xmlns:inkscape="http://www.inkscape.org/namespaces/inkscape"
   width="1024"
   height="1024"
   viewBox="0 0 270.93333 270.93334"
   version="1.1"
   id="svg8"
   inkscape:version="0.92.4 (5da689c313, 2019-01-14)"
   sodipodi:docname="backpack.svg"
   inkscape:export-filename="C:\Prog\Projets\teeworlds\build_genie\data\mods\example_ui_1\backpack.png"
   inkscape:export-xdpi="6"
   inkscape:export-ydpi="6">
  <defs
     id="defs2" />
  <sodipodi:namedview
     id="base"
     pagecolor="#ffffff"
     bordercolor="#666666"
     borderopacity="1.0"
     inkscape:pageopacity="0.0"
     inkscape:pageshadow="2"
     inkscape:zoom="0.98994949"
     inkscape:cx="817.94892"
     inkscape:cy="468.0177"
     inkscape:document-units="mm"
     inkscape:current-layer="layer1"
     showgrid="false"
     units="px"
     inkscape:window-width="2560"
     inkscape:window-height="1377"
     inkscape:window-x="1912"
     inkscape:window-y="-8"
     inkscape:window-maximized="1" />
  <metadata
     id="metadata5">
    <rdf:RDF>
      <cc:Work
         rdf:about="">
        <dc:format>image/svg+xml</dc:format>
        <dc:type
           rdf:resource="http://purl.org/dc/dcmitype/StillImage" />
        <dc:title />
      </cc:Work>
    </rdf:RDF>
  </metadata>
  <g
     inkscape:label="Layer 1"
     inkscape:groupmode="layer"
     id="layer1"
     transform="translate(0,-26.06665)">
    <path
       sodipodi:type="inkscape:offset"
       inkscape:radius="20.333387"
       inkscape:original="M 541.43555 8.6933594 C 508.79738 8.7262744 469.63349 10.129227 449.51562 15.570312 C 420.25324 23.484617 415.99732 31.332913 400.70312 43.048828 C 385.40889 54.764744 374.91351 67.901958 363.05664 85.953125 C 355.58288 97.331371 346.1701 107.49818 338 116.04883 C 336.61031 116.32362 335.21923 116.59825 333.83398 116.88086 C 281.11235 127.63668 247.88144 142.16819 233.12695 166.16992 C 227.95041 169.0827 222.77162 172.29091 217.58984 175.8418 C 157.23381 217.20161 162.769 279.43616 163.89062 360.36719 C 165.01226 441.29817 220.30566 538.59854 167.25391 649.45703 C 114.20215 760.31553 115.4395 882.94741 170.68945 950.83203 C 225.93941 1018.7167 345.7658 1009.6285 422.50586 1007.1211 C 465.3185 1005.7223 491.00127 1007.484 513.5957 1007.1445 C 536.19013 1007.4828 561.87287 1005.7211 604.68555 1007.1211 C 681.4256 1009.6285 801.25394 1018.7167 856.50391 950.83203 C 911.75383 882.94741 912.99117 760.31553 859.93945 649.45703 C 806.88774 538.59854 862.18112 441.29817 863.30273 360.36719 C 864.42438 279.43616 869.95759 217.20161 809.60156 175.8418 C 790.98941 163.08756 772.39667 154.67114 753.91992 149.06445 C 744.64776 135.37931 730.83045 126.36833 709.91016 121.5 C 693.66805 117.72032 672.31315 113.82251 649.82422 110.64453 C 652.77597 104.57046 655.34906 98.042587 657.07812 91.498047 C 662.06205 72.633707 647.27143 50.416458 633.7168 38.464844 C 620.16213 26.513229 610.65596 10.212601 579.49609 9.2480469 C 569.75864 8.9466248 556.27108 8.678398 541.43555 8.6933594 z M 552.25195 49.033203 C 567.93972 49.143159 576.82087 53.913356 588.58203 59.082031 C 601.12727 64.595285 618.03723 80.929823 617.31836 95.070312 C 617.11241 99.121352 616.63452 102.97326 616.22656 106.58008 C 594.94674 104.47118 574.35371 103.3716 557.71875 104.01562 C 495.90031 100.62067 444.15951 101.74191 397.08203 106.96484 C 416.73846 89.903101 443.85201 67.415585 467.19727 59.904297 C 497.17372 50.259434 531.27392 49.640056 549.02148 49.074219 C 550.13071 49.038859 551.2061 49.025873 552.25195 49.033203 z "
       style="fill:#000000;fill-opacity:1;stroke:none;stroke-width:0.99999994px;stroke-linecap:butt;stroke-linejoin:miter;stroke-opacity:1"
       id="path835"
       d="m 541.41602,-11.640625 c -33.20446,0.03349 -71.52144,0.634569 -97.20899,7.5820312 -32.05309,8.6690809 -42.60934,20.8073558 -55.86914,30.9648438 -17.55445,13.447325 -29.88102,29.013342 -42.27539,47.882812 -5.15631,7.850096 -11.9207,15.490084 -18.63086,22.685547 -50.87256,10.573431 -88.30501,24.700581 -108.72656,53.744141 -4.20419,2.49292 -8.4097,4.97172 -12.60938,7.84961 -34.34,23.53196 -51.64515,55.86159 -58.36718,90.30078 -6.72204,34.43919 -4.72531,71.205 -4.16993,111.2793 1.24683,89.96391 54.0307,178.31399 5.35352,280.03125 -55.62536,116.23637 -56.716085,245.92055 6.00781,322.98828 32.44823,39.86853 81.99746,55.64613 131.05664,61.87693 49.05919,6.2308 99.27949,3.1373 137.19336,1.8985 41.82463,-1.3666 66.62972,0.3701 90.42578,0.029 23.79525,0.3395 48.60134,-1.397 90.42578,-0.029 37.91388,1.2388 88.13372,4.3323 137.19336,-1.8985 49.05965,-6.2308 98.61029,-22.0083 131.0586,-61.87693 62.72386,-77.06773 61.63313,-206.75192 6.00781,-322.98828 -48.67714,-101.71726 4.10672,-190.06733 5.35352,-280.03125 0.5554,-40.07447 2.55071,-76.84011 -4.17188,-111.2793 C 872.7403,214.92995 855.43562,182.60026 821.0957,159.06836 802.89161,146.59375 784.50135,137.95811 766.33984,131.8418 754.05096,116.99697 736.17501,106.73473 714.51953,101.69531 703.76332,99.192248 690.81413,96.766861 677.18945,94.447266 680.50363,79.154679 676.39216,64.847753 670.48438,53.195312 664.28693,40.971544 655.87756,30.8959 647.16406,23.212891 636.95124,14.207894 618.23818,-9.896378 580.125,-11.076172 c -9.94497,-0.307846 -23.61594,-0.579674 -38.70898,-0.564453 z m 10.69336,81.005859 c 19.98843,5.251851 47.44405,4.577976 37.15234,14.810547 -10.99253,-0.577656 -21.55534,-0.82703 -31.2207,-0.49414 -33.03188,-1.795448 -63.24392,-2.244536 -91.6211,-1.546875 2.48647,-1.189185 4.84786,-2.18067 7.00586,-2.875 25.93811,-8.345534 58.1398,-9.28607 76.24414,-9.863282 0.84938,-0.02708 1.65959,-0.03672 2.43946,-0.03125 z"
       transform="matrix(0.25207813,0,0,0.25207813,6.4226285,32.429741)" />
    <path
       style="fill:#552200;fill-opacity:1;stroke:none;stroke-width:0.25207812px;stroke-linecap:butt;stroke-linejoin:miter;stroke-opacity:1"
       d="m 102.79647,62.624217 c 4.67256,-3.972355 13.83997,-12.662713 21.39637,-15.093972 7.55641,-2.431259 16.15215,-2.587202 20.62592,-2.729837 4.47378,-0.142635 6.8102,1.133092 9.97258,2.522862 3.16238,1.389771 7.42476,5.506962 7.24355,9.07147 -0.18121,3.564508 -1.23477,6.621828 0.76352,7.950342 1.99828,1.328515 0.89656,4.567465 2.9468,2.60773 2.05023,-1.959736 5.05628,-6.703153 6.31263,-11.458441 1.25633,-4.755288 -2.47213,-10.355646 -5.88895,-13.368386 -3.41684,-3.012741 -5.81325,-7.121974 -13.66797,-7.365118 -7.85472,-0.243142 -25.38873,-0.401013 -32.76513,1.594011 -7.37641,1.995023 -8.44955,3.973351 -12.30488,6.926678 -3.85535,2.953326 -6.50074,6.264889 -9.489597,10.815194 -2.988853,4.550304 -7.212463,8.336898 -9.453917,10.936923 -2.241454,2.600025 -1.673012,2.801415 -0.226652,2.744842 1.446359,-0.05657 10.376649,2.866779 10.970804,1.72091 0.594154,-1.145868 -1.107627,-2.902854 3.564922,-6.875208 z"
       id="path5332"
       inkscape:connector-curvature="0"
       sodipodi:nodetypes="zzzzzzzzzzzzzzzzz" />
    <path
       style="fill:#784421;stroke:none;stroke-width:0.25207812px;stroke-linecap:butt;stroke-linejoin:miter;stroke-opacity:1"
       d="M 105.94206,66.952812 C 91.646224,67.370152 76.486482,66.329894 61.272044,76.755795 46.057608,87.181699 47.452907,102.86968 47.735646,123.27062 c 0.282738,20.40093 14.220998,44.92822 0.847811,72.87322 -13.373187,27.945 -13.06128,58.85782 0.866025,75.97005 13.927306,17.11224 44.132917,14.8213 63.477408,14.18923 10.79213,-0.3526 17.26619,0.0912 22.96175,0.006 5.69557,0.0853 12.16963,-0.35853 22.96177,-0.006 19.34449,0.63207 49.55059,2.92301 63.4779,-14.18923 13.9273,-17.11223 14.23919,-48.02505 0.86602,-75.97005 -13.37318,-27.945 0.56507,-52.47229 0.84781,-72.87322 0.28274,-20.40094 1.67755,-36.088921 -13.53689,-46.514825 -15.21443,-10.425901 -30.37417,-9.385643 -44.67002,-9.802983 l -29.94659,1.751255 z"
       id="path4414"
       inkscape:connector-curvature="0" />
    <path
       style="fill:#552200;fill-opacity:1;stroke:none;stroke-width:0.25207812px;stroke-linecap:butt;stroke-linejoin:miter;stroke-opacity:1"
       d="m 147.01128,58.649802 c 10.86246,-0.420543 28.4085,2.090628 38.36413,4.40739 9.95564,2.316762 13.53237,8.353096 15.05937,19.01864 2.74905,16.69949 4.18941,39.269118 -1.14643,56.089568 -5.35922,13.72058 -12.35856,27.45634 -26.09097,34.10387 -10.69148,2.87972 -21.91569,1.40212 -32.76549,3.17803 -15.05347,0.88561 -29.57589,-3.86196 -43.705937,-8.34842 C 88.191109,165.28884 78.350505,162.63335 74.197467,154.08914 65.611479,139.26151 70.729018,123.15007 67.440192,106.85988 66.368869,99.557479 63.576071,86.042914 63.402946,78.678876 65.449577,69.925169 74.356445,65.201461 90.575023,61.892685 106.79359,58.583909 124.17565,57.395708 147.01128,58.649802 Z"
       id="path5293"
       inkscape:connector-curvature="0"
       sodipodi:nodetypes="czcccccccccc" />
    <rect
       style="fill:#28150a;fill-opacity:1;stroke:none;stroke-width:3.81868768;stroke-miterlimit:4;stroke-dasharray:none;stroke-opacity:1"
       id="rect5330"
       width="59.147675"
       height="39.21748"
       x="109.72579"
       y="156.3291"
       ry="17.38308" />
  </g>
</svg>
