<?xml version="1.0" encoding="UTF-8" standalone="no"?>
<!-- Created with Inkscape (http://www.inkscape.org/) -->

<svg
   xmlns:dc="http://purl.org/dc/elements/1.1/"
   xmlns:cc="http://creativecommons.org/ns#"
   xmlns:rdf="http://www.w3.org/1999/02/22-rdf-syntax-ns#"
   xmlns:svg="http://www.w3.org/2000/svg"
   xmlns="http://www.w3.org/2000/svg"
   xmlns:sodipodi="http://sodipodi.sourceforge.net/DTD/sodipodi-0.dtd"
   xmlns:inkscape="http://www.inkscape.org/namespaces/inkscape"
   width="128"
   height="64"
   viewBox="0 0 33.866666 16.933334"
   version="1.1"
   id="svg2069"
   inkscape:version="0.92.4 (5da689c313, 2019-01-14)"
   sodipodi:docname="feet_white.svg">
  <defs
     id="defs2063" />
  <sodipodi:namedview
     id="base"
     pagecolor="#ffffff"
     bordercolor="#666666"
     borderopacity="1.0"
     inkscape:pageopacity="0.0"
     inkscape:pageshadow="2"
     inkscape:zoom="11.2"
     inkscape:cx="55.934234"
     inkscape:cy="37.093786"
     inkscape:document-units="mm"
     inkscape:current-layer="layer1"
     showgrid="true"
     units="px"
     inkscape:pagecheckerboard="true"
     inkscape:snap-global="false"
     showguides="false"
     inkscape:window-width="2560"
     inkscape:window-height="1377"
     inkscape:window-x="1912"
     inkscape:window-y="-8"
     inkscape:window-maximized="1">
    <inkscape:grid
       type="xygrid"
       id="grid2614"
       spacingx="16.933333"
       spacingy="16.933333" />
  </sodipodi:namedview>
  <metadata
     id="metadata2066">
    <rdf:RDF>
      <cc:Work
         rdf:about="">
        <dc:format>image/svg+xml</dc:format>
        <dc:type
           rdf:resource="http://purl.org/dc/dcmitype/StillImage" />
        <dc:title></dc:title>
      </cc:Work>
    </rdf:RDF>
  </metadata>
  <g
     inkscape:label="Layer 1"
     inkscape:groupmode="layer"
     id="layer1"
     transform="translate(0,-280.06665)">
    <path
       style="fill:#ffffff;fill-opacity:1;stroke:none;stroke-width:3.17499995;stroke-linecap:square;stroke-linejoin:miter;stroke-miterlimit:4;stroke-dasharray:none;stroke-opacity:1"
       d="m 14.749936,289.08214 c -4e-6,2.83224 -2.667912,2.20497 -6.2474253,2.20497 -3.5795135,0 -6.2975355,0.71079 -6.2975382,-2.12145 -4.3e-6,-2.83225 2.3505242,-3.4077 5.9300426,-3.4077 3.5795189,0 6.6149229,2.14566 6.6149209,3.32418 z"
       id="path2629"
       inkscape:connector-curvature="0"
       sodipodi:nodetypes="sssss" />
    <path
       sodipodi:type="inkscape:offset"
       inkscape:radius="0.68852323"
       inkscape:original="M 8.1347656 285.75781 C 4.5552472 285.75781 2.2050738 286.33377 2.2050781 289.16602 C 2.2050808 291.99826 4.9224396 291.28711 8.5019531 291.28711 C 12.081466 291.28711 14.749996 291.91427 14.75 289.08203 C 14.750002 287.90351 11.714285 285.75781 8.1347656 285.75781 z "
       style="fill:#ffffff;fill-opacity:1;stroke:none;stroke-width:3.17499995;stroke-linecap:square;stroke-linejoin:miter;stroke-miterlimit:4;stroke-dasharray:none;stroke-opacity:1"
       id="path2632"
       d="m 8.1347656,285.06836 c -1.826688,0 -3.3857347,0.12402 -4.6054687,0.71094 -1.219734,0.58692 -2.0136743,1.78015 -2.0136719,3.38672 8e-7,0.81815 0.2131192,1.5106 0.6679688,1.99609 0.4548495,0.48549 1.0740232,0.70549 1.7207031,0.80664 1.2933597,0.2023 2.8534963,0.008 4.5976562,0.008 1.7495449,0 3.3010199,0.17465 4.5859379,-0.0527 0.642458,-0.11369 1.256882,-0.34906 1.701171,-0.8418 0.44429,-0.49274 0.65039,-1.18382 0.650391,-2 10e-7,-0.59022 -0.31038,-1.0486 -0.714844,-1.48437 -0.404464,-0.43578 -0.946202,-0.84842 -1.599609,-1.21875 -1.306814,-0.74067 -3.062899,-1.31055 -4.9902344,-1.31055 z" />
    <path
       sodipodi:type="inkscape:offset"
       inkscape:radius="1.4168202"
       inkscape:original="M 25.068359 285.75781 C 21.48884 285.75781 19.138668 286.33377 19.138672 289.16602 C 19.138675 291.99826 21.856034 291.28711 25.435547 291.28711 C 29.015061 291.28711 31.68359 291.91427 31.683594 289.08203 C 31.683596 287.90351 28.647878 285.75781 25.068359 285.75781 z "
       style="fill:#ffffff;fill-opacity:1;stroke:none;stroke-width:3.17499995;stroke-linecap:square;stroke-linejoin:miter;stroke-miterlimit:4;stroke-dasharray:none;stroke-opacity:1"
       id="path2640"
       d="m 25.068359,284.3418 c -1.86575,0 -3.506717,0.10029 -4.921875,0.78125 -1.415157,0.68095 -2.42383,2.23495 -2.423828,4.04297 1e-6,0.93461 0.255937,1.84587 0.863282,2.49414 0.607344,0.64826 1.405843,0.91241 2.140624,1.02734 1.469564,0.22986 3.013056,0.0156 4.708985,0.0156 1.707011,0 3.247787,0.19873 4.712891,-0.0605 0.732551,-0.12964 1.524777,-0.41742 2.115234,-1.07227 0.590457,-0.65485 0.835936,-1.55773 0.835937,-2.48828 2e-6,-0.90289 -0.436109,-1.47183 -0.908203,-1.98047 -0.472093,-0.50864 -1.06886,-0.95502 -1.77539,-1.35547 -1.413062,-0.80088 -3.274798,-1.40429 -5.347657,-1.40429 z" />
  </g>
</svg>
