<?xml version="1.0" encoding="UTF-8" standalone="no"?>
<!-- Created with Inkscape (http://www.inkscape.org/) -->

<svg
   xmlns:dc="http://purl.org/dc/elements/1.1/"
   xmlns:cc="http://creativecommons.org/ns#"
   xmlns:rdf="http://www.w3.org/1999/02/22-rdf-syntax-ns#"
   xmlns:svg="http://www.w3.org/2000/svg"
   xmlns="http://www.w3.org/2000/svg"
   xmlns:sodipodi="http://sodipodi.sourceforge.net/DTD/sodipodi-0.dtd"
   xmlns:inkscape="http://www.inkscape.org/namespaces/inkscape"
   width="1024"
   height="256"
   viewBox="0 0 270.93333 67.733335"
   version="1.1"
   id="svg8"
   inkscape:version="0.92.4 (5da689c313, 2019-01-14)"
   sodipodi:docname="flame_sheet.svg"
   inkscape:export-filename="C:\Prog\Projets\teeworlds\build_genie\mods\example_render_1\flame_body.png"
   inkscape:export-xdpi="96.000008"
   inkscape:export-ydpi="96.000008">
  <defs
     id="defs2" />
  <sodipodi:namedview
     id="base"
     pagecolor="#ffffff"
     bordercolor="#666666"
     borderopacity="1.0"
     inkscape:pageopacity="0.0"
     inkscape:pageshadow="2"
     inkscape:zoom="1.979899"
     inkscape:cx="533.07832"
     inkscape:cy="148.09109"
     inkscape:document-units="mm"
     inkscape:current-layer="layer4"
     showgrid="false"
     units="px"
     inkscape:snap-global="true"
     inkscape:window-width="2560"
     inkscape:window-height="1377"
     inkscape:window-x="1912"
     inkscape:window-y="-8"
     inkscape:window-maximized="1"
     inkscape:snap-page="true"
     inkscape:pagecheckerboard="true" />
  <metadata
     id="metadata5">
    <rdf:RDF>
      <cc:Work
         rdf:about="">
        <dc:format>image/svg+xml</dc:format>
        <dc:type
           rdf:resource="http://purl.org/dc/dcmitype/StillImage" />
        <dc:title></dc:title>
      </cc:Work>
    </rdf:RDF>
  </metadata>
  <g
     inkscape:label="Layer 1"
     inkscape:groupmode="layer"
     id="layer1"
     transform="translate(0,-229.26663)"
     style="display:inline">
    <path
       style="fill:#ffffff;stroke:none;stroke-width:0.26458332px;stroke-linecap:butt;stroke-linejoin:miter;stroke-opacity:1;fill-opacity:1"
       d="m 25.607887,287.07809 c 0,0 -5.386161,-1.18118 -6.898066,-3.77976 -1.511905,-2.59859 -2.173362,-4.53572 -3.16555,-5.29167 -0.992187,-0.75596 -0.472471,-5.90588 -0.472471,-5.90588 0,0 0.755953,2.74033 1.74814,4.29948 0.930615,1.4624 1.27567,1.22842 1.606399,0.42522 0.330729,-0.8032 -0.330729,-1.70089 -0.472471,-2.59858 -0.141741,-0.8977 0.377977,-1.84264 0.236236,-2.55134 -0.141741,-0.70871 -0.519717,-2.26786 -0.425226,-2.78758 0.09449,-0.51971 0.803199,-1.88988 -0.09449,-2.78757 -0.897694,-0.89769 -1.181176,-1.74814 -1.133929,-2.74033 0.03905,-0.943 0.541762,-2.11664 0.992187,-4.81919 0,0 0.188989,2.83482 0.8032,3.73251 0.614211,0.8977 1.086681,2.50409 1.795387,2.03162 0.708705,-0.47247 1.228423,-2.12611 0.897693,-3.44903 -0.330729,-1.32292 1.086682,-6.18936 2.126116,-6.75632 1.039435,-0.56697 2.645834,-0.47247 3.82701,-1.08669 1.181174,-0.61421 3.779761,-5.5279 3.638021,-6.56733 -0.141742,-1.03944 -0.236236,-2.59859 -0.755954,-3.49628 -0.519716,-0.8977 -1.937128,-2.78758 -1.937128,-2.78758 0,0 9.638395,4.8192 10.252604,6.56734 0.614211,1.74814 2.55134,4.25223 3.165551,5.71689 0.614212,1.46466 1.41741,2.74033 2.456844,4.016 1.039437,1.27567 2.55134,2.4096 3.543528,4.11049 0.992187,1.70089 1.653646,2.92931 2.126117,4.48846 0.47247,1.55916 0,1.65365 0.803199,1.84264 0.803198,0.18899 1.370163,-0.85045 1.27567,-1.74814 -0.09449,-0.89769 -2.031622,-4.86644 -2.031622,-4.86644 0,0 1.984375,2.17336 2.740327,3.40178 0.755951,1.22842 1.937128,4.39398 1.27567,5.5279 -0.661459,1.13393 -1.41741,2.55134 -1.322917,3.87426 0.09449,1.32292 0.803198,3.26004 -0.141743,4.77195 -0.944938,1.5119 -3.354538,3.73251 -2.315104,3.73251 1.039437,0 1.417413,-0.66146 1.653646,-0.99219 0.236236,-0.33072 1.653646,-1.5119 1.653646,-1.5119 0,0 -0.566962,1.88988 -1.511903,2.55134 -0.944941,0.66146 -2.740327,2.03162 -3.401785,2.45685 -0.661459,0.42522 -3.68527,2.92931 -4.157739,3.16555 -0.472469,0.23623 -3.307292,1.55915 -4.15774,1.65364 -0.850444,0.0945 -8.646204,0.14174 -9.16592,-0.14174 -0.519719,-0.28348 -1.653646,-0.61421 -2.645833,-0.85044 -0.992188,-0.23624 -2.409599,-0.85045 -2.409599,-0.85045 z"
       id="path817"
       inkscape:connector-curvature="0"
       sodipodi:nodetypes="ccccsscccscccssccscccscscsccscccsccsccccccc" />
  </g>
  <g
     inkscape:groupmode="layer"
     id="layer2"
     inkscape:label="Layer 2"
     style="display:inline">
    <path
       style="fill:#ffffff;stroke:none;stroke-width:0.26458332px;stroke-linecap:butt;stroke-linejoin:miter;stroke-opacity:1;fill-opacity:1"
       d="m 101.75119,59.890326 c 0,0 -10.158113,-2.409598 -11.103054,-2.740327 -0.94494,-0.330729 -3.023809,-3.307291 -3.63802,-4.157739 -2.341341,-1.986792 -2.803467,-5.212987 -2.598587,-7.748511 0.141741,-1.181174 0.472471,-3.685267 -0.141744,-4.771948 -0.614211,-1.086683 -0.94494,-1.889881 -0.755952,-3.023812 0.03178,-4.409789 0.714804,-3.494083 2.409598,-7.890251 0,0 -0.661458,3.496278 -0.755952,4.204983 -0.09449,0.708708 0.661458,1.700893 0.661458,1.700893 0,0 0.803195,0.803202 1.511904,0.141744 0.708706,-0.661459 0.566965,-1.937129 0.944941,-2.693081 0.377976,-0.755954 -0.188988,-0.850447 1.322917,-2.69308 2.024446,-1.497051 1.437445,-3.766834 2.740327,-5.669644 1.086682,-1.511905 0.8032,-3.827009 0.755952,-4.015997 -0.04725,-0.188988 -0.566964,-2.551339 -0.566964,-2.551339 0,0 0.897694,1.133929 1.370164,2.031622 0.472471,0.897693 1.275669,2.315104 1.417409,2.882068 0.141743,0.566965 0.944941,1.889881 1.748142,1.417411 0.803198,-0.47247 1.322916,-2.078869 1.322916,-2.078869 0.652706,-2.738932 -1.120591,-4.445848 0.425223,-6.709078 0.897694,-1.228422 1.181172,-1.086681 1.511902,-2.456845 0.33073,-1.370164 1.03944,-3.2600441 0.8977,-3.7325143 -0.14174,-0.4724701 -0.42523,-1.2284227 -0.42523,-1.2284227 0,0 1.03944,0.5197172 1.37017,1.2284227 0.33073,0.7087053 1.6064,2.3623513 2.45684,3.4962803 0.85045,1.133928 2.69308,4.677455 2.59859,6.18936 -0.0945,1.511904 1.84263,2.22061 2.26786,3.260044 1.17786,2.525108 0.61512,4.715499 1.60639,5.480655 1.41336,0.848008 1.55916,0.472469 1.46466,-0.236236 -0.0945,-0.708705 -0.7087,-3.543526 -0.7087,-3.543526 0,0 1.22842,1.181176 1.88988,2.504091 0.66146,1.322917 0.94494,2.504094 1.32291,3.685268 0.37798,1.181177 0.66146,2.220611 1.13393,2.834822 0.47247,0.614212 0.37798,2.173365 1.46466,1.228424 1.08668,-0.944941 0.18899,-4.724703 0.18899,-4.724703 0,0 1.74814,4.015998 1.6064,5.575148 -0.14174,1.559152 -0.75596,2.315104 -0.33073,3.732516 0.42522,1.41741 1.55915,1.275666 1.79539,3.96875 0.23623,2.69308 -0.75596,3.307292 -1.22843,4.11049 -0.47247,0.803199 -1.37016,2.740328 -2.07887,4.063244 -0.7087,1.322917 -2.17336,2.456845 -0.7087,1.842634 0.94494,-0.04725 2.64583,-2.267856 2.64583,-2.267856 0,0 -0.61421,3.354538 -1.93713,4.063243 -1.32291,0.708705 -2.26785,1.086683 -3.02381,1.653645 -2.65255,2.407262 -3.61433,3.153512 -7.55952,3.779762 -3.16555,0.236238 -5.29167,-0.141741 -5.29167,-0.141741 z"
       id="path837"
       inkscape:connector-curvature="0"
       sodipodi:nodetypes="cscccccccccccccsccccscccscccccsscscccscsccscccc" />
  </g>
  <g
     inkscape:groupmode="layer"
     id="layer3"
     inkscape:label="Layer 3"
     style="display:inline">
    <path
       style="fill:#ffffff;stroke:none;stroke-width:0.26458332px;stroke-linecap:butt;stroke-linejoin:miter;stroke-opacity:1;fill-opacity:1"
       d="m 168.44508,59.748586 c -2.71912,-0.729963 -5.53386,-1.124141 -8.21656,-1.954846 -2.42516,-0.701726 -3.59974,-2.320711 -5.34186,-3.967273 -1.95529,-1.952616 -5.08551,-5.483621 -5.14107,-10.801113 -0.0556,-5.317492 0.31004,-6.646691 1.30668,-8.843315 0.5977,-2.051423 1.57914,-1.54084 3.83291,-4.907785 -0.58589,2.43538 -1.27609,5.901171 0.30536,8.436572 1.58146,2.5354 2.11524,1.059547 2.50731,-1.232872 0.54911,-2.956382 -1.15898,-5.435856 0.29059,-8.304126 1.36377,-1.634531 1.33389,-3.951849 1.99614,-5.921666 0.80576,-2.830814 0.84764,1.803861 1.54813,2.406468 2.70322,0.849606 3.02294,-3.499917 3.16804,-5.412551 0.15486,-2.186259 3.1053,-1.303636 3.59276,-3.346177 1.55652,-1.786875 4.0063,-1.40148 5.9194,-2.436147 1.21428,-0.458964 3.77833,-2.505811 3.98038,-2.256511 -1.29235,1.850348 -2.61117,3.684955 -3.9599,5.487034 -1.67978,2.456081 1.14369,2.703401 3.00111,3.786871 1.85741,1.08347 0.85644,4.774867 1.75275,6.723192 0.54679,1.915431 2.2842,1.877605 3.31828,0.261889 0.9853,-1.42874 -0.93879,-3.885296 -0.82028,-4.475825 1.79897,1.788599 4.7439,3.001196 4.71635,5.833821 0.19678,2.772568 -0.33801,6.257232 -2.02917,8.588333 -1.01946,1.835838 0.0626,5.764313 2.60449,3.874255 1.22707,-0.381633 1.27605,-3.668531 1.60049,-3.029714 0.13232,2.067516 -0.0685,6.783045 -1.6027,8.561309 -1.53425,1.778265 0.0115,1.717889 -0.9622,3.748894 -0.73608,2.525478 -2.66356,4.35486 -4.15742,6.415145 -1.07854,1.989217 -3.58878,2.271846 -5.54474,2.920617 -2.16356,0.05901 -4.43769,1.177506 -6.52913,0.403629 -0.38599,-0.170655 -0.76496,-0.357311 -1.13614,-0.558108 z"
       id="path840"
       inkscape:connector-curvature="0"
       sodipodi:nodetypes="ccczcczccccccccczccccccczccccc" />
    <path
       style="fill:#ffffff;stroke:none;stroke-width:0.26458332px;stroke-linecap:butt;stroke-linejoin:miter;stroke-opacity:1;fill-opacity:1"
       d="m 161.87774,15.997842 c 0.47247,-0.425223 0.70871,-1.370163 1.03943,-1.653646 0.33073,-0.283482 -0.23623,-1.228422 -0.23623,-1.984374 0,-0.755953 0.37798,-0.992188 0.28348,-1.795387 -0.0945,-0.8032004 -0.18899,-1.7481404 -0.18899,-1.7481404 0,0 -0.56696,1.2756694 -0.85044,2.1733634 -0.28348,0.897693 0.18899,1.417411 -0.0472,2.126116 -0.23624,0.708705 -0.47247,1.417411 -0.47247,1.417411 z"
       id="path842"
       inkscape:connector-curvature="0"
       sodipodi:nodetypes="ccsccsccc" />
    <path
       style="fill:#ffffff;stroke:none;stroke-width:0.26458332px;stroke-linecap:butt;stroke-linejoin:miter;stroke-opacity:1;fill-opacity:1"
       d="m 182.39739,18.123958 c -0.28348,-0.519717 -0.47247,-0.850446 -0.23624,-1.228423 0.23624,-0.377976 0.28349,-1.700892 0.28349,-1.700892 0,0 -0.28349,-0.33073 -0.0472,0.09449 0.23623,0.425223 0.66145,0.94494 0.61421,1.322916 -0.0472,0.377976 -0.61421,1.511905 -0.61421,1.511905 z"
       id="path844"
       inkscape:connector-curvature="0" />
  </g>
  <g
     inkscape:groupmode="layer"
     id="layer4"
     inkscape:label="Layer 4"
     style="display:inline">
    <path
       style="display:inline;fill:#ffffff;stroke:none;stroke-width:0.26458332px;stroke-linecap:butt;stroke-linejoin:miter;stroke-opacity:1;fill-opacity:1"
       d="m 237.31233,60.268302 c -4.06674,-0.75405 -8.28301,-0.894076 -12.1447,-2.523285 -2.74786,-0.497386 -1.88814,-4.358175 -4.76973,-4.84725 -2.24821,-0.891542 -2.52263,-3.586231 -2.43058,-5.68901 0.0674,-0.921624 -0.006,-3.557712 0.11547,-3.459194 0.86218,1.004363 1.22176,3.843203 2.65986,3.572317 1.33914,-2.041594 -0.50383,-4.20395 -1.09776,-6.163522 -0.33527,-2.061576 0.52111,-4.468195 1.82197,-6.031377 1.63775,-1.155357 2.63915,-3.075197 2.69419,-5.040574 -0.80822,-2.120724 -0.70633,-4.561041 0.34733,-6.576288 1.23263,-1.777551 1.94701,-3.822602 3.488,-5.387026 0.96443,-1.411917 1.52189,-3.504137 2.37064,-4.723837 -0.0172,1.899217 -1.0243,3.752566 -0.64402,5.64362 1.35408,2.013363 4.7296,2.245227 6.07374,0.08287 1.06139,-2.284948 4.2711,-1.051488 5.16173,0.788435 0.74706,1.235975 2.72306,4.689935 3.15728,1.491523 0.0527,-1.12576 -0.69111,-2.868001 0.71476,-1.273744 2.19151,1.765113 1.51454,4.838126 2.26491,7.248728 0.3378,2.121013 1.40976,4.271982 3.55238,5.017782 2.15251,0.387462 2.76277,2.757653 2.87015,4.629984 0.1201,2.454602 0.85883,5.045657 -0.17144,7.398258 -0.82436,2.418134 1.98355,0.723138 2.25909,0.19213 -0.58866,1.995095 -0.98714,4.025184 -1.60972,5.997049 0.10574,2.112832 -1.81359,3.555381 -2.55768,5.419848 -1.22835,2.273474 -3.83795,2.994136 -6.21051,3.332664 -2.56651,0.763241 -5.25069,0.930895 -7.91536,0.899903 z"
       id="path848"
       inkscape:connector-curvature="0" />
    <path
       style="display:inline;fill:#ffffff;stroke:none;stroke-width:0.26458332px;stroke-linecap:butt;stroke-linejoin:miter;stroke-opacity:1;fill-opacity:1"
       d="m 230.41427,3.3356396 c -0.20227,-0.016294 -0.38883,0.1484399 -0.41705,0.3459194 -0.0548,0.2652805 0.0246,0.5312759 0.0482,0.795289 0.0337,0.2466573 0.0788,0.4923916 0.0901,0.741521 0.0601,0.202711 0.18852,0.3837069 0.35243,0.5156811 0.10909,0.088679 0.22531,-0.00435 0.24999,-0.119812 0.1363,-0.2889668 0.27252,-0.5927607 0.27872,-0.9176068 0.008,-0.127453 -0.0771,-0.2220195 -0.15075,-0.3137015 -0.17427,-0.2591284 -0.2759,-0.5576174 -0.38449,-0.8480605 -0.0233,-0.066104 -0.0457,-0.1325082 -0.0672,-0.1992297 z"
       id="path850"
       inkscape:connector-curvature="0" />
    <path
       style="display:inline;fill:#ffffff;stroke:none;stroke-width:0.26458332px;stroke-linecap:butt;stroke-linejoin:miter;stroke-opacity:1;fill-opacity:1"
       d="m 242.94475,12.251918 c -0.20372,-0.5626 -0.3156,-1.152392 -0.47214,-1.728697 -0.0614,-0.295024 0.0421,-0.6013339 0.20838,-0.8443521 0.0967,0.3078576 0.2591,0.5885661 0.40686,0.8734621 0.17038,0.404419 0.23783,0.842524 0.30428,1.273609 0.0227,0.160731 0.0427,0.321876 0.0582,0.483461 -0.0911,0.02496 -0.18228,0.04992 -0.27342,0.07488 -0.0774,-0.04412 -0.15479,-0.08824 -0.23219,-0.132363 z"
       id="path852"
       inkscape:connector-curvature="0" />
    <path
       style="display:inline;fill:#ffffff;stroke:none;stroke-width:0.26458332px;stroke-linecap:butt;stroke-linejoin:miter;stroke-opacity:1;fill-opacity:1"
       d="m 236.66222,7.9285855 c -0.81261,-2.3846332 0.58155,-1.220339 0.85007,-0.3222233 0.61839,1.2961041 0.66297,2.7822468 1.27187,4.0875768 0.63101,0.97484 0.0316,2.098048 -1.14061,2.089282 -0.60347,0.06746 -2.23753,0.151278 -1.85584,-0.808923 0.3817,-0.9602 1.36729,-3.2038168 0.87451,-5.0457125 z"
       id="path854"
       inkscape:connector-curvature="0"
       sodipodi:nodetypes="cccczc" />
  </g>
</svg>
