<?xml version="1.0" encoding="UTF-8" standalone="no"?>
<!-- Created with Inkscape (http://www.inkscape.org/) -->

<svg
   xmlns:dc="http://purl.org/dc/elements/1.1/"
   xmlns:cc="http://creativecommons.org/ns#"
   xmlns:rdf="http://www.w3.org/1999/02/22-rdf-syntax-ns#"
   xmlns:svg="http://www.w3.org/2000/svg"
   xmlns="http://www.w3.org/2000/svg"
   xmlns:sodipodi="http://sodipodi.sourceforge.net/DTD/sodipodi-0.dtd"
   xmlns:inkscape="http://www.inkscape.org/namespaces/inkscape"
   width="256"
   height="256"
   viewBox="0 0 67.733333 67.733335"
   version="1.1"
   id="svg8"
   inkscape:version="0.92.4 (5da689c313, 2019-01-14)"
   sodipodi:docname="flame.svg">
  <defs
     id="defs2" />
  <sodipodi:namedview
     id="base"
     pagecolor="#ffffff"
     bordercolor="#666666"
     borderopacity="1.0"
     inkscape:pageopacity="0.0"
     inkscape:pageshadow="2"
     inkscape:zoom="3.959798"
     inkscape:cx="184.43815"
     inkscape:cy="126.86607"
     inkscape:document-units="mm"
     inkscape:current-layer="layer3"
     showgrid="false"
     units="px"
     inkscape:snap-global="false"
     inkscape:window-width="2560"
     inkscape:window-height="1377"
     inkscape:window-x="1912"
     inkscape:window-y="-8"
     inkscape:window-maximized="1" />
  <metadata
     id="metadata5">
    <rdf:RDF>
      <cc:Work
         rdf:about="">
        <dc:format>image/svg+xml</dc:format>
        <dc:type
           rdf:resource="http://purl.org/dc/dcmitype/StillImage" />
        <dc:title></dc:title>
      </cc:Work>
    </rdf:RDF>
  </metadata>
  <g
     inkscape:label="Layer 1"
     inkscape:groupmode="layer"
     id="layer1"
     transform="translate(0,-229.26663)"
     style="display:none">
    <circle
       style="fill:#baa557;fill-opacity:1;stroke:none;stroke-width:2.16725159;stroke-miterlimit:4;stroke-dasharray:none;stroke-opacity:1"
       id="path815"
       cx="34.679314"
       cy="273.09296"
       r="16.189886" />
    <path
       style="fill:none;stroke:#9e9e9e;stroke-width:0.26458332px;stroke-linecap:butt;stroke-linejoin:miter;stroke-opacity:1"
       d="m 25.607887,287.07809 c 0,0 -5.386161,-1.18118 -6.898066,-3.77976 -1.511905,-2.59859 -2.173362,-4.53572 -3.16555,-5.29167 -0.992187,-0.75596 -0.472471,-5.90588 -0.472471,-5.90588 0,0 0.755953,2.74033 1.74814,4.29948 0.930615,1.4624 1.27567,1.22842 1.606399,0.42522 0.330729,-0.8032 -0.330729,-1.70089 -0.472471,-2.59858 -0.141741,-0.8977 0.377977,-1.84264 0.236236,-2.55134 -0.141741,-0.70871 -0.519717,-2.26786 -0.425226,-2.78758 0.09449,-0.51971 0.803199,-1.88988 -0.09449,-2.78757 -0.897694,-0.89769 -1.181176,-1.74814 -1.133929,-2.74033 0.03905,-0.943 0.541762,-2.11664 0.992187,-4.81919 0,0 0.188989,2.83482 0.8032,3.73251 0.614211,0.8977 1.086681,2.50409 1.795387,2.03162 0.708705,-0.47247 1.228423,-2.12611 0.897693,-3.44903 -0.330729,-1.32292 1.086682,-6.18936 2.126116,-6.75632 1.039435,-0.56697 2.645834,-0.47247 3.82701,-1.08669 1.181174,-0.61421 3.779761,-5.5279 3.638021,-6.56733 -0.141742,-1.03944 -0.236236,-2.59859 -0.755954,-3.49628 -0.519716,-0.8977 -1.937128,-2.78758 -1.937128,-2.78758 0,0 9.638395,4.8192 10.252604,6.56734 0.614211,1.74814 2.55134,4.25223 3.165551,5.71689 0.614212,1.46466 1.41741,2.74033 2.456844,4.016 1.039437,1.27567 2.55134,2.4096 3.543528,4.11049 0.992187,1.70089 1.653646,2.92931 2.126117,4.48846 0.47247,1.55916 0,1.65365 0.803199,1.84264 0.803198,0.18899 1.370163,-0.85045 1.27567,-1.74814 -0.09449,-0.89769 -2.031622,-4.86644 -2.031622,-4.86644 0,0 1.984375,2.17336 2.740327,3.40178 0.755951,1.22842 1.937128,4.39398 1.27567,5.5279 -0.661459,1.13393 -1.41741,2.55134 -1.322917,3.87426 0.09449,1.32292 0.803198,3.26004 -0.141743,4.77195 -0.944938,1.5119 -3.354538,3.73251 -2.315104,3.73251 1.039437,0 1.417413,-0.66146 1.653646,-0.99219 0.236236,-0.33072 1.653646,-1.5119 1.653646,-1.5119 0,0 -0.566962,1.88988 -1.511903,2.55134 -0.944941,0.66146 -2.740327,2.03162 -3.401785,2.45685 -0.661459,0.42522 -3.68527,2.92931 -4.157739,3.16555 -0.472469,0.23623 -3.307292,1.55915 -4.15774,1.65364 -0.850444,0.0945 -8.646204,0.14174 -9.16592,-0.14174 -0.519719,-0.28348 -1.653646,-0.61421 -2.645833,-0.85044 -0.992188,-0.23624 -2.409599,-0.85045 -2.409599,-0.85045 z"
       id="path817"
       inkscape:connector-curvature="0"
       sodipodi:nodetypes="ccccsscccscccssccscccscscsccscccsccsccccccc" />
  </g>
  <g
     inkscape:groupmode="layer"
     id="layer2"
     inkscape:label="Layer 2"
     style="display:none">
    <path
       style="fill:none;stroke:#939393;stroke-width:0.26458332px;stroke-linecap:butt;stroke-linejoin:miter;stroke-opacity:1"
       d="m 34.017857,59.890326 c 0,0 -10.15811,-2.409598 -11.103051,-2.740327 -0.94494,-0.330729 -3.023809,-3.307291 -3.63802,-4.157739 -2.341341,-1.986792 -2.803467,-5.212987 -2.598587,-7.748511 0.141741,-1.181174 0.472471,-3.685267 -0.141744,-4.771948 -0.614211,-1.086683 -0.94494,-1.889881 -0.755952,-3.023812 0.03178,-4.409789 0.714804,-3.494083 2.409598,-7.890251 0,0 -0.661458,3.496278 -0.755952,4.204983 -0.09449,0.708708 0.661458,1.700893 0.661458,1.700893 0,0 0.803195,0.803202 1.511904,0.141744 0.708706,-0.661459 0.566965,-1.937129 0.944941,-2.693081 0.377976,-0.755954 -0.188988,-0.850447 1.322917,-2.69308 2.024446,-1.497051 1.437445,-3.766834 2.740327,-5.669644 1.086682,-1.511905 0.8032,-3.827009 0.755952,-4.015997 -0.04725,-0.188988 -0.566964,-2.551339 -0.566964,-2.551339 0,0 0.897694,1.133929 1.370164,2.031622 0.472471,0.897693 1.275669,2.315104 1.417409,2.882068 0.141743,0.566965 0.944941,1.889881 1.748142,1.417411 0.803198,-0.47247 1.322916,-2.078869 1.322916,-2.078869 0.652706,-2.738932 -1.120591,-4.445848 0.425223,-6.709078 0.897694,-1.228422 1.181177,-1.086681 1.511906,-2.456845 0.330729,-1.370164 1.039434,-3.2600441 0.897692,-3.7325143 -0.14174,-0.4724701 -0.425223,-1.2284227 -0.425223,-1.2284227 0,0 1.039434,0.5197172 1.370164,1.2284227 0.330729,0.7087053 1.606399,2.3623513 2.456846,3.4962803 0.850445,1.133928 2.69308,4.677455 2.598584,6.18936 -0.09449,1.511904 1.842636,2.22061 2.26786,3.260044 1.177863,2.525108 0.615119,4.715499 1.606397,5.480655 1.413353,0.848008 1.559152,0.472469 1.464659,-0.236236 -0.09449,-0.708705 -0.708707,-3.543526 -0.708707,-3.543526 0,0 1.228423,1.181176 1.889881,2.504091 0.661459,1.322917 0.944941,2.504094 1.322917,3.685268 0.377976,1.181177 0.661458,2.220611 1.13393,2.834822 0.472469,0.614212 0.377976,2.173365 1.464657,1.228424 1.08668,-0.944941 0.188988,-4.724703 0.188988,-4.724703 0,0 1.74814,4.015998 1.606397,5.575148 -0.14174,1.559152 -0.755951,2.315104 -0.330729,3.732516 0.425225,1.41741 1.559153,1.275666 1.795389,3.96875 0.236233,2.69308 -0.755952,3.307292 -1.228424,4.11049 -0.472469,0.803199 -1.370163,2.740328 -2.078868,4.063244 -0.708705,1.322917 -2.173365,2.456845 -0.708706,1.842634 0.94494,-0.04725 2.645833,-2.267856 2.645833,-2.267856 0,0 -0.614211,3.354538 -1.937127,4.063243 -1.322917,0.708705 -2.267858,1.086683 -3.023809,1.653645 -2.652552,2.407262 -3.614333,3.153512 -7.559525,3.779762 -3.165551,0.236238 -5.291666,-0.141741 -5.291666,-0.141741 z"
       id="path837"
       inkscape:connector-curvature="0"
       sodipodi:nodetypes="cscccccccccccccsccccscccscccccsscscccscsccscccc" />
  </g>
  <g
     inkscape:groupmode="layer"
     id="layer3"
     inkscape:label="Layer 3">
    <path
       style="fill:none;stroke:#c5c5c5;stroke-width:0.26458332px;stroke-linecap:butt;stroke-linejoin:miter;stroke-opacity:1"
       d="m 32.978423,59.748586 c -2.719115,-0.729963 -5.533858,-1.124141 -8.216553,-1.954846 -2.425163,-0.701726 -3.59974,-2.320711 -5.341867,-3.967273 -1.95529,-1.952616 -5.085504,-5.483621 -5.141067,-10.801113 -0.05556,-5.317492 0.310044,-6.646691 1.306676,-8.843315 0.597702,-2.051423 1.57914,-1.54084 3.832915,-4.907785 -0.585891,2.43538 -1.276091,5.901171 0.305362,8.436572 1.581453,2.5354 2.115238,1.059547 2.507311,-1.232872 0.549101,-2.956382 -1.15898,-5.435856 0.290586,-8.304126 1.36377,-1.634531 1.333885,-3.951849 1.996136,-5.921666 0.805767,-2.830814 0.847648,1.803861 1.548131,2.406468 2.703224,0.849606 3.022941,-3.499917 3.168042,-5.412551 0.154859,-2.186259 3.105299,-1.303636 3.59276,-3.346177 1.556519,-1.786875 4.006304,-1.40148 5.919401,-2.436147 1.214276,-0.458964 3.778329,-2.505811 3.980379,-2.256511 -1.292354,1.850348 -2.611169,3.684955 -3.959899,5.487034 -1.679777,2.456081 1.143693,2.703401 3.001107,3.786871 1.857414,1.08347 0.856447,4.774867 1.752755,6.723192 0.546785,1.915431 2.284202,1.877605 3.318273,0.261889 0.985303,-1.42874 -0.938786,-3.885296 -0.820272,-4.475825 1.798966,1.788599 4.743898,3.001196 4.716351,5.833821 0.196778,2.772568 -0.338016,6.257232 -2.029175,8.588333 -1.01946,1.835838 0.06265,5.764313 2.604491,3.874255 1.227065,-0.381633 1.276047,-3.668531 1.600493,-3.029714 0.132314,2.067516 -0.06846,6.783045 -1.602707,8.561309 -1.534248,1.778265 0.01149,1.717889 -0.962196,3.748894 -0.736082,2.525478 -2.663561,4.35486 -4.157416,6.415145 -1.078545,1.989217 -3.58878,2.271846 -5.544742,2.920617 -2.163562,0.05901 -4.437693,1.177506 -6.529133,0.403629 -0.385987,-0.170655 -0.764959,-0.357311 -1.136142,-0.558108 z"
       id="path840"
       inkscape:connector-curvature="0"
       sodipodi:nodetypes="ccczcczccccccccczccccccczccccc" />
    <path
       style="fill:none;stroke:#bfbfbf;stroke-width:0.26458332px;stroke-linecap:butt;stroke-linejoin:miter;stroke-opacity:1"
       d="m 26.411086,15.997842 c 0.472469,-0.425223 0.708705,-1.370163 1.039434,-1.653646 0.330729,-0.283482 -0.236234,-1.228422 -0.236234,-1.984374 0,-0.755953 0.377975,-0.992188 0.283482,-1.795387 -0.09449,-0.8032004 -0.188989,-1.7481404 -0.188989,-1.7481404 0,0 -0.566962,1.2756694 -0.850445,2.1733634 -0.283482,0.897693 0.188987,1.417411 -0.04725,2.126116 -0.236235,0.708705 -0.472471,1.417411 -0.472471,1.417411 z"
       id="path842"
       inkscape:connector-curvature="0"
       sodipodi:nodetypes="ccsccsccc" />
    <path
       style="fill:none;stroke:#c9c9c9;stroke-width:0.26458332px;stroke-linecap:butt;stroke-linejoin:miter;stroke-opacity:1"
       d="m 41.813614,18.123958 c -0.283479,-0.519717 -0.472469,-0.850446 -0.236233,-1.228423 0.236233,-0.377976 0.283483,-1.700892 0.283483,-1.700892 0,0 -0.283483,-0.33073 -0.04725,0.09449 0.236236,0.425223 0.661459,0.94494 0.614212,1.322916 -0.04725,0.377976 -0.614212,1.511905 -0.614212,1.511905 z"
       id="path844"
       inkscape:connector-curvature="0" />
    <path
       style="fill:none;stroke:#000000;stroke-width:0.26458332px;stroke-linecap:butt;stroke-linejoin:miter;stroke-opacity:1"
       d="m 34.11235,60.268302 c -4.066742,-0.75405 -8.28301,-0.894076 -12.144699,-2.523285 -2.74786,-0.497386 -1.88814,-4.358175 -4.769735,-4.84725 -2.248212,-0.891542 -2.522628,-3.586231 -2.430579,-5.68901 0.06742,-0.921624 -0.0065,-3.557712 0.11547,-3.459194 0.862186,1.004363 1.221759,3.843203 2.659861,3.572317 1.339141,-2.041594 -0.503829,-4.20395 -1.097755,-6.163522 -0.335273,-2.061576 0.521105,-4.468195 1.821963,-6.031377 1.637749,-1.155357 2.639151,-3.075197 2.694188,-5.040574 -0.808219,-2.120724 -0.706321,-4.561041 0.347339,-6.576288 1.232629,-1.777551 1.947001,-3.822602 3.487998,-5.387026 0.964425,-1.411917 1.521886,-3.504137 2.370633,-4.723837 -0.01719,1.899217 -1.024296,3.752566 -0.644014,5.64362 1.354082,2.013363 4.729603,2.245227 6.073734,0.08287 1.061398,-2.284948 4.271105,-1.051488 5.161737,0.788435 0.747061,1.235975 2.723054,4.689935 3.15728,1.491523 0.05268,-1.12576 -0.691116,-2.868001 0.714759,-1.273744 2.191505,1.765113 1.514543,4.838126 2.264904,7.248728 0.337802,2.121013 1.409764,4.271982 3.552385,5.017782 2.152511,0.387462 2.762774,2.757653 2.870148,4.629984 0.120099,2.454602 0.858831,5.045657 -0.171439,7.398258 -0.824356,2.418134 1.983546,0.723138 2.259091,0.19213 -0.588657,1.995095 -0.987138,4.025184 -1.609718,5.997049 0.10574,2.112832 -1.813591,3.555381 -2.557684,5.419848 -1.228346,2.273474 -3.837953,2.994136 -6.210513,3.332664 -2.566504,0.763241 -5.250689,0.930895 -7.915354,0.899903 z"
       id="path848"
       inkscape:connector-curvature="0" />
    <path
       style="fill:none;stroke:#000000;stroke-width:0.26458332px;stroke-linecap:butt;stroke-linejoin:miter;stroke-opacity:1"
       d="m 27.214285,3.3356396 c -0.202266,-0.016294 -0.388823,0.1484399 -0.417046,0.3459194 -0.05485,0.2652805 0.02462,0.5312759 0.04824,0.795289 0.03371,0.2466573 0.07878,0.4923916 0.09014,0.741521 0.06007,0.202711 0.188517,0.3837069 0.352425,0.5156811 0.109091,0.088679 0.225312,-0.00435 0.24999,-0.119812 0.136301,-0.2889668 0.272525,-0.5927607 0.278725,-0.9176068 0.0076,-0.127453 -0.07708,-0.2220195 -0.150753,-0.3137015 -0.174267,-0.2591284 -0.275893,-0.5576174 -0.384491,-0.8480605 -0.0233,-0.066104 -0.04575,-0.1325082 -0.06722,-0.1992297 z"
       id="path850"
       inkscape:connector-curvature="0" />
    <path
       style="fill:none;stroke:#000000;stroke-width:0.26458332px;stroke-linecap:butt;stroke-linejoin:miter;stroke-opacity:1"
       d="m 39.744771,12.251918 c -0.203727,-0.5626 -0.315604,-1.152392 -0.472147,-1.728697 -0.06139,-0.295024 0.04214,-0.6013339 0.208387,-0.8443521 0.09669,0.3078576 0.259101,0.5885661 0.406857,0.8734621 0.170378,0.404419 0.237828,0.842524 0.304278,1.273609 0.0227,0.160731 0.04266,0.321876 0.05823,0.483461 -0.09114,0.02496 -0.182277,0.04992 -0.273415,0.07488 -0.0774,-0.04412 -0.154797,-0.08824 -0.232195,-0.132363 z"
       id="path852"
       inkscape:connector-curvature="0" />
    <path
       style="fill:none;stroke:#000000;stroke-width:0.26458332px;stroke-linecap:butt;stroke-linejoin:miter;stroke-opacity:1"
       d="m 33.462241,7.9285855 c -0.812609,-2.3846332 0.581552,-1.220339 0.850065,-0.3222233 0.618392,1.2961041 0.662977,2.7822468 1.27187,4.0875768 0.631012,0.97484 0.03165,2.098048 -1.140607,2.089282 -0.603468,0.06746 -2.237535,0.151278 -1.855837,-0.808923 0.381698,-0.9602 1.367285,-3.2038168 0.874509,-5.0457125 z"
       id="path854"
       inkscape:connector-curvature="0"
       sodipodi:nodetypes="cccczc" />
  </g>
  <g
     inkscape:groupmode="layer"
     id="layer4"
     inkscape:label="Layer 4" />
</svg>
