<?xml version="1.0" encoding="UTF-8" standalone="no"?>
<!-- Created with Inkscape (http://www.inkscape.org/) -->

<svg
   xmlns:dc="http://purl.org/dc/elements/1.1/"
   xmlns:cc="http://creativecommons.org/ns#"
   xmlns:rdf="http://www.w3.org/1999/02/22-rdf-syntax-ns#"
   xmlns:svg="http://www.w3.org/2000/svg"
   xmlns="http://www.w3.org/2000/svg"
   xmlns:sodipodi="http://sodipodi.sourceforge.net/DTD/sodipodi-0.dtd"
   xmlns:inkscape="http://www.inkscape.org/namespaces/inkscape"
   width="1024"
   height="1024"
   viewBox="0 0 270.93333 270.93334"
   version="1.1"
   id="svg8"
   inkscape:version="0.92.4 (5da689c313, 2019-01-14)"
   sodipodi:docname="hive.svg">
  <defs
     id="defs2" />
  <sodipodi:namedview
     id="base"
     pagecolor="#ffffff"
     bordercolor="#666666"
     borderopacity="1.0"
     inkscape:pageopacity="0.0"
     inkscape:pageshadow="2"
     inkscape:zoom="1.1816406"
     inkscape:cx="534.22532"
     inkscape:cy="518.38059"
     inkscape:document-units="mm"
     inkscape:current-layer="layer1"
     showgrid="false"
     units="px"
     inkscape:window-width="2560"
     inkscape:window-height="1377"
     inkscape:window-x="1912"
     inkscape:window-y="-8"
     inkscape:window-maximized="1" />
  <metadata
     id="metadata5">
    <rdf:RDF>
      <cc:Work
         rdf:about="">
        <dc:format>image/svg+xml</dc:format>
        <dc:type
           rdf:resource="http://purl.org/dc/dcmitype/StillImage" />
        <dc:title></dc:title>
      </cc:Work>
    </rdf:RDF>
  </metadata>
  <g
     inkscape:label="Layer 1"
     inkscape:groupmode="layer"
     id="layer1"
     transform="translate(0,-26.06665)">
    <path
       style="fill:#e9ddaf;fill-opacity:1;stroke:#756630;stroke-width:12.29771614;stroke-miterlimit:4;stroke-dasharray:none;stroke-opacity:1"
       d="M 508.28516 40.853516 C 498.74615 40.797022 488.98284 41.009848 478.99414 41.5 C 399.65791 45.393079 320.41222 84.747737 256.20312 144.39844 L 253.88477 144.71484 C 253.88477 144.71484 159.10018 209.03199 158.25391 225.11133 C 157.81544 233.44209 166.68784 239.48163 175.34375 243.38672 C 130.68393 316.62894 106.85777 402.00587 117.38477 485.81641 L 116.78711 490.84375 C 116.78711 490.84375 120.17245 527.23395 119.32617 545.00586 C 118.47989 562.77776 113.40113 618.63175 129.48047 628.78711 C 138.28912 634.35046 157.99554 638.63164 174.03711 641.37695 C 193.49926 674.01614 216.41575 704.01529 240.99609 731.29883 C 241.34046 733.51115 241.68906 734.98291 242.03711 735.41797 C 245.42224 739.64938 236.95841 772.65393 237.80469 776.03906 C 238.65097 779.4242 242.03625 787.88749 254.73047 789.58008 C 263.07261 790.69236 285.16004 790.353 301.10352 790.46289 C 368.22524 849.44613 437.05044 889.8292 477.55664 910.04492 C 477.93326 916.46746 479.78672 922.64289 488.30469 926.67773 C 504.38404 934.29424 516.23169 936.83317 523.00195 935.14062 C 524.27671 934.82193 526.4877 933.93088 529.07617 932.85547 C 636.18977 974.86946 704.73398 966.55564 749.80273 928.18945 C 754.83339 928.56136 758.42183 928.90898 759.96094 929.2168 C 772.65516 931.75566 789.57921 936.83334 802.27344 929.2168 C 814.96766 921.60029 808.19796 892.82553 801.42773 885.20898 C 798.84498 882.30339 795.89636 876.1939 793.23242 869.75 C 808.53118 838.46737 818.90394 800.98581 826.60938 760.33789 C 828.49216 759.61707 830.6872 759.11328 833.58594 759.11328 C 842.04872 759.11328 853.89844 754.88281 853.89844 754.88281 L 849.66602 729.49414 C 846.80973 712.35656 841.54012 702.12272 836.62695 695.98047 C 844.15351 637.68731 848.90184 576.42485 856.43555 519.66992 C 856.43555 519.66992 890.28674 517.92383 893.67188 517.92383 C 897.05697 517.92383 895.36581 503.53724 894.51953 497.61328 C 893.67326 491.68929 882.67079 446.83721 869.97656 439.2207 C 866.87538 435.52883 864.24942 432.46042 861.82031 429.63086 C 860.86439 356.61585 846.6444 283.45218 815.48828 220.60547 C 818.30407 219.4468 820.02317 217.49414 821.73828 217.49414 C 825.12342 217.49414 834.43359 192.95117 834.43359 192.95117 C 834.43359 192.95117 813.27581 166.71686 795.50391 152.33008 C 786.18083 144.78283 759.27631 129.6313 735.68945 116.85352 C 680.96695 70.427353 606.43981 41.434821 508.28516 40.853516 z "
       transform="matrix(0.26458333,0,0,0.26458333,0,26.06665)"
       id="path815" />
    <path
       style="fill:#baa557;stroke:none;stroke-width:0.26458332px;stroke-linecap:butt;stroke-linejoin:miter;stroke-opacity:1;fill-opacity:1"
       d="m 50.604075,91.896731 c 0,0 64.038785,15.673829 110.612455,5.373886 46.57366,-10.299946 51.94754,-13.43471 42.09542,-8.50865 -9.85212,4.92606 -45.23019,17.017303 -53.0671,17.912943 -7.83692,0.89565 -62.695319,3.13477 -75.458295,-2.23911 C 62.023579,99.06191 50.604075,91.896731 50.604075,91.896731 Z"
       id="path820"
       inkscape:connector-curvature="0" />
    <path
       style="fill:#baa557;stroke:none;stroke-width:0.26458332px;stroke-linecap:butt;stroke-linejoin:miter;stroke-opacity:1;fill-opacity:1"
       d="m 62.247493,193.55271 c 64.038787,1.79129 36.945454,13.43471 89.340827,-3.58259 52.39537,-17.0173 69.63658,-25.97378 69.63658,-25.97378 0,0 -2.91085,9.62821 -20.59989,16.79339 -17.68903,7.16518 -75.6822,24.63031 -83.96694,25.52595 -8.28474,0.89565 -26.645509,0 -34.482425,-2.68694 -7.836913,-2.68694 -19.928152,-10.07603 -19.928152,-10.07603 z"
       id="path822"
       inkscape:connector-curvature="0" />
    <path
       style="fill:#baa557;stroke:none;stroke-width:0.26458332px;stroke-linecap:butt;stroke-linejoin:miter;stroke-opacity:1;fill-opacity:1"
       d="m 89.564738,238.33508 c 17.912952,1.11956 41.423692,3.58259 55.530132,2.0152 14.10645,-1.56738 35.8259,-3.13476 44.55846,-5.59779 8.73256,-2.46303 21.27162,-5.5978 21.27162,-5.5978 0,0 -8.50864,5.37388 -17.24121,8.06083 -8.73256,2.68694 -22.16727,7.38909 -37.39327,8.95647 -15.22601,1.56738 -33.81069,5.5978 -45.90193,0.89565 -12.09124,-4.70215 -20.823802,-8.73256 -20.823802,-8.73256 z"
       id="path824"
       inkscape:connector-curvature="0" />
    <path
       style="fill:#baa557;stroke:none;stroke-width:0.26458332px;stroke-linecap:butt;stroke-linejoin:miter;stroke-opacity:1;fill-opacity:1"
       d="m 158.30567,271.92185 c 15.89774,0.89565 40.52805,-3.8065 40.52805,-3.8065 0,0 -2.23912,1.34347 -10.52386,4.03042 -8.28474,2.68694 -13.2108,4.25432 -16.56948,3.8065 -3.35867,-0.44783 -12.31515,-3.8065 -12.31515,-3.8065 z"
       id="path826"
       inkscape:connector-curvature="0" />
    <path
       sodipodi:type="star"
       style="fill:#dcce9a;fill-opacity:1;stroke:none;stroke-width:3.17499995;stroke-miterlimit:4;stroke-dasharray:none;stroke-opacity:1"
       id="path828"
       sodipodi:sides="5"
       sodipodi:cx="51.499722"
       sodipodi:cy="128.61827"
       sodipodi:r1="10.155334"
       sodipodi:r2="14.843126"
       sodipodi:arg1="1.3258178"
       sodipodi:arg2="1.9541363"
       inkscape:flatsided="true"
       inkscape:rounded="0"
       inkscape:randomized="0"
       d="M 53.962751,138.47039 42.890915,134.00522 43.716157,122.09547 55.298021,119.2 61.630764,129.32026 Z"
       inkscape:transform-center-x="-1.2030044"
       inkscape:transform-center-y="-0.56797473" />
    <path
       sodipodi:type="star"
       style="fill:#dcce9a;fill-opacity:1;stroke:none;stroke-width:3.17499995;stroke-miterlimit:4;stroke-dasharray:none;stroke-opacity:1"
       id="path830"
       sodipodi:sides="5"
       sodipodi:cx="57.545345"
       sodipodi:cy="163.99634"
       sodipodi:r1="7.576695"
       sodipodi:r2="6.1296749"
       sodipodi:arg1="0.97459719"
       sodipodi:arg2="1.6029157"
       inkscape:flatsided="true"
       inkscape:rounded="0"
       inkscape:randomized="0"
       d="m 61.79967,170.26587 -8.902345,-0.28604 -2.478939,-8.55502 7.370276,-5.00126 7.034021,5.46408 z"
       inkscape:transform-center-x="-0.075188358"
       inkscape:transform-center-y="-0.65162951" />
    <path
       sodipodi:type="star"
       style="fill:#dcce9a;fill-opacity:1;stroke:none;stroke-width:3.17499995;stroke-miterlimit:4;stroke-dasharray:none;stroke-opacity:1"
       id="path832"
       sodipodi:sides="5"
       sodipodi:cx="111.5081"
       sodipodi:cy="149.66599"
       sodipodi:r1="14.867814"
       sodipodi:r2="12.028314"
       sodipodi:arg1="0.64651315"
       sodipodi:arg2="1.2748317"
       inkscape:flatsided="true"
       inkscape:rounded="0"
       inkscape:randomized="0"
       d="m 123.37543,158.62246 -16.71823,5.09773 -10.014451,-14.3247 10.528971,-13.95088 16.5217,5.70258 z"
       inkscape:transform-center-x="1.3400186"
       inkscape:transform-center-y="-0.083590426" />
    <path
       sodipodi:type="star"
       style="fill:#dcce9a;fill-opacity:1;stroke:none;stroke-width:3.17499995;stroke-miterlimit:4;stroke-dasharray:none;stroke-opacity:1"
       id="path834"
       sodipodi:sides="5"
       sodipodi:cx="182.71207"
       sodipodi:cy="123.91613"
       sodipodi:r1="5.0317926"
       sodipodi:r2="4.070806"
       sodipodi:arg1="0.56331626"
       sodipodi:arg2="1.1916348"
       inkscape:flatsided="true"
       inkscape:rounded="0"
       inkscape:randomized="0"
       d="m 186.96639,126.60307 -5.4951,2.18947 -3.78039,-4.54956 3.15869,-5.00126 5.73257,1.45862 z"
       inkscape:transform-center-x="0.3834229"
       inkscape:transform-center-y="0.10100025" />
    <path
       sodipodi:type="star"
       style="fill:#dcce9a;fill-opacity:1;stroke:none;stroke-width:3.17499995;stroke-miterlimit:4;stroke-dasharray:none;stroke-opacity:1"
       id="path836"
       sodipodi:sides="5"
       sodipodi:cx="165.69476"
       sodipodi:cy="204.52438"
       sodipodi:r1="9.9382563"
       sodipodi:r2="8.0402184"
       sodipodi:arg1="0.25044309"
       sodipodi:arg2="0.87876162"
       inkscape:flatsided="true"
       inkscape:rounded="0"
       inkscape:randomized="0"
       d="m 175.32297,206.98741 -8.99541,7.45506 -9.86991,-6.2514 2.89546,-11.31864 11.65941,-0.7439 z"
       inkscape:transform-center-x="-0.19554365"
       inkscape:transform-center-y="0.76111598" />
    <path
       sodipodi:type="star"
       style="fill:#dcce9a;fill-opacity:1;stroke:none;stroke-width:3.17499995;stroke-miterlimit:4;stroke-dasharray:none;stroke-opacity:1"
       id="path838"
       sodipodi:sides="5"
       sodipodi:cx="113.74721"
       sodipodi:cy="224.67645"
       sodipodi:r1="3.6450205"
       sodipodi:r2="2.9488835"
       sodipodi:arg1="0.74194727"
       sodipodi:arg2="1.3702658"
       inkscape:flatsided="true"
       inkscape:rounded="0"
       inkscape:randomized="0"
       d="m 116.43415,227.13948 -4.19911,0.85352 -2.10935,-3.72984 2.89547,-3.15869 3.89884,1.77767 z"
       inkscape:transform-center-x="0.22436291"
       inkscape:transform-center-y="-0.12771564" />
    <path
       sodipodi:type="star"
       style="fill:#dcce9a;fill-opacity:1;stroke:none;stroke-width:3.17499995;stroke-miterlimit:4;stroke-dasharray:none;stroke-opacity:1"
       id="path840"
       sodipodi:sides="5"
       sodipodi:cx="121.80804"
       sodipodi:cy="61.892544"
       sodipodi:r1="6.8357315"
       sodipodi:r2="5.5302234"
       sodipodi:arg1="0.55165498"
       sodipodi:arg2="1.1799735"
       inkscape:flatsided="true"
       inkscape:rounded="0"
       inkscape:randomized="0"
       d="m 127.62974,65.475133 -7.42994,3.061265 -5.20742,-6.120316 4.21159,-6.843828 7.81032,1.890598 z"
       inkscape:transform-center-x="0.49697454"
       inkscape:transform-center-y="0.16178178" />
    <path
       sodipodi:type="star"
       style="fill:#dcce9a;fill-opacity:1;stroke:none;stroke-width:3.17499995;stroke-miterlimit:4;stroke-dasharray:none;stroke-opacity:1"
       id="path842"
       sodipodi:sides="5"
       sodipodi:cx="159.64915"
       sodipodi:cy="252.21761"
       sodipodi:r1="3.8523252"
       sodipodi:r2="3.1165962"
       sodipodi:arg1="0.62024949"
       sodipodi:arg2="1.248568"
       inkscape:flatsided="true"
       inkscape:rounded="0"
       inkscape:randomized="0"
       d="m 162.78392,254.45672 -4.2956,1.43415 -2.69137,-3.64218 2.63225,-3.68514 4.31818,1.36464 z"
       inkscape:transform-center-x="0.35871892"
       inkscape:transform-center-y="0.0096027112" />
    <path
       sodipodi:type="star"
       style="fill:#dcce9a;fill-opacity:1;stroke:none;stroke-width:3.17499995;stroke-miterlimit:4;stroke-dasharray:none;stroke-opacity:1"
       id="path844"
       sodipodi:sides="5"
       sodipodi:cx="199.50546"
       sodipodi:cy="201.16571"
       sodipodi:r1="6.4934435"
       sodipodi:r2="5.2533059"
       sodipodi:arg1="0.80978357"
       sodipodi:arg2="1.4381021"
       inkscape:flatsided="true"
       inkscape:rounded="0"
       inkscape:randomized="0"
       d="m 203.9837,205.86786 -7.5664,1.00995 -3.29866,-6.88398 5.52771,-5.26448 6.71497,3.63035 z"
       inkscape:transform-center-x="0.26548398"
       inkscape:transform-center-y="-0.36213201" />
    <path
       sodipodi:type="star"
       style="fill:#dcce9a;fill-opacity:1;stroke:none;stroke-width:3.17499995;stroke-miterlimit:4;stroke-dasharray:none;stroke-opacity:1"
       id="path846"
       sodipodi:sides="5"
       sodipodi:cx="194.57938"
       sodipodi:cy="251.76981"
       sodipodi:r1="3.0124257"
       sodipodi:r2="2.4371037"
       sodipodi:arg1="0.83798123"
       sodipodi:arg2="1.4662998"
       inkscape:flatsided="true"
       inkscape:rounded="0"
       inkscape:randomized="0"
       d="m 196.59458,254.00892 -3.522,0.36939 -1.43966,-3.23548 2.63224,-2.36902 3.06648,1.77135 z"
       inkscape:transform-center-x="0.097100409"
       inkscape:transform-center-y="-0.19374913" />
  </g>
</svg>
